<svg width="452" height="226" viewBox="0 0 452 226" fill="none" xmlns="http://www.w3.org/2000/svg">
<path d="M441 51.5H415.5V175H441C446.747 173.25 448.932 170.932 449.5 162.5V60C448.813 54.3386 447.178 52.2756 441 51.5Z" fill="#9065B1" stroke="#9065B1" stroke-width="4"/>
<path d="M12 2H399.5C411.217 2.51791 414.809 5.30803 415 15.5V175.5V194V209C414.319 219.589 411.324 223.13 399.5 223.5L17 222.5C7.0168 221.739 3.37326 219.273 2.5 209V194V15.5C2.48579 7.26063 4.82488 4.51122 12 2Z" fill="white"/>
<path d="M2.5 194V209C3.37326 219.273 7.0168 221.739 17 222.5L399.5 223.5C411.324 223.13 414.319 219.589 415 209V194M2.5 194V15.5C2.48579 7.26063 4.82488 4.51122 12 2H399.5C411.217 2.51791 414.809 5.30803 415 15.5V175.5V194M2.5 194H415" stroke="#9065B1" stroke-width="4"/>
</svg>
