<svg width="171" height="223" viewBox="0 0 171 223" fill="none" xmlns="http://www.w3.org/2000/svg">
<path d="M156.292 213.738C156.083 217.882 154.512 219.431 151.051 220.5H10.4745C5.11816 220.379 3.79215 218.647 2.99701 214C2.99701 214 2.99701 82.5 2.99701 59C4.535 42.3123 6.57814 33.9062 24 30H130.5C149.836 32.7697 155.087 39.8386 156.292 60.5V214M41.3814 28.4132V20C40.9822 17.7472 41.4466 16.9064 44.8709 17H63.3153M119.646 28.4132V20C119.42 17.8846 118.774 17.215 116.655 17H97.7117M97.7117 17V16.28C97.7117 15.101 97.5222 13.9297 97.1504 12.8109L96.8209 11.8194C96.1032 9.65976 94.7333 7.77586 92.9 6.4274L91.1482 5.13889C89.2591 3.74942 86.9755 3 84.6305 3H75.6033C73.1331 3 70.7348 3.83145 68.7946 5.36043L67.7657 6.17131C65.8503 7.68084 64.4908 9.78413 63.9009 12.1505L63.6419 13.1899C63.425 14.06 63.3153 14.9534 63.3153 15.8502V17M97.7117 17H63.3153M156.292 63H165.508C167.175 63.1633 167.646 63.6672 168 65V96C167.731 98.3173 167.079 98.9402 165.508 99.5H156.912M5.00001 112.5H155.039M5.00001 124H155.039M5.00001 179H156.036M112.168 137C114.319 137.182 114.977 137.727 115.159 139.5V163C114.63 165.432 113.944 166.147 112.168 166.5H19.4474C18.2761 166.14 17.9877 165.307 17.952 163V142.5C17.784 138.872 18.3054 137.52 20.9429 137H112.168ZM49.3574 188H112.168C114.341 189.14 114.961 190.379 115.159 193.5V206.5C114.656 208.734 113.378 209.86 112.168 210H48.3604C45.9573 209.357 44.6779 208.939 44.3724 206.5V193.5C44.8039 190.714 45.5569 189.367 49.3574 188ZM128.619 162.5V140C128.784 137.889 129.421 137.339 131.111 137H140.583C142.444 137.272 143.156 137.761 143.075 140V162C143.116 165.009 142.465 165.735 140.583 166H131.111C129.188 165.857 128.652 165.082 128.619 162.5Z" stroke="#F8EEEE" stroke-width="5"/>
<path d="M90.7327 50H80.015H69.2973C68.196 50 67.3033 50.8954 67.3033 52V95C67.3033 96.1046 68.196 97 69.2973 97H90.7327C91.834 97 92.7267 96.1046 92.7267 95V52C92.7267 50.8954 91.834 50 90.7327 50Z" stroke="#F8EEEE" stroke-width="5"/>
<path d="M129.117 50H118.399H107.682C106.58 50 105.688 50.8954 105.688 52V95C105.688 96.1046 106.58 97 107.682 97H129.117C130.218 97 131.111 96.1046 131.111 95V52C131.111 50.8954 130.218 50 129.117 50Z" stroke="#F8EEEE" stroke-width="5"/>
<path d="M52.8468 50H42.1291H31.4114C30.3102 50 29.4174 50.8954 29.4174 52V95C29.4174 96.1046 30.3102 97 31.4114 97H52.8468C53.9481 97 54.8408 96.1046 54.8408 95V52C54.8408 50.8954 53.9481 50 52.8468 50Z" stroke="#F8EEEE" stroke-width="5"/>
</svg>
