<?xml version="1.0" standalone="no"?>
<!DOCTYPE svg PUBLIC "-//W3C//DTD SVG 20010904//EN"
 "http://www.w3.org/TR/2001/REC-SVG-20010904/DTD/svg10.dtd">
<svg version="1.0" xmlns="http://www.w3.org/2000/svg"
 width="72.000000pt" height="72.000000pt" viewBox="0 0 72.000000 72.000000"
 preserveAspectRatio="xMidYMid meet">
<metadata>
Created by potrace 1.10, written by Peter Selinger 2001-2011
</metadata>
<g transform="translate(0.000000,72.000000) scale(0.100000,-0.100000)"
fill="#000000" stroke="none">
<path d="M618 578 l-58 -10 0 -48 c0 -62 -22 -133 -55 -175 l-26 -35 -137 0
-137 0 -57 45 c-51 40 -58 42 -70 28 -8 -11 -9 -14 -1 -10 7 5 38 -11 74 -38
34 -25 67 -45 75 -45 8 0 14 -5 14 -11 0 -15 -74 -4 -120 19 -19 9 -39 27 -45
40 -12 27 -17 27 -40 2 -17 -18 -16 -20 31 -49 27 -18 68 -34 96 -37 36 -5 48
-11 48 -24 0 -44 73 -100 130 -100 56 0 130 56 130 99 0 10 18 23 45 34 67 28
131 104 154 186 11 36 22 83 26 104 7 41 11 40 -77 25z m32 -28 c21 -40 -22
-161 -77 -211 -27 -26 -113 -79 -126 -79 -4 0 -7 7 -7 15 0 8 5 15 11 15 24 0
78 54 97 98 11 26 24 75 27 109 8 63 7 62 57 72 4 0 12 -8 18 -19z m-329 -307
c15 -15 1 -73 -17 -73 -27 0 -52 19 -58 45 -4 14 -5 29 -2 33 6 11 65 7 77 -5z
m112 0 c20 -31 -46 -96 -72 -70 -14 14 -14 60 -1 73 13 13 63 12 73 -3z"/>
</g>
</svg>
