<?xml version="1.0" standalone="no"?>
<!DOCTYPE svg PUBLIC "-//W3C//DTD SVG 20010904//EN"
 "http://www.w3.org/TR/2001/REC-SVG-20010904/DTD/svg10.dtd">
<svg version="1.0" xmlns="http://www.w3.org/2000/svg"
 width="72.000000pt" height="72.000000pt" viewBox="0 0 72.000000 72.000000"
 preserveAspectRatio="xMidYMid meet">
<metadata>
Created by potrace 1.10, written by Peter Selinger 2001-2011
</metadata>
<g transform="translate(0.000000,72.000000) scale(0.100000,-0.100000)"
fill="#000000" stroke="none">
<path d="M82 677 c-30 -32 -29 -67 1 -67 13 0 42 -16 65 -36 23 -19 42 -31 42
-25 0 11 -87 81 -101 81 -16 0 -10 26 9 43 10 10 25 17 33 17 8 -1 2 -7 -12
-15 l-27 -15 127 -124 c72 -71 125 -130 121 -136 -5 -7 -11 -6 -20 4 -7 9 -16
14 -20 11 -5 -3 -19 5 -32 17 -13 13 -16 17 -6 9 28 -22 31 -7 3 19 -14 13
-25 20 -25 16 0 -5 -12 -1 -26 9 -14 9 -28 15 -30 12 -8 -8 90 -97 106 -97 9
0 38 -24 65 -52 28 -29 35 -40 18 -24 -45 41 -51 27 -7 -15 23 -21 38 -29 41
-22 6 16 60 -47 60 -69 0 -14 -3 -15 -14 -6 -7 6 -11 13 -8 16 3 3 -2 14 -11
24 -20 21 -46 7 -37 -20 3 -9 -15 5 -41 32 -30 32 -46 57 -44 70 2 16 -2 20
-17 18 -12 -1 -31 8 -45 23 -13 14 -19 25 -13 25 5 0 18 -9 27 -19 20 -23 62
-26 44 -4 -6 8 -13 11 -16 9 -2 -3 -16 4 -30 15 -16 12 -28 16 -32 9 -4 -6
-19 4 -36 22 -23 26 -24 28 -3 10 42 -37 46 -25 4 18 -33 34 -36 40 -21 46 10
4 22 2 29 -5 19 -19 31 -12 13 8 -13 14 -24 17 -44 12 -33 -9 -41 -45 -15 -73
10 -11 18 -27 18 -36 0 -9 10 -19 22 -22 12 -3 75 -61 139 -130 228 -244 224
-240 259 -240 40 0 65 26 65 70 0 29 -19 52 -177 212 -134 135 -177 185 -175
201 2 16 0 19 -8 11 -8 -8 -32 10 -85 66 -57 60 -73 82 -68 99 4 17 1 21 -19
21 -14 0 -34 -10 -46 -23z m399 -415 c-2 -9 -28 10 -69 51 -35 36 -62 69 -59
75 9 13 133 -110 128 -126z m-50 -19 c10 -11 10 -14 2 -9 -20 11 -15 -9 6 -28
24 -22 37 -15 44 24 4 16 12 30 18 30 7 0 9 -3 6 -6 -3 -4 5 -15 18 -26 14
-11 25 -27 25 -36 0 -12 -8 -8 -30 13 -16 16 -30 24 -30 18 0 -6 14 -23 31
-38 17 -14 29 -29 25 -32 -3 -4 -17 4 -30 16 -21 20 -23 20 -22 3 0 -10 9 -26
18 -35 19 -19 33 -23 22 -5 -4 7 -3 8 4 4 6 -4 8 -14 5 -23 -5 -13 -2 -15 11
-10 9 4 15 3 12 -2 -3 -4 6 -7 19 -5 14 1 25 -2 25 -8 0 -6 -9 -8 -20 -5 -15
4 -20 0 -20 -14 0 -11 7 -19 16 -19 8 0 12 5 9 10 -3 6 1 10 10 10 10 0 13 -5
9 -12 -4 -6 -3 -8 4 -4 7 4 8 17 1 38 -5 19 -5 36 0 41 11 11 25 -46 16 -72
-8 -26 -45 -34 -73 -15 -20 13 -21 18 -10 31 11 14 10 15 -7 10 -15 -5 -28 4
-55 35 -19 23 -29 39 -23 35 6 -4 13 0 17 8 3 8 1 17 -4 20 -6 4 -10 1 -10 -4
0 -19 -26 -12 -48 12 -14 15 -18 27 -12 37 5 8 6 18 4 22 -9 15 3 8 17 -9z
m145 -62 c-3 -5 1 -11 9 -15 8 -3 15 -13 15 -23 0 -13 -3 -14 -12 -5 -24 24
-31 11 -7 -14 22 -24 22 -26 3 -16 -12 6 -24 9 -26 6 -7 -6 0 55 7 67 4 5 8 9
11 9 3 0 3 -4 0 -9z"/>
<path d="M320 334 c0 -13 68 -79 75 -73 2 3 -13 23 -35 44 -22 22 -40 35 -40
29z"/>
</g>
</svg>
