<?xml version="1.0" standalone="no"?>
<!DOCTYPE svg PUBLIC "-//W3C//DTD SVG 20010904//EN"
 "http://www.w3.org/TR/2001/REC-SVG-20010904/DTD/svg10.dtd">
<svg version="1.0" xmlns="http://www.w3.org/2000/svg"
 width="72.000000pt" height="72.000000pt" viewBox="0 0 72.000000 72.000000"
 preserveAspectRatio="xMidYMid meet">
<metadata>
Created by potrace 1.10, written by Peter Selinger 2001-2011
</metadata>
<g transform="translate(0.000000,72.000000) scale(0.100000,-0.100000)"
fill="#000000" stroke="none">
<path d="M30 655 c-13 -24 -11 -28 25 -65 38 -39 38 -40 20 -60 -21 -23 -13
-39 9 -21 32 27 30 51 -9 91 -21 21 -35 44 -33 50 2 7 32 -17 67 -54 35 -36
68 -63 74 -59 6 3 7 2 4 -4 -10 -15 479 -497 497 -490 25 10 19 37 -20 79 -42
46 -67 102 -59 127 3 10 -1 24 -10 31 -13 10 -19 10 -34 -4 -10 -9 -28 -15
-40 -13 -12 2 -70 51 -129 110 -59 59 -111 107 -117 107 -5 0 -55 45 -110 100
-56 55 -106 100 -112 100 -5 0 -16 -11 -23 -25z m348 -279 c45 -44 82 -86 82
-93 0 -7 3 -12 8 -11 11 4 62 -33 58 -41 -3 -4 10 -5 28 -3 27 3 34 -1 45 -24
11 -25 11 -26 -5 -13 -16 12 -17 12 -9 -1 5 -8 23 -33 42 -56 18 -22 30 -44
26 -47 -3 -4 -1 -7 5 -7 7 0 12 -5 12 -11 0 -18 -15 -6 -71 55 -30 33 -48 56
-40 51 10 -5 12 -4 7 4 -4 6 -11 9 -15 7 -4 -3 -77 65 -162 151 -155 157 -165
188 -11 39z"/>
</g>
</svg>
