<?xml version="1.0" standalone="no"?>
<!DOCTYPE svg PUBLIC "-//W3C//DTD SVG 20010904//EN"
 "http://www.w3.org/TR/2001/REC-SVG-20010904/DTD/svg10.dtd">
<svg version="1.0" xmlns="http://www.w3.org/2000/svg"
 width="72.000000pt" height="72.000000pt" viewBox="0 0 72.000000 72.000000"
 preserveAspectRatio="xMidYMid meet">
<metadata>
Created by potrace 1.10, written by Peter Selinger 2001-2011
</metadata>
<g transform="translate(0.000000,72.000000) scale(0.100000,-0.100000)"
fill="#000000" stroke="none">
<path d="M19 694 c-11 -14 -8 -20 21 -45 19 -16 29 -29 23 -29 -15 0 -18 -30
-4 -30 5 0 12 7 15 16 10 25 32 1 67 -75 36 -75 78 -124 129 -151 45 -23 112
-95 140 -149 11 -23 25 -39 30 -36 5 3 7 0 4 -8 -7 -20 66 -81 114 -95 22 -7
55 -23 75 -36 44 -30 67 -17 37 21 -11 14 -29 50 -40 81 -26 70 -65 112 -151
163 -71 41 -108 78 -139 139 -20 38 -85 100 -106 100 -15 0 -104 48 -127 68
-16 14 -16 16 -1 34 16 17 16 18 1 18 -10 0 -17 -6 -17 -12 0 -7 -10 -1 -21
15 -24 31 -32 33 -50 11z m320 -288 c27 -28 32 -39 23 -48 -10 -10 -25 0 -70
45 -32 31 -64 57 -72 57 -8 0 -28 19 -45 43 -18 26 -22 36 -10 27 17 -14 18
-13 13 8 -5 17 9 9 60 -37 37 -32 83 -75 101 -95z m-60 119 c2 -3 -1 -11 -7
-17 -10 -10 -20 -5 -45 21 l-32 33 39 -17 c22 -8 42 -18 45 -20z m126 -187
c14 -12 23 -28 21 -35 -3 -7 1 -10 9 -6 8 3 18 -2 21 -11 3 -9 11 -13 18 -10
6 4 3 -2 -7 -12 -17 -18 -19 -17 -63 28 -26 25 -43 51 -40 57 10 15 12 14 41
-11z m131 -103 c-3 -8 0 -15 6 -15 6 0 8 -3 5 -7 -4 -3 13 -30 38 -59 35 -40
41 -53 30 -58 -21 -8 -118 30 -139 53 -18 19 -30 75 -15 66 4 -3 11 0 14 6 7
10 41 27 59 28 4 1 6 -6 2 -14z m84 -93 c0 -3 -15 9 -34 27 -27 26 -32 36 -23
46 9 10 17 4 34 -27 13 -22 23 -43 23 -46z"/>
<path d="M475 181 c-8 -15 3 -31 21 -31 9 0 14 7 12 17 -4 20 -24 28 -33 14z"/>
</g>
</svg>
