<?xml version="1.0" standalone="no"?>
<!DOCTYPE svg PUBLIC "-//W3C//DTD SVG 20010904//EN"
 "http://www.w3.org/TR/2001/REC-SVG-20010904/DTD/svg10.dtd">
<svg version="1.0" xmlns="http://www.w3.org/2000/svg"
 width="72.000000pt" height="72.000000pt" viewBox="0 0 72.000000 72.000000"
 preserveAspectRatio="xMidYMid meet">
<metadata>
Created by potrace 1.10, written by Peter Selinger 2001-2011
</metadata>
<g transform="translate(0.000000,72.000000) scale(0.100000,-0.100000)"
fill="#000000" stroke="none">
<path d="M41 680 c-36 -37 -36 -38 -11 -69 16 -18 23 -21 34 -12 11 9 16 9 22
0 4 -7 2 -15 -4 -17 -23 -7 -12 -21 16 -19 23 2 27 -2 24 -22 -1 -17 2 -22 12
-18 11 4 13 1 9 -10 -5 -12 -2 -15 10 -10 11 4 14 2 10 -9 -4 -10 0 -12 13 -7
17 6 18 5 4 -12 -14 -17 -13 -17 10 -12 14 4 19 4 13 1 -18 -8 -16 -27 1 -21
11 4 13 1 9 -10 -4 -10 -2 -14 6 -12 7 3 52 -36 101 -86 70 -72 89 -98 95
-130 8 -44 43 -120 52 -111 3 3 23 -10 45 -29 43 -39 53 -42 62 -18 5 11 -8
32 -42 67 -84 87 -146 172 -110 150 7 -4 8 -3 4 4 -4 6 -13 9 -21 5 -11 -4
-13 -1 -9 11 8 22 17 20 44 -9 15 -16 19 -25 10 -25 -20 0 -6 -10 20 -15 l23
-4 -22 23 c-19 20 -20 24 -6 36 9 7 22 9 32 5 10 -5 22 -7 27 -6 21 5 82 -24
116 -55 46 -42 66 -85 51 -111 -8 -13 -10 -14 -11 -3 0 8 -21 -6 -50 -35 -27
-26 -47 -52 -44 -57 3 -4 -3 -8 -13 -8 -21 0 -60 25 -85 55 -10 11 -17 15 -18
8 0 -21 73 -73 104 -73 63 0 136 75 136 138 0 61 -101 144 -190 158 -25 4 -52
13 -61 21 -9 7 -25 11 -35 7 -15 -5 -16 -4 -4 5 12 8 1 23 -60 85 -42 41 -74
80 -71 87 2 8 -2 10 -14 5 -15 -5 -16 -4 -5 9 9 11 9 15 1 15 -21 0 -24 -31
-4 -45 44 -31 83 -73 71 -77 -10 -4 -10 -8 1 -21 9 -12 10 -17 2 -17 -8 0 -8
-4 1 -14 9 -10 15 -11 20 -2 8 12 10 7 10 -24 0 -31 -1 -31 -23 -12 -26 21
-303 331 -307 343 -5 14 25 11 40 -4 7 -8 19 -12 27 -9 8 3 11 0 7 -7 -5 -7
-1 -9 9 -5 11 4 14 2 10 -9 -8 -19 97 -121 107 -104 13 20 9 30 -7 17 -13 -11
-14 -10 -8 5 5 14 3 17 -10 12 -12 -4 -14 -2 -10 10 5 12 2 15 -10 10 -11 -4
-14 -2 -11 8 3 8 -1 12 -13 12 -14 -2 -18 4 -16 24 1 19 -5 30 -24 38 -13 6
-28 9 -33 6 -4 -3 -7 3 -6 12 2 28 -21 25 -53 -7z m396 -358 c11 9 13 8 11 -3
-2 -8 3 -13 11 -11 12 3 12 0 1 -13 -12 -14 -14 -14 -31 1 -14 12 -22 13 -38
4 -25 -13 -27 -7 -5 15 12 11 20 13 27 6 7 -7 15 -7 24 1z"/>
<path d="M232 483 c15 -15 30 -24 34 -20 7 7 -35 46 -51 47 -5 0 3 -12 17 -27z"/>
<path d="M502 218 c-8 -8 -9 -15 -1 -25 9 -10 8 -13 -2 -13 -7 0 2 -13 21 -30
19 -16 31 -29 26 -30 -5 0 1 -11 14 -25 22 -23 25 -24 42 -8 18 16 18 17 -4
40 -26 28 -13 31 17 3 l21 -20 24 25 c28 30 19 45 -44 77 l-41 20 43 -44 c26
-27 37 -45 28 -45 -8 0 -12 5 -9 10 4 6 1 7 -7 2 -8 -5 -11 -4 -7 1 3 6 -5 10
-19 10 -13 0 -24 -4 -24 -9 0 -4 -5 -5 -10 -2 -6 4 -8 10 -5 15 8 12 -24 60
-39 60 -7 0 -17 -5 -24 -12z m53 -48 c-2 -4 9 -20 25 -35 23 -22 27 -31 18
-42 -9 -11 -14 -11 -29 3 -10 9 -17 20 -14 24 2 4 -7 17 -20 30 -13 13 -22 26
-20 31 3 4 1 10 -5 14 -6 4 -8 11 -4 16 4 6 16 1 30 -12 13 -12 21 -25 19 -29z"/>
<path d="M519 198 c7 -10 10 -18 5 -18 -4 0 5 -13 21 -30 16 -17 25 -30 21
-30 -5 0 -3 -7 4 -15 7 -8 17 -12 22 -9 5 4 -4 21 -21 38 -17 18 -29 35 -26
38 3 2 -5 13 -17 24 -18 15 -20 16 -9 2z"/>
</g>
</svg>
