<?xml version="1.0" standalone="no"?>
<!DOCTYPE svg PUBLIC "-//W3C//DTD SVG 20010904//EN"
 "http://www.w3.org/TR/2001/REC-SVG-20010904/DTD/svg10.dtd">
<svg version="1.0" xmlns="http://www.w3.org/2000/svg"
 width="72.000000pt" height="72.000000pt" viewBox="0 0 72.000000 72.000000"
 preserveAspectRatio="xMidYMid meet">
<metadata>
Created by potrace 1.10, written by Peter Selinger 2001-2011
</metadata>
<g transform="translate(0.000000,72.000000) scale(0.100000,-0.100000)"
fill="#000000" stroke="none">
<path d="M22 688 c-15 -15 -15 -38 -1 -38 8 0 7 -6 -2 -17 -13 -15 -12 -16 9
-11 12 4 20 2 17 -2 -11 -18 7 -40 29 -34 18 4 39 -13 113 -88 50 -51 103
-107 117 -125 26 -30 26 -32 9 -61 -25 -43 -9 -80 45 -110 34 -19 42 -29 42
-52 0 -125 146 -174 243 -82 37 35 67 93 67 132 0 34 -61 110 -89 110 -48 0
-88 21 -104 55 -22 46 -60 49 -76 5 -5 -16 -15 -30 -21 -30 -16 0 -300 270
-300 285 0 8 -17 16 -40 20 -30 5 -40 11 -40 26 0 24 11 24 40 -1 37 -32 55
-25 22 8 -21 21 -64 26 -80 10z m366 -346 c18 -13 29 -28 26 -34 -5 -7 -2 -8
6 -3 17 10 141 -121 133 -141 -3 -10 7 -27 28 -45 l34 -30 -35 20 c-20 12 -37
16 -40 10 -7 -11 -70 -31 -68 -21 3 11 -25 82 -33 82 -9 0 -18 37 -11 44 3 3
11 1 19 -6 11 -8 12 -7 7 6 -7 18 -13 19 -33 7 -17 -11 -8 -54 19 -89 11 -13
17 -28 14 -33 -10 -16 -20 -2 -39 55 -10 30 -22 53 -26 50 -5 -2 -19 12 -33
33 -20 30 -26 33 -26 17 0 -11 6 -26 13 -34 10 -12 9 -12 -5 -1 -21 16 -23 60
-5 85 13 17 15 16 40 -15 14 -18 28 -31 31 -28 3 3 -57 71 -134 151 -77 81
-140 152 -140 159 0 8 51 -38 113 -101 61 -64 127 -126 145 -138z m123 13 c16
-26 31 -37 62 -45 51 -13 91 -29 85 -35 -2 -2 -18 -7 -37 -10 -23 -4 -30 -2
-25 6 7 12 -13 29 -36 29 -13 0 -13 -1 0 -11 23 -16 -27 -1 -72 22 -45 23 -48
28 -37 57 12 32 37 27 60 -13z m110 -109 c15 9 49 -26 49 -51 0 -13 -10 -30
-22 -38 l-23 -16 22 0 c16 -1 20 -6 16 -21 -9 -35 -22 -26 -110 72 -9 9 -13
24 -10 33 4 9 1 15 -9 15 -8 0 -13 4 -10 9 4 5 23 5 47 0 22 -5 45 -7 50 -3z
m-13 -179 c4 -20 -59 -41 -102 -33 -18 4 -42 16 -54 29 l-21 22 42 -3 c23 -1
53 4 67 11 20 11 29 12 45 2 11 -7 21 -19 23 -28z"/>
<path d="M465 181 c-7 -12 12 -24 24 -16 5 3 17 -5 25 -17 9 -12 19 -19 23
-15 8 8 -40 57 -56 57 -5 0 -12 -4 -16 -9z"/>
</g>
</svg>
