<?xml version="1.0" standalone="no"?>
<!DOCTYPE svg PUBLIC "-//W3C//DTD SVG 20010904//EN"
 "http://www.w3.org/TR/2001/REC-SVG-20010904/DTD/svg10.dtd">
<svg version="1.0" xmlns="http://www.w3.org/2000/svg"
 width="72.000000pt" height="72.000000pt" viewBox="0 0 72.000000 72.000000"
 preserveAspectRatio="xMidYMid meet">
<metadata>
Created by potrace 1.10, written by Peter Selinger 2001-2011
</metadata>
<g transform="translate(0.000000,72.000000) scale(0.100000,-0.100000)"
fill="#000000" stroke="none">
<path d="M40 689 c0 -5 -4 -7 -10 -4 -5 3 -10 -1 -10 -9 0 -9 5 -16 11 -16 8
0 8 -4 0 -14 -7 -8 -8 -17 -3 -20 12 -7 69 40 59 50 -4 4 -14 -1 -23 -12 -15
-18 -15 -18 -9 9 3 15 1 27 -5 27 -5 0 -10 -5 -10 -11z"/>
<path d="M96 644 c-3 -8 -10 -13 -15 -10 -5 3 -15 -2 -22 -11 -12 -14 -11 -15
10 -8 21 6 22 5 16 -16 -7 -21 -6 -22 8 -11 14 12 34 -4 156 -118 l140 -132 6
-66 c15 -143 41 -209 95 -237 39 -20 66 -19 117 6 99 48 122 127 57 199 -37
40 -134 94 -189 105 -16 3 -3 -6 30 -20 55 -23 155 -100 155 -119 0 -5 -18 8
-40 28 -22 20 -43 36 -48 36 -4 0 20 -25 53 -54 l60 -54 -18 -36 c-9 -20 -24
-39 -32 -42 -8 -4 -12 -10 -9 -15 3 -5 -4 -9 -16 -9 -61 0 -128 76 -175 198
-20 52 -25 76 -18 83 8 8 -29 48 -129 140 -77 71 -144 129 -149 129 -5 0 -5 8
-2 17 5 13 2 15 -11 10 -14 -5 -17 -3 -12 8 3 8 1 15 -3 15 -5 0 -12 -7 -15
-16z m335 -468 c-9 -19 -10 -18 -10 9 -1 17 -4 41 -6 55 -4 18 -1 16 11 -9 11
-25 13 -40 5 -55z"/>
<path d="M437 323 c11 -30 143 -161 161 -159 12 1 16 -5 14 -18 -3 -18 -2 -18
13 -6 15 13 8 22 -72 97 -100 94 -126 114 -116 86z"/>
</g>
</svg>
