<?xml version="1.0" standalone="no"?>
<!DOCTYPE svg PUBLIC "-//W3C//DTD SVG 20010904//EN"
 "http://www.w3.org/TR/2001/REC-SVG-20010904/DTD/svg10.dtd">
<svg version="1.0" xmlns="http://www.w3.org/2000/svg"
 width="72.000000pt" height="72.000000pt" viewBox="0 0 72.000000 72.000000"
 preserveAspectRatio="xMidYMid meet">
<metadata>
Created by potrace 1.10, written by Peter Selinger 2001-2011
</metadata>
<g transform="translate(0.000000,72.000000) scale(0.100000,-0.100000)"
fill="#000000" stroke="none">
<path d="M410 655 c0 -9 -6 -12 -16 -8 -26 10 -44 -25 -44 -83 0 -36 5 -56 15
-61 12 -7 13 -16 4 -47 -6 -21 -8 -49 -4 -63 4 -18 2 -24 -7 -21 -8 3 -15 29
-18 69 -5 60 -6 62 -18 40 -8 -13 -12 -37 -10 -55 3 -31 3 -31 -34 -27 -49 4
-83 -18 -98 -64 -6 -19 -18 -35 -26 -35 -9 0 -12 -5 -8 -11 8 -14 -11 -51 -63
-121 -24 -31 -42 -63 -41 -70 2 -8 -4 -12 -14 -10 -21 3 -23 -9 -6 -26 14 -14
42 -16 33 -3 -6 11 64 132 97 168 11 12 18 26 14 31 -3 5 5 7 17 5 17 -3 25 3
35 26 14 33 32 41 32 16 0 -34 42 -95 85 -125 89 -61 196 -46 281 41 21 21 44
39 51 39 7 0 13 3 13 6 0 12 -24 51 -48 77 -31 33 -64 34 -142 7 -30 -10 -56
-18 -57 -16 -5 5 30 126 37 126 4 0 5 12 2 26 -3 17 -9 23 -19 20 -8 -3 -20
-6 -26 -6 -8 0 -8 -3 0 -11 8 -8 7 -25 -3 -62 -16 -61 -17 -78 -4 -57 8 13 10
12 10 -3 0 -21 -27 -34 -41 -20 -14 14 40 273 59 281 19 7 32 -16 32 -59 0
-39 12 -49 56 -49 36 0 73 87 45 104 -17 11 -42 -6 -35 -23 3 -9 9 -26 11 -38
5 -20 1 -23 -26 -23 -25 0 -32 5 -36 25 -3 14 -7 36 -10 50 -4 17 -12 25 -25
25 -11 0 -20 4 -20 9 0 5 -7 11 -15 15 -9 3 -15 0 -15 -9z m-13 -79 c-1 -30
-5 -52 -9 -49 -5 2 -8 -1 -8 -6 0 -6 -4 -11 -10 -11 -13 0 -13 45 1 93 14 52
29 37 26 -27z m-111 -228 c-3 -13 -5 -26 -5 -30 -2 -15 -21 -8 -21 8 0 9 -5
12 -12 8 -7 -4 -8 -3 -4 5 4 6 12 9 17 6 5 -4 12 1 15 9 9 23 15 19 10 -6z
m63 -7 c13 -11 28 -22 34 -24 7 -2 9 -8 5 -12 -5 -5 -16 -1 -25 7 -10 9 -28
19 -40 22 -13 4 -23 12 -23 17 0 15 26 10 49 -10z m-20 -20 c11 -7 10 -13 -4
-35 -19 -29 -26 -31 -43 -14 -19 19 -14 30 11 24 12 -3 16 -3 10 0 -7 3 -13
12 -13 20 0 16 18 18 39 5z m291 -11 c28 -28 25 -41 -17 -82 -66 -63 -135 -86
-201 -69 -22 6 -45 18 -52 26 -10 12 -7 13 18 6 52 -15 133 50 111 91 -7 14
-6 18 6 18 8 0 15 -5 15 -11 0 -8 5 -8 15 1 8 7 12 17 8 23 -3 6 -1 7 5 3 7
-4 20 -2 29 3 26 15 41 13 63 -9z m-182 -12 c6 -13 11 -17 11 -10 1 7 6 10 11
7 17 -10 11 -25 -9 -25 -10 0 -21 -9 -24 -21 -5 -17 -9 -19 -26 -9 -26 13 -26
21 -2 47 11 12 17 24 14 27 -4 3 -2 6 4 6 5 0 15 -10 21 -22z m-64 -28 c-14
-14 -39 14 -29 31 5 8 12 6 23 -5 11 -11 13 -19 6 -26z m-25 -9 c16 -10 6 -31
-14 -31 -17 0 -28 17 -20 30 8 12 16 12 34 1z m45 -27 c26 -10 18 -24 -14 -24
-29 0 -38 9 -23 23 8 9 17 9 37 1z"/>
<path d="M499 473 c-36 -93 -47 -131 -29 -103 9 13 10 13 11 0 0 -8 9 5 20 29
14 32 23 42 36 37 9 -4 32 -1 52 5 32 11 36 10 49 -10 9 -13 25 -21 43 -21 26
0 29 3 29 32 l0 32 -20 -22 c-25 -27 -25 -27 -51 -1 -21 21 -33 21 -96 3 -18
-5 -21 -3 -16 14 8 32 -16 36 -28 5z"/>
</g>
</svg>
