<?xml version="1.0" standalone="no"?>
<!DOCTYPE svg PUBLIC "-//W3C//DTD SVG 20010904//EN"
 "http://www.w3.org/TR/2001/REC-SVG-20010904/DTD/svg10.dtd">
<svg version="1.0" xmlns="http://www.w3.org/2000/svg"
 width="72.000000pt" height="72.000000pt" viewBox="0 0 72.000000 72.000000"
 preserveAspectRatio="xMidYMid meet">
<metadata>
Created by potrace 1.10, written by Peter Selinger 2001-2011
</metadata>
<g transform="translate(0.000000,72.000000) scale(0.100000,-0.100000)"
fill="#000000" stroke="none">
<path d="M71 696 c-26 -9 -37 -21 -47 -49 -7 -20 -9 -39 -5 -42 11 -6 41 56
34 69 -4 5 1 7 11 3 10 -4 15 -3 11 3 -3 6 -2 10 4 10 5 0 13 -9 16 -21 6 -17
9 -18 23 -7 15 12 16 11 3 -4 -7 -10 -20 -18 -28 -18 -11 0 -11 -4 -2 -22 l12
-23 -22 20 c-19 16 -24 17 -31 5 -12 -19 -12 -22 1 -40 7 -10 12 -11 15 -3 4
8 14 9 34 3 16 -4 31 -6 33 -3 3 2 4 -4 4 -14 -1 -11 4 -18 15 -17 10 1 16 -2
13 -6 -7 -12 93 -110 108 -106 6 1 9 1 5 -1 -17 -10 5 -33 26 -28 16 5 17 4 7
-4 -12 -8 -12 -12 -2 -25 12 -15 15 -15 25 -1 10 14 21 14 114 -1 102 -17 126
-29 75 -37 -16 -2 4 -5 44 -6 64 -1 71 -3 66 -20 -3 -10 0 -22 7 -26 8 -5 6
-11 -7 -21 -26 -19 -35 -17 -28 8 6 17 4 20 -10 15 -9 -4 -19 -7 -21 -7 -2 0
-4 -5 -4 -11 0 -5 5 -7 10 -4 6 3 10 3 10 -2 0 -4 -13 -14 -30 -21 -16 -8 -30
-20 -30 -29 0 -8 -9 -17 -20 -20 -11 -3 -20 -10 -20 -17 0 -8 -2 -8 -8 1 -8
12 -35 -3 -39 -22 -1 -6 -5 -18 -9 -29 -6 -15 -4 -17 14 -11 16 4 22 2 22 -8
0 -21 -26 -41 -35 -27 -4 6 -16 10 -27 8 -16 -2 -24 6 -34 32 l-14 35 6 -35
c4 -19 12 -53 19 -75 l11 -40 85 84 c73 72 94 104 33 49 -16 -14 -26 -16 -45
-9 -23 9 -23 9 -4 16 46 15 88 41 110 67 13 15 25 23 27 17 2 -5 27 13 57 42
49 49 51 54 32 61 -21 7 -231 51 -305 63 -32 5 -57 24 -141 106 -96 94 -128
142 -101 153 16 7 -16 27 -33 21 -11 -4 -11 -2 -2 9 17 20 1 25 -38 12z"/>
<path d="M352 344 c-1 -13 3 -24 9 -24 6 0 9 6 6 14 -3 8 1 13 10 12 9 0 17 4
19 9 2 6 -6 11 -19 11 -17 1 -23 -4 -25 -22z"/>
<path d="M435 320 c-3 -5 -12 -7 -19 -4 -7 3 -20 -2 -28 -10 -11 -11 -18 -12
-26 -4 -9 9 -9 3 -3 -20 9 -31 -1 -45 -13 -19 -4 6 -4 -3 -1 -22 3 -18 5 -41
5 -51 0 -9 11 -22 25 -28 l25 -12 -21 42 c-14 28 -17 43 -10 48 6 3 14 17 16
30 2 13 10 28 16 34 8 8 9 3 4 -21 -3 -18 -2 -34 4 -38 6 -3 11 1 11 10 0 21
27 48 39 40 5 -3 12 -1 16 4 3 6 -3 15 -14 21 -12 6 -22 6 -26 0z"/>
</g>
</svg>
