<?xml version="1.0" standalone="no"?>
<!DOCTYPE svg PUBLIC "-//W3C//DTD SVG 20010904//EN"
 "http://www.w3.org/TR/2001/REC-SVG-20010904/DTD/svg10.dtd">
<svg version="1.0" xmlns="http://www.w3.org/2000/svg"
 width="72.000000pt" height="72.000000pt" viewBox="0 0 72.000000 72.000000"
 preserveAspectRatio="xMidYMid meet">
<metadata>
Created by potrace 1.10, written by Peter Selinger 2001-2011
</metadata>
<g transform="translate(0.000000,72.000000) scale(0.100000,-0.100000)"
fill="#000000" stroke="none">
<path d="M93 703 c-19 -7 -16 -31 7 -60 11 -14 20 -36 20 -49 0 -26 17 -35 44
-22 13 7 21 6 27 -3 11 -19 0 -32 -23 -26 -17 5 -16 1 8 -41 74 -125 84 -152
84 -218 0 -78 28 -156 75 -211 43 -50 82 -67 140 -60 121 13 199 156 150 275
-18 41 -84 114 -97 106 -4 -3 -8 0 -8 5 0 6 -5 11 -11 11 -5 0 -7 -6 -4 -12 4
-7 0 -5 -9 6 -8 10 -19 15 -25 12 -5 -4 -12 -2 -16 4 -9 15 -25 12 -25 -5 0
-8 6 -15 14 -15 7 0 31 -8 52 -17 22 -9 43 -16 47 -15 5 2 6 -2 3 -7 -7 -10
18 -33 27 -26 4 3 5 2 2 -1 -2 -4 1 -16 7 -28 7 -11 11 -24 10 -28 -1 -5 2 -8
8 -8 15 0 12 -47 -5 -80 -9 -17 -21 -30 -27 -30 -6 0 -8 -3 -5 -7 4 -3 18 4
32 17 l25 24 -14 -48 c-17 -56 -23 -65 -32 -42 -8 20 -33 21 -41 1 -4 -13 -82
-61 -90 -56 -2 0 -3 -2 -2 -6 1 -12 42 -4 50 9 4 6 11 8 17 4 6 -3 12 -2 14 3
5 12 48 24 48 13 0 -15 -82 -52 -116 -52 -44 0 -94 31 -118 73 l-21 37 40 35
c36 31 37 33 10 20 -16 -8 -35 -15 -41 -15 -18 0 -33 49 -36 117 -1 34 -6 59
-10 57 -7 -5 -12 10 -9 29 0 4 -3 7 -8 7 -6 0 -8 9 -6 20 2 11 -1 20 -6 20 -6
0 -8 4 -5 9 3 5 -1 12 -10 15 -8 3 -12 10 -9 16 3 5 1 10 -5 10 -6 0 -8 5 -5
10 3 6 1 10 -4 10 -6 0 -10 3 -10 8 3 20 -2 32 -13 26 -7 -5 -8 -3 -3 6 6 10
11 9 21 -6 7 -10 18 -24 23 -30 5 -7 7 -15 4 -18 -4 -3 0 -6 8 -6 12 0 12 -2
0 -9 -11 -7 -9 -10 7 -15 12 -4 24 -15 27 -25 6 -20 48 -37 53 -22 1 5 16 7
32 5 21 -3 30 1 30 11 0 11 -10 13 -44 9 -32 -3 -48 0 -60 11 -23 23 -96 151
-96 168 0 17 -32 47 -50 47 -10 0 -10 3 0 15 25 30 -6 55 -47 38z m68 -73 c10
-6 19 -17 19 -25 0 -23 -16 -18 -34 10 -18 27 -15 30 15 15z"/>
<path d="M505 288 c-1 -38 3 -61 6 -51 10 24 11 111 2 116 -5 3 -8 -26 -8 -65z"/>
<path d="M380 299 c9 -15 8 -24 -1 -35 -6 -8 -8 -14 -4 -14 4 0 1 -8 -6 -17
-13 -15 -12 -15 6 -6 15 9 22 8 32 -5 11 -15 12 -15 10 5 0 12 -5 19 -9 17 -9
-6 -11 8 -9 42 1 12 -5 24 -14 27 -13 6 -14 3 -5 -14z"/>
<path d="M552 263 c-12 -10 -22 -25 -24 -33 -2 -8 -18 -30 -35 -48 -37 -37
-39 -42 -20 -42 16 0 57 41 57 57 0 6 12 26 26 43 30 35 27 49 -4 23z"/>
<path d="M467 106 c-3 -7 -19 -16 -37 -19 -17 -4 -29 -11 -25 -17 6 -10 42 5
80 34 17 13 17 15 4 16 -9 0 -19 -6 -22 -14z"/>
</g>
</svg>
