<?xml version="1.0" standalone="no"?>
<!DOCTYPE svg PUBLIC "-//W3C//DTD SVG 20010904//EN"
 "http://www.w3.org/TR/2001/REC-SVG-20010904/DTD/svg10.dtd">
<svg version="1.0" xmlns="http://www.w3.org/2000/svg"
 width="72.000000pt" height="72.000000pt" viewBox="0 0 72.000000 72.000000"
 preserveAspectRatio="xMidYMid meet">
<metadata>
Created by potrace 1.10, written by Peter Selinger 2001-2011
</metadata>
<g transform="translate(0.000000,72.000000) scale(0.100000,-0.100000)"
fill="#000000" stroke="none">
<path d="M473 648 c-18 -6 -33 -17 -33 -24 0 -14 -60 -50 -60 -37 0 5 -7 -1
-15 -11 -8 -11 -15 -16 -15 -12 0 5 -11 1 -25 -8 -14 -9 -30 -14 -35 -11 -5 3
-13 -3 -19 -12 -6 -10 -11 -14 -11 -10 0 5 -16 -1 -35 -13 -19 -12 -35 -18
-35 -14 0 4 -6 0 -13 -11 -8 -10 -19 -15 -26 -11 -19 12 -110 -23 -122 -47 -7
-12 -8 -19 -4 -15 4 4 28 -8 53 -27 25 -19 50 -35 56 -35 6 0 19 -9 29 -20 14
-17 57 -29 57 -16 0 2 -31 27 -70 55 -38 29 -73 57 -77 64 -9 15 35 -13 109
-70 32 -24 58 -39 58 -34 0 6 -4 11 -10 11 -5 0 -10 6 -10 14 0 8 -6 17 -12
19 -8 3 -5 6 5 6 11 1 34 -6 53 -15 l34 -16 0 -93 c0 -70 -4 -96 -15 -105 -13
-11 -15 -8 -16 21 0 61 -11 124 -21 134 -7 7 -9 7 -5 0 3 -5 2 -55 -3 -110
l-7 -100 -2 100 -1 100 -19 -25 c-26 -32 -31 -77 -15 -116 12 -28 11 -33 -1
-38 -12 -4 -15 3 -15 30 0 29 -2 33 -14 22 -10 -9 -10 -15 -3 -20 21 -13 0
-19 -26 -7 -22 10 -24 15 -17 40 5 16 5 29 0 29 -10 0 -8 19 3 37 5 7 4 13 -1
13 -5 0 -9 6 -10 13 -1 6 -4 23 -6 37 -2 14 -5 31 -5 38 -1 6 -6 12 -12 12 -6
0 -8 -9 -4 -21 4 -13 2 -25 -5 -29 -6 -4 -12 -29 -12 -55 0 -50 -17 -45 -19 5
0 14 -7 41 -14 60 l-13 35 -1 -40 c-1 -73 18 -115 81 -181 76 -79 101 -85 178
-39 30 18 96 51 145 73 50 22 109 49 132 62 23 12 49 23 57 24 8 1 30 11 50
21 l36 20 2 107 c0 60 1 112 2 118 1 9 -182 141 -193 139 -3 -1 -21 -6 -38
-11z m83 -29 c19 -11 34 -22 34 -24 0 -3 -87 14 -110 21 -13 4 -13 6 0 14 23
14 39 12 76 -11z m-84 -75 c0 -5 -6 -10 -13 -13 -6 -2 -9 1 -6 7 4 5 0 15 -8
22 -12 10 -13 8 -10 -10 3 -14 0 -20 -8 -17 -7 2 -12 9 -12 15 0 5 -4 14 -9
19 -5 5 -6 3 -2 -4 5 -9 2 -11 -7 -7 -8 3 -18 0 -23 -7 -4 -7 -3 -10 2 -6 6 3
16 2 23 -2 9 -6 5 -8 -13 -8 -14 0 -31 6 -38 14 -6 8 -7 13 -2 12 20 -4 35 2
29 11 -3 5 0 7 8 4 8 -3 18 0 22 6 7 12 67 -20 67 -36z m76 -1 c52 -37 62 -48
51 -57 -10 -8 -13 -24 -9 -58 8 -68 19 -70 17 -3 -1 42 2 59 12 63 11 4 13 -2
8 -28 -4 -18 -7 -65 -7 -105 0 -53 -4 -74 -14 -78 -11 -4 -16 15 -22 96 -8 88
-11 102 -26 101 -10 -1 -15 2 -12 7 3 5 11 8 18 7 6 -2 11 1 11 7 0 5 -7 10
-15 10 -8 0 -15 5 -15 12 0 6 -3 14 -6 17 -3 4 -5 -12 -4 -33 1 -24 -3 -42
-10 -45 -9 -3 -10 -16 -4 -48 4 -24 8 -72 7 -108 l-1 -65 -7 50 c-5 28 -9 74
-9 103 -1 48 -3 53 -20 47 -11 -3 -23 0 -27 6 -5 8 -2 10 8 7 8 -4 21 -2 29 2
15 10 21 78 7 86 -5 3 -6 9 -3 14 3 4 -3 7 -11 6 -9 0 -18 7 -19 17 -2 9 -1
17 2 17 3 0 35 -21 71 -47z m67 3 c17 -10 35 -24 40 -31 14 -16 7 -195 -7
-195 -7 0 -9 25 -4 79 l6 79 -62 57 c-49 43 -56 53 -33 43 17 -6 44 -21 60
-32z m-200 -22 c28 -1 56 3 63 9 17 14 26 2 27 -38 1 -36 -12 -49 -35 -35 -17
10 -23 43 -7 37 7 -2 12 -9 12 -14 0 -6 4 -15 9 -20 5 -5 6 -3 2 5 -4 7 -2 12
6 12 9 0 10 3 2 8 -6 4 -10 15 -8 25 2 15 0 16 -12 6 -18 -15 -53 -18 -77 -7
-12 6 -16 5 -15 -3 2 -6 -3 -14 -11 -17 -8 -2 -11 0 -8 6 4 5 0 15 -8 22 -12
10 -13 8 -10 -10 3 -14 0 -20 -8 -17 -7 2 -12 9 -12 15 0 7 -3 12 -7 12 -31 0
-32 -1 -18 -10 17 -10 22 -62 6 -57 -6 2 -11 13 -11 25 0 11 -4 24 -9 29 -5 4
-7 3 -3 -3 3 -6 -7 -10 -26 -10 -21 1 -31 -3 -29 -12 1 -7 -3 -12 -10 -11 -34
4 -42 -1 -22 -16 10 -8 14 -15 8 -15 -6 0 -17 6 -23 14 -9 11 -4 18 26 36 21
13 47 23 58 24 11 1 19 7 18 14 -2 6 3 9 11 6 8 -3 17 -1 21 5 4 8 13 7 28 -1
12 -7 45 -13 72 -14z m4 -37 c15 -19 2 -28 -22 -16 -15 8 -18 8 -12 -1 6 -9 2
-9 -15 0 -13 7 -20 8 -16 2 4 -6 -2 -15 -11 -21 -14 -8 -15 -10 -3 -11 13 0
13 -2 1 -9 -8 -5 -22 -6 -30 -2 -9 5 -23 6 -31 4 -12 -4 -12 -3 -2 5 11 7 10
11 -4 16 -16 6 -16 9 -4 17 13 9 13 10 0 6 -8 -2 -14 -10 -12 -17 2 -7 -3 -10
-12 -7 -10 4 -14 0 -11 -14 3 -13 0 -19 -8 -16 -7 2 -12 8 -12 13 0 5 -4 14
-8 20 -4 7 0 11 11 10 9 0 16 4 15 11 -2 7 8 11 25 10 15 -1 27 -8 27 -14 0
-18 22 -36 34 -29 5 4 8 15 6 25 -3 15 2 18 25 15 16 -2 32 1 35 6 8 14 21 12
34 -3z m34 -24 c4 -3 1 -13 -6 -21 -7 -10 -8 -13 -1 -9 22 13 32 -18 36 -111
2 -65 0 -92 -9 -92 -6 0 -13 -6 -16 -12 -2 -7 -7 29 -12 80 -4 51 -4 96 -1 99
3 4 6 -9 7 -28 0 -19 4 -43 9 -54 5 -13 8 0 7 41 -2 56 -4 61 -23 59 -17 -1
-20 3 -18 24 1 14 2 27 3 29 2 5 18 2 24 -5z m121 -108 c6 -93 5 -98 -9 -70
l-15 30 4 -28 c2 -15 0 -30 -4 -32 -12 -7 -19 178 -8 199 17 31 25 5 32 -99z
m-409 92 c58 -39 98 -59 90 -46 -15 22 -14 37 1 43 8 3 13 0 11 -6 -1 -7 8
-13 19 -14 12 0 25 -4 31 -7 12 -8 38 9 38 25 0 8 12 13 30 13 23 0 30 -4 30
-20 0 -11 3 -24 6 -30 4 -5 9 -55 12 -110 6 -90 5 -97 -7 -70 l-14 30 -5 -35
c-2 -21 -5 -7 -6 35 -1 39 -6 79 -11 90 -4 12 -6 -21 -5 -80 4 -108 0 -104
-15 15 l-9 75 4 -100 c2 -62 1 -91 -5 -75 l-8 25 -1 -25 c-1 -19 -4 -21 -10
-11 -7 11 -10 10 -14 -5 -3 -10 -3 24 0 78 3 53 1 102 -3 110 -13 21 -14 40
-1 35 7 -2 13 -28 15 -58 4 -78 9 -93 11 -28 1 54 2 56 38 73 27 13 33 20 23
26 -17 10 -22 40 -7 40 5 0 8 3 4 6 -3 3 -15 -1 -27 -9 -12 -8 -18 -17 -13
-19 4 -3 3 -3 -4 -2 -7 2 -10 -5 -8 -17 3 -13 0 -19 -8 -16 -7 3 -11 10 -9 16
1 7 -2 10 -8 6 -6 -4 -18 -1 -27 7 -14 11 -16 11 -8 -2 14 -23 15 -42 2 -37
-7 2 -12 9 -12 15 0 5 -4 14 -9 19 -5 4 -6 3 -3 -4 11 -18 -15 -21 -50 -6 -18
7 -45 13 -60 13 -30 0 -73 24 -73 41 0 14 53 11 75 -4z m338 -122 c3 -57 2
-89 -3 -75 -8 24 -14 188 -6 179 2 -2 6 -49 9 -104z"/>
<path d="M129 301 c7 -5 10 -14 7 -20 -4 -7 1 -11 12 -11 23 0 25 -31 2 -42
-12 -5 -11 -7 3 -7 10 -1 15 -6 12 -11 -4 -6 -11 -7 -17 -4 -7 4 -8 2 -4 -4
14 -23 36 0 35 37 0 36 -17 91 -18 62 -1 -12 -4 -12 -13 -3 -7 7 -17 12 -22
12 -6 0 -5 -4 3 -9z"/>
</g>
</svg>
