<?xml version="1.0" standalone="no"?>
<!DOCTYPE svg PUBLIC "-//W3C//DTD SVG 20010904//EN"
 "http://www.w3.org/TR/2001/REC-SVG-20010904/DTD/svg10.dtd">
<svg version="1.0" xmlns="http://www.w3.org/2000/svg"
 width="72.000000pt" height="72.000000pt" viewBox="0 0 72.000000 72.000000"
 preserveAspectRatio="xMidYMid meet">
<metadata>
Created by potrace 1.10, written by Peter Selinger 2001-2011
</metadata>
<g transform="translate(0.000000,72.000000) scale(0.100000,-0.100000)"
fill="#000000" stroke="none">
<path d="M70 697 c-27 -9 -38 -20 -47 -49 -11 -35 -11 -40 12 -62 17 -17 31
-22 50 -18 24 4 41 -9 136 -104 103 -103 110 -108 126 -91 16 16 15 19 -22 57
-36 37 -72 57 -46 26 9 -11 9 -16 0 -22 -8 -4 -9 -3 -5 4 4 7 1 12 -10 12 -14
0 -14 3 -4 16 11 13 4 24 -50 79 -53 53 -62 67 -58 90 4 19 -1 33 -19 51 -13
13 -25 24 -26 23 -1 0 -18 -5 -37 -12z m50 -19 c0 -5 -5 -8 -12 -8 -6 0 -3 -9
7 -20 18 -20 17 -20 -12 -20 -17 0 -36 -7 -43 -15 -7 -8 -17 -15 -22 -15 -6 0
-5 7 2 15 7 8 10 21 7 30 -8 20 18 43 48 41 14 0 25 -4 25 -8z"/>
<path d="M439 420 c-32 -9 -79 -40 -79 -51 0 -5 8 -6 18 -2 15 6 15 4 -2 -15
-19 -22 -32 -30 -21 -13 3 5 1 12 -4 15 -16 10 -51 -60 -58 -112 -14 -123 83
-231 209 -232 63 0 95 14 146 63 154 150 -2 410 -209 347z m147 -42 c32 -15
55 -35 75 -67 16 -25 29 -49 29 -53 0 -5 -15 -16 -32 -24 l-33 -14 33 4 c38 5
42 -12 15 -71 -23 -51 -23 -51 -38 -30 -13 18 -14 18 -39 0 l-24 -18 26 -22
27 -22 -40 -16 c-84 -36 -194 -1 -240 77 -29 48 -26 138 5 181 66 88 151 116
236 75z"/>
<path d="M407 333 c-4 -4 12 -26 35 -50 36 -37 39 -43 21 -40 -13 2 -35 14
-50 27 -16 14 2 -7 39 -45 51 -53 67 -76 63 -92 -4 -22 -3 -22 21 -7 13 9 24
21 24 26 0 6 6 6 14 -1 9 -8 16 -8 20 -2 4 5 1 13 -4 16 -8 5 -5 14 7 28 17
20 16 20 -8 -1 l-26 -22 -18 20 c-17 19 -10 28 11 13 5 -5 4 -2 -2 5 -6 7 -18
14 -27 16 -20 3 -48 26 -42 36 6 10 -70 82 -78 73z m73 -103 c0 9 5 8 18 -3
10 -10 22 -15 25 -12 4 3 5 2 2 -2 -3 -3 4 -16 15 -28 l20 -22 -22 -19 c-12
-10 -18 -13 -14 -6 6 9 -6 29 -35 60 -24 25 -36 40 -26 33 13 -11 17 -11 17
-1z"/>
<path d="M515 60 l-40 -7 40 -1 c22 -1 47 3 55 8 18 12 10 12 -55 0z"/>
</g>
</svg>
