<?xml version="1.0" standalone="no"?>
<!DOCTYPE svg PUBLIC "-//W3C//DTD SVG 20010904//EN"
 "http://www.w3.org/TR/2001/REC-SVG-20010904/DTD/svg10.dtd">
<svg version="1.0" xmlns="http://www.w3.org/2000/svg"
 width="72.000000pt" height="72.000000pt" viewBox="0 0 72.000000 72.000000"
 preserveAspectRatio="xMidYMid meet">
<metadata>
Created by potrace 1.10, written by Peter Selinger 2001-2011
</metadata>
<g transform="translate(0.000000,72.000000) scale(0.100000,-0.100000)"
fill="#000000" stroke="none">
<path d="M237 673 c-4 -3 -7 -16 -6 -27 0 -20 1 -20 8 -2 7 19 8 19 13 -2 3
-12 2 -20 -4 -19 -6 1 -13 -4 -16 -12 -2 -8 0 -11 6 -7 6 3 18 -4 26 -16 14
-20 21 -18 17 5 0 4 4 7 9 7 13 0 13 -13 -2 -28 -9 -9 -15 -9 -27 1 -12 10
-14 9 -8 -8 6 -18 6 -18 -5 -3 -7 9 -21 31 -30 48 -18 31 -18 31 -75 24 -59
-7 -151 -46 -123 -52 8 -1 49 6 90 17 81 22 90 19 116 -31 10 -19 22 -28 39
-28 17 0 29 -9 40 -30 9 -17 13 -35 10 -40 -9 -14 73 -150 90 -150 8 0 12 -6
9 -14 -7 -19 40 -99 51 -89 4 5 5 3 1 -4 -8 -15 14 -63 30 -63 7 0 15 -9 19
-19 9 -28 82 -91 105 -91 32 0 83 53 83 86 0 16 -21 71 -46 123 -48 96 -56
128 -35 149 15 15 -29 32 -86 32 -53 0 -58 -5 -40 -38 8 -15 14 -33 14 -40 0
-25 41 -92 55 -92 8 0 15 5 15 10 0 6 7 10 16 10 8 0 12 5 8 11 -3 6 -15 8
-26 6 -15 -4 -25 6 -48 56 -17 33 -30 62 -30 64 0 2 21 3 46 3 44 0 46 -1 39
-22 -13 -40 -8 -69 16 -94 19 -20 21 -28 12 -42 -6 -9 -20 -16 -32 -15 -18 3
-20 0 -11 -16 13 -25 13 -34 -1 -25 -6 3 1 -12 16 -35 22 -32 34 -41 56 -41
16 0 29 5 29 11 0 6 -9 9 -20 6 -25 -7 -26 5 -1 27 19 17 20 17 27 -19 7 -39
-10 -65 -30 -45 -6 6 -15 10 -20 10 -6 0 -4 -5 4 -10 12 -8 11 -10 -6 -10 -15
0 -33 21 -69 83 -81 136 -80 136 -45 97 33 -36 32 -26 -3 22 -11 15 -25 24
-30 21 -6 -3 -7 -1 -3 5 4 6 -29 63 -74 127 -44 64 -80 123 -80 131 0 8 -11
32 -25 54 -24 38 -43 49 -58 33z m143 -293 c11 -21 20 -43 20 -47 0 -10 -49
69 -50 80 0 17 11 5 30 -33z m45 -10 c9 -18 21 -28 27 -24 7 4 8 3 4 -5 -8
-12 105 -222 136 -253 17 -17 20 -17 34 -3 9 8 20 13 25 9 12 -7 -15 -34 -35
-34 -9 0 -25 11 -36 23 -33 37 -110 166 -110 182 0 8 -5 15 -11 15 -5 0 -8 4
-5 9 3 5 -1 11 -9 15 -9 3 -12 12 -8 22 5 13 3 15 -7 9 -8 -5 -11 -4 -7 2 4 6
0 13 -8 17 -9 3 -12 12 -8 22 5 13 3 15 -7 9 -9 -5 -11 -4 -6 3 10 17 14 15
31 -18z m213 -132 c28 -28 1 -81 -31 -61 -7 4 -6 -1 2 -10 8 -10 12 -19 9 -22
-2 -2 -12 9 -22 26 -9 16 -14 29 -9 28 23 -4 40 3 40 16 0 18 -9 19 -25 3 -7
-7 -12 -8 -12 -2 0 11 20 34 30 34 3 0 11 -5 18 -12z"/>
</g>
</svg>
