<?xml version="1.0" standalone="no"?>
<!DOCTYPE svg PUBLIC "-//W3C//DTD SVG 20010904//EN"
 "http://www.w3.org/TR/2001/REC-SVG-20010904/DTD/svg10.dtd">
<svg version="1.0" xmlns="http://www.w3.org/2000/svg"
 width="72.000000pt" height="72.000000pt" viewBox="0 0 72.000000 72.000000"
 preserveAspectRatio="xMidYMid meet">
<metadata>
Created by potrace 1.10, written by Peter Selinger 2001-2011
</metadata>
<g transform="translate(0.000000,72.000000) scale(0.100000,-0.100000)"
fill="#000000" stroke="none">
<path d="M156 691 c-17 -19 -16 -22 22 -74 41 -55 86 -95 154 -136 33 -20 37
-25 27 -43 -6 -12 -14 -16 -18 -11 -3 6 -44 38 -90 72 -94 68 -124 104 -116
139 9 35 -7 26 -42 -26 -58 -84 -88 -174 -67 -195 3 -3 20 3 37 14 18 10 43
19 57 19 l25 -1 -28 -20 c-58 -44 -76 -128 -34 -166 12 -11 109 -71 216 -132
207 -118 238 -128 300 -96 93 48 131 189 68 253 -14 13 -80 59 -148 101 -67
42 -122 81 -122 86 0 6 12 16 26 23 16 8 24 18 20 27 -8 24 -30 17 -37 -10 -4
-14 -13 -28 -21 -31 -18 -7 -90 43 -143 100 -35 38 -42 52 -42 86 0 45 -16 52
-44 21z m-16 -161 c8 -4 32 -15 53 -24 57 -24 150 -97 138 -109 -11 -11 -3
-39 10 -32 13 9 259 -128 277 -154 15 -22 14 -26 -7 -66 -12 -23 -33 -47 -46
-53 -27 -12 -66 -5 -78 15 -5 7 -13 11 -18 7 -5 -3 -42 13 -82 37 -40 23 -94
56 -122 72 -27 16 -54 36 -58 43 -5 8 -12 12 -18 9 -5 -4 -9 -1 -9 5 0 6 -4 9
-8 6 -5 -3 -15 5 -21 18 -11 19 -10 29 3 54 9 17 25 33 35 37 25 8 121 -33
121 -51 0 -8 6 -14 14 -14 8 0 45 -19 82 -41 81 -49 79 -47 71 -55 -3 -3 -26
6 -51 21 -25 15 -46 24 -46 21 0 -3 20 -17 44 -31 35 -20 49 -24 64 -16 22 11
63 -11 100 -56 l24 -28 -7 25 c-5 19 -4 22 4 10 6 -8 11 -10 11 -4 0 15 -45
56 -53 47 -4 -3 -7 -1 -7 6 0 7 -4 10 -9 7 -5 -3 -11 1 -15 9 -3 9 -12 12 -22
8 -12 -4 -15 -3 -10 5 5 8 1 10 -10 5 -12 -4 -15 -3 -10 6 4 6 4 11 -1 10 -21
-4 -34 2 -27 13 5 7 3 8 -6 3 -8 -5 -18 -1 -27 11 -8 10 -16 18 -18 17 -13 -7
-25 -2 -19 9 4 7 3 8 -4 4 -18 -11 -94 38 -82 52 6 7 7 10 4 7 -4 -2 -13 2
-21 10 -19 19 -136 55 -179 55 -25 0 -34 5 -35 18 -1 9 -4 4 -8 -12 -3 -16
-12 -31 -20 -34 -22 -7 -6 54 31 115 l32 53 11 -32 c5 -17 17 -34 25 -38z
m370 -158 c58 -35 115 -74 128 -85 84 -77 23 -233 -97 -245 -48 -4 -54 -1
-244 109 -193 111 -217 131 -217 179 0 11 9 29 20 40 11 11 17 20 12 20 -4 1
4 10 17 20 31 27 78 25 126 -5 48 -30 41 -34 -9 -4 -19 11 -45 19 -58 17 -32
-4 -71 -66 -64 -102 5 -24 4 -27 -9 -16 -15 13 -20 3 -7 -15 8 -11 16 -16 142
-85 47 -25 117 -65 155 -89 39 -24 85 -45 102 -48 42 -7 88 12 112 46 49 69
30 141 -47 181 -26 14 -78 44 -117 68 -38 23 -75 40 -82 38 -9 -4 -9 2 -1 25
6 18 14 26 21 22 7 -4 59 -36 117 -71z"/>
<path d="M227 331 c-20 -35 -21 -41 -4 -41 16 0 97 -38 97 -46 0 -2 -9 0 -19
6 -32 17 -38 11 -11 -10 27 -21 55 -27 44 -8 -5 7 -3 8 5 3 7 -4 11 -16 8 -26
-3 -11 -1 -16 4 -13 16 9 51 -7 45 -22 -3 -7 -1 -16 4 -19 4 -3 10 0 12 7 2 6
10 8 17 4 7 -5 10 -14 7 -22 -6 -15 9 -20 18 -5 3 4 16 6 30 4 18 -4 29 2 41
21 17 26 15 56 -5 56 -6 0 -9 -4 -6 -9 8 -13 -3 -38 -20 -45 -8 -3 -37 8 -64
24 -28 17 -55 30 -59 30 -5 0 -8 16 -6 35 2 19 0 33 -5 30 -11 -7 -61 16 -55
25 3 5 -2 11 -11 14 -10 4 -13 2 -8 -6 5 -8 2 -9 -9 -5 -31 12 -17 -3 16 -17
31 -13 83 -51 62 -44 -40 12 -125 53 -125 60 0 5 5 6 12 2 8 -5 9 -2 5 10 -6
14 -3 17 9 12 10 -4 14 -1 12 6 -8 22 -24 18 -41 -11z"/>
</g>
</svg>
