<?xml version="1.0" standalone="no"?>
<!DOCTYPE svg PUBLIC "-//W3C//DTD SVG 20010904//EN"
 "http://www.w3.org/TR/2001/REC-SVG-20010904/DTD/svg10.dtd">
<svg version="1.0" xmlns="http://www.w3.org/2000/svg"
 width="72.000000pt" height="72.000000pt" viewBox="0 0 72.000000 72.000000"
 preserveAspectRatio="xMidYMid meet">
<metadata>
Created by potrace 1.10, written by Peter Selinger 2001-2011
</metadata>
<g transform="translate(0.000000,72.000000) scale(0.100000,-0.100000)"
fill="#000000" stroke="none">
<path d="M20 675 c0 -14 5 -25 11 -25 6 0 8 -7 5 -16 -4 -11 -2 -15 8 -11 11
4 13 1 9 -10 -4 -11 -2 -14 8 -11 15 5 22 -1 57 -46 12 -15 19 -33 16 -38 -4
-6 -10 -5 -15 3 -4 7 -11 10 -15 6 -12 -12 16 -35 37 -30 16 5 41 -14 109 -82
76 -76 87 -91 79 -108 -16 -29 -2 -65 31 -82 17 -9 30 -20 30 -26 0 -8 5 -8
14 0 12 10 22 5 53 -24 21 -20 32 -34 26 -30 -25 13 -15 -61 13 -94 32 -39 68
-40 118 -6 20 14 40 25 44 25 10 0 42 82 42 108 0 49 -43 82 -107 82 -28 0
-75 43 -68 62 7 19 -46 79 -70 80 -11 0 -31 -2 -45 -6 -22 -5 -38 7 -122 86
-54 51 -116 106 -138 122 -23 15 -38 31 -35 34 3 4 10 0 14 -7 7 -10 10 -10
16 -1 9 14 -14 32 -32 25 -7 -2 -10 2 -6 11 7 20 -4 18 -29 -6 -12 -11 -24
-17 -27 -14 -3 4 0 9 7 11 6 3 12 14 12 26 0 21 -1 21 -21 -3 -20 -24 -20 -24
-14 -2 4 13 2 22 -4 22 -6 0 -11 -11 -11 -25z m193 -145 c7 0 45 -34 85 -77
39 -42 72 -73 72 -68 0 5 26 -15 57 -45 45 -43 49 -45 15 -9 -45 48 -45 59 -1
59 33 0 57 -21 65 -58 4 -15 11 -33 17 -39 7 -10 4 -13 -9 -13 -16 0 -16 -3 6
-24 14 -13 30 -23 35 -22 6 0 9 -4 8 -11 -2 -9 4 -10 23 -2 21 7 31 6 45 -7
28 -25 25 -54 -6 -54 -14 0 -25 4 -25 8 0 10 -27 8 -52 -3 -10 -4 -15 -11 -12
-16 3 -5 10 -7 15 -4 5 4 9 0 9 -8 0 -9 -13 -16 -35 -19 -26 -3 -32 -1 -24 9
8 9 5 20 -9 41 -20 27 -20 29 -3 39 14 9 22 8 37 -5 16 -15 16 -14 -1 8 -45
56 -81 93 -100 102 -11 6 2 -13 30 -41 47 -49 49 -52 27 -57 -12 -4 -22 -11
-22 -18 0 -6 -5 -4 -10 4 -7 11 -5 17 7 21 13 4 -11 35 -102 130 -66 68 -125
126 -133 129 -7 3 -14 10 -15 15 -1 6 -10 9 -19 8 -21 -3 -22 1 -6 27 7 11 14
16 16 10 2 -5 9 -10 15 -10z m180 -236 c27 -30 27 -31 8 -48 -19 -17 -20 -17
-36 14 -9 18 -19 30 -22 27 -2 -3 0 -15 7 -26 6 -12 8 -21 6 -21 -3 0 -10 9
-15 19 -11 20 6 90 18 74 3 -4 19 -22 34 -39z m230 -169 c16 -20 22 -34 16
-33 -7 2 -13 -4 -14 -12 0 -8 -17 -23 -38 -34 -38 -18 -39 -18 -65 1 -43 32
-41 53 5 54 21 0 46 4 56 8 17 6 17 8 3 20 -19 16 -21 31 -3 31 6 0 25 -16 40
-35z"/>
<path d="M176 614 c-4 -11 -2 -15 8 -11 9 4 17 -2 21 -14 6 -19 17 -24 28 -13
6 6 -3 17 -34 42 -14 10 -18 10 -23 -4z"/>
<path d="M60 585 c0 -12 24 -55 31 -55 17 0 17 17 -1 30 -10 8 -17 17 -14 22
3 4 0 8 -5 8 -6 0 -11 -2 -11 -5z"/>
</g>
</svg>
