<?xml version="1.0" standalone="no"?>
<!DOCTYPE svg PUBLIC "-//W3C//DTD SVG 20010904//EN"
 "http://www.w3.org/TR/2001/REC-SVG-20010904/DTD/svg10.dtd">
<svg version="1.0" xmlns="http://www.w3.org/2000/svg"
 width="72.000000pt" height="72.000000pt" viewBox="0 0 72.000000 72.000000"
 preserveAspectRatio="xMidYMid meet">
<metadata>
Created by potrace 1.10, written by Peter Selinger 2001-2011
</metadata>
<g transform="translate(0.000000,72.000000) scale(0.100000,-0.100000)"
fill="#000000" stroke="none">
<path d="M50 682 c0 -16 7 -35 15 -42 19 -16 34 -5 17 12 -7 7 -12 20 -12 29
0 10 -4 21 -10 24 -6 4 -10 -6 -10 -23z"/>
<path d="M105 641 c4 -8 -1 -14 -14 -18 -20 -5 -26 -27 -7 -23 12 3 185 -170
202 -202 8 -16 20 -28 26 -28 15 0 188 -181 188 -197 0 -7 6 -13 13 -13 21 0
97 -84 97 -108 0 -29 30 -29 58 1 30 31 29 57 -2 57 -16 0 -40 18 -75 56 -28
30 -51 49 -51 41 0 -25 -25 -26 -37 -1 -6 13 -7 24 -3 24 5 0 10 -6 13 -12 2
-7 7 -10 11 -7 3 3 -34 46 -84 94 -49 49 -90 97 -90 107 0 10 -4 18 -10 18 -5
0 -10 -6 -10 -14 0 -8 -7 -16 -15 -20 -17 -6 -21 9 -4 20 7 4 -7 25 -37 55
-26 26 -52 45 -57 42 -6 -3 -7 -2 -4 4 7 11 -76 97 -85 88 -3 -3 -5 4 -4 16 0
12 -5 24 -13 27 -9 3 -11 0 -6 -7z m545 -543 c10 -3 11 -6 2 -12 -12 -7 -102
69 -102 87 0 6 19 -7 43 -30 23 -22 49 -43 57 -45z"/>
</g>
</svg>
