<?xml version="1.0" standalone="no"?>
<!DOCTYPE svg PUBLIC "-//W3C//DTD SVG 20010904//EN"
 "http://www.w3.org/TR/2001/REC-SVG-20010904/DTD/svg10.dtd">
<svg version="1.0" xmlns="http://www.w3.org/2000/svg"
 width="72.000000pt" height="72.000000pt" viewBox="0 0 72.000000 72.000000"
 preserveAspectRatio="xMidYMid meet">
<metadata>
Created by potrace 1.10, written by Peter Selinger 2001-2011
</metadata>
<g transform="translate(0.000000,72.000000) scale(0.100000,-0.100000)"
fill="#000000" stroke="none">
<path d="M40 695 c-11 -14 -11 -20 -1 -37 9 -14 9 -23 1 -33 -8 -9 -7 -14 4
-18 10 -4 13 -1 9 9 -9 23 3 16 22 -13 17 -25 17 -27 -1 -40 -18 -13 -17 -14
11 -11 17 2 33 7 36 11 5 7 138 -124 253 -250 51 -55 47 -83 -5 -44 -31 23
-49 21 -49 -6 0 -19 63 -83 82 -83 21 0 54 -39 74 -85 18 -44 42 -75 57 -75 5
0 -2 11 -17 25 -14 13 -26 27 -26 31 0 4 10 -2 23 -13 12 -11 31 -23 42 -27
16 -6 17 -9 5 -17 -11 -8 -6 -9 20 -5 23 4 51 22 82 53 42 42 48 52 48 90 0
36 -5 46 -32 67 -18 13 -46 28 -61 31 -15 4 -34 19 -41 34 -23 43 -64 77 -78
63 -9 -9 -9 -15 0 -24 16 -16 15 -37 -3 -44 -19 -8 -331 290 -344 328 -6 16
-20 32 -31 36 -12 4 -26 19 -33 32 -15 30 -31 35 -47 15z m517 -408 c21 -31
40 -46 62 -50 42 -9 81 -49 81 -84 l0 -28 -20 33 c-16 27 -26 33 -48 31 -15
-2 -33 0 -40 5 -7 4 -19 3 -26 -3 -20 -17 -81 35 -65 55 6 8 8 14 4 14 -4 0
-2 7 5 15 7 8 10 24 7 35 -8 32 7 23 40 -23z m-99 -20 c12 -13 19 -26 16 -30
-9 -9 -34 12 -34 28 0 8 -6 16 -12 18 -7 3 -8 6 -2 6 6 1 20 -9 32 -22z m24
-41 c8 5 9 2 5 -9 -7 -19 21 -74 42 -82 8 -3 18 0 23 7 7 12 9 11 12 -11 0 -5
4 -13 9 -17 14 -15 7 -44 -11 -44 -20 0 -55 32 -50 46 3 11 -27 60 -61 98 -25
27 -25 28 -3 17 12 -7 28 -9 34 -5z m188 -65 c16 -30 13 -46 -5 -31 -9 7 -18
10 -22 6 -4 -3 2 -13 13 -20 18 -14 18 -15 0 -35 -11 -12 -25 -21 -32 -21 -20
0 -29 22 -13 34 16 12 18 30 5 43 -5 5 -6 3 -2 -4 4 -8 1 -13 -9 -13 -10 0
-13 -5 -9 -12 5 -9 2 -9 -9 1 -22 17 -22 18 9 46 32 30 60 32 74 6z"/>
</g>
</svg>
