<?xml version="1.0" standalone="no"?>
<!DOCTYPE svg PUBLIC "-//W3C//DTD SVG 20010904//EN"
 "http://www.w3.org/TR/2001/REC-SVG-20010904/DTD/svg10.dtd">
<svg version="1.0" xmlns="http://www.w3.org/2000/svg"
 width="72.000000pt" height="72.000000pt" viewBox="0 0 72.000000 72.000000"
 preserveAspectRatio="xMidYMid meet">
<metadata>
Created by potrace 1.10, written by Peter Selinger 2001-2011
</metadata>
<g transform="translate(0.000000,72.000000) scale(0.100000,-0.100000)"
fill="#000000" stroke="none">
<path d="M29 684 c-11 -13 -5 -23 40 -67 43 -43 53 -49 62 -37 8 12 9 11 5 -5
-4 -15 15 -43 75 -110 44 -49 84 -96 90 -102 5 -7 15 -13 21 -13 5 0 2 8 -9
18 -10 9 -13 13 -5 8 9 -7 16 -5 22 5 8 12 12 11 27 -3 9 -10 13 -21 9 -25 -4
-4 -11 -1 -16 7 -6 8 -10 10 -10 4 0 -20 25 -35 37 -23 8 8 13 8 17 0 4 -6 2
-11 -3 -11 -6 0 -11 -5 -11 -11 0 -6 9 -8 20 -4 12 4 20 2 20 -5 0 -6 -4 -8
-10 -5 -6 3 -10 -4 -10 -16 0 -12 3 -19 7 -16 7 8 134 -113 128 -123 -2 -3 5
-6 16 -7 19 -2 20 6 4 52 -3 11 -20 28 -36 38 -17 9 -28 21 -25 25 3 5 -9 25
-25 45 -17 21 -29 42 -27 47 4 14 143 -167 144 -188 0 -9 -4 -23 -9 -30 -14
-19 -2 -25 23 -12 20 11 21 10 15 -9 -9 -29 2 -43 25 -31 15 8 17 6 13 -10 -3
-11 -10 -17 -17 -14 -6 4 -1 -4 11 -17 21 -22 24 -22 40 -7 15 16 13 21 -27
72 -23 31 -47 53 -53 49 -5 -3 -7 -1 -3 5 3 5 -30 57 -75 114 -44 56 -95 122
-112 145 -18 23 -36 42 -42 43 -16 0 -66 68 -55 75 5 3 29 -7 52 -23 53 -36
202 -72 171 -41 -5 5 -33 12 -62 15 -33 3 -68 15 -101 36 -45 28 -80 32 -80
10 0 -5 14 -26 30 -47 17 -21 30 -42 30 -47 0 -5 5 -6 12 -2 7 4 8 3 4 -5 -10
-16 12 -41 30 -34 10 4 12 0 8 -11 -4 -11 -2 -16 7 -14 9 2 13 -4 11 -15 -2
-11 4 -28 14 -38 9 -11 15 -22 12 -24 -3 -3 -17 9 -31 27 -15 18 -32 38 -39
45 -7 6 -87 84 -178 172 -91 89 -165 161 -166 161 -1 0 -7 -7 -15 -16z m431
-399 c0 4 7 2 15 -5 8 -7 13 -16 10 -20 -2 -3 13 -24 35 -45 22 -21 37 -42 34
-47 -3 -4 -10 -6 -15 -2 -5 3 -7 10 -4 15 4 5 2 9 -4 9 -12 0 -101 91 -101
103 0 5 7 4 15 -3 8 -7 15 -9 15 -5z"/>
</g>
</svg>
