<?xml version="1.0" standalone="no"?>
<!DOCTYPE svg PUBLIC "-//W3C//DTD SVG 20010904//EN"
 "http://www.w3.org/TR/2001/REC-SVG-20010904/DTD/svg10.dtd">
<svg version="1.0" xmlns="http://www.w3.org/2000/svg"
 width="72.000000pt" height="72.000000pt" viewBox="0 0 72.000000 72.000000"
 preserveAspectRatio="xMidYMid meet">
<metadata>
Created by potrace 1.10, written by Peter Selinger 2001-2011
</metadata>
<g transform="translate(0.000000,72.000000) scale(0.100000,-0.100000)"
fill="#000000" stroke="none">
<path d="M231 656 c-79 -24 -147 -50 -152 -57 -5 -8 -9 -44 -9 -81 0 -54 3
-68 15 -68 8 0 15 -9 15 -20 0 -11 14 -56 30 -102 17 -45 25 -77 19 -71 -6 6
-24 48 -40 94 -16 46 -27 68 -23 49 10 -58 65 -180 97 -216 29 -34 50 -41 76
-25 12 8 10 14 -10 35 -13 14 -34 26 -46 26 -25 0 -29 10 -13 26 8 8 1 39 -20
101 -16 50 -30 98 -30 106 0 9 13 18 33 22 43 10 46 12 40 35 -5 20 -33 29
-33 10 0 -15 -35 -29 -58 -23 -43 11 -24 37 25 36 7 -1 10 4 6 10 -4 6 4 8 21
3 21 -5 27 -3 23 6 -2 8 -17 12 -36 10 -22 -1 -31 2 -31 13 0 9 9 15 25 15 17
0 23 4 19 15 -5 11 3 14 36 12 27 -1 44 4 50 13 7 11 10 8 10 -13 0 -24 3 -27
28 -22 l27 5 -29 -13 c-27 -11 -28 -13 -22 -64 6 -55 57 -205 77 -229 13 -16
11 -21 -11 -25 -46 -9 -90 47 -106 134 -3 21 -10 35 -14 30 -5 -4 5 -48 21
-98 16 -49 29 -98 29 -109 0 -11 3 -16 7 -13 3 4 13 1 21 -6 13 -10 14 -9 8 9
-5 17 0 24 26 37 18 8 43 18 55 21 11 4 24 13 27 21 3 8 13 15 21 15 9 0 13
-5 10 -11 -4 -5 1 -19 11 -30 9 -10 14 -22 10 -27 -4 -4 -16 4 -27 17 -23 28
-39 20 -20 -10 18 -30 3 -38 -20 -10 -10 13 -19 19 -19 14 0 -5 5 -14 12 -21
14 -14 15 -14 -49 -34 -38 -11 -53 -13 -57 -4 -2 6 -5 1 -5 -10 l-1 -22 78 24
c93 29 88 29 95 5 6 -23 -7 -48 -17 -32 -9 14 -76 15 -76 1 0 -5 16 -10 35
-10 40 0 45 -12 13 -28 -13 -6 -37 -23 -55 -38 l-32 -26 -12 47 c-7 26 -15 43
-20 38 -11 -11 0 -73 13 -73 5 0 6 -5 3 -10 -9 -15 22 -12 53 4 15 8 44 27 64
44 35 28 41 29 113 24 46 -3 75 -1 75 5 0 6 -30 13 -66 16 -36 2 -67 6 -69 8
-2 2 -6 16 -10 31 -6 24 -4 28 27 36 47 12 60 43 52 122 -14 150 -105 352
-156 349 -7 0 -78 -20 -157 -43z m129 -11 c0 -51 27 -177 55 -254 13 -36 23
-67 21 -68 -6 -7 -48 100 -66 170 -10 40 -19 61 -19 47 0 -14 13 -63 30 -110
16 -47 32 -93 35 -102 4 -10 2 -18 -4 -18 -5 0 -26 48 -45 108 -40 121 -55
225 -37 247 20 24 30 17 30 -20z m74 -17 c64 -85 120 -346 76 -356 -36 -7
-107 183 -117 311 -7 87 1 96 41 45z m-98 -166 c7 -28 20 -67 28 -86 13 -30
13 -35 -1 -40 -8 -3 -16 -6 -18 -6 -9 0 -56 163 -51 176 11 28 29 9 42 -44z
m-201 -44 c9 -39 26 -92 37 -117 12 -29 14 -41 5 -31 -23 24 -58 118 -64 171
-3 27 -4 49 -1 49 3 0 13 -32 23 -72z"/>
<path d="M551 571 c-10 -7 -11 -18 -5 -45 5 -21 12 -37 16 -36 68 7 76 17 58
64 -10 27 -41 34 -69 17z m59 -11 c0 -15 -35 -29 -49 -20 -8 4 -10 13 -7 19 9
14 56 15 56 1z"/>
<path d="M239 565 c-7 -27 -2 -65 9 -65 7 0 12 14 12 35 0 19 -4 35 -10 35 -5
0 -11 -2 -11 -5z"/>
<path d="M602 408 c11 -40 24 -77 29 -82 20 -21 22 8 5 79 -14 60 -21 75 -36
75 -18 0 -18 -3 2 -72z"/>
<path d="M198 350 c-4 -23 0 -34 15 -41 17 -10 18 -8 12 23 -10 47 -22 55 -27
18z"/>
<path d="M221 273 c8 -9 9 -14 3 -10 -6 3 -11 0 -11 -7 0 -8 8 -11 18 -9 21 6
14 43 -8 43 -13 0 -13 -2 -2 -17z"/>
<path d="M176 50 c5 -5 59 -14 119 -20 137 -13 165 -13 165 0 0 6 -35 10 -85
10 -50 0 -85 4 -85 10 0 6 -27 10 -62 10 -39 0 -59 -3 -52 -10z"/>
</g>
</svg>
