<?xml version="1.0" standalone="no"?>
<!DOCTYPE svg PUBLIC "-//W3C//DTD SVG 20010904//EN"
 "http://www.w3.org/TR/2001/REC-SVG-20010904/DTD/svg10.dtd">
<svg version="1.0" xmlns="http://www.w3.org/2000/svg"
 width="72.000000pt" height="72.000000pt" viewBox="0 0 72.000000 72.000000"
 preserveAspectRatio="xMidYMid meet">
<metadata>
Created by potrace 1.10, written by Peter Selinger 2001-2011
</metadata>
<g transform="translate(0.000000,72.000000) scale(0.100000,-0.100000)"
fill="#000000" stroke="none">
<path d="M140 700 c-24 -16 2 -26 66 -28 46 -1 71 -10 142 -49 48 -26 104 -57
125 -67 35 -19 37 -22 37 -68 0 -30 4 -47 10 -43 6 3 10 1 10 -4 0 -15 -17
-14 -26 1 -4 6 -6 28 -6 50 1 21 -3 38 -8 38 -14 0 -12 -39 3 -91 19 -64 20
-129 2 -164 -11 -19 -12 -31 -6 -33 6 -2 11 -19 11 -38 0 -23 5 -34 15 -34 10
0 13 -8 10 -27 -2 -16 -7 -44 -10 -65 -3 -20 -12 -39 -21 -42 -29 -11 -3 -26
46 -26 51 0 71 13 45 27 -9 5 -20 22 -25 39 -9 28 -9 27 -7 -10 1 -21 -3 -41
-8 -43 -13 -4 -7 140 6 145 5 2 9 34 8 70 -1 59 -2 63 -10 34 -11 -38 -39 -44
-39 -7 0 16 6 25 15 25 16 0 20 53 16 195 -2 58 -6 73 -24 87 -12 10 -28 16
-35 13 -7 -3 -11 -1 -8 4 3 4 -42 34 -100 65 -109 57 -165 70 -193 44 -11 -10
-13 -10 -7 0 9 14 -13 16 -34 2z"/>
</g>
</svg>
