<?xml version="1.0" standalone="no"?>
<!DOCTYPE svg PUBLIC "-//W3C//DTD SVG 20010904//EN"
 "http://www.w3.org/TR/2001/REC-SVG-20010904/DTD/svg10.dtd">
<svg version="1.0" xmlns="http://www.w3.org/2000/svg"
 width="72.000000pt" height="72.000000pt" viewBox="0 0 72.000000 72.000000"
 preserveAspectRatio="xMidYMid meet">
<metadata>
Created by potrace 1.10, written by Peter Selinger 2001-2011
</metadata>
<g transform="translate(0.000000,72.000000) scale(0.100000,-0.100000)"
fill="#000000" stroke="none">
<path d="M67 630 c-24 -28 -22 -39 14 -76 36 -38 31 -54 -16 -54 -19 0 -37 -4
-40 -10 -10 -16 75 -12 91 4 21 22 17 37 -18 73 -22 22 -29 36 -22 43 7 7 82
-62 235 -215 160 -161 229 -225 242 -221 10 2 17 -1 17 -10 0 -8 -6 -11 -16
-7 -9 3 6 -15 34 -41 54 -51 81 -55 102 -16 8 15 4 26 -18 52 -47 53 -55 76
-48 129 6 44 5 49 -12 49 -10 0 -27 -9 -37 -20 -10 -12 -24 -19 -31 -16 -6 2
-16 0 -21 -5 -5 -5 -47 29 -103 86 -52 52 -99 95 -105 95 -6 0 -46 36 -90 79
-43 44 -82 78 -86 76 -4 -3 -12 2 -19 10 -17 20 -32 19 -53 -5z m149 -92 c42
-40 84 -76 94 -80 9 -3 28 -17 41 -31 13 -14 46 -48 74 -76 l49 -51 -29 0
c-15 0 -26 3 -22 6 4 5 -170 184 -179 184 -5 0 -114 111 -114 116 0 11 17 -2
86 -68z m360 -279 c33 15 31 16 36 -25 4 -32 3 -34 -9 -18 -7 10 -15 15 -17
13 -3 -3 13 -28 34 -57 23 -30 37 -58 34 -67 -12 -31 -41 -7 -36 30 2 18 2 19
-8 2 -6 -9 -16 -15 -21 -11 -7 4 -7 10 0 18 12 14 0 36 -23 40 -9 1 -35 21
-59 43 -23 22 -49 43 -57 46 -11 3 -8 7 10 14 20 8 31 6 58 -15 28 -21 36 -23
58 -13z"/>
</g>
</svg>
