<?xml version="1.0" standalone="no"?>
<!DOCTYPE svg PUBLIC "-//W3C//DTD SVG 20010904//EN"
 "http://www.w3.org/TR/2001/REC-SVG-20010904/DTD/svg10.dtd">
<svg version="1.0" xmlns="http://www.w3.org/2000/svg"
 width="72.000000pt" height="72.000000pt" viewBox="0 0 72.000000 72.000000"
 preserveAspectRatio="xMidYMid meet">
<metadata>
Created by potrace 1.10, written by Peter Selinger 2001-2011
</metadata>
<g transform="translate(0.000000,72.000000) scale(0.100000,-0.100000)"
fill="#000000" stroke="none">
<path d="M45 690 c-7 -11 23 -60 37 -60 5 0 6 5 2 12 -4 7 -3 8 5 4 6 -4 9
-12 6 -17 -6 -9 179 -221 199 -228 6 -2 3 3 -7 11 -17 13 -17 14 10 13 23 0
28 -4 25 -24 -2 -21 0 -22 15 -10 15 12 16 12 10 -5 -10 -27 29 -68 57 -60 14
3 17 2 9 -3 -17 -12 13 -56 34 -49 8 3 12 2 9 -2 -3 -5 2 -19 11 -31 11 -16
18 -20 26 -12 6 6 16 11 21 11 6 0 5 -5 -2 -12 -18 -18 -14 -30 7 -23 16 5 18
2 14 -16 -5 -18 -3 -20 14 -15 13 4 20 2 20 -8 0 -9 -5 -12 -11 -8 -6 3 6 -14
27 -38 21 -25 40 -55 44 -68 l6 -23 33 32 c37 35 42 49 20 49 -23 0 -96 67
-232 210 -71 74 -133 134 -138 132 -6 -2 -17 5 -24 15 -10 13 -16 14 -19 6 -3
-7 -9 -13 -15 -13 -6 0 -5 6 2 16 11 13 10 19 -9 37 -16 15 -25 18 -28 10 -3
-7 -9 -13 -15 -13 -7 0 -6 5 1 14 10 12 7 20 -11 41 -44 51 -147 135 -153 125z"/>
</g>
</svg>
