<?xml version="1.0" standalone="no"?>
<!DOCTYPE svg PUBLIC "-//W3C//DTD SVG 20010904//EN"
 "http://www.w3.org/TR/2001/REC-SVG-20010904/DTD/svg10.dtd">
<svg version="1.0" xmlns="http://www.w3.org/2000/svg"
 width="72.000000pt" height="72.000000pt" viewBox="0 0 72.000000 72.000000"
 preserveAspectRatio="xMidYMid meet">
<metadata>
Created by potrace 1.10, written by Peter Selinger 2001-2011
</metadata>
<g transform="translate(0.000000,72.000000) scale(0.100000,-0.100000)"
fill="#000000" stroke="none">
<path d="M611 638 c1 -29 4 -41 6 -25 2 15 9 27 14 27 5 0 7 -17 4 -37 -3 -21
-19 -139 -35 -262 -17 -123 -32 -226 -34 -228 -9 -9 -46 38 -39 50 4 7 0 7
-10 -2 -19 -15 -23 -26 -6 -15 7 4 10 1 7 -7 -8 -25 -38 -23 -39 3 -1 20 -2
21 -6 3 -9 -36 -26 -43 -21 -8 2 18 1 30 -4 27 -4 -3 -8 3 -8 13 0 10 -11 115
-25 233 -14 118 -25 221 -25 228 0 6 -7 12 -15 12 -8 0 -15 7 -15 15 0 19 -16
19 -70 0 -23 -8 -46 -12 -52 -9 -11 7 -201 -16 -217 -25 -12 -8 70 -577 85
-590 9 -9 183 12 212 25 10 4 42 8 72 8 38 1 54 5 52 14 -1 8 12 12 43 12 27
0 45 -5 45 -11 0 -14 77 -4 97 12 15 13 14 8 53 295 17 121 28 228 24 237 -6
18 -64 57 -83 57 -7 0 -10 -19 -10 -52z m-251 -19 c6 -10 12 -45 13 -78 2 -34
6 -64 10 -67 3 -3 3 -12 1 -18 -3 -7 7 -86 21 -176 24 -154 24 -163 8 -176
-15 -10 -19 -10 -21 2 -2 8 -8 14 -14 14 -5 0 -8 -7 -4 -15 3 -8 1 -15 -4 -15
-13 0 -13 57 0 65 6 3 10 12 10 18 0 7 -5 4 -11 -6 -6 -9 -15 -14 -21 -11 -7
5 -9 -1 -6 -17 2 -15 -3 -32 -13 -42 -17 -18 -17 -18 -23 0 -9 30 -76 485 -76
518 l0 30 20 -25 c11 -14 18 -33 16 -42 -2 -10 -1 -18 4 -18 11 0 20 -38 10
-42 -11 -4 24 -239 39 -267 14 -25 14 -34 1 -26 -5 3 -10 2 -10 -4 0 -5 5 -13
11 -17 6 -3 8 -18 5 -33 l-6 -26 13 24 c10 17 12 34 5 65 -28 129 -57 328 -40
267 7 -21 9 -22 21 -8 7 9 11 22 8 29 -3 8 -6 5 -6 -6 -1 -20 -1 -20 -15 0
-13 16 -13 21 0 35 14 16 20 49 7 35 -5 -4 -8 -12 -8 -17 0 -5 -4 -10 -9 -11
-15 -5 -16 34 0 49 8 8 14 20 14 28 0 19 38 7 50 -16z m330 11 c8 -15 7 -35
-5 -79 -8 -32 -15 -78 -15 -102 -1 -42 -1 -43 -16 -24 -12 16 -14 36 -9 95 10
130 21 155 45 110z m-510 -101 c0 -5 -6 -9 -14 -9 -8 0 -17 -7 -20 -16 -3 -8
-10 -12 -16 -9 -15 9 -12 25 4 25 8 0 17 7 20 16 6 15 26 11 26 -7z m-25 -59
c3 -5 12 -7 20 -3 9 3 15 -1 15 -11 0 -17 -12 -21 -24 -9 -12 12 -46 10 -46
-4 0 -7 -7 -13 -15 -13 -22 0 -18 15 8 33 26 19 34 20 42 7z m75 -30 c0 -5 -6
-10 -14 -10 -8 0 -16 -7 -20 -15 -7 -18 -26 -20 -26 -2 0 7 10 17 23 23 29 15
37 16 37 4z m-60 -50 c0 -5 6 -7 14 -4 16 6 31 -12 18 -20 -11 -6 -62 16 -62
27 0 4 7 7 15 7 8 0 15 -4 15 -10z m-35 -280 c3 -5 12 -7 20 -3 9 3 15 -1 15
-11 0 -17 -12 -21 -24 -8 -4 4 -13 7 -18 7 -6 0 -13 6 -15 13 -5 14 13 17 22
2z"/>
<path d="M344 507 c6 -78 50 -347 53 -322 2 11 -10 101 -27 200 -16 99 -28
154 -26 122z"/>
<path d="M406 623 c3 -16 14 -107 24 -203 l19 -175 -6 150 c-3 83 -7 168 -9
190 -1 22 -3 46 -3 53 -1 6 -8 12 -16 12 -10 0 -13 -7 -9 -27z"/>
<path d="M448 603 c2 -27 7 -122 11 -213 l8 -165 2 213 c1 164 -2 212 -11 212
-9 0 -12 -15 -10 -47z"/>
<path d="M484 545 c0 -60 1 -84 3 -52 2 32 2 81 0 110 -2 29 -3 3 -3 -58z"/>
<path d="M504 479 c3 -94 10 -179 16 -188 5 -10 6 10 2 54 -4 39 -7 123 -7
188 0 64 -4 117 -9 117 -5 0 -6 -71 -2 -171z"/>
<path d="M595 580 c2 -55 1 -67 -5 -45 -7 22 -8 13 -5 -35 5 -76 -1 -70 -15
15 l-9 60 5 -70 c2 -38 7 -86 11 -105 3 -19 2 -32 -2 -28 -4 4 -11 31 -16 60
-7 48 -8 46 -3 -21 2 -41 7 -86 10 -100 4 -19 3 -22 -4 -11 -5 8 -15 62 -21
120 -17 162 -20 173 -15 63 4 -90 28 -260 37 -269 2 -2 13 74 24 169 16 124
19 186 13 222 -8 45 -9 43 -5 -25z"/>
<path d="M490 370 c-4 -39 1 -114 9 -128 4 -7 5 18 3 55 -4 80 -9 108 -12 73z"/>
<path d="M525 253 c4 -10 9 -34 12 -53 6 -43 23 -64 23 -29 0 14 -3 29 -7 33
-8 8 -10 13 -12 46 0 11 -6 20 -12 20 -7 0 -8 -7 -4 -17z"/>
</g>
</svg>
