<?xml version="1.0" standalone="no"?>
<!DOCTYPE svg PUBLIC "-//W3C//DTD SVG 20010904//EN"
 "http://www.w3.org/TR/2001/REC-SVG-20010904/DTD/svg10.dtd">
<svg version="1.0" xmlns="http://www.w3.org/2000/svg"
 width="72.000000pt" height="72.000000pt" viewBox="0 0 72.000000 72.000000"
 preserveAspectRatio="xMidYMid meet">
<metadata>
Created by potrace 1.10, written by Peter Selinger 2001-2011
</metadata>
<g transform="translate(0.000000,72.000000) scale(0.100000,-0.100000)"
fill="#000000" stroke="none">
<path d="M355 679 c-60 -14 -109 -60 -147 -137 -30 -60 -33 -75 -32 -152 0
-64 5 -97 21 -132 54 -120 116 -160 245 -159 122 1 177 39 230 158 25 57 30
174 10 243 -18 62 -74 136 -122 160 -47 24 -147 33 -205 19z m117 -19 c48 -14
112 -86 134 -153 20 -60 23 -163 5 -224 -23 -83 -123 -183 -161 -163 -10 6
-32 10 -49 10 -42 0 -73 14 -115 51 -50 43 -74 94 -87 182 -14 95 3 163 58
226 60 71 131 94 215 71z m199 -167 c18 -63 16 -169 -5 -213 -9 -19 -14 -26
-10 -15 24 79 22 189 -5 258 -6 16 -7 26 -2 23 4 -3 14 -27 22 -53z m-14 -124
c-8 -122 -22 -104 -22 28 0 119 1 123 13 81 8 -25 12 -71 9 -109z"/>
<path d="M30 158 c0 -7 -3 -22 -6 -34 -5 -18 -1 -20 43 -20 59 -1 235 -50 246
-70 14 -24 35 -15 42 17 9 38 6 41 -33 30 -21 -7 -32 -6 -32 1 0 6 -11 8 -25
5 -14 -2 -23 -2 -20 1 8 9 -95 33 -107 25 -7 -4 -8 -1 -3 7 6 10 3 12 -13 8
-14 -4 -20 -2 -15 5 4 6 -2 8 -15 5 -17 -5 -22 -2 -22 13 0 12 -7 19 -20 19
-11 0 -20 -6 -20 -12z"/>
</g>
</svg>
