<?xml version="1.0" standalone="no"?>
<!DOCTYPE svg PUBLIC "-//W3C//DTD SVG 20010904//EN"
 "http://www.w3.org/TR/2001/REC-SVG-20010904/DTD/svg10.dtd">
<svg version="1.0" xmlns="http://www.w3.org/2000/svg"
 width="72.000000pt" height="72.000000pt" viewBox="0 0 72.000000 72.000000"
 preserveAspectRatio="xMidYMid meet">
<metadata>
Created by potrace 1.10, written by Peter Selinger 2001-2011
</metadata>
<g transform="translate(0.000000,72.000000) scale(0.100000,-0.100000)"
fill="#000000" stroke="none">
<path d="M37 683 c-10 -9 24 -60 48 -71 14 -6 25 -20 25 -29 0 -20 36 -47 50
-38 5 3 12 0 16 -6 4 -8 3 -9 -4 -5 -7 4 -12 3 -12 -2 0 -10 33 -42 43 -42 8
0 121 -119 127 -134 3 -6 28 -33 57 -59 28 -27 66 -70 84 -96 18 -26 43 -55
56 -64 21 -17 24 -17 48 -1 21 14 31 15 50 6 14 -7 25 -16 25 -22 0 -17 -31
-24 -51 -12 -29 18 -32 15 -25 -28 4 -23 2 -40 -3 -40 -6 0 -12 16 -14 35 l-4
35 1 -37 c1 -28 6 -39 19 -41 24 -5 117 88 117 117 0 18 -6 21 -43 21 -45 0
-75 22 -219 163 -33 31 -63 57 -67 57 -4 0 -54 49 -111 110 -57 60 -112 112
-121 115 -10 4 -21 15 -24 25 -6 19 -59 52 -68 43z m473 -469 c6 -14 14 -23
20 -19 10 6 46 -42 37 -51 -3 -3 -14 -1 -25 5 -22 12 -63 76 -55 85 10 10 13
7 23 -20z"/>
</g>
</svg>
