<?xml version="1.0" standalone="no"?>
<!DOCTYPE svg PUBLIC "-//W3C//DTD SVG 20010904//EN"
 "http://www.w3.org/TR/2001/REC-SVG-20010904/DTD/svg10.dtd">
<svg version="1.0" xmlns="http://www.w3.org/2000/svg"
 width="72.000000pt" height="72.000000pt" viewBox="0 0 72.000000 72.000000"
 preserveAspectRatio="xMidYMid meet">
<metadata>
Created by potrace 1.10, written by Peter Selinger 2001-2011
</metadata>
<g transform="translate(0.000000,72.000000) scale(0.100000,-0.100000)"
fill="#000000" stroke="none">
<path d="M489 509 c-80 -7 -119 -21 -119 -44 0 -15 57 -35 100 -35 20 0 22 -2
10 -11 -16 -11 112 -7 175 5 23 5 26 4 13 -4 -18 -11 -13 -51 5 -44 8 3 13
-13 15 -47 3 -44 0 -51 -17 -56 -12 -3 -21 -12 -21 -19 0 -8 -5 -14 -11 -14
-6 0 -8 7 -5 16 3 9 6 30 7 47 0 27 2 29 9 12 5 -11 9 -15 9 -8 1 6 4 20 7 30
4 13 3 14 -4 5 -5 -8 -12 -14 -15 -14 -4 1 -25 -7 -47 -15 -31 -13 -40 -21
-37 -34 3 -10 0 -20 -7 -23 -6 -2 7 -5 29 -6 35 -2 37 -3 15 -10 -36 -12 -108
-10 -160 3 -41 11 -45 14 -42 40 2 15 -1 27 -8 27 -8 0 -8 6 0 21 7 11 9 26 7
33 -3 7 -1 19 5 27 8 11 9 10 4 -3 -3 -10 -1 -18 4 -18 21 0 9 35 -15 47 l-25
11 0 -93 0 -93 31 -12 c45 -19 236 -18 274 0 l30 15 0 114 c0 105 -2 115 -21
128 -32 20 -109 29 -195 22z m177 -26 c22 -8 16 -30 -8 -37 -30 -8 -186 -6
-217 3 -40 11 -35 29 11 40 41 9 184 6 214 -6z m-38 -211 c2 -7 -7 -12 -23
-12 -24 0 -26 2 -15 15 14 17 31 16 38 -3z"/>
<path d="M60 497 c-35 -12 -56 -52 -28 -55 7 -1 53 -5 103 -9 l90 -8 -60 -6
c-60 -6 -60 -6 20 -7 46 0 72 3 61 7 -13 5 -2 7 31 7 40 0 47 -3 35 -12 -11
-8 -12 -13 -3 -18 6 -4 8 -12 5 -18 -4 -7 -2 -8 5 -4 6 4 9 12 6 17 -4 5 -1 9
4 9 7 0 11 -25 11 -61 0 -52 -3 -62 -20 -66 -11 -3 -20 -12 -20 -19 0 -8 -4
-14 -10 -14 -5 0 -10 5 -10 10 0 6 -26 9 -65 8 -36 -2 -65 -7 -65 -12 0 -5 28
-6 63 -3 58 5 59 5 20 -5 -23 -6 -66 -7 -97 -4 l-56 7 -1 37 c-1 20 -4 48 -8
62 -6 20 -9 15 -12 -28 -2 -28 -1 -54 4 -56 4 -3 2 -3 -5 -2 -8 2 -12 14 -10
29 2 15 -2 27 -8 27 -8 0 -8 6 0 20 6 11 8 24 5 29 -3 5 -2 17 2 27 6 16 7 16
14 -2 7 -18 8 -18 8 2 1 12 -7 24 -16 28 -10 3 -22 8 -28 11 -6 3 -9 -29 -7
-90 3 -94 4 -96 30 -107 44 -17 221 -18 265 -1 l37 15 0 120 0 119 -35 15
c-42 17 -204 18 -255 1z m256 -14 c26 -10 14 -32 -21 -39 -52 -9 -213 0 -227
14 -15 15 -6 23 39 33 38 8 183 2 209 -8z"/>
<path d="M178 403 c-90 -3 -98 -5 -98 -23 0 -15 7 -20 25 -20 17 0 23 4 19 14
-4 11 9 14 60 14 64 0 89 -12 44 -22 -13 -2 -4 -4 20 -3 35 2 42 -1 42 -16 0
-11 -14 -24 -40 -35 -30 -13 -37 -20 -31 -31 8 -12 12 -12 25 -2 11 9 16 10
16 2 0 -6 5 -11 10 -11 6 0 10 11 10 24 0 28 16 43 23 24 6 -14 -2 60 -9 80
-2 6 -7 11 -11 10 -4 -1 -52 -4 -105 -5z"/>
<path d="M528 402 c-90 -2 -98 -4 -98 -22 0 -15 7 -20 25 -20 17 0 23 4 19 14
-5 12 7 14 60 14 36 0 66 -4 66 -9 0 -11 -65 -23 -90 -16 -11 3 -20 1 -20 -4
0 -6 34 -9 80 -7 79 3 81 4 78 27 -3 29 3 27 -120 23z"/>
<path d="M97 313 c-4 -3 -2 -12 4 -19 6 -8 9 -21 5 -29 -3 -8 0 -15 7 -15 9 0
12 11 9 35 -4 34 -11 42 -25 28z"/>
<path d="M455 305 c-4 -11 -10 -24 -13 -29 -3 -5 1 -6 8 -1 10 6 12 4 7 -7 -4
-12 3 -17 29 -20 19 -2 34 0 34 4 0 4 -11 8 -24 8 -20 0 -25 6 -28 33 -3 28
-5 29 -13 12z"/>
</g>
</svg>
