<?xml version="1.0" standalone="no"?>
<!DOCTYPE svg PUBLIC "-//W3C//DTD SVG 20010904//EN"
 "http://www.w3.org/TR/2001/REC-SVG-20010904/DTD/svg10.dtd">
<svg version="1.0" xmlns="http://www.w3.org/2000/svg"
 width="72.000000pt" height="72.000000pt" viewBox="0 0 72.000000 72.000000"
 preserveAspectRatio="xMidYMid meet">
<metadata>
Created by potrace 1.10, written by Peter Selinger 2001-2011
</metadata>
<g transform="translate(0.000000,72.000000) scale(0.100000,-0.100000)"
fill="#000000" stroke="none">
<path d="M33 693 c-16 -6 -17 -33 -2 -33 8 0 7 -6 -2 -17 -13 -15 -12 -16 9
-10 18 4 22 2 18 -9 -5 -12 -1 -14 15 -9 18 6 20 4 14 -16 -7 -21 -6 -22 9
-10 14 12 26 4 101 -69 76 -74 86 -82 102 -69 15 11 16 11 5 -1 -10 -12 -4
-23 37 -65 49 -50 49 -50 61 -145 13 -110 39 -174 84 -201 54 -33 113 -19 179
43 31 30 37 42 37 77 0 33 -7 49 -35 79 -40 45 -128 94 -200 111 -27 7 -58 19
-67 28 -9 8 -21 12 -27 8 -6 -3 -9 0 -5 8 6 17 -120 132 -135 122 -6 -3 -8 0
-5 8 3 9 -12 29 -40 52 -25 21 -46 44 -46 52 0 10 -6 13 -16 9 -12 -4 -15 -2
-10 9 3 8 1 15 -4 15 -6 0 -10 -5 -10 -11 0 -5 -4 -8 -10 -4 -5 3 -7 12 -3 20
3 8 0 15 -6 15 -6 0 -11 -5 -11 -11 0 -5 -4 -8 -10 -4 -5 3 -7 12 -3 20 5 15
-2 18 -24 8z m484 -375 c28 -10 57 -26 65 -35 12 -15 9 -16 -24 -10 -44 7 -49
-4 -13 -27 24 -16 27 -16 55 4 17 12 30 16 30 10 0 -7 8 -24 18 -38 40 -57 31
-110 -22 -146 -36 -23 -51 -20 -96 20 -43 39 -69 86 -98 179 -27 85 -28 85 85
43z m-78 -128 c2 -30 -18 7 -23 45 l-6 40 14 -35 c8 -19 15 -42 15 -50z"/>
</g>
</svg>
