<?xml version="1.0" standalone="no"?>
<!DOCTYPE svg PUBLIC "-//W3C//DTD SVG 20010904//EN"
 "http://www.w3.org/TR/2001/REC-SVG-20010904/DTD/svg10.dtd">
<svg version="1.0" xmlns="http://www.w3.org/2000/svg"
 width="72.000000pt" height="72.000000pt" viewBox="0 0 72.000000 72.000000"
 preserveAspectRatio="xMidYMid meet">
<metadata>
Created by potrace 1.10, written by Peter Selinger 2001-2011
</metadata>
<g transform="translate(0.000000,72.000000) scale(0.100000,-0.100000)"
fill="#000000" stroke="none">
<path d="M128 628 c-65 -65 -104 -128 -94 -154 4 -11 10 -12 25 -4 11 5 32 11
48 11 21 1 23 3 8 6 -11 3 -26 10 -32 15 -10 8 -13 6 -13 -6 0 -9 -7 -16 -15
-16 -8 0 -15 2 -15 5 0 16 32 63 59 89 29 28 31 28 31 8 0 -11 12 -29 26 -39
46 -31 114 -95 147 -137 l32 -41 -50 36 c-27 20 -69 46 -93 58 -39 20 -44 20
-71 6 -40 -20 -71 -62 -71 -96 0 -36 18 -55 203 -213 138 -118 150 -126 190
-126 52 0 101 28 128 74 l20 34 29 -28 c17 -16 30 -33 30 -39 0 -18 19 -12 30
9 8 15 8 20 -1 20 -7 0 -27 11 -44 24 -24 19 -34 36 -39 67 -8 47 -13 53 -214
237 -129 119 -168 174 -158 227 11 55 -22 45 -96 -27z m78 -30 c18 -35 57 -82
118 -138 233 -217 246 -232 246 -279 0 -56 -30 -97 -86 -122 -55 -23 -89 -12
-134 45 -10 13 -2 10 25 -9 32 -22 47 -25 75 -20 19 4 43 7 52 7 9 -1 23 7 30
16 11 14 10 15 -6 8 -18 -6 -19 -5 -4 11 8 10 18 35 22 55 7 36 5 40 -51 90
-125 114 -305 294 -319 320 -16 31 -19 68 -4 68 5 0 22 -24 36 -52z m-16 -161
c0 -6 3 -7 7 -4 3 4 13 -2 21 -14 8 -11 20 -18 28 -15 7 3 22 -7 34 -21 11
-14 20 -22 20 -18 0 4 19 -10 43 -31 23 -22 72 -63 110 -93 77 -63 84 -86 38
-132 -51 -50 -53 -49 -281 147 -63 55 -116 107 -118 117 -5 27 39 74 71 74 15
0 27 -5 27 -10z"/>
</g>
</svg>
