<?xml version="1.0" standalone="no"?>
<!DOCTYPE svg PUBLIC "-//W3C//DTD SVG 20010904//EN"
 "http://www.w3.org/TR/2001/REC-SVG-20010904/DTD/svg10.dtd">
<svg version="1.0" xmlns="http://www.w3.org/2000/svg"
 width="72.000000pt" height="72.000000pt" viewBox="0 0 72.000000 72.000000"
 preserveAspectRatio="xMidYMid meet">
<metadata>
Created by potrace 1.10, written by Peter Selinger 2001-2011
</metadata>
<g transform="translate(0.000000,72.000000) scale(0.100000,-0.100000)"
fill="#000000" stroke="none">
<path d="M295 669 c-16 -5 -79 -11 -139 -14 -60 -2 -113 -8 -119 -14 -9 -9 36
-501 52 -566 9 -35 12 -36 131 -18 47 7 109 13 138 13 28 0 52 5 52 10 0 12
77 13 82 1 5 -13 48 -24 48 -12 0 6 11 11 25 11 17 0 29 8 35 22 17 44 92 487
86 512 -3 14 -15 28 -26 31 -11 4 -18 11 -15 16 4 5 -4 9 -17 9 -35 0 -61 -62
-54 -126 4 -37 3 -43 -4 -24 -8 20 -9 15 -5 -25 l4 -50 -14 50 -15 50 6 -50
c3 -27 8 -61 11 -75 8 -37 -8 -17 -18 22 -7 26 -7 23 -3 -17 3 -27 8 -59 11
-70 3 -11 2 -16 -3 -12 -5 5 -16 52 -25 105 -10 53 -18 85 -18 71 -1 -33 29
-210 38 -227 10 -18 54 234 46 259 -8 25 2 72 14 64 5 -3 12 1 14 7 14 34 4
-43 -33 -255 -40 -229 -57 -301 -60 -247 0 14 -8 34 -17 45 -9 11 -14 14 -11
5 3 -8 8 -26 12 -40 6 -23 6 -23 -7 -7 -17 20 -28 22 -25 5 2 -7 -3 -12 -10
-10 -7 1 -21 -2 -30 -7 -16 -9 -17 7 -14 260 4 250 3 269 -13 269 -15 0 -17
-7 -11 -52 3 -29 7 -129 10 -223 l5 -170 -14 160 c-7 88 -14 188 -14 223 -1
48 -4 62 -16 62 -8 0 -15 9 -15 20 0 22 -9 23 -55 9z m-53 -83 c-1 -19 2 -37
8 -41 6 -3 8 -11 4 -16 -7 -12 15 -239 26 -260 4 -8 6 -35 4 -60 -3 -29 -1
-37 4 -25 8 19 9 19 14 -2 4 -13 14 -22 25 -21 14 0 15 2 3 7 -8 4 -15 17 -14
29 1 13 -3 20 -9 16 -6 -4 -8 4 -5 21 3 14 2 26 -2 26 -4 0 -10 46 -14 103 -4
56 -11 104 -17 105 -5 2 -9 11 -9 20 0 15 2 15 10 2 16 -25 13 11 -5 53 -17
42 -19 61 -5 52 6 -3 10 4 10 17 0 18 2 20 10 8 7 -12 11 -10 19 10 5 14 10
19 10 12 1 -7 5 -11 10 -8 20 13 34 -27 35 -104 0 -44 4 -80 8 -80 4 0 5 -7 2
-15 -3 -8 2 -85 11 -170 9 -86 15 -157 13 -158 -1 -1 -12 -7 -24 -13 -18 -10
-20 -9 -20 9 1 11 -5 22 -13 25 -10 3 -12 0 -8 -12 4 -9 2 -16 -3 -16 -6 0
-10 11 -10 24 0 36 -15 40 -17 4 -1 -40 -22 -61 -30 -30 -5 21 -9 22 -64 16
-41 -5 -59 -3 -59 5 0 6 13 11 29 11 42 0 91 11 91 21 0 4 -29 6 -65 2 -46 -4
-65 -2 -65 6 0 9 75 17 118 12 6 -1 12 5 12 14 0 13 -10 15 -65 9 -46 -5 -65
-3 -65 5 0 7 22 11 60 11 45 0 60 4 60 14 0 13 -39 14 -102 1 -11 -2 -18 3
-18 11 0 10 15 14 60 14 48 0 60 3 60 16 0 12 -7 14 -27 10 -59 -11 -96 -11
-100 2 -3 8 12 12 54 13 32 1 61 1 65 0 4 0 5 6 1 14 -5 15 -24 15 -100 -1
-16 -3 -23 0 -23 11 0 12 13 15 60 15 48 0 60 3 60 16 0 10 -6 14 -17 10 -34
-10 -103 -10 -105 -1 -2 6 25 11 60 13 43 2 62 7 62 16 0 8 -9 12 -22 10 -88
-12 -108 -12 -108 2 0 7 8 13 18 12 55 -4 102 3 102 16 0 8 -7 13 -17 11 -65
-13 -103 -12 -103 1 0 8 6 14 13 13 47 -6 107 2 107 15 0 8 -7 13 -17 11 -68
-14 -113 -14 -113 -1 0 9 10 14 28 13 65 -2 103 3 96 14 -4 7 -29 10 -65 7
-40 -3 -59 -1 -59 7 0 6 8 12 18 12 73 -1 102 4 102 17 0 8 -7 13 -17 11 -65
-13 -114 -14 -111 -3 3 7 13 13 24 14 10 0 38 1 62 2 28 1 42 7 42 15 0 11
-11 12 -47 6 -74 -12 -82 -11 -80 10 1 15 5 17 13 10 8 -6 31 -8 58 -4 38 6
46 11 46 28 0 20 1 20 17 4 11 -10 16 -30 15 -51z m428 29 c10 -12 8 -32 -10
-105 -22 -88 -40 -117 -40 -62 0 44 23 182 31 182 3 0 12 -7 19 -15z"/>
<path d="M321 535 c-1 -48 38 -397 45 -405 6 -5 3 31 -26 285 -9 88 -18 142
-19 120z"/>
<path d="M430 414 c0 -131 2 -235 4 -233 10 10 16 458 6 464 -7 4 -10 -73 -10
-231z"/>
<path d="M462 558 l2 -83 3 73 c2 39 7 72 11 72 4 0 6 -37 4 -82 -5 -108 3
-98 12 15 7 83 6 87 -13 87 -20 0 -21 -5 -19 -82z"/>
<path d="M511 596 l2 -41 7 35 7 35 3 -35 3 -35 7 35 7 35 3 -40 2 -40 8 40
c9 46 8 49 -25 51 -23 1 -25 -3 -24 -40z"/>
<path d="M475 376 c2 -43 9 -84 15 -90 9 -8 10 -3 5 24 -5 19 -12 60 -16 90
-7 49 -8 46 -4 -24z"/>
<path d="M491 420 c-1 -14 8 -62 19 -108 23 -97 23 -92 10 -92 -5 0 -10 11
-10 25 0 14 -5 25 -11 25 -7 0 -8 -7 -4 -17 3 -10 9 -30 12 -46 3 -15 9 -30
13 -32 11 -7 23 91 14 107 -5 7 -16 47 -25 88 -10 41 -18 64 -18 50z"/>
<path d="M456 305 c3 -36 12 -66 22 -75 14 -13 15 -13 6 0 -6 8 -12 33 -13 54
-2 22 -7 49 -12 60 -6 14 -7 2 -3 -39z"/>
</g>
</svg>
