<?xml version="1.0" standalone="no"?>
<!DOCTYPE svg PUBLIC "-//W3C//DTD SVG 20010904//EN"
 "http://www.w3.org/TR/2001/REC-SVG-20010904/DTD/svg10.dtd">
<svg version="1.0" xmlns="http://www.w3.org/2000/svg"
 width="72.000000pt" height="72.000000pt" viewBox="0 0 72.000000 72.000000"
 preserveAspectRatio="xMidYMid meet">
<metadata>
Created by potrace 1.10, written by Peter Selinger 2001-2011
</metadata>
<g transform="translate(0.000000,72.000000) scale(0.100000,-0.100000)"
fill="#000000" stroke="none">
<path d="M468 612 c-84 -75 -86 -76 -103 -62 -20 16 -45 -3 -45 -34 0 -31 -48
-56 -109 -56 -28 0 -51 -4 -51 -10 0 -5 -6 -10 -13 -10 -8 0 -26 -13 -40 -30
-52 -57 -85 -25 -48 45 12 23 38 58 58 78 60 62 102 60 138 -7 28 -52 50 -45
24 7 -24 47 -51 67 -91 67 -33 0 -46 -7 -85 -47 -50 -52 -94 -134 -86 -162 6
-23 42 -40 65 -32 9 3 36 24 59 46 24 21 40 32 37 23 -4 -10 3 -24 18 -37 13
-11 24 -16 24 -9 0 6 3 9 6 6 5 -6 3 -13 -30 -75 -24 -47 -21 -132 7 -173 35
-52 70 -73 131 -78 46 -4 62 0 100 22 24 14 50 39 57 55 11 25 20 29 62 34
139 13 199 175 105 282 -16 19 -41 38 -54 41 -22 6 -24 9 -18 58 13 114 -31
136 -118 58z m90 -39 l3 -61 -43 -5 c-24 -3 -57 -9 -74 -12 -20 -4 -34 -2 -41
7 -9 10 5 27 60 75 40 34 77 60 82 59 6 -1 11 -30 13 -63z m-131 -102 c28 -8
39 -7 47 3 6 7 26 16 44 20 30 5 32 4 22 -14 -13 -24 -44 -34 -98 -31 -51 2
-152 -25 -152 -40 0 -7 10 -9 28 -4 15 4 67 10 117 15 83 7 91 10 117 39 l29
32 32 -18 c18 -11 42 -38 55 -64 30 -62 22 -118 -24 -168 l-33 -36 -1 46 c0
25 -6 53 -12 61 -16 20 -118 89 -118 80 0 -4 25 -30 55 -58 44 -41 55 -57 55
-83 0 -26 -4 -31 -24 -31 -32 0 -86 20 -115 42 -33 25 -40 14 -11 -17 22 -24
58 -39 110 -48 14 -2 4 -5 -21 -6 -34 -1 -56 5 -83 24 -21 14 -34 20 -30 13 4
-7 -2 -4 -15 6 -12 11 -28 43 -37 72 -17 59 -33 70 -72 50 -44 -23 -72 -60
-81 -107 -6 -28 -9 -35 -10 -18 -2 38 29 119 49 132 13 7 16 16 10 27 -6 11 4
28 34 62 45 48 76 63 89 41 4 -7 24 -17 44 -22z m-78 -190 c12 -28 38 -64 57
-80 19 -17 34 -36 34 -42 0 -8 4 -8 15 1 32 27 13 -9 -20 -39 -29 -25 -44 -31
-83 -31 -56 0 -104 26 -127 69 -17 35 -19 45 -5 36 6 -3 10 5 10 19 0 35 15
71 41 95 35 33 53 26 78 -28z"/>
<path d="M281 124 c19 -23 78 -28 116 -10 45 21 39 29 -11 14 -27 -9 -48 -9
-77 -1 -32 8 -37 8 -28 -3z"/>
</g>
</svg>
