<?xml version="1.0" standalone="no"?>
<!DOCTYPE svg PUBLIC "-//W3C//DTD SVG 20010904//EN"
 "http://www.w3.org/TR/2001/REC-SVG-20010904/DTD/svg10.dtd">
<svg version="1.0" xmlns="http://www.w3.org/2000/svg"
 width="72.000000pt" height="72.000000pt" viewBox="0 0 72.000000 72.000000"
 preserveAspectRatio="xMidYMid meet">
<metadata>
Created by potrace 1.10, written by Peter Selinger 2001-2011
</metadata>
<g transform="translate(0.000000,72.000000) scale(0.100000,-0.100000)"
fill="#000000" stroke="none">
<path d="M275 655 c-5 -2 -67 -7 -137 -10 l-128 -7 0 -115 c0 -132 8 -156 76
-219 l44 -42 0 -86 c0 -47 -3 -86 -6 -86 -3 0 -26 16 -52 36 l-47 36 -5 101
-5 102 -5 -104 -5 -104 73 -55 c40 -30 74 -53 76 -51 2 2 0 49 -5 104 -11 139
-11 235 1 235 6 0 10 -24 10 -52 1 -45 27 -136 29 -101 1 6 25 23 54 37 43 21
70 26 159 30 81 3 117 8 147 23 l40 20 10 -41 c7 -34 9 -22 10 71 1 98 -1 112
-16 116 -15 3 -14 6 7 15 21 9 22 11 5 11 -11 0 -110 -10 -220 -24 -110 -14
-201 -25 -202 -25 -2 0 -3 -13 -3 -30 0 -43 -18 -37 -23 8 l-4 37 -1 -42 c-1
-23 -6 -44 -11 -47 -5 -3 -12 -22 -15 -41 -4 -19 -13 -35 -20 -35 -16 0 -49
37 -64 73 -16 38 -16 207 0 207 27 0 97 -33 100 -47 2 -10 17 -17 41 -19 24
-2 35 1 31 7 -4 7 2 7 15 -1 16 -8 26 -8 35 -1 8 6 21 9 30 5 9 -3 16 -1 16 5
0 9 5 9 21 1 12 -7 25 -8 32 -3 7 5 34 8 60 7 30 -2 45 1 41 7 -3 6 4 7 22 3
20 -5 25 -4 19 6 -6 9 -3 10 14 0 15 -7 26 -8 34 -2 16 14 79 18 96 8 9 -6 12
-5 7 2 -3 6 -2 13 4 17 5 3 10 10 10 14 0 12 -76 32 -96 25 -16 -5 -17 -4 -4
5 12 9 6 10 -25 6 -22 -2 -68 -7 -102 -10 -34 -3 -93 -12 -130 -20 -88 -19
-210 -19 -243 0 l-25 14 35 2 c19 0 105 7 190 14 103 8 132 12 85 13 -38 0
-74 -1 -80 -3z m315 -51 c-28 -7 -424 -44 -428 -40 -5 6 57 15 208 30 117 12
254 18 220 10z m0 -183 l0 -59 -42 -18 c-31 -13 -73 -18 -148 -19 -108 -2
-141 -10 -192 -47 l-30 -21 3 81 c2 44 7 83 10 87 6 6 325 52 377 54 20 1 22
-3 22 -58z"/>
<path d="M670 586 c0 -8 8 -17 18 -19 16 -4 16 -5 0 -6 -11 -1 -15 -7 -12 -15
4 -10 -2 -16 -18 -18 -23 -3 -23 -3 -26 -175 -2 -168 -3 -173 -23 -173 -13 0
-19 5 -16 13 4 10 -50 4 -208 -22 -189 -31 -214 -38 -219 -55 -3 -11 -4 -21
-3 -22 1 -1 52 7 112 17 61 10 114 19 118 19 5 0 5 5 2 10 -4 6 6 10 22 11 25
0 26 1 8 9 -13 5 -14 9 -5 9 20 0 59 -17 41 -18 -8 -1 -12 -3 -10 -6 3 -2 45
2 93 10 79 12 91 12 113 -2 13 -9 26 -13 30 -9 3 3 2 73 -3 155 -7 121 -6 151
4 158 17 10 25 112 10 130 -14 17 -28 17 -28 -1z"/>
<path d="M540 539 c-30 -4 -84 -12 -120 -17 -38 -6 -52 -10 -33 -11 36 -1 160
16 208 29 38 10 16 10 -55 -1z"/>
<path d="M410 125 c0 -18 24 -30 40 -20 7 4 5 11 -4 21 -19 18 -36 18 -36 -1z"/>
</g>
</svg>
