<?xml version="1.0" standalone="no"?>
<!DOCTYPE svg PUBLIC "-//W3C//DTD SVG 20010904//EN"
 "http://www.w3.org/TR/2001/REC-SVG-20010904/DTD/svg10.dtd">
<svg version="1.0" xmlns="http://www.w3.org/2000/svg"
 width="72.000000pt" height="72.000000pt" viewBox="0 0 72.000000 72.000000"
 preserveAspectRatio="xMidYMid meet">
<metadata>
Created by potrace 1.10, written by Peter Selinger 2001-2011
</metadata>
<g transform="translate(0.000000,72.000000) scale(0.100000,-0.100000)"
fill="#000000" stroke="none">
<path d="M20 698 c0 -70 52 -132 120 -143 l40 -7 0 -84 c0 -68 3 -84 15 -84
12 0 15 14 15 63 0 76 8 107 27 107 9 0 12 -6 9 -17 -3 -10 -8 -57 -11 -104
-5 -74 -4 -86 9 -86 14 0 16 17 17 106 0 63 4 98 8 86 8 -20 8 -20 13 0 3 11
5 -32 5 -95 l-1 -115 -6 95 -6 95 -2 -97 c-2 -81 1 -98 13 -98 12 0 15 20 15
118 0 69 4 111 9 103 7 -11 9 -11 13 0 11 29 13 0 9 -121 -2 -78 -6 -118 -11
-105 -8 19 -9 19 -9 -2 -1 -17 5 -23 19 -23 19 0 20 7 20 130 0 109 2 130 15
130 11 0 15 -11 14 -42 -1 -40 -2 -41 -9 -13 -5 19 -8 -20 -9 -102 -1 -112 1
-133 14 -133 13 0 15 24 17 148 l2 147 6 -170 6 -170 2 168 c2 137 5 167 16
167 8 0 17 -8 19 -17 4 -17 5 -17 6 0 0 9 5 17 9 17 4 0 7 -28 5 -62 -10 -220
-9 -308 4 -308 10 0 13 43 16 188 l2 187 3 -202 c2 -173 4 -203 17 -203 13 0
15 29 15 200 0 218 2 224 55 178 32 -29 44 -79 45 -188 0 -112 -8 -154 -34
-182 -11 -12 -20 -25 -19 -29 1 -3 -10 -4 -25 -2 -23 3 -24 2 -7 -6 19 -9 19
-10 -2 -10 -13 -1 -23 4 -23 9 0 6 -50 10 -130 10 -80 0 -130 -4 -130 -10 0
-6 -42 -10 -105 -10 l-105 0 0 -50 0 -50 328 0 328 0 0 50 -1 50 -59 0 -59 0
26 20 c37 29 47 77 46 215 0 135 -11 179 -52 209 -26 19 -45 21 -254 26 l-225
5 -29 33 c-18 20 -29 43 -29 62 0 23 -4 30 -20 30 -11 0 -20 -6 -20 -12z m182
-205 c-5 -101 -9 -111 -11 -25 0 45 2 82 7 82 4 0 6 -26 4 -57z m305 -230 c-1
-54 -3 -10 -3 97 0 107 2 151 3 98 2 -54 2 -142 0 -195z m166 -183 c4 -4 1
-12 -7 -19 -10 -9 -93 -12 -300 -12 -157 0 -290 2 -296 6 -5 3 -10 13 -10 20
0 23 589 27 613 5z m-205 -57 c-53 -2 -143 -2 -200 0 -57 1 -13 3 97 3 110 0
156 -2 103 -3z"/>
<path d="M424 380 c0 -91 2 -128 3 -82 2 45 2 119 0 165 -1 45 -3 8 -3 -83z"/>
</g>
</svg>
