<?xml version="1.0" standalone="no"?>
<!DOCTYPE svg PUBLIC "-//W3C//DTD SVG 20010904//EN"
 "http://www.w3.org/TR/2001/REC-SVG-20010904/DTD/svg10.dtd">
<svg version="1.0" xmlns="http://www.w3.org/2000/svg"
 width="64.000000pt" height="64.000000pt" viewBox="0 0 64.000000 64.000000"
 preserveAspectRatio="xMidYMid meet">
<metadata>
Created by potrace 1.10, written by Peter Selinger 2001-2011
</metadata>
<g transform="translate(0.000000,64.000000) scale(0.100000,-0.100000)"
fill="#000000" stroke="none">
<path d="M15 620 c-7 -11 25 -50 42 -50 7 0 13 7 13 16 0 10 -6 14 -15 10 -8
-3 -14 -2 -14 2 5 29 -13 44 -26 22z"/>
<path d="M93 568 c4 -12 0 -18 -16 -21 -19 -3 -20 -5 -5 -11 16 -7 156 -147
267 -265 45 -49 52 -53 68 -40 10 7 15 9 11 5 -5 -5 15 -33 42 -62 52 -55 59
-74 37 -93 -11 -9 -17 -3 -27 29 -7 22 -26 54 -42 72 -29 32 -29 32 -10 3 32
-50 45 -102 33 -135 -5 -16 -7 -31 -3 -33 4 -1 45 37 92 85 47 48 83 88 80 89
-11 2 -77 -2 -100 -7 -15 -3 -34 2 -45 11 -20 16 -19 16 2 6 39 -19 39 -12 1
12 -21 12 -107 89 -192 170 -85 81 -158 147 -163 147 -4 0 1 -7 11 -15 11 -8
15 -15 9 -15 -14 0 -26 18 -30 45 -2 11 -9 24 -15 30 -8 7 -9 5 -5 -7z m102
-108 c16 -16 25 -30 19 -30 -12 1 -70 60 -58 60 6 0 23 -13 39 -30z m100 -100
c40 -41 52 -57 37 -53 -12 3 -20 9 -17 13 3 4 -18 28 -45 54 -27 25 -46 46
-42 46 4 0 34 -27 67 -60z m267 -205 c-35 -29 -38 -30 -46 -9 -9 24 2 34 40
34 l36 0 -30 -25z"/>
</g>
</svg>
