<?xml version="1.0" standalone="no"?>
<!DOCTYPE svg PUBLIC "-//W3C//DTD SVG 20010904//EN"
 "http://www.w3.org/TR/2001/REC-SVG-20010904/DTD/svg10.dtd">
<svg version="1.0" xmlns="http://www.w3.org/2000/svg"
 width="72.000000pt" height="72.000000pt" viewBox="0 0 72.000000 72.000000"
 preserveAspectRatio="xMidYMid meet">
<metadata>
Created by potrace 1.10, written by Peter Selinger 2001-2011
</metadata>
<g transform="translate(0.000000,72.000000) scale(0.100000,-0.100000)"
fill="#000000" stroke="none">
<path d="M611 638 c1 -45 3 -49 9 -23 l8 30 1 -35 c1 -36 -54 -449 -65 -483
-5 -17 -7 -16 -20 8 -8 15 -12 31 -9 35 3 5 1 11 -4 14 -6 4 -8 -9 -5 -31 4
-36 3 -37 -10 -14 -11 20 -14 21 -19 7 -5 -11 -3 -15 5 -10 7 4 8 3 4 -4 -11
-18 -36 -14 -37 6 -1 11 -4 8 -9 -8 -12 -39 -17 -11 -35 165 -29 298 -37 355
-52 355 -7 0 -13 7 -13 15 0 18 -28 19 -67 4 -15 -7 -44 -11 -63 -10 -43 2
-209 -20 -215 -28 -6 -11 77 -575 86 -585 6 -6 47 -3 111 8 57 10 130 19 162
21 35 1 61 6 64 13 5 15 92 16 92 2 0 -14 39 -12 75 4 29 12 30 13 51 162 12
82 30 197 39 256 17 111 12 148 -20 148 -7 0 -15 4 -17 9 -1 4 -13 12 -25 15
-22 7 -23 5 -22 -46z m-251 -23 c7 -13 10 -35 6 -49 -3 -13 -2 -27 4 -31 5 -3
7 -11 4 -18 -2 -7 7 -90 21 -186 26 -180 31 -254 15 -216 -8 19 -9 19 -9 1 -1
-18 -2 -18 -19 -3 -10 10 -21 15 -24 12 -3 -3 -4 10 -1 29 2 19 -2 38 -8 42
-8 4 -9 0 -4 -15 3 -11 2 -21 -3 -21 -17 0 -21 13 -11 32 8 15 7 22 -7 32 -9
7 -14 19 -11 27 4 10 6 9 6 -3 1 -10 6 -18 11 -18 13 0 13 27 0 35 -5 3 -10
23 -10 43 0 54 -31 212 -41 212 -5 0 -9 10 -8 23 0 17 4 14 17 -16 17 -39 35
-44 39 -11 3 18 2 18 -6 -1 -8 -17 -10 -18 -10 -2 -1 9 -6 17 -13 17 -6 0 -9
3 -6 6 4 3 2 19 -2 35 -5 16 -5 29 0 29 4 0 11 11 14 24 7 30 38 25 56 -9z
m330 14 c9 -15 7 -42 -6 -107 -9 -48 -20 -91 -24 -96 -15 -15 -22 36 -16 103
12 123 22 145 46 100z m-523 -31 c-3 -11 2 -22 14 -28 11 -6 19 -21 19 -35 0
-31 -17 -33 -23 -2 -2 12 -2 9 0 -8 2 -16 4 -41 4 -55 1 -14 5 -30 10 -37 6
-6 7 -24 4 -40 -3 -15 -2 -21 2 -13 9 20 43 -125 36 -153 -3 -12 -6 -33 -8
-47 -2 -19 -1 -20 2 -2 2 12 9 22 15 22 11 0 1 -95 -13 -120 -5 -8 -9 -12 -9
-8 0 4 -18 131 -40 282 -22 151 -40 278 -40 282 0 3 7 1 16 -7 8 -7 13 -21 11
-31z m77 33 c5 -7 37 -251 59 -438 2 -12 6 -25 10 -29 12 -12 8 -49 -7 -70
-24 -31 -34 -7 -40 96 -3 62 -16 133 -36 203 -30 104 -31 110 -14 128 9 10 12
19 7 19 -17 0 -26 52 -11 62 9 7 8 8 -4 4 -13 -4 -18 0 -18 14 0 15 7 20 24
20 14 0 27 -4 30 -9z m-131 -37 c14 -5 13 -8 -1 -25 -21 -24 -32 -24 -32 -1 0
28 9 36 33 26z m-22 -55 c11 -5 17 -14 14 -20 -4 -5 -1 -9 4 -9 6 0 11 10 11
23 0 18 2 19 10 7 14 -22 12 -28 -11 -35 -13 -5 -17 -10 -11 -14 12 -7 8 -49
-4 -60 -4 -3 -4 2 -1 12 4 9 2 17 -3 17 -5 0 -10 -10 -12 -22 -2 -12 -9 -23
-16 -24 -7 -1 -8 0 -2 3 5 2 10 13 10 23 0 11 8 24 18 29 10 6 12 11 4 11 -8
0 -11 9 -8 25 3 14 0 25 -5 25 -5 0 -10 -4 -10 -10 -1 -5 -3 -14 -4 -20 -1 -5
-3 -15 -4 -21 0 -5 -6 -7 -12 -3 -8 4 -7 9 2 15 10 6 11 9 2 9 -7 0 -13 5 -13
11 0 5 5 7 11 3 8 -4 9 0 4 15 -7 24 -2 26 26 10z m59 -89 c0 -5 -6 -10 -12
-10 -9 0 -8 -4 2 -10 10 -6 11 -10 3 -10 -7 0 -13 -5 -13 -11 0 -5 4 -8 8 -5
5 3 9 -2 9 -10 0 -11 -7 -14 -26 -10 -14 3 -20 3 -13 0 19 -9 14 -42 -9 -54
-11 -7 -23 -9 -26 -7 -2 3 5 8 16 12 12 3 21 14 21 23 0 15 -2 15 -10 2 -8
-12 -9 -10 -7 8 2 13 9 27 16 31 11 7 17 24 20 54 1 11 21 8 21 -3z m8 -110
c-1 -19 -8 -30 -18 -30 -13 0 -13 -1 0 -10 10 -6 11 -10 3 -10 -7 0 -13 -7
-13 -15 0 -8 5 -15 12 -15 6 0 9 -3 5 -6 -3 -3 -15 -3 -26 1 -19 6 -20 8 -6
22 14 14 14 17 -2 30 -10 8 -12 12 -5 8 6 -3 19 0 27 9 16 16 20 31 7 22 -5
-3 -9 1 -9 9 0 8 6 15 14 15 9 0 13 -10 11 -30z m22 -99 c0 -5 -9 -13 -20 -16
-11 -3 -20 -11 -20 -16 0 -6 5 -7 11 -3 7 4 10 1 7 -6 -9 -28 -28 -22 -26 8 1
20 6 28 15 25 7 -3 13 0 13 6 0 6 5 11 10 11 6 0 10 -4 10 -9z m-40 -81 c-6
-4 -12 -17 -15 -30 -5 -28 -11 -34 -20 -21 -3 6 0 11 7 11 9 0 9 3 -2 10 -13
9 -13 11 -1 19 12 8 13 12 1 26 -12 15 -11 15 14 4 15 -7 22 -15 16 -19z m41
-35 c5 4 6 0 3 -8 -3 -8 -16 -14 -30 -13 -29 1 -28 0 -7 22 11 11 18 13 21 5
2 -6 8 -9 13 -6z m26 -41 c-10 -11 -87 -22 -87 -13 0 7 16 10 79 17 8 1 12 -1
8 -4z"/>
<path d="M345 500 c6 -88 49 -370 52 -345 2 11 -10 108 -27 215 -16 107 -27
166 -25 130z"/>
<path d="M449 653 c-4 -57 4 -241 11 -252 6 -10 10 31 10 116 0 77 -4 134 -10
138 -5 3 -10 3 -11 -2z"/>
<path d="M406 623 c3 -16 14 -118 24 -228 l18 -200 -5 165 c-5 147 -9 241 -12
278 -1 6 -8 12 -16 12 -10 0 -13 -8 -9 -27z"/>
<path d="M483 575 c0 -44 2 -61 4 -37 2 23 2 59 0 80 -2 20 -4 1 -4 -43z"/>
<path d="M501 553 c2 -108 6 -100 11 20 2 42 0 77 -4 77 -5 0 -7 -44 -7 -97z"/>
<path d="M521 553 c-1 -48 25 -261 37 -293 5 -14 15 31 30 141 13 89 20 164
17 167 -3 3 -6 -8 -6 -24 l-1 -29 -9 30 c-6 22 -7 12 -4 -35 2 -49 1 -58 -5
-35 -7 22 -8 15 -4 -29 5 -68 -2 -70 -16 -5 -8 37 -8 34 -4 -25 3 -38 8 -77
11 -85 4 -14 3 -14 -5 -1 -6 8 -15 58 -21 110 -6 52 -13 109 -15 125 -2 22 -3
19 -5 -12z"/>
<path d="M490 348 c0 -68 3 -88 17 -99 14 -13 15 -12 6 6 -5 11 -11 54 -12 95
-4 103 -11 102 -11 -2z"/>
<path d="M511 395 c0 -42 32 -211 43 -222 10 -10 7 41 -4 73 -5 16 -16 65 -24
109 -10 59 -14 69 -15 40z"/>
<path d="M467 321 c-4 -18 -6 -57 -6 -85 l1 -51 10 55 c5 30 7 69 6 85 l-3 30
-8 -34z"/>
</g>
</svg>
