<?xml version="1.0" standalone="no"?>
<!DOCTYPE svg PUBLIC "-//W3C//DTD SVG 20010904//EN"
 "http://www.w3.org/TR/2001/REC-SVG-20010904/DTD/svg10.dtd">
<svg version="1.0" xmlns="http://www.w3.org/2000/svg"
 width="72.000000pt" height="72.000000pt" viewBox="0 0 72.000000 72.000000"
 preserveAspectRatio="xMidYMid meet">
<metadata>
Created by potrace 1.10, written by Peter Selinger 2001-2011
</metadata>
<g transform="translate(0.000000,72.000000) scale(0.100000,-0.100000)"
fill="#000000" stroke="none">
<path d="M100 680 c0 -5 -7 -10 -15 -10 -18 0 -19 -12 -3 -28 8 -8 9 -12 1
-12 -6 0 -14 6 -16 13 -4 8 -8 9 -14 1 -4 -6 -17 -14 -27 -18 -19 -6 -18 -7 2
-26 27 -25 26 -25 62 7 21 19 27 30 20 38 -8 9 -6 14 5 19 19 7 20 26 0 26 -8
0 -15 -4 -15 -10z"/>
<path d="M121 603 c3 -32 -1 -36 -18 -22 -10 7 45 -51 122 -129 l139 -142 -34
-35 -34 -35 114 -115 115 -115 93 93 92 92 -115 115 -115 114 -35 -34 -35 -34
-133 132 c-128 128 -160 151 -156 115z m25 -2 c-7 -11 49 -73 58 -64 4 4 4 -1
0 -11 -5 -14 -4 -17 4 -12 7 4 12 2 12 -4 0 -6 4 -8 10 -5 6 4 7 -1 3 -11 -4
-12 -3 -15 5 -10 7 4 12 2 12 -4 0 -6 4 -8 10 -5 6 4 7 -1 3 -11 -4 -12 -3
-15 5 -10 7 4 12 2 12 -4 0 -6 4 -8 10 -5 6 4 7 -1 3 -11 -4 -12 -3 -15 5 -10
7 4 12 2 12 -4 0 -6 5 -8 12 -4 7 5 9 2 5 -8 -3 -10 0 -15 11 -14 10 0 16 -6
16 -16 -1 -11 4 -14 14 -11 10 4 13 2 8 -5 -4 -7 -2 -12 4 -12 6 0 8 -5 4 -12
-5 -8 -1 -9 12 -4 18 7 18 6 1 -11 -17 -17 -23 -13 -146 114 -71 72 -126 135
-123 138 4 4 8 11 8 16 2 16 4 19 10 19 3 0 3 -4 0 -9z m403 -298 c-9 -10 -6
-15 12 -22 54 -20 75 -72 55 -131 l-8 -25 26 24 c14 14 26 22 26 20 0 -3 -26
-29 -57 -59 -32 -30 -47 -43 -34 -27 27 30 24 33 -13 16 -33 -15 -72 -4 -103
29 -15 15 -23 20 -18 12 4 -8 -9 1 -29 20 -34 32 -35 35 -16 42 26 10 36 34
20 53 -15 19 -31 20 -24 2 2 -7 -3 -21 -13 -29 -16 -14 -20 -15 -37 -2 -19 14
-19 14 4 39 13 14 29 25 35 25 6 0 22 11 35 25 13 14 20 25 15 25 -5 0 4 14
20 30 l29 30 43 -42 c32 -32 40 -45 32 -55z"/>
<path d="M487 349 c-4 -14 -11 -20 -21 -16 -20 8 -21 -7 -1 -23 31 -26 71 18
43 47 -14 13 -16 12 -21 -8z"/>
<path d="M490 280 c-8 -5 -10 -10 -5 -10 6 0 -1 -6 -15 -13 -15 -8 -24 -20
-22 -31 2 -12 -1 -15 -9 -11 -7 5 -10 3 -8 -4 3 -7 8 -12 12 -12 4 1 15 1 24
1 13 0 14 3 5 12 -9 9 -8 16 5 30 20 22 70 23 103 2 l25 -16 -24 21 c-13 12
-37 21 -55 22 -26 0 -28 2 -11 9 13 6 15 9 5 9 -8 0 -22 -4 -30 -9z"/>
<path d="M553 213 c-10 -30 -34 -52 -49 -46 -8 3 -14 0 -14 -6 0 -31 71 19 76
54 3 21 -5 19 -13 -2z"/>
<path d="M584 204 c7 -23 -8 -49 -22 -40 -6 3 -13 2 -17 -4 -3 -5 0 -10 7 -10
10 0 9 -3 -2 -10 -8 -5 -12 -12 -8 -15 3 -3 13 1 22 10 9 9 16 13 16 8 0 -4 5
-1 10 7 13 20 13 57 -1 66 -7 4 -9 0 -5 -12z"/>
</g>
</svg>
