<?xml version="1.0" standalone="no"?>
<!DOCTYPE svg PUBLIC "-//W3C//DTD SVG 20010904//EN"
 "http://www.w3.org/TR/2001/REC-SVG-20010904/DTD/svg10.dtd">
<svg version="1.0" xmlns="http://www.w3.org/2000/svg"
 width="72.000000pt" height="72.000000pt" viewBox="0 0 72.000000 72.000000"
 preserveAspectRatio="xMidYMid meet">
<metadata>
Created by potrace 1.10, written by Peter Selinger 2001-2011
</metadata>
<g transform="translate(0.000000,72.000000) scale(0.100000,-0.100000)"
fill="#000000" stroke="none">
<path d="M327 692 c-10 -10 -17 -31 -17 -46 0 -15 -4 -25 -10 -21 -9 5 -196
-38 -206 -48 -3 -3 -6 -28 -7 -57 l-2 -53 50 1 c28 0 56 -6 64 -12 8 -6 16 -9
19 -7 9 7 362 -341 362 -357 0 -11 -7 -7 -19 13 -29 47 -91 103 -91 82 0 -9
-5 -17 -11 -17 -5 0 -7 5 -3 11 7 11 -93 119 -110 119 -6 0 16 -27 49 -60 33
-33 55 -60 50 -60 -4 0 2 -11 14 -24 13 -14 29 -22 36 -20 16 7 56 -26 48 -39
-3 -6 -1 -7 5 -3 7 4 12 3 12 -2 0 -30 -35 -12 -106 53 -43 40 -83 70 -89 67
-5 -3 -7 -1 -2 3 4 5 -23 40 -61 79 -37 39 -82 88 -98 109 -25 31 -39 39 -73
42 -35 3 -41 1 -41 -16 0 -22 4 -23 29 -7 15 9 24 8 45 -5 14 -10 26 -22 26
-28 0 -5 74 -84 164 -174 149 -150 167 -165 198 -165 22 0 42 -7 53 -20 10
-11 23 -20 28 -20 6 0 0 11 -12 24 -16 17 -20 30 -15 50 6 24 -6 39 -121 156
-71 71 -132 127 -137 124 -5 -3 -7 0 -6 8 2 7 -3 12 -10 10 -8 -1 -11 1 -8 6
7 12 -73 88 -102 97 -21 6 -23 12 -19 46 5 48 6 49 56 60 39 9 43 7 69 -22 23
-25 32 -29 55 -24 57 15 75 98 31 146 -22 24 -66 24 -87 1z m63 -7 c10 -12 10
-19 2 -27 -9 -9 -9 -15 0 -25 8 -10 6 -18 -7 -33 -10 -11 -24 -20 -32 -20 -9
0 -7 6 7 20 24 24 25 33 5 50 -20 16 -32 5 -38 -35 -3 -26 -4 -25 -6 9 -2 60
40 96 69 61z m-204 -160 c-6 -36 -11 -45 -27 -45 -16 0 -19 7 -19 44 0 39 3
45 23 48 30 5 30 5 23 -47z m-58 3 c-4 -42 -20 -59 -26 -27 -3 17 14 69 23 69
4 0 5 -19 3 -42z"/>
<path d="M208 432 c-4 -14 24 -50 106 -135 62 -65 116 -117 121 -117 5 0 -17
26 -49 59 -39 39 -54 61 -46 66 7 5 36 -15 73 -51 l62 -59 -62 64 c-50 52 -64
62 -76 53 -11 -9 -19 -6 -38 14 -13 14 -24 31 -24 37 0 7 -14 30 -31 50 -27
33 -32 36 -36 19z"/>
</g>
</svg>
