<?xml version="1.0" standalone="no"?>
<!DOCTYPE svg PUBLIC "-//W3C//DTD SVG 20010904//EN"
 "http://www.w3.org/TR/2001/REC-SVG-20010904/DTD/svg10.dtd">
<svg version="1.0" xmlns="http://www.w3.org/2000/svg"
 width="72.000000pt" height="72.000000pt" viewBox="0 0 72.000000 72.000000"
 preserveAspectRatio="xMidYMid meet">
<metadata>
Created by potrace 1.10, written by Peter Selinger 2001-2011
</metadata>
<g transform="translate(0.000000,72.000000) scale(0.100000,-0.100000)"
fill="#000000" stroke="none">
<path d="M58 693 c-21 -8 -38 -19 -38 -23 0 -11 84 -18 91 -7 11 16 44 3 47
-20 2 -11 11 -23 21 -26 9 -2 25 -21 35 -41 9 -20 21 -36 26 -36 6 0 10 -7 10
-15 0 -8 4 -15 9 -15 12 0 101 -115 126 -163 11 -21 46 -65 78 -97 32 -34 57
-68 57 -80 0 -12 4 -19 9 -15 14 8 31 -28 31 -67 0 -73 70 -106 118 -55 43 46
23 93 -50 116 -32 10 -72 41 -54 41 4 0 -11 18 -32 41 -22 22 -48 59 -58 82
-11 23 -34 55 -52 71 -40 35 -128 148 -124 159 1 4 -5 10 -13 13 -8 4 -15 11
-15 16 0 5 -13 23 -30 40 -16 16 -30 25 -30 19 0 -5 5 -13 10 -16 6 -3 10 -12
10 -18 0 -7 -9 -1 -20 13 -12 16 -15 27 -8 31 16 10 1 41 -19 38 -10 -1 -33 2
-51 6 -24 6 -30 10 -20 16 23 15 -24 9 -64 -8z m286 -222 c20 -28 51 -63 68
-80 29 -28 34 -61 9 -61 -6 0 -8 7 -4 16 3 9 -6 28 -24 47 -51 55 -106 127
-96 127 5 0 26 -22 47 -49z m200 -271 c-6 -5 -39 34 -55 65 -5 11 6 2 25 -20
19 -22 33 -42 30 -45z m96 -66 c40 -16 60 -49 45 -73 -9 -16 -25 -13 -25 3 0
8 -16 27 -35 42 -19 14 -35 30 -35 35 0 12 3 12 50 -7z m-10 -59 c16 -19 3
-40 -16 -24 -15 13 -19 39 -5 39 5 0 14 -7 21 -15z"/>
</g>
</svg>
