<?xml version="1.0" standalone="no"?>
<!DOCTYPE svg PUBLIC "-//W3C//DTD SVG 20010904//EN"
 "http://www.w3.org/TR/2001/REC-SVG-20010904/DTD/svg10.dtd">
<svg version="1.0" xmlns="http://www.w3.org/2000/svg"
 width="72.000000pt" height="72.000000pt" viewBox="0 0 72.000000 72.000000"
 preserveAspectRatio="xMidYMid meet">
<metadata>
Created by potrace 1.10, written by Peter Selinger 2001-2011
</metadata>
<g transform="translate(0.000000,72.000000) scale(0.100000,-0.100000)"
fill="#000000" stroke="none">
<path d="M25 690 c-3 -5 -3 -16 2 -22 4 -7 8 -17 8 -23 0 -10 8 -15 26 -15 5
0 8 4 4 9 -3 5 -1 12 4 15 15 9 24 -13 12 -28 -8 -9 0 -22 29 -51 22 -22 40
-45 40 -51 0 -7 18 -30 40 -52 22 -21 40 -44 40 -49 0 -15 29 -37 37 -29 4 3
-2 13 -13 22 -19 15 -19 16 0 9 11 -3 23 0 27 6 8 14 39 5 39 -11 0 -7 -8 -9
-20 -5 -11 3 -20 2 -20 -3 0 -14 46 -53 53 -45 13 13 7 25 -9 19 -14 -6 -15
-4 -4 9 10 12 15 13 20 4 4 -6 12 -9 18 -5 6 4 8 -3 4 -16 -5 -20 -3 -21 10
-11 12 10 15 10 15 -2 0 -8 -5 -11 -11 -8 -6 4 -7 2 -3 -3 5 -5 13 -9 18 -9
12 0 13 -19 1 -23 -5 -1 -17 9 -26 23 -17 26 -36 26 -36 -1 0 -8 3 -13 8 -10
4 2 16 -2 27 -10 10 -8 15 -14 10 -14 -5 0 5 -11 23 -23 17 -13 29 -27 25 -30
-3 -4 -1 -7 5 -7 7 0 11 -5 10 -12 -2 -7 3 -12 10 -13 7 0 22 -11 33 -25 12
-14 18 -20 15 -13 -3 6 5 20 19 30 l25 18 -93 93 c-52 51 -100 104 -107 117
-9 17 -16 22 -21 13 -5 -7 -52 32 -138 115 -71 70 -134 127 -140 127 -5 0 -13
-4 -16 -10z m158 -147 c-5 -12 -2 -15 10 -10 11 4 17 1 17 -7 0 -8 5 -16 12
-18 6 -2 8 -10 4 -16 -10 -17 -26 -15 -20 3 4 8 1 15 -6 15 -17 0 -42 28 -35
40 10 17 25 11 18 -7z m241 -202 c20 -21 24 -31 15 -36 -7 -5 -10 -4 -6 2 3 5
0 10 -8 10 -11 0 -12 -4 -4 -13 6 -7 19 -11 29 -9 10 2 27 -6 38 -18 18 -19
19 -25 8 -46 -8 -14 -16 -19 -20 -13 -3 6 -1 14 4 17 15 9 -17 45 -34 39 -7
-3 -21 5 -31 16 -14 16 -16 23 -7 32 9 9 8 16 -5 30 -27 30 -9 20 21 -11z"/>
<path d="M520 199 c-15 -26 -7 -34 19 -19 20 10 20 9 9 -15 -15 -33 -4 -43 22
-20 11 10 20 13 20 8 0 -6 -7 -16 -15 -23 -13 -11 -13 -17 6 -47 11 -18 18
-40 15 -48 -9 -24 3 -18 55 32 43 41 66 75 39 58 -13 -8 -46 10 -102 56 -26
22 -49 39 -52 39 -3 0 -10 -9 -16 -21z"/>
</g>
</svg>
