<?xml version="1.0" standalone="no"?>
<!DOCTYPE svg PUBLIC "-//W3C//DTD SVG 20010904//EN"
 "http://www.w3.org/TR/2001/REC-SVG-20010904/DTD/svg10.dtd">
<svg version="1.0" xmlns="http://www.w3.org/2000/svg"
 width="72.000000pt" height="72.000000pt" viewBox="0 0 72.000000 72.000000"
 preserveAspectRatio="xMidYMid meet">
<metadata>
Created by potrace 1.10, written by Peter Selinger 2001-2011
</metadata>
<g transform="translate(0.000000,72.000000) scale(0.100000,-0.100000)"
fill="#000000" stroke="none">
<path d="M340 589 c-185 -60 -338 -125 -326 -137 2 -2 30 11 61 29 46 26 59
29 66 18 7 -12 9 -12 9 1 0 13 1 13 10 0 6 -9 10 -10 10 -3 0 6 26 21 58 33
128 48 286 100 295 97 5 -1 -48 -23 -118 -47 -135 -47 -158 -69 -27 -27 42 14
86 29 96 33 14 5 17 4 11 -5 -8 -14 -18 -18 -168 -76 -54 -21 -96 -39 -94 -41
2 -3 64 18 137 46 72 27 135 50 139 50 21 -1 -180 -94 -316 -147 -6 -2 -14 9
-18 26 -6 27 -8 29 -21 16 -9 -8 -27 -17 -42 -20 -76 -16 -74 -12 -76 -105
l-2 -85 109 -94 c79 -69 116 -94 136 -94 16 0 107 47 235 123 182 108 207 126
202 144 -3 12 -6 40 -6 63 l0 43 -107 53 -107 54 52 17 c28 10 54 22 58 27 8
14 -16 79 -29 78 -7 0 -109 -32 -227 -70z m170 -85 c0 -3 -29 -18 -65 -36 -36
-17 -64 -32 -62 -35 2 -2 34 11 71 28 37 17 69 29 72 27 9 -9 -215 -100 -227
-92 -8 5 -10 3 -4 -6 6 -10 4 -12 -9 -7 -9 4 -15 3 -12 -2 3 -5 -15 -16 -40
-26 -25 -9 -43 -19 -41 -21 2 -3 26 4 53 14 27 11 54 17 61 15 6 -2 60 19 118
47 58 29 109 50 112 47 3 -4 -11 -14 -31 -23 -25 -12 -32 -20 -24 -26 19 -12
30 -10 22 5 -6 10 -4 10 7 0 18 -18 34 -16 19 2 -7 8 -8 15 -2 15 5 0 15 -6
21 -14 9 -11 8 -15 -4 -20 -19 -7 -11 -26 11 -26 9 0 12 5 8 12 -4 6 -3 8 4 5
14 -9 43 3 36 14 -3 5 -13 9 -23 9 -23 0 -46 26 -32 35 6 3 28 -6 48 -20 21
-14 43 -25 50 -25 32 0 6 -23 -68 -60 -44 -23 -116 -61 -159 -84 -43 -24 -81
-42 -84 -39 -2 3 -15 -2 -28 -11 -38 -27 -63 -19 -145 47 -71 58 -127 112 -95
93 7 -4 12 -1 12 8 0 23 36 20 71 -5 36 -25 38 -14 3 22 -23 24 -29 26 -60 16
-40 -12 -57 -1 -30 19 28 20 53 17 83 -10 l25 -24 107 45 c58 25 114 48 123
50 10 3 16 9 13 13 -6 10 66 39 82 33 7 -3 13 -7 13 -9z m139 -73 c19 -3 36
-12 39 -19 6 -19 -18 -14 -68 14 -25 14 -36 22 -25 18 11 -4 35 -9 54 -13z m5
-81 c-16 -16 -298 -170 -311 -170 -7 0 -10 -6 -7 -14 6 -16 -42 -46 -72 -46
-16 0 -43 26 -44 43 0 4 18 7 41 7 22 0 50 6 62 13 34 19 331 175 337 176 2 1
-1 -4 -6 -9z m-526 -103 c45 -32 111 -117 90 -117 -23 -1 24 -30 48 -30 13 0
110 50 216 111 221 128 222 128 188 99 -53 -47 -373 -230 -401 -230 -20 0 -49
17 -99 60 -38 34 -70 64 -70 67 0 6 22 -11 72 -56 15 -13 30 -22 33 -19 3 3
-33 38 -80 78 -67 57 -85 78 -85 99 l0 26 24 -31 c14 -16 42 -43 64 -57z"/>
<path d="M450 401 c0 -12 35 -33 42 -25 3 3 8 -1 10 -8 4 -9 -4 -13 -26 -13
-17 0 -32 5 -32 13 -1 6 -2 16 -3 22 -2 15 -271 -107 -271 -123 0 -5 16 0 35
12 19 11 42 18 50 15 8 -4 17 1 21 10 3 9 10 13 15 10 5 -3 7 -9 5 -13 -3 -4
1 -8 9 -8 10 0 11 5 4 19 -11 20 1 24 18 7 6 -6 9 -17 7 -24 -7 -18 12 -28 36
-20 28 9 25 23 -6 31 -20 5 -23 9 -12 16 10 8 9 9 -4 4 -12 -3 -15 -1 -11 9 5
15 11 14 54 -17 14 -11 32 -16 42 -12 27 10 20 27 -9 20 -26 -7 -54 7 -54 26
0 6 8 4 17 -3 14 -12 16 -12 8 0 -6 11 -4 13 8 8 11 -4 17 -1 17 8 0 8 4 15 9
15 6 0 8 -10 6 -21 -3 -12 -2 -19 2 -16 3 4 12 -1 19 -11 13 -16 13 -16 14 1
0 13 5 17 18 13 26 -8 49 9 34 27 -7 7 -10 16 -7 18 2 3 -4 5 -13 5 -9 1 -25
4 -34 9 -11 4 -18 3 -18 -4z"/>
<path d="M275 270 c-3 -4 2 -13 10 -20 10 -8 15 -9 15 -2 0 7 8 9 18 5 14 -5
15 -3 5 7 -15 16 -41 22 -48 10z"/>
</g>
</svg>
