<?xml version="1.0" standalone="no"?>
<!DOCTYPE svg PUBLIC "-//W3C//DTD SVG 20010904//EN"
 "http://www.w3.org/TR/2001/REC-SVG-20010904/DTD/svg10.dtd">
<svg version="1.0" xmlns="http://www.w3.org/2000/svg"
 width="72.000000pt" height="72.000000pt" viewBox="0 0 72.000000 72.000000"
 preserveAspectRatio="xMidYMid meet">
<metadata>
Created by potrace 1.10, written by Peter Selinger 2001-2011
</metadata>
<g transform="translate(0.000000,72.000000) scale(0.100000,-0.100000)"
fill="#000000" stroke="none">
<path d="M523 653 c23 -3 37 -9 37 -18 0 -33 -99 -57 -234 -56 -97 0 -164 -9
-219 -31 -15 -6 -26 -13 -23 -15 2 -3 15 1 28 8 13 7 89 16 183 20 88 5 181
11 208 15 42 6 47 5 47 -12 -1 -43 5 -41 -265 -90 -44 -8 -87 -17 -95 -19 -8
-2 -42 -7 -76 -11 l-60 -6 -12 78 c-12 76 -17 92 -27 82 -4 -4 25 -188 31
-197 6 -7 173 22 169 30 -3 4 9 5 26 2 23 -3 29 -1 24 8 -6 9 1 10 29 5 22 -4
36 -3 36 3 0 6 12 8 30 5 19 -4 30 -2 30 5 0 7 9 9 25 5 14 -3 25 -2 25 2 0 5
15 10 33 10 104 4 125 9 116 26 -5 9 -9 41 -9 72 0 79 -5 86 -54 84 l-41 -1
38 -4z"/>
<path d="M624 461 c-5 -5 -49 -16 -99 -26 -49 -9 -92 -20 -95 -24 -5 -7 -152
-41 -243 -57 -34 -6 -36 -8 -20 -19 10 -7 22 -10 28 -5 5 4 18 6 28 5 9 -2 17
1 17 7 0 6 9 8 20 5 11 -3 20 -1 20 5 0 5 12 8 28 7 15 -2 32 -1 37 3 6 3 18
4 28 3 9 -2 17 0 17 5 0 12 39 20 46 9 3 -5 11 -9 17 -9 7 0 6 4 -3 11 -11 7
-4 8 25 5 22 -3 31 -3 20 0 -45 13 -31 21 52 32 84 11 133 8 133 -8 0 -10
-128 -44 -172 -44 -20 -1 -34 -4 -32 -8 3 -4 -12 -12 -33 -17 -57 -15 -235
-53 -260 -56 -13 -1 -26 -5 -30 -8 -12 -12 -33 -7 -33 8 0 8 -13 36 -30 62
-16 26 -30 40 -30 31 0 -9 -2 -23 -5 -30 -3 -8 6 -27 20 -42 14 -15 25 -36 25
-46 0 -10 5 -22 10 -25 6 -3 10 -25 10 -49 0 -23 3 -46 7 -50 4 -4 6 -25 4
-48 -2 -27 1 -38 8 -34 6 4 11 40 11 86 0 95 3 98 129 125 62 14 79 21 65 27
-12 5 -4 6 21 3 31 -4 36 -3 25 5 -11 9 -7 10 20 5 27 -5 32 -4 20 5 -12 9 -7
10 20 5 27 -5 32 -4 20 5 -12 9 -7 10 20 5 26 -5 31 -4 20 4 -17 12 -6 14 26
5 16 -4 20 -11 16 -30 -2 -14 0 -24 7 -24 19 0 13 58 -6 62 -10 2 7 4 37 5 30
0 58 -4 61 -9 3 -5 0 -26 -7 -46 -16 -45 -18 -82 -4 -82 6 0 10 10 10 23 1 12
7 33 15 47 8 14 14 40 15 58 0 19 5 32 13 32 9 0 12 11 9 34 -3 26 -11 37 -37
49 -18 8 -36 12 -41 8z"/>
<path d="M66 291 c-4 -6 -2 -19 4 -30 5 -11 10 -38 10 -60 0 -24 5 -41 11 -41
8 0 10 17 5 56 -7 63 -19 93 -30 75z"/>
</g>
</svg>
