<?xml version="1.0" standalone="no"?>
<!DOCTYPE svg PUBLIC "-//W3C//DTD SVG 20010904//EN"
 "http://www.w3.org/TR/2001/REC-SVG-20010904/DTD/svg10.dtd">
<svg version="1.0" xmlns="http://www.w3.org/2000/svg"
 width="72.000000pt" height="72.000000pt" viewBox="0 0 72.000000 72.000000"
 preserveAspectRatio="xMidYMid meet">
<metadata>
Created by potrace 1.10, written by Peter Selinger 2001-2011
</metadata>
<g transform="translate(0.000000,72.000000) scale(0.100000,-0.100000)"
fill="#000000" stroke="none">
<path d="M23 684 c-3 -9 -1 -25 5 -35 6 -10 15 -36 18 -58 4 -23 13 -46 20
-52 8 -6 14 -30 14 -53 0 -35 4 -43 31 -59 33 -18 33 -19 14 -98 -4 -21 3 -29
62 -64 64 -37 73 -40 149 -40 80 0 80 0 128 -42 26 -23 60 -60 76 -82 34 -46
62 -66 106 -74 23 -4 33 -1 42 13 14 23 6 47 -45 128 l-33 53 14 52 c16 57 28
166 16 147 -5 -8 -10 -3 -14 13 -9 37 -55 88 -93 104 -26 10 -43 11 -73 3 -34
-9 -40 -15 -46 -46 -14 -73 31 -162 108 -214 41 -28 78 -79 78 -107 0 -4 11
-25 25 -45 14 -20 25 -42 25 -47 0 -19 -69 65 -85 102 -17 42 -96 111 -107 94
-4 -6 -2 -17 4 -25 9 -11 13 -11 19 0 6 9 9 7 9 -7 0 -11 7 -28 15 -38 13 -18
14 -17 18 5 4 20 4 19 6 -6 1 -34 52 -117 89 -146 13 -11 20 -20 15 -20 -19 0
-60 39 -104 99 -24 33 -48 59 -54 58 -5 -1 -9 7 -8 18 1 11 0 14 -3 7 -8 -18
-35 5 -27 24 3 8 0 14 -7 14 -6 0 -9 -4 -6 -9 7 -11 -117 -25 -146 -16 -37 12
-138 77 -138 89 1 20 36 91 53 104 9 7 19 27 22 44 5 23 9 27 16 17 5 -8 9 -9
9 -4 0 6 14 26 31 45 17 19 28 28 24 20 -4 -8 2 -5 12 8 14 18 21 20 31 10 9
-9 8 -16 -6 -32 -9 -11 -11 -16 -4 -12 7 4 12 2 12 -5 0 -8 4 -8 15 1 27 22
27 4 1 -27 -14 -17 -23 -33 -19 -37 3 -3 1 -6 -6 -6 -7 0 -10 -4 -6 -10 8 -13
72 61 72 85 0 21 -55 125 -65 125 -4 0 -16 -7 -27 -16 -13 -9 -30 -12 -48 -8
-27 6 -28 4 -22 -17 4 -17 3 -20 -3 -10 -11 15 -27 -2 -17 -19 3 -5 0 -8 -7
-5 -8 3 -23 -12 -36 -36 -13 -23 -19 -38 -13 -35 6 4 18 21 27 38 21 40 28 30
10 -14 -8 -19 -13 -44 -10 -54 3 -12 -3 -27 -16 -39 -20 -18 -21 -18 -48 2
-36 27 -39 55 -7 89 21 23 25 25 21 9 -5 -14 0 -12 18 10 14 17 23 36 21 43
-3 7 -1 11 4 8 4 -3 18 6 31 19 19 20 21 27 11 39 -23 27 -99 -2 -101 -38 0
-5 9 -1 20 9 18 16 20 16 20 2 0 -9 -8 -21 -19 -26 -10 -6 -24 -24 -31 -41
l-13 -31 -21 20 c-16 16 -18 23 -8 33 16 16 15 29 0 26 -8 -2 -14 9 -16 25 -2
15 -8 27 -13 27 -6 0 -7 9 -4 20 8 24 -3 27 -12 4z m257 -92 c0 -10 -11 -29
-25 -42 -13 -12 -22 -27 -19 -31 3 -5 -1 -6 -9 -3 -8 3 -19 -5 -25 -18 -12
-23 -12 -23 -6 2 3 14 13 35 20 48 8 12 12 28 8 34 -4 7 -3 8 5 4 6 -4 14 0
17 8 8 22 34 20 34 -2z m-122 -30 c-7 -8 -14 -10 -21 -3 -7 7 -6 15 3 26 10
12 15 13 21 3 4 -7 3 -18 -3 -26z m393 -75 c43 -36 62 -84 57 -139 -3 -27 -10
-54 -16 -60 -28 -28 -124 80 -138 156 -5 32 -3 42 11 53 27 19 56 16 86 -10z"/>
<path d="M50 677 c0 -19 35 -49 45 -40 4 5 5 -1 1 -12 -5 -14 1 -11 18 10 32
38 32 49 2 41 -14 -3 -28 -2 -31 4 -9 15 -35 12 -35 -3z"/>
<path d="M244 431 c4 -35 13 -52 46 -85 33 -34 42 -38 50 -26 5 8 8 21 5 28
-2 6 -1 12 3 12 13 0 34 41 38 74 4 37 -6 24 -37 -46 -23 -53 -34 -59 -42 -27
-3 12 -10 18 -15 15 -5 -3 -19 18 -31 47 l-21 52 4 -44z"/>
<path d="M367 345 c-19 -40 -20 -45 -9 -45 13 0 43 63 34 72 -4 4 -16 -8 -25
-27z"/>
<path d="M401 322 c-6 -11 -11 -25 -11 -31 0 -19 16 -12 29 12 11 21 11 21 6
-5 -6 -30 11 -39 22 -12 3 9 -3 24 -15 36 l-20 20 -11 -20z"/>
</g>
</svg>
