<?xml version="1.0" standalone="no"?>
<!DOCTYPE svg PUBLIC "-//W3C//DTD SVG 20010904//EN"
 "http://www.w3.org/TR/2001/REC-SVG-20010904/DTD/svg10.dtd">
<svg version="1.0" xmlns="http://www.w3.org/2000/svg"
 width="72.000000pt" height="72.000000pt" viewBox="0 0 72.000000 72.000000"
 preserveAspectRatio="xMidYMid meet">
<metadata>
Created by potrace 1.10, written by Peter Selinger 2001-2011
</metadata>
<g transform="translate(0.000000,72.000000) scale(0.100000,-0.100000)"
fill="#000000" stroke="none">
<path d="M355 660 c-9 -10 -18 -28 -20 -41 -3 -13 -15 -32 -27 -44 -21 -19
-22 -19 -7 0 20 26 31 45 26 45 -4 0 -98 -111 -151 -179 -18 -22 -19 -23 -2
-14 11 6 64 8 132 5 63 -3 114 -2 114 1 0 3 -12 38 -26 78 -21 57 -24 76 -15
95 11 26 51 33 51 10 0 -8 3 -21 6 -30 8 -22 -22 -21 -34 0 -7 12 -11 13 -17
4 -4 -6 -3 -16 1 -20 18 -17 145 -80 162 -80 9 0 -1 9 -23 20 l-40 20 34 -5
c18 -3 40 -5 48 -5 9 0 13 -6 9 -15 -6 -17 3 -19 38 -5 39 14 31 4 -16 -24
-37 -21 -81 -31 -125 -27 -6 1 -19 8 -28 18 -16 15 -17 15 -13 -8 2 -17 10
-25 28 -26 14 -1 66 -5 115 -9 102 -8 86 -21 -27 -23 l-68 -1 0 -34 c0 -46 -9
-66 -29 -66 -9 -1 -41 -11 -71 -25 -33 -14 -57 -19 -61 -13 -3 5 -22 7 -43 3
-25 -5 -36 -4 -36 4 0 7 -5 9 -10 6 -6 -4 -7 -11 -4 -17 5 -8 -1 -9 -17 -4
-13 3 -54 14 -91 23 -38 9 -68 21 -68 25 0 10 81 3 128 -11 26 -8 34 -7 39 5
3 7 16 14 28 14 15 0 26 8 30 21 6 17 9 19 16 8 6 -10 9 -6 9 13 0 14 -6 29
-12 31 -7 3 8 6 33 6 65 1 109 11 109 25 0 9 -23 9 -92 -2 -72 -11 -106 -11
-149 -3 -30 6 -72 11 -93 11 -38 0 -38 -1 -34 -34 2 -19 1 -34 -2 -34 -32 3
-40 -4 -40 -35 0 -31 3 -35 48 -48 l47 -15 -1 -67 c-1 -67 1 -72 30 -61 16 6
23 34 8 34 -4 0 -6 18 -4 40 4 41 8 45 36 34 18 -7 23 -94 6 -94 -20 0 -9 -20
19 -35 44 -22 81 1 50 32 -6 6 -9 28 -7 49 3 35 6 39 28 36 42 -4 52 -29 47
-104 -3 -37 -2 -70 3 -73 15 -9 40 7 40 27 0 10 -3 17 -7 15 -8 -5 -6 80 2
120 5 21 54 53 81 53 7 0 19 7 28 15 8 8 43 18 77 22 l62 6 -6 -62 c-5 -59 -4
-62 16 -59 20 3 22 8 19 60 -4 56 -3 56 27 63 30 6 31 8 31 66 l0 59 -62 1
c-62 0 -63 0 -38 17 14 9 40 31 59 48 49 44 38 61 -46 69 -83 8 -140 22 -149
36 -3 6 4 21 17 35 12 13 21 26 18 28 -2 2 -32 6 -67 8 -49 3 -65 1 -77 -12z
m-101 -154 c-38 -46 -57 -62 -32 -28 44 60 62 81 66 78 2 -3 -13 -25 -34 -50z
m130 8 c9 -26 13 -50 10 -55 -6 -10 -94 -12 -118 -3 -22 8 -20 18 10 64 21 31
33 40 54 40 24 0 30 -6 44 -46z m306 -147 c0 -38 -29 -58 -78 -56 -15 1 -20 3
-11 6 15 4 30 30 33 58 1 14 18 25 39 25 13 0 17 -8 17 -33z m-462 6 c23 -3
42 -10 42 -15 0 -4 -10 -6 -22 -3 -13 2 -50 9 -82 15 -69 12 -92 26 -26 16 25
-4 64 -10 88 -13z m378 1 c-4 -23 -26 -34 -73 -34 -36 0 -43 3 -43 19 0 21 18
27 82 30 28 1 36 -3 34 -15z m-381 -34 c20 -8 17 -11 -25 -22 -22 -6 -93 17
-98 32 -3 9 8 11 49 5 30 -4 63 -11 74 -15z"/>
<path d="M365 341 c-16 -10 -39 -28 -49 -40 -34 -38 5 -24 53 19 47 43 45 52
-4 21z"/>
</g>
</svg>
