<?xml version="1.0" standalone="no"?>
<!DOCTYPE svg PUBLIC "-//W3C//DTD SVG 20010904//EN"
 "http://www.w3.org/TR/2001/REC-SVG-20010904/DTD/svg10.dtd">
<svg version="1.0" xmlns="http://www.w3.org/2000/svg"
 width="72.000000pt" height="72.000000pt" viewBox="0 0 72.000000 72.000000"
 preserveAspectRatio="xMidYMid meet">
<metadata>
Created by potrace 1.10, written by Peter Selinger 2001-2011
</metadata>
<g transform="translate(0.000000,72.000000) scale(0.100000,-0.100000)"
fill="#000000" stroke="none">
<path d="M58 693 c-49 -8 -30 -21 40 -28 98 -9 97 -9 98 -25 2 -31 5 -35 15
-20 9 13 10 12 5 -3 -6 -20 13 -57 30 -57 15 0 47 -48 40 -59 -3 -4 2 -17 10
-27 14 -17 15 -17 10 -1 -3 10 -2 15 3 12 5 -3 12 -1 16 5 4 6 11 8 16 4 5 -3
7 -10 3 -15 -3 -5 -9 -7 -14 -4 -4 3 -11 -2 -14 -10 -8 -21 55 -116 73 -110 9
4 11 0 7 -11 -6 -15 64 -123 109 -168 12 -12 26 -30 32 -40 10 -18 11 -18 32
3 11 11 26 21 32 21 5 0 -2 17 -18 38 l-27 37 34 -30 c19 -16 30 -23 24 -15
-32 46 -317 392 -360 437 -46 48 -58 55 -110 63 -33 6 -59 9 -59 8 0 0 -12 -3
-27 -5z m302 -248 c-15 -19 -3 -40 15 -25 9 8 17 4 29 -15 9 -14 22 -23 28
-19 7 5 8 2 3 -6 -4 -7 -2 -16 6 -21 10 -6 11 -9 2 -9 -7 0 -13 -5 -13 -11 0
-6 7 -9 15 -5 8 3 15 1 15 -4 0 -6 -9 -10 -20 -10 -14 0 -20 7 -20 24 0 13 -7
26 -15 30 -8 3 -15 9 -14 13 3 21 -2 34 -11 28 -6 -4 -8 -15 -5 -26 10 -29 -1
-23 -24 15 -23 36 -27 51 -12 41 5 -3 12 -1 16 5 3 5 9 10 12 10 3 0 0 -7 -7
-15z m169 -163 c7 -13 3 -23 -16 -40 -24 -22 -25 -22 -20 -2 4 15 0 20 -13 20
-11 0 -22 5 -26 12 -5 7 0 9 14 6 12 -4 26 0 33 8 15 18 16 18 28 -4z"/>
<path d="M628 153 c10 -4 10 -8 1 -19 -9 -11 -8 -18 5 -32 9 -10 13 -22 9 -25
-10 -11 -43 -8 -43 3 0 5 -7 7 -16 3 -11 -4 -22 1 -30 12 -13 18 -14 18 -14
-3 0 -11 10 -33 23 -48 l23 -27 52 34 c28 19 52 39 52 45 0 20 -41 64 -58 63
-11 0 -13 -2 -4 -6z"/>
</g>
</svg>
