<?xml version="1.0" standalone="no"?>
<!DOCTYPE svg PUBLIC "-//W3C//DTD SVG 20010904//EN"
 "http://www.w3.org/TR/2001/REC-SVG-20010904/DTD/svg10.dtd">
<svg version="1.0" xmlns="http://www.w3.org/2000/svg"
 width="72.000000pt" height="72.000000pt" viewBox="0 0 72.000000 72.000000"
 preserveAspectRatio="xMidYMid meet">
<metadata>
Created by potrace 1.10, written by Peter Selinger 2001-2011
</metadata>
<g transform="translate(0.000000,72.000000) scale(0.100000,-0.100000)"
fill="#000000" stroke="none">
<path d="M25 690 c-17 -19 -17 -21 0 -40 10 -11 21 -17 25 -15 4 3 39 -30 76
-72 38 -43 160 -168 271 -278 152 -151 203 -208 210 -234 5 -19 13 -36 19 -38
14 -5 86 66 81 80 -2 6 -17 15 -33 19 -19 5 -69 47 -136 115 -244 248 -326
323 -344 316 -13 -5 -16 -3 -11 10 3 9 1 19 -5 23 -7 4 -8 3 -4 -4 4 -7 2 -12
-3 -12 -6 0 -12 5 -12 10 -1 6 -2 15 -3 22 0 6 -9 12 -18 14 -19 2 -55 34 -50
43 1 3 -1 6 -5 6 -24 1 -46 35 -22 35 5 0 7 -4 4 -10 -3 -5 2 -10 11 -10 16 0
16 1 -1 20 -10 11 -21 20 -25 20 -4 0 -15 -9 -25 -20z m386 -374 c-6 -7 -7
-17 -3 -21 4 -5 1 -5 -6 -1 -7 4 -10 12 -6 18 3 5 -33 47 -81 93 -52 50 -81
85 -73 87 7 3 50 -33 96 -80 61 -62 80 -87 73 -96z m118 -95 c52 -51 79 -86
78 -99 -1 -20 -17 -20 -17 -1 0 6 -34 43 -75 84 -64 63 -88 95 -70 95 2 0 40
-36 84 -79z m170 -127 c2 -2 -4 -13 -14 -24 -21 -23 -35 -19 -15 5 11 13 9 15
-10 13 -13 -2 -25 3 -28 11 -3 10 3 11 29 6 19 -4 36 -9 38 -11z"/>
</g>
</svg>
