<?xml version="1.0" standalone="no"?>
<!DOCTYPE svg PUBLIC "-//W3C//DTD SVG 20010904//EN"
 "http://www.w3.org/TR/2001/REC-SVG-20010904/DTD/svg10.dtd">
<svg version="1.0" xmlns="http://www.w3.org/2000/svg"
 width="72.000000pt" height="72.000000pt" viewBox="0 0 72.000000 72.000000"
 preserveAspectRatio="xMidYMid meet">
<metadata>
Created by potrace 1.10, written by Peter Selinger 2001-2011
</metadata>
<g transform="translate(0.000000,72.000000) scale(0.100000,-0.100000)"
fill="#000000" stroke="none">
<path d="M32 407 c-15 -42 -19 -63 -11 -68 8 -5 8 -8 -1 -11 -9 -3 -10 -16 -6
-43 l7 -40 339 0 339 0 7 39 c4 26 2 41 -6 46 -9 6 -9 9 -1 11 8 3 4 24 -12
68 -14 37 -27 58 -30 50 -3 -9 -8 -10 -14 -4 -5 6 -112 10 -283 10 -172 0
-278 -4 -282 -10 -5 -6 -11 -6 -16 2 -4 7 -16 -12 -30 -50z m631 -5 c12 -31
15 -68 8 -104 0 -5 -140 -8 -310 -8 -286 0 -310 1 -315 18 -10 34 9 116 25
107 5 -3 6 1 3 10 -6 14 23 15 284 15 l290 -1 15 -37z"/>
<path d="M139 406 c-2 -2 -19 -6 -38 -8 -19 -2 -37 -11 -39 -19 -3 -8 -2 -11
2 -8 4 4 22 3 41 -1 29 -6 34 -5 39 13 5 21 3 31 -5 23z"/>
<path d="M157 396 c-9 -23 -9 -23 6 -23 6 0 20 -4 30 -8 12 -5 17 -2 18 11 0
18 1 17 9 -1 8 -19 8 -19 19 5 10 23 11 23 7 3 -2 -13 0 -23 4 -23 5 0 11 10
13 23 l4 22 2 -22 c1 -27 18 -30 24 -5 4 16 5 16 6 0 2 -27 21 -21 21 6 0 22
-4 23 -70 25 -61 1 -70 -1 -71 -16 0 -16 -1 -16 -8 1 -7 18 -8 18 -14 2z"/>
<path d="M336 403 c-3 -3 -6 -16 -5 -27 0 -21 1 -21 9 -1 6 15 9 16 9 4 1 -14
22 -16 161 -18 137 -2 159 0 154 13 -8 22 -34 28 -35 8 0 -14 -2 -14 -9 3 -9
20 -9 20 -9 0 -1 -12 -4 -16 -9 -9 -8 14 -54 13 -64 -1 -4 -6 -8 -1 -9 10 0
20 0 20 -9 0 -5 -11 -9 -14 -9 -8 -1 8 -12 11 -30 9 -16 -2 -35 0 -42 5 -7 4
-19 3 -26 -3 -9 -7 -13 -7 -13 2 0 6 -6 10 -12 7 -7 -2 -20 -1 -29 4 -9 5 -19
5 -23 2z"/>
<path d="M338 333 c23 -2 59 -2 80 0 20 2 1 4 -43 4 -44 0 -61 -2 -37 -4z"/>
<path d="M105 309 c-11 -4 102 -8 250 -8 182 -1 265 3 255 9 -18 12 -475 11
-505 -1z"/>
</g>
</svg>
