<?xml version="1.0" standalone="no"?>
<!DOCTYPE svg PUBLIC "-//W3C//DTD SVG 20010904//EN"
 "http://www.w3.org/TR/2001/REC-SVG-20010904/DTD/svg10.dtd">
<svg version="1.0" xmlns="http://www.w3.org/2000/svg"
 width="72.000000pt" height="72.000000pt" viewBox="0 0 72.000000 72.000000"
 preserveAspectRatio="xMidYMid meet">
<metadata>
Created by potrace 1.10, written by Peter Selinger 2001-2011
</metadata>
<g transform="translate(0.000000,72.000000) scale(0.100000,-0.100000)"
fill="#000000" stroke="none">
<path d="M45 680 c-5 -22 -1 -40 15 -66 12 -19 20 -37 18 -40 -3 -2 23 -32 56
-67 34 -35 68 -74 77 -88 16 -23 17 -23 37 -6 12 11 23 14 26 8 4 -5 -3 -12
-14 -16 -23 -7 -27 -25 -6 -25 9 0 16 -12 18 -27 2 -23 8 -28 29 -26 16 1 31
-6 40 -19 8 -12 27 -33 43 -47 52 -45 76 -73 76 -88 0 -8 5 -11 10 -8 6 4 30
-15 54 -42 38 -41 45 -45 51 -30 9 22 -3 37 -14 18 -5 -8 -11 -9 -15 -3 -8 13
20 36 34 27 13 -8 13 -55 0 -55 -15 0 -12 -36 5 -50 22 -18 63 -4 79 29 19 35
5 58 -38 65 -16 3 -38 14 -50 25 -18 16 -24 18 -38 7 -10 -7 -14 -17 -10 -21
4 -5 1 -5 -7 0 -11 7 -10 12 9 27 l24 20 -87 85 c-48 47 -87 89 -87 93 0 11
-31 35 -45 35 -7 0 -60 46 -119 103 -58 56 -112 102 -120 102 -18 0 -40 53
-32 78 4 11 2 23 -3 26 -5 4 -12 -7 -16 -24z m266 -292 c16 -20 20 -21 30 -8
9 13 10 13 6 -1 -6 -17 35 -64 45 -53 3 3 9 0 14 -7 4 -8 3 -10 -4 -5 -7 4
-12 3 -12 -2 0 -9 13 -17 35 -21 16 -4 45 -33 40 -41 -2 -4 9 -19 25 -33 18
-16 27 -33 24 -42 -4 -8 -8 -15 -11 -15 -3 0 -3 6 0 14 8 20 -4 28 -20 15 -9
-9 -13 -8 -13 0 0 6 5 11 12 11 6 0 9 3 6 6 -4 3 -8 5 -10 3 -1 -1 -24 19 -51
45 -27 27 -52 44 -59 40 -6 -4 -8 -3 -5 3 4 5 -5 19 -18 31 -13 12 -27 17 -30
12 -7 -11 -35 -2 -35 12 0 6 6 6 14 -1 10 -9 16 -9 21 -1 9 15 -13 40 -31 33
-14 -5 -19 8 -7 20 10 10 13 9 34 -15z m343 -287 c10 -16 -4 -37 -24 -38 -11
-1 -20 2 -20 8 0 5 5 9 10 9 6 0 10 7 10 15 0 17 16 20 24 6z"/>
</g>
</svg>
