<?xml version="1.0" standalone="no"?>
<!DOCTYPE svg PUBLIC "-//W3C//DTD SVG 20010904//EN"
 "http://www.w3.org/TR/2001/REC-SVG-20010904/DTD/svg10.dtd">
<svg version="1.0" xmlns="http://www.w3.org/2000/svg"
 width="72.000000pt" height="72.000000pt" viewBox="0 0 72.000000 72.000000"
 preserveAspectRatio="xMidYMid meet">
<metadata>
Created by potrace 1.10, written by Peter Selinger 2001-2011
</metadata>
<g transform="translate(0.000000,72.000000) scale(0.100000,-0.100000)"
fill="#000000" stroke="none">
<path d="M27 695 c-18 -13 -18 -14 1 -24 10 -5 31 -26 47 -47 l28 -36 -28 -22
c-19 -15 -25 -27 -20 -36 5 -9 4 -11 -3 -6 -17 10 -34 -41 -27 -76 4 -16 33
-63 64 -104 43 -57 57 -83 53 -100 -6 -30 16 -57 41 -50 13 3 29 -8 54 -35 24
-26 44 -39 62 -39 19 0 34 -12 55 -40 32 -42 77 -60 101 -40 23 19 18 53 -17
100 -20 26 -33 57 -34 76 0 22 -13 48 -38 79 -26 31 -36 51 -31 63 6 15 10 13
30 -12 12 -15 51 -75 86 -133 62 -103 74 -144 55 -185 -14 -32 17 -20 91 32
61 42 113 95 113 114 0 3 -13 3 -29 0 -35 -7 -60 5 -134 69 -88 77 -151 155
-138 171 6 7 8 16 4 19 -3 4 4 7 17 7 23 0 24 1 6 18 -13 12 -20 14 -23 5 -3
-7 -12 -13 -21 -13 -13 0 -14 -2 -3 -9 18 -11 -49 -65 -81 -66 -15 0 -23 -6
-23 -17 0 -9 -9 -24 -20 -32 -24 -18 -39 -21 -29 -4 4 7 3 8 -5 4 -6 -4 -9
-11 -6 -16 3 -5 -11 -22 -32 -39 -37 -31 -57 -34 -33 -6 10 12 5 23 -29 66
-23 28 -41 58 -41 66 0 38 36 71 88 79 l27 4 -30 -25 c-16 -14 -36 -25 -42
-25 -18 0 -16 -25 2 -40 8 -7 15 -19 15 -26 0 -8 8 -30 19 -49 15 -29 21 -33
30 -21 7 9 8 15 2 18 -6 1 -17 20 -26 40 -14 35 -14 37 2 31 10 -3 15 -2 10 2
-4 5 0 17 10 27 24 27 10 32 -20 7 -15 -11 -27 -16 -27 -10 0 18 55 50 70 41
12 -7 10 -13 -8 -33 -20 -21 -21 -25 -7 -31 23 -9 26 -8 23 7 -2 7 1 13 5 14
4 1 16 12 26 25 11 12 29 23 42 23 12 0 24 6 27 14 3 9 0 11 -9 7 -8 -4 -4 1
9 12 12 11 22 25 22 31 0 6 3 10 8 10 19 -3 23 2 12 16 -16 19 -30 19 -30 -1
0 -8 -4 -13 -9 -9 -5 3 -13 0 -17 -6 -4 -8 -3 -9 4 -5 7 4 12 3 12 -3 0 -5
-18 -24 -41 -41 l-40 -33 -15 22 c-8 11 -21 21 -29 21 -8 0 -17 5 -21 12 -5 7
-3 8 6 3 8 -5 0 9 -16 30 l-29 38 30 -7 c17 -3 45 -23 62 -43 28 -30 35 -34
48 -23 14 12 13 16 -12 42 -35 37 -75 58 -105 57 -23 -1 -23 -1 2 -9 24 -8 24
-8 -6 -9 -34 -1 -50 19 -31 38 6 6 7 14 3 18 -4 4 -11 2 -15 -6 -11 -17 -61
32 -61 59 0 23 -8 25 -33 5z m113 -157 l29 -31 -37 -18 c-21 -10 -45 -31 -54
-46 l-16 -28 -8 28 c-4 18 -1 39 7 55 7 15 13 32 14 37 1 16 15 35 26 35 6 0
23 -14 39 -32z m351 -253 c70 -72 116 -110 142 -119 l38 -13 -37 -33 -38 -33
-22 49 c-12 27 -35 62 -52 78 -17 16 -29 34 -25 39 3 6 1 7 -5 3 -7 -4 -12 -1
-12 7 0 13 -36 50 -92 93 -24 19 -28 34 -8 34 4 0 54 -47 111 -105z m-191 16
c-13 -9 -44 -33 -69 -53 -49 -41 -61 -46 -61 -24 0 18 24 37 41 34 8 -2 13 3
12 9 -2 11 46 44 62 43 3 0 5 3 4 6 0 4 5 10 13 15 24 15 22 -14 -2 -30z m59
-36 c13 -20 22 -38 19 -40 -5 -5 -58 58 -58 69 0 16 17 2 39 -29z m8 -79 c-2
-5 -12 -15 -23 -22 -18 -12 -23 -9 -56 33 l-36 47 22 18 c21 17 22 17 58 -25
21 -23 37 -46 35 -51z m184 -41 c24 -38 24 -67 1 -81 -16 -11 -18 -9 -14 17 3
21 -7 46 -35 91 -22 35 -43 70 -47 78 -12 24 75 -72 95 -105z m-264 6 c-13 -5
-67 60 -60 73 3 5 21 -9 39 -30 18 -22 27 -41 21 -43z m138 -31 c26 -38 27
-42 12 -58 -16 -15 -20 -14 -57 23 l-40 39 22 22 c13 12 26 20 29 18 3 -2 18
-22 34 -44z"/>
<path d="M380 506 c0 -9 -6 -16 -14 -16 -8 0 -13 -6 -12 -14 0 -7 -34 -41 -77
-74 -43 -33 -73 -63 -68 -66 5 -4 13 -1 16 5 4 5 13 8 21 5 8 -3 14 -1 14 5 0
15 51 54 69 54 8 0 24 17 35 38 11 20 25 37 33 37 17 0 17 15 -2 30 -12 10
-15 10 -15 -4z"/>
</g>
</svg>
