<?xml version="1.0" standalone="no"?>
<!DOCTYPE svg PUBLIC "-//W3C//DTD SVG 20010904//EN"
 "http://www.w3.org/TR/2001/REC-SVG-20010904/DTD/svg10.dtd">
<svg version="1.0" xmlns="http://www.w3.org/2000/svg"
 width="72.000000pt" height="72.000000pt" viewBox="0 0 72.000000 72.000000"
 preserveAspectRatio="xMidYMid meet">
<metadata>
Created by potrace 1.10, written by Peter Selinger 2001-2011
</metadata>
<g transform="translate(0.000000,72.000000) scale(0.100000,-0.100000)"
fill="#000000" stroke="none">
<path d="M27 683 c-3 -15 -2 -30 3 -33 9 -6 58 -91 96 -167 15 -29 30 -53 34
-53 4 0 45 -64 90 -142 149 -258 167 -278 246 -278 79 0 184 72 200 136 6 23
0 92 -9 100 -1 2 -12 1 -24 -2 -18 -5 -20 -11 -16 -48 3 -24 0 -53 -7 -65 -15
-29 -97 -81 -129 -82 l-26 -1 25 -8 c36 -12 1 -12 -39 0 -39 11 -75 42 -95 79
-33 66 -181 317 -191 323 -7 5 -6 8 2 8 6 0 59 -83 118 -184 58 -101 117 -191
130 -200 37 -24 40 -19 7 9 -35 30 -226 355 -237 403 -3 17 -10 32 -15 32 -4
0 -16 17 -27 38 -10 20 -31 56 -46 79 -15 24 -27 49 -27 58 0 8 -6 15 -14 15
-8 0 -21 3 -29 6 -10 3 -16 -4 -20 -23z m101 -107 c24 -43 41 -80 37 -84 -4
-4 -10 -1 -12 6 -3 7 -11 19 -20 27 -8 8 -12 15 -8 15 3 0 -1 10 -10 23 -8 13
-12 27 -8 30 3 4 -1 7 -11 7 -9 0 -15 4 -12 9 3 5 -1 14 -9 21 -18 15 -20 33
-2 28 6 -3 32 -39 55 -82z m552 -390 c0 -18 -10 -48 -23 -67 -25 -37 -81 -79
-106 -79 -8 0 5 10 29 23 53 26 90 77 90 123 0 19 2 34 5 34 3 0 5 -15 5 -34z"/>
</g>
</svg>
