<?xml version="1.0" standalone="no"?>
<!DOCTYPE svg PUBLIC "-//W3C//DTD SVG 20010904//EN"
 "http://www.w3.org/TR/2001/REC-SVG-20010904/DTD/svg10.dtd">
<svg version="1.0" xmlns="http://www.w3.org/2000/svg"
 width="72.000000pt" height="72.000000pt" viewBox="0 0 72.000000 72.000000"
 preserveAspectRatio="xMidYMid meet">
<metadata>
Created by potrace 1.10, written by Peter Selinger 2001-2011
</metadata>
<g transform="translate(0.000000,72.000000) scale(0.100000,-0.100000)"
fill="#000000" stroke="none">
<path d="M103 617 c-66 -66 -83 -89 -83 -112 0 -24 36 -65 227 -257 179 -179
233 -228 253 -228 36 0 200 163 200 200 0 20 -50 75 -228 253 -193 193 -232
227 -256 227 -24 0 -47 -17 -113 -83z m185 27 l47 -46 -49 41 c-56 47 -83 51
-115 17 -20 -21 -20 -25 -7 -38 11 -12 12 -18 3 -27 -14 -14 -44 -14 -53 0 -5
9 1 10 19 5 21 -5 25 -3 21 8 -3 9 -13 12 -22 9 -9 -3 1 13 23 36 51 54 74 53
133 -5z m48 -85 l82 -82 -35 -35 -35 -35 -62 62 c-34 33 -65 61 -69 61 -12 0
21 -57 40 -72 10 -7 19 -19 21 -27 2 -8 -12 1 -30 20 -19 19 -32 37 -31 40 2
4 -8 14 -22 23 -28 19 -34 42 -8 32 14 -6 14 -4 -2 14 -20 22 -20 22 13 51 18
16 38 29 44 29 7 0 49 -37 94 -81z m-243 -16 c-16 -24 -34 -26 -41 -5 -2 7 6
12 17 12 15 0 21 6 21 23 0 17 2 19 9 8 6 -9 4 -23 -6 -38z m137 -86 l83 -88
-34 -35 -33 -34 -83 82 c-46 45 -83 88 -83 95 0 15 50 75 60 71 4 -2 44 -43
90 -91z m334 -96 c75 -74 116 -122 116 -135 0 -12 -15 -38 -34 -59 l-33 -38
-37 50 c-20 28 -39 51 -44 51 -13 0 -52 -30 -52 -40 0 -6 25 -27 56 -47 l56
-37 -36 -33 c-57 -53 -69 -48 -198 86 l-115 120 38 37 39 38 28 -27 c15 -15
32 -27 37 -27 5 0 0 6 -11 14 -11 8 -34 32 -49 52 -23 31 -25 36 -10 30 16 -6
15 -3 -5 20 l-25 27 28 -18 c15 -9 27 -22 27 -27 0 -6 13 -25 28 -42 20 -23
31 -29 39 -22 8 8 4 19 -15 39 l-26 27 39 40 c21 22 40 39 41 37 2 -1 55 -53
118 -116z m4 -183 c28 -44 20 -47 -22 -10 -31 27 -32 38 -4 41 3 1 15 -14 26
-31z"/>
<path d="M493 323 c-18 -7 -16 -52 2 -59 18 -7 45 12 45 32 0 16 -30 33 -47
27z"/>
<path d="M397 226 c-10 -26 4 -47 27 -44 15 2 21 10 21 28 0 29 -38 41 -48 16z"/>
<path d="M457 80 c19 -17 39 -27 48 -24 8 3 12 10 9 15 -3 5 -9 7 -14 4 -4 -2
-19 4 -33 15 -39 31 -46 23 -10 -10z"/>
</g>
</svg>
