<?xml version="1.0" standalone="no"?>
<!DOCTYPE svg PUBLIC "-//W3C//DTD SVG 20010904//EN"
 "http://www.w3.org/TR/2001/REC-SVG-20010904/DTD/svg10.dtd">
<svg version="1.0" xmlns="http://www.w3.org/2000/svg"
 width="72.000000pt" height="72.000000pt" viewBox="0 0 72.000000 72.000000"
 preserveAspectRatio="xMidYMid meet">
<metadata>
Created by potrace 1.10, written by Peter Selinger 2001-2011
</metadata>
<g transform="translate(0.000000,72.000000) scale(0.100000,-0.100000)"
fill="#000000" stroke="none">
<path d="M52 679 c-22 -8 -30 -43 -12 -54 5 -3 7 -12 4 -20 -3 -8 7 -27 22
-42 16 -16 29 -23 31 -16 3 9 12 9 30 2 36 -14 55 6 40 41 -5 14 -9 33 -8 43
1 9 -3 17 -8 17 -6 0 -11 -9 -11 -19 0 -15 -6 -19 -20 -16 -12 2 -28 1 -36 -2
-13 -5 -13 -8 2 -24 20 -23 9 -26 -13 -4 -8 9 -13 19 -10 22 4 3 2 13 -3 23
-6 12 -5 23 5 36 13 18 14 18 38 -4 19 -18 27 -20 33 -11 4 7 2 15 -4 17 -7 2
-10 8 -7 12 7 11 -43 10 -73 -1z"/>
<path d="M239 501 c29 -29 55 -50 58 -47 5 5 -83 89 -100 95 -7 2 12 -19 42
-48z"/>
<path d="M185 500 c75 -88 108 -118 122 -113 12 5 10 9 -8 19 -13 7 -22 14
-19 14 29 7 39 7 35 0 -3 -4 1 -13 9 -19 11 -9 15 -9 18 1 3 8 7 6 11 -6 4 -9
3 -15 -2 -11 -5 3 -13 0 -17 -7 -4 -7 -4 -10 1 -6 4 4 14 3 22 -3 7 -6 13 -8
13 -3 0 4 13 -5 29 -20 16 -15 31 -24 34 -19 3 5 -23 35 -59 67 -56 50 -67 56
-81 44 -17 -14 -23 -14 -32 -1 -3 5 -28 29 -56 53 -43 38 -46 40 -20 10z"/>
<path d="M310 380 c-12 -8 -7 -17 29 -54 24 -25 48 -43 54 -39 5 3 -10 24 -32
47 -23 23 -38 45 -35 49 10 10 2 8 -16 -3z"/>
<path d="M536 349 c23 -5 50 -19 59 -29 18 -20 18 -20 -14 -4 -49 24 -102 14
-148 -30 -35 -33 -38 -40 -38 -90 0 -34 5 -60 14 -68 12 -11 13 -10 7 2 -4 8
1 5 11 -7 30 -37 87 -55 132 -43 75 20 105 90 72 165 -21 48 -11 63 12 18 17
-34 28 -113 16 -113 -4 0 -6 -6 -3 -14 7 -17 -55 -79 -72 -72 -8 3 -14 1 -14
-3 0 -16 -84 1 -127 25 -46 27 -62 49 -74 104 -7 31 -8 30 -5 -12 6 -88 73
-148 164 -148 87 0 162 72 162 157 0 92 -58 159 -146 168 l-49 5 41 -11z m-42
-68 c13 -14 14 -21 5 -27 -7 -4 -10 -3 -5 4 3 6 2 13 -3 16 -15 10 -6 -22 12
-42 9 -10 14 -22 10 -25 -10 -11 -73 54 -66 67 3 6 2 7 -2 3 -13 -11 -15 -38
-3 -31 7 5 8 2 3 -6 -6 -9 -4 -11 5 -5 9 6 11 4 5 -5 -6 -9 -4 -11 5 -5 9 6
11 4 5 -5 -6 -9 -4 -11 5 -5 8 5 11 4 7 -2 -4 -5 7 -23 23 -38 17 -16 31 -26
31 -22 1 4 2 12 3 19 1 13 34 20 41 8 5 -9 -25 -44 -42 -47 -6 -1 -36 26 -67
61 l-56 64 26 21 c33 26 37 26 58 2z m85 4 c28 -14 51 -58 51 -97 0 -24 -62
-88 -85 -88 -11 0 -2 14 29 46 47 46 58 68 31 58 -8 -4 -12 -10 -9 -15 12 -20
-12 -7 -45 24 -18 17 -30 25 -26 17 8 -13 7 -13 -8 -1 -20 16 -20 18 -5 27 7
5 8 3 3 -6 -5 -9 -4 -11 3 -6 9 5 9 13 2 26 -5 10 -10 21 -10 24 0 11 41 6 69
-9z m-28 -82 c8 -9 9 -14 3 -10 -13 8 -37 -16 -27 -26 3 -4 4 -7 1 -7 -2 0
-15 12 -29 27 -13 15 -17 22 -8 15 13 -10 19 -9 29 3 15 19 15 19 31 -2z m-74
-46 c35 -29 46 -57 23 -57 -18 0 -70 53 -70 71 0 25 1 25 47 -14z"/>
</g>
</svg>
