<?xml version="1.0" standalone="no"?>
<!DOCTYPE svg PUBLIC "-//W3C//DTD SVG 20010904//EN"
 "http://www.w3.org/TR/2001/REC-SVG-20010904/DTD/svg10.dtd">
<svg version="1.0" xmlns="http://www.w3.org/2000/svg"
 width="72.000000pt" height="72.000000pt" viewBox="0 0 72.000000 72.000000"
 preserveAspectRatio="xMidYMid meet">
<metadata>
Created by potrace 1.10, written by Peter Selinger 2001-2011
</metadata>
<g transform="translate(0.000000,72.000000) scale(0.100000,-0.100000)"
fill="#000000" stroke="none">
<path d="M385 686 c-16 -7 -43 -24 -60 -38 -20 -16 -48 -27 -82 -31 -89 -10
-152 -58 -200 -151 -35 -68 -43 -182 -18 -260 22 -68 83 -141 140 -167 76 -35
190 -16 239 40 14 15 31 21 59 21 83 0 177 72 220 169 45 102 31 252 -33 338
-58 78 -182 115 -265 79z m173 -40 c68 -35 118 -121 128 -218 5 -51 3 -67 -9
-80 -9 -9 -12 -19 -7 -24 12 -12 -24 -92 -58 -127 -47 -50 -97 -70 -168 -65
-77 5 -121 36 -168 118 -28 49 -31 63 -30 135 1 120 43 197 139 256 37 23 133
26 173 5z m-288 -64 c0 -4 -19 -13 -43 -19 -24 -7 -54 -22 -68 -33 -20 -19
-21 -21 -4 -15 39 14 49 10 55 -20 l5 -30 13 42 c7 23 17 45 22 48 14 9 12
-10 -4 -49 -14 -33 -31 -114 -28 -129 1 -4 4 -25 6 -47 2 -22 9 -47 16 -55 19
-23 6 -28 -15 -5 -10 11 -21 37 -25 58 l-8 37 -1 -48 c-1 -38 4 -52 23 -70 13
-12 48 -44 77 -72 30 -27 63 -55 73 -61 42 -23 -30 -64 -110 -64 -126 0 -228
144 -210 297 8 66 29 119 56 141 12 9 22 24 23 32 4 22 17 41 26 35 5 -2 25 5
47 15 39 21 74 26 74 12z"/>
<path d="M456 469 c-20 -23 -26 -41 -25 -72 1 -23 3 -33 6 -22 2 11 6 30 9 43
12 58 88 83 118 40 9 -12 16 -30 16 -40 0 -14 -6 -17 -32 -12 -31 5 -31 4 6
-10 46 -17 75 -42 36 -31 -22 6 -23 5 -10 -7 20 -19 70 -40 70 -30 0 5 -11 19
-25 32 -14 13 -25 34 -25 47 0 87 -91 126 -144 62z"/>
<path d="M307 419 c-49 -26 -41 -38 9 -14 21 10 51 15 70 13 21 -2 33 0 31 6
-6 19 -71 16 -110 -5z"/>
<path d="M495 383 c4 -10 10 -28 12 -41 5 -21 3 -22 -22 -12 -25 9 -26 9 -15
-5 7 -8 26 -15 42 -15 27 0 30 -3 26 -25 -6 -28 9 -29 33 -2 22 24 14 51 -28
87 -38 34 -59 39 -48 13z"/>
<path d="M435 288 c22 -30 62 -45 78 -29 8 8 3 11 -15 11 -14 0 -38 10 -54 23
l-29 22 20 -27z"/>
<path d="M640 303 c0 -6 -17 -17 -37 -26 l-38 -15 30 -1 c21 -1 34 6 43 20 7
12 11 24 8 27 -3 3 -6 1 -6 -5z"/>
<path d="M570 204 c-59 -30 -145 -32 -200 -4 -50 25 -58 25 -34 -1 64 -70 195
-67 265 7 12 13 21 23 18 23 -2 -1 -24 -12 -49 -25z"/>
</g>
</svg>
