<?xml version="1.0" standalone="no"?>
<!DOCTYPE svg PUBLIC "-//W3C//DTD SVG 20010904//EN"
 "http://www.w3.org/TR/2001/REC-SVG-20010904/DTD/svg10.dtd">
<svg version="1.0" xmlns="http://www.w3.org/2000/svg"
 width="72.000000pt" height="72.000000pt" viewBox="0 0 72.000000 72.000000"
 preserveAspectRatio="xMidYMid meet">
<metadata>
Created by potrace 1.10, written by Peter Selinger 2001-2011
</metadata>
<g transform="translate(0.000000,72.000000) scale(0.100000,-0.100000)"
fill="#000000" stroke="none">
<path d="M117 627 c-52 -53 -95 -131 -103 -189 l-6 -44 82 -79 c66 -65 107
-94 216 -153 75 -41 138 -72 141 -69 5 5 -10 14 -182 110 -121 68 -282 217
-234 217 5 0 14 -11 19 -25 5 -14 34 -41 65 -60 72 -47 98 -56 63 -23 -14 14
-34 40 -43 58 -13 26 -19 30 -27 19 -7 -11 -9 -9 -5 8 5 24 -34 70 -51 59 -6
-3 -13 1 -16 10 -5 12 -2 15 10 10 14 -5 15 -4 5 8 -7 8 -8 16 -4 18 13 5 55
69 49 75 -9 9 53 55 65 47 9 -5 10 -2 6 9 -3 10 -2 17 3 17 6 0 10 5 10 10 0
20 -22 9 -63 -33z"/>
<path d="M192 658 c-18 -18 -15 -26 18 -43 24 -13 35 -13 53 -4 19 11 20 10
10 -2 -10 -13 -5 -17 35 -28 52 -13 254 -129 247 -141 -7 -11 52 -63 75 -67
30 -4 24 14 -10 32 -16 9 -30 20 -30 25 0 20 -202 152 -282 184 -45 19 -84 39
-86 45 -5 14 -15 14 -30 -1z"/>
<path d="M153 609 c-28 -10 -38 -28 -24 -42 9 -9 11 -8 6 6 -7 17 -2 20 30 20
48 0 49 -2 24 -30 l-24 -28 28 24 c15 14 27 25 27 27 0 1 -10 8 -23 16 -14 10
-30 12 -44 7z"/>
<path d="M230 575 c-8 -10 -9 -15 -1 -15 6 0 11 -7 11 -15 0 -8 4 -15 10 -15
5 0 7 7 4 15 -8 19 25 33 36 15 5 -9 13 -9 25 -3 15 9 13 11 -11 16 -16 3 -36
8 -45 12 -9 3 -22 -1 -29 -10z"/>
<path d="M350 552 c0 -4 23 -22 50 -41 34 -24 47 -37 38 -42 -7 -4 -10 -10 -8
-13 3 -2 15 3 27 12 22 17 22 17 -42 54 -36 20 -65 34 -65 30z"/>
<path d="M84 524 c-19 -28 -14 -48 15 -64 18 -9 23 -6 38 22 23 44 24 58 5 51
-8 -4 -13 -2 -9 3 13 22 -35 11 -49 -12z m44 -3 c12 -7 12 -12 1 -30 -14 -21
-29 -28 -29 -13 0 4 6 14 12 20 10 10 10 15 -2 22 -8 5 -10 10 -5 10 6 0 16
-4 23 -9z"/>
<path d="M191 536 c-14 -17 2 -54 46 -106 24 -29 25 -32 5 -21 -12 6 -32 29
-44 51 -13 22 -26 40 -30 40 -4 0 -14 -13 -23 -30 -15 -29 -15 -30 14 -45 17
-8 39 -15 51 -15 11 0 20 -5 20 -11 0 -6 9 -9 20 -6 10 3 24 -1 30 -8 6 -8 26
-17 43 -21 18 -4 26 -9 19 -11 -6 -3 -9 -9 -6 -14 3 -5 18 7 33 28 l27 38 -48
38 c-26 21 -45 44 -41 49 3 6 1 8 -5 4 -6 -3 -13 -2 -17 4 -3 5 -11 10 -16 10
-6 0 11 -18 37 -41 75 -65 75 -64 60 -84 -11 -15 -15 -16 -47 -2 -41 17 -76
50 -102 95 -17 30 -17 31 5 35 20 4 19 4 -5 6 -16 0 -26 5 -22 11 4 6 11 7 17
4 7 -4 8 -2 4 4 -9 15 -11 15 -25 -2z"/>
<path d="M470 457 c-14 -12 -32 -31 -40 -42 -14 -18 -13 -19 1 -7 9 7 25 9 35
6 17 -6 17 -5 -1 9 -25 20 -9 21 25 2 14 -8 19 -14 11 -15 -8 0 -12 -3 -9 -6
4 -3 15 -1 25 4 14 8 25 4 48 -15 17 -14 22 -23 13 -19 -46 16 -51 16 -25 1
43 -25 53 -7 18 29 -17 18 -29 35 -26 39 3 4 2 5 -2 2 -3 -3 -16 4 -27 14 -21
19 -21 19 -46 -2z"/>
<path d="M137 391 c14 -25 43 -63 64 -83 32 -32 45 -38 82 -38 38 0 46 3 50
22 8 29 -33 73 -73 82 -16 3 -56 18 -89 34 l-60 28 26 -45z m126 -31 c8 0 22
-9 33 -21 16 -17 16 -22 4 -29 -20 -13 -34 -12 -46 0 -6 6 -21 13 -34 15 -33
6 -43 19 -35 44 6 20 8 20 35 6 16 -8 35 -15 43 -15z"/>
<path d="M381 351 c-16 -30 -17 -41 -8 -50 9 -10 8 -12 -7 -9 -10 1 -21 -2
-23 -9 -3 -9 8 -8 41 3 52 18 58 29 20 38 -15 4 -24 10 -21 13 3 3 19 1 35 -5
20 -7 33 -7 40 0 6 6 12 6 16 -1 4 -6 4 -11 -1 -11 -4 -1 6 -7 22 -16 l30 -14
-30 6 c-23 4 -27 3 -19 -6 16 -16 47 -9 50 12 1 9 -5 23 -14 30 -15 12 -16 11
-3 -4 17 -22 4 -23 -20 -2 -10 9 -16 21 -13 27 2 7 -6 18 -18 26 -21 13 -22
13 -9 -2 7 -10 9 -17 3 -17 -5 0 -15 7 -22 15 -19 23 -28 19 -49 -24z"/>
<path d="M668 379 c-10 -6 -18 -17 -18 -26 0 -12 -3 -13 -13 -5 -10 9 -19 2
-38 -28 -14 -24 -29 -38 -38 -35 -14 6 -32 -12 -56 -57 -9 -16 -11 -28 -5 -28
5 0 10 6 10 13 1 21 36 61 44 48 4 -6 3 -11 -3 -11 -5 0 -15 -16 -22 -35 -7
-19 -18 -34 -23 -32 -20 7 -40 -25 -51 -82 -3 -15 5 -24 27 -36 17 -8 39 -15
50 -15 32 0 104 77 143 154 32 64 37 81 33 121 -7 55 -16 68 -40 54z m25 -50
c6 -21 -19 -102 -47 -157 -21 -40 -101 -106 -121 -98 -33 12 -4 109 60 196 19
26 35 53 35 59 0 5 6 8 14 5 8 -3 17 -1 21 5 11 18 32 12 38 -10z"/>
<path d="M602 223 c-24 -35 -35 -70 -27 -84 14 -21 75 57 75 96 0 24 -27 17
-48 -12z"/>
<path d="M200 258 c3 -3 28 -17 55 -32 49 -27 50 -27 25 -3 -14 14 -38 28 -55
32 -16 3 -28 5 -25 3z"/>
<path d="M325 208 c16 -15 32 -22 35 -17 4 5 20 5 40 -1 18 -5 35 -8 38 -6 2
2 -21 11 -52 20 -30 9 -63 19 -73 23 -10 4 -5 -5 12 -19z"/>
</g>
</svg>
