<?xml version="1.0" standalone="no"?>
<!DOCTYPE svg PUBLIC "-//W3C//DTD SVG 20010904//EN"
 "http://www.w3.org/TR/2001/REC-SVG-20010904/DTD/svg10.dtd">
<svg version="1.0" xmlns="http://www.w3.org/2000/svg"
 width="72.000000pt" height="72.000000pt" viewBox="0 0 72.000000 72.000000"
 preserveAspectRatio="xMidYMid meet">
<metadata>
Created by potrace 1.10, written by Peter Selinger 2001-2011
</metadata>
<g transform="translate(0.000000,72.000000) scale(0.100000,-0.100000)"
fill="#000000" stroke="none">
<path d="M25 640 c-4 -6 -1 -27 6 -47 7 -21 12 -53 11 -71 -1 -27 7 -42 46
-81 116 -118 476 -361 534 -361 79 0 117 124 46 146 -13 3 -98 42 -190 85 -93
42 -168 76 -168 74 0 -3 12 -11 28 -19 23 -13 24 -15 7 -16 -17 0 -17 -2 -5
-10 20 -13 33 -12 24 1 -8 14 -15 17 154 -60 l141 -65 -28 -17 c-37 -23 -44
-35 -37 -65 7 -27 33 -32 69 -12 20 10 21 10 8 -5 -24 -30 -101 -13 -101 22 0
12 -60 70 -72 71 -5 0 -8 -8 -8 -17 -1 -16 -2 -16 -15 1 -11 14 -12 22 -4 27
7 4 -13 23 -49 47 l-61 40 -16 -21 c-16 -22 -16 -21 -11 10 6 37 -10 48 -36
25 -15 -13 -18 -13 -18 -1 0 8 -9 20 -20 27 -12 7 -18 17 -15 22 3 5 0 12 -6
16 -8 4 -9 3 -5 -4 11 -18 -9 -14 -24 3 -7 9 -15 13 -18 11 -2 -3 -18 13 -33
34 -16 22 -36 40 -43 40 -13 0 -26 23 -32 58 -1 6 3 12 10 12 21 0 27 -12 13
-29 -10 -14 -10 -14 5 -3 13 10 17 10 21 0 4 -9 6 -8 6 3 1 9 -6 22 -14 29 -8
7 -15 18 -15 26 0 7 -5 16 -11 20 -8 4 -9 0 -4 -15 5 -15 2 -21 -9 -21 -9 0
-16 9 -16 20 0 11 -3 20 -7 20 -5 0 -9 12 -10 27 l-1 28 19 -24 c21 -25 25
-21 9 10 -11 20 -45 26 -55 9z m385 -380 c22 -11 40 -25 40 -31 0 -6 -17 -1
-37 12 -70 41 -72 54 -3 19z"/>
<path d="M172 469 c29 -25 128 -83 128 -75 0 4 -61 43 -130 83 -24 14 -23 14
2 -8z"/>
</g>
</svg>
