<?xml version="1.0" standalone="no"?>
<!DOCTYPE svg PUBLIC "-//W3C//DTD SVG 20010904//EN"
 "http://www.w3.org/TR/2001/REC-SVG-20010904/DTD/svg10.dtd">
<svg version="1.0" xmlns="http://www.w3.org/2000/svg"
 width="72.000000pt" height="72.000000pt" viewBox="0 0 72.000000 72.000000"
 preserveAspectRatio="xMidYMid meet">
<metadata>
Created by potrace 1.10, written by Peter Selinger 2001-2011
</metadata>
<g transform="translate(0.000000,72.000000) scale(0.100000,-0.100000)"
fill="#000000" stroke="none">
<path d="M205 676 c-35 -39 -54 -70 -48 -79 3 -5 1 -7 -4 -4 -12 8 -73 -57
-73 -77 0 -7 -16 -35 -35 -62 -19 -27 -35 -55 -35 -63 0 -22 20 -81 40 -121 9
-19 23 -58 29 -86 8 -32 18 -51 27 -51 17 0 17 11 4 57 -6 19 -12 53 -14 75
-2 22 -6 50 -10 63 -6 19 -4 22 18 22 19 0 35 -13 64 -53 70 -94 158 -135 251
-117 58 11 89 23 175 66 37 19 71 32 74 29 14 -14 -18 -40 -56 -46 -54 -7 -75
-26 -68 -59 6 -32 -9 -50 -41 -50 -13 0 -32 -9 -43 -20 -11 -11 -26 -20 -33
-20 -15 0 -47 -31 -47 -45 0 -5 9 1 20 13 25 26 45 29 36 5 -6 -17 -5 -17 8
-1 7 10 24 18 37 18 13 0 42 15 64 34 38 33 39 35 25 61 -13 25 -13 28 5 41
10 8 38 14 61 14 62 0 98 47 60 79 -7 6 -16 36 -19 67 -3 30 -14 72 -25 92
l-19 37 -84 -1 c-46 0 -102 -4 -125 -8 -34 -7 -49 -4 -94 19 -40 20 -63 26
-91 22 -24 -3 -45 0 -58 9 -20 14 -20 15 8 62 34 58 42 80 33 86 -4 2 -12 -1
-17 -8z m-43 -141 c17 -21 28 -25 75 -25 40 0 72 -8 111 -26 54 -26 56 -26
105 -10 27 9 70 16 96 15 l46 0 -60 -18 c-63 -18 -130 -49 -122 -57 2 -2 21 3
43 12 44 19 122 34 141 27 22 -9 14 -38 -19 -70 -52 -48 -75 -56 -192 -60 -60
-2 -112 -6 -115 -8 -2 -3 52 -5 120 -5 116 0 127 2 161 25 20 13 46 41 58 60
28 46 42 35 44 -36 l1 -53 -55 -33 c-92 -56 -156 -75 -232 -71 -55 3 -75 9
-109 33 -53 37 -57 50 -22 64 l28 10 -26 -2 c-18 -1 -39 10 -68 36 -36 33 -57
42 -83 38 -5 0 -8 3 -8 9 0 18 68 22 115 7 58 -20 58 -13 1 13 -53 24 -96 25
-136 5 -38 -20 -38 -11 0 32 17 18 30 42 30 51 0 21 27 62 42 62 5 0 19 -11
30 -25z m-100 -200 c0 -8 1 -21 2 -27 1 -7 6 -16 11 -20 6 -5 3 -8 -6 -8 -9 0
-20 14 -26 35 -9 29 -9 35 3 35 8 0 15 -7 16 -15z m636 -59 c4 -18 -14 -46
-30 -46 -6 0 -5 6 2 15 6 8 9 23 5 36 -5 15 -3 20 6 17 8 -3 15 -12 17 -22z
m-178 -181 c-7 -8 -24 -15 -37 -15 -22 0 -24 2 -13 15 7 8 24 15 37 15 22 0
24 -2 13 -15z"/>
</g>
</svg>
