<?xml version="1.0" standalone="no"?>
<!DOCTYPE svg PUBLIC "-//W3C//DTD SVG 20010904//EN"
 "http://www.w3.org/TR/2001/REC-SVG-20010904/DTD/svg10.dtd">
<svg version="1.0" xmlns="http://www.w3.org/2000/svg"
 width="72.000000pt" height="72.000000pt" viewBox="0 0 72.000000 72.000000"
 preserveAspectRatio="xMidYMid meet">
<metadata>
Created by potrace 1.10, written by Peter Selinger 2001-2011
</metadata>
<g transform="translate(0.000000,72.000000) scale(0.100000,-0.100000)"
fill="#000000" stroke="none">
<path d="M150 578 c-79 -107 -160 -334 -129 -362 8 -7 158 -36 334 -65 l320
-52 17 22 c15 17 17 34 13 83 -3 33 -10 129 -16 211 -6 83 -14 153 -17 156 -4
4 -61 12 -126 19 -66 6 -130 16 -143 21 -28 10 -183 8 -176 -3 2 -5 0 -8 -6
-8 -5 0 -17 -7 -26 -16 -9 -9 -19 -13 -23 -10 -4 4 4 16 18 26 19 15 21 20 8
20 -9 0 -30 -19 -48 -42z m300 2 c37 -19 90 -73 90 -91 0 -6 5 -7 10 -4 6 3
10 19 10 35 0 35 25 51 71 46 30 -3 34 -7 37 -39 2 -28 -1 -38 -18 -47 -12 -6
-30 -8 -43 -4 -21 7 -20 8 8 14 35 6 46 37 19 57 -23 16 -37 17 -31 1 4 -12
-44 -93 -77 -130 -9 -10 -27 -18 -41 -18 -14 0 -43 -9 -65 -20 -44 -22 -50
-24 -50 -11 0 11 93 51 119 51 11 0 27 8 37 17 16 16 15 18 -12 30 -16 7 -38
12 -50 13 -12 0 -33 11 -48 25 -32 30 -66 40 -103 30 -35 -8 -73 -43 -73 -67
0 -23 -57 -25 -86 -3 -10 8 -22 15 -26 15 -12 0 -10 -54 3 -87 12 -32 59 -84
69 -78 5 3 24 -2 44 -10 69 -29 175 -16 231 29 18 14 15 14 -20 -1 -60 -25
-178 -22 -232 5 -42 22 -73 55 -73 79 0 9 15 13 43 13 34 0 49 -6 67 -25 25
-27 108 -57 137 -50 85 21 130 38 150 57 l23 21 0 -35 c0 -44 -33 -95 -83
-127 -21 -14 -37 -32 -37 -44 0 -11 -5 -17 -12 -14 -7 2 -12 9 -11 15 1 6 -22
8 -62 4 -181 -14 -309 114 -251 251 16 39 110 107 163 118 53 11 129 1 173
-21z m114 -9 c3 -5 0 -14 -8 -20 -10 -8 -17 -6 -31 9 -18 20 -17 20 8 20 14 0
28 -4 31 -9z m73 -52 c-1 -11 -9 -19 -19 -19 -15 0 -17 4 -9 19 6 10 7 21 3
25 -3 4 1 4 10 1 9 -4 16 -15 15 -26z m-233 -18 c26 -21 20 -66 -11 -91 -22
-17 -37 -21 -66 -17 -54 7 -80 33 -73 71 9 43 23 52 18 12 -3 -28 0 -34 20
-39 42 -12 86 -7 104 10 15 16 15 17 -2 24 -11 4 -40 5 -66 2 -45 -5 -64 6
-38 22 6 4 8 9 6 13 -8 13 92 6 108 -7z m270 -76 c9 -73 17 -215 12 -215 -25
0 -34 14 -29 46 5 27 1 40 -17 59 -13 14 -32 25 -43 25 -13 0 -17 5 -13 16 3
9 6 37 6 62 l0 47 40 0 c39 1 39 0 44 -40z m-564 -110 c19 -31 20 -55 2 -55
-4 0 -13 14 -20 30 -8 17 -21 30 -29 30 -13 0 -13 3 -3 15 18 22 26 19 50 -20z
m521 -35 l6 -35 3 30 c2 26 3 27 7 7 6 -30 -13 -52 -45 -52 -29 0 -62 26 -62
48 0 22 31 42 60 39 20 -2 26 -9 31 -37z m-551 -17 c0 -7 10 -13 23 -13 18 0
19 -2 7 -10 -12 -8 -11 -10 8 -10 12 0 22 6 22 14 0 26 19 28 43 3 21 -20 43
-25 168 -41 79 -9 160 -20 181 -23 27 -4 36 -2 35 8 -1 8 3 14 8 14 6 0 10 -7
10 -15 0 -8 7 -16 15 -17 79 -10 94 -15 77 -25 -10 -5 -26 -6 -35 -2 -22 10
-8 8 -302 45 -140 18 -256 36 -258 40 -2 4 -11 6 -20 4 -9 -1 -11 0 -4 2 7 3
10 9 6 14 -3 5 -7 22 -10 37 -4 26 -3 26 11 8 8 -11 15 -26 15 -33z m416 -34
c8 -14 -11 -33 -25 -25 -11 7 -4 36 9 36 5 0 12 -5 16 -11z m50 -10 c10 -17
-13 -36 -27 -22 -12 12 -4 33 11 33 5 0 12 -5 16 -11z"/>
<path d="M554 273 c3 -8 6 -17 6 -19 0 -2 15 -3 33 -3 17 1 24 3 15 6 -10 2
-18 8 -18 13 0 4 -9 10 -21 13 -15 4 -19 2 -15 -10z"/>
</g>
</svg>
