<?xml version="1.0" standalone="no"?>
<!DOCTYPE svg PUBLIC "-//W3C//DTD SVG 20010904//EN"
 "http://www.w3.org/TR/2001/REC-SVG-20010904/DTD/svg10.dtd">
<svg version="1.0" xmlns="http://www.w3.org/2000/svg"
 width="72.000000pt" height="72.000000pt" viewBox="0 0 72.000000 72.000000"
 preserveAspectRatio="xMidYMid meet">
<metadata>
Created by potrace 1.10, written by Peter Selinger 2001-2011
</metadata>
<g transform="translate(0.000000,72.000000) scale(0.100000,-0.100000)"
fill="#000000" stroke="none">
<path d="M30 688 c0 -6 7 -19 16 -29 14 -16 15 -20 1 -33 -8 -8 -17 -12 -21
-9 -3 4 -6 -3 -6 -15 0 -24 1 -25 24 -16 9 3 16 12 16 20 0 8 7 14 16 14 9 0
12 5 8 13 -4 6 3 3 15 -8 13 -11 24 -20 25 -20 0 1 13 12 29 25 31 27 36 53
10 48 -10 -2 -18 -8 -18 -13 0 -6 -4 -16 -9 -23 -6 -10 -17 -5 -44 22 -35 36
-62 46 -62 24z"/>
<path d="M90 618 c0 -2 85 -89 189 -193 180 -178 189 -189 175 -209 -18 -27
-18 -89 1 -127 32 -60 116 -87 177 -55 19 10 29 11 37 3 16 -16 38 7 23 25 -7
9 -7 19 -2 28 6 8 10 35 10 60 0 62 -28 104 -82 124 -39 15 -49 16 -85 3 l-41
-14 -172 172 c-103 103 -179 172 -189 170 -9 -1 -22 2 -28 8 -7 5 -13 8 -13 5z
m420 -363 c38 22 103 19 134 -6 34 -27 27 -34 -17 -20 -46 15 -97 -5 -123 -48
-26 -44 -44 -48 -44 -8 0 18 5 39 10 47 7 12 -30 55 -173 200 l-182 185 185
-182 c182 -179 185 -182 210 -168z m129 -50 c48 -25 56 -86 17 -132 -20 -23
-32 -28 -69 -28 -74 0 -107 44 -79 106 8 19 16 38 16 43 1 5 9 10 19 12 11 1
21 5 25 8 10 10 42 6 71 -9z"/>
<path d="M581 146 c-14 -14 -21 -29 -17 -33 9 -9 49 32 44 47 -2 6 -13 1 -27
-14z"/>
</g>
</svg>
