<?xml version="1.0" standalone="no"?>
<!DOCTYPE svg PUBLIC "-//W3C//DTD SVG 20010904//EN"
 "http://www.w3.org/TR/2001/REC-SVG-20010904/DTD/svg10.dtd">
<svg version="1.0" xmlns="http://www.w3.org/2000/svg"
 width="72.000000pt" height="72.000000pt" viewBox="0 0 72.000000 72.000000"
 preserveAspectRatio="xMidYMid meet">
<metadata>
Created by potrace 1.10, written by Peter Selinger 2001-2011
</metadata>
<g transform="translate(0.000000,72.000000) scale(0.100000,-0.100000)"
fill="#000000" stroke="none">
<path d="M175 668 c-33 -20 -96 -91 -110 -123 -39 -94 35 -268 165 -389 80
-74 156 -110 243 -114 l69 -4 57 59 c86 88 91 150 24 293 -46 95 -159 212
-248 255 -66 33 -166 44 -200 23z m173 -29 c29 -12 49 -25 47 -29 -3 -5 10
-18 29 -29 48 -30 149 -141 166 -182 8 -19 20 -38 26 -44 16 -13 34 -80 34
-123 0 -45 -22 -83 -65 -116 -32 -25 -42 -27 -83 -21 -156 23 -349 219 -383
388 -14 66 -3 101 43 148 25 25 37 29 82 29 32 0 74 -9 104 -21z m-103 -415
c38 -39 95 -86 125 -103 43 -26 48 -31 25 -26 -52 11 -118 55 -180 120 -66 68
-103 133 -111 192 -5 34 -1 29 33 -37 25 -50 61 -99 108 -146z"/>
<path d="M327 482 c-33 -37 -14 -96 48 -150 110 -97 200 -7 103 103 -55 63
-119 83 -151 47z m108 -22 c18 -12 24 -20 14 -20 -8 0 -26 -11 -39 -25 -27
-28 -65 -33 -74 -9 -8 21 -8 59 1 67 13 14 69 6 98 -13z m33 -79 c5 -31 -11
-45 -42 -37 -32 8 -33 23 -4 48 26 23 42 19 46 -11z m26 -68 c-10 -7 -27 -13
-38 -12 -17 0 -16 2 7 11 16 6 30 20 34 36 l7 27 4 -24 c3 -16 -3 -30 -14 -38z"/>
<path d="M618 236 c-4 -22 -19 -52 -34 -68 -15 -15 -23 -28 -16 -28 16 0 52
41 58 66 3 12 4 33 2 45 -3 18 -5 15 -10 -15z"/>
</g>
</svg>
