<?xml version="1.0" standalone="no"?>
<!DOCTYPE svg PUBLIC "-//W3C//DTD SVG 20010904//EN"
 "http://www.w3.org/TR/2001/REC-SVG-20010904/DTD/svg10.dtd">
<svg version="1.0" xmlns="http://www.w3.org/2000/svg"
 width="72.000000pt" height="72.000000pt" viewBox="0 0 72.000000 72.000000"
 preserveAspectRatio="xMidYMid meet">
<metadata>
Created by potrace 1.10, written by Peter Selinger 2001-2011
</metadata>
<g transform="translate(0.000000,72.000000) scale(0.100000,-0.100000)"
fill="#000000" stroke="none">
<path d="M107 703 c-10 -9 -9 -43 1 -43 12 0 32 23 32 37 0 14 -22 18 -33 6z"/>
<path d="M52 678 c-17 -17 -15 -47 3 -54 8 -4 12 -10 9 -15 -3 -5 -10 -7 -15
-4 -5 4 -9 1 -9 -4 0 -6 -5 -10 -11 -8 -6 1 -13 -6 -14 -15 -5 -26 32 -23 46
4 10 19 12 19 21 5 5 -10 14 -17 19 -17 6 0 7 5 4 10 -9 15 9 12 31 -6 18 -15
18 -15 -3 -9 -13 4 -23 2 -23 -3 0 -5 -9 -12 -20 -15 -22 -6 -28 -37 -6 -37 7
0 20 9 27 21 9 13 20 18 30 14 16 -6 199 -196 289 -300 24 -27 47 -49 51 -48
4 1 10 -4 13 -13 4 -9 2 -12 -5 -8 -7 4 -10 -1 -7 -12 2 -11 9 -19 17 -19 8 0
19 -20 26 -50 14 -54 44 -85 82 -85 31 0 103 69 103 99 0 35 -50 81 -95 88
-22 3 -43 12 -48 19 -4 7 -20 15 -35 19 -18 4 -85 63 -196 174 -162 162 -168
170 -147 182 20 13 30 49 12 49 -10 0 -29 -21 -30 -35 -1 -5 -5 -10 -11 -9
-31 3 -32 5 -17 22 19 21 22 42 7 42 -5 0 -10 -10 -10 -22 0 -20 -3 -19 -38
15 -30 29 -41 34 -50 25z m293 -288 c28 -28 49 -53 48 -55 -2 -3 -1 -4 2 -2 2
1 32 -25 65 -58 33 -33 60 -55 60 -50 0 5 16 -6 35 -25 19 -19 35 -29 35 -22
0 7 7 12 15 12 8 0 15 -4 15 -10 0 -5 -6 -10 -14 -10 -7 0 -19 -6 -25 -13 -8
-11 -4 -19 17 -38 24 -21 25 -22 8 -2 -18 22 -18 23 5 42 33 28 46 26 69 -12
22 -35 26 -52 10 -42 -5 3 -10 0 -10 -8 0 -8 -9 -22 -20 -32 -11 -10 -20 -13
-20 -7 0 6 4 14 10 17 6 3 10 13 10 22 0 11 -5 9 -19 -8 -10 -13 -16 -29 -14
-36 8 -20 -13 -15 -43 10 -22 19 -25 27 -16 43 10 18 -2 34 -103 134 -63 62
-113 117 -112 120 1 4 -20 28 -48 54 -27 26 -41 43 -30 37 11 -5 43 -33 70
-61z"/>
<path d="M480 237 c46 -48 87 -87 89 -87 3 0 -7 13 -22 28 -15 16 -25 31 -22
35 3 4 2 5 -2 2 -4 -3 -34 20 -67 52 -34 32 -23 19 24 -30z"/>
</g>
</svg>
