<?xml version="1.0" standalone="no"?>
<!DOCTYPE svg PUBLIC "-//W3C//DTD SVG 20010904//EN"
 "http://www.w3.org/TR/2001/REC-SVG-20010904/DTD/svg10.dtd">
<svg version="1.0" xmlns="http://www.w3.org/2000/svg"
 width="72.000000pt" height="72.000000pt" viewBox="0 0 72.000000 72.000000"
 preserveAspectRatio="xMidYMid meet">
<metadata>
Created by potrace 1.10, written by Peter Selinger 2001-2011
</metadata>
<g transform="translate(0.000000,72.000000) scale(0.100000,-0.100000)"
fill="#000000" stroke="none">
<path d="M32 687 c-9 -10 -3 -20 29 -46 21 -18 38 -38 37 -45 -3 -15 24 -56
38 -56 7 0 14 -7 18 -15 3 -8 12 -15 20 -15 16 0 290 -300 281 -308 -7 -7 25
-42 39 -42 16 0 56 -62 56 -87 0 -24 29 -53 54 -53 9 0 36 20 61 44 47 48 51
76 12 93 -74 32 -117 57 -117 68 0 14 -34 47 -41 41 -8 -8 -302 264 -316 292
-16 31 -64 72 -76 65 -4 -2 -25 14 -46 37 -31 34 -40 39 -49 27z m172 -149 c8
-15 11 -28 8 -28 -10 0 -37 43 -34 53 1 5 -3 5 -9 1 -13 -7 -31 15 -22 29 7
11 40 -20 57 -55z m269 -256 c34 -35 37 -43 28 -61 -15 -26 -34 -28 -26 -2 3
11 1 22 -5 26 -5 3 -10 15 -10 27 0 13 -5 18 -14 15 -16 -6 -40 16 -30 26 4 4
-4 11 -18 16 -14 5 -28 20 -31 32 -4 13 -9 20 -13 16 -10 -9 -35 13 -28 24 3
5 -6 13 -20 19 -14 5 -26 17 -26 26 0 16 108 -75 193 -164z m43 -90 c-23 -23
-33 -6 -10 19 12 13 20 16 22 9 3 -7 -3 -19 -12 -28z m125 -32 c25 0 24 -12
-3 -37 l-23 -21 -38 44 c-46 53 -41 73 10 39 20 -14 44 -25 54 -25z m49 -28
c0 -17 -84 -92 -93 -83 -5 5 9 26 35 50 43 40 58 49 58 33z"/>
</g>
</svg>
