<?xml version="1.0" standalone="no"?>
<!DOCTYPE svg PUBLIC "-//W3C//DTD SVG 20010904//EN"
 "http://www.w3.org/TR/2001/REC-SVG-20010904/DTD/svg10.dtd">
<svg version="1.0" xmlns="http://www.w3.org/2000/svg"
 width="72.000000pt" height="72.000000pt" viewBox="0 0 72.000000 72.000000"
 preserveAspectRatio="xMidYMid meet">
<metadata>
Created by potrace 1.10, written by Peter Selinger 2001-2011
</metadata>
<g transform="translate(0.000000,72.000000) scale(0.100000,-0.100000)"
fill="#000000" stroke="none">
<path d="M71 695 c-18 -23 -20 -45 -5 -45 8 0 13 -4 10 -9 -9 -14 5 -42 17
-34 6 4 8 0 4 -10 -3 -10 -2 -17 4 -17 6 0 8 -4 5 -9 -10 -16 6 -42 21 -36 21
8 260 -222 262 -252 1 -30 50 -151 64 -160 6 -4 7 -1 2 8 -8 12 -6 12 8 0 20
-16 23 -35 5 -26 -7 4 -2 -3 12 -15 14 -12 18 -19 10 -15 -10 4 -9 2 2 -8 10
-8 14 -18 10 -22 -4 -5 -2 -5 4 -2 6 4 20 0 30 -8 18 -15 18 -15 -1 -9 -18 5
-19 5 -2 -6 10 -6 28 -10 40 -8 45 6 112 181 87 227 -10 19 -112 58 -200 76
-50 10 -260 217 -260 257 0 15 -4 30 -10 33 -5 3 -10 12 -10 18 0 7 4 6 10 -3
5 -8 12 -11 17 -7 10 10 -18 28 -34 22 -7 -2 -10 2 -6 11 4 10 0 12 -13 7 -16
-5 -17 -4 -8 8 17 20 -7 43 -26 26 -10 -9 -12 -8 -7 5 4 12 1 16 -14 15 -11
-1 -24 -6 -28 -12z m34 -15 c3 -5 11 -8 18 -6 7 1 8 1 4 -2 -5 -2 -1 -13 9
-23 14 -15 14 -19 3 -19 -22 0 -59 29 -59 46 0 16 16 19 25 4z m285 -335 c147
-146 193 -186 200 -175 5 8 13 11 17 6 4 -5 2 -11 -4 -13 -18 -6 -16 -23 2
-23 19 0 19 -14 0 -30 -8 -7 -12 -17 -9 -22 4 -6 -2 -8 -12 -6 -12 2 -18 11
-16 24 3 23 -39 67 -60 62 -18 -4 -83 50 -73 60 4 4 10 1 12 -6 3 -7 18 -19
35 -28 34 -18 9 11 -195 221 -91 95 -116 126 -111 140 7 17 8 17 15 -1 4 -10
93 -104 199 -209z m164 -66 c39 -11 79 -30 89 -41 20 -24 15 -37 -7 -19 -18
15 -36 6 -36 -17 0 -15 -1 -15 -17 1 -16 15 -15 18 3 39 l19 23 -23 -19 c-22
-19 -23 -19 -55 11 -17 17 -39 33 -47 36 -38 14 10 5 74 -14z"/>
</g>
</svg>
