<?xml version="1.0" standalone="no"?>
<!DOCTYPE svg PUBLIC "-//W3C//DTD SVG 20010904//EN"
 "http://www.w3.org/TR/2001/REC-SVG-20010904/DTD/svg10.dtd">
<svg version="1.0" xmlns="http://www.w3.org/2000/svg"
 width="72.000000pt" height="72.000000pt" viewBox="0 0 72.000000 72.000000"
 preserveAspectRatio="xMidYMid meet">
<metadata>
Created by potrace 1.10, written by Peter Selinger 2001-2011
</metadata>
<g transform="translate(0.000000,72.000000) scale(0.100000,-0.100000)"
fill="#000000" stroke="none">
<path d="M26 688 c-13 -18 -13 -23 -2 -32 8 -6 21 -24 31 -41 14 -24 14 -26 1
-11 -9 11 -16 15 -16 8 0 -7 9 -17 19 -24 10 -6 17 -18 14 -25 -4 -10 0 -11
20 -4 20 8 29 6 43 -10 9 -10 21 -19 26 -19 5 0 -5 12 -23 28 -18 15 -37 26
-42 24 -5 -1 -6 2 -2 8 3 5 2 10 -4 10 -6 0 -8 7 -5 15 4 9 -2 18 -17 24 -13
5 -20 10 -16 10 4 1 3 10 -3 20 -7 13 -7 22 0 26 6 3 13 -2 16 -12 5 -13 411
-423 415 -419 4 5 11 47 12 69 0 39 12 34 42 -17 21 -37 35 -48 75 -61 76 -25
115 -92 74 -126 -13 -10 -17 -10 -24 1 -5 8 -6 18 -3 23 3 5 9 3 14 -4 7 -11
9 -11 9 -1 0 7 -11 24 -25 38 -25 25 -27 25 -52 9 -14 -9 -23 -13 -19 -7 7 11
-18 35 -27 26 -8 -8 61 -82 84 -89 24 -8 24 -27 -1 -50 -21 -19 -50 -14 -50 8
0 23 -44 59 -57 46 -15 -15 -49 4 -58 31 -4 11 -11 17 -17 14 -7 -4 -8 -2 -4
5 5 7 -7 25 -28 45 -20 18 -36 36 -36 41 0 5 11 -2 25 -15 20 -18 28 -21 37
-12 9 9 9 15 -1 25 -10 10 -11 8 -6 -8 4 -11 -21 8 -55 42 -34 35 -59 66 -56
71 3 5 -19 33 -49 62 -30 30 -55 50 -55 45 0 -5 -14 4 -32 21 l-32 29 31 -40
c18 -22 66 -74 107 -115 42 -41 76 -80 76 -87 0 -12 -49 -11 -69 1 -5 4 -12 0
-14 -6 -3 -8 -6 -6 -6 5 -1 20 19 22 39 5 12 -11 12 -10 1 5 -19 25 -51 22
-51 -4 0 -24 60 -86 108 -111 23 -12 40 -34 57 -72 29 -65 65 -96 112 -96 29
0 45 10 95 58 53 51 60 63 60 96 0 47 -39 91 -95 108 -23 7 -46 23 -55 37 -25
41 -65 81 -80 81 -10 0 -12 -9 -7 -39 3 -21 2 -41 -3 -45 -15 -9 -327 291
-330 319 -2 17 -11 27 -28 31 -14 4 -30 17 -34 30 -12 30 -34 31 -54 2z m509
-656 c11 -6 14 -12 7 -12 -22 0 -51 19 -63 43 l-12 22 24 -21 c13 -12 33 -26
44 -32z"/>
</g>
</svg>
