<?xml version="1.0" standalone="no"?>
<!DOCTYPE svg PUBLIC "-//W3C//DTD SVG 20010904//EN"
 "http://www.w3.org/TR/2001/REC-SVG-20010904/DTD/svg10.dtd">
<svg version="1.0" xmlns="http://www.w3.org/2000/svg"
 width="72.000000pt" height="72.000000pt" viewBox="0 0 72.000000 72.000000"
 preserveAspectRatio="xMidYMid meet">
<metadata>
Created by potrace 1.10, written by Peter Selinger 2001-2011
</metadata>
<g transform="translate(0.000000,72.000000) scale(0.100000,-0.100000)"
fill="#000000" stroke="none">
<path d="M36 692 c-12 -11 -6 -52 8 -52 7 0 19 -7 26 -15 10 -12 10 -15 -4
-15 -19 0 -20 -8 -3 -43 13 -29 37 -37 37 -12 0 28 25 13 88 -55 55 -59 62
-71 53 -88 -19 -36 -13 -81 14 -105 57 -51 64 -55 83 -50 14 3 27 -5 46 -30
29 -37 32 -57 14 -75 -9 -9 -9 -12 0 -12 6 0 18 -15 26 -32 17 -38 50 -78 64
-78 5 0 23 14 40 32 27 26 34 29 47 18 9 -7 14 -19 11 -27 -8 -19 -3 -17 32
14 76 69 94 153 43 204 -16 16 -36 29 -45 29 -8 0 -19 7 -24 16 -7 13 -13 14
-29 5 -31 -16 -88 25 -88 62 1 15 -2 27 -6 27 -4 0 -17 15 -28 34 -29 47 -68
62 -113 43 l-34 -14 -93 82 c-51 46 -93 87 -93 91 0 5 6 10 13 13 8 2 10 -2 5
-14 -5 -13 -2 -16 10 -11 8 3 20 6 25 6 20 0 7 26 -18 38 -35 16 -43 15 -43
-2 0 -8 -6 -16 -12 -19 -18 -5 -48 3 -48 14 0 13 14 11 28 -3 9 -9 12 -8 12 4
0 16 -34 31 -44 20z m144 -132 c15 -16 26 -30 23 -30 -2 0 10 -12 28 -27 18
-16 35 -27 38 -26 3 1 11 -3 16 -7 6 -5 17 -5 25 0 8 6 32 10 52 10 28 0 41
-6 57 -27 12 -16 24 -32 28 -38 5 -5 9 -21 11 -35 1 -13 8 -28 15 -32 8 -5 5
-8 -9 -8 -24 0 -59 24 -122 84 -24 23 -40 34 -37 26 4 -8 35 -40 70 -70 44
-37 61 -58 54 -65 -7 -7 -19 0 -38 20 -15 17 -41 41 -57 55 -16 13 -10 4 14
-21 23 -25 39 -49 35 -54 -5 -4 -3 -5 3 -2 6 4 22 -5 34 -19 25 -26 35 -54 19
-54 -5 0 -9 -6 -9 -12 0 -7 15 3 33 22 26 27 31 38 23 50 -10 13 -9 13 6 1 17
-13 17 -15 0 -44 -9 -16 -25 -32 -35 -35 -17 -4 -17 -6 4 -28 21 -23 19 -44
-6 -44 -8 0 -11 7 -8 20 3 11 -1 28 -8 37 -8 9 -14 24 -14 34 0 9 -51 71 -113
138 -63 67 -110 121 -106 121 5 0 -11 18 -34 39 -23 22 -42 42 -42 45 0 15 25
3 50 -24z m125 -190 l39 -40 -20 -21 -21 -21 -26 44 c-14 24 -26 36 -27 28 0
-9 7 -27 16 -40 l16 -25 -21 24 c-21 24 -26 47 -15 75 9 23 16 20 59 -24z
m169 -92 c-3 -5 -13 -3 -22 4 -10 7 -19 13 -21 15 -1 1 0 7 4 13 5 8 13 6 26
-6 10 -9 16 -21 13 -26z m132 -27 c13 -14 24 -34 24 -43 0 -25 -47 -24 -55 1
-3 10 -17 30 -31 44 l-25 25 23 -5 c19 -4 20 -3 8 7 -12 9 -10 10 9 5 13 -4
34 -19 47 -34z m-46 -53 c0 -5 -7 -8 -16 -6 -10 2 -19 -3 -21 -10 -4 -9 2 -11
21 -6 19 4 28 2 32 -10 5 -14 9 -14 34 -1 44 23 52 19 35 -15 -9 -17 -13 -34
-10 -39 9 -16 -23 -20 -35 -5 -18 21 -41 17 -92 -15 l-47 -30 -14 22 c-30 48
-29 55 11 46 42 -9 87 -2 102 16 8 10 8 15 -1 21 -8 5 -9 3 -4 -6 14 -23 -36
1 -60 28 -21 24 -21 28 -7 50 l15 23 28 -27 c16 -15 29 -32 29 -36z"/>
</g>
</svg>
