<?xml version="1.0" standalone="no"?>
<!DOCTYPE svg PUBLIC "-//W3C//DTD SVG 20010904//EN"
 "http://www.w3.org/TR/2001/REC-SVG-20010904/DTD/svg10.dtd">
<svg version="1.0" xmlns="http://www.w3.org/2000/svg"
 width="72.000000pt" height="72.000000pt" viewBox="0 0 72.000000 72.000000"
 preserveAspectRatio="xMidYMid meet">
<metadata>
Created by potrace 1.10, written by Peter Selinger 2001-2011
</metadata>
<g transform="translate(0.000000,72.000000) scale(0.100000,-0.100000)"
fill="#000000" stroke="none">
<path d="M25 690 c-17 -18 -16 -21 13 -57 16 -21 39 -54 50 -74 11 -20 47 -71
80 -114 40 -52 58 -83 52 -90 -6 -8 63 -65 217 -179 l226 -168 25 25 24 25
-168 226 c-113 152 -171 222 -179 216 -7 -6 -41 15 -99 61 -49 38 -93 69 -98
69 -5 0 -25 12 -44 26 -19 15 -34 24 -34 21 0 -3 50 -43 110 -88 103 -77 125
-102 89 -105 -8 0 -16 -2 -19 -3 -17 -8 -40 -8 -40 0 0 12 -148 159 -161 159
-6 0 -6 7 1 21 9 15 8 24 -1 35 -15 19 -22 18 -44 -6z m156 -179 c46 -48 60
-54 87 -38 6 5 16 6 21 3 5 -3 14 1 21 9 11 13 16 12 41 -8 32 -25 35 -34 14
-34 -8 0 -12 4 -9 9 3 5 2 8 -3 7 -4 -1 -10 0 -13 1 -36 14 -40 6 -11 -24 31
-32 31 -33 11 -51 -11 -10 -17 -21 -15 -26 3 -4 -7 -17 -21 -28 l-27 -21 -14
27 c-8 16 -20 35 -27 43 -8 8 -12 23 -11 32 2 10 -11 30 -28 45 -54 48 -92
103 -70 103 4 0 28 -22 54 -49z m185 -77 c8 -1 16 2 20 7 3 5 10 9 15 9 6 0 7
-5 3 -11 -7 -11 25 -79 38 -79 4 0 -2 16 -13 35 -42 70 -8 32 102 -117 62 -84
117 -159 122 -166 7 -9 4 -19 -10 -34 l-20 -20 -133 114 c-73 62 -143 119
-157 126 l-25 14 26 27 c28 29 36 52 11 31 -24 -20 -18 -5 7 16 12 10 18 13
13 5 -6 -10 -4 -12 4 -6 9 5 3 17 -21 43 -18 20 -25 30 -14 22 10 -8 24 -15
32 -16z"/>
<path d="M232 441 c18 -16 38 -30 43 -31 6 -1 17 -8 26 -16 27 -25 30 -2 3 27
-14 15 -26 30 -25 33 1 5 -4 8 -11 5 -21 -6 -39 -5 -44 2 -3 5 -10 9 -15 9 -5
0 5 -13 23 -29z m45 12 c-4 -4 5 -20 20 -37 16 -17 19 -23 7 -13 -11 9 -23 15
-26 12 -3 -3 -13 5 -24 17 -10 12 -14 18 -7 15 6 -4 14 -3 18 3 3 5 9 10 12
10 4 0 3 -3 0 -7z"/>
<path d="M234 405 c2 -17 26 -44 26 -30 0 4 10 0 23 -11 12 -10 6 -2 -12 19
-40 42 -40 42 -37 22z"/>
<path d="M401 326 c-14 -15 -19 -26 -12 -31 6 -3 11 -3 11 1 0 4 11 -3 25 -16
34 -32 32 -50 -2 -19 l-28 24 24 -27 c13 -15 27 -25 32 -23 4 3 10 1 14 -5 9
-14 38 -12 32 3 -2 6 -11 11 -21 9 -14 -3 -21 9 -17 30 0 5 -2 7 -6 7 -20 -3
-25 2 -14 15 9 10 8 16 -4 26 -8 7 -12 16 -9 21 10 17 -2 9 -25 -15z"/>
</g>
</svg>
