<?xml version="1.0" standalone="no"?>
<!DOCTYPE svg PUBLIC "-//W3C//DTD SVG 20010904//EN"
 "http://www.w3.org/TR/2001/REC-SVG-20010904/DTD/svg10.dtd">
<svg version="1.0" xmlns="http://www.w3.org/2000/svg"
 width="72.000000pt" height="72.000000pt" viewBox="0 0 72.000000 72.000000"
 preserveAspectRatio="xMidYMid meet">
<metadata>
Created by potrace 1.10, written by Peter Selinger 2001-2011
</metadata>
<g transform="translate(0.000000,72.000000) scale(0.100000,-0.100000)"
fill="#000000" stroke="none">
<path d="M155 430 c3 -5 -1 -10 -7 -13 -7 -3 5 -5 27 -4 22 0 51 -3 64 -7 16
-6 21 -5 17 3 -5 7 -1 9 8 5 9 -3 13 -10 10 -15 -3 -5 0 -9 5 -9 15 0 14 30
-1 35 -24 9 -128 13 -123 5z"/>
<path d="M487 433 c-14 -13 -7 -23 11 -15 9 5 28 5 42 1 24 -8 24 -9 -3 -5
-37 5 -25 -6 24 -20 41 -12 54 -9 18 4 -20 8 -20 9 -4 25 15 16 13 17 -33 17
-27 0 -52 -3 -55 -7z"/>
<path d="M615 431 c3 -5 -5 -12 -17 -14 -21 -4 -22 -4 -2 -6 16 -1 21 -8 22
-30 0 -24 -3 -29 -21 -29 -12 1 -28 6 -36 12 -11 8 -13 8 -8 -1 6 -9 -5 -11
-42 -6 -34 4 -56 2 -66 -7 -12 -10 -15 -10 -15 4 0 10 -4 15 -9 12 -11 -7 -55
-13 -145 -21 -57 -4 -73 -2 -90 12 -16 14 -18 14 -8 2 11 -14 7 -17 -25 -23
-77 -12 -102 -8 -109 19 -9 36 2 58 26 52 11 -3 18 -1 14 4 -10 16 -53 9 -64
-10 -13 -25 -13 -121 0 -121 6 0 9 5 8 12 -2 9 37 13 152 15 85 2 171 6 190
10 19 3 106 5 194 4 142 -2 158 0 152 14 -3 9 -6 21 -6 26 0 14 -37 11 -44 -3
-3 -7 -3 1 0 18 3 22 0 37 -11 48 -17 17 -50 23 -40 7z m45 -30 c0 -4 -7 -16
-15 -27 -13 -18 -14 -16 -15 20 0 33 2 37 15 26 8 -7 15 -16 15 -19z"/>
<path d="M302 404 c-1 -18 5 -23 34 -29 20 -3 38 -4 41 -1 3 2 -11 8 -31 11
-20 4 -36 12 -36 17 0 10 17 8 53 -7 9 -4 17 -3 17 3 0 5 -17 14 -38 19 -35 9
-38 8 -40 -13z"/>
<path d="M426 405 c-5 -14 2 -25 16 -25 5 0 6 6 1 13 -4 6 5 4 19 -5 18 -12
29 -14 33 -7 8 13 8 13 -32 27 -24 8 -33 8 -37 -3z"/>
</g>
</svg>
