<?xml version="1.0" standalone="no"?>
<!DOCTYPE svg PUBLIC "-//W3C//DTD SVG 20010904//EN"
 "http://www.w3.org/TR/2001/REC-SVG-20010904/DTD/svg10.dtd">
<svg version="1.0" xmlns="http://www.w3.org/2000/svg"
 width="72.000000pt" height="72.000000pt" viewBox="0 0 72.000000 72.000000"
 preserveAspectRatio="xMidYMid meet">
<metadata>
Created by potrace 1.10, written by Peter Selinger 2001-2011
</metadata>
<g transform="translate(0.000000,72.000000) scale(0.100000,-0.100000)"
fill="#000000" stroke="none">
<path d="M130 692 c0 -12 -14 -42 -32 -67 l-32 -45 -2 -222 c-1 -123 -3 -232
-5 -243 -3 -16 4 -21 46 -27 28 -5 68 -6 90 -3 29 4 36 2 25 -5 -16 -11 18
-15 95 -12 33 1 36 0 20 -8 -16 -9 -14 -10 12 -6 17 3 33 2 35 -2 4 -11 241
-44 248 -35 23 27 30 109 30 323 -1 128 -4 230 -7 226 -4 -3 -6 -43 -6 -89 0
-55 -2 -72 -7 -52 -14 55 -10 122 9 164 10 23 18 55 17 72 -1 37 22 33 -308
44 -227 7 -228 7 -228 -13z m468 -8 c37 -5 52 -11 52 -21 0 -12 -7 -14 -32 -9
-18 4 -131 10 -250 13 -186 4 -218 7 -218 20 0 14 24 15 198 9 108 -4 221 -9
250 -12z m20 -50 c37 -11 19 -29 -32 -32 -25 -2 -45 -6 -42 -10 2 -4 -44 -4
-102 -1 -254 16 -262 17 -262 3 0 -7 -9 -18 -20 -24 -11 -6 -20 -17 -20 -25 0
-26 -19 -26 -26 0 -4 18 -1 32 11 45 17 19 17 20 -4 20 -14 0 -20 4 -15 11 5
9 55 10 178 6 184 -5 192 -2 26 13 -91 8 -80 8 90 5 107 -2 205 -7 218 -11z
m-298 -60 c8 -1 39 -3 68 -3 29 -1 51 -4 49 -8 -3 -5 36 -8 86 -8 102 0 114
-9 76 -55 -20 -24 -20 -24 -14 -2 4 13 2 22 -4 22 -6 0 -11 -7 -11 -15 0 -18
-20 -20 -21 -2 0 8 -2 8 -6 -2 -5 -11 -7 -11 -14 0 -7 12 -9 11 -9 -1 0 -13
-1 -13 -10 0 -9 13 -10 13 -10 0 -1 -8 -7 -1 -15 15 -13 29 -13 30 -14 5 -1
-20 -3 -22 -11 -10 -5 8 -10 10 -10 3 0 -12 -17 -12 -37 0 -8 5 -13 3 -13 -5
-1 -7 -7 1 -15 17 l-13 30 -2 -30 -1 -30 -14 25 c-11 20 -14 21 -15 7 0 -10
-4 -15 -10 -12 -5 3 -10 1 -10 -6 0 -8 -3 -9 -13 0 -8 6 -17 8 -20 4 -4 -3 -7
2 -7 12 0 18 0 18 -14 0 -12 -17 -13 -17 -20 9 -4 15 -4 32 0 38 4 7 3 8 -4 4
-7 -4 -12 -22 -13 -39 0 -27 -2 -29 -9 -12 -8 18 -9 18 -9 2 -1 -16 -3 -16
-23 2 -21 20 -21 21 -3 41 19 21 48 22 135 4z m-103 -78 c10 -2 59 -7 108 -11
50 -3 133 -11 185 -15 52 -5 98 -10 103 -10 13 0 8 -30 -5 -30 -7 0 -89 7
-181 16 -135 14 -170 15 -177 4 -5 -8 -16 -10 -30 -5 -18 6 -20 9 -9 16 9 6 0
9 -27 9 -64 0 -104 11 -104 28 0 12 10 13 59 8 32 -4 67 -8 78 -10z m-93 -52
c10 -4 16 -18 16 -41 0 -20 -4 -32 -10 -28 -5 3 -18 2 -28 -4 -16 -8 -18 -4
-20 35 -2 45 6 52 42 38z m95 -48 l41 -53 -11 -52 c-6 -28 -15 -49 -20 -45 -5
3 -9 0 -9 -7 0 -7 -7 -20 -15 -29 -8 -9 -16 -25 -19 -36 -13 -63 -16 -66 -60
-59 -55 9 -70 25 -24 25 20 0 43 3 52 6 14 5 13 9 -4 31 -31 40 -28 130 5 166
14 15 30 27 35 27 15 0 29 -34 26 -63 -3 -28 -16 -51 -16 -29 0 7 -4 12 -10
12 -11 0 -14 -43 -3 -53 10 -11 43 45 43 73 0 41 -28 73 -57 65 -21 -5 -24 -3
-19 10 3 9 6 28 6 41 0 36 13 30 59 -30z m211 24 c46 -6 90 -10 97 -10 10 0
13 -31 13 -131 l0 -132 -35 6 c-28 5 -35 2 -40 -14 -7 -22 -7 -22 -60 -9 -49
12 -125 3 -119 -14 3 -7 -6 -12 -21 -14 l-25 -2 20 40 c15 30 20 59 20 124 0
46 4 86 9 88 5 2 2 20 -6 40 -9 22 -20 35 -26 31 -6 -3 -7 -1 -3 5 4 7 23 10
49 7 23 -3 80 -10 127 -15z m190 -30 c12 -7 15 -36 15 -149 0 -77 -3 -143 -8
-147 -4 -4 -20 -3 -35 2 -23 8 -27 15 -26 49 1 40 13 117 19 124 9 9 25 -13
25 -34 0 -13 5 -27 10 -30 6 -4 10 18 10 60 0 60 -1 65 -16 51 -25 -26 -51
-20 -51 12 0 15 -4 37 -8 50 -6 19 -4 22 21 22 16 0 36 -5 44 -10z m-357 -172
c-7 -75 -17 -98 -43 -98 -26 0 -25 6 5 46 14 18 25 44 25 58 0 23 9 56 15 56
2 0 1 -28 -2 -62z m-131 -55 c7 -8 7 -13 0 -13 -5 0 -14 6 -19 13 -15 17 -25
85 -16 100 4 7 11 -8 16 -38 4 -27 13 -55 19 -62z m398 -33 c13 -9 10 -14 -14
-34 -28 -24 -86 -40 -86 -25 0 4 12 21 26 38 27 32 48 38 74 21z m59 -56 c18
-4 31 -13 31 -21 0 -12 -7 -14 -31 -9 -17 3 -44 6 -60 6 -19 0 -29 5 -29 15 0
16 34 20 89 9z"/>
</g>
</svg>
