<?xml version="1.0" standalone="no"?>
<!DOCTYPE svg PUBLIC "-//W3C//DTD SVG 20010904//EN"
 "http://www.w3.org/TR/2001/REC-SVG-20010904/DTD/svg10.dtd">
<svg version="1.0" xmlns="http://www.w3.org/2000/svg"
 width="72.000000pt" height="72.000000pt" viewBox="0 0 72.000000 72.000000"
 preserveAspectRatio="xMidYMid meet">
<metadata>
Created by potrace 1.10, written by Peter Selinger 2001-2011
</metadata>
<g transform="translate(0.000000,72.000000) scale(0.100000,-0.100000)"
fill="#000000" stroke="none">
<path d="M124 525 c-7 -17 -34 -21 -34 -5 0 8 -39 16 -40 8 -16 -105 -37 -324
-33 -331 3 -5 18 -7 33 -4 15 3 31 2 36 -2 11 -10 225 4 233 16 3 4 33 8 66 9
72 1 186 10 238 20 25 4 37 3 37 -5 0 -13 36 -15 44 -3 3 5 -3 74 -12 155 -14
128 -18 147 -34 147 -10 0 -18 -6 -18 -14 0 -11 -16 -14 -75 -12 -51 2 -72 -1
-66 -8 10 -14 2 -86 -10 -86 -5 0 -9 6 -10 13 0 6 -1 30 -2 52 l-2 40 -75 2
-75 2 3 -50 c2 -27 0 -57 -4 -67 -6 -11 -10 6 -14 53 -4 63 -7 70 -27 73 -13
2 -23 -1 -23 -7 0 -6 -11 -11 -25 -11 -14 0 -25 6 -25 13 0 18 -79 20 -86 2z
m32 -27 c-3 -18 -7 -38 -8 -45 -1 -7 -5 -10 -10 -7 -10 6 -11 68 -1 77 16 17
25 5 19 -25z m44 5 c0 -31 -12 -63 -21 -57 -5 3 -9 0 -9 -5 0 -6 5 -11 10 -11
13 0 13 -37 1 -45 -15 -9 -26 65 -12 86 6 11 11 26 11 34 0 8 5 15 10 15 6 0
10 -8 10 -17z m91 -25 c2 -55 -1 -71 -12 -82 -5 -6 -9 16 -9 57 0 73 19 95 21
25z m85 5 c-4 -16 -8 -39 -9 -52 -2 -28 -23 -40 -25 -14 -2 45 10 93 25 93 12
0 14 -7 9 -27z m84 -23 c0 -27 -4 -50 -10 -50 -5 0 -10 23 -10 50 0 28 5 50
10 50 6 0 10 -22 10 -50z m133 26 c9 -22 -27 -56 -57 -56 -21 0 -27 4 -24 18
3 12 12 16 31 15 21 -1 27 3 27 18 0 22 15 26 23 5z m63 -58 c-10 -117 -18
-168 -27 -168 -5 0 -11 12 -15 28 -11 50 -13 52 -51 52 -21 0 -49 3 -63 5 -14
3 -19 3 -12 -1 7 -3 12 -26 12 -56 0 -65 -23 -60 -30 7 -3 29 -11 50 -19 53
-9 3 -11 0 -6 -7 12 -21 11 -92 -2 -103 -10 -8 -13 -2 -14 23 -1 19 -2 45 -3
59 -1 21 -6 25 -33 26 l-33 1 0 -58 c0 -44 -4 -59 -14 -59 -19 0 -27 38 -17
82 8 36 6 48 -10 48 -5 0 -6 -6 -4 -12 8 -24 -10 -121 -23 -126 -11 -3 -13 10
-10 64 2 43 -1 69 -8 71 -7 2 -10 -6 -7 -22 7 -35 -6 -115 -18 -115 -7 0 -9
27 -7 70 2 52 0 70 -10 70 -9 0 -12 -17 -10 -59 1 -39 -3 -65 -12 -76 -13 -16
-15 -16 -21 2 -7 17 -4 79 7 130 4 20 10 22 77 22 72 0 257 8 310 14 15 2 36
4 48 5 18 2 20 8 19 45 -2 52 -2 57 6 57 4 0 4 -33 0 -72z m-536 11 c0 -23 -5
-29 -22 -30 -22 -1 -22 -1 2 -10 25 -9 25 -9 -2 -5 -27 3 -28 1 -28 -40 0 -24
5 -44 10 -44 12 0 12 -56 1 -84 -8 -20 -8 -20 -12 0 -4 21 -3 165 2 202 2 12
7 22 11 22 4 0 8 7 8 15 0 9 6 12 15 9 9 -4 15 -19 15 -35z m140 7 c0 -22 -16
-36 -41 -36 -5 0 -9 14 -9 30 0 25 4 30 25 30 20 0 25 -5 25 -24z m170 -1 c0
-18 -5 -25 -20 -25 -15 0 -20 7 -20 25 0 18 5 25 20 25 15 0 20 -7 20 -25z
m208 2 c2 -10 -3 -17 -12 -17 -18 0 -29 16 -21 31 9 14 29 6 33 -14z m-512
-129 c-3 -29 -6 -65 -6 -80 0 -16 -6 -28 -12 -28 -10 0 -12 20 -10 72 2 52 0
69 -7 58 -9 -12 -11 -11 -11 8 0 17 6 22 26 22 26 0 27 -1 20 -52z m49 -22
c-8 -72 -11 -86 -24 -86 -16 0 -21 44 -10 102 8 42 15 55 26 51 11 -4 12 -19
8 -67z m235 -5 c0 -33 -5 -51 -14 -54 -18 -7 -26 24 -19 69 9 54 33 44 33 -15z
m140 -1 c0 -28 -4 -40 -14 -40 -18 0 -23 15 -18 52 7 45 32 35 32 -12z m41 33
c0 -5 2 -19 5 -32 6 -35 -19 -48 -27 -13 -3 15 -3 33 -1 40 4 13 22 17 23 5z"/>
</g>
</svg>
