<?xml version="1.0" standalone="no"?>
<!DOCTYPE svg PUBLIC "-//W3C//DTD SVG 20010904//EN"
 "http://www.w3.org/TR/2001/REC-SVG-20010904/DTD/svg10.dtd">
<svg version="1.0" xmlns="http://www.w3.org/2000/svg"
 width="72.000000pt" height="72.000000pt" viewBox="0 0 72.000000 72.000000"
 preserveAspectRatio="xMidYMid meet">
<metadata>
Created by potrace 1.10, written by Peter Selinger 2001-2011
</metadata>
<g transform="translate(0.000000,72.000000) scale(0.100000,-0.100000)"
fill="#000000" stroke="none">
<path d="M218 687 c-71 -20 -79 -31 -74 -93 8 -94 74 -175 129 -159 19 6 20 6
6 -6 -12 -10 -23 -66 -42 -198 -15 -102 -25 -186 -24 -188 12 -11 152 -25 198
-19 92 12 89 4 59 214 l-26 182 43 21 c58 28 84 73 86 151 l2 63 -40 20 c-51
24 -245 32 -317 12z m286 -21 c106 -24 36 -63 -119 -66 -121 -3 -150 -18 -40
-20 71 -2 81 -4 48 -9 -54 -9 -184 3 -214 21 -24 13 -24 13 11 16 19 2 36 0
37 -5 2 -5 18 -7 36 -5 29 5 28 6 -23 16 -65 13 -73 35 -20 53 43 15 214 14
284 -1z m55 -108 c-18 -80 -68 -121 -164 -134 l-48 -7 23 31 c18 24 22 39 18
70 l-6 40 72 12 c58 9 89 18 112 29 1 1 -2 -18 -7 -41z m-201 -17 c15 -1 16
-45 2 -72 -20 -36 -76 -18 -127 40 -13 14 -23 29 -23 34 0 4 30 5 68 3 37 -2
73 -5 80 -5z m-105 -100 c-6 -10 -54 33 -69 61 -15 29 -13 28 27 -13 24 -24
43 -46 42 -48z m176 -37 c4 -3 34 -212 44 -299 l5 -50 -52 -2 -53 -2 19 38
c12 25 17 48 12 65 -7 31 -24 25 -24 -9 0 -37 -10 -53 -45 -75 -60 -37 -95 -4
-95 89 0 27 1 27 58 23 73 -5 98 11 83 51 -6 16 -11 61 -12 100 0 59 -2 67
-10 47 -6 -14 -9 -59 -7 -100 3 -73 3 -74 -25 -84 -21 -8 -31 -6 -43 6 -14 14
-14 25 -4 91 7 42 10 88 8 102 l-5 26 71 -7 c39 -4 73 -8 75 -10z m-41 -371
c-15 -2 -42 -2 -60 0 -18 2 -6 4 27 4 33 0 48 -2 33 -4z"/>
</g>
</svg>
