<?xml version="1.0" standalone="no"?>
<!DOCTYPE svg PUBLIC "-//W3C//DTD SVG 20010904//EN"
 "http://www.w3.org/TR/2001/REC-SVG-20010904/DTD/svg10.dtd">
<svg version="1.0" xmlns="http://www.w3.org/2000/svg"
 width="72.000000pt" height="72.000000pt" viewBox="0 0 72.000000 72.000000"
 preserveAspectRatio="xMidYMid meet">
<metadata>
Created by potrace 1.10, written by Peter Selinger 2001-2011
</metadata>
<g transform="translate(0.000000,72.000000) scale(0.100000,-0.100000)"
fill="#000000" stroke="none">
<path d="M65 650 l-49 -50 43 -88 c90 -181 234 -369 343 -445 48 -34 68 -41
115 -45 52 -3 62 -1 101 27 83 61 104 140 61 229 -24 48 -114 150 -163 184
-17 12 3 -13 45 -55 121 -119 156 -216 105 -289 l-16 -22 0 21 c0 19 -7 14
-47 -28 -25 -27 -57 -52 -70 -55 -29 -8 -104 20 -129 47 -17 19 -16 22 75 113
70 71 89 95 77 99 -9 4 -16 2 -16 -4 0 -15 -121 -139 -152 -155 -56 -29 -28
11 82 120 60 60 107 112 104 115 -3 3 -16 -6 -29 -21 -13 -16 -26 -28 -28 -28
-3 0 -40 -36 -83 -80 -44 -45 -86 -80 -97 -80 -13 0 13 33 92 116 61 64 109
119 107 122 -3 3 -51 -40 -106 -94 -103 -101 -127 -120 -138 -110 -3 4 45 58
108 121 63 63 112 116 109 119 -2 3 -55 -42 -116 -100 -101 -94 -133 -118
-133 -97 0 4 51 58 112 120 62 62 108 113 102 113 -5 0 -54 -45 -109 -99 -93
-94 -135 -124 -135 -98 0 7 47 59 105 116 57 58 102 107 100 110 -3 2 -50 -40
-105 -95 -91 -90 -130 -119 -130 -97 0 5 45 53 100 108 55 55 100 104 100 109
0 4 -47 -35 -105 -89 -139 -128 -161 -116 -29 16 54 55 94 99 88 99 -5 0 -30
-20 -54 -45 -24 -24 -47 -42 -51 -39 -4 2 -10 -5 -14 -15 -6 -21 -60 -71 -76
-71 -24 0 -2 32 78 112 48 49 83 88 78 88 -6 0 -42 -32 -80 -70 -75 -76 -101
-95 -109 -81 -3 4 28 44 69 87 41 43 74 84 74 89 0 6 -20 -12 -45 -39 l-45
-49 -51 50 c-28 28 -48 56 -44 61 4 6 20 20 35 32 l29 20 89 -44 c48 -25 119
-66 156 -91 38 -25 66 -41 62 -35 -18 30 -295 190 -328 190 -7 0 -35 -23 -62
-50z m51 -95 c22 -19 43 -35 48 -35 11 0 -34 -50 -44 -50 -7 0 -50 96 -50 111
0 14 5 11 46 -26z"/>
<path d="M570 257 c0 -14 -124 -139 -154 -155 -18 -9 -15 -12 25 -30 82 -37
79 -38 149 33 48 48 61 68 53 76 -8 8 -15 4 -26 -17 -17 -33 -61 -76 -95 -94
-48 -24 -34 4 36 72 39 38 69 74 66 79 -8 13 -24 11 -24 -4 0 -19 -111 -124
-140 -132 -18 -5 -3 15 59 78 47 48 81 90 77 96 -10 15 -26 14 -26 -2z"/>
</g>
</svg>
