<?xml version="1.0" standalone="no"?>
<!DOCTYPE svg PUBLIC "-//W3C//DTD SVG 20010904//EN"
 "http://www.w3.org/TR/2001/REC-SVG-20010904/DTD/svg10.dtd">
<svg version="1.0" xmlns="http://www.w3.org/2000/svg"
 width="72.000000pt" height="72.000000pt" viewBox="0 0 72.000000 72.000000"
 preserveAspectRatio="xMidYMid meet">
<metadata>
Created by potrace 1.10, written by Peter Selinger 2001-2011
</metadata>
<g transform="translate(0.000000,72.000000) scale(0.100000,-0.100000)"
fill="#000000" stroke="none">
<path d="M217 703 c-12 -12 -7 -63 8 -87 15 -22 14 -24 -5 -29 -11 -3 -20 -10
-20 -16 0 -9 6 -9 21 0 17 9 23 8 30 -2 12 -20 11 -26 -6 -33 -8 -3 -15 -10
-15 -16 0 -7 6 -8 19 0 29 15 29 14 34 -32 3 -40 4 -40 5 10 1 37 6 52 14 50
13 -5 48 21 48 34 0 14 -22 8 -35 -9 -14 -18 -45 -12 -45 10 0 8 11 19 25 25
14 6 25 16 25 22 0 16 -30 12 -36 -5 -9 -23 -33 -18 -46 11 -9 20 -9 30 0 45
7 10 12 21 12 24 0 7 -26 6 -33 -2z"/>
<path d="M75 580 c-3 -5 -1 -10 5 -10 7 0 59 -39 116 -87 99 -82 107 -91 167
-199 34 -63 67 -114 74 -114 7 0 16 8 21 17 8 14 12 12 26 -15 16 -32 16 -32
-8 -44 -14 -6 -23 -15 -20 -19 3 -5 -2 -6 -10 -3 -23 9 -20 -18 5 -60 25 -42
31 -44 61 -14 13 13 28 22 35 20 7 -2 22 2 34 9 15 8 18 14 10 22 -6 6 -11 22
-11 35 0 13 -4 21 -9 17 -5 -3 -12 4 -16 15 -5 14 -12 19 -24 15 -23 -7 -59
41 -42 58 7 7 24 -2 57 -29 73 -62 94 -76 94 -67 0 5 -27 31 -60 59 -44 36
-78 78 -126 154 -98 157 -89 148 -119 120 -14 -13 -25 -30 -25 -38 0 -10 -6
-9 -22 7 -28 25 -199 161 -204 161 -1 0 -6 -4 -9 -10z m345 -220 c0 -27 -15
-40 -45 -40 -8 0 -24 14 -36 32 l-23 32 23 -16 c27 -19 61 -9 61 18 0 8 5 12
10 9 6 -3 10 -19 10 -35z m47 -92 c9 -8 9 -15 -3 -34 -21 -31 -34 -22 -34 22
0 35 5 37 37 12z m70 -134 c5 -14 -34 -35 -51 -28 -13 5 -12 9 7 25 23 19 38
20 44 3z m23 -38 c0 -6 -69 -46 -78 -46 -12 1 52 50 66 50 6 0 12 -2 12 -4z"/>
<path d="M326 521 c5 -11 3 -13 -9 -8 -14 5 -17 0 -17 -29 l0 -35 30 23 c17
12 30 26 30 32 0 5 -3 6 -7 3 -3 -4 -12 1 -20 11 -8 9 -11 11 -7 3z"/>
</g>
</svg>
