<?xml version="1.0" standalone="no"?>
<!DOCTYPE svg PUBLIC "-//W3C//DTD SVG 20010904//EN"
 "http://www.w3.org/TR/2001/REC-SVG-20010904/DTD/svg10.dtd">
<svg version="1.0" xmlns="http://www.w3.org/2000/svg"
 width="72.000000pt" height="72.000000pt" viewBox="0 0 72.000000 72.000000"
 preserveAspectRatio="xMidYMid meet">
<metadata>
Created by potrace 1.10, written by Peter Selinger 2001-2011
</metadata>
<g transform="translate(0.000000,72.000000) scale(0.100000,-0.100000)"
fill="#000000" stroke="none">
<path d="M300 580 c-13 -8 -13 -10 2 -10 9 0 46 -16 82 -35 36 -19 69 -35 74
-36 15 -2 37 -18 36 -26 -1 -4 5 -17 12 -28 8 -11 14 -14 14 -8 0 6 -7 16 -15
23 -8 7 -12 16 -9 22 3 5 11 4 19 -2 8 -7 20 -8 26 -4 8 4 9 3 5 -4 -4 -7 -2
-13 3 -13 20 -3 26 -5 59 -23 19 -9 41 -15 50 -11 15 5 15 4 2 -8 -8 -8 -73
-33 -145 -56 -72 -23 -191 -62 -265 -87 -74 -24 -144 -44 -155 -44 -18 -1 -19
-1 -2 -11 13 -8 72 9 254 71 130 44 238 78 240 76 2 -2 -58 -25 -134 -51 -152
-53 -221 -78 -331 -120 -55 -21 -76 -25 -85 -16 -8 8 -6 15 9 26 10 8 15 15 9
15 -5 0 -3 5 5 10 12 8 12 10 -5 11 -20 0 -20 0 0 9 20 9 20 9 0 10 -20 1 -20
1 0 10 11 5 27 9 35 9 13 1 13 0 0 -10 -13 -9 -13 -10 0 -6 10 2 15 18 16 51
2 41 -1 49 -22 58 -13 6 -24 15 -24 20 0 11 17 10 25 -2 3 -5 12 -10 18 -9 7
0 2 7 -11 16 -25 18 -32 66 -7 57 8 -4 15 -14 15 -24 0 -11 4 -21 9 -24 5 -4
9 20 8 54 -1 33 3 62 8 64 24 8 -7 18 -39 12 -38 -7 -38 -9 -51 -141 -3 -33
-10 -98 -16 -143 -10 -83 -4 -112 23 -112 6 0 159 55 340 122 286 106 328 125
326 142 -2 14 -49 39 -198 102 -107 46 -194 84 -195 84 0 0 -7 -5 -15 -10z
m-190 -102 c0 -26 -2 -29 -15 -18 -8 7 -15 26 -15 42 0 26 2 29 15 18 8 -7 15
-26 15 -42z m-20 -153 c10 -12 10 -15 -1 -15 -12 0 -12 -2 -1 -9 10 -6 7 -10
-13 -15 -15 -4 -30 -5 -33 -1 -3 3 3 5 14 6 10 0 13 3 7 6 -7 2 -13 9 -13 14
0 6 6 7 13 3 8 -5 8 -2 -2 9 -11 15 -11 17 2 17 8 0 20 -7 27 -15z"/>
<path d="M195 555 c-33 -7 -49 -13 -36 -14 16 -1 21 -6 18 -15 -4 -10 -1 -13
8 -9 8 3 12 9 9 14 -5 9 -4 10 32 14 25 3 67 25 44 24 -8 -1 -42 -7 -75 -14z"/>
<path d="M333 523 c9 -2 15 -9 11 -14 -3 -5 0 -8 8 -7 7 2 12 -2 11 -9 -2 -7
4 -10 12 -7 9 4 15 0 15 -9 0 -16 70 -77 88 -77 6 0 14 -5 18 -11 4 -8 -1 -9
-17 -5 -19 6 -21 5 -7 -4 9 -6 25 -7 38 -2 22 8 21 9 -11 22 -19 8 -60 40 -91
72 -32 32 -66 57 -75 57 -17 -1 -17 -2 0 -6z"/>
<path d="M205 510 c-4 -6 0 -19 9 -29 9 -10 16 -22 14 -27 -1 -5 10 -21 25
-37 17 -16 25 -32 21 -40 -6 -9 -4 -9 7 -2 10 8 26 5 59 -12 27 -13 38 -22 26
-23 -11 0 -17 -2 -14 -5 3 -4 18 -3 33 1 l28 7 -39 16 c-65 26 -139 83 -138
107 1 27 -21 59 -31 44z"/>
<path d="M388 430 c24 -22 49 -40 55 -40 6 0 -8 14 -31 31 -23 17 -42 35 -42
40 0 5 -6 9 -12 9 -7 0 7 -18 30 -40z"/>
<path d="M340 429 c38 -33 89 -63 96 -56 3 2 -8 10 -25 16 -16 7 -41 26 -57
42 -15 16 -33 29 -38 29 -6 0 5 -14 24 -31z"/>
</g>
</svg>
