<?xml version="1.0" standalone="no"?>
<!DOCTYPE svg PUBLIC "-//W3C//DTD SVG 20010904//EN"
 "http://www.w3.org/TR/2001/REC-SVG-20010904/DTD/svg10.dtd">
<svg version="1.0" xmlns="http://www.w3.org/2000/svg"
 width="72.000000pt" height="72.000000pt" viewBox="0 0 72.000000 72.000000"
 preserveAspectRatio="xMidYMid meet">
<metadata>
Created by potrace 1.10, written by Peter Selinger 2001-2011
</metadata>
<g transform="translate(0.000000,72.000000) scale(0.100000,-0.100000)"
fill="#000000" stroke="none">
<path d="M313 703 c20 -2 54 -2 75 0 20 2 3 4 -38 4 -41 0 -58 -2 -37 -4z"/>
<path d="M455 691 c5 -16 -4 -20 -82 -31 -122 -18 -203 -23 -203 -13 0 17 16
31 40 36 17 3 14 5 -10 4 -34 -2 -35 -3 -40 -50 -4 -26 -5 -49 -4 -50 1 -1 38
0 81 2 62 3 72 6 48 12 -19 5 -1 7 50 4 54 -2 69 -1 45 4 l-35 8 35 1 c43 0
153 -15 125 -17 -11 -1 -85 -8 -165 -16 -157 -16 -294 -19 -230 -5 30 6 26 8
-27 9 l-63 1 0 -245 c0 -237 1 -247 22 -275 12 -17 28 -30 35 -30 17 0 17 19
0 26 -9 3 -12 43 -9 172 2 92 6 169 8 171 3 3 24 6 47 6 80 3 286 28 283 34
-2 3 30 7 71 8 l74 1 -3 -66 -3 -67 -65 -11 c-36 -6 -56 -12 -46 -13 11 0 47
4 80 9 53 10 66 8 98 -8 26 -14 34 -22 26 -30 -8 -8 -5 -9 11 -5 28 7 27 -5
-1 -17 -22 -8 -21 -9 7 -10 37 -1 17 -14 -35 -24 -34 -6 -36 -8 -34 -47 1 -37
5 -43 44 -65 68 -39 70 -37 70 74 l0 98 -50 21 c-48 21 -50 23 -49 60 l2 38 7
-40 c9 -53 12 -8 4 62 -6 49 -8 52 -38 56 -17 2 -4 2 29 0 33 -2 68 -1 78 3
25 9 21 49 -8 68 -14 9 -25 22 -25 29 0 6 -16 22 -34 35 -26 18 -45 23 -78 21
l-42 -4 -9 43 c-5 27 -14 42 -23 42 -10 0 -13 -6 -9 -19z m171 -128 c-6 -1
-117 -14 -246 -28 -129 -14 -243 -28 -252 -31 -21 -6 -24 12 -5 31 9 8 19 10
28 4 19 -12 52 -11 44 1 -4 7 3 8 21 4 19 -5 25 -4 20 5 -4 6 -3 11 3 11 5 0
12 -4 15 -9 5 -8 27 -8 46 -1 3 1 13 2 23 1 9 -1 17 3 17 10 0 9 4 8 15 -1 9
-7 22 -9 32 -5 10 5 26 7 36 6 9 -1 17 3 17 10 0 7 4 8 13 2 14 -11 27 -11 44
0 6 4 30 8 53 9 22 1 43 5 46 10 4 5 14 1 24 -9 10 -10 12 -19 6 -20z m-548
-15 c6 -13 14 -33 17 -46 5 -15 12 -21 22 -18 8 3 23 1 34 -4 12 -7 19 -7 19
-1 0 6 15 7 37 4 27 -5 34 -3 28 6 -6 10 -3 11 14 2 15 -8 21 -8 21 -1 0 7 13
9 36 4 27 -5 35 -4 30 5 -4 6 -3 11 3 11 5 0 13 -5 17 -11 4 -7 9 -8 17 0 5 5
23 7 40 4 21 -4 28 -3 23 5 -4 7 -3 12 3 12 5 0 13 -5 17 -11 4 -7 9 -8 17 0
5 5 23 7 40 4 20 -4 28 -3 23 5 -4 7 11 10 48 9 30 -1 54 1 53 4 -1 4 3 8 8
10 6 1 11 -4 13 -13 4 -21 -24 -28 -138 -38 -83 -7 -263 -30 -342 -45 -22 -3
-28 0 -29 13 -1 11 -4 8 -9 -8 l-8 -25 -7 23 c-8 24 -13 26 -35 12 -9 -6 -17
-5 -22 3 -4 7 -8 -53 -9 -133 l-2 -145 -7 141 c-4 78 -11 148 -15 155 -6 9 -4
11 8 6 13 -5 14 -2 5 24 -17 50 8 81 30 37z m599 -420 c-2 -18 -4 -6 -4 27 0
33 2 48 4 33 2 -15 2 -42 0 -60z"/>
<path d="M292 288 l-64 -10 4 -51 3 -51 -67 -11 c-37 -6 -71 -15 -75 -19 -7
-8 70 -2 127 10 20 4 22 3 10 -5 -8 -6 -25 -11 -37 -11 -41 0 -123 -22 -123
-32 0 -11 42 -8 134 8 34 6 38 5 33 -9 -5 -12 9 -27 53 -57 77 -52 89 -47 83
34 l-6 63 102 18 c69 12 101 22 101 32 0 7 -6 13 -12 13 -22 -1 -175 -37 -187
-44 -6 -4 -11 -29 -11 -56 0 -27 -4 -52 -10 -55 -6 -4 -10 13 -10 43 0 55 -10
69 -55 74 -25 3 -30 8 -37 42 -13 59 12 67 74 24 23 -16 34 -17 65 -9 21 5 82
15 137 22 118 15 104 27 -32 28 -59 1 -91 5 -87 11 7 12 -25 11 -113 -2z m18
-158 c9 -16 8 -22 -5 -26 -15 -6 -55 21 -55 38 0 17 50 7 60 -12z"/>
<path d="M510 228 c0 -10 44 -8 85 2 23 5 16 7 -27 6 -32 -1 -58 -4 -58 -8z"/>
</g>
</svg>
