<?xml version="1.0" standalone="no"?>
<!DOCTYPE svg PUBLIC "-//W3C//DTD SVG 20010904//EN"
 "http://www.w3.org/TR/2001/REC-SVG-20010904/DTD/svg10.dtd">
<svg version="1.0" xmlns="http://www.w3.org/2000/svg"
 width="72.000000pt" height="72.000000pt" viewBox="0 0 72.000000 72.000000"
 preserveAspectRatio="xMidYMid meet">
<metadata>
Created by potrace 1.10, written by Peter Selinger 2001-2011
</metadata>
<g transform="translate(0.000000,72.000000) scale(0.100000,-0.100000)"
fill="#000000" stroke="none">
<path d="M90 684 c-19 -14 -40 -32 -47 -40 -15 -20 -6 -44 17 -44 10 0 20 -6
23 -14 3 -8 40 -62 83 -121 56 -79 74 -109 65 -118 -33 -33 19 -108 109 -162
36 -21 55 -50 65 -98 16 -80 104 -102 188 -46 53 35 85 74 93 116 8 40 -31 94
-82 113 -50 18 -70 34 -87 68 -6 14 -23 34 -38 44 -21 16 -30 17 -53 8 -21 -8
-32 -7 -44 2 -8 7 -17 12 -19 11 -1 -2 -6 -3 -10 -3 -5 0 -3 4 4 8 9 6 6 14
-10 32 -13 14 -42 51 -66 83 -24 31 -45 57 -48 57 -6 0 34 -58 59 -86 11 -12
15 -25 10 -28 -5 -3 -21 12 -36 34 -14 22 -29 40 -32 40 -3 0 9 -20 25 -44 17
-24 36 -43 43 -42 7 0 13 -3 13 -9 0 -5 -3 -9 -7 -8 -4 2 -5 -4 -1 -13 5 -13
7 -13 14 -2 7 10 9 10 10 -2 1 -8 0 -19 -1 -25 -1 -5 2 -7 6 -3 4 4 13 3 21
-3 7 -6 13 -8 13 -4 0 5 9 0 19 -9 12 -11 21 -14 26 -7 19 31 75 0 104 -57 7
-12 37 -35 68 -49 31 -15 51 -29 45 -31 -9 -3 -8 -10 3 -25 8 -12 15 -32 15
-44 0 -23 -57 -88 -81 -92 -96 -13 -105 -13 -123 8 -15 17 -16 23 -6 35 10 13
6 21 -22 47 -18 17 -27 28 -19 24 7 -4 -15 31 -50 77 -35 47 -65 82 -67 78 -4
-10 42 -78 69 -103 34 -32 20 -38 -30 -12 -75 38 -103 92 -65 129 14 15 12 20
-21 61 -21 25 -42 42 -48 38 -6 -3 -7 -1 -3 5 6 10 -26 62 -92 149 -13 18 -29
30 -34 27 -6 -4 -9 -1 -6 6 2 8 10 16 18 18 8 3 10 0 5 -8 -5 -8 -3 -11 6 -8
8 3 13 11 11 17 -5 22 37 -8 52 -37 16 -31 62 -57 71 -42 19 31 5 107 -17 94
-5 -4 -16 3 -24 15 -19 27 -40 25 -84 -5z m60 -4 c6 -11 16 -19 23 -17 7 1 12
-5 12 -13 0 -19 -25 -20 -47 -2 -19 16 -25 52 -8 52 5 0 14 -9 20 -20z m411
-640 c-27 -23 -83 -26 -101 -5 -10 12 -7 13 17 6 18 -5 41 -4 63 4 48 17 48
17 21 -5z"/>
<path d="M336 358 c10 -13 27 -29 37 -36 9 -7 17 -18 17 -24 0 -5 14 -29 32
-52 17 -22 33 -43 35 -45 2 -2 6 -1 10 3 4 4 3 10 -3 14 -5 4 -27 32 -48 62
-46 64 -77 100 -90 100 -5 0 -1 -10 10 -22z"/>
<path d="M454 342 c3 -6 0 -12 -8 -14 -10 -2 -3 -17 24 -51 39 -48 39 -48 46
-23 7 30 -14 69 -47 87 -13 6 -19 7 -15 1z"/>
<path d="M562 202 c-7 -9 -10 -11 -6 -3 5 9 3 12 -5 7 -6 -4 -9 -11 -6 -16 3
-5 -20 -27 -50 -48 -33 -24 -51 -43 -45 -47 9 -5 82 43 143 95 4 4 2 12 -5 18
-10 8 -17 7 -26 -6z"/>
</g>
</svg>
