<?xml version="1.0" standalone="no"?>
<!DOCTYPE svg PUBLIC "-//W3C//DTD SVG 20010904//EN"
 "http://www.w3.org/TR/2001/REC-SVG-20010904/DTD/svg10.dtd">
<svg version="1.0" xmlns="http://www.w3.org/2000/svg"
 width="72.000000pt" height="72.000000pt" viewBox="0 0 72.000000 72.000000"
 preserveAspectRatio="xMidYMid meet">
<metadata>
Created by potrace 1.10, written by Peter Selinger 2001-2011
</metadata>
<g transform="translate(0.000000,72.000000) scale(0.100000,-0.100000)"
fill="#000000" stroke="none">
<path d="M282 571 c-48 -58 -96 -116 -106 -129 l-19 -25 22 13 c15 7 37 9 60
5 20 -4 69 -7 109 -6 41 2 72 -2 72 -7 0 -16 -178 -20 -292 -7 l-68 8 0 -32
c0 -20 -7 -35 -20 -43 -29 -18 -27 -66 3 -70 20 -3 22 -8 22 -71 0 -47 4 -67
13 -67 6 0 12 4 12 9 0 16 165 -56 168 -73 2 -9 9 -16 16 -16 10 0 12 14 8 50
-3 37 -1 51 9 54 8 2 79 22 159 44 80 23 153 44 162 47 14 6 18 2 18 -19 0
-14 5 -26 10 -26 6 0 10 23 10 50 0 47 2 50 25 50 24 0 25 3 25 60 l0 60 -62
1 c-62 0 -63 0 -38 17 56 38 93 79 87 96 -5 14 -18 15 -79 12 -51 -4 -62 -3
-38 3 l35 8 -30 2 c-41 2 -103 20 -111 32 -3 6 3 21 15 33 12 12 21 25 21 28
0 4 -29 8 -65 10 l-65 3 -88 -104z m155 50 c-6 -24 30 -64 74 -80 82 -31 84
-32 68 -42 -20 -12 3 -12 38 2 37 14 19 -3 -32 -30 -43 -23 -104 -27 -137 -10
-17 9 -19 8 -16 -8 2 -10 12 -19 23 -20 11 -1 65 -5 120 -9 114 -8 99 -21 -27
-23 -65 -1 -76 -3 -72 -16 4 -8 3 -31 0 -50 -6 -32 -10 -34 -54 -40 -26 -4
-55 -9 -64 -12 -27 -7 -22 9 15 47 l32 33 -30 -16 c-16 -8 -45 -31 -63 -51
-34 -37 -62 -47 -62 -21 0 8 6 15 14 15 8 0 17 4 20 8 3 5 -8 6 -25 4 -23 -3
-29 -9 -29 -29 0 -22 -3 -24 -22 -19 -13 4 -54 15 -92 25 -38 10 -64 21 -58
25 5 3 18 3 29 0 17 -5 17 -5 0 9 -18 15 -18 15 2 22 12 3 21 12 21 18 0 9 2
9 8 1 4 -6 39 -18 79 -26 65 -13 73 -13 86 2 8 10 11 24 6 36 -7 18 -8 18 -8
0 -1 -14 -6 -17 -23 -12 -13 3 -54 9 -91 12 -37 4 -70 11 -74 17 -4 6 15 7 53
1 82 -11 129 -11 127 1 -1 6 31 9 82 8 l83 -2 -34 96 c-21 57 -32 104 -28 115
4 15 3 18 -6 13 -9 -5 -11 -4 -6 4 4 6 11 9 16 6 5 -3 11 -1 15 5 3 5 15 10
27 10 15 0 19 -5 15 -19z m-94 -3 c-51 -67 -126 -158 -130 -158 -6 0 -3 5 72
98 33 39 61 72 63 72 3 0 0 -6 -5 -12z m41 -105 c9 -26 16 -50 16 -55 0 -4
-29 -8 -65 -8 -80 0 -89 13 -50 70 21 30 34 40 55 40 24 0 30 -6 44 -47z m306
-147 c0 -28 -5 -36 -30 -46 -18 -8 -30 -20 -30 -31 0 -11 -6 -19 -14 -19 -8 0
-87 -20 -175 -44 l-161 -43 0 23 c0 20 8 24 58 34 118 24 135 29 142 40 4 6
35 14 68 17 34 3 59 10 56 14 -3 5 -1 9 4 9 9 0 23 31 26 55 1 14 18 25 39 25
13 0 17 -8 17 -34z m-70 16 c0 -23 -40 -43 -77 -40 -43 3 -47 17 -12 35 27 14
89 17 89 5z m-465 -142 c32 -11 69 -20 82 -20 17 0 23 -6 23 -23 0 -33 -77
-50 -132 -29 -35 14 -38 18 -38 54 0 21 2 38 3 38 2 0 30 -9 62 -20z m105
-105 c0 -16 -9 -19 -34 -9 -20 8 -11 24 15 24 10 0 19 -7 19 -15z"/>
<path d="M390 567 c10 -10 123 -68 127 -64 7 7 -72 56 -102 63 -16 4 -28 4
-25 1z"/>
</g>
</svg>
