<?xml version="1.0" standalone="no"?>
<!DOCTYPE svg PUBLIC "-//W3C//DTD SVG 20010904//EN"
 "http://www.w3.org/TR/2001/REC-SVG-20010904/DTD/svg10.dtd">
<svg version="1.0" xmlns="http://www.w3.org/2000/svg"
 width="72.000000pt" height="72.000000pt" viewBox="0 0 72.000000 72.000000"
 preserveAspectRatio="xMidYMid meet">
<metadata>
Created by potrace 1.10, written by Peter Selinger 2001-2011
</metadata>
<g transform="translate(0.000000,72.000000) scale(0.100000,-0.100000)"
fill="#000000" stroke="none">
<path d="M63 683 c-23 -9 -14 -44 17 -70 17 -13 28 -28 26 -32 -3 -4 7 -8 22
-9 18 -1 51 -27 104 -79 43 -42 76 -79 74 -80 -2 -2 23 -29 55 -60 33 -31 59
-63 59 -72 0 -13 2 -13 9 -3 6 10 10 6 14 -15 4 -22 11 -28 30 -28 23 0 19 6
-39 67 -36 37 -63 72 -59 78 4 6 23 -8 45 -32 64 -71 85 -89 88 -78 5 14 -18
41 -28 35 -5 -3 -11 -1 -15 5 -3 5 3 10 15 10 14 0 26 -11 35 -32 8 -18 14
-26 15 -18 0 23 -29 60 -47 60 -29 0 -313 270 -316 300 -1 10 -5 16 -9 14 -9
-6 -50 21 -43 28 3 2 -2 5 -10 5 -8 0 -12 -4 -10 -8 3 -3 -1 -12 -9 -18 -11
-9 -13 -6 -11 14 2 14 3 25 2 24 -1 0 -8 -3 -14 -6z m80 -74 c-6 -23 -28 -25
-37 -4 -3 8 0 14 7 12 7 -1 11 3 10 10 -2 7 3 10 11 7 8 -3 12 -14 9 -25z
m101 -92 c33 -34 78 -76 99 -91 27 -21 35 -32 27 -40 -8 -8 -29 9 -76 59 -36
39 -80 85 -97 103 -17 17 -27 32 -23 32 5 0 36 -28 70 -63z"/>
<path d="M10 593 c2 -20 50 -146 51 -133 1 16 16 -26 18 -50 1 -13 0 -13 -10
0 -8 11 -9 9 -3 -10 21 -79 57 -109 165 -140 96 -28 118 -45 130 -100 26 -115
125 -159 233 -103 41 21 76 62 76 88 0 12 9 34 20 48 20 25 20 28 4 59 -19 38
-73 98 -88 98 -6 0 -1 -8 11 -18 21 -17 63 -80 63 -95 0 -5 -15 -6 -32 -2 -29
5 -30 4 -13 -6 11 -7 21 -13 23 -14 1 -1 0 -10 -4 -19 -5 -13 -14 -16 -30 -12
-31 8 -30 -6 1 -35 24 -23 35 -46 16 -34 -5 3 -13 0 -16 -6 -5 -6 -18 2 -36
23 -27 31 -40 30 -19 -2 13 -21 -24 -39 -82 -40 -55 0 -68 11 -93 76 -26 71
-50 92 -130 116 -95 28 -132 52 -140 89 -9 38 -4 42 29 30 14 -6 26 -7 26 -2
0 5 -3 11 -7 13 -14 6 -63 69 -63 81 0 6 10 1 23 -10 25 -23 89 -57 127 -67
14 -4 -6 9 -44 29 -86 45 -111 64 -148 115 -26 35 -59 54 -58 33z m581 -526
c-15 -15 -100 -15 -126 1 -16 10 -9 11 36 6 33 -4 64 -2 75 4 23 13 32 6 15
-11z"/>
<path d="M201 401 c-9 -6 -11 -18 -7 -36 6 -22 11 -26 39 -23 26 2 31 7 29 23
-3 18 -28 45 -41 45 -3 0 -12 -4 -20 -9z"/>
<path d="M286 342 c25 -23 84 -52 84 -43 0 13 -59 51 -79 51 -9 0 -11 -3 -5
-8z"/>
<path d="M520 179 c-7 -11 -9 -24 -5 -27 7 -7 35 25 35 40 0 16 -19 8 -30 -13z"/>
</g>
</svg>
