<?xml version="1.0" standalone="no"?>
<!DOCTYPE svg PUBLIC "-//W3C//DTD SVG 20010904//EN"
 "http://www.w3.org/TR/2001/REC-SVG-20010904/DTD/svg10.dtd">
<svg version="1.0" xmlns="http://www.w3.org/2000/svg"
 width="72.000000pt" height="72.000000pt" viewBox="0 0 72.000000 72.000000"
 preserveAspectRatio="xMidYMid meet">
<metadata>
Created by potrace 1.10, written by Peter Selinger 2001-2011
</metadata>
<g transform="translate(0.000000,72.000000) scale(0.100000,-0.100000)"
fill="#000000" stroke="none">
<path d="M81 691 c-8 -5 -9 -11 -3 -15 11 -7 5 -43 -10 -52 -5 -3 -15 -1 -23
6 -22 18 -29 -7 -8 -29 18 -19 64 -24 89 -9 15 10 11 59 -6 86 -16 24 -19 25
-39 13z"/>
<path d="M208 529 c34 -36 59 -68 55 -72 -4 -4 -36 21 -72 55 -76 73 -39 28
69 -85 41 -43 77 -82 78 -87 2 -6 7 -10 11 -10 10 0 8 31 -4 49 -5 10 -4 12 3
7 33 -20 4 18 -55 74 -117 110 -150 137 -85 69z m82 -80 c0 -5 -6 -7 -12 -3
-7 5 2 -9 20 -29 43 -51 41 -60 -4 -15 -20 20 -33 41 -30 47 9 14 26 14 26 0z"/>
<path d="M366 362 c-3 -5 29 -42 70 -83 60 -60 76 -71 84 -59 28 44 -7 109
-51 95 -23 -8 -23 -8 9 -36 18 -16 32 -37 32 -46 0 -13 -18 0 -57 41 l-57 58
25 14 c39 21 54 17 102 -31 31 -30 55 -45 72 -45 30 0 85 -49 85 -76 0 -16
-20 -83 -28 -94 -2 -3 -11 6 -21 18 -17 23 -17 23 -35 3 -17 -19 -17 -20 3
-31 12 -6 21 -14 21 -18 0 -10 -66 -42 -86 -42 -24 0 -73 58 -80 95 -3 19 -21
48 -45 71 -30 29 -39 46 -39 71 0 18 5 33 11 33 5 0 7 5 4 11 -10 15 -34 -20
-35 -49 0 -14 17 -39 43 -65 33 -31 45 -52 50 -84 8 -49 53 -93 96 -93 38 0
103 45 135 93 54 84 20 152 -85 171 -26 4 -45 18 -68 46 -33 41 -74 53 -98 29
-8 -8 -17 -8 -31 0 -12 6 -23 7 -26 3z"/>
<path d="M405 250 c-6 -18 -2 -28 15 -42 21 -17 60 -25 60 -12 0 3 -15 21 -34
41 -34 36 -34 36 -41 13z"/>
<path d="M587 223 c-4 -3 -7 -12 -7 -19 0 -7 -11 -24 -25 -38 -14 -14 -25 -23
-25 -20 0 2 -9 0 -20 -6 -11 -6 -18 -15 -15 -21 11 -17 35 -9 47 16 6 13 14
23 17 22 3 -2 19 9 34 23 23 22 26 29 14 38 -8 7 -17 9 -20 5z"/>
</g>
</svg>
