<?xml version="1.0" standalone="no"?>
<!DOCTYPE svg PUBLIC "-//W3C//DTD SVG 20010904//EN"
 "http://www.w3.org/TR/2001/REC-SVG-20010904/DTD/svg10.dtd">
<svg version="1.0" xmlns="http://www.w3.org/2000/svg"
 width="72.000000pt" height="72.000000pt" viewBox="0 0 72.000000 72.000000"
 preserveAspectRatio="xMidYMid meet">
<metadata>
Created by potrace 1.10, written by Peter Selinger 2001-2011
</metadata>
<g transform="translate(0.000000,72.000000) scale(0.100000,-0.100000)"
fill="#000000" stroke="none">
<path d="M344 634 c-10 -14 -20 -53 -23 -86 l-6 -60 -141 -51 c-81 -29 -146
-59 -153 -69 -8 -13 -4 -35 18 -95 24 -64 33 -78 50 -77 16 0 21 -5 21 -26 0
-28 64 -100 89 -100 24 0 342 171 336 181 -4 5 2 6 11 2 13 -5 15 -3 9 7 -5 9
-4 11 3 6 17 -10 153 66 150 84 -2 8 -27 30 -56 50 -46 30 -58 45 -82 100 -17
40 -33 64 -41 62 -8 -1 -54 -17 -104 -36 -102 -38 -103 -37 -85 50 14 68 33
78 70 37 15 -17 29 -36 32 -44 4 -13 28 -5 28 10 0 10 -90 81 -101 81 -5 0
-16 -12 -25 -26z m204 -113 c9 -26 8 -28 -9 -24 -13 4 -19 0 -19 -11 0 -10 -5
-13 -16 -9 -10 4 -20 -1 -26 -11 -5 -9 -15 -13 -21 -10 -7 4 -6 1 2 -7 10 -11
15 -11 18 -1 3 6 10 9 15 6 7 -4 8 -2 4 4 -4 7 2 10 14 9 17 -1 20 -6 15 -27
-9 -34 -13 -36 -36 -22 -11 7 -24 10 -29 7 -4 -3 -10 1 -13 7 -4 10 -7 10 -18
1 -10 -10 -10 -17 1 -38 7 -14 11 -26 9 -28 -23 -15 -150 -70 -154 -66 -2 3
-6 20 -7 39 -3 33 -1 34 71 65 40 18 69 35 63 39 -6 3 -32 -3 -59 -15 -85 -37
-92 -39 -99 -27 -4 6 -3 9 2 6 16 -9 44 6 36 19 -6 10 -13 9 -30 -2 -18 -13
-20 -20 -11 -43 9 -23 7 -29 -11 -44 -27 -22 -41 -23 -34 -3 4 8 12 15 20 15
8 0 14 6 14 14 0 11 -5 12 -24 3 -17 -8 -24 -19 -23 -37 2 -20 -3 -25 -21 -26
-13 -1 -33 -11 -46 -23 -12 -11 -25 -21 -29 -21 -8 0 -33 56 -41 92 -6 25 -2
27 53 46 58 20 59 20 64 1 3 -10 10 -19 16 -19 7 0 7 8 1 24 -8 21 -6 26 11
31 11 4 23 4 26 1 4 -3 -1 -6 -10 -6 -10 0 -17 -2 -17 -4 0 -13 13 -36 21 -36
4 0 6 7 3 15 -4 8 -1 15 5 15 6 0 11 7 11 16 0 9 6 14 12 12 7 -3 19 2 27 9 7
8 20 12 27 9 8 -3 14 -2 14 2 0 4 8 8 18 8 9 1 22 3 27 5 6 2 12 0 15 -4 9
-15 -67 -36 -81 -23 -9 8 -9 6 0 -11 11 -22 11 -22 54 -4 36 16 42 22 39 45
-1 14 2 26 8 26 6 0 9 -4 5 -9 -9 -15 15 -25 28 -12 9 9 9 14 -1 20 -10 6 -9
10 7 14 14 3 21 0 21 -9 0 -8 5 -14 10 -14 9 0 14 14 11 33 -2 13 11 7 25 -10
13 -17 14 -17 20 5 8 28 10 28 22 -7z m28 -110 c-3 -5 1 -14 9 -21 11 -9 12
-16 5 -25 -15 -18 8 -25 38 -12 27 12 29 27 3 27 -10 0 -24 7 -31 15 -7 8 -10
15 -6 15 10 0 96 -44 96 -49 0 -13 -400 -217 -408 -209 -6 6 -23 1 -43 -12
-32 -20 -33 -20 -6 -14 35 8 35 -2 -1 -20 -28 -15 -30 -14 -73 30 l-44 46 35
-20 c40 -22 66 -21 89 4 9 9 10 14 4 10 -8 -4 -13 -1 -13 8 0 8 -6 16 -12 19
-18 6 -39 -3 -32 -14 10 -17 -3 -9 -22 13 -10 12 -14 18 -7 15 6 -4 14 -1 16
5 4 10 8 10 15 -1 7 -9 12 -10 16 -2 5 7 19 2 42 -15 19 -15 38 -24 41 -20 4
4 1 11 -7 16 -8 6 -11 10 -6 10 5 0 3 7 -4 15 -6 8 -9 19 -5 25 7 12 3 12 -19
4 -13 -5 -12 -9 7 -25 12 -10 16 -18 10 -19 -7 0 -21 8 -32 19 -18 18 -18 19
16 35 19 9 40 13 46 9 7 -4 19 -6 28 -5 9 2 22 -5 30 -15 12 -15 12 -16 -4
-10 -11 4 -16 3 -12 -3 3 -6 1 -10 -6 -10 -10 0 -10 -3 0 -12 11 -11 14 -10
18 0 3 6 9 10 14 6 5 -3 9 0 9 6 0 6 5 8 11 4 7 -4 10 -2 8 5 -3 7 -9 13 -14
13 -13 0 -35 18 -35 29 0 5 7 9 15 9 8 0 15 5 15 12 0 9 3 9 11 1 6 -6 17 -9
24 -7 6 3 12 -2 12 -11 0 -17 -18 -20 -34 -4 -8 8 -13 7 -18 -3 -5 -7 -5 -10
0 -6 4 4 17 1 29 -7 25 -18 40 -19 30 -3 -5 8 -2 9 9 5 21 -8 22 0 2 19 -22
22 -8 40 31 40 30 -1 33 -2 17 -13 -9 -7 -21 -13 -27 -13 -6 0 -5 -5 1 -11 9
-9 20 -9 43 1 29 12 30 14 14 31 -9 10 -22 15 -30 12 -9 -3 -14 2 -14 16 0 16
13 27 53 46 60 28 60 28 53 16z m-308 -103 c-3 -7 -10 -13 -16 -13 -6 0 -21
-8 -32 -18 -12 -10 -34 -19 -51 -20 -16 -1 -31 -8 -34 -14 -6 -17 -25 -17 -25
0 0 8 18 20 39 27 22 7 52 21 68 31 32 22 57 25 51 7z"/>
<path d="M117 393 c-11 -3 -16 -10 -13 -20 3 -8 6 -17 6 -19 0 -2 5 -4 11 -4
5 0 7 5 4 11 -4 6 1 17 11 24 19 15 14 17 -19 8z"/>
<path d="M365 378 c-59 -20 -80 -31 -69 -35 12 -4 104 33 104 42 0 3 -1 5 -2
4 -2 -1 -16 -6 -33 -11z"/>
<path d="M108 323 c-19 -5 -24 -28 -8 -38 6 -4 7 1 3 11 -5 14 -3 16 11 11 10
-4 24 -1 32 8 14 13 13 15 -3 14 -10 -1 -26 -3 -35 -6z"/>
<path d="M518 382 c-45 -20 -49 -32 -10 -28 33 4 54 -3 46 -15 -3 -5 -10 -7
-15 -4 -5 4 -9 1 -9 -5 0 -7 7 -9 16 -6 9 3 21 6 27 6 7 1 1 9 -12 20 -12 11
-28 17 -34 13 -5 -3 -7 -1 -4 4 4 6 20 9 37 7 28 -3 29 -2 16 11 -8 8 -16 15
-18 14 -2 0 -20 -8 -40 -17z"/>
</g>
</svg>
