<?xml version="1.0" standalone="no"?>
<!DOCTYPE svg PUBLIC "-//W3C//DTD SVG 20010904//EN"
 "http://www.w3.org/TR/2001/REC-SVG-20010904/DTD/svg10.dtd">
<svg version="1.0" xmlns="http://www.w3.org/2000/svg"
 width="72.000000pt" height="72.000000pt" viewBox="0 0 72.000000 72.000000"
 preserveAspectRatio="xMidYMid meet">
<metadata>
Created by potrace 1.10, written by Peter Selinger 2001-2011
</metadata>
<g transform="translate(0.000000,72.000000) scale(0.100000,-0.100000)"
fill="#000000" stroke="none">
<path d="M73 700 c-34 -14 -28 -45 16 -80 46 -37 58 -88 41 -166 -21 -92 -29
-197 -19 -246 13 -58 56 -119 110 -155 37 -25 50 -27 133 -27 79 0 97 3 123
22 31 22 143 62 176 62 9 0 17 7 17 15 0 17 -21 20 -36 6 -10 -10 -86 -33 -91
-27 -2 1 5 18 14 37 23 45 23 134 1 178 -10 19 -18 42 -18 51 0 29 -32 48
-109 65 -61 14 -81 15 -114 5 -45 -13 -90 -40 -83 -48 3 -3 12 1 21 8 24 20
28 6 5 -20 -11 -13 -20 -35 -20 -49 0 -18 -8 -30 -25 -37 -23 -11 -24 -10 -23
11 1 13 5 22 9 19 4 -2 10 3 13 12 3 8 2 12 -4 9 -16 -10 -12 11 5 25 8 7 12
16 9 21 -3 5 18 34 47 64 47 50 56 55 95 55 83 0 96 25 42 76 -84 79 -270 141
-335 114z m215 -65 c44 -21 93 -51 109 -67 l28 -29 -54 3 c-43 2 -60 9 -84 31
-16 15 -33 27 -38 27 -5 0 -9 9 -9 21 0 12 -4 17 -11 14 -6 -4 -8 -13 -5 -21
10 -26 -104 -6 -136 24 -16 14 -28 30 -28 35 0 6 31 8 74 5 58 -4 90 -13 154
-43z m-18 -68 c33 -16 32 -27 -9 -73 -18 -21 -47 -67 -63 -102 -24 -52 -29
-76 -31 -150 -1 -48 1 -96 6 -107 4 -11 -2 -2 -13 20 -17 33 -20 52 -16 110 7
87 28 161 61 209 29 43 30 47 10 40 -27 -11 -58 -76 -76 -158 -15 -71 -17 -76
-18 -38 -1 24 6 75 15 114 9 39 14 91 11 116 l-5 44 52 -7 c28 -3 62 -12 76
-18z m128 -153 c28 -6 29 -8 21 -37 -5 -18 -9 -45 -8 -62 l1 -30 13 30 c8 17
14 40 15 51 0 12 8 28 17 35 9 8 14 9 10 2 -4 -6 4 -20 19 -32 30 -23 24 -41
-13 -41 -16 0 -27 -7 -30 -20 -3 -11 -8 -20 -12 -20 -3 0 -7 -21 -8 -46 -2
-47 -26 -98 -44 -92 -13 4 -13 1 -4 71 4 31 11 57 16 57 11 0 11 -12 0 -67 -5
-24 -4 -43 0 -43 5 0 9 3 9 8 0 4 3 31 6 60 4 34 3 52 -5 52 -6 0 -8 7 -5 15
7 18 -23 32 -38 17 -7 -7 -6 -17 2 -32 8 -15 9 -38 4 -69 -6 -40 -8 -43 -14
-21 -6 20 -9 22 -14 9 -4 -9 -6 -22 -4 -29 2 -7 -3 -15 -11 -18 -10 -3 -12 0
-8 11 3 9 9 33 13 54 4 21 11 43 16 50 12 15 2 33 -19 33 -10 0 -13 6 -9 16 4
9 -1 28 -10 42 -12 18 -13 23 -2 20 7 -3 18 -20 25 -39 9 -28 12 -31 18 -16
10 24 -10 67 -30 67 -9 0 -13 5 -10 10 7 11 48 13 93 4z m-108 -59 c15 -18 6
-45 -14 -45 -17 0 -25 18 -18 43 5 21 16 22 32 2z m250 -61 c6 -14 10 -42 10
-62 l-1 -37 -14 26 c-7 14 -30 34 -49 44 -20 11 -35 24 -33 30 3 8 31 18 70
24 4 0 12 -11 17 -25z m-227 -52 c-3 -29 -10 -52 -15 -52 -8 0 -4 48 9 93 9
34 13 11 6 -41z m-45 36 c14 -14 15 -47 3 -67 -12 -19 -57 -6 -72 21 -10 18
-8 24 11 40 26 21 41 23 58 6z m248 -70 c22 -43 4 -68 -47 -68 l-41 0 7 43
c12 76 13 78 41 65 14 -7 32 -25 40 -40z m-322 -4 c3 -9 4 -20 1 -25 -3 -4 7
-11 22 -14 15 -4 38 -11 51 -17 22 -12 30 -28 12 -28 -5 0 -7 -13 -3 -30 3
-16 1 -30 -4 -30 -23 0 -102 104 -89 117 3 3 1 14 -5 24 -6 11 -6 19 0 19 5 0
12 -7 15 -16z m156 -74 c13 0 13 1 0 10 -17 11 -10 13 14 4 9 -3 16 -14 16
-24 0 -20 -26 -34 -35 -20 -4 6 -14 10 -25 10 -13 0 -17 5 -13 21 4 14 9 17
16 10 6 -6 18 -11 27 -11z m161 -24 c-20 -24 -115 -70 -119 -58 -5 15 -32 16
-32 2 0 -5 -4 -10 -10 -10 -5 0 -7 6 -4 14 3 7 -2 16 -12 20 -13 5 -15 2 -11
-14 7 -26 -16 -37 -46 -22 -20 11 -20 11 6 6 15 -4 27 -2 26 2 -5 27 2 46 15
41 8 -3 31 -9 50 -13 29 -5 36 -3 36 10 0 9 -6 16 -12 16 -9 1 -7 5 3 13 22
17 124 10 110 -7z"/>
</g>
</svg>
