<?xml version="1.0" standalone="no"?>
<!DOCTYPE svg PUBLIC "-//W3C//DTD SVG 20010904//EN"
 "http://www.w3.org/TR/2001/REC-SVG-20010904/DTD/svg10.dtd">
<svg version="1.0" xmlns="http://www.w3.org/2000/svg"
 width="72.000000pt" height="72.000000pt" viewBox="0 0 72.000000 72.000000"
 preserveAspectRatio="xMidYMid meet">
<metadata>
Created by potrace 1.10, written by Peter Selinger 2001-2011
</metadata>
<g transform="translate(0.000000,72.000000) scale(0.100000,-0.100000)"
fill="#000000" stroke="none">
<path d="M42 677 l-22 -24 250 -245 c137 -134 273 -273 301 -309 28 -35 55
-68 60 -73 9 -10 69 39 69 55 0 5 -20 22 -45 39 -44 30 -206 189 -464 453 -68
70 -125 127 -126 127 -1 0 -11 -11 -23 -23z m112 -113 c116 -111 173 -174 156
-174 -13 0 -270 249 -270 262 0 17 15 5 114 -88z m205 -203 c13 -10 22 -23 20
-30 -3 -7 -16 0 -34 19 -32 33 -24 40 14 11z m76 -77 c36 -47 26 -53 -20 -13
-27 24 -33 34 -23 40 7 5 14 9 14 9 1 0 14 -16 29 -36z m162 -161 c31 -34 40
-49 31 -55 -8 -5 -18 -1 -25 10 -7 9 -21 26 -31 37 -40 46 -45 55 -31 55 7 0
33 -21 56 -47z"/>
</g>
</svg>
