<?xml version="1.0" standalone="no"?>
<!DOCTYPE svg PUBLIC "-//W3C//DTD SVG 20010904//EN"
 "http://www.w3.org/TR/2001/REC-SVG-20010904/DTD/svg10.dtd">
<svg version="1.0" xmlns="http://www.w3.org/2000/svg"
 width="72.000000pt" height="72.000000pt" viewBox="0 0 72.000000 72.000000"
 preserveAspectRatio="xMidYMid meet">
<metadata>
Created by potrace 1.10, written by Peter Selinger 2001-2011
</metadata>
<g transform="translate(0.000000,72.000000) scale(0.100000,-0.100000)"
fill="#000000" stroke="none">
<path d="M36 698 c-9 -20 41 -101 57 -91 6 3 7 1 3 -5 -4 -6 5 -21 18 -33 20
-17 23 -26 15 -36 -6 -7 -16 -10 -23 -6 -6 4 -4 -1 4 -11 13 -17 14 -17 21 1
6 14 8 11 8 -13 1 -17 4 -34 8 -38 4 -3 8 -15 10 -26 14 -93 179 -337 255
-376 34 -18 99 -14 121 7 113 105 146 144 152 181 10 58 -27 113 -126 187 -77
58 -229 141 -260 141 -7 0 31 -22 87 -49 113 -56 232 -144 264 -195 27 -44 24
-104 -5 -138 -30 -35 -47 -39 -73 -14 -22 20 -23 20 -16 1 4 -11 12 -27 18
-35 6 -8 -2 -4 -17 9 -15 14 -29 22 -32 19 -3 -3 1 -11 10 -18 22 -19 18 -28
-15 -35 -35 -8 -35 -8 -13 -43 17 -27 17 -27 -3 -9 -11 9 -24 14 -28 10 -4 -5
-6 -1 -4 7 2 8 -3 14 -10 12 -8 -1 -11 2 -8 6 7 12 -28 44 -39 35 -4 -5 -6 -1
-3 7 3 9 -35 58 -99 126 -56 61 -103 115 -103 120 1 5 39 -31 85 -81 l84 -90
23 24 23 23 -23 -11 c-20 -11 -27 -8 -57 22 -19 19 -35 42 -35 50 0 8 -13 20
-30 27 -34 14 -114 103 -125 140 -7 26 5 15 186 -158 l66 -64 25 25 c19 19 23
28 14 37 -8 8 -6 15 7 25 10 7 15 15 10 17 -13 7 -54 -18 -46 -28 4 -5 -45 43
-110 106 -64 63 -117 116 -117 117 0 14 29 -10 95 -76 67 -68 80 -78 96 -68
10 6 15 15 12 20 -3 5 -10 4 -16 -2 -6 -6 -15 -11 -21 -11 -6 0 -5 5 2 12 19
19 14 27 -10 20 -21 -5 -22 -4 -8 13 14 16 13 17 -8 11 -12 -4 -22 -3 -22 2 0
6 5 12 12 14 8 3 5 12 -10 28 -12 13 -22 18 -22 12 0 -7 -7 -12 -16 -12 -13 0
-14 3 -4 15 16 19 6 32 -33 41 -27 6 -29 8 -13 14 13 4 16 9 8 14 -6 4 -17 -2
-23 -12 -11 -18 -15 -15 -62 29 -36 34 -53 45 -59 36 -5 -8 -8 -6 -9 8 0 11
-3 14 -6 8 -7 -19 -21 -16 -26 5 -4 16 -5 16 -11 0z m161 -180 c22 -20 23 -20
23 -3 0 15 15 4 60 -40 62 -61 73 -79 43 -68 -10 3 0 -13 21 -35 22 -23 38
-43 35 -45 -2 -2 -52 45 -111 104 -59 60 -104 109 -101 109 4 0 17 -10 30 -22z
m166 -385 c31 -33 41 -49 26 -39 -31 19 -102 107 -148 182 -51 83 -35 76 19
-9 28 -43 74 -104 103 -134z m4 59 c15 -20 17 -29 8 -29 -8 0 -13 5 -12 11 1
5 -3 10 -10 11 -17 0 -26 12 -18 24 9 15 8 15 32 -17z"/>
<path d="M386 417 c-16 -12 -16 -14 2 -30 18 -16 20 -16 37 3 10 11 13 20 7
20 -6 0 -14 -4 -17 -10 -3 -5 -11 -10 -17 -10 -6 0 -3 9 7 20 20 22 8 27 -19
7z"/>
<path d="M545 390 c-7 -12 12 -50 25 -50 16 0 11 47 -5 53 -8 4 -17 2 -20 -3z"/>
<path d="M470 313 l-45 -46 49 39 c62 49 57 33 -12 -40 -38 -40 -57 -53 -70
-49 -12 5 -10 -1 8 -19 27 -29 45 -24 61 20 5 13 13 20 19 17 5 -3 10 -2 10 4
0 5 -5 13 -11 17 -7 4 3 21 26 44 21 21 34 43 31 49 -11 18 -20 13 -66 -36z"/>
<path d="M575 308 c-8 -17 -28 -34 -53 -44 -1 -1 -4 -11 -7 -23 -2 -11 -7 -26
-10 -31 -8 -13 11 -13 35 0 16 8 22 6 36 -15 9 -14 19 -23 22 -20 3 3 -9 20
-26 38 l-32 33 30 29 c16 16 30 35 30 42 0 20 -14 15 -25 -9z"/>
<path d="M607 267 c-9 -12 -17 -26 -17 -33 0 -16 29 -39 37 -30 4 4 2 10 -4
14 -17 11 -5 52 13 45 8 -3 14 -1 14 5 0 20 -26 19 -43 -1z"/>
<path d="M456 183 c-18 -24 -18 -25 0 -43 13 -13 25 -15 39 -10 19 8 19 9 -1
9 -25 1 -37 24 -22 39 6 6 9 15 7 20 -2 6 -12 -1 -23 -15z"/>
<path d="M602 88 c-18 -18 -15 -25 12 -32 13 -3 26 -16 29 -28 6 -21 7 -21 26
-4 22 20 19 36 -5 36 -8 0 -14 4 -14 10 0 17 -36 30 -48 18z"/>
</g>
</svg>
