<?xml version="1.0" standalone="no"?>
<!DOCTYPE svg PUBLIC "-//W3C//DTD SVG 20010904//EN"
 "http://www.w3.org/TR/2001/REC-SVG-20010904/DTD/svg10.dtd">
<svg version="1.0" xmlns="http://www.w3.org/2000/svg"
 width="72.000000pt" height="72.000000pt" viewBox="0 0 72.000000 72.000000"
 preserveAspectRatio="xMidYMid meet">
<metadata>
Created by potrace 1.10, written by Peter Selinger 2001-2011
</metadata>
<g transform="translate(0.000000,72.000000) scale(0.100000,-0.100000)"
fill="#000000" stroke="none">
<path d="M215 660 c-11 -5 -34 -9 -52 -9 -17 -1 -34 -5 -38 -10 -3 -6 42 -9
110 -9 64 0 115 4 115 9 0 5 -20 9 -44 9 -25 0 -48 5 -51 10 -7 12 -13 12 -40
0z"/>
<path d="M228 622 c-1 -4 -32 -25 -67 -46 -51 -31 -65 -36 -72 -25 -7 11 -9
11 -9 -2 0 -9 -10 -24 -22 -33 l-23 -17 22 5 23 4 0 -152 0 -153 -35 -19 c-19
-10 -35 -22 -35 -26 0 -12 14 -9 36 7 29 22 39 18 57 -21 10 -19 22 -32 27
-29 6 4 2 18 -11 37 l-22 30 22 -12 c35 -18 36 -4 1 16 l-30 19 2 160 3 160
70 38 c80 43 91 52 77 61 -6 3 -12 2 -14 -2z"/>
<path d="M355 519 c-4 -22 -4 -43 0 -47 10 -11 34 28 30 49 -3 16 2 19 35 19
21 0 45 -6 52 -14 15 -15 100 -27 91 -13 -3 5 28 6 71 2 54 -5 76 -4 76 4 0 6
-15 11 -34 11 -19 0 -47 5 -61 10 -15 6 -32 7 -38 3 -22 -14 -49 -13 -100 2
-28 8 -65 15 -83 15 -30 0 -33 -3 -39 -41z"/>
<path d="M128 528 c-22 -18 -36 -177 -16 -189 21 -14 38 -10 38 9 0 13 -2 14
-9 3 -9 -14 -7 72 3 116 3 13 0 25 -5 28 -19 13 4 25 46 25 88 0 178 -30 133
-45 -29 -8 -150 -12 -137 -4 11 7 10 9 -3 9 -10 0 -18 -7 -18 -15 0 -10 15
-16 48 -21 56 -7 64 -27 20 -45 -137 -56 -100 -302 48 -325 41 -6 55 -2 135
38 85 42 104 47 77 20 -7 -7 -8 -12 -2 -12 6 0 16 11 22 24 10 22 9 24 -11 21
-12 -2 -33 -7 -47 -10 -23 -6 -23 -6 4 9 15 9 34 16 41 16 8 0 16 8 18 18 3
12 5 13 6 2 0 -8 15 -21 31 -28 38 -17 38 -26 0 -49 -16 -9 -30 -21 -30 -25 0
-12 13 -9 34 7 28 21 34 19 53 -20 9 -19 20 -35 25 -35 12 0 10 14 -7 36 -22
29 -18 38 10 20 14 -9 25 -12 25 -7 0 6 -13 18 -30 28 l-30 17 0 97 0 96 37
-1 c35 -1 38 1 49 39 12 43 4 65 -24 65 -13 0 -12 -3 4 -15 18 -14 18 -14 0
-15 -15 0 -17 -6 -14 -29 l4 -30 -27 16 c-16 10 -32 13 -36 9 -4 -4 -10 -52
-11 -106 l-4 -99 -24 16 c-22 14 -24 22 -24 93 0 62 3 79 16 84 9 3 20 4 25 0
5 -3 9 0 9 5 0 6 -4 11 -10 11 -5 0 -10 7 -10 15 0 8 4 15 9 15 5 0 8 15 6 33
-2 27 -7 33 -31 35 -16 2 -34 8 -41 14 -7 5 -16 7 -21 4 -6 -3 -28 1 -51 9
-39 13 -41 13 -31 -4 5 -10 30 -24 55 -30 25 -6 45 -15 45 -19 0 -5 6 -17 14
-27 13 -18 14 -18 9 7 -3 15 0 29 8 33 8 5 10 4 5 -3 -4 -7 -1 -12 8 -12 19 0
20 -9 6 -44 -11 -31 -36 -34 -45 -5 -5 16 -14 20 -43 17 -21 -2 -35 -7 -34
-12 2 -5 -2 -13 -10 -18 -9 -7 -7 -8 7 -5 66 16 73 16 78 4 4 -10 -8 -13 -52
-12 -72 3 -73 3 -66 15 3 5 0 7 -7 5 -8 -3 -23 3 -34 14 -14 13 -26 16 -35 10
-22 -14 -28 -11 -22 10 4 17 -1 20 -38 24 l-44 4 48 1 c29 1 47 -2 47 -9 0 -6
6 -9 14 -6 8 3 16 1 18 -5 3 -7 12 -9 24 -4 16 7 16 9 4 15 -8 3 -16 15 -18
26 -2 11 -9 25 -15 31 -34 32 -168 46 -199 22z m222 -149 c45 -24 66 -49 81
-100 10 -37 2 -112 -11 -104 -5 3 -11 -4 -15 -14 -3 -11 -20 -32 -37 -47 -27
-22 -38 -25 -72 -19 -56 8 -84 29 -107 78 -34 76 -19 162 36 205 35 28 73 28
125 1z m139 -15 c31 -6 32 -8 29 -53 -2 -34 -7 -47 -20 -49 -10 -2 -18 2 -18
8 0 6 5 8 10 5 13 -8 13 11 0 36 -15 26 -32 24 -25 -3 12 -51 12 -89 -1 -105
-12 -16 -13 -12 -14 32 0 30 -8 67 -19 89 -15 29 -16 36 -5 32 8 -3 14 -1 14
4 0 12 7 12 49 4z"/>
<path d="M605 492 c-18 -6 -19 -13 -14 -57 3 -27 7 -46 7 -42 1 4 11 3 22 -3
17 -9 20 -8 20 10 0 14 -7 20 -21 20 -16 0 -20 5 -17 28 3 24 7 27 48 30 61 4
78 22 20 21 -25 -1 -54 -4 -65 -7z"/>
</g>
</svg>
