<?xml version="1.0" standalone="no"?>
<!DOCTYPE svg PUBLIC "-//W3C//DTD SVG 20010904//EN"
 "http://www.w3.org/TR/2001/REC-SVG-20010904/DTD/svg10.dtd">
<svg version="1.0" xmlns="http://www.w3.org/2000/svg"
 width="72.000000pt" height="72.000000pt" viewBox="0 0 72.000000 72.000000"
 preserveAspectRatio="xMidYMid meet">
<metadata>
Created by potrace 1.10, written by Peter Selinger 2001-2011
</metadata>
<g transform="translate(0.000000,72.000000) scale(0.100000,-0.100000)"
fill="#000000" stroke="none">
<path d="M200 646 c-19 -8 -46 -15 -58 -15 -32 -1 -92 -62 -92 -94 0 -13 -7
-44 -15 -67 -30 -86 -10 -164 54 -207 47 -31 95 -38 175 -24 l69 12 36 -33
c27 -25 30 -26 12 -5 -14 15 -20 27 -15 27 13 0 76 -65 69 -72 -3 -2 5 -13 17
-24 l23 -19 -19 23 c-11 12 -15 22 -9 22 13 0 45 -35 38 -41 -3 -3 11 -21 30
-39 27 -26 38 -31 47 -22 15 15 100 16 116 0 17 -17 28 -2 12 17 -7 9 -29 15
-52 15 -36 0 -39 2 -28 16 11 13 8 20 -20 47 -18 18 -29 25 -25 17 5 -8 -6 -2
-23 14 -39 36 -43 59 -4 25 l27 -24 -24 27 c-13 15 -27 25 -32 23 -4 -3 -25
15 -47 40 l-39 45 13 57 c27 114 14 182 -45 238 -27 25 -40 29 -94 32 -36 1
-76 -3 -97 -11z m184 -25 c14 -13 24 -26 24 -30 -1 -3 4 -23 11 -43 7 -21 10
-48 8 -60 -4 -20 -4 -19 -6 5 -1 19 -16 43 -46 74 l-46 46 -70 -7 c-74 -7 -89
7 -21 20 31 6 34 8 17 16 -13 5 2 7 42 5 49 -3 68 -8 87 -26z m-217 -8 c-4 -3
-2 -12 5 -20 8 -10 8 -17 0 -25 -9 -9 -12 -8 -12 4 0 9 -7 24 -16 32 -14 15
-13 16 7 16 12 0 19 -3 16 -7z m-57 -33 c0 -5 7 -10 15 -10 8 0 15 -4 15 -9 0
-11 193 -201 199 -195 3 3 -35 45 -84 94 l-89 89 45 20 c72 33 121 24 152 -29
20 -33 22 -112 6 -160 l-12 -32 119 -119 c92 -92 116 -121 106 -131 -9 -9 -36
12 -119 93 -60 57 -110 109 -112 114 -2 6 23 -15 55 -45 33 -30 -15 21 -106
113 -91 92 -170 167 -177 167 -7 0 -13 7 -13 15 0 8 -4 15 -10 15 -5 0 -10 5
-10 10 0 6 5 10 10 10 6 0 10 -4 10 -10z m-29 -49 c2 2 12 -2 23 -8 12 -6 15
-13 8 -17 -15 -9 -52 15 -52 34 0 12 2 12 9 2 4 -8 10 -12 12 -11z m141 -116
c48 -48 92 -84 97 -81 5 3 14 0 20 -8 9 -11 7 -14 -11 -15 -13 0 -56 -3 -95
-7 l-73 -6 -35 35 c-22 22 -35 45 -35 61 0 27 28 106 38 106 3 0 45 -38 94
-85z m-125 -117 c20 -20 45 -32 79 -37 40 -7 43 -9 16 -10 -84 -3 -143 58
-141 145 l2 49 7 -59 c6 -45 14 -65 37 -88z m30 13 c19 -15 22 -19 8 -15 -32
11 -55 35 -54 58 l0 21 9 -21 c4 -12 21 -31 37 -43z"/>
</g>
</svg>
