<?xml version="1.0" standalone="no"?>
<!DOCTYPE svg PUBLIC "-//W3C//DTD SVG 20010904//EN"
 "http://www.w3.org/TR/2001/REC-SVG-20010904/DTD/svg10.dtd">
<svg version="1.0" xmlns="http://www.w3.org/2000/svg"
 width="72.000000pt" height="72.000000pt" viewBox="0 0 72.000000 72.000000"
 preserveAspectRatio="xMidYMid meet">
<metadata>
Created by potrace 1.10, written by Peter Selinger 2001-2011
</metadata>
<g transform="translate(0.000000,72.000000) scale(0.100000,-0.100000)"
fill="#000000" stroke="none">
<path d="M507 629 c-10 -6 -29 -8 -41 -5 -16 4 -29 -1 -42 -15 -12 -13 -26
-18 -39 -15 -18 5 -22 1 -23 -27 -1 -59 -4 -68 -18 -56 -7 6 -26 9 -41 7 -23
-2 -29 1 -31 20 -4 23 -16 29 -27 12 -8 -13 -52 -13 -60 0 -3 5 -14 1 -24 -9
-13 -13 -27 -17 -46 -13 -28 5 -28 4 -12 -18 11 -16 13 -28 7 -40 -7 -13 -4
-20 15 -28 14 -7 25 -18 25 -27 0 -10 10 -15 30 -15 20 0 30 -5 30 -15 0 -9 9
-15 23 -14 16 1 18 2 5 6 -10 2 -18 9 -18 15 0 6 10 8 23 4 12 -3 27 -6 32 -6
6 0 3 -5 -5 -10 -9 -6 -10 -10 -3 -10 8 0 3 -17 -12 -49 -28 -55 -29 -61 -15
-61 6 0 10 6 10 13 0 8 11 24 25 37 14 13 25 31 25 40 0 8 7 26 16 38 13 18
19 21 30 11 8 -6 14 -24 14 -39 0 -16 15 -49 35 -76 50 -70 75 -123 75 -166 0
-21 4 -38 10 -38 5 0 27 24 49 53 21 28 52 64 68 80 l30 27 -5 -30 c-2 -18
-13 -35 -26 -42 -11 -6 -22 -11 -23 -10 -2 1 -6 2 -10 2 -13 0 21 -20 35 -20
25 0 54 40 47 68 -4 22 1 34 30 62 41 40 44 50 11 50 -38 0 -103 27 -150 62
-24 18 -52 38 -62 44 -18 10 -18 12 -1 37 9 15 28 29 41 33 17 4 22 11 19 25
-3 10 0 26 7 34 10 13 10 19 -4 34 -9 10 -14 25 -10 35 7 19 5 19 -19 5z m-25
-84 c-20 -22 -38 -42 -40 -44 -1 -3 -7 0 -12 5 -7 7 3 26 31 58 31 35 44 44
50 34 5 -8 -4 -26 -29 -53z m-22 48 c0 -4 -10 -17 -21 -29 -12 -13 -23 -37
-25 -55 -2 -17 -10 -39 -16 -47 -11 -13 -10 -15 6 -9 11 4 22 4 25 0 21 -29
152 -119 192 -132 l48 -16 -77 -81 c-42 -44 -66 -67 -52 -51 l25 30 -25 -16
c-34 -23 -49 -21 -60 9 -6 14 -13 23 -17 21 -5 -3 -16 5 -25 18 -16 22 -16 24
2 40 11 10 20 28 19 39 0 18 -2 16 -11 -6 -11 -31 -27 -38 -26 -10 4 48 -14
93 -39 103 -34 13 -27 18 15 12 22 -4 32 -10 28 -19 -3 -8 6 -15 25 -19 42
-10 44 -2 9 32 -21 20 -38 29 -51 26 -28 -8 -65 4 -94 31 -32 30 -32 46 0 46
26 0 33 -18 14 -37 -7 -7 -4 -12 11 -16 17 -4 20 -2 14 15 -5 17 -3 20 10 15
11 -5 15 -3 10 5 -4 6 2 18 12 26 18 14 18 14 0 8 -14 -5 -17 -2 -12 10 3 8 6
21 6 28 0 7 12 17 28 23 33 13 52 15 52 6z m-196 -69 c10 -25 7 -66 -4 -59 -6
4 -8 10 -5 15 3 5 -7 12 -22 16 -45 9 -53 13 -53 23 0 5 15 12 33 14 17 2 35
5 38 5 4 1 10 -5 13 -14z m-90 -33 c23 -10 56 -25 74 -32 17 -8 32 -17 32 -21
0 -5 6 -8 14 -8 26 0 28 -19 3 -25 -17 -5 -37 2 -68 23 -24 16 -54 33 -67 36
-21 7 -51 46 -36 46 4 0 26 -8 48 -19z"/>
<path d="M473 321 c6 -17 15 -28 19 -25 4 3 13 -6 19 -19 6 -14 24 -35 40 -46
36 -26 39 -17 4 11 -30 23 -57 72 -47 83 4 5 1 5 -6 1 -7 -4 -15 -1 -18 8 -3
9 -10 16 -14 16 -5 0 -3 -13 3 -29z"/>
<path d="M332 364 c-1 -18 -14 -57 -28 -89 -16 -35 -27 -76 -27 -106 0 -27 -2
-49 -3 -49 -1 0 -22 12 -48 26 -29 16 -46 33 -46 45 0 12 -5 16 -15 13 -19 -8
-65 21 -65 40 0 7 9 20 21 27 11 8 21 21 23 29 3 22 27 63 33 57 2 -3 -1 -15
-7 -27 -18 -33 -7 -43 22 -21 l27 21 4 -27 c3 -23 4 -21 6 10 1 43 -4 45 -37
15 l-25 -23 16 31 c14 27 14 31 1 31 -9 0 -23 -11 -32 -25 -23 -35 -91 -82
-119 -82 -14 0 -23 -6 -23 -15 0 -8 1 -15 3 -15 1 0 17 -4 35 -9 20 -6 30 -6
27 0 -3 5 1 6 9 3 9 -3 13 -10 10 -15 -3 -5 3 -6 13 -2 15 5 16 3 5 -8 -15
-17 -16 -61 0 -77 17 -17 63 -15 78 3 10 12 9 15 -6 16 -11 1 -27 0 -37 0 -10
-2 -21 7 -26 21 -9 25 -6 38 10 38 6 0 8 -4 4 -10 -3 -5 12 -18 35 -30 22 -11
40 -24 40 -29 0 -9 65 -51 80 -51 4 0 6 26 3 58 -4 47 -1 70 21 125 17 41 26
79 23 99 l-4 33 -1 -31z"/>
</g>
</svg>
