<?xml version="1.0" standalone="no"?>
<!DOCTYPE svg PUBLIC "-//W3C//DTD SVG 20010904//EN"
 "http://www.w3.org/TR/2001/REC-SVG-20010904/DTD/svg10.dtd">
<svg version="1.0" xmlns="http://www.w3.org/2000/svg"
 width="72.000000pt" height="72.000000pt" viewBox="0 0 72.000000 72.000000"
 preserveAspectRatio="xMidYMid meet">
<metadata>
Created by potrace 1.10, written by Peter Selinger 2001-2011
</metadata>
<g transform="translate(0.000000,72.000000) scale(0.100000,-0.100000)"
fill="#000000" stroke="none">
<path d="M21 692 c2 -5 87 -96 188 -201 219 -227 285 -307 301 -367 15 -51 59
-104 87 -104 22 0 89 63 98 91 11 33 -14 58 -92 95 -95 44 -115 61 -365 299
-187 179 -226 212 -217 187z m461 -435 c8 -5 3 -6 -12 -2 -33 9 -44 21 -35 36
6 9 11 7 22 -6 7 -11 19 -23 25 -28z m83 -69 c69 -34 81 -52 40 -62 -32 -8
-57 5 -90 48 -43 56 -38 57 50 14z m17 -88 c13 0 29 5 35 11 6 6 19 9 28 7 16
-3 14 -8 -11 -37 -25 -30 -25 -32 -6 -22 30 16 28 5 -3 -15 -23 -15 -27 -15
-50 0 -13 9 -32 30 -40 47 -16 29 -16 30 4 20 11 -6 30 -11 43 -11z"/>
</g>
</svg>
