<?xml version="1.0" standalone="no"?>
<!DOCTYPE svg PUBLIC "-//W3C//DTD SVG 20010904//EN"
 "http://www.w3.org/TR/2001/REC-SVG-20010904/DTD/svg10.dtd">
<svg version="1.0" xmlns="http://www.w3.org/2000/svg"
 width="72.000000pt" height="72.000000pt" viewBox="0 0 72.000000 72.000000"
 preserveAspectRatio="xMidYMid meet">
<metadata>
Created by potrace 1.10, written by Peter Selinger 2001-2011
</metadata>
<g transform="translate(0.000000,72.000000) scale(0.100000,-0.100000)"
fill="#000000" stroke="none">
<path d="M126 697 c-17 -13 -17 -15 -2 -45 9 -18 21 -32 26 -32 6 0 10 -7 10
-15 0 -8 5 -15 11 -15 5 0 8 -4 5 -9 -3 -5 1 -12 10 -15 8 -3 12 -10 9 -16 -3
-5 -1 -10 5 -10 6 0 8 -4 5 -10 -3 -5 -1 -10 5 -10 6 0 8 -4 5 -10 -3 -5 -1
-10 5 -10 6 0 8 -5 4 -12 -4 -7 -3 -8 4 -4 11 6 16 -6 13 -26 0 -5 4 -8 10 -8
5 0 8 -4 4 -10 -3 -5 3 -18 15 -30 11 -11 20 -22 20 -25 0 -3 0 -10 0 -16 0
-5 5 -7 12 -3 8 5 9 2 5 -10 -4 -9 1 -24 11 -34 9 -10 26 -35 36 -55 11 -20
23 -37 28 -37 5 0 6 -4 3 -10 -3 -5 -2 -10 2 -10 5 0 9 -12 8 -27 0 -21 5 -28
17 -27 11 1 22 -10 30 -32 7 -19 16 -34 21 -34 4 0 5 -4 2 -10 -3 -5 -1 -10 5
-10 6 0 9 -3 6 -8 -2 -4 1 -17 7 -29 l12 -22 33 20 c17 12 29 25 26 31 -4 6
-9 5 -14 -3 -12 -19 -38 -19 -45 -1 -3 8 0 20 6 26 9 8 10 6 6 -7 -4 -11 -3
-16 3 -12 6 3 10 1 10 -6 0 -7 3 -9 7 -6 13 13 11 73 -4 95 -8 13 -12 26 -9
29 3 3 9 -2 12 -11 5 -12 9 -14 14 -6 5 8 9 7 13 -5 4 -9 3 -13 -3 -10 -15 10
-12 -9 6 -31 15 -19 16 -19 10 1 -6 20 -6 20 9 1 8 -11 15 -25 15 -30 0 -6 -5
-4 -10 4 -7 11 -10 11 -10 2 0 -7 -5 -10 -11 -6 -7 4 -10 1 -7 -6 6 -20 21
-22 42 -7 17 12 15 17 -23 79 -27 42 -39 71 -35 82 5 12 1 19 -13 22 -12 3
-37 36 -62 82 -23 42 -57 104 -76 137 -19 33 -36 65 -39 70 -2 6 -7 7 -10 3
-4 -3 15 -46 44 -93 28 -48 49 -90 46 -93 -3 -2 -9 3 -12 12 -5 14 -9 15 -16
4 -7 -10 -8 -8 -4 5 6 19 -21 83 -31 73 -3 -3 0 -12 7 -21 7 -9 10 -18 7 -21
-8 -8 -29 35 -22 46 8 13 -15 55 -24 44 -20 -29 -61 11 -43 42 8 15 10 15 15
0 4 -10 3 -15 -3 -11 -6 3 -7 -1 -3 -10 5 -13 7 -14 14 -3 14 21 10 38 -8 45
-10 4 -22 11 -26 17 -5 6 -6 -2 -3 -19 4 -20 3 -25 -2 -16 -8 11 -10 11 -15 0
-4 -8 -4 -2 -1 12 3 16 1 30 -7 34 -9 6 -11 2 -7 -13 4 -12 2 -20 -3 -16 -5 3
-9 14 -9 25 0 10 -7 19 -15 19 -8 0 -26 23 -40 50 -14 28 -27 50 -28 50 -2 0
-11 -6 -21 -13z m104 -132 c12 -19 19 -38 16 -43 -3 -5 1 -9 8 -9 8 0 12 7 9
16 -3 12 -2 12 7 -2 6 -9 8 -22 5 -27 -4 -6 -1 -9 6 -8 6 2 14 -3 17 -11 2 -8
0 -11 -6 -7 -6 3 -14 1 -18 -5 -5 -8 -3 -9 6 -4 10 6 12 4 7 -8 -4 -10 -2 -16
6 -14 7 1 11 -6 11 -15 -1 -10 3 -15 9 -11 6 4 8 0 5 -8 -4 -11 1 -15 17 -15
15 0 21 5 18 14 -5 11 -7 11 -14 0 -5 -7 -9 -8 -10 -3 -7 53 -7 65 1 60 6 -4
7 2 3 11 -4 12 -3 15 6 10 6 -4 9 -15 7 -24 -7 -21 29 -80 37 -60 2 7 4 2 4
-12 0 -14 3 -34 7 -45 4 -11 0 -8 -9 8 -17 29 -28 37 -19 12 4 -10 0 -13 -15
-10 -12 2 -19 0 -16 -6 4 -5 11 -6 17 -3 8 5 9 1 5 -10 -5 -11 -3 -15 5 -10 8
5 9 1 5 -12 -7 -18 -7 -18 8 0 16 21 17 19 18 -36 1 -15 6 -26 12 -25 5 1 9
-7 8 -18 -1 -20 -1 -20 13 -1 10 14 14 16 14 5 0 -11 2 -12 9 -1 4 8 12 13 17
12 5 -1 10 4 12 12 2 9 0 8 -8 -2 -9 -12 -10 -10 -5 10 5 19 4 21 -4 10 -8
-12 -11 -12 -17 4 -5 14 -9 15 -16 4 -7 -10 -8 -8 -4 5 3 10 -2 29 -10 43 -9
13 -14 27 -11 31 4 3 10 -2 13 -11 5 -12 9 -14 14 -6 5 8 9 7 13 -5 4 -9 3
-13 -3 -10 -15 10 -12 -9 6 -31 13 -16 15 -16 10 -1 -8 27 0 20 22 -17 19 -31
19 -35 3 -51 -13 -13 -13 -16 -1 -13 8 2 14 -3 12 -11 -2 -9 3 -11 14 -7 10 4
21 1 26 -6 13 -22 8 -34 -6 -15 -12 16 -14 16 -20 2 -3 -9 0 -26 6 -38 7 -12
13 -35 14 -51 1 -24 0 -26 -8 -13 -5 10 -6 22 -3 27 4 6 1 9 -6 8 -6 -2 -14 3
-17 11 -3 9 0 11 8 6 9 -6 9 -3 0 14 -6 12 -15 19 -20 16 -5 -3 -11 -1 -14 4
-3 5 2 12 12 16 16 6 16 7 -2 20 -14 11 -24 12 -39 3 -20 -10 -31 -3 -28 17 1
3 -8 14 -19 25 -12 12 -17 26 -13 36 4 12 3 15 -5 10 -7 -4 -18 6 -27 24 -9
18 -21 28 -27 24 -7 -4 -8 -3 -4 4 4 6 0 25 -9 42 -8 16 -13 30 -11 30 3 0 -6
12 -20 27 -14 15 -22 33 -19 40 2 8 1 12 -4 9 -8 -5 -34 43 -33 61 0 4 -6 12
-14 16 -8 5 -12 12 -9 18 9 14 12 12 35 -26z m185 -268 c0 -12 6 -22 14 -22 8
0 16 -5 18 -12 4 -12 -21 -12 -33 0 -4 3 -8 21 -10 38 -2 18 -1 29 4 25 4 -4
7 -18 7 -29z m48 -153 c-1 -18 -1 -18 14 1 14 18 15 18 9 1 -3 -10 -1 -25 5
-32 6 -7 7 -18 3 -25 -4 -8 -15 2 -30 27 -27 44 -30 58 -11 51 6 -2 11 -13 10
-23z"/>
</g>
</svg>
