<?xml version="1.0" standalone="no"?>
<!DOCTYPE svg PUBLIC "-//W3C//DTD SVG 20010904//EN"
 "http://www.w3.org/TR/2001/REC-SVG-20010904/DTD/svg10.dtd">
<svg version="1.0" xmlns="http://www.w3.org/2000/svg"
 width="72.000000pt" height="72.000000pt" viewBox="0 0 72.000000 72.000000"
 preserveAspectRatio="xMidYMid meet">
<metadata>
Created by potrace 1.10, written by Peter Selinger 2001-2011
</metadata>
<g transform="translate(0.000000,72.000000) scale(0.100000,-0.100000)"
fill="#000000" stroke="none">
<path d="M40 675 l-24 -26 314 -314 c173 -173 320 -315 327 -315 7 0 20 12 29
26 l17 26 -314 314 c-173 173 -316 314 -320 314 -3 0 -16 -11 -29 -25z m45 -5
c3 -5 -1 -10 -9 -10 -9 0 -16 -9 -16 -20 0 -21 35 -29 42 -10 2 6 56 -42 121
-106 93 -94 115 -120 105 -131 -8 -10 -8 -17 1 -26 10 -9 15 -9 23 4 9 13 15
11 41 -15 45 -45 94 -101 80 -93 -16 10 -28 -12 -15 -25 8 -8 15 -8 25 0 20
17 123 -84 106 -104 -11 -14 -4 -34 12 -34 5 0 9 9 9 20 0 18 4 16 29 -12 27
-30 32 -68 8 -68 -6 0 -145 134 -310 298 -284 284 -299 300 -286 320 15 24 25
27 34 12z"/>
</g>
</svg>
