<?xml version="1.0" standalone="no"?>
<!DOCTYPE svg PUBLIC "-//W3C//DTD SVG 20010904//EN"
 "http://www.w3.org/TR/2001/REC-SVG-20010904/DTD/svg10.dtd">
<svg version="1.0" xmlns="http://www.w3.org/2000/svg"
 width="72.000000pt" height="72.000000pt" viewBox="0 0 72.000000 72.000000"
 preserveAspectRatio="xMidYMid meet">
<metadata>
Created by potrace 1.10, written by Peter Selinger 2001-2011
</metadata>
<g transform="translate(0.000000,72.000000) scale(0.100000,-0.100000)"
fill="#000000" stroke="none">
<path d="M38 685 c-6 -7 97 -119 187 -204 79 -74 279 -266 382 -365 65 -63 85
-78 95 -68 9 9 5 20 -22 47 -33 34 -58 47 -44 23 4 -7 -9 3 -29 21 -21 19 -37
37 -37 39 0 6 32 -19 48 -38 7 -8 12 -10 10 -5 -6 19 -268 268 -268 255 0 -10
-3 -10 -15 0 -8 7 -13 15 -10 19 2 4 -31 41 -73 82 -42 41 -59 55 -37 32 21
-24 35 -43 29 -43 -17 0 -119 109 -119 127 0 10 -10 22 -23 29 -12 6 -33 21
-46 33 -12 12 -25 19 -28 16z m437 -407 l100 -102 -85 79 c-47 43 -96 89 -110
102 -13 13 -20 23 -15 23 6 0 55 -46 110 -102z"/>
<path d="M47 626 c15 -18 31 -31 35 -29 4 2 9 -1 12 -6 14 -23 -28 -2 -49 25
-13 16 -26 27 -29 23 -6 -6 37 -69 79 -113 17 -18 120 -132 229 -254 144 -161
202 -220 210 -212 8 8 3 18 -16 35 -15 12 -24 26 -20 30 4 4 0 5 -8 3 -8 -1
-14 2 -13 8 1 7 -7 20 -17 29 -11 10 -20 15 -20 11 0 -4 -12 7 -28 25 -15 18
-27 38 -27 43 0 6 -5 11 -12 11 -12 0 -283 293 -283 306 0 8 401 -397 488
-491 33 -36 43 -43 53 -32 11 10 3 23 -41 67 -29 30 -56 52 -60 50 -3 -2 -103
93 -220 211 -118 117 -210 214 -205 214 5 0 -9 18 -30 40 -47 48 -68 53 -28 6z"/>
</g>
</svg>
