<?xml version="1.0" standalone="no"?>
<!DOCTYPE svg PUBLIC "-//W3C//DTD SVG 20010904//EN"
 "http://www.w3.org/TR/2001/REC-SVG-20010904/DTD/svg10.dtd">
<svg version="1.0" xmlns="http://www.w3.org/2000/svg"
 width="72.000000pt" height="72.000000pt" viewBox="0 0 72.000000 72.000000"
 preserveAspectRatio="xMidYMid meet">
<metadata>
Created by potrace 1.10, written by Peter Selinger 2001-2011
</metadata>
<g transform="translate(0.000000,72.000000) scale(0.100000,-0.100000)"
fill="#000000" stroke="none">
<path d="M10 685 c0 -2 9 -13 21 -24 13 -12 17 -21 10 -26 -15 -9 -14 -25 3
-25 30 0 35 24 11 53 -21 24 -45 36 -45 22z"/>
<path d="M83 613 c-14 -5 -18 -33 -5 -33 4 0 13 5 19 11 7 7 52 -29 157 -126
80 -76 146 -141 146 -146 0 -4 -9 -13 -20 -19 -19 -10 -19 -11 5 -47 14 -19
25 -45 25 -57 0 -34 45 -121 75 -144 35 -28 77 -28 132 -1 134 65 105 185 -65
265 -42 20 -81 43 -85 50 -6 11 -12 11 -26 2 -16 -10 -12 -16 41 -64 58 -54
91 -67 102 -39 7 18 30 20 23 3 -2 -7 11 -30 29 -51 41 -45 43 -79 8 -113 -19
-20 -31 -24 -51 -19 -24 6 -25 5 -12 -11 12 -16 10 -16 -21 2 -19 11 -50 40
-69 64 -19 25 -40 44 -48 44 -7 -1 -13 3 -13 10 0 6 -11 28 -25 48 -30 45 -32
58 -5 33 15 -14 20 -15 20 -4 1 8 12 -7 25 -33 29 -54 41 -64 59 -49 15 12 29
54 16 46 -4 -2 -15 4 -25 15 -15 16 -21 18 -33 7 -13 -10 -15 -9 -9 5 4 12 -3
28 -19 45 -14 16 -33 36 -42 46 -9 10 -16 25 -14 32 1 7 -3 17 -9 21 -8 4 -9
3 -5 -4 4 -7 1 -12 -9 -12 -11 0 -15 6 -10 19 3 11 -1 23 -12 32 -15 11 -16
11 -5 -1 17 -20 15 -35 -3 -20 -8 7 -15 22 -16 34 0 13 -3 16 -6 7 -4 -10 -9
-8 -20 10 -11 18 -13 19 -9 4 6 -20 6 -20 -9 -1 -8 11 -15 26 -15 33 0 7 -5
13 -11 13 -5 0 -7 -6 -3 -12 5 -9 2 -8 -10 1 -9 8 -14 21 -11 29 3 10 0 12
-10 9 -8 -4 -17 -2 -20 3 -12 19 -90 67 -102 63z"/>
</g>
</svg>
