<?xml version="1.0" standalone="no"?>
<!DOCTYPE svg PUBLIC "-//W3C//DTD SVG 20010904//EN"
 "http://www.w3.org/TR/2001/REC-SVG-20010904/DTD/svg10.dtd">
<svg version="1.0" xmlns="http://www.w3.org/2000/svg"
 width="72.000000pt" height="72.000000pt" viewBox="0 0 72.000000 72.000000"
 preserveAspectRatio="xMidYMid meet">
<metadata>
Created by potrace 1.10, written by Peter Selinger 2001-2011
</metadata>
<g transform="translate(0.000000,72.000000) scale(0.100000,-0.100000)"
fill="#000000" stroke="none">
<path d="M30 685 c-11 -14 -7 -23 30 -60 24 -24 47 -42 52 -39 14 9 208 -187
208 -209 0 -10 5 -28 12 -40 6 -12 14 -68 18 -124 7 -109 17 -135 72 -176 60
-45 189 -14 244 59 42 54 46 140 10 194 -35 53 -74 71 -174 81 -46 5 -90 13
-98 17 -26 15 -233 212 -256 245 -12 17 -16 27 -8 22 9 -5 11 -4 6 3 -4 7 -15
12 -24 12 -9 0 -26 7 -36 15 -25 19 -40 19 -56 0z m90 -61 c0 -16 -5 -24 -12
-21 -7 2 -11 11 -9 18 2 8 4 19 4 26 1 24 17 1 17 -23z m65 -46 c5 4 6 3 3 -3
-3 -5 0 -16 8 -23 8 -7 14 -10 14 -8 0 3 26 -23 58 -58 31 -35 62 -65 68 -67
20 -7 134 -111 129 -119 -2 -4 7 -18 20 -30 22 -20 25 -21 25 -6 0 10 -21 37
-47 62 l-48 43 50 -5 c120 -12 136 -16 165 -41 17 -13 28 -29 25 -34 -3 -4 2
-20 11 -34 9 -14 12 -25 7 -25 -5 0 -8 -14 -5 -30 4 -31 -13 -64 -29 -54 -5 3
-9 0 -9 -5 0 -6 4 -11 9 -11 5 0 12 -7 15 -16 3 -8 2 -12 -3 -9 -5 3 -12 1
-16 -5 -9 -15 -25 -12 -25 5 0 20 -8 19 -28 -4 -10 -11 -33 -24 -52 -29 -28
-8 -32 -11 -17 -17 11 -4 35 -1 59 9 23 9 44 14 46 11 8 -8 -4 -16 -44 -30
-45 -15 -109 -3 -141 27 -27 25 -42 87 -23 98 8 5 5 9 -9 13 -18 4 -21 13 -21
59 0 29 -3 64 -7 78 -5 21 0 17 30 -18 21 -24 37 -47 37 -51 0 -7 44 -31 57
-31 4 0 -38 46 -92 103 -181 188 -260 271 -244 259 9 -6 20 -8 24 -4z"/>
<path d="M546 194 c-21 -25 -35 -48 -32 -52 7 -6 85 76 86 91 1 17 -18 4 -54
-39z"/>
</g>
</svg>
