<?xml version="1.0" standalone="no"?>
<!DOCTYPE svg PUBLIC "-//W3C//DTD SVG 20010904//EN"
 "http://www.w3.org/TR/2001/REC-SVG-20010904/DTD/svg10.dtd">
<svg version="1.0" xmlns="http://www.w3.org/2000/svg"
 width="72.000000pt" height="72.000000pt" viewBox="0 0 72.000000 72.000000"
 preserveAspectRatio="xMidYMid meet">
<metadata>
Created by potrace 1.10, written by Peter Selinger 2001-2011
</metadata>
<g transform="translate(0.000000,72.000000) scale(0.100000,-0.100000)"
fill="#000000" stroke="none">
<path d="M434 691 c-45 -21 -82 -71 -85 -117 -2 -16 4 -53 11 -83 13 -49 19
-56 66 -82 33 -19 56 -40 64 -60 18 -42 4 -51 -49 -35 -56 16 -81 47 -81 98 0
60 -26 97 -95 135 -59 32 -153 12 -190 -39 -30 -44 -38 -97 -21 -143 21 -53
49 -80 105 -100 58 -20 79 -19 121 7 52 32 86 25 144 -30 28 -26 44 -39 37
-29 -12 15 -12 17 2 11 9 -3 17 -21 20 -42 3 -28 4 -23 5 18 l2 55 -45 18
c-25 11 -45 23 -45 28 0 11 7 11 52 -2 42 -11 44 -16 51 -124 3 -41 1 -62 -4
-50 -14 36 -9 0 7 -48 26 -76 59 -87 68 -22 2 17 1 23 -1 15 -11 -35 -18 -26
-15 19 2 29 -5 79 -17 123 -23 81 -26 108 -12 108 16 0 43 -83 51 -155 4 -38
8 -58 9 -43 1 25 3 27 27 18 73 -28 78 6 10 73 -69 68 -91 116 -72 160 7 18
24 38 38 45 58 32 78 149 36 211 -50 74 -121 97 -194 62z m127 -11 c31 -17 24
-49 -16 -66 -63 -26 -145 -12 -145 25 0 40 110 68 161 41z m53 -112 c11 -45
-7 -68 -56 -68 -25 0 -29 -3 -18 -10 11 -7 6 -10 -21 -10 -20 0 -58 -3 -85 -6
-67 -9 -51 3 27 21 l64 15 -54 -6 c-30 -3 -59 -6 -65 -7 -12 -2 -24 50 -18 77
4 15 12 17 46 13 23 -3 61 1 86 8 69 20 84 16 94 -27z m-439 -39 c13 -20 -6
-80 -37 -114 -50 -57 -87 -42 -74 29 12 62 89 121 111 85z m90 -21 c28 -13 35
-55 10 -64 -8 -4 -12 -10 -9 -15 3 -5 0 -9 -5 -9 -6 0 -24 -27 -41 -60 -32
-64 -36 -66 -74 -49 -36 17 -40 38 -12 68 29 32 56 84 56 109 0 34 27 42 75
20z m344 -47 c11 -7 4 -15 -27 -35 -23 -14 -44 -26 -46 -26 -3 0 -1 14 4 31
l9 30 -72 -5 c-48 -3 -62 -2 -42 3 41 12 157 13 174 2z m-259 -51 l0 -50 -25
16 c-30 20 -26 23 -59 -44 -15 -30 -30 -51 -33 -48 -14 14 88 176 111 176 3 0
6 -23 6 -50z m-120 -86 c-22 -42 -29 -50 -25 -29 7 32 44 99 52 92 2 -3 -10
-31 -27 -63z m420 -158 c0 -5 -16 5 -35 24 -19 19 -35 38 -35 44 0 5 16 -5 35
-24 19 -19 35 -38 35 -44z"/>
</g>
</svg>
