<?xml version="1.0" standalone="no"?>
<!DOCTYPE svg PUBLIC "-//W3C//DTD SVG 20010904//EN"
 "http://www.w3.org/TR/2001/REC-SVG-20010904/DTD/svg10.dtd">
<svg version="1.0" xmlns="http://www.w3.org/2000/svg"
 width="72.000000pt" height="72.000000pt" viewBox="0 0 72.000000 72.000000"
 preserveAspectRatio="xMidYMid meet">
<metadata>
Created by potrace 1.10, written by Peter Selinger 2001-2011
</metadata>
<g transform="translate(0.000000,72.000000) scale(0.100000,-0.100000)"
fill="#000000" stroke="none">
<path d="M295 669 c-16 -5 -79 -12 -139 -14 -60 -2 -113 -8 -118 -13 -9 -9 32
-460 50 -557 l7 -40 55 3 c107 5 120 9 120 42 0 17 -4 30 -9 30 -4 0 -6 -11
-3 -25 4 -22 1 -25 -22 -25 -21 0 -26 5 -26 24 0 23 -3 24 -35 19 -22 -3 -35
-2 -35 5 0 6 18 12 40 14 22 2 39 8 38 13 -2 6 -22 8 -45 7 -27 -2 -43 0 -43
7 0 6 19 11 46 11 32 0 44 4 42 12 -3 8 -20 11 -46 9 -25 -1 -42 2 -42 8 0 6
19 11 45 11 32 0 43 4 39 13 -3 8 -18 11 -44 9 -25 -3 -40 0 -40 7 0 6 18 11
41 11 28 0 39 4 36 13 -3 10 -26 12 -71 4 -5 -1 -11 4 -13 11 -3 8 10 12 49
12 42 1 49 3 35 11 -10 6 -34 9 -53 7 -23 -3 -34 0 -34 9 0 9 16 13 50 13 29
0 50 5 50 11 0 6 -20 9 -52 8 -33 -2 -53 1 -56 9 -2 8 13 12 53 12 39 0 54 3
49 11 -4 7 -25 9 -55 7 -37 -4 -49 -2 -49 8 0 8 8 13 18 12 42 -3 82 3 82 13
0 7 -18 10 -47 7 -28 -2 -48 1 -48 7 0 6 9 10 20 11 60 2 75 5 75 14 0 16 -80
11 -111 -7 -30 -18 -40 -37 -14 -27 15 6 21 -7 9 -19 -14 -13 -34 7 -34 35 0
19 4 27 11 22 6 -3 15 -1 19 6 4 7 21 14 37 15 15 1 38 3 51 3 12 1 22 7 22
13 0 8 -17 10 -50 7 -28 -3 -53 -1 -56 3 -3 5 -14 9 -25 9 -10 0 -19 5 -19 10
0 6 7 10 15 10 20 0 19 10 -3 26 -16 13 -16 13 1 14 21 0 23 20 2 20 -19 0
-19 7 -1 26 13 12 15 11 21 -6 7 -22 44 -26 80 -9 19 9 18 9 -2 5 -15 -3 -23
1 -23 10 0 7 6 11 14 8 8 -3 17 -1 21 5 11 18 25 12 26 -11 1 -23 1 -23 8 1 6
22 7 22 21 6 8 -9 13 -30 12 -47 -1 -16 5 -36 13 -45 15 -14 17 -14 30 3 23
30 19 51 -5 29 -20 -18 -20 -17 -19 16 0 19 3 28 6 22 8 -21 22 -15 16 7 -3
12 0 20 6 20 7 0 9 6 6 13 -4 6 0 4 8 -5 8 -10 17 -15 20 -12 14 14 28 -43 32
-133 3 -54 12 -165 21 -247 15 -137 15 -150 0 -158 -24 -13 -19 -28 9 -28 14
0 25 5 25 10 0 12 77 13 82 1 5 -13 48 -24 48 -12 0 6 11 11 25 11 31 0 38 15
59 140 9 52 29 157 43 232 27 144 26 183 -7 193 -11 4 -18 11 -15 16 4 5 -5 9
-19 9 -20 0 -26 -5 -26 -21 0 -11 5 -17 10 -14 6 3 10 -4 10 -17 0 -24 -77
-469 -86 -500 -7 -24 -31 -23 -39 2 -3 11 -11 20 -16 20 -5 0 -8 -3 -7 -7 2
-5 0 -9 -4 -10 -18 -6 -28 -2 -28 13 0 9 5 12 12 8 7 -4 8 -3 4 5 -11 17 -29
2 -23 -20 3 -11 0 -19 -6 -19 -9 0 -11 69 -8 265 3 246 2 265 -14 265 -15 0
-17 -7 -11 -52 8 -78 19 -384 13 -378 -3 3 -11 101 -17 218 -10 165 -16 212
-27 212 -7 0 -13 9 -13 20 0 22 -9 23 -55 9z m382 -56 c6 -14 -17 -153 -37
-223 -1 -3 -5 4 -10 16 -7 18 4 182 15 212 6 17 24 15 32 -5z m-577 -240 c0
-7 -6 -13 -12 -13 -7 0 -5 -5 5 -11 9 -6 15 -15 12 -20 -4 -5 -11 -7 -16 -4
-5 4 -9 1 -9 -4 0 -6 7 -11 15 -11 17 0 20 -16 6 -25 -14 -8 -31 28 -31 68 0
23 5 34 15 34 8 0 15 -6 15 -14z m10 -113 c0 -5 -4 -10 -10 -10 -5 0 -10 -4
-10 -10 0 -5 7 -10 15 -10 8 0 15 -5 15 -11 0 -6 -8 -9 -17 -7 -24 4 -31 58
-9 58 9 0 16 -4 16 -10z"/>
<path d="M430 414 c0 -131 2 -235 4 -233 10 10 16 458 6 464 -7 4 -10 -73 -10
-231z"/>
<path d="M462 558 l2 -83 3 73 c2 39 7 72 11 72 4 0 6 -37 4 -82 -5 -108 3
-98 12 15 7 83 6 87 -13 87 -20 0 -21 -5 -19 -82z"/>
<path d="M511 596 l2 -41 7 35 7 35 3 -35 2 -35 7 30 c6 28 7 27 14 -19 9 -63
7 -89 -4 -51 -7 25 -8 22 -4 -15 3 -25 7 -63 10 -85 8 -62 -4 -25 -19 56 -8
41 -14 64 -15 52 -1 -12 6 -57 14 -100 17 -86 18 -99 9 -90 -3 3 -15 52 -25
109 -17 91 -18 95 -13 34 3 -38 12 -93 20 -123 14 -55 18 -90 9 -81 -3 3 -14
43 -24 89 -11 46 -20 74 -20 62 -1 -25 23 -146 36 -181 7 -19 14 4 31 103 13
70 20 130 17 133 -3 3 -5 -5 -5 -18 0 -13 -3 -21 -6 -17 -6 5 8 106 23 165 3
12 1 22 -3 21 -5 -1 -11 0 -14 1 -3 1 -17 3 -32 4 -27 3 -28 1 -27 -38z"/>
<path d="M108 583 c-36 -9 -18 -26 20 -19 20 3 43 6 50 6 6 0 12 5 12 10 0 10
-49 12 -82 3z"/>
<path d="M106 541 c-32 -12 -2 -21 48 -15 25 4 46 11 46 15 0 11 -67 11 -94 0z"/>
<path d="M257 447 c10 -100 10 -177 1 -237 l-7 -45 11 48 c14 57 28 63 21 8
-3 -21 -1 -46 4 -56 6 -9 7 -35 3 -56 l-7 -39 33 0 c29 0 34 3 34 24 0 32 -18
43 -22 14 -3 -21 -4 -21 -18 -3 -12 15 -12 17 -1 10 11 -6 13 -3 7 16 -15 49
-17 64 -5 39 7 -17 13 -20 16 -12 3 8 -5 28 -17 44 -13 17 -18 28 -11 24 6 -4
11 -6 11 -4 -1 22 -31 250 -36 268 -6 24 -6 24 8 6 15 -19 16 -19 23 3 4 12 4
25 1 28 -3 4 -6 -2 -6 -13 0 -11 -3 -15 -8 -8 -4 6 -15 13 -25 17 -17 6 -18 2
-10 -76z"/>
<path d="M217 470 c7 -67 13 -78 13 -22 0 22 3 49 6 59 4 13 3 15 -4 4 -8 -11
-10 -11 -15 0 -3 8 -3 -11 0 -41z"/>
<path d="M337 385 c3 -55 9 -120 13 -145 l7 -45 1 40 c0 22 -6 87 -13 145
l-14 105 6 -100z"/>
<path d="M475 376 c2 -43 9 -84 15 -90 9 -8 10 -3 5 24 -5 19 -12 60 -16 90
-7 49 -8 46 -4 -24z"/>
<path d="M456 305 c3 -36 12 -66 22 -75 14 -13 15 -13 6 0 -6 8 -12 33 -13 54
-2 22 -7 49 -12 60 -6 14 -7 2 -3 -39z"/>
<path d="M496 248 c10 -33 33 -84 34 -75 1 22 -24 97 -32 97 -5 0 -6 -10 -2
-22z"/>
</g>
</svg>
