<?xml version="1.0" standalone="no"?>
<!DOCTYPE svg PUBLIC "-//W3C//DTD SVG 20010904//EN"
 "http://www.w3.org/TR/2001/REC-SVG-20010904/DTD/svg10.dtd">
<svg version="1.0" xmlns="http://www.w3.org/2000/svg"
 width="72.000000pt" height="72.000000pt" viewBox="0 0 72.000000 72.000000"
 preserveAspectRatio="xMidYMid meet">
<metadata>
Created by potrace 1.10, written by Peter Selinger 2001-2011
</metadata>
<g transform="translate(0.000000,72.000000) scale(0.100000,-0.100000)"
fill="#000000" stroke="none">
<path d="M24 699 c-3 -6 15 -33 42 -60 l48 -49 -17 -29 c-9 -16 -17 -37 -17
-48 0 -26 479 -503 505 -503 11 0 29 13 39 28 l19 27 -24 -22 c-31 -28 -39
-29 -39 -4 0 18 51 46 63 35 2 -2 10 4 18 13 13 16 12 17 -3 4 -26 -20 -22 2
4 25 13 12 18 13 13 4 -8 -13 -7 -13 8 -1 9 7 17 21 17 30 0 12 -425 450 -505
520 -3 3 -15 -5 -28 -16 -20 -18 -71 -43 -54 -27 7 8 -60 84 -74 84 -4 0 -11
-5 -15 -11z m166 -62 c0 -7 -23 -35 -51 -62 -56 -54 -56 -48 -2 28 34 47 53
59 53 34z m54 -38 c15 -18 16 -26 7 -45 -6 -14 -21 -29 -34 -35 -13 -6 -29
-19 -36 -31 -11 -18 -10 -19 10 -13 12 4 37 23 54 42 18 20 39 33 46 30 10 -3
-4 -22 -41 -58 -30 -29 -48 -48 -39 -41 9 6 19 9 22 6 3 -4 21 10 40 30 38 39
49 43 66 22 15 -17 -2 -49 -34 -66 -22 -12 -50 -49 -42 -56 2 -3 27 16 55 41
27 25 53 45 56 45 17 0 0 -26 -46 -71 -58 -56 -27 -46 34 10 51 47 62 31 12
-17 -21 -21 -46 -46 -54 -56 -14 -18 -14 -19 10 -5 14 8 42 29 62 48 31 29 40
32 53 21 23 -19 18 -35 -17 -66 -18 -15 -39 -36 -47 -46 -12 -19 -12 -19 10
-6 13 7 41 29 62 48 26 24 37 29 37 18 0 -9 -15 -29 -32 -45 -18 -16 -39 -36
-47 -46 -23 -29 40 7 73 42 23 24 33 28 43 20 7 -6 13 -18 13 -27 0 -19 -39
-62 -56 -62 -6 0 -14 -9 -17 -19 -7 -28 19 -17 65 27 21 20 41 33 44 29 4 -4
-10 -24 -32 -45 -21 -21 -46 -46 -54 -56 -14 -18 -14 -19 10 -5 14 8 42 30 63
49 20 19 37 28 37 22 0 -14 -44 -62 -57 -62 -4 0 -13 -12 -20 -26 -11 -23 -10
-24 5 -13 9 7 35 30 58 51 l40 38 23 -23 22 -24 -60 -60 -59 -60 -226 227
-226 226 58 57 c31 31 59 57 62 57 3 0 14 -10 24 -21z"/>
</g>
</svg>
