<?xml version="1.0" standalone="no"?>
<!DOCTYPE svg PUBLIC "-//W3C//DTD SVG 20010904//EN"
 "http://www.w3.org/TR/2001/REC-SVG-20010904/DTD/svg10.dtd">
<svg version="1.0" xmlns="http://www.w3.org/2000/svg"
 width="72.000000pt" height="72.000000pt" viewBox="0 0 72.000000 72.000000"
 preserveAspectRatio="xMidYMid meet">
<metadata>
Created by potrace 1.10, written by Peter Selinger 2001-2011
</metadata>
<g transform="translate(0.000000,72.000000) scale(0.100000,-0.100000)"
fill="#000000" stroke="none">
<path d="M303 695 c-18 -8 -33 -20 -32 -27 0 -10 2 -10 6 0 2 6 13 12 23 12
16 0 17 -3 7 -25 -13 -27 -22 -31 -33 -14 -5 9 -153 -436 -170 -511 -5 -23 2
-28 93 -72 l98 -46 110 15 c67 9 114 20 121 29 6 8 20 14 31 14 20 0 20 1 -3
88 -14 48 -31 98 -38 112 -8 14 -17 39 -20 56 -6 27 -2 36 26 65 18 18 32 36
31 40 -2 4 13 32 32 61 33 49 41 68 31 68 -3 0 -22 -25 -43 -55 -22 -30 -42
-52 -45 -49 -10 9 -29 -33 -22 -49 3 -8 -2 -17 -10 -20 -11 -5 -18 4 -25 31
-5 20 -21 81 -35 135 -14 54 -25 101 -25 105 3 21 -3 30 -25 36 -13 3 -30 8
-38 11 -7 2 -28 -2 -45 -10z m112 -107 c9 -40 18 -82 21 -93 6 -20 6 -20 -10
0 -12 16 -11 6 6 -45 23 -72 35 -93 50 -84 6 4 5 -3 -1 -15 -14 -25 -23 -28
-15 -3 5 13 4 14 -4 3 -11 -15 -6 -41 8 -41 4 0 5 -11 2 -25 -2 -14 0 -25 5
-25 6 0 18 -19 29 -41 18 -40 18 -42 -1 -55 -11 -8 -44 -14 -80 -14 -68 0 -96
-14 -126 -64 l-19 -31 0 87 c0 67 4 90 16 103 13 12 14 19 5 28 -8 8 -11 7
-11 -6 0 -9 -4 -17 -10 -17 -5 0 -10 2 -10 4 0 17 52 375 56 389 4 12 16 17
39 17 33 0 33 0 50 -72z m-127 -43 c-5 -38 -11 -90 -13 -114 -2 -24 -7 -51
-10 -60 -3 -8 -6 -55 -6 -103 0 -97 -8 -107 -49 -63 -20 21 -22 31 -16 72 3
26 15 75 25 108 10 33 31 100 46 148 15 49 28 87 30 85 1 -2 -2 -34 -7 -73z
m-118 -322 c0 -9 20 -35 45 -57 41 -38 49 -55 46 -98 -1 -15 -10 -13 -73 14
-40 16 -75 32 -76 33 -2 2 6 25 17 50 12 26 21 54 21 61 0 8 5 14 10 14 6 0
10 -8 10 -17z m352 -97 c10 -15 -9 -33 -45 -45 -47 -14 -157 -23 -157 -13 0
19 41 61 63 64 53 7 133 4 139 -6z"/>
<path d="M355 590 c2 -25 7 -74 10 -110 17 -195 22 -217 45 -223 21 -5 56 36
45 54 -9 14 -37 -11 -31 -28 3 -7 1 -13 -4 -13 -11 0 -16 20 -30 123 -14 106
-10 149 5 62 16 -91 19 -39 3 62 -11 68 -13 74 -18 43 l-6 -35 -5 38 c-3 20
-1 37 3 37 4 0 8 8 8 18 0 13 -2 14 -9 3 -7 -11 -10 -11 -15 0 -3 8 -3 -6 -1
-31z"/>
</g>
</svg>
