<?xml version="1.0" standalone="no"?>
<!DOCTYPE svg PUBLIC "-//W3C//DTD SVG 20010904//EN"
 "http://www.w3.org/TR/2001/REC-SVG-20010904/DTD/svg10.dtd">
<svg version="1.0" xmlns="http://www.w3.org/2000/svg"
 width="72.000000pt" height="72.000000pt" viewBox="0 0 72.000000 72.000000"
 preserveAspectRatio="xMidYMid meet">
<metadata>
Created by potrace 1.10, written by Peter Selinger 2001-2011
</metadata>
<g transform="translate(0.000000,72.000000) scale(0.100000,-0.100000)"
fill="#000000" stroke="none">
<path d="M208 576 c-75 -24 -144 -49 -153 -56 -27 -22 -45 -66 -45 -108 0 -34
7 -45 58 -94 32 -30 73 -63 92 -73 41 -21 140 -103 140 -115 0 -5 -66 38 -146
95 -80 58 -144 101 -142 96 3 -9 95 -79 230 -174 l66 -48 201 112 c190 105
201 113 201 140 0 23 -7 33 -34 45 -24 12 -32 22 -29 34 4 13 -8 25 -45 46
-35 19 -53 37 -61 60 -12 33 -53 74 -74 74 -6 0 -2 -7 9 -16 18 -14 18 -15 -5
-4 -12 7 -32 10 -42 7 -26 -7 -24 2 3 12 17 6 9 8 -32 9 -38 0 -98 -13 -192
-42z m192 9 c0 -1 -54 -21 -120 -45 -66 -23 -130 -51 -143 -62 l-22 -20 27 16
c14 8 37 18 50 21 12 2 36 8 52 11 20 5 27 4 22 -5 -4 -6 -12 -11 -18 -11 -16
0 -78 -49 -78 -61 0 -6 12 -2 28 9 29 20 233 99 281 108 16 4 32 1 35 -5 4 -6
2 -11 -3 -11 -6 0 -11 -10 -10 -22 0 -21 1 -22 8 -3 7 16 9 17 17 4 5 -8 31
-28 59 -44 l50 -29 -190 -92 -189 -93 -48 35 c-26 20 -48 44 -48 53 0 25 -11
33 -27 20 -10 -9 -16 -4 -28 22 l-14 34 -1 -37 c0 -21 -4 -38 -10 -38 -13 0
-13 61 0 94 6 15 6 26 0 26 -5 0 -15 -21 -23 -47 -14 -44 -15 -45 -16 -17 -1
46 17 91 46 109 39 26 223 81 271 81 23 1 42 0 42 -1z m269 -194 l35 -18 -32
-17 c-18 -9 -32 -19 -32 -22 0 -2 9 0 21 6 11 7 22 10 24 8 2 -2 -16 -14 -41
-27 -24 -13 -44 -31 -45 -40 0 -9 -3 -11 -5 -4 -7 17 -56 -6 -50 -24 3 -7 1
-13 -3 -13 -5 0 -11 6 -14 14 -4 9 12 21 44 37 28 13 53 27 56 33 7 11 -227
-111 -242 -126 -5 -6 21 5 59 25 38 20 72 35 74 32 3 -2 -7 -9 -21 -16 -17 -7
-24 -17 -20 -28 4 -12 3 -13 -5 -3 -7 11 -19 9 -62 -13 -28 -14 -49 -22 -45
-16 3 7 0 8 -9 5 -9 -3 -14 -10 -11 -14 13 -21 -28 -16 -52 6 -16 14 -21 23
-13 19 8 -4 4 3 -9 14 -13 12 -20 22 -17 22 3 1 9 2 14 3 4 1 18 8 32 16 14 8
31 15 39 16 8 2 18 9 22 16 5 7 9 9 9 5 0 -5 16 1 35 13 19 12 35 18 35 13 0
-4 4 -2 8 5 10 15 72 25 72 11 0 -5 -9 -9 -20 -9 -11 0 -20 -4 -20 -10 0 -13
3 -13 35 2 14 6 25 15 25 19 0 5 7 5 17 2 12 -5 14 -3 8 7 -6 10 -4 12 8 7 10
-3 17 -2 17 2 0 13 -28 21 -32 9 -2 -6 -17 -12 -32 -13 -29 -4 -24 14 5 18 8
2 25 10 38 19 13 9 30 14 39 11 10 -4 13 -2 8 5 -11 17 14 14 53 -7z"/>
<path d="M225 547 c-103 -36 -135 -53 -135 -69 0 -6 9 -3 20 7 11 10 69 36
128 56 59 21 100 38 92 38 -8 0 -55 -15 -105 -32z"/>
<path d="M480 516 c0 -18 -78 -57 -84 -42 -2 6 -5 3 -5 -6 -1 -11 -6 -15 -15
-12 -18 7 -31 -15 -17 -29 8 -8 11 -6 11 7 0 9 4 15 8 12 5 -3 32 6 60 19 38
18 52 30 52 45 0 11 -2 20 -5 20 -3 0 -5 -6 -5 -14z"/>
<path d="M512 473 c-12 -2 -20 -8 -18 -11 2 -4 -22 -16 -55 -27 -39 -12 -58
-23 -55 -31 3 -8 0 -11 -9 -8 -17 7 -105 -25 -105 -38 0 -5 -4 -7 -9 -3 -6 3
-24 -3 -40 -13 l-31 -19 23 -21 c25 -23 37 -28 37 -13 0 5 -9 11 -20 14 -11 3
-20 11 -20 17 0 10 4 10 15 0 13 -11 14 -10 9 3 -6 18 9 17 43 -1 19 -10 28
-10 49 1 17 9 23 17 16 21 -7 4 -20 2 -31 -4 -25 -13 -41 -13 -41 1 0 5 5 7
12 3 7 -5 8 -3 3 6 -6 10 -4 12 8 7 10 -3 17 -2 17 2 0 13 25 8 46 -9 13 -12
18 -12 21 -2 3 6 10 9 16 5 7 -4 8 0 4 11 -4 10 -2 26 4 37 8 16 13 18 25 8 8
-6 14 -17 14 -23 0 -8 -3 -7 -8 1 -5 8 -13 9 -22 3 -26 -16 13 -22 43 -7 25
13 26 15 10 28 -15 12 -16 12 -8 -1 6 -12 6 -13 -6 -2 -12 11 -12 14 1 22 18
11 35 8 35 -8 0 -5 4 -14 9 -19 6 -5 6 -2 1 6 -6 11 -4 13 8 8 18 -7 24 8 7
18 -6 4 -7 11 -4 17 4 7 14 1 25 -13 10 -13 19 -18 19 -11 0 6 3 11 8 11 20
-3 32 2 26 12 -3 6 -17 8 -30 5 -14 -4 -24 -2 -24 4 0 6 5 8 10 5 6 -3 10 -1
10 4 0 6 -3 10 -7 10 -5 -1 -18 -4 -31 -6z"/>
<path d="M330 443 c0 -9 -91 -49 -102 -45 -5 1 -8 -3 -8 -9 0 -8 -5 -7 -16 2
-13 10 -17 10 -25 -2 -24 -39 -8 -43 54 -16 20 9 53 24 72 32 19 8 35 22 35
30 0 8 -2 15 -5 15 -3 0 -5 -3 -5 -7z"/>
<path d="M597 372 c4 -8 13 -10 27 -6 39 12 42 24 4 22 -24 -2 -34 -7 -31 -16z"/>
<path d="M380 269 c0 -6 -5 -7 -12 -3 -7 4 -8 3 -4 -5 5 -8 0 -10 -18 -7 -15
3 -24 1 -21 -4 3 -5 -4 -11 -15 -15 -20 -6 -19 -25 1 -25 6 0 7 5 3 11 -4 8 0
9 15 4 15 -5 19 -3 16 7 -4 10 2 14 25 12 16 -1 30 2 30 8 0 5 5 6 11 2 7 -4
10 -1 7 6 -5 16 -38 23 -38 9z"/>
</g>
</svg>
