<?xml version="1.0" standalone="no"?>
<!DOCTYPE svg PUBLIC "-//W3C//DTD SVG 20010904//EN"
 "http://www.w3.org/TR/2001/REC-SVG-20010904/DTD/svg10.dtd">
<svg version="1.0" xmlns="http://www.w3.org/2000/svg"
 width="72.000000pt" height="72.000000pt" viewBox="0 0 72.000000 72.000000"
 preserveAspectRatio="xMidYMid meet">
<metadata>
Created by potrace 1.10, written by Peter Selinger 2001-2011
</metadata>
<g transform="translate(0.000000,72.000000) scale(0.100000,-0.100000)"
fill="#000000" stroke="none">
<path d="M358 677 c-60 -15 -70 -34 -75 -144 -3 -91 -2 -102 24 -153 22 -42
38 -59 72 -77 51 -27 137 -31 179 -9 64 34 111 109 119 192 3 30 10 57 14 60
5 3 9 20 9 39 0 25 -8 40 -31 59 -17 14 -36 26 -42 26 -7 -1 0 -7 15 -16 44
-23 52 -48 32 -98 l-18 -43 -30 16 c-17 8 -46 25 -65 38 -48 32 -90 29 -169
-13 -37 -20 -73 -41 -80 -46 -9 -8 -12 4 -10 57 3 59 6 70 28 86 14 9 40 20
58 24 31 6 33 6 26 -19 -6 -27 -6 -28 44 -30 24 -1 28 2 24 22 -2 12 1 22 7
22 6 0 11 -9 11 -20 0 -11 5 -20 10 -20 6 0 10 13 10 29 0 28 0 28 -62 28 -35
0 -80 -5 -100 -10z m184 -139 c13 -13 29 -22 36 -20 26 6 60 -25 55 -51 -5
-24 -5 -24 -47 -9 -39 14 -47 14 -92 -2 -27 -10 -70 -21 -96 -23 -43 -4 -49
-3 -57 19 -5 14 -5 25 1 29 5 3 9 10 9 15 -1 5 7 9 17 9 9 0 19 2 22 5 3 3 14
12 25 20 19 14 19 14 5 -6 -10 -13 -7 -12 8 4 12 13 27 20 34 16 7 -4 8 -3 4
4 -14 23 53 13 76 -10z m-190 -145 c7 -9 31 -24 53 -34 44 -19 27 -26 -23 -8
-37 13 -62 48 -61 86 l1 28 8 -28 c5 -16 15 -35 22 -44z m248 33 c0 -20 -88
-88 -115 -88 -23 0 -95 47 -95 62 0 11 108 37 163 39 34 1 47 -3 47 -13z m40
-26 c-14 -26 -68 -60 -95 -59 -13 0 -6 7 21 19 23 10 50 29 60 43 22 29 31 28
14 -3z m-176 -97 c41 -4 61 -1 94 16 50 26 55 21 8 -8 -44 -28 -123 -28 -176
-1 -22 11 -40 23 -40 25 0 3 14 -2 31 -11 17 -8 55 -18 83 -21z"/>
<path d="M536 682 c-2 -4 -3 -18 -1 -31 2 -36 25 -39 26 -4 2 27 2 27 6 3 5
-28 21 -50 34 -50 14 0 11 56 -3 67 -17 13 -57 23 -62 15z"/>
<path d="M27 442 c-24 -26 -21 -55 7 -85 30 -32 69 -43 101 -29 21 10 53 -6
291 -144 197 -113 271 -151 278 -143 7 8 8 13 1 15 -6 2 -128 72 -273 155
-222 129 -262 155 -262 174 0 56 -106 98 -143 57z m57 2 c19 -7 21 -45 4 -62
-32 -32 -79 2 -60 43 12 25 27 30 56 19z m48 -41 c7 -25 -1 -43 -19 -43 -10 0
-13 6 -9 16 3 9 6 22 6 30 0 20 17 17 22 -3z"/>
</g>
</svg>
