<?xml version="1.0" standalone="no"?>
<!DOCTYPE svg PUBLIC "-//W3C//DTD SVG 20010904//EN"
 "http://www.w3.org/TR/2001/REC-SVG-20010904/DTD/svg10.dtd">
<svg version="1.0" xmlns="http://www.w3.org/2000/svg"
 width="72.000000pt" height="72.000000pt" viewBox="0 0 72.000000 72.000000"
 preserveAspectRatio="xMidYMid meet">
<metadata>
Created by potrace 1.10, written by Peter Selinger 2001-2011
</metadata>
<g transform="translate(0.000000,72.000000) scale(0.100000,-0.100000)"
fill="#000000" stroke="none">
<path d="M63 546 c-18 -15 -37 -42 -43 -61 -14 -42 -10 -123 7 -140 7 -7 59
-36 115 -64 84 -41 135 -58 277 -91 96 -22 184 -40 196 -40 22 0 54 29 74 67
17 33 25 136 13 160 -13 23 -157 87 -174 77 -6 -4 -8 -3 -4 4 6 10 -138 73
-166 71 -7 0 24 -14 70 -31 46 -16 81 -32 79 -35 -3 -2 -43 9 -90 26 -46 16
-113 35 -148 42 -47 9 -58 14 -43 20 17 7 16 8 -6 8 -14 1 -48 4 -75 7 -45 6
-54 3 -82 -20z m122 -19 c-11 -15 -12 -24 -3 -34 7 -9 7 -13 0 -13 -7 0 -9 -7
-5 -17 5 -11 3 -14 -6 -8 -10 6 -11 3 -2 -14 7 -11 14 -21 17 -21 3 0 3 4 -1
9 -3 6 4 26 15 46 11 20 18 40 15 44 -2 5 32 -2 78 -15 45 -13 109 -32 142
-41 53 -14 106 -40 65 -31 -10 2 -14 -3 -12 -16 2 -10 -1 -16 -5 -13 -5 3 -15
1 -23 -4 -13 -9 -13 -10 0 -6 8 2 21 -2 28 -10 7 -7 18 -13 25 -13 6 0 3 6 -6
13 -16 11 -16 14 -2 35 15 20 18 21 38 7 28 -20 38 -19 31 3 -5 14 -4 14 4 3
7 -10 7 -21 1 -32 -15 -29 -10 -33 13 -13 l22 19 -20 -27 c-10 -14 -20 -22
-22 -17 -2 5 -13 9 -24 9 -19 0 -19 -1 3 -20 21 -18 16 -17 -36 5 -33 14 -61
22 -63 17 -1 -5 -9 -18 -16 -28 -13 -17 -19 -17 -77 -6 -35 7 -81 18 -103 23
l-39 10 6 55 c3 30 3 54 1 54 -10 0 -34 -70 -34 -99 0 -25 5 -32 28 -36 15 -3
70 -16 122 -29 52 -13 96 -23 98 -21 4 4 10 33 11 55 1 13 2 13 11 0 13 -20
13 -63 0 -55 -5 3 -10 2 -10 -3 0 -10 52 -32 75 -32 7 0 17 15 23 33 11 31 11
31 4 -8 -3 -22 -5 -56 -4 -75 1 -19 -1 -30 -6 -24 -12 19 -48 34 -71 29 -16
-3 -21 1 -21 17 0 15 -4 18 -17 14 -21 -8 -118 20 -163 47 l-35 21 19 -22 c22
-26 10 -29 -22 -6 -12 8 -32 17 -43 19 -12 3 -29 11 -39 20 -9 8 -21 15 -26
15 -17 0 -104 65 -104 78 0 8 5 10 13 6 9 -6 9 -4 -1 8 -11 14 -11 22 2 47 9
16 24 35 33 40 10 6 14 11 8 12 -21 2 40 14 81 15 42 1 43 1 29 -19z m494
-141 c16 -19 20 -83 9 -125 -6 -18 -24 -47 -41 -62 -17 -16 -27 -29 -21 -29 5
0 16 6 24 13 12 10 12 9 1 -5 -17 -23 -54 -23 -72 -2 -19 23 -16 121 4 161 17
33 52 63 73 63 6 0 17 -6 23 -14z m-591 -46 c57 -41 53 -46 -8 -8 -27 17 -50
33 -50 34 0 11 21 1 58 -26z m452 -17 c6 -5 -22 -23 -35 -23 -5 0 -18 16 -27
35 l-17 34 37 -21 c20 -12 39 -23 42 -25z m-352 -43 c23 -11 82 -31 130 -45
96 -26 93 -33 -4 -10 -62 14 -174 59 -174 69 0 9 2 8 48 -14z"/>
<path d="M50 489 c-14 -26 -6 -49 17 -49 10 0 25 -5 33 -11 11 -8 7 -9 -19 -5
-32 6 -33 5 -18 -11 8 -10 29 -26 46 -36 l31 -18 0 32 c0 18 -2 30 -5 27 -9
-8 -75 54 -75 70 0 10 9 13 34 10 19 -2 32 0 30 4 -11 17 -63 8 -74 -13z"/>
<path d="M619 294 c-14 -40 -1 -64 29 -53 19 7 23 15 20 41 -4 43 -34 50 -49
12z"/>
</g>
</svg>
