<?xml version="1.0" standalone="no"?>
<!DOCTYPE svg PUBLIC "-//W3C//DTD SVG 20010904//EN"
 "http://www.w3.org/TR/2001/REC-SVG-20010904/DTD/svg10.dtd">
<svg version="1.0" xmlns="http://www.w3.org/2000/svg"
 width="72.000000pt" height="72.000000pt" viewBox="0 0 72.000000 72.000000"
 preserveAspectRatio="xMidYMid meet">
<metadata>
Created by potrace 1.10, written by Peter Selinger 2001-2011
</metadata>
<g transform="translate(0.000000,72.000000) scale(0.100000,-0.100000)"
fill="#000000" stroke="none">
<path d="M31 686 c-7 -8 -1 -19 22 -37 18 -15 46 -46 62 -70 17 -23 100 -114
185 -202 85 -87 159 -168 165 -180 12 -27 31 -48 37 -41 11 11 69 -68 63 -86
-6 -19 18 -50 39 -50 15 0 96 82 96 97 0 20 -31 44 -50 38 -18 -6 -80 38 -80
57 0 13 -26 38 -40 38 -6 0 -65 53 -131 118 -66 64 -126 118 -132 120 -7 2 2
-8 18 -22 29 -25 29 -26 7 -26 -15 0 -26 7 -29 20 -3 11 -10 20 -17 20 -6 0
-5 4 3 9 11 7 3 19 -33 55 -27 25 -52 46 -57 46 -6 0 -34 24 -64 54 -40 41
-56 52 -64 42z m480 -475 c-14 -26 -35 -28 -26 -2 3 11 1 22 -4 25 -6 4 -7 14
-4 23 5 13 2 15 -15 11 -16 -5 -23 0 -31 23 -6 16 -16 28 -23 27 -7 -2 -14 7
-16 20 -2 15 -9 22 -17 18 -13 -5 -32 10 -34 27 -1 4 -3 6 -4 5 -10 -7 -35 26
-30 39 4 11 34 -13 111 -90 94 -95 103 -106 93 -126z m130 -68 c24 6 24 2 -2
-21 -20 -20 -21 -20 -59 21 -47 51 -42 70 7 27 22 -20 43 -30 54 -27z m39 -18
c0 -19 -58 -75 -79 -75 -9 0 1 16 29 45 24 25 45 45 47 45 2 0 3 -7 3 -15z"/>
</g>
</svg>
