<?xml version="1.0" standalone="no"?>
<!DOCTYPE svg PUBLIC "-//W3C//DTD SVG 20010904//EN"
 "http://www.w3.org/TR/2001/REC-SVG-20010904/DTD/svg10.dtd">
<svg version="1.0" xmlns="http://www.w3.org/2000/svg"
 width="72.000000pt" height="72.000000pt" viewBox="0 0 72.000000 72.000000"
 preserveAspectRatio="xMidYMid meet">
<metadata>
Created by potrace 1.10, written by Peter Selinger 2001-2011
</metadata>
<g transform="translate(0.000000,72.000000) scale(0.100000,-0.100000)"
fill="#000000" stroke="none">
<path d="M260 619 c-142 -23 -240 -95 -240 -176 0 -38 23 -110 53 -169 100
-195 366 -238 514 -83 68 72 126 218 110 281 -16 63 -124 129 -244 147 -81 12
-115 12 -193 0z m267 -41 c77 -27 128 -67 143 -113 10 -31 9 -41 -12 -82 -37
-76 -133 -113 -291 -113 -145 0 -270 42 -307 103 -42 69 -15 140 69 181 124
59 270 68 398 24z m-415 -267 c99 -58 297 -72 432 -32 93 28 108 18 63 -40
-19 -24 -40 -43 -47 -41 -8 2 -10 -3 -6 -15 4 -9 4 -14 0 -10 -4 4 -19 -3 -32
-15 -24 -22 -24 -21 2 14 15 20 25 42 21 48 -4 6 4 19 17 30 23 18 22 18 -34
2 -32 -9 -58 -23 -58 -30 0 -9 7 -9 30 3 18 10 30 11 30 5 0 -20 -28 -65 -56
-90 -16 -14 -24 -18 -18 -10 5 8 11 29 12 45 l2 30 -19 -36 c-11 -19 -27 -41
-35 -48 -8 -7 -2 11 14 41 36 65 36 68 5 68 -20 0 -25 -5 -25 -25 0 -26 -25
-95 -34 -95 -2 0 0 15 5 32 5 18 9 44 9 58 0 22 -4 25 -36 25 l-36 0 6 -40 c3
-23 8 -50 11 -60 4 -13 1 -12 -9 5 -8 14 -15 42 -16 63 0 33 -3 37 -26 37 -23
0 -25 -3 -20 -27 4 -16 16 -40 27 -56 11 -15 15 -27 10 -27 -12 0 -47 58 -55
91 -4 18 -14 28 -30 31 -25 5 -25 5 -10 -31 8 -20 22 -47 31 -61 16 -24 16
-24 -2 -10 -10 8 -28 38 -41 66 -12 28 -30 54 -38 57 -22 9 -20 -1 10 -53 20
-34 21 -40 6 -27 -10 9 -21 15 -24 11 -7 -7 -40 39 -66 94 -23 47 -18 51 30
23z"/>
<path d="M90 294 c0 -13 52 -96 57 -91 6 6 -33 84 -47 92 -5 3 -10 3 -10 -1z"/>
</g>
</svg>
