<?xml version="1.0" standalone="no"?>
<!DOCTYPE svg PUBLIC "-//W3C//DTD SVG 20010904//EN"
 "http://www.w3.org/TR/2001/REC-SVG-20010904/DTD/svg10.dtd">
<svg version="1.0" xmlns="http://www.w3.org/2000/svg"
 width="72.000000pt" height="72.000000pt" viewBox="0 0 72.000000 72.000000"
 preserveAspectRatio="xMidYMid meet">
<metadata>
Created by potrace 1.10, written by Peter Selinger 2001-2011
</metadata>
<g transform="translate(0.000000,72.000000) scale(0.100000,-0.100000)"
fill="#000000" stroke="none">
<path d="M40 675 l-24 -26 314 -314 c173 -173 317 -315 320 -315 3 0 12 5 20
11 11 8 12 12 2 16 -20 8 -471 467 -469 477 1 6 -8 12 -19 14 -26 4 -69 47
-69 70 0 10 -7 16 -16 14 -23 -3 -50 30 -39 48 8 12 77 -53 321 -298 172 -172
314 -310 317 -307 6 6 -618 635 -629 635 -3 0 -16 -11 -29 -25z m410 -442 c0
-8 -13 5 -110 105 l-105 107 108 -105 c59 -57 107 -106 107 -107z"/>
</g>
</svg>
