<?xml version="1.0" standalone="no"?>
<!DOCTYPE svg PUBLIC "-//W3C//DTD SVG 20010904//EN"
 "http://www.w3.org/TR/2001/REC-SVG-20010904/DTD/svg10.dtd">
<svg version="1.0" xmlns="http://www.w3.org/2000/svg"
 width="72.000000pt" height="72.000000pt" viewBox="0 0 72.000000 72.000000"
 preserveAspectRatio="xMidYMid meet">
<metadata>
Created by potrace 1.10, written by Peter Selinger 2001-2011
</metadata>
<g transform="translate(0.000000,72.000000) scale(0.100000,-0.100000)"
fill="#000000" stroke="none">
<path d="M38 683 c-13 -14 -23 -37 -24 -51 -1 -36 43 -84 70 -76 17 4 18 3 6
-5 -8 -5 -12 -13 -9 -16 8 -8 39 5 39 16 0 5 6 9 13 9 6 -1 2 -9 -10 -19 -26
-21 -30 -36 -9 -28 16 6 161 -138 170 -169 7 -23 106 -133 106 -118 0 6 -4 15
-10 22 -7 9 -7 9 2 2 17 -15 28 -12 28 6 0 12 -7 15 -25 12 -20 -4 -32 2 -55
29 -41 46 -38 55 4 14 25 -24 36 -29 42 -20 5 9 -30 49 -109 125 l-116 112 23
21 c12 12 25 18 29 15 3 -3 5 8 5 25 -1 22 -5 30 -14 27 -7 -3 -11 0 -8 7 2 7
-12 28 -31 47 -45 43 -84 48 -117 13z m99 -66 c21 -13 16 -47 -7 -47 -25 0
-44 32 -28 48 9 9 9 12 1 12 -6 0 -13 -5 -15 -12 -3 -9 -13 -6 -31 8 l-26 21
21 21 21 20 26 -31 c14 -18 31 -36 38 -40z"/>
<path d="M232 578 c-7 -7 -12 -15 -12 -18 0 -12 210 -224 216 -217 4 3 -9 24
-29 47 -22 24 -34 46 -31 55 5 11 2 14 -12 8 -12 -4 -15 -3 -10 6 12 19 -24
53 -48 45 -19 -6 -20 -5 -6 11 14 17 13 17 -10 11 -18 -5 -21 -5 -10 3 8 5 11
13 7 17 -3 4 -15 1 -24 -7 -16 -13 -17 -12 -4 4 12 16 12 20 0 33 -12 11 -17
12 -27 2z"/>
<path d="M275 440 c55 -55 102 -100 105 -100 2 0 -40 45 -95 100 -55 55 -102
100 -105 100 -2 0 40 -45 95 -100z"/>
<path d="M460 288 c0 -6 3 -8 7 -5 3 4 21 -5 40 -19 18 -14 38 -22 43 -19 14
9 2 25 -13 19 -7 -2 -22 4 -32 16 -20 22 -45 27 -45 8z"/>
<path d="M420 246 c0 -9 0 -19 0 -23 0 -5 6 -8 13 -8 6 0 12 -12 12 -26 0 -17
5 -26 17 -26 26 -2 22 19 -12 62 -19 24 -30 32 -30 21z"/>
<path d="M643 202 c59 -65 65 -79 46 -114 -10 -19 -12 -19 -50 18 -21 21 -39
47 -39 59 0 21 -17 45 -32 45 -4 0 -7 -10 -6 -22 2 -55 -5 -60 -41 -27 -32 30
-38 16 -8 -17 20 -22 31 -26 56 -21 27 6 35 1 73 -45 24 -28 42 -54 41 -58 -1
-4 5 -7 13 -7 18 0 18 21 -1 37 -13 11 -13 15 0 33 26 38 17 60 -47 122 l-62
60 57 -63z"/>
<path d="M511 84 c73 -74 90 -82 126 -59 20 14 23 19 12 26 -8 5 -22 6 -32 3
-12 -4 -36 10 -74 43 -87 73 -108 64 -32 -13z"/>
</g>
</svg>
