<?xml version="1.0" standalone="no"?>
<!DOCTYPE svg PUBLIC "-//W3C//DTD SVG 20010904//EN"
 "http://www.w3.org/TR/2001/REC-SVG-20010904/DTD/svg10.dtd">
<svg version="1.0" xmlns="http://www.w3.org/2000/svg"
 width="72.000000pt" height="72.000000pt" viewBox="0 0 72.000000 72.000000"
 preserveAspectRatio="xMidYMid meet">
<metadata>
Created by potrace 1.10, written by Peter Selinger 2001-2011
</metadata>
<g transform="translate(0.000000,72.000000) scale(0.100000,-0.100000)"
fill="#000000" stroke="none">
<path d="M27 692 c-16 -18 -16 -20 3 -37 11 -10 20 -24 20 -32 0 -7 8 -13 19
-13 10 0 25 -10 34 -23 8 -13 63 -71 121 -130 58 -58 106 -113 106 -120 0 -8
11 -19 25 -25 37 -17 176 -154 171 -168 -3 -7 4 -14 16 -16 16 -2 26 -16 37
-52 9 -27 23 -54 32 -59 40 -25 107 28 95 76 -6 24 -32 41 -80 52 -16 3 -30
14 -33 25 -3 11 -11 20 -18 20 -21 0 -174 170 -168 186 3 8 -1 14 -10 14 -9 0
-18 -9 -22 -19 -8 -26 -34 -36 -28 -11 3 10 -4 27 -17 40 -30 30 -20 35 16 8
35 -26 19 -9 -61 63 -33 29 -49 41 -36 26 21 -23 22 -27 7 -27 -18 0 -35 35
-30 63 1 9 -1 17 -5 17 -13 0 -111 94 -111 108 0 11 -5 14 -39 16 -8 1 -16 8
-18 16 -4 13 -3 13 7 0 9 -12 11 -12 8 -1 -6 22 -23 23 -41 3z m95 -71 c18
-16 30 -32 27 -36 -4 -3 -23 10 -43 30 -44 42 -30 47 16 6z m306 -301 c13 -17
17 -30 11 -30 -15 0 -59 47 -51 54 10 11 18 6 40 -24z m230 -195 c29 -8 48
-43 32 -59 -8 -8 -14 -7 -21 7 -6 9 -23 24 -39 32 -32 17 -41 39 -12 31 9 -2
27 -7 40 -11z"/>
</g>
</svg>
