<?xml version="1.0" standalone="no"?>
<!DOCTYPE svg PUBLIC "-//W3C//DTD SVG 20010904//EN"
 "http://www.w3.org/TR/2001/REC-SVG-20010904/DTD/svg10.dtd">
<svg version="1.0" xmlns="http://www.w3.org/2000/svg"
 width="72.000000pt" height="72.000000pt" viewBox="0 0 72.000000 72.000000"
 preserveAspectRatio="xMidYMid meet">
<metadata>
Created by potrace 1.10, written by Peter Selinger 2001-2011
</metadata>
<g transform="translate(0.000000,72.000000) scale(0.100000,-0.100000)"
fill="#000000" stroke="none">
<path d="M28 683 c-20 -5 -23 -19 -7 -29 6 -3 15 0 20 7 7 11 9 11 9 -3 0 -13
8 -16 38 -13 20 1 43 3 50 4 17 1 15 28 -4 35 -17 7 -79 6 -106 -1z"/>
<path d="M157 668 c4 -20 10 -23 51 -23 26 0 65 -9 87 -20 62 -30 158 -131
191 -202 16 -35 35 -63 42 -63 18 0 15 15 -19 82 -63 125 -193 227 -310 243
-44 6 -46 5 -42 -17z"/>
<path d="M528 353 c-11 -3 -18 -14 -18 -27 0 -26 32 -60 45 -49 4 5 5 2 1 -5
-4 -7 -12 -10 -17 -7 -5 4 -9 0 -9 -9 0 -8 5 -16 11 -18 6 -2 12 -31 13 -68 1
-51 -4 -73 -21 -102 -12 -21 -19 -38 -15 -38 22 -1 191 46 189 52 -1 4 -18 17
-37 30 -36 25 -93 114 -85 135 6 17 -20 64 -31 55 -4 -4 -2 1 5 10 7 10 11 25
7 33 -6 15 -8 16 -38 8z m113 -235 c29 -29 27 -38 -5 -38 -20 0 -35 27 -52 95
-4 16 -2 15 13 -5 10 -14 30 -37 44 -52z"/>
</g>
</svg>
