<?xml version="1.0" standalone="no"?>
<!DOCTYPE svg PUBLIC "-//W3C//DTD SVG 20010904//EN"
 "http://www.w3.org/TR/2001/REC-SVG-20010904/DTD/svg10.dtd">
<svg version="1.0" xmlns="http://www.w3.org/2000/svg"
 width="72.000000pt" height="72.000000pt" viewBox="0 0 72.000000 72.000000"
 preserveAspectRatio="xMidYMid meet">
<metadata>
Created by potrace 1.10, written by Peter Selinger 2001-2011
</metadata>
<g transform="translate(0.000000,72.000000) scale(0.100000,-0.100000)"
fill="#000000" stroke="none">
<path d="M39 673 c-13 -36 -4 -88 27 -140 36 -62 32 -107 -11 -146 -42 -37
-45 -70 -10 -93 25 -17 32 -17 165 1 37 5 50 2 76 -17 17 -13 67 -50 110 -83
100 -75 263 -175 286 -175 30 0 21 33 -35 122 -190 302 -446 558 -558 558 -34
0 -41 -4 -50 -27z m136 -22 c77 -44 207 -167 291 -277 87 -112 204 -286 204
-303 0 -22 -19 -10 -40 24 -22 36 -36 43 -42 24 -2 -7 -16 -1 -33 15 -23 19
-27 28 -17 34 9 6 -8 25 -60 65 -73 56 -215 196 -255 252 -21 29 -22 29 -20 6
1 -13 14 -37 29 -53 29 -31 37 -55 16 -42 -10 6 -10 4 0 -7 18 -20 15 -29 -12
-29 -29 0 -43 30 -22 46 21 15 20 24 -3 24 -11 0 -23 5 -27 12 -5 7 -3 8 6 3
8 -5 11 -4 7 2 -4 6 -18 8 -32 6 -19 -4 -27 0 -34 18 -5 13 -5 28 -1 33 4 4
-1 23 -12 42 -17 29 -18 34 -4 34 25 0 19 19 -10 32 -22 11 -28 10 -40 -7 -13
-18 -14 -17 -14 9 0 71 43 84 125 37z m3 -233 c7 -7 12 -21 12 -32 0 -19 -1
-19 -16 2 -9 13 -26 27 -38 32 -20 8 -20 9 4 9 15 1 31 -4 38 -11z m-23 -38
c17 -19 17 -22 3 -36 -30 -30 -84 10 -57 42 16 19 33 17 54 -6z m127 -68 c32
-21 197 -150 218 -170 23 -22 -128 81 -188 129 -57 45 -56 45 -182 35 l-65 -5
63 8 c34 4 65 11 69 14 12 13 58 7 85 -11z"/>
<path d="M140 611 c0 -15 6 -21 21 -21 14 0 19 5 17 17 -5 26 -38 29 -38 4z"/>
<path d="M207 554 c-14 -15 -6 -34 14 -34 14 0 19 5 17 17 -3 18 -20 27 -31
17z"/>
<path d="M260 480 c0 -13 7 -20 20 -20 13 0 20 7 20 20 0 13 -7 20 -20 20 -13
0 -20 -7 -20 -20z"/>
<path d="M347 463 c-13 -12 -7 -41 10 -47 9 -4 23 0 31 8 13 12 13 18 2 30
-13 17 -32 21 -43 9z"/>
<path d="M387 363 c-3 -5 -2 -15 3 -22 10 -17 43 -6 38 12 -6 15 -34 22 -41
10z"/>
</g>
</svg>
