<?xml version="1.0" standalone="no"?>
<!DOCTYPE svg PUBLIC "-//W3C//DTD SVG 20010904//EN"
 "http://www.w3.org/TR/2001/REC-SVG-20010904/DTD/svg10.dtd">
<svg version="1.0" xmlns="http://www.w3.org/2000/svg"
 width="72.000000pt" height="72.000000pt" viewBox="0 0 72.000000 72.000000"
 preserveAspectRatio="xMidYMid meet">
<metadata>
Created by potrace 1.10, written by Peter Selinger 2001-2011
</metadata>
<g transform="translate(0.000000,72.000000) scale(0.100000,-0.100000)"
fill="#000000" stroke="none">
<path d="M102 688 c-7 -7 -12 -17 -12 -23 0 -15 114 -127 123 -120 4 3 5 2 2
-1 -2 -4 -21 -8 -42 -9 -21 -1 -62 -11 -92 -22 l-53 -19 53 -48 c29 -26 55
-43 57 -37 2 7 -2 18 -9 27 -10 12 -8 17 7 29 23 17 30 18 55 5 32 -18 21 4
-12 24 -30 18 -32 18 -59 -3 -16 -11 -31 -17 -35 -12 -8 13 58 51 88 51 26 0
87 -43 87 -62 0 -6 -9 -8 -20 -5 -24 6 -25 1 -6 -19 9 -9 17 -10 21 -4 3 5 13
10 22 10 13 0 13 -3 3 -15 -9 -11 -9 -15 -1 -15 7 0 10 -4 7 -9 -3 -4 6 -19
20 -32 18 -17 27 -20 33 -11 5 8 17 1 42 -24 19 -20 43 -40 54 -44 20 -9 20
-9 -1 -9 -11 -1 -33 13 -49 29 -28 29 -55 39 -55 21 0 -13 92 -100 106 -101 5
0 23 -14 39 -30 16 -17 33 -30 39 -30 5 0 -5 16 -24 35 -19 19 -43 35 -54 35
-26 0 -18 6 19 14 17 4 25 3 18 -2 -9 -6 2 -22 37 -57 50 -49 59 -65 39 -65
-5 0 -7 5 -3 12 5 7 3 8 -6 3 -8 -5 -11 -4 -6 3 3 6 2 13 -3 16 -11 7 -45 -24
-35 -33 4 -3 9 0 11 7 3 8 19 0 45 -23 32 -27 44 -32 55 -24 9 9 13 8 13 0 0
-6 -7 -14 -15 -17 -12 -5 -12 -9 1 -29 8 -13 22 -26 30 -29 21 -8 54 11 54 32
0 9 -105 122 -234 250 -128 127 -231 232 -227 232 3 0 -24 29 -59 65 -35 36
-60 65 -56 65 15 0 132 -117 128 -128 -2 -6 5 -13 16 -16 23 -8 387 -372 387
-388 0 -16 22 -21 30 -7 5 7 -98 117 -271 290 -153 154 -281 279 -284 279 -3
0 -11 -5 -18 -12z m568 -623 c0 -19 -20 -29 -32 -17 -15 15 -2 43 17 36 8 -3
15 -12 15 -19z"/>
<path d="M165 410 c-9 -10 -15 -26 -12 -35 9 -22 24 -18 31 8 5 19 27 0 195
-167 116 -116 193 -186 200 -181 8 5 9 11 2 19 -6 7 -7 17 -3 22 4 4 0 3 -9
-4 -13 -10 -40 13 -173 146 -143 143 -156 159 -145 177 11 17 10 18 -3 8 -12
-11 -18 -9 -33 7 -22 25 -27 25 -50 0z"/>
</g>
</svg>
