<?xml version="1.0" standalone="no"?>
<!DOCTYPE svg PUBLIC "-//W3C//DTD SVG 20010904//EN"
 "http://www.w3.org/TR/2001/REC-SVG-20010904/DTD/svg10.dtd">
<svg version="1.0" xmlns="http://www.w3.org/2000/svg"
 width="72.000000pt" height="72.000000pt" viewBox="0 0 72.000000 72.000000"
 preserveAspectRatio="xMidYMid meet">
<metadata>
Created by potrace 1.10, written by Peter Selinger 2001-2011
</metadata>
<g transform="translate(0.000000,72.000000) scale(0.100000,-0.100000)"
fill="#000000" stroke="none">
<path d="M258 543 c57 -2 147 -2 200 0 53 1 7 3 -103 3 -110 0 -154 -2 -97 -3z"/>
<path d="M80 503 c0 -10 -3 -41 -6 -68 l-6 -50 58 2 59 1 3 46 c3 51 -5 56
-53 34 -22 -10 -28 -9 -36 3 -19 30 -10 39 39 39 26 0 53 -5 60 -12 9 -9 12
-9 12 0 0 8 18 12 50 12 38 0 50 -4 50 -15 0 -8 -7 -15 -15 -15 -9 0 -27 -8
-42 -17 -24 -16 -26 -16 -39 2 -13 17 -14 14 -14 -31 l0 -49 55 0 55 0 0 48
c0 26 5 47 10 47 6 0 10 7 10 15 0 11 12 15 50 15 32 0 50 -4 50 -12 0 -9 3
-9 12 0 17 17 108 16 108 -1 0 -13 -53 -37 -83 -37 -13 0 -17 -9 -17 -37 l0
-38 58 0 57 0 0 60 c0 58 1 60 28 63 15 2 27 -1 27 -6 0 -13 -29 -24 -42 -15
-8 4 -9 -5 -5 -27 4 -18 7 -43 7 -56 0 -21 5 -24 35 -24 l35 0 -6 48 c-4 26
-7 56 -9 67 -2 19 -11 20 -278 23 -260 2 -277 2 -277 -15z"/>
<path d="M375 465 c-11 -9 -25 -13 -32 -11 -9 4 -13 -6 -13 -32 l0 -37 55 0
56 0 -3 45 c-2 36 -7 45 -23 47 -11 2 -29 -4 -40 -12z"/>
<path d="M59 352 c0 -9 -4 -42 -8 -72 l-7 -55 62 0 62 0 7 49 c3 26 3 51 0 54
-3 3 -20 0 -38 -7 -65 -26 -67 -26 -67 8 l0 32 58 -3 57 -3 0 -65 0 -65 62 0
63 0 0 48 c0 55 -16 68 -55 43 -38 -25 -55 -21 -55 14 0 30 1 30 54 30 62 0
66 -5 66 -83 l0 -52 63 0 62 0 -4 48 c-3 55 -19 67 -53 43 -37 -26 -58 -21
-58 14 0 30 1 30 53 30 46 0 56 -3 65 -22 l11 -23 0 23 c1 20 6 22 56 22 42 0
55 -3 55 -15 0 -8 -8 -15 -17 -15 -10 0 -27 -7 -37 -15 -11 -8 -28 -15 -38
-15 -14 0 -18 -8 -18 -37 l0 -38 59 0 59 0 4 67 c2 46 -1 69 -9 72 -6 3 -125
5 -262 5 -229 0 -251 -1 -252 -17z m91 -77 c0 -9 -9 -15 -25 -15 -29 0 -34 16
-7 23 30 8 32 7 32 -8z m130 0 c0 -9 -9 -15 -25 -15 -29 0 -34 16 -7 23 30 8
32 7 32 -8z m138 -4 c3 -8 -7 -11 -32 -9 -42 2 -44 5 -13 18 26 10 39 8 45 -9z
m125 4 c1 -6 -11 -11 -28 -13 -29 -2 -29 -2 -10 13 20 16 35 16 38 0z"/>
<path d="M648 310 c3 -18 0 -30 -7 -30 -6 0 -11 5 -11 11 0 8 -4 9 -13 0 -8
-6 -17 -8 -21 -4 -4 4 -4 -1 0 -11 4 -11 14 -16 24 -13 23 6 47 -8 31 -17 -6
-4 -11 -2 -11 3 0 7 -7 7 -20 -1 -31 -19 -24 -28 21 -28 31 0 40 3 36 14 -3 7
-9 34 -12 60 -4 25 -10 46 -14 46 -4 0 -6 -13 -3 -30z"/>
<path d="M20 186 l0 -26 340 0 c317 0 340 1 340 18 0 16 -21 17 -326 14 -237
-2 -330 0 -340 9 -11 9 -14 7 -14 -15z m413 -13 c-40 -2 -107 -2 -150 0 -43 1
-10 3 72 3 83 0 118 -2 78 -3z"/>
</g>
</svg>
