<?xml version="1.0" standalone="no"?>
<!DOCTYPE svg PUBLIC "-//W3C//DTD SVG 20010904//EN"
 "http://www.w3.org/TR/2001/REC-SVG-20010904/DTD/svg10.dtd">
<svg version="1.0" xmlns="http://www.w3.org/2000/svg"
 width="72.000000pt" height="72.000000pt" viewBox="0 0 72.000000 72.000000"
 preserveAspectRatio="xMidYMid meet">
<metadata>
Created by potrace 1.10, written by Peter Selinger 2001-2011
</metadata>
<g transform="translate(0.000000,72.000000) scale(0.100000,-0.100000)"
fill="#000000" stroke="none">
<path d="M31 686 l-21 -22 50 -44 c27 -25 50 -50 50 -56 0 -6 20 -32 45 -56
25 -25 45 -53 45 -61 0 -9 9 -21 20 -27 25 -13 26 -3 3 24 -18 20 -18 20 11 2
36 -23 75 -67 76 -84 0 -7 4 -11 9 -7 5 3 17 -5 25 -17 l16 -22 0 21 c0 24 15
39 24 24 4 -5 2 -12 -4 -16 -17 -10 -11 -29 18 -61 15 -17 26 -36 24 -43 -2
-6 4 -10 15 -8 27 4 44 17 37 28 -4 6 -14 3 -27 -8 -11 -10 -17 -12 -13 -5 5
8 1 19 -10 27 -11 8 -15 15 -10 15 5 0 -1 11 -13 24 -21 22 -21 24 -5 21 11
-1 18 -8 16 -15 -1 -6 2 -8 9 -4 8 5 9 3 4 -6 -5 -8 -4 -11 3 -6 6 3 13 2 17
-4 3 -5 1 -10 -5 -10 -6 0 -8 -5 -5 -11 4 -6 13 -8 20 -5 22 8 38 -19 25 -43
-13 -24 -2 -27 26 -7 19 14 18 15 -6 40 -13 15 -30 24 -38 21 -11 -4 -12 -2
-4 8 9 10 -1 25 -43 67 -30 30 -55 51 -55 46 0 -5 -7 -3 -15 4 -8 7 -15 20
-15 29 0 9 -10 27 -21 41 -16 19 -19 20 -15 6 6 -17 4 -17 -11 -6 -10 8 -66
62 -124 121 l-107 107 -21 -22z m134 -112 c9 3 11 -2 8 -15 -6 -22 -23 -26
-23 -4 0 8 -7 15 -15 15 -18 0 -20 17 -2 23 6 2 14 -2 15 -10 2 -8 10 -12 17
-9z m121 -118 c16 -17 4 -29 -20 -20 -17 7 -20 16 -9 27 9 10 13 9 29 -7z m54
-57 c0 -6 6 -9 14 -6 8 3 34 -16 62 -46 27 -29 35 -39 18 -24 -17 15 -34 24
-39 20 -4 -5 -5 -3 -2 3 9 16 -19 39 -28 24 -5 -8 -12 -7 -24 4 -10 9 -21 13
-24 9 -4 -3 -7 -2 -7 4 0 5 3 13 7 16 10 11 23 8 23 -4z"/>
<path d="M515 217 c-9 -10 -11 -23 -6 -42 0 -3 12 2 26 11 27 18 32 9 11 -18
-7 -10 -17 -14 -22 -10 -5 4 2 -7 17 -23 44 -52 51 -64 58 -95 l6 -31 55 51
55 51 -45 20 c-25 11 -66 38 -92 60 -52 44 -49 43 -63 26z m61 -52 c-3 -8 0
-16 7 -16 27 -3 33 -5 66 -23 31 -16 32 -19 18 -34 -15 -14 -18 -14 -36 3 -11
9 -18 22 -15 26 3 5 -2 6 -10 3 -9 -3 -16 -1 -16 5 0 6 -6 8 -13 5 -8 -3 -13
5 -15 21 -1 14 3 25 9 25 6 0 9 -7 5 -15z"/>
</g>
</svg>
