<?xml version="1.0" standalone="no"?>
<!DOCTYPE svg PUBLIC "-//W3C//DTD SVG 20010904//EN"
 "http://www.w3.org/TR/2001/REC-SVG-20010904/DTD/svg10.dtd">
<svg version="1.0" xmlns="http://www.w3.org/2000/svg"
 width="72.000000pt" height="72.000000pt" viewBox="0 0 72.000000 72.000000"
 preserveAspectRatio="xMidYMid meet">
<metadata>
Created by potrace 1.10, written by Peter Selinger 2001-2011
</metadata>
<g transform="translate(0.000000,72.000000) scale(0.100000,-0.100000)"
fill="#000000" stroke="none">
<path d="M71 653 l-56 -56 27 -7 c14 -4 46 -21 70 -38 58 -40 178 -151 178
-165 0 -6 -15 4 -34 22 -57 55 -84 26 -50 -55 15 -35 15 -39 0 -50 -14 -10
-14 -13 -2 -24 32 -26 31 51 0 128 -3 6 1 12 8 12 16 0 58 -41 58 -56 0 -5 32
-41 70 -79 39 -38 70 -75 70 -82 0 -7 5 -13 12 -13 16 0 68 -51 68 -67 0 -7 6
-13 13 -13 7 0 35 -23 62 -50 54 -55 83 -62 115 -30 41 41 32 53 -224 305
-231 228 -306 316 -306 357 0 30 -21 20 -79 -39z m98 -27 c16 -30 74 -98 128
-153 54 -54 97 -101 95 -105 -1 -5 3 -8 9 -8 18 0 279 -269 279 -287 0 -10
-63 47 -145 130 -79 81 -147 147 -151 147 -4 0 0 -8 9 -18 10 -10 14 -22 10
-27 -5 -4 -2 -5 6 0 10 6 12 4 6 -5 -6 -9 -4 -11 5 -5 9 6 11 4 5 -5 -6 -9 -4
-11 5 -5 9 5 11 4 6 -4 -4 -6 -4 -11 1 -10 23 4 35 -2 29 -17 -4 -10 -2 -13 6
-8 7 5 8 3 3 -6 -5 -8 -4 -11 2 -7 13 8 36 -17 25 -28 -4 -5 -1 -5 7 0 10 6
12 4 6 -5 -5 -8 -4 -11 2 -7 13 8 56 -37 46 -48 -5 -4 -2 -5 6 0 10 6 12 4 6
-5 -6 -9 -4 -11 5 -5 9 6 11 4 5 -5 -5 -9 -4 -11 4 -6 7 5 10 2 9 -6 -2 -7 2
-12 8 -11 6 1 22 -9 34 -22 24 -26 21 -55 -5 -55 -17 0 -278 251 -322 310 -14
19 48 -38 139 -127 141 -140 188 -179 188 -159 0 3 -76 80 -170 172 -93 92
-167 170 -165 174 6 10 -129 139 -187 179 -45 30 -61 51 -38 51 31 0 275 -243
264 -262 -5 -7 -2 -8 6 -3 9 6 11 4 5 -5 -6 -9 -4 -11 5 -5 9 6 11 4 5 -5 -5
-9 -4 -11 3 -6 8 5 5 17 -11 39 -12 18 -25 34 -30 35 -4 2 -4 9 -1 14 4 6 3 8
-3 5 -5 -3 -54 39 -109 94 -54 54 -104 99 -111 99 -7 0 -13 3 -13 6 0 5 40 42
47 44 0 0 15 -24 32 -54z"/>
</g>
</svg>
