<?xml version="1.0" standalone="no"?>
<!DOCTYPE svg PUBLIC "-//W3C//DTD SVG 20010904//EN"
 "http://www.w3.org/TR/2001/REC-SVG-20010904/DTD/svg10.dtd">
<svg version="1.0" xmlns="http://www.w3.org/2000/svg"
 width="72.000000pt" height="72.000000pt" viewBox="0 0 72.000000 72.000000"
 preserveAspectRatio="xMidYMid meet">
<metadata>
Created by potrace 1.10, written by Peter Selinger 2001-2011
</metadata>
<g transform="translate(0.000000,72.000000) scale(0.100000,-0.100000)"
fill="#000000" stroke="none">
<path d="M314 569 c-132 -5 -253 -13 -267 -18 l-27 -11 0 -122 c0 -68 -3 -133
-6 -145 -5 -18 1 -25 35 -43 l41 -20 81 20 c45 12 88 19 95 16 8 -3 39 -24 69
-47 43 -32 60 -40 80 -35 15 4 38 0 56 -10 30 -15 35 -14 120 16 49 18 89 36
89 41 0 4 -15 19 -33 31 -21 14 -31 30 -29 40 2 11 -3 18 -12 18 -19 0 -21 16
-3 23 7 3 5 6 -5 6 -11 1 -18 -6 -18 -18 0 -11 -6 -21 -12 -24 -7 -2 1 -2 17
-1 17 2 24 1 17 -2 -10 -5 -10 -9 0 -22 11 -15 11 -15 -4 -4 -17 13 -68 7 -68
-9 0 -5 -6 -6 -14 -3 -8 3 -17 1 -20 -4 -3 -6 -16 -8 -28 -4 -15 3 -19 2 -14
-7 11 -17 92 -1 106 20 3 5 18 2 33 -6 15 -8 25 -10 22 -5 -4 6 -1 10 5 10 31
0 -4 -27 -61 -48 -49 -17 -69 -20 -87 -13 -12 6 -42 8 -67 4 l-45 -6 0 49 c-1
41 -3 46 -13 33 -16 -21 -54 -8 -66 23 -8 19 -4 28 22 50 18 15 40 28 50 28 9
0 17 7 17 15 0 26 -35 17 -58 -15 -38 -51 -52 -40 -52 41 0 44 -4 68 -10 64
-6 -3 -10 -19 -10 -35 0 -25 -9 -33 -75 -69 -64 -35 -75 -46 -76 -69 -1 -15
-4 -38 -8 -51 -7 -25 -7 -24 -23 9 -16 32 -15 35 3 58 15 20 19 41 19 111 0
47 4 91 8 97 8 13 98 22 297 30 105 4 136 2 125 -6 -12 -9 -9 -10 15 -6 17 4
43 2 59 -2 22 -6 -9 -12 -125 -25 -85 -10 -165 -17 -179 -17 -35 0 -13 -17 40
-30 72 -19 240 -15 240 6 0 7 -15 8 -47 3 -66 -11 -141 -11 -147 0 -7 11 165
33 232 29 28 -2 52 -1 52 2 0 3 8 10 18 17 17 10 18 8 14 -13 -2 -14 -9 -21
-16 -17 -6 3 -6 0 2 -8 14 -16 16 -49 2 -49 -5 0 -10 -10 -10 -22 -1 -21 -2
-22 -14 -5 -15 20 -28 23 -20 4 5 -15 -38 -33 -103 -43 -24 -4 -40 -10 -38
-14 3 -5 30 -2 61 7 72 18 83 9 13 -11 -68 -21 -81 -20 -108 3 -20 18 -21 20
-4 24 17 4 17 5 1 6 -12 1 -18 9 -18 26 0 14 -3 25 -7 25 -5 0 -6 -22 -5 -50
3 -32 0 -50 -7 -50 -6 0 -14 0 -18 -1 -13 -1 -33 -21 -33 -31 0 -6 7 -5 15 2
15 12 16 11 19 -22 1 -7 8 -21 17 -31 15 -17 19 -17 76 -1 36 10 60 22 60 30
0 18 -11 18 -46 -1 -16 -8 -32 -11 -36 -7 -5 4 -5 1 -1 -6 6 -9 1 -12 -18 -10
-34 5 -45 18 -15 19 23 0 23 1 4 10 -15 7 -12 8 14 4 19 -3 31 -2 27 2 -4 5
23 18 61 30 l68 21 12 -21 c11 -21 12 -20 16 13 4 33 4 33 5 -7 1 -24 6 -43
12 -43 5 0 9 -3 9 -7 -4 -23 3 -33 21 -33 11 0 20 4 20 10 0 5 -9 14 -20 20
-13 7 -20 21 -20 40 0 23 5 31 26 36 l25 6 -3 109 -3 109 -75 -2 c-41 0 -183
-5 -316 -9z m-244 -78 c0 -17 -4 -33 -10 -36 -6 -4 -10 8 -10 29 0 20 5 36 10
36 6 0 10 -13 10 -29z m630 -85 c0 -22 -6 -36 -16 -40 -24 -9 -32 3 -11 15 9
6 17 21 17 34 0 14 2 25 5 25 3 0 5 -15 5 -34z m-446 -61 c10 -63 1 -85 -33
-85 -16 0 -48 -7 -71 -15 -23 -8 -44 -15 -46 -15 -2 0 -4 15 -4 33 0 38 43 87
100 111 48 21 47 21 54 -29z m349 -156 c-23 -11 -57 -22 -75 -24 -20 -3 -8 4
32 19 78 29 101 32 43 5z"/>
<path d="M464 441 c-21 -6 -21 -6 5 -32 20 -19 32 -23 51 -18 25 7 25 7 -3 8
-24 1 -26 3 -14 15 8 8 24 12 40 9 15 -3 27 -1 27 4 0 18 -13 23 -28 10 -9 -6
-13 -7 -9 -1 7 12 -34 15 -69 5z"/>
</g>
</svg>
