<?xml version="1.0" standalone="no"?>
<!DOCTYPE svg PUBLIC "-//W3C//DTD SVG 20010904//EN"
 "http://www.w3.org/TR/2001/REC-SVG-20010904/DTD/svg10.dtd">
<svg version="1.0" xmlns="http://www.w3.org/2000/svg"
 width="72.000000pt" height="72.000000pt" viewBox="0 0 72.000000 72.000000"
 preserveAspectRatio="xMidYMid meet">
<metadata>
Created by potrace 1.10, written by Peter Selinger 2001-2011
</metadata>
<g transform="translate(0.000000,72.000000) scale(0.100000,-0.100000)"
fill="#000000" stroke="none">
<path d="M125 685 c-27 -14 -58 -25 -67 -25 -10 0 -18 -4 -18 -10 0 -13 26
-13 51 0 13 7 19 7 19 1 0 -6 -12 -13 -27 -17 -48 -10 -55 -14 -50 -27 4 -13
58 -11 67 2 8 12 71 31 82 25 5 -3 14 -2 21 3 7 5 23 10 37 11 18 1 21 -1 11
-8 -11 -6 -5 -24 33 -85 l48 -76 -12 -82 c-7 -45 -12 -119 -12 -164 0 -132 46
-204 140 -219 94 -15 196 28 228 95 14 29 15 43 6 83 -12 51 -48 114 -78 138
-17 14 -18 14 -6 -2 8 -9 11 -22 7 -28 -3 -5 5 -25 18 -42 30 -41 43 -78 26
-78 -9 0 -9 -3 0 -14 8 -9 8 -22 2 -38 -11 -29 -66 -78 -87 -78 -9 0 -12 -4
-9 -10 11 -18 -52 -11 -77 9 -28 23 -80 117 -99 179 -14 48 -21 51 -43 20 -15
-21 -16 -20 -15 37 0 33 4 78 8 100 l9 40 2 -45 c2 -37 3 -40 9 -20 6 20 10
12 20 -43 15 -74 27 -87 67 -69 32 15 31 30 -3 34 -42 5 -35 31 10 41 31 8 42
6 57 -8 17 -15 24 -16 50 -5 16 7 30 19 30 26 0 18 -40 64 -55 64 -6 0 -22 11
-35 25 -12 13 -26 22 -31 20 -4 -3 -9 0 -11 6 -2 7 -10 10 -17 8 -7 -3 18 -28
58 -58 75 -55 91 -79 44 -65 -16 5 -58 9 -96 9 -62 0 -67 2 -67 22 0 12 -4 23
-9 25 -12 4 -2 88 10 88 9 0 12 -14 12 -52 0 -10 5 -14 15 -10 9 3 13 1 9 -5
-7 -11 22 -28 31 -18 3 3 1 5 -5 5 -10 0 -28 46 -25 63 1 4 -2 7 -7 7 -5 0
-21 20 -35 45 -19 32 -31 43 -44 39 -13 -5 -14 -4 -3 4 11 8 5 22 -30 76 -24
36 -47 66 -51 66 -12 0 -10 -14 4 -28 9 -9 9 -12 0 -12 -7 0 -12 4 -12 9 0 5
-10 13 -22 17 -22 7 -22 7 -3 15 18 7 18 8 -5 8 -14 0 -47 -11 -75 -24z m250
-541 c19 -46 19 -65 0 -38 -14 20 -28 74 -19 74 2 0 11 -16 19 -36z"/>
<path d="M460 304 c0 -24 19 -54 35 -54 21 0 19 34 -3 53 -23 21 -32 21 -32 1z"/>
<path d="M520 246 c-10 -28 -25 -34 -33 -13 -3 6 -6 2 -6 -10 -1 -12 4 -25 9
-28 6 -3 10 -12 9 -18 0 -9 -2 -9 -6 1 -5 13 -33 17 -33 5 1 -18 65 -64 73
-52 19 25 37 61 37 71 0 7 -8 -3 -18 -22 -11 -18 -24 -36 -30 -38 -22 -7 -12
37 14 61 26 25 30 57 7 64 -7 3 -17 -7 -23 -21z"/>
<path d="M570 246 c0 -18 26 -40 34 -27 9 14 -4 41 -20 41 -8 0 -14 -6 -14
-14z"/>
</g>
</svg>
