<?xml version="1.0" standalone="no"?>
<!DOCTYPE svg PUBLIC "-//W3C//DTD SVG 20010904//EN"
 "http://www.w3.org/TR/2001/REC-SVG-20010904/DTD/svg10.dtd">
<svg version="1.0" xmlns="http://www.w3.org/2000/svg"
 width="72.000000pt" height="72.000000pt" viewBox="0 0 72.000000 72.000000"
 preserveAspectRatio="xMidYMid meet">
<metadata>
Created by potrace 1.10, written by Peter Selinger 2001-2011
</metadata>
<g transform="translate(0.000000,72.000000) scale(0.100000,-0.100000)"
fill="#000000" stroke="none">
<path d="M290 630 c-30 -4 -80 -11 -110 -15 -30 -4 -64 -9 -75 -10 -11 -2 -30
-4 -42 -4 -13 -1 -22 -4 -21 -8 0 -5 -2 -16 -6 -25 -13 -29 0 -47 31 -43 33 4
102 7 122 6 7 -1 11 -7 7 -16 -3 -8 -1 -15 4 -15 6 0 10 9 10 20 0 13 5 18 15
14 8 -4 12 -10 9 -15 -3 -5 0 -9 5 -9 6 0 11 6 11 14 0 9 12 13 38 12 23 -1
36 -6 35 -14 -2 -6 1 -12 7 -12 6 0 10 7 10 16 0 9 6 14 13 11 6 -2 11 -10 10
-16 -2 -6 1 -11 7 -11 6 0 10 6 10 14 0 10 14 14 56 14 47 -1 57 -4 64 -22 8
-20 9 -20 9 3 1 17 5 22 17 17 9 -3 45 -6 80 -6 57 0 64 -2 64 -20 0 -19 -7
-20 -217 -22 -120 -1 -197 -3 -170 -5 81 -7 41 -23 -56 -23 -56 0 -87 4 -81 9
5 5 25 11 44 14 19 2 3 5 -37 5 -46 1 -73 6 -76 15 -4 10 -6 10 -6 0 -1 -7
-10 -13 -22 -13 -15 0 -20 -5 -17 -22 3 -22 6 -23 85 -20 l81 4 -5 -44 c-8
-61 -23 -72 -23 -15 0 26 -4 47 -10 47 -5 0 -10 -13 -10 -29 0 -42 -16 -47
-24 -8 l-7 32 -14 -25 -15 -25 -6 23 c-7 26 -19 28 -40 7 -19 -19 -8 -38 17
-30 11 4 19 2 19 -4 0 -6 9 -11 20 -11 11 0 20 -4 20 -9 0 -5 18 -12 40 -16
22 -4 42 -10 45 -15 3 -5 23 -11 45 -15 22 -4 40 -11 40 -16 0 -5 9 -9 19 -9
11 0 23 -5 27 -11 3 -6 14 -9 24 -6 12 3 20 -2 24 -15 3 -14 10 -19 20 -15 10
4 16 1 16 -8 0 -9 10 -15 25 -15 l25 0 0 111 c0 71 -4 108 -10 104 -5 -3 -10
-46 -10 -95 0 -151 -21 -118 -33 50 -2 31 -4 23 -5 -25 -4 -130 -32 -120 -32
11 l0 74 58 0 58 0 2 -110 c2 -100 0 -111 -18 -122 -27 -17 -25 -28 5 -28 l25
0 0 131 0 131 68 -3 c37 -2 72 -4 77 -6 13 -4 8 -314 -6 -327 -5 -6 -9 51 -9
155 0 109 -4 159 -10 149 -5 -8 -10 -77 -10 -152 0 -85 -4 -138 -10 -138 -5 0
-11 8 -11 18 -1 9 -5 75 -8 147 l-8 130 -1 -127 c-2 -117 -11 -161 -26 -122
-3 9 -6 70 -6 137 -1 93 -3 117 -11 103 -7 -11 -10 -55 -7 -112 4 -69 1 -99
-8 -112 -19 -24 -17 -32 6 -32 12 0 20 -7 20 -16 0 -11 6 -15 19 -11 13 3 21
-2 25 -15 3 -14 10 -19 20 -15 10 4 16 1 16 -8 0 -9 10 -15 25 -15 l25 0 2
183 c2 269 2 326 -3 331 -2 2 -29 6 -59 10 -30 3 -102 12 -160 20 -58 9 -107
15 -110 15 -3 -1 -30 -5 -60 -9z m81 -40 c4 0 13 8 18 18 10 16 10 16 11 0 0
-10 7 -18 15 -18 8 0 15 8 15 18 1 15 2 15 16 -3 11 -14 18 -16 21 -7 3 6 10
9 16 5 6 -4 32 -8 57 -9 25 -1 56 -2 69 -3 13 -1 22 -4 19 -7 -3 -3 -93 -5
-199 -5 -199 0 -219 -4 -108 -18 63 -8 63 -8 -38 -10 -56 0 -108 -4 -117 -7
-9 -3 -16 -1 -16 4 0 6 12 13 28 15 19 3 13 5 -18 6 -25 1 -54 7 -65 12 -17 8
-15 8 7 4 18 -3 28 -1 28 6 0 8 6 7 17 -2 11 -10 17 -11 20 -3 2 7 13 10 23 7
11 -3 20 0 20 6 0 8 6 7 20 -1 17 -11 22 -10 30 2 6 10 10 11 10 3 0 -20 30
-15 30 5 1 16 1 16 14 0 18 -24 26 -23 27 5 l0 22 11 -22 c6 -13 15 -23 19
-23z m-139 -187 c-8 -77 -21 -86 -22 -15 0 46 4 62 14 62 10 0 12 -11 8 -47z
m130 -25 c-5 -101 -22 -112 -22 -15 0 45 -4 77 -10 77 -6 0 -10 -28 -10 -65 0
-36 -4 -65 -10 -65 -5 0 -13 28 -17 63 l-8 62 -5 -48 c-7 -65 -24 -60 -28 8
l-3 55 58 0 59 0 -4 -72z"/>
</g>
</svg>
