<?xml version="1.0" standalone="no"?>
<!DOCTYPE svg PUBLIC "-//W3C//DTD SVG 20010904//EN"
 "http://www.w3.org/TR/2001/REC-SVG-20010904/DTD/svg10.dtd">
<svg version="1.0" xmlns="http://www.w3.org/2000/svg"
 width="72.000000pt" height="72.000000pt" viewBox="0 0 72.000000 72.000000"
 preserveAspectRatio="xMidYMid meet">
<metadata>
Created by potrace 1.10, written by Peter Selinger 2001-2011
</metadata>
<g transform="translate(0.000000,72.000000) scale(0.100000,-0.100000)"
fill="#000000" stroke="none">
<path d="M40 686 c0 -8 -5 -16 -10 -18 -6 -2 136 -149 315 -328 309 -309 326
-324 342 -307 17 16 2 33 -307 342 -179 179 -328 325 -332 325 -5 0 -8 -6 -8
-14z m50 -34 c0 -13 152 -172 159 -167 5 2 20 -8 35 -24 21 -22 24 -30 13 -34
-16 -6 -242 215 -231 226 10 9 24 9 24 -1z m310 -326 c-14 -14 -90 61 -83 81
4 11 17 3 49 -28 29 -29 41 -46 34 -53z m100 -100 c-13 -13 -35 8 -35 32 0 9
-6 16 -14 14 -19 -4 -41 17 -34 34 4 12 16 5 49 -27 29 -29 41 -46 34 -53z
m150 -156 c0 -8 -31 16 -69 54 -40 40 -67 74 -64 82 6 16 132 -113 133 -136z"/>
</g>
</svg>
