<?xml version="1.0" standalone="no"?>
<!DOCTYPE svg PUBLIC "-//W3C//DTD SVG 20010904//EN"
 "http://www.w3.org/TR/2001/REC-SVG-20010904/DTD/svg10.dtd">
<svg version="1.0" xmlns="http://www.w3.org/2000/svg"
 width="72.000000pt" height="72.000000pt" viewBox="0 0 72.000000 72.000000"
 preserveAspectRatio="xMidYMid meet">
<metadata>
Created by potrace 1.10, written by Peter Selinger 2001-2011
</metadata>
<g transform="translate(0.000000,72.000000) scale(0.100000,-0.100000)"
fill="#000000" stroke="none">
<path d="M635 610 c-3 -5 -15 -10 -26 -10 -10 0 -19 -4 -19 -10 0 -5 -9 -10
-20 -10 -11 0 -20 -7 -20 -16 0 -11 -6 -14 -20 -9 -23 7 -25 -2 -6 -28 10 -13
13 -43 9 -121 -4 -66 -2 -110 5 -122 9 -15 11 10 12 108 0 69 3 133 6 142 15
39 24 -5 26 -127 l1 -132 8 130 c3 72 7 140 8 153 0 13 6 20 11 17 6 -4 10
-63 10 -143 0 -75 5 -144 10 -152 6 -10 10 41 10 154 0 93 3 166 8 162 4 -4 9
-81 12 -172 4 -131 2 -165 -8 -169 -8 -3 -149 -5 -315 -4 l-302 1 0 -28 0 -29
83 -3 c78 -3 82 -4 82 -25 0 -13 -7 -32 -15 -43 -13 -18 -14 -17 -15 19 0 23
-4 36 -10 32 -5 -3 -10 -17 -10 -30 0 -37 -17 -38 -25 -2 l-7 32 -10 -28 c-11
-32 -28 -27 -28 9 0 35 -30 32 -31 -3 0 -25 -1 -26 -9 -8 -8 17 -9 15 -7 -10
l2 -30 322 -3 321 -2 4 51 c1 28 1 145 -1 260 -3 195 -4 209 -21 209 -11 0
-22 -4 -25 -10z m-242 -386 c141 -11 81 -24 -109 -24 -137 0 -174 3 -183 14
-10 12 -7 15 21 19 38 4 145 1 271 -9z m107 -63 c0 -16 -7 -34 -15 -41 -13
-11 -15 -7 -16 26 0 40 -2 38 -25 -21 -7 -18 -8 -18 -12 5 -6 40 -19 44 -26 8
-5 -26 -9 -30 -16 -18 -5 8 -10 26 -11 40 -1 22 -2 22 -10 -7 -13 -46 -29 -51
-29 -8 0 22 -4 34 -10 30 -5 -3 -10 -17 -10 -30 0 -13 -4 -27 -10 -30 -6 -4
-10 5 -10 19 0 31 -15 34 -23 5 -7 -28 -27 -15 -27 17 0 14 -4 22 -10 19 -5
-3 -10 -17 -10 -30 0 -13 -4 -27 -10 -30 -6 -4 -10 10 -10 34 l0 41 145 0 145
0 0 -29z m164 2 c-13 -53 -23 -60 -24 -18 l-2 40 -11 -32 c-17 -45 -27 -51
-27 -17 l0 29 -18 -23 c-19 -25 -32 -20 -32 12 -1 16 -4 13 -15 -11 -19 -43
-25 -41 -25 7 l0 40 80 0 80 0 -6 -27z"/>
<path d="M479 510 c22 -19 23 -25 19 -113 -3 -50 -1 -103 3 -117 4 -14 7 35 8
113 l1 137 -27 0 -28 -1 24 -19z"/>
<path d="M420 500 c0 -5 -9 -10 -20 -10 -11 0 -20 -6 -20 -14 0 -9 -7 -12 -20
-9 -12 3 -22 -1 -26 -10 -3 -9 -12 -13 -20 -10 -7 3 -17 -2 -20 -11 -3 -9 -15
-16 -25 -16 -10 0 -19 -4 -19 -10 0 -5 -9 -10 -20 -10 -17 0 -19 -3 -10 -19 5
-11 10 -42 10 -70 0 -28 5 -51 10 -51 6 0 10 26 10 58 0 61 12 94 25 72 4 -7
4 -38 1 -71 -5 -39 -3 -59 4 -59 5 0 10 19 10 43 0 58 11 117 21 117 5 0 9
-36 9 -80 0 -47 4 -80 10 -80 6 0 10 39 10 96 0 61 4 93 10 89 6 -3 10 -46 10
-96 0 -53 4 -89 10 -89 6 0 10 38 10 93 0 50 4 99 9 106 16 25 24 -34 17 -120
-4 -52 -3 -79 4 -79 6 0 10 31 10 78 0 42 3 94 6 114 12 70 24 27 24 -83 0
-66 4 -109 10 -109 6 0 10 48 10 125 l0 125 -25 0 c-14 0 -25 -4 -25 -10z"/>
<path d="M173 362 c10 -11 17 -36 17 -60 0 -23 5 -42 10 -42 6 0 10 27 10 60
0 58 -1 60 -27 60 -25 0 -25 -1 -10 -18z"/>
<path d="M120 350 c0 -5 -9 -10 -20 -10 -11 0 -20 -7 -20 -16 0 -10 -7 -14
-22 -12 -16 2 -24 -3 -26 -16 -3 -11 0 -16 7 -12 6 4 11 2 11 -3 0 -21 28 -11
34 12 l6 22 14 -25 14 -25 7 38 c9 45 25 39 25 -9 0 -19 5 -34 10 -34 6 0 10
23 10 50 0 47 -2 50 -25 50 -14 0 -25 -4 -25 -10z"/>
</g>
</svg>
