<?xml version="1.0" standalone="no"?>
<!DOCTYPE svg PUBLIC "-//W3C//DTD SVG 20010904//EN"
 "http://www.w3.org/TR/2001/REC-SVG-20010904/DTD/svg10.dtd">
<svg version="1.0" xmlns="http://www.w3.org/2000/svg"
 width="72.000000pt" height="72.000000pt" viewBox="0 0 72.000000 72.000000"
 preserveAspectRatio="xMidYMid meet">
<metadata>
Created by potrace 1.10, written by Peter Selinger 2001-2011
</metadata>
<g transform="translate(0.000000,72.000000) scale(0.100000,-0.100000)"
fill="#000000" stroke="none">
<path d="M93 626 c-28 -14 -59 -37 -69 -51 -17 -26 -17 -28 0 -41 10 -7 39
-16 65 -19 25 -4 56 -11 67 -17 24 -11 44 -48 44 -78 0 -20 14 -27 23 -12 9
13 -22 86 -42 103 -11 9 -45 20 -75 24 -31 3 -59 11 -62 17 -16 26 86 78 153
78 88 0 269 -100 301 -166 16 -34 32 -45 32 -21 0 48 -126 150 -232 187 -77
27 -141 26 -205 -4z"/>
<path d="M498 420 c-89 -16 -127 -72 -131 -190 l-2 -83 -44 -24 c-24 -13 -38
-23 -31 -23 7 0 11 -3 7 -6 -15 -15 -25 8 -15 34 11 29 4 82 -10 82 -5 0 -7
-12 -5 -27 7 -44 -18 -68 -66 -66 -74 3 -81 9 -81 62 0 34 5 53 18 64 23 21
71 22 99 2 20 -14 21 -13 28 48 5 34 7 69 6 77 -2 13 -1 13 8 0 9 -13 11 -13
11 1 0 15 -30 49 -43 49 -4 0 -4 -24 -1 -53 8 -69 -6 -97 -47 -97 l-31 0 5 59
c4 42 2 61 -6 65 -9 3 -9 5 1 5 14 1 17 21 2 21 -13 0 -42 -59 -36 -73 2 -7 5
-4 5 5 1 9 5 19 10 22 16 10 -7 -80 -33 -129 -14 -26 -26 -61 -26 -76 0 -37
-18 -47 -26 -14 -10 41 5 93 39 133 30 35 30 36 3 12 -54 -48 -75 -149 -38
-183 79 -71 268 -57 303 22 l13 29 19 -24 c29 -37 70 -54 130 -54 137 0 216
149 137 258 -44 61 -102 85 -172 72z m88 -43 c12 -7 35 -24 53 -39 27 -24 31
-33 31 -78 0 -43 -5 -56 -28 -80 -71 -71 -232 -37 -238 50 -4 66 34 134 86
153 26 10 74 7 96 -6z m-56 -260 c21 0 57 10 80 22 23 12 39 17 35 11 -11 -18
-83 -50 -112 -50 -31 0 -107 32 -117 49 -4 6 11 2 34 -10 23 -12 59 -22 80
-22z m-282 -34 c-15 -2 -42 -2 -60 0 -18 2 -6 4 27 4 33 0 48 -2 33 -4z"/>
<path d="M603 319 c35 -18 42 -32 38 -69 -3 -21 -39 -50 -62 -50 -31 0 -62 38
-57 70 2 16 1 27 -4 24 -4 -3 -8 -20 -8 -38 0 -37 21 -61 62 -71 22 -6 33 -1
58 23 34 34 37 50 15 91 -15 29 -34 41 -63 41 -9 -1 0 -10 21 -21z"/>
<path d="M290 340 c0 -9 8 -27 17 -40 l17 -25 -22 19 c-19 17 -22 17 -22 3 0
-9 9 -21 19 -26 27 -15 31 6 9 49 -10 19 -18 28 -18 20z"/>
</g>
</svg>
