<?xml version="1.0" standalone="no"?>
<!DOCTYPE svg PUBLIC "-//W3C//DTD SVG 20010904//EN"
 "http://www.w3.org/TR/2001/REC-SVG-20010904/DTD/svg10.dtd">
<svg version="1.0" xmlns="http://www.w3.org/2000/svg"
 width="72.000000pt" height="72.000000pt" viewBox="0 0 72.000000 72.000000"
 preserveAspectRatio="xMidYMid meet">
<metadata>
Created by potrace 1.10, written by Peter Selinger 2001-2011
</metadata>
<g transform="translate(0.000000,72.000000) scale(0.100000,-0.100000)"
fill="#000000" stroke="none">
<path d="M329 623 c-24 -27 -73 -83 -108 -125 -64 -78 -64 -78 -112 -78 -48 0
-49 -1 -49 -30 0 -19 -7 -34 -20 -42 -34 -22 -24 -44 24 -57 42 -10 44 -13 50
-55 4 -25 4 -61 0 -81 -7 -37 5 -45 36 -25 11 7 12 14 4 27 -6 10 -9 36 -8 58
2 23 -2 43 -9 47 -34 22 80 -6 145 -35 43 -19 55 -56 44 -131 -4 -25 -3 -47 3
-50 17 -11 41 6 40 28 0 20 -1 20 -9 1 -6 -13 -7 1 -3 38 4 45 3 57 -8 57 -11
0 -11 2 1 10 10 6 11 10 3 10 -8 0 -13 15 -13 40 0 42 5 46 30 30 10 -6 11
-10 3 -10 -7 0 -13 -10 -13 -22 1 -21 2 -21 11 -5 5 9 16 17 24 17 8 0 20 9
27 20 7 11 21 20 30 20 9 0 21 7 26 16 9 17 73 44 105 44 34 0 16 18 -25 25
-56 10 -32 21 61 28 l73 6 -4 -29 c-3 -17 -1 -30 4 -30 4 0 8 20 8 45 l0 45
-57 -2 -58 -1 50 -6 50 -6 -40 -7 c-22 -4 -71 -8 -108 -8 -44 0 -66 -4 -62
-10 4 -6 4 -23 0 -38 -5 -23 -15 -32 -53 -45 -71 -26 -93 -19 -56 18 9 9 14
19 10 22 -3 3 -19 -9 -36 -27 -24 -25 -28 -35 -18 -41 14 -9 11 -10 -44 -14
-29 -2 -39 19 -15 28 7 3 4 6 -6 6 -11 1 -21 -8 -24 -19 -5 -17 -7 -18 -17 -6
-6 7 -47 22 -90 31 -63 14 -76 19 -62 27 10 6 32 7 49 4 18 -4 39 -7 47 -7 8
-1 34 -6 58 -11 38 -9 45 -8 61 9 13 13 16 25 10 41 -10 26 -21 29 -17 5 2
-10 -2 -17 -9 -16 -6 1 -48 5 -92 9 -45 4 -81 11 -81 15 0 9 45 12 227 13 55
1 104 4 108 7 3 4 -8 47 -25 97 -30 85 -31 91 -16 114 9 14 13 28 9 31 -3 4 6
7 20 7 19 0 27 -5 27 -18 0 -33 29 -62 63 -63 30 -1 31 -1 7 -9 l-25 -7 30
-12 c17 -7 45 -15 64 -18 32 -6 33 -7 15 -21 -18 -14 -18 -14 4 -9 33 8 27 -2
-13 -19 -40 -16 -118 -19 -145 -4 -17 9 -19 8 -11 -12 7 -20 16 -23 75 -26 59
-3 70 0 109 26 56 40 81 68 73 87 -4 12 -19 14 -78 11 -51 -4 -62 -3 -38 3
l35 8 -30 2 c-41 2 -103 20 -111 32 -3 6 3 21 15 33 12 12 21 25 21 29 0 4
-29 7 -64 7 -63 0 -64 0 -107 -47z m-15 -43 c-47 -60 -119 -141 -98 -111 20
30 137 171 141 171 2 0 -17 -27 -43 -60z m55 31 c-11 -17 -10 -30 9 -82 12
-34 21 -64 18 -66 -2 -2 -36 -7 -75 -10 l-72 -6 19 35 c38 67 47 78 64 78 11
0 18 8 18 20 0 20 21 62 28 56 2 -2 -2 -13 -9 -25z m51 -191 c0 -6 -48 -9
-127 -8 -102 1 -116 3 -68 8 98 11 195 11 195 0z"/>
<path d="M631 323 c-6 -10 -11 -12 -11 -5 0 6 -7 12 -16 12 -14 0 -14 -3 -4
-15 9 -10 11 -35 7 -75 -5 -54 -3 -60 13 -60 24 0 35 17 21 34 -13 15 -5 93
12 114 6 8 6 12 -1 12 -6 0 -16 -8 -21 -17z"/>
</g>
</svg>
