<?xml version="1.0" standalone="no"?>
<!DOCTYPE svg PUBLIC "-//W3C//DTD SVG 20010904//EN"
 "http://www.w3.org/TR/2001/REC-SVG-20010904/DTD/svg10.dtd">
<svg version="1.0" xmlns="http://www.w3.org/2000/svg"
 width="72.000000pt" height="72.000000pt" viewBox="0 0 72.000000 72.000000"
 preserveAspectRatio="xMidYMid meet">
<metadata>
Created by potrace 1.10, written by Peter Selinger 2001-2011
</metadata>
<g transform="translate(0.000000,72.000000) scale(0.100000,-0.100000)"
fill="#000000" stroke="none">
<path d="M18 698 c-6 -16 21 -68 34 -68 5 0 8 7 5 14 -4 10 -1 13 9 9 10 -4
11 -9 5 -17 -8 -9 2 -25 34 -56 25 -24 45 -50 45 -56 0 -7 18 -25 40 -41 25
-18 40 -36 40 -50 0 -12 9 -27 20 -33 15 -8 20 -8 20 2 0 6 13 0 28 -15 16
-15 32 -24 37 -20 4 5 5 2 1 -5 -5 -9 11 -30 48 -64 31 -28 56 -57 56 -64 0
-8 6 -14 13 -14 7 0 34 -22 59 -50 25 -27 49 -50 52 -50 13 0 5 31 -9 36 -20
8 -19 24 1 24 8 0 12 -4 9 -10 -3 -5 0 -10 9 -10 16 0 15 -25 -2 -42 -19 -19
-14 -43 14 -72 15 -14 30 -26 34 -26 4 0 26 18 50 40 l44 40 -29 30 c-16 17
-39 30 -53 30 -13 0 -38 11 -56 25 -32 24 -74 26 -59 2 4 -6 1 -7 -7 -2 -10 6
-8 12 8 26 22 17 22 17 -66 99 -48 45 -96 98 -107 118 -11 21 -28 37 -37 37
-10 0 -40 23 -68 50 -41 40 -53 47 -60 35 -5 -8 -12 -11 -17 -7 -4 5 -1 13 7
18 12 8 1 23 -59 79 -77 72 -87 78 -93 58z m361 -334 c72 -70 128 -131 125
-135 -6 -11 -24 -12 -23 -1 3 20 -3 23 -18 11 -16 -13 -17 -12 -5 3 14 18 0
34 -20 22 -6 -4 -8 -3 -5 3 8 12 -107 126 -117 116 -4 -5 -6 -1 -4 7 2 8 -3
14 -10 12 -8 -1 -11 2 -7 8 3 5 2 10 -3 10 -5 0 -12 9 -15 20 -3 12 -14 20
-26 20 -21 0 -27 10 -14 23 3 4 7 7 9 7 1 0 61 -57 133 -126z m293 -236 c20
-20 20 -22 3 -35 -26 -18 -28 -17 -46 22 -16 33 -16 35 2 35 11 0 29 -10 41
-22z m-42 -54 c0 -16 -26 -19 -35 -4 -4 6 -4 18 -1 27 5 12 9 13 21 3 8 -7 15
-19 15 -26z"/>
</g>
</svg>
