<?xml version="1.0" standalone="no"?>
<!DOCTYPE svg PUBLIC "-//W3C//DTD SVG 20010904//EN"
 "http://www.w3.org/TR/2001/REC-SVG-20010904/DTD/svg10.dtd">
<svg version="1.0" xmlns="http://www.w3.org/2000/svg"
 width="72.000000pt" height="72.000000pt" viewBox="0 0 72.000000 72.000000"
 preserveAspectRatio="xMidYMid meet">
<metadata>
Created by potrace 1.10, written by Peter Selinger 2001-2011
</metadata>
<g transform="translate(0.000000,72.000000) scale(0.100000,-0.100000)"
fill="#000000" stroke="none">
<path d="M18 698 c-5 -14 20 -68 31 -68 4 0 12 5 19 10 9 7 9 7 2 -2 -6 -8 17
-39 74 -102 46 -50 86 -101 90 -113 4 -11 13 -24 21 -27 20 -7 19 4 -3 21 -16
13 -15 14 6 8 16 -5 22 -2 22 9 0 17 -34 39 -44 28 -4 -3 -4 1 0 11 3 9 8 17
9 17 2 0 26 -23 54 -50 30 -29 56 -48 63 -44 6 4 8 3 5 -4 -7 -10 127 -147
143 -147 5 0 11 -3 14 -8 3 -4 3 -5 -1 -2 -3 3 -12 0 -18 -5 -9 -8 -14 -6 -19
6 -5 14 -9 14 -24 3 -15 -13 -16 -12 -4 3 14 18 0 34 -20 22 -6 -4 -8 -3 -5 3
7 12 -140 160 -149 150 -4 -3 10 -25 30 -47 20 -22 36 -38 36 -35 0 3 22 -18
48 -47 26 -29 74 -79 107 -111 54 -53 60 -57 72 -41 12 17 14 17 28 -2 8 -10
15 -16 15 -11 0 4 14 0 32 -9 30 -16 31 -17 13 -30 -16 -12 -22 -10 -47 18
-21 23 -31 29 -39 21 -9 -9 -6 -19 9 -40 11 -15 22 -38 23 -50 4 -21 8 -19 53
23 l50 45 -40 18 c-21 10 -59 35 -83 55 -24 21 -50 35 -58 31 -8 -3 -17 -5
-19 -5 -3 0 -2 -5 2 -12 5 -7 3 -8 -6 -3 -10 6 -7 12 11 26 l24 18 -108 109
c-59 60 -107 114 -107 121 0 7 -9 11 -20 9 -13 -2 -42 19 -89 65 -38 37 -71
64 -73 60 -3 -4 -3 -3 -2 4 3 11 -103 113 -118 113 -3 0 -8 -5 -10 -12z m162
-153 c0 -9 6 -12 15 -9 17 7 21 -11 4 -21 -6 -4 -17 1 -24 11 -17 23 -19 34
-5 34 6 0 10 -7 10 -15z"/>
</g>
</svg>
