<?xml version="1.0" standalone="no"?>
<!DOCTYPE svg PUBLIC "-//W3C//DTD SVG 20010904//EN"
 "http://www.w3.org/TR/2001/REC-SVG-20010904/DTD/svg10.dtd">
<svg version="1.0" xmlns="http://www.w3.org/2000/svg"
 width="72.000000pt" height="72.000000pt" viewBox="0 0 72.000000 72.000000"
 preserveAspectRatio="xMidYMid meet">
<metadata>
Created by potrace 1.10, written by Peter Selinger 2001-2011
</metadata>
<g transform="translate(0.000000,72.000000) scale(0.100000,-0.100000)"
fill="#000000" stroke="none">
<path d="M32 680 c-13 -21 -9 -40 9 -40 5 0 9 8 9 17 0 14 3 14 12 5 10 -10
10 -15 -2 -22 -13 -8 -11 -14 13 -35 15 -14 27 -29 27 -33 0 -11 68 -82 79
-82 5 0 13 9 16 21 4 11 12 18 18 16 20 -6 18 -24 -3 -30 -17 -4 -20 -10 -14
-34 9 -39 13 -43 32 -43 16 1 16 2 0 14 -10 7 -18 17 -18 21 0 4 6 2 14 -4 19
-16 32 5 15 25 -6 8 -9 18 -5 21 4 4 26 -12 49 -35 35 -35 39 -44 27 -52 -10
-6 -16 -5 -19 3 -6 17 -28 37 -34 31 -3 -3 6 -19 21 -36 24 -27 27 -28 39 -12
11 15 19 10 79 -47 36 -35 70 -63 76 -61 5 1 6 -3 2 -9 -5 -8 -3 -9 6 -4 9 6
11 4 5 -5 -6 -9 -4 -11 5 -5 9 6 11 4 5 -5 -5 -8 -4 -11 3 -6 14 8 9 -18 -6
-37 -11 -13 -6 -24 33 -66 25 -29 45 -56 45 -61 0 -16 51 -70 67 -70 8 0 28
13 44 30 37 37 29 57 -39 97 -26 15 -103 85 -171 155 -67 70 -127 125 -132
122 -5 -3 -9 2 -9 11 0 9 -9 30 -21 46 -15 22 -24 27 -33 20 -9 -8 -25 2 -56
34 -36 36 -46 42 -53 30 -10 -19 -27 -19 -27 0 0 8 5 15 10 15 6 0 10 4 10 10
0 10 -97 110 -108 110 -4 0 -13 -9 -20 -20z m86 -55 c26 -30 28 -45 6 -45 -10
0 -14 5 -10 15 3 9 -3 20 -14 27 -11 7 -20 16 -20 20 0 15 17 8 38 -17z m292
-270 c35 -36 62 -65 59 -65 -2 0 -34 29 -69 65 -35 36 -62 65 -59 65 2 0 34
-29 69 -65z m174 -207 c-3 -5 -10 -6 -15 -3 -5 4 -9 1 -9 -6 0 -10 -2 -10 -12
0 -11 10 -9 15 6 27 15 11 22 11 27 2 4 -7 5 -16 3 -20z m66 -20 c43 -29 45
-39 15 -61 -24 -17 -25 -17 -31 0 -5 15 -19 49 -32 76 -7 14 15 7 48 -15z"/>
<path d="M317 383 c-12 -11 -8 -33 6 -33 6 0 36 -25 65 -55 30 -30 59 -52 64
-48 7 3 8 1 4 -6 -4 -6 -12 -8 -18 -5 -7 4 -8 2 -4 -4 9 -15 43 -16 51 -1 11
18 -26 50 -49 43 -12 -4 -18 -3 -13 2 9 10 -32 54 -50 54 -8 0 -12 4 -9 9 7
11 -38 53 -47 44z"/>
</g>
</svg>
