<?xml version="1.0" standalone="no"?>
<!DOCTYPE svg PUBLIC "-//W3C//DTD SVG 20010904//EN"
 "http://www.w3.org/TR/2001/REC-SVG-20010904/DTD/svg10.dtd">
<svg version="1.0" xmlns="http://www.w3.org/2000/svg"
 width="72.000000pt" height="72.000000pt" viewBox="0 0 72.000000 72.000000"
 preserveAspectRatio="xMidYMid meet">
<metadata>
Created by potrace 1.10, written by Peter Selinger 2001-2011
</metadata>
<g transform="translate(0.000000,72.000000) scale(0.100000,-0.100000)"
fill="#000000" stroke="none">
<path d="M220 520 l0 -190 -47 -1 c-79 -1 -78 0 -78 -126 -1 -109 0 -112 25
-126 23 -14 33 -14 97 0 l71 16 48 -37 c32 -25 53 -34 67 -30 11 3 30 1 42 -6
19 -10 34 -9 89 10 73 24 85 34 59 48 -11 7 -23 6 -38 -4 -11 -7 -30 -15 -40
-17 -11 -2 -27 -7 -36 -11 -8 -4 -27 -3 -40 3 -14 5 -37 7 -52 4 -25 -5 -27
-3 -27 30 0 29 -3 34 -18 30 -10 -2 -25 3 -32 12 -13 15 -11 20 15 41 16 12
32 21 37 18 4 -3 8 -1 8 5 0 24 -24 21 -44 -4 -13 -17 -28 -25 -34 -21 -8 5
-12 -4 -12 -30 0 -32 -3 -36 -20 -31 -11 3 -37 1 -57 -5 -26 -7 -38 -7 -41 0
-2 6 -9 9 -16 6 -14 -6 -29 33 -16 41 4 2 11 41 14 85 l7 80 32 1 c37 1 92 16
65 18 -17 1 -18 16 -16 184 l3 182 2 -177 c2 -117 7 -178 14 -178 7 0 9 49 4
158 -5 111 -4 154 3 147 6 -6 13 -48 15 -95 l3 -85 2 98 c2 83 0 97 -14 97
-12 0 -15 7 -12 25 4 19 1 25 -13 25 -18 0 -19 -11 -19 -190z"/>
<path d="M500 656 c0 -25 -5 -46 -12 -48 -7 -3 -12 -46 -13 -134 -1 -71 0 -98
2 -59 2 38 7 64 11 58 4 -7 7 20 6 60 l-2 72 8 -55 c4 -30 8 -86 9 -123 1 -42
7 -76 16 -91 l16 -23 -89 -12 c-49 -6 -104 -11 -124 -11 -37 0 -63 -21 -70
-55 -2 -12 -23 -30 -51 -45 -26 -14 -47 -31 -47 -37 0 -7 19 0 47 17 26 17 53
30 60 30 8 0 13 13 13 36 l0 36 38 -7 c20 -4 42 -10 47 -14 6 -4 42 -2 80 5
l70 13 -72 -6 c-50 -3 -73 -2 -73 6 0 6 6 11 13 12 6 1 58 4 114 8 l101 6 -3
-38 c-3 -49 -13 -58 -21 -19 -6 32 -18 39 -40 24 -8 -5 -7 -11 4 -22 14 -13
15 -12 9 3 -3 9 -2 17 3 17 6 0 10 -11 10 -24 0 -17 -7 -27 -22 -32 -22 -7
-22 -7 -4 -14 16 -5 9 -9 -27 -19 -36 -8 -53 -9 -69 0 -16 9 -18 13 -7 20 11
7 12 9 1 9 -8 0 -16 -9 -19 -21 -3 -11 -11 -18 -18 -15 -13 5 -35 -12 -35 -26
0 -4 6 -5 14 -2 15 6 27 -26 21 -55 -3 -15 2 -17 28 -14 18 3 38 5 45 6 6 0
12 4 12 9 0 10 -3 10 -34 -2 -14 -5 -28 -5 -31 -1 -3 5 12 12 33 16 47 8 67
19 57 35 -5 8 -11 7 -23 -4 -10 -8 -20 -15 -24 -15 -5 -1 -9 -1 -10 -2 -21 -6
-39 -5 -44 2 -3 5 6 9 20 9 14 0 26 4 26 9 0 15 40 24 54 12 7 -6 17 -7 21 -3
5 4 5 2 2 -5 -4 -6 -1 -13 5 -16 7 -2 1 -8 -14 -12 -28 -7 -34 -16 -22 -28 4
-3 13 0 20 8 8 8 21 12 29 9 11 -5 15 1 15 21 0 15 -4 24 -10 20 -5 -3 -10 -2
-10 4 0 5 -6 11 -12 14 -7 2 -4 2 7 0 11 -3 25 -5 32 -5 6 -1 14 -14 17 -30 3
-16 12 -28 21 -28 19 0 20 19 0 26 -23 9 -19 51 5 59 19 6 20 14 19 92 l-1 85
-50 -7 -49 -7 3 181 c3 167 2 181 -14 181 -15 0 -18 -9 -18 -44z m17 -109 c-2
-23 -3 -1 -3 48 0 50 1 68 3 42 2 -26 2 -67 0 -90z"/>
<path d="M292 468 l1 -133 6 102 c8 138 23 145 20 8 l-3 -110 38 -3 c24 -2 36
0 32 7 -4 6 -14 7 -23 4 -14 -5 -15 4 -8 90 5 66 3 97 -4 97 -6 0 -12 -38 -14
-97 l-3 -98 -2 118 c-1 76 -6 116 -12 112 -5 -3 -10 3 -10 14 0 12 -4 21 -10
21 -6 0 -9 -50 -8 -132z"/>
<path d="M423 410 c0 -41 2 -58 4 -37 2 20 2 54 0 75 -2 20 -4 3 -4 -38z"/>
</g>
</svg>
