<?xml version="1.0" standalone="no"?>
<!DOCTYPE svg PUBLIC "-//W3C//DTD SVG 20010904//EN"
 "http://www.w3.org/TR/2001/REC-SVG-20010904/DTD/svg10.dtd">
<svg version="1.0" xmlns="http://www.w3.org/2000/svg"
 width="72.000000pt" height="72.000000pt" viewBox="0 0 72.000000 72.000000"
 preserveAspectRatio="xMidYMid meet">
<metadata>
Created by potrace 1.10, written by Peter Selinger 2001-2011
</metadata>
<g transform="translate(0.000000,72.000000) scale(0.100000,-0.100000)"
fill="#000000" stroke="none">
<path d="M25 689 c-4 -5 0 -18 8 -27 8 -9 18 -36 22 -59 8 -50 9 -51 63 -55
23 -2 42 -8 42 -14 0 -15 35 -46 43 -37 4 3 -1 16 -10 27 -10 12 -2 6 18 -12
19 -18 38 -29 42 -26 4 4 7 5 7 2 0 -3 -7 -11 -16 -18 -8 -8 -14 -9 -12 -3 3
10 -1 13 -19 13 -4 0 6 -13 22 -30 l28 -29 -40 -88 c-22 -48 -48 -108 -57
-134 -10 -25 -42 -73 -73 -108 -38 -42 -52 -66 -45 -73 7 -7 28 13 68 63 69
84 204 229 215 229 10 0 36 -74 44 -125 12 -74 64 -138 120 -150 24 -5 22 -3
-12 14 -24 11 -51 34 -62 53 -26 41 -53 157 -41 177 6 11 -4 29 -36 65 -37 42
-42 53 -30 64 11 11 21 8 62 -17 27 -17 84 -39 126 -50 96 -24 135 -46 159
-91 27 -49 26 -140 -1 -171 l-20 -24 6 27 c4 18 0 35 -13 52 -23 32 -26 32
-59 1 l-28 -26 -14 23 c-8 13 -27 33 -43 46 l-29 24 0 -31 c0 -41 31 -71 73
-71 18 0 44 -7 57 -16 l25 -16 -24 21 c-30 27 -20 39 14 17 41 -27 28 -58 -31
-72 -66 -16 -39 -17 40 -2 l64 12 8 41 c12 63 7 139 -10 173 -18 35 -83 77
-136 87 -54 10 -130 36 -130 44 0 4 62 68 138 143 124 124 135 138 114 143
-33 8 -138 -13 -185 -37 -47 -24 -120 -89 -159 -142 -27 -37 -27 -40 -11 -58
14 -15 14 -19 3 -16 -9 2 -14 -3 -12 -11 3 -12 0 -12 -11 -2 -15 12 -17 27 -5
47 4 6 -14 32 -41 58 -36 36 -52 45 -67 39 -15 -5 -17 -4 -8 8 6 8 9 31 6 52
-5 41 -29 61 -65 54 -18 -3 -16 -5 7 -6 21 -1 27 -5 22 -16 -3 -9 0 -15 9 -15
9 0 15 -9 15 -22 0 -21 -1 -21 -30 7 -16 16 -32 26 -35 24 -2 -3 11 -21 30
-39 20 -19 35 -28 35 -20 0 7 3 10 6 7 9 -8 -15 -37 -30 -37 -7 0 -7 3 1 8 9
6 3 18 -22 42 -19 19 -35 41 -35 50 0 16 -29 50 -43 50 -3 0 -9 -5 -12 -11z
m502 -159 c-72 -71 -137 -130 -142 -130 -6 0 -26 12 -44 28 l-33 27 61 67 c79
86 169 132 268 137 17 1 -10 -31 -110 -129z m-208 -200 c-1 -8 -30 -42 -66
-75 l-64 -59 36 84 c20 47 39 94 42 104 6 18 8 17 30 -10 12 -16 22 -36 22
-44z"/>
<path d="M386 309 c10 -12 19 -24 19 -27 0 -4 8 -8 18 -9 12 -2 16 1 11 9 -4
7 2 5 13 -5 11 -10 27 -15 37 -11 10 4 28 -6 51 -29 19 -19 46 -42 60 -51 25
-16 25 -16 25 13 0 40 -49 80 -98 83 -51 2 -55 2 -69 11 -7 5 -17 6 -22 3 -4
-3 -16 3 -26 14 -10 11 -23 20 -28 20 -6 0 -2 -9 9 -21z"/>
<path d="M437 256 c-3 -8 2 -20 11 -28 11 -9 14 -10 8 0 -10 17 4 15 28 -5 16
-14 18 -14 8 -2 -6 9 -10 19 -7 22 3 4 2 5 -2 2 -3 -3 -14 2 -23 10 -15 14
-18 14 -23 1z"/>
</g>
</svg>
