<?xml version="1.0" standalone="no"?>
<!DOCTYPE svg PUBLIC "-//W3C//DTD SVG 20010904//EN"
 "http://www.w3.org/TR/2001/REC-SVG-20010904/DTD/svg10.dtd">
<svg version="1.0" xmlns="http://www.w3.org/2000/svg"
 width="72.000000pt" height="72.000000pt" viewBox="0 0 72.000000 72.000000"
 preserveAspectRatio="xMidYMid meet">
<metadata>
Created by potrace 1.10, written by Peter Selinger 2001-2011
</metadata>
<g transform="translate(0.000000,72.000000) scale(0.100000,-0.100000)"
fill="#000000" stroke="none">
<path d="M73 695 c-20 -14 -53 -67 -53 -85 0 -4 11 -5 25 -2 26 4 75 -20 75
-38 0 -6 -8 -10 -19 -10 -27 0 -44 -26 -37 -52 4 -13 37 -50 74 -83 37 -33
143 -130 236 -215 92 -85 172 -154 178 -152 5 1 7 -2 3 -7 -11 -19 42 -44 80
-37 40 8 65 38 65 80 0 23 -15 44 -77 103 -43 41 -83 71 -91 68 -7 -2 -10 0
-7 5 6 10 -53 66 -66 62 -5 -1 -8 2 -7 8 2 5 -10 20 -25 32 -27 22 -27 24 -13
53 10 20 13 46 9 78 -5 45 -22 66 -24 30 -4 -62 -7 -90 -11 -108 -3 -11 0 -27
6 -35 6 -8 -1 -5 -16 5 -15 11 -28 24 -28 29 0 5 8 2 18 -5 31 -24 -2 7 -118
111 -115 102 -139 130 -140 163 0 21 -9 22 -37 2z m27 -23 c0 -10 6 -24 12
-30 19 -19 -9 -33 -39 -19 -13 5 -21 12 -19 14 2 3 14 0 25 -7 17 -9 21 -8 21
5 0 9 -6 18 -14 21 -8 3 -12 12 -9 20 7 20 23 17 23 -4z m121 -155 c72 -63 99
-81 83 -55 -4 7 -3 8 5 4 8 -6 9 -12 2 -20 -14 -17 -1 -29 16 -15 16 14 17 -3
1 -19 -9 -9 -17 -7 -35 10 -13 12 -25 19 -28 16 -3 -3 22 -29 55 -58 34 -29
59 -55 56 -57 -7 -7 -115 86 -128 110 -7 14 -7 17 1 13 6 -4 11 -2 11 3 0 6
-3 11 -7 11 -5 0 -23 14 -40 31 -18 16 -33 27 -33 24 0 -10 -46 47 -60 75 -12
24 -12 24 6 9 10 -8 53 -45 95 -82z m-78 19 c25 -19 21 -30 -5 -12 -33 23 -47
19 -18 -5 51 -43 126 -107 234 -201 61 -53 113 -95 114 -93 2 2 -15 20 -37 41
-23 20 -39 39 -37 42 3 2 21 -9 40 -26 24 -21 41 -29 56 -25 13 4 29 -2 44
-16 12 -12 25 -18 29 -15 3 3 3 -4 0 -16 -5 -21 -6 -21 -27 -3 -38 34 -56 46
-56 37 0 -5 18 -22 40 -38 22 -17 40 -37 40 -45 0 -10 -14 -2 -38 22 -21 20
-42 37 -47 37 -5 0 6 -13 25 -30 19 -16 31 -29 26 -30 -6 0 -20 10 -33 21 -20
20 -23 20 -29 5 -3 -9 -11 -16 -18 -16 -15 0 -76 58 -76 73 0 8 3 8 9 -1 6
-11 9 -9 14 7 3 15 -4 27 -28 45 -18 14 -36 22 -40 18 -3 -4 -5 -2 -3 4 5 18
-156 153 -168 141 -7 -7 76 -73 88 -69 14 4 22 -28 9 -41 -9 -9 -11 -8 -5 7 5
13 3 17 -6 14 -13 -4 -107 89 -103 103 2 4 -12 20 -29 34 -25 21 -29 28 -17
36 19 12 31 11 52 -5z m67 -61 c13 -14 21 -27 18 -30 -2 -3 -17 9 -33 25 -16
17 -24 30 -19 30 6 0 21 -11 34 -25z m170 -100 c37 -38 64 -48 34 -12 l-19 22
22 -19 c13 -10 20 -22 18 -26 -2 -4 4 -15 15 -25 14 -13 20 -14 20 -5 0 7 2
11 5 8 3 -3 2 -15 -3 -27 -7 -21 -8 -21 -40 8 -17 17 -32 29 -32 27 0 -1 -18
13 -39 33 -35 32 -44 51 -22 51 4 0 22 -16 41 -35z m-22 -97 c21 -14 21 -16 4
-20 -24 -7 -108 64 -97 81 5 9 16 5 39 -17 17 -16 41 -36 54 -44z m233 -82
c-9 -11 -7 -15 12 -20 13 -3 24 -12 24 -21 0 -17 -13 -20 -22 -5 -3 6 -12 10
-18 10 -7 -1 1 -12 18 -25 37 -30 28 -43 -11 -14 -16 11 -11 4 11 -16 22 -20
39 -42 37 -48 -2 -8 1 -7 10 1 11 11 10 14 -1 21 -8 5 -15 21 -17 34 -2 20 1
25 14 20 37 -14 42 -53 12 -83 -23 -23 -49 -25 -75 -6 -13 9 -16 19 -11 32 8
18 9 18 17 -3 4 -13 16 -23 26 -23 14 0 15 2 5 9 -8 4 -13 11 -13 15 1 3 -15
20 -34 37 -19 17 -35 28 -35 25 0 -3 0 -9 0 -13 0 -5 4 -8 9 -8 6 0 15 -5 22
-12 8 -8 6 -13 -10 -18 -25 -7 -92 41 -86 62 3 7 -3 10 -13 7 -13 -5 -13 -2 3
11 19 15 21 15 34 -4 14 -22 48 -30 35 -8 -5 7 -1 7 10 -2 15 -13 19 -13 26
-1 5 8 6 18 3 23 -7 12 5 37 18 37 9 0 9 -3 0 -14z"/>
<path d="M404 245 c3 -18 53 -58 60 -47 2 4 -10 20 -29 35 -21 17 -32 21 -31
12z"/>
</g>
</svg>
