<?xml version="1.0" standalone="no"?>
<!DOCTYPE svg PUBLIC "-//W3C//DTD SVG 20010904//EN"
 "http://www.w3.org/TR/2001/REC-SVG-20010904/DTD/svg10.dtd">
<svg version="1.0" xmlns="http://www.w3.org/2000/svg"
 width="72.000000pt" height="72.000000pt" viewBox="0 0 72.000000 72.000000"
 preserveAspectRatio="xMidYMid meet">
<metadata>
Created by potrace 1.10, written by Peter Selinger 2001-2011
</metadata>
<g transform="translate(0.000000,72.000000) scale(0.100000,-0.100000)"
fill="#000000" stroke="none">
<path d="M31 681 c-8 -14 -7 -20 4 -25 8 -3 15 -17 15 -31 0 -18 4 -24 12 -19
7 5 9 2 5 -9 -4 -12 0 -14 18 -11 18 3 32 -4 54 -28 16 -18 59 -66 96 -106 49
-53 78 -98 110 -166 28 -62 48 -93 59 -93 9 0 15 5 13 11 -3 6 -10 10 -16 8
-7 -1 -10 2 -7 7 3 5 -5 28 -19 52 -13 24 -20 46 -15 49 5 3 -38 56 -96 117
-57 61 -104 116 -104 123 0 6 53 -38 117 -99 65 -60 120 -106 123 -100 4 5 52
-15 109 -45 l103 -53 -33 -12 c-29 -10 -35 -9 -59 14 -14 14 -29 25 -33 25
-14 0 -7 -28 8 -34 20 -7 19 -35 -1 -43 -18 -7 -66 45 -57 62 3 5 0 5 -7 -2
-11 -10 -11 -15 0 -28 10 -12 10 -21 1 -41 -9 -20 -8 -31 4 -54 19 -37 19 -49
0 -24 -14 18 -15 17 -4 -8 7 -15 16 -25 22 -21 6 3 7 1 3 -5 -9 -16 21 -72 39
-72 10 0 15 10 14 33 0 27 -2 29 -9 12 -9 -20 -3 115 6 143 3 11 26 13 99 10
66 -2 96 1 99 9 3 7 -72 50 -187 109 -181 91 -197 102 -294 192 -57 53 -103
104 -103 113 0 10 -9 20 -19 24 -11 3 -22 12 -25 20 -8 21 -33 19 -45 -4z m77
-53 c38 -40 47 -55 33 -51 -12 3 -32 18 -45 34 -13 15 -27 25 -31 21 -4 -4 -5
-2 -4 3 2 6 -3 21 -10 34 -19 35 -2 23 57 -41z m381 -485 l-1 -48 -13 30 c-19
40 -18 65 0 65 11 0 15 -12 14 -47z"/>
</g>
</svg>
