<?xml version="1.0" standalone="no"?>
<!DOCTYPE svg PUBLIC "-//W3C//DTD SVG 20010904//EN"
 "http://www.w3.org/TR/2001/REC-SVG-20010904/DTD/svg10.dtd">
<svg version="1.0" xmlns="http://www.w3.org/2000/svg"
 width="72.000000pt" height="72.000000pt" viewBox="0 0 72.000000 72.000000"
 preserveAspectRatio="xMidYMid meet">
<metadata>
Created by potrace 1.10, written by Peter Selinger 2001-2011
</metadata>
<g transform="translate(0.000000,72.000000) scale(0.100000,-0.100000)"
fill="#000000" stroke="none">
<path d="M177 704 c-10 -10 30 -81 49 -88 13 -5 15 -9 6 -18 -7 -7 -12 -16
-12 -22 0 -5 3 -6 7 -3 9 10 43 -44 36 -56 -3 -6 -1 -7 4 -4 13 8 26 -20 16
-35 -3 -6 -2 -8 4 -5 16 10 34 -38 20 -52 -8 -8 -8 -11 0 -11 6 0 25 -22 42
-49 26 -44 28 -50 13 -56 -16 -6 -16 -7 1 -16 11 -7 16 -17 12 -29 -3 -10 0
-22 6 -26 9 -5 10 -2 6 10 -4 10 -3 15 3 11 13 -8 13 1 1 24 -7 13 -6 18 4 18
7 0 11 -7 7 -15 -3 -10 -1 -13 6 -8 8 5 10 1 5 -10 -4 -12 -3 -15 5 -10 8 5
10 2 6 -9 -4 -10 -2 -15 7 -13 9 2 13 -4 11 -16 -2 -10 1 -15 7 -12 12 8 30
-24 23 -42 -3 -11 0 -12 17 -2 21 11 21 11 3 38 -11 15 -52 86 -92 157 -40 72
-90 157 -110 190 -20 33 -49 84 -65 113 -28 51 -35 58 -48 46z"/>
<path d="M53 634 c-13 -6 22 -74 38 -74 5 0 8 -4 6 -8 -1 -5 16 -41 37 -81 30
-53 44 -70 55 -66 12 5 13 3 5 -5 -9 -9 -5 -23 16 -58 57 -97 98 -168 120
-210 13 -23 28 -42 32 -42 5 0 6 5 3 10 -3 5 -3 15 1 21 4 8 9 7 15 -2 7 -11
9 -11 9 1 0 13 1 13 10 0 7 -11 10 -11 10 -2 0 8 5 10 12 6 18 -12 -41 88 -68
114 -13 13 -24 27 -24 32 0 6 -6 10 -14 10 -7 0 -26 24 -42 54 -16 30 -32 53
-35 50 -4 -2 -28 33 -53 78 -25 46 -48 81 -52 80 -4 -2 -19 19 -33 47 -14 28
-28 50 -31 50 -3 0 -10 -3 -17 -5z m169 -258 c10 -7 36 -44 59 -82 22 -38 38
-58 34 -44 -9 31 -3 25 20 -19 11 -22 12 -31 4 -25 -7 4 -3 -9 9 -31 18 -29
20 -40 11 -49 -9 -8 -10 -8 -5 1 3 6 0 18 -8 26 -8 8 -12 17 -9 21 4 3 1 6 -6
6 -7 0 -10 4 -7 9 3 5 -1 12 -10 15 -8 3 -13 10 -10 15 3 5 -1 11 -9 15 -9 3
-12 12 -8 22 5 13 3 15 -7 9 -9 -5 -11 -4 -6 3 4 7 2 12 -4 12 -6 0 -8 5 -5
10 3 6 2 10 -4 10 -5 0 -12 8 -16 19 -3 10 -17 31 -30 45 -25 28 -22 34 7 12z
m158 -189 c0 -4 -5 -5 -12 -1 -7 4 -8 3 -4 -5 4 -6 11 -9 16 -6 5 3 14 -3 19
-14 14 -26 14 -28 -4 -28 -9 0 -14 6 -11 14 3 8 2 11 -3 8 -13 -7 -23 12 -27
49 -3 29 -3 30 11 12 8 -11 15 -24 15 -29z"/>
<path d="M641 236 c-9 -21 -92 -80 -116 -81 -5 -1 -40 -17 -76 -38 -36 -20
-71 -37 -77 -37 -23 0 -11 -18 28 -44 44 -29 61 -32 93 -15 30 16 37 28 37 65
0 29 5 34 70 63 70 31 70 31 70 71 0 44 -16 53 -29 16z m-138 -173 c-11 -31
-25 -43 -50 -43 -17 0 -24 5 -21 17 2 13 19 23 75 42 1 1 0 -7 -4 -16z"/>
<path d="M397 235 c-8 -20 42 -110 54 -98 8 9 12 30 10 53 -1 12 -4 12 -12 -3
-5 -9 -7 -22 -3 -29 4 -7 3 -8 -5 -4 -6 4 -9 16 -6 26 3 10 1 21 -4 25 -7 4
-8 -1 -5 -12 5 -15 4 -15 -4 -3 -6 8 -8 18 -6 22 3 4 1 15 -4 24 -8 15 -10 15
-15 -1z"/>
</g>
</svg>
