<?xml version="1.0" standalone="no"?>
<!DOCTYPE svg PUBLIC "-//W3C//DTD SVG 20010904//EN"
 "http://www.w3.org/TR/2001/REC-SVG-20010904/DTD/svg10.dtd">
<svg version="1.0" xmlns="http://www.w3.org/2000/svg"
 width="72.000000pt" height="72.000000pt" viewBox="0 0 72.000000 72.000000"
 preserveAspectRatio="xMidYMid meet">
<metadata>
Created by potrace 1.10, written by Peter Selinger 2001-2011
</metadata>
<g transform="translate(0.000000,72.000000) scale(0.100000,-0.100000)"
fill="#000000" stroke="none">
<path d="M40 675 l-24 -26 314 -314 c173 -173 320 -315 327 -315 7 0 20 12 29
26 l17 26 -314 314 c-173 173 -316 314 -320 314 -3 0 -16 -11 -29 -25z m76
-41 c31 -24 43 -42 41 -57 -1 -15 3 -22 15 -22 10 0 25 -8 34 -17 14 -14 15
-20 5 -32 -7 -8 -8 -17 -3 -20 6 -3 15 0 21 8 9 11 17 9 41 -14 17 -16 30 -35
30 -44 0 -9 6 -13 13 -10 18 7 41 -22 33 -42 -5 -12 -2 -15 10 -10 21 8 44
-11 44 -36 0 -11 5 -16 10 -13 18 11 41 -16 34 -38 -5 -16 -3 -19 11 -13 24 9
47 -12 39 -36 -5 -16 -2 -19 14 -14 21 7 44 -14 40 -35 -2 -8 4 -13 13 -11 18
3 71 -60 67 -80 -2 -7 5 -13 14 -13 28 0 38 -18 23 -39 -13 -17 -35 3 -290
255 -310 307 -345 346 -324 360 19 12 17 13 65 -27z"/>
<path d="M92 613 c4 -21 33 -25 33 -3 0 8 -8 16 -18 18 -14 3 -18 -1 -15 -15z"/>
<path d="M554 159 c-10 -17 13 -36 27 -22 12 12 4 33 -11 33 -5 0 -12 -5 -16
-11z"/>
</g>
</svg>
