<?xml version="1.0" standalone="no"?>
<!DOCTYPE svg PUBLIC "-//W3C//DTD SVG 20010904//EN"
 "http://www.w3.org/TR/2001/REC-SVG-20010904/DTD/svg10.dtd">
<svg version="1.0" xmlns="http://www.w3.org/2000/svg"
 width="72.000000pt" height="72.000000pt" viewBox="0 0 72.000000 72.000000"
 preserveAspectRatio="xMidYMid meet">
<metadata>
Created by potrace 1.10, written by Peter Selinger 2001-2011
</metadata>
<g transform="translate(0.000000,72.000000) scale(0.100000,-0.100000)"
fill="#000000" stroke="none">
<path d="M230 574 c-8 -3 -21 -8 -29 -10 -11 -4 -12 -7 -2 -17 9 -9 14 -9 22
3 9 13 10 12 5 -2 -3 -11 2 -22 15 -29 11 -6 18 -13 15 -16 -3 -3 -24 6 -47
21 l-41 28 -52 -19 c-28 -11 -50 -24 -49 -31 2 -8 -4 -9 -22 -2 -13 5 -26 6
-28 2 -2 -4 1 -32 7 -62 11 -51 59 -122 202 -299 2 -2 108 55 236 127 l233
130 6 48 c3 27 5 50 4 52 -2 2 -40 9 -86 17 -46 8 -122 21 -169 29 -47 8 -103
17 -124 21 -21 3 -48 7 -60 10 -12 2 -28 1 -36 -1z m75 -44 c4 0 1 8 -6 17
-12 14 -10 14 14 -1 15 -10 27 -26 27 -35 0 -14 2 -14 10 -1 6 9 5 19 -3 29
-9 11 -5 10 14 -2 17 -12 39 -16 69 -13 27 3 38 1 30 -4 -10 -6 -7 -10 12 -15
15 -4 31 -4 37 -1 5 4 12 2 16 -4 4 -7 13 -6 27 1 16 9 19 8 13 -1 -6 -10 -1
-11 21 -6 22 5 26 4 14 -4 -12 -9 -9 -11 15 -8 24 3 31 0 31 -13 0 -10 -4 -15
-8 -13 -4 3 -23 -2 -42 -10 -37 -15 -53 -11 -35 10 7 8 7 14 -1 19 -9 6 -14
-10 -13 -42 1 -7 -4 -13 -10 -13 -6 0 -8 -3 -5 -6 4 -3 20 2 38 11 18 9 34 15
36 12 2 -2 -75 -42 -171 -88 -96 -45 -175 -87 -175 -92 0 -4 5 -5 10 -2 11 7
14 -8 3 -18 -3 -4 -12 1 -19 11 -16 21 -17 32 -4 32 6 0 28 11 50 25 22 14 40
22 41 18 0 -5 5 3 10 17 7 17 12 21 18 12 5 -9 26 -4 80 20 68 31 72 33 45 39
-34 6 -114 -29 -156 -69 -16 -14 -28 -23 -28 -19 0 4 -18 -5 -41 -20 l-40 -26
-85 84 c-79 77 -124 133 -95 114 13 -7 44 13 37 24 -2 3 6 6 19 6 13 0 21 -3
19 -6 -2 -4 3 -10 12 -13 8 -3 12 -2 9 4 -3 6 -2 10 4 10 18 0 22 -19 6 -28
-13 -7 -11 -10 11 -21 21 -9 30 -9 38 0 8 9 7 10 -7 6 -11 -4 -16 -3 -12 3 3
6 0 10 -7 11 -10 0 -10 2 1 6 9 4 1 13 -25 29 -21 13 -34 24 -29 24 6 0 25 -9
44 -21 18 -11 36 -18 38 -15 3 3 -10 14 -28 25 -54 33 -22 24 39 -11 30 -17
52 -26 48 -20 -9 14 3 15 24 2 13 -9 13 -10 0 -10 -13 0 -13 -1 0 -11 12 -9
11 -10 -6 -6 -12 2 -21 -1 -21 -8 0 -10 7 -11 24 -4 38 14 51 10 23 -7 -17
-11 -19 -13 -5 -9 11 4 27 9 35 12 9 3 8 -1 -4 -11 -11 -9 -14 -16 -7 -16 7 0
9 -5 5 -12 -5 -8 -2 -9 12 -4 10 5 28 10 39 12 17 4 17 3 -2 -7 -37 -20 -26
-30 12 -12 34 16 50 38 20 27 -8 -4 -15 -1 -15 5 0 7 -8 7 -26 1 -42 -16 -41
-11 1 16 37 24 34 26 -12 7 -11 -4 -14 -3 -9 5 5 8 2 10 -8 6 -9 -3 -16 -1
-16 5 0 6 -6 8 -13 5 -8 -3 -14 2 -14 11 0 9 5 14 12 12 6 -3 12 4 12 14 1 10
-3 19 -8 19 -6 0 -7 -5 -3 -12 5 -8 2 -9 -10 -5 -10 4 -15 3 -11 -3 11 -17
-12 -11 -36 11 -24 20 -24 20 -1 9 15 -7 22 -7 22 0 0 5 -4 10 -10 10 -5 0
-10 5 -10 12 0 6 7 4 18 -5 10 -10 22 -17 27 -17z m385 -94 c0 -8 -6 -21 -14
-28 -26 -27 -415 -240 -426 -233 -19 12 -10 23 28 35 56 18 159 76 236 134 72
53 155 106 169 106 4 0 7 -6 7 -14z m-534 -127 c34 -18 78 -95 72 -128 -2 -15
-25 8 -93 95 -102 129 -118 158 -54 93 24 -24 58 -51 75 -60z"/>
<path d="M84 476 c-18 -14 -18 -15 -2 -21 10 -4 16 -11 13 -15 -3 -5 4 -12 16
-15 11 -4 18 -9 15 -12 -3 -4 9 -17 26 -30 18 -12 29 -23 25 -23 -4 0 -2 -6 5
-14 7 -7 19 -11 26 -9 8 4 10 0 6 -11 -5 -12 -2 -15 12 -9 12 4 15 3 10 -5 -4
-7 -5 -12 -1 -12 13 0 54 32 60 48 4 11 -1 9 -19 -7 -23 -22 -26 -22 -41 -7
-9 9 -13 22 -9 28 6 10 4 11 -7 1 -25 -25 -32 -13 -8 14 17 20 18 23 3 10 -26
-21 -38 -22 -30 -1 3 8 2 12 -4 9 -14 -9 -12 8 3 25 6 8 3 7 -9 -3 -29 -24
-41 -21 -18 6 10 12 12 16 4 10 -21 -19 -34 -16 -19 5 11 14 11 15 -1 5 -20
-18 -35 -16 -20 2 11 13 10 14 -3 9 -12 -4 -15 -1 -12 15 5 25 4 25 -21 7z"/>
<path d="M480 469 c0 -14 5 -19 14 -16 7 3 18 1 23 -4 5 -5 9 -1 9 10 0 15 -4
17 -18 10 -14 -7 -16 -6 -12 6 4 8 1 15 -5 15 -6 0 -11 -9 -11 -21z"/>
<path d="M209 448 c-1 -2 -3 -13 -4 -24 -2 -16 2 -20 16 -17 17 5 23 -3 21
-27 -1 -8 56 -6 64 3 5 4 0 5 -11 2 -19 -6 -19 -6 -2 8 26 22 20 32 -8 13 -34
-22 -42 -20 -19 5 19 22 19 22 -5 9 -18 -9 -22 -9 -16 0 4 7 1 16 -6 21 -14 8
-28 12 -30 7z"/>
<path d="M680 372 c0 -24 -310 -203 -340 -195 -8 2 -5 -2 7 -8 18 -10 30 -6
81 25 33 20 66 36 74 36 13 0 26 8 86 56 15 12 41 28 58 37 39 20 59 43 44 52
-5 3 -10 2 -10 -3z"/>
</g>
</svg>
