<?xml version="1.0" standalone="no"?>
<!DOCTYPE svg PUBLIC "-//W3C//DTD SVG 20010904//EN"
 "http://www.w3.org/TR/2001/REC-SVG-20010904/DTD/svg10.dtd">
<svg version="1.0" xmlns="http://www.w3.org/2000/svg"
 width="72.000000pt" height="72.000000pt" viewBox="0 0 72.000000 72.000000"
 preserveAspectRatio="xMidYMid meet">
<metadata>
Created by potrace 1.10, written by Peter Selinger 2001-2011
</metadata>
<g transform="translate(0.000000,72.000000) scale(0.100000,-0.100000)"
fill="#000000" stroke="none">
<path d="M50 691 c-51 -9 -24 -20 66 -28 65 -5 82 -10 101 -31 13 -14 23 -30
23 -36 0 -6 -9 0 -20 14 -26 33 -25 21 1 -30 12 -22 25 -38 30 -35 12 8 39
-49 33 -72 -6 -22 62 -167 74 -159 5 3 14 1 22 -4 12 -8 12 -10 -1 -15 -13 -5
-10 -18 22 -85 21 -44 43 -80 48 -80 5 0 21 -20 35 -45 31 -52 51 -65 102 -65
29 0 44 8 75 39 25 25 39 48 39 65 0 33 -30 107 -40 101 -4 -3 -11 2 -14 11
-3 8 -2 12 4 9 14 -9 13 -3 -10 46 -26 59 -26 95 2 110 l22 12 -24 9 c-35 13
-132 12 -174 -2 l-35 -11 21 -36 c12 -20 22 -44 23 -54 1 -10 27 -59 58 -109
31 -51 57 -96 57 -101 0 -18 -16 -8 -33 21 -16 26 -20 28 -38 17 -15 -9 -16
-13 -5 -15 14 -3 32 -38 28 -55 -1 -4 3 -7 9 -7 6 0 9 6 6 14 -4 10 0 12 15 8
15 -4 17 -7 6 -13 -9 -6 -7 -9 9 -9 17 0 21 5 18 26 -1 16 7 37 23 56 l25 30
14 -26 c17 -32 2 -66 -29 -66 -17 0 -18 -3 -9 -14 10 -12 7 -18 -19 -31 -30
-16 -33 -15 -66 10 -19 14 -34 30 -34 35 0 15 -51 70 -60 65 -14 -9 -23 16
-11 28 9 9 11 7 5 -8 -5 -16 -4 -18 6 -8 7 6 10 19 6 28 -5 14 -9 15 -21 5
-13 -11 -14 -10 -9 5 5 12 4 16 -3 12 -6 -4 -13 0 -17 8 -3 8 0 17 6 21 7 4 8
3 4 -4 -4 -7 -3 -12 2 -12 5 0 12 9 15 20 3 13 10 18 21 14 9 -3 16 -2 16 3 0
19 -12 21 -38 7 -16 -8 -28 -10 -30 -4 -2 6 -8 8 -13 4 -14 -8 -10 6 6 22 17
17 21 39 5 29 -6 -3 -7 1 -4 10 4 10 2 15 -7 13 -9 -2 -13 5 -12 20 2 13 -1
21 -7 17 -6 -4 -7 1 -3 11 4 12 3 15 -5 10 -8 -5 -10 -1 -5 10 4 12 3 15 -5
10 -8 -5 -10 -1 -5 10 4 11 3 15 -5 10 -15 -9 -34 28 -25 50 4 12 3 15 -5 10
-8 -5 -10 -1 -5 10 4 11 3 15 -5 10 -12 -7 -48 51 -38 62 3 3 6 0 6 -7 0 -7 4
-9 10 -6 5 3 28 -31 50 -75 22 -44 45 -78 50 -75 6 4 7 -1 3 -11 -4 -12 -3
-15 5 -10 8 5 10 1 5 -10 -5 -13 -3 -15 7 -9 8 5 11 4 6 -3 -6 -11 12 -62 23
-62 3 0 13 5 21 11 13 9 12 10 -2 5 -12 -3 -22 2 -29 17 -9 18 -9 20 2 10 20
-20 34 -15 17 5 -9 9 -17 22 -19 28 -10 29 -134 222 -140 218 -4 -2 -16 11
-26 29 -18 29 -28 34 -85 45 -36 7 -69 11 -74 11 -5 -1 -25 -4 -44 -8z m290
-291 c22 -43 34 -77 27 -74 -14 5 -47 66 -47 85 0 6 -7 17 -15 25 -14 14 -21
44 -10 44 3 0 23 -36 45 -80z m265 10 c3 -5 2 -10 -4 -10 -6 0 -13 -16 -17
-36 -5 -28 -2 -40 15 -58 26 -27 26 -38 3 -59 -15 -14 -34 -16 -82 -8 -3 1 2
6 10 11 13 8 13 10 -2 10 -10 0 -20 10 -24 25 -3 14 -11 22 -17 18 -5 -3 -7
-1 -3 5 3 6 2 22 -3 35 -7 18 -7 27 2 31 7 2 5 5 -4 5 -27 1 -31 29 -6 34 44
9 126 7 132 -3z m35 -235 c-17 -20 -66 -20 -74 1 -4 10 5 27 26 46 l32 30 15
-31 c12 -25 12 -33 1 -46z"/>
<path d="M557 283 c-13 -12 -7 -19 17 -21 13 -1 27 5 30 13 4 11 -1 15 -18 15
-12 0 -26 -3 -29 -7z"/>
<path d="M475 180 c-7 -12 2 -30 16 -30 5 0 9 5 9 11 0 5 -5 7 -12 3 -7 -4 -8
-3 -4 4 4 6 13 9 20 6 8 -3 17 -1 21 5 4 7 -4 11 -19 11 -14 0 -28 -4 -31 -10z"/>
</g>
</svg>
