<?xml version="1.0" standalone="no"?>
<!DOCTYPE svg PUBLIC "-//W3C//DTD SVG 20010904//EN"
 "http://www.w3.org/TR/2001/REC-SVG-20010904/DTD/svg10.dtd">
<svg version="1.0" xmlns="http://www.w3.org/2000/svg"
 width="72.000000pt" height="72.000000pt" viewBox="0 0 72.000000 72.000000"
 preserveAspectRatio="xMidYMid meet">
<metadata>
Created by potrace 1.10, written by Peter Selinger 2001-2011
</metadata>
<g transform="translate(0.000000,72.000000) scale(0.100000,-0.100000)"
fill="#000000" stroke="none">
<path d="M20 682 c0 -34 19 -74 59 -122 29 -34 30 -34 50 -16 20 18 21 18 21
1 0 -11 5 -15 14 -12 10 4 13 1 9 -9 -6 -16 -23 -19 -23 -4 0 6 -7 10 -15 10
-21 0 -19 -14 6 -36 20 -18 21 -18 38 5 12 15 21 20 25 13 4 -6 -2 -17 -14
-24 -24 -15 -26 -28 -5 -28 8 0 21 -13 30 -30 16 -31 40 -40 47 -18 3 9 10 7
24 -6 24 -24 161 -126 169 -126 3 0 3 5 -1 12 -4 7 -3 8 5 4 9 -6 9 -11 -1
-24 -7 -9 -8 -13 -2 -9 7 4 22 -3 35 -16 34 -32 64 -54 56 -41 -4 6 2 19 13
29 21 19 24 13 10 -20 -5 -14 -2 -26 12 -42 21 -22 17 -43 -8 -43 -21 0 -17
-53 7 -84 28 -35 43 -33 24 4 -8 16 -15 37 -14 47 0 14 2 13 9 -5 5 -12 17
-22 25 -22 16 0 14 10 -8 38 -6 7 -11 23 -12 35 -1 12 -5 29 -9 38 -5 12 -1
18 14 22 29 8 69 -30 76 -73 4 -22 2 -30 -3 -22 -5 7 -17 10 -26 6 -20 -7 -20
-9 -7 -35 8 -14 6 -25 -6 -44 -13 -20 -14 -25 -2 -25 17 0 58 81 58 115 0 31
-38 76 -101 116 -41 26 -52 30 -60 18 -5 -8 -9 -18 -9 -22 0 -5 -5 -5 -11 -2
-7 5 -2 16 13 33 13 14 18 22 12 19 -7 -4 -19 5 -28 18 -9 14 -21 23 -26 20
-6 -4 -10 -2 -10 4 0 10 -79 71 -93 71 -4 0 -26 20 -49 45 -23 25 -46 45 -51
45 -5 0 -4 -7 3 -15 23 -28 1 -15 -84 50 -47 36 -92 65 -101 65 -9 0 -15 6
-14 13 5 28 -41 107 -63 107 -4 0 -8 -13 -8 -28z m280 -251 c0 -11 -69 -10
-76 1 -4 6 1 8 14 4 13 -5 22 -1 26 10 5 13 9 14 21 4 8 -7 15 -16 15 -19z
m95 -50 c-2 -5 2 -16 9 -26 10 -14 15 -15 21 -5 5 8 4 11 -2 7 -5 -3 -10 1
-10 9 0 10 3 12 11 4 6 -6 11 -16 11 -22 0 -6 6 -13 14 -16 9 -3 11 0 6 9 -5
8 -4 11 1 6 5 -5 9 -14 9 -20 0 -7 9 -12 20 -12 19 0 21 -7 16 -45 0 -5 -6
-10 -12 -10 -8 0 -8 4 0 14 16 19 -30 51 -48 33 -10 -9 -12 -9 -9 3 2 8 -3 14
-10 15 -7 0 -17 6 -21 14 -5 7 -14 10 -20 7 -8 -5 -8 1 -1 21 9 26 9 27 -5 9
-12 -16 -15 -17 -15 -4 0 17 19 29 33 21 4 -2 5 -8 2 -12z"/>
</g>
</svg>
