<?xml version="1.0" standalone="no"?>
<!DOCTYPE svg PUBLIC "-//W3C//DTD SVG 20010904//EN"
 "http://www.w3.org/TR/2001/REC-SVG-20010904/DTD/svg10.dtd">
<svg version="1.0" xmlns="http://www.w3.org/2000/svg"
 width="72.000000pt" height="72.000000pt" viewBox="0 0 72.000000 72.000000"
 preserveAspectRatio="xMidYMid meet">
<metadata>
Created by potrace 1.10, written by Peter Selinger 2001-2011
</metadata>
<g transform="translate(0.000000,72.000000) scale(0.100000,-0.100000)"
fill="#000000" stroke="none">
<path d="M274 679 c-32 -17 -68 -39 -79 -48 -75 -64 -106 -65 -141 -6 -14 25
-30 42 -35 39 -18 -11 52 -114 78 -114 14 0 70 26 153 72 90 49 98 52 115 38
30 -25 18 -56 -32 -85 -73 -42 -83 -54 -83 -96 0 -21 5 -41 12 -45 7 -5 8 -3
3 6 -5 9 -4 11 4 6 6 -4 9 -12 5 -17 -8 -14 13 -36 42 -43 18 -5 46 2 91 24
78 36 88 37 108 6 22 -34 11 -51 -60 -91 -121 -67 -142 -126 -82 -225 42 -69
84 -93 151 -86 108 12 192 102 183 196 -2 25 -15 70 -28 100 l-25 54 -38 -35
-38 -35 20 -34 c38 -66 30 -117 -23 -150 -71 -44 -144 -19 -164 54 -12 46 10
79 76 117 76 44 93 62 93 104 0 43 -50 105 -86 105 -14 0 -51 -13 -84 -30 -71
-36 -84 -37 -104 -8 -25 35 -20 46 39 83 70 45 89 73 76 109 -11 29 -24 37
-14 9 8 -23 -1 -14 -17 16 -10 19 -10 22 2 16 7 -3 4 1 -6 9 -28 23 -45 20
-112 -15z m421 -454 l7 -40 -24 45 c-13 26 -30 45 -40 45 -30 0 -33 16 -8 35
l25 19 17 -32 c9 -18 19 -51 23 -72z m-29 -21 c22 -120 -143 -206 -234 -122
-31 29 -64 95 -59 116 3 14 5 15 10 2 3 -8 8 -28 12 -44 3 -16 19 -41 35 -57
23 -23 37 -29 72 -29 93 0 157 69 139 149 -8 35 -7 40 5 30 7 -6 16 -26 20
-45z"/>
</g>
</svg>
