<?xml version="1.0" standalone="no"?>
<!DOCTYPE svg PUBLIC "-//W3C//DTD SVG 20010904//EN"
 "http://www.w3.org/TR/2001/REC-SVG-20010904/DTD/svg10.dtd">
<svg version="1.0" xmlns="http://www.w3.org/2000/svg"
 width="72.000000pt" height="72.000000pt" viewBox="0 0 72.000000 72.000000"
 preserveAspectRatio="xMidYMid meet">
<metadata>
Created by potrace 1.10, written by Peter Selinger 2001-2011
</metadata>
<g transform="translate(0.000000,72.000000) scale(0.100000,-0.100000)"
fill="#000000" stroke="none">
<path d="M177 704 c-8 -9 21 -64 34 -64 6 0 7 -5 4 -10 -3 -6 1 -13 9 -16 13
-5 13 -10 4 -27 -6 -12 -7 -19 -3 -14 11 9 46 -43 38 -56 -3 -6 -1 -7 4 -4 13
8 26 -20 16 -35 -3 -6 -2 -8 4 -5 16 10 34 -38 20 -52 -8 -8 -8 -11 0 -11 6 0
25 -22 42 -49 26 -44 28 -50 13 -56 -16 -6 -16 -7 1 -16 11 -7 16 -17 12 -29
-3 -10 -2 -21 4 -24 14 -9 22 23 12 43 -7 13 -6 18 4 18 8 0 12 -4 10 -8 -8
-11 6 -40 16 -33 5 3 6 -2 3 -11 -4 -10 -2 -15 7 -13 9 2 13 -4 11 -16 -2 -10
1 -15 7 -12 5 4 13 1 17 -5 4 -8 3 -9 -4 -5 -15 9 -15 -5 1 -25 7 -9 18 -14
26 -11 8 3 11 0 7 -7 -5 -7 -1 -9 9 -4 13 5 14 7 3 14 -7 5 -9 9 -5 9 5 0 0
12 -11 27 -10 16 -50 82 -87 148 -37 66 -91 161 -120 210 -29 50 -61 105 -71
123 -18 32 -25 37 -37 26z"/>
<path d="M53 634 c-13 -6 22 -74 38 -74 5 0 8 -3 7 -7 -1 -5 10 -32 26 -61 17
-35 32 -52 41 -48 7 2 16 -1 19 -9 3 -9 0 -12 -10 -8 -10 4 -12 0 -8 -11 4
-11 13 -15 23 -11 12 5 13 3 5 -5 -9 -9 -4 -25 20 -65 17 -29 56 -96 86 -149
30 -52 58 -96 62 -96 4 0 5 6 2 14 -3 8 -1 17 5 21 6 3 11 0 11 -7 0 -9 3 -9
10 2 9 13 10 13 10 0 0 -13 1 -13 10 0 6 9 10 10 10 3 0 -6 -13 -20 -30 -30
-16 -9 -30 -20 -30 -24 0 -4 15 -16 32 -28 31 -19 33 -19 39 -3 7 17 79 47 79
33 0 -18 -34 -51 -52 -51 -12 0 -19 -3 -15 -6 9 -10 54 4 71 22 9 8 16 30 16
48 0 32 4 35 70 65 l71 31 -3 40 c-1 23 -6 39 -12 37 -6 -2 -10 -15 -8 -29 2
-20 -2 -27 -20 -32 -13 -3 -41 -17 -63 -32 -22 -14 -32 -23 -22 -20 11 3 15 2
12 -4 -3 -6 -12 -10 -19 -10 -8 0 -19 -7 -27 -16 -17 -20 -83 -54 -106 -54
-13 1 -7 11 24 39 41 37 42 38 27 67 -20 37 -38 57 -28 29 4 -11 4 -17 -1 -13
-4 4 -9 18 -10 30 -4 42 -5 43 -15 28 -5 -8 -7 -24 -3 -35 4 -13 -7 -6 -31 19
-20 22 -36 44 -36 48 0 4 -6 8 -13 8 -7 0 -26 24 -42 54 -16 30 -33 52 -37 50
-3 -2 -27 33 -52 78 -25 46 -48 81 -52 80 -4 -2 -19 19 -33 47 -14 28 -28 50
-31 50 -3 0 -10 -3 -17 -5z m169 -258 c10 -7 36 -44 59 -82 22 -38 38 -58 34
-44 -9 29 -3 25 15 -10 7 -14 9 -22 5 -18 -5 4 -15 2 -23 -5 -10 -8 -13 -8 -9
-1 4 7 0 14 -8 18 -9 3 -12 12 -8 22 5 13 3 15 -7 9 -9 -5 -11 -4 -6 3 4 7 2
12 -4 12 -6 0 -8 5 -5 10 3 6 2 10 -4 10 -5 0 -12 8 -16 19 -3 10 -17 31 -30
45 -25 28 -22 34 7 12z m157 -180 c26 -41 26 -46 1 -41 -11 2 -23 -1 -26 -7
-4 -7 -2 -8 4 -4 7 4 12 2 12 -4 0 -7 -6 -10 -12 -7 -7 2 -12 12 -10 22 2 11
-1 14 -9 9 -8 -4 -10 -3 -5 4 4 7 3 12 -2 12 -5 0 -9 7 -9 15 0 8 4 12 9 9 4
-3 11 2 14 10 8 21 9 21 33 -18z m53 -25 c3 9 7 7 11 -5 4 -11 3 -15 -4 -10
-8 4 -9 -1 -5 -17 7 -22 6 -23 -7 -6 -11 13 -16 15 -19 5 -3 -7 -5 2 -5 21 0
29 2 31 13 17 8 -12 13 -13 16 -5z"/>
</g>
</svg>
