<?xml version="1.0" standalone="no"?>
<!DOCTYPE svg PUBLIC "-//W3C//DTD SVG 20010904//EN"
 "http://www.w3.org/TR/2001/REC-SVG-20010904/DTD/svg10.dtd">
<svg version="1.0" xmlns="http://www.w3.org/2000/svg"
 width="72.000000pt" height="72.000000pt" viewBox="0 0 72.000000 72.000000"
 preserveAspectRatio="xMidYMid meet">
<metadata>
Created by potrace 1.10, written by Peter Selinger 2001-2011
</metadata>
<g transform="translate(0.000000,72.000000) scale(0.100000,-0.100000)"
fill="#000000" stroke="none">
<path d="M40 675 l-24 -26 314 -315 c173 -173 321 -313 329 -312 8 2 17 10 19
18 4 12 3 13 -10 3 -12 -11 -19 -8 -39 14 -16 18 -19 24 -8 20 9 -3 22 0 28 6
8 8 15 6 25 -9 8 -10 18 -15 22 -11 7 7 -613 637 -627 637 -3 0 -16 -11 -29
-25z m79 -39 c37 -37 42 -46 33 -63 -14 -26 -5 -35 20 -22 15 8 24 7 39 -7 17
-16 18 -19 3 -35 -9 -10 -11 -20 -6 -23 5 -3 15 1 22 9 12 14 17 12 42 -12 22
-21 28 -33 23 -52 -6 -22 -4 -23 10 -11 13 11 19 11 33 -4 14 -13 14 -20 4
-36 -13 -22 -3 -27 16 -8 18 18 45 -10 37 -41 -5 -21 -4 -23 9 -12 22 18 49
-4 40 -32 -5 -16 -3 -19 11 -13 24 9 47 -12 39 -37 -5 -16 -3 -19 11 -13 23 9
47 -12 40 -35 -5 -14 -2 -17 10 -13 10 4 27 -4 46 -22 33 -31 36 -46 14 -64
-13 -11 -53 25 -270 241 -292 290 -312 313 -295 334 17 21 19 20 69 -29z"/>
<path d="M92 613 c4 -21 33 -25 33 -3 0 8 -8 16 -18 18 -14 3 -18 -1 -15 -15z"/>
<path d="M554 159 c-8 -14 11 -33 25 -25 6 4 11 11 11 16 0 13 -29 20 -36 9z"/>
</g>
</svg>
