<?xml version="1.0" standalone="no"?>
<!DOCTYPE svg PUBLIC "-//W3C//DTD SVG 20010904//EN"
 "http://www.w3.org/TR/2001/REC-SVG-20010904/DTD/svg10.dtd">
<svg version="1.0" xmlns="http://www.w3.org/2000/svg"
 width="72.000000pt" height="72.000000pt" viewBox="0 0 72.000000 72.000000"
 preserveAspectRatio="xMidYMid meet">
<metadata>
Created by potrace 1.10, written by Peter Selinger 2001-2011
</metadata>
<g transform="translate(0.000000,72.000000) scale(0.100000,-0.100000)"
fill="#000000" stroke="none">
<path d="M61 697 c-21 -10 -23 -16 -18 -64 8 -74 52 -166 102 -212 68 -62 117
-83 220 -91 57 -4 103 -13 125 -25 19 -11 39 -18 43 -17 5 1 6 -2 2 -7 -3 -6
1 -21 9 -33 8 -13 20 -43 26 -68 21 -79 80 -177 99 -166 7 5 0 27 -18 62 -17
30 -35 80 -41 112 -15 75 -37 126 -67 152 -32 28 -107 60 -141 60 -36 0 -119
23 -158 43 -18 9 -43 30 -57 47 -30 36 -57 40 -57 8 0 -21 -1 -22 -17 -5 -17
17 -17 19 0 32 11 7 25 11 32 9 11 -5 11 2 1 38 -10 31 -19 44 -35 46 -25 4
-25 4 -6 -41 13 -33 13 -35 -5 -40 -29 -7 -47 49 -24 75 10 10 26 18 36 18 16
0 19 6 16 38 -3 41 -24 50 -67 29z m15 -53 c-3 -8 -10 -14 -16 -14 -14 0 -12
47 3 53 14 5 21 -17 13 -39z m201 -266 c34 -12 44 -28 18 -28 -20 0 -65 22
-65 32 0 11 7 10 47 -4z m223 -33 c8 -5 9 -10 1 -18 -7 -7 -15 -6 -25 3 -9 7
-41 12 -76 11 -33 0 -60 3 -60 7 0 9 144 7 160 -3z"/>
</g>
</svg>
