<?xml version="1.0" standalone="no"?>
<!DOCTYPE svg PUBLIC "-//W3C//DTD SVG 20010904//EN"
 "http://www.w3.org/TR/2001/REC-SVG-20010904/DTD/svg10.dtd">
<svg version="1.0" xmlns="http://www.w3.org/2000/svg"
 width="72.000000pt" height="72.000000pt" viewBox="0 0 72.000000 72.000000"
 preserveAspectRatio="xMidYMid meet">
<metadata>
Created by potrace 1.10, written by Peter Selinger 2001-2011
</metadata>
<g transform="translate(0.000000,72.000000) scale(0.100000,-0.100000)"
fill="#000000" stroke="none">
<path d="M586 700 c-34 -11 -66 -38 -66 -57 0 -7 -7 -13 -15 -13 -8 0 -15 -7
-15 -15 0 -8 -5 -25 -11 -38 -10 -23 -15 -24 -82 -20 -40 2 -92 0 -117 -6 -44
-10 -44 -10 15 -5 33 2 80 0 105 -5 l45 -9 -55 -1 c-30 -1 -84 -6 -119 -11
-45 -6 -71 -6 -85 2 -18 10 -19 9 -9 -3 10 -12 6 -15 -22 -14 -19 1 -32 -2
-30 -5 3 -4 -4 -15 -15 -25 -41 -37 -17 -89 55 -124 l40 -20 60 60 c64 63 75
68 95 44 18 -22 24 -11 9 17 -11 21 -11 22 4 10 17 -14 41 -7 32 9 -4 5 17 31
44 58 28 28 51 58 51 68 1 15 4 14 22 -7 14 -17 22 -21 25 -12 4 10 9 9 24 -4
17 -15 20 -15 43 -1 27 18 49 74 44 109 -3 26 -27 32 -72 18z m38 -19 c3 -5
-10 -18 -29 -30 -19 -11 -35 -28 -35 -37 0 -13 -3 -14 -15 -4 -20 17 -19 36 5
60 21 21 64 27 74 11z m-364 -248 c-65 -59 -81 -64 -112 -36 -36 32 -15 59 60
79 26 7 62 13 81 13 l34 1 -63 -57z"/>
<path d="M477 525 c-26 -25 -47 -48 -47 -52 0 -4 15 8 33 25 21 20 40 30 49
27 9 -4 19 -2 23 4 3 6 15 11 26 11 21 0 26 16 7 23 -7 2 -24 -5 -38 -17 -17
-14 -20 -15 -11 -3 27 35 5 25 -42 -18z"/>
<path d="M570 500 l35 -30 -49 21 -49 21 -32 -35 c-18 -20 -31 -38 -28 -41 3
-3 3 -13 -1 -22 -4 -12 -10 -13 -19 -6 -9 8 -12 4 -14 -16 -1 -31 -24 -49 -70
-58 -49 -9 -51 1 -7 42 l39 36 -40 -23 c-22 -12 -47 -28 -56 -36 -8 -7 -21
-13 -28 -13 -7 0 -10 -4 -7 -9 9 -15 173 -34 230 -27 28 4 76 18 105 31 63 30
67 30 51 8 -7 -10 1 -4 18 14 36 38 42 30 42 -56 0 -71 -31 -136 -80 -169 -19
-13 -34 -27 -33 -32 3 -10 -97 -54 -104 -46 -3 3 5 10 18 15 47 18 62 45 53
98 l-8 48 -6 -55 -5 -55 -50 -13 c-64 -17 -226 -10 -280 12 -41 17 -67 47
-124 144 l-31 52 58 -29 c98 -49 222 -67 347 -51 75 10 150 28 143 35 -2 2
-30 -3 -63 -11 -149 -35 -364 -6 -450 59 -36 27 -9 28 45 1 28 -14 57 -27 64
-28 6 -1 16 -4 21 -8 17 -10 179 -9 195 2 11 7 -5 10 -55 10 -84 0 -159 19
-220 54 -72 42 -81 77 -38 135 l26 36 -26 -24 c-46 -42 -67 -99 -67 -182 0
-42 4 -68 8 -61 6 9 14 0 27 -28 10 -23 44 -64 74 -92 40 -36 47 -47 26 -35
-36 19 -87 71 -108 112 -9 17 -16 25 -17 19 0 -22 61 -102 99 -128 68 -48 136
-67 231 -67 151 0 264 61 323 176 58 114 3 277 -108 320 l-40 16 35 -31z m23
-54 c19 -13 38 -22 41 -18 3 3 6 -4 6 -16 0 -21 -32 -47 -44 -35 -3 3 -6 1 -6
-6 0 -7 -4 -10 -8 -7 -5 3 -30 -1 -57 -9 -49 -15 -105 -20 -105 -9 0 3 17 32
38 65 32 50 41 58 68 58 17 1 47 -10 67 -23z m-219 -386 c38 0 66 -3 63 -6
-10 -10 -149 -6 -182 6 -28 9 -28 10 10 5 22 -3 71 -5 109 -5z"/>
</g>
</svg>
