<?xml version="1.0" standalone="no"?>
<!DOCTYPE svg PUBLIC "-//W3C//DTD SVG 20010904//EN"
 "http://www.w3.org/TR/2001/REC-SVG-20010904/DTD/svg10.dtd">
<svg version="1.0" xmlns="http://www.w3.org/2000/svg"
 width="72.000000pt" height="72.000000pt" viewBox="0 0 72.000000 72.000000"
 preserveAspectRatio="xMidYMid meet">
<metadata>
Created by potrace 1.10, written by Peter Selinger 2001-2011
</metadata>
<g transform="translate(0.000000,72.000000) scale(0.100000,-0.100000)"
fill="#000000" stroke="none">
<path d="M69 693 c-1 -4 -1 -11 0 -15 0 -4 -13 -20 -29 -37 -34 -33 -37 -41
-16 -41 8 0 18 9 21 21 7 20 9 19 44 -15 41 -40 56 -44 69 -18 6 13 -3 28 -40
65 -26 27 -49 45 -49 40z"/>
<path d="M63 593 c-17 -6 -16 -33 1 -33 7 0 16 9 19 20 5 20 2 22 -20 13z"/>
<path d="M157 570 c-18 -21 -22 -40 -9 -40 4 0 13 9 20 20 7 12 18 18 24 14 6
-4 9 -1 6 6 -7 22 -22 22 -41 0z"/>
<path d="M97 553 c-10 -10 -8 -33 3 -33 5 0 14 9 20 20 8 15 8 20 -3 20 -8 0
-17 -3 -20 -7z"/>
<path d="M185 550 c-18 -8 -18 -9 -2 -9 10 -1 15 -6 12 -11 -4 -6 -11 -7 -17
-4 -6 4 -8 -1 -3 -15 5 -15 2 -21 -9 -21 -9 0 -16 -7 -16 -15 0 -20 26 -19 34
2 6 15 8 15 24 -1 14 -14 15 -18 3 -25 -7 -5 -12 -14 -9 -21 3 -9 8 -9 20 3
14 15 17 15 29 1 10 -12 10 -17 0 -23 -9 -6 -8 -11 3 -20 8 -7 20 -10 26 -6 6
4 20 -1 31 -11 10 -9 19 -12 19 -6 0 6 -9 17 -20 25 -11 8 -17 17 -13 20 10
10 25 8 19 -2 -5 -8 -1 -11 29 -22 27 -9 44 -33 34 -46 -6 -7 -15 -11 -19 -8
-4 3 -11 -2 -14 -12 -9 -21 21 -53 48 -50 16 2 20 -3 19 -20 -2 -13 2 -23 7
-23 6 0 10 5 10 11 0 7 12 -1 27 -17 27 -29 28 -29 31 -6 5 33 24 27 83 -27
29 -27 59 -47 66 -44 20 8 16 -5 -14 -43 -14 -19 -32 -33 -39 -30 -8 3 -11 0
-7 -10 8 -21 41 -17 55 6 7 11 20 20 28 20 33 -1 -45 -50 -80 -50 -30 -1 -32
-2 -17 -11 25 -14 70 5 102 43 36 43 41 72 16 106 -16 23 -26 28 -53 25 -27
-2 -29 -1 -13 6 16 8 13 10 -19 10 -37 1 -49 11 -208 169 -92 92 -172 168
-176 169 -4 1 -16 -2 -27 -7z m223 -206 c-4 -3 2 -14 13 -25 23 -23 16 -44
-10 -29 -12 6 -22 5 -29 -2 -9 -9 -12 -9 -12 0 0 7 5 12 11 12 6 0 9 6 6 14
-5 12 10 36 22 36 2 0 2 -3 -1 -6z"/>
<path d="M510 131 l0 -40 38 6 c38 6 71 27 59 39 -4 4 -13 2 -20 -4 -11 -9
-19 -6 -37 13 -32 34 -40 31 -40 -14z"/>
</g>
</svg>
