<?xml version="1.0" standalone="no"?>
<!DOCTYPE svg PUBLIC "-//W3C//DTD SVG 20010904//EN"
 "http://www.w3.org/TR/2001/REC-SVG-20010904/DTD/svg10.dtd">
<svg version="1.0" xmlns="http://www.w3.org/2000/svg"
 width="72.000000pt" height="72.000000pt" viewBox="0 0 72.000000 72.000000"
 preserveAspectRatio="xMidYMid meet">
<metadata>
Created by potrace 1.10, written by Peter Selinger 2001-2011
</metadata>
<g transform="translate(0.000000,72.000000) scale(0.100000,-0.100000)"
fill="#000000" stroke="none">
<path d="M32 667 c-21 -23 -21 -23 -2 -54 10 -18 28 -36 39 -42 18 -10 395
-408 473 -500 30 -35 40 -42 51 -32 8 6 21 9 29 6 18 -7 88 82 81 102 -3 7
-61 48 -129 93 -130 85 -161 119 -141 155 5 11 15 23 21 27 17 12 61 9 74 -4
15 -15 16 -70 0 -86 -6 -6 -9 -15 -5 -19 12 -11 36 30 37 63 0 67 -88 100
-129 48 -47 -60 -20 -99 138 -204 61 -40 111 -77 111 -83 0 -16 -41 -77 -52
-77 -6 0 -6 6 2 15 10 12 9 16 -2 20 -21 8 -469 490 -495 533 -19 31 -54 60
-74 62 -3 0 -15 -10 -27 -23z m70 -41 c7 4 8 2 4 -5 -4 -6 -11 -9 -16 -6 -5 3
-12 0 -16 -6 -4 -8 -3 -9 5 -5 6 4 14 0 17 -8 3 -9 12 -16 19 -16 8 0 118
-112 246 -249 128 -138 237 -247 243 -244 6 4 5 -1 -3 -10 -7 -9 -17 -17 -21
-17 -4 0 -93 91 -196 203 -104 111 -214 228 -245 260 -31 31 -53 57 -50 57 2
0 -4 6 -14 14 -17 12 -18 16 -5 31 9 11 16 13 18 6 2 -6 9 -8 14 -5z"/>
</g>
</svg>
