<?xml version="1.0" standalone="no"?>
<!DOCTYPE svg PUBLIC "-//W3C//DTD SVG 20010904//EN"
 "http://www.w3.org/TR/2001/REC-SVG-20010904/DTD/svg10.dtd">
<svg version="1.0" xmlns="http://www.w3.org/2000/svg"
 width="72.000000pt" height="72.000000pt" viewBox="0 0 72.000000 72.000000"
 preserveAspectRatio="xMidYMid meet">
<metadata>
Created by potrace 1.10, written by Peter Selinger 2001-2011
</metadata>
<g transform="translate(0.000000,72.000000) scale(0.100000,-0.100000)"
fill="#000000" stroke="none">
<path d="M99 674 c-12 -14 -10 -19 10 -35 18 -15 27 -17 37 -8 18 15 18 29 -1
29 -8 0 -15 -4 -15 -10 0 -5 -5 -10 -11 -10 -8 0 -7 5 1 15 9 11 10 19 3 26
-7 7 -14 4 -24 -7z"/>
<path d="M49 673 c-1 -5 -1 -11 -1 -14 1 -4 -8 -5 -18 -2 -11 3 -20 0 -20 -6
0 -6 10 -11 21 -11 18 0 19 -2 9 -15 -10 -12 -10 -19 -2 -27 8 -8 13 -7 18 5
3 9 10 14 16 11 5 -3 1 -12 -8 -18 -10 -8 -14 -18 -10 -25 6 -9 11 -9 22 0 19
16 18 33 -5 53 -11 10 -17 25 -14 37 3 10 3 19 -1 19 -3 0 -7 -3 -7 -7z"/>
<path d="M153 621 c-11 -17 -8 -23 17 -44 16 -14 26 -28 22 -32 -4 -4 -2 -5 3
-3 6 2 10 0 10 -3 0 -4 8 -16 18 -26 9 -11 14 -23 10 -27 -5 -4 -1 -6 7 -4 8
2 14 -3 12 -10 -1 -6 4 -11 10 -10 7 2 12 -3 10 -11 -3 -12 0 -12 12 -1 15 11
20 7 17 -12 0 -4 7 -4 16 -1 12 5 15 2 10 -10 -4 -11 -2 -14 7 -11 9 4 13 -3
11 -20 -2 -15 2 -24 8 -23 7 1 11 -4 9 -11 -1 -8 1 -11 6 -8 5 3 26 -13 48
-36 21 -22 32 -37 24 -33 -8 5 -5 -3 8 -17 33 -37 26 -46 -10 -12 -32 28 -32
28 -9 2 14 -16 20 -28 14 -28 -5 0 -25 19 -43 42 -33 40 -34 40 -42 18 -11
-30 12 -65 48 -74 30 -8 87 11 78 25 -3 5 0 9 6 9 6 0 8 4 5 10 -3 6 -1 10 4
10 19 0 12 48 -11 74 -13 13 -34 27 -48 31 -19 5 -22 4 -10 -4 9 -6 10 -11 3
-11 -6 0 -19 -3 -29 -7 -14 -5 -16 -3 -11 11 4 10 3 15 -3 11 -6 -4 -18 1 -27
11 -13 13 -14 16 -3 12 8 -2 25 1 39 8 31 16 54 5 99 -47 23 -27 47 -42 87
-53 62 -19 79 -34 32 -29 l-32 3 35 -12 c50 -19 66 -57 44 -103 -9 -20 -31
-47 -48 -60 -27 -21 -96 -44 -133 -45 -20 0 -42 29 -53 71 -7 27 -29 57 -65
92 -54 52 -69 89 -46 112 10 10 -14 39 -141 173 -59 63 -71 71 -88 62 -21 -11
-25 -22 -13 -33 3 -4 15 0 24 9 17 16 19 15 26 -2 3 -11 44 -60 91 -111 67
-74 82 -96 77 -113 -10 -30 10 -72 46 -95 35 -23 53 -54 63 -107 14 -79 85
-123 158 -99 40 13 122 94 137 134 20 52 13 87 -22 122 -19 19 -46 36 -60 39
-15 3 -39 8 -53 11 -15 4 -36 18 -48 32 -58 71 -66 76 -105 69 -36 -5 -41 -2
-128 79 -50 47 -96 85 -102 85 -6 0 -11 5 -11 10 0 6 5 10 10 10 6 0 10 7 10
15 0 21 -23 19 -37 -4z m109 -116 c2 3 18 -10 34 -27 16 -18 22 -27 13 -20 -9
6 -18 10 -21 7 -2 -3 -20 12 -39 32 -19 21 -25 30 -13 20 11 -9 23 -15 26 -12z
m221 -209 c10 10 8 -18 -2 -34 -6 -10 -10 -10 -21 3 -11 13 -10 15 6 9 12 -5
5 9 -21 37 -37 41 -38 42 -4 11 19 -18 38 -29 42 -26z m112 -241 c-39 -32 -77
-40 -112 -22 -28 15 -28 15 17 11 34 -4 53 0 75 15 42 28 56 25 20 -4z"/>
<path d="M578 259 c10 -14 4 -24 -40 -68 -29 -28 -60 -51 -68 -51 -12 0 -12
-2 1 -15 14 -14 22 -9 78 46 l63 62 -23 21 c-13 12 -17 14 -11 5z"/>
</g>
</svg>
