<?xml version="1.0" standalone="no"?>
<!DOCTYPE svg PUBLIC "-//W3C//DTD SVG 20010904//EN"
 "http://www.w3.org/TR/2001/REC-SVG-20010904/DTD/svg10.dtd">
<svg version="1.0" xmlns="http://www.w3.org/2000/svg"
 width="72.000000pt" height="72.000000pt" viewBox="0 0 72.000000 72.000000"
 preserveAspectRatio="xMidYMid meet">
<metadata>
Created by potrace 1.10, written by Peter Selinger 2001-2011
</metadata>
<g transform="translate(0.000000,72.000000) scale(0.100000,-0.100000)"
fill="#000000" stroke="none">
<path d="M48 589 l-38 -19 0 -85 0 -84 38 -8 c20 -4 64 -7 97 -6 36 0 52 -2
40 -7 -13 -4 28 -16 125 -34 80 -15 183 -34 230 -43 l86 -16 42 28 42 28 0 91
0 92 -307 42 c-170 23 -310 42 -313 42 -3 -1 -22 -10 -42 -21z m214 -54 c112
-19 153 -23 169 -15 18 10 119 7 138 -4 4 -3 34 -6 66 -7 l57 -2 -23 -18 c-13
-10 -31 -16 -39 -13 -27 10 -121 25 -132 22 -7 -3 21 -10 60 -17 l72 -13 0
-44 c0 -55 17 -57 47 -6 20 34 22 35 22 12 1 -27 -23 -69 -57 -101 l-22 -20 0
26 c0 15 -6 25 -15 25 -9 0 -12 -6 -8 -16 5 -14 1 -16 -23 -11 -16 3 -64 12
-108 18 -70 11 -101 28 -83 45 2 3 46 -2 97 -11 51 -9 94 -14 97 -11 6 5 -70
21 -225 47 -347 57 -327 52 -330 83 -2 15 -1 33 1 39 8 20 85 18 239 -8z m-34
-106 c125 -20 142 -25 142 -42 0 -15 -5 -18 -22 -14 -22 6 -298 57 -305 57 -1
0 -3 7 -3 16 0 12 6 15 23 11 12 -3 86 -16 165 -28z"/>
<path d="M248 503 c14 -3 22 -12 22 -24 0 -23 6 -23 -104 -3 -48 8 -96 14
-105 12 -9 -2 59 -16 152 -32 92 -15 173 -26 180 -23 6 2 -17 7 -51 12 -63 7
-64 7 -60 36 4 27 2 29 -26 28 -24 -1 -26 -3 -8 -6z"/>
<path d="M470 414 c36 -7 76 -13 90 -12 14 0 -6 6 -45 14 -38 7 -79 13 -90 12
-11 0 9 -6 45 -14z"/>
<path d="M124 346 c-14 -36 0 -51 46 -52 28 -1 99 -21 190 -56 80 -30 176 -65
213 -78 38 -12 67 -24 64 -26 -2 -2 -110 21 -240 51 -130 30 -243 55 -251 55
-9 0 -26 12 -39 26 -21 22 -28 24 -46 14 -31 -16 -26 -64 8 -68 13 -2 27 0 33
6 5 5 56 -2 131 -20 66 -16 129 -27 139 -25 10 3 16 2 13 -3 -2 -4 54 -20 126
-36 104 -22 132 -25 138 -15 7 10 13 10 29 2 15 -8 23 -8 27 0 4 6 5 11 4 13
-2 1 -116 44 -254 94 -166 61 -255 99 -264 112 -16 23 -59 27 -67 6z m46 -4
c0 -10 -22 -32 -32 -32 -4 0 -8 9 -8 20 0 13 7 20 20 20 11 0 20 -4 20 -8z
m-87 -79 c8 -7 -11 -33 -24 -33 -5 0 -9 9 -9 20 0 19 20 27 33 13z"/>
</g>
</svg>
