<?xml version="1.0" standalone="no"?>
<!DOCTYPE svg PUBLIC "-//W3C//DTD SVG 20010904//EN"
 "http://www.w3.org/TR/2001/REC-SVG-20010904/DTD/svg10.dtd">
<svg version="1.0" xmlns="http://www.w3.org/2000/svg"
 width="72.000000pt" height="72.000000pt" viewBox="0 0 72.000000 72.000000"
 preserveAspectRatio="xMidYMid meet">
<metadata>
Created by potrace 1.10, written by Peter Selinger 2001-2011
</metadata>
<g transform="translate(0.000000,72.000000) scale(0.100000,-0.100000)"
fill="#000000" stroke="none">
<path d="M160 568 c-36 -5 -81 -17 -100 -26 -33 -16 -35 -20 -32 -59 2 -26 -1
-43 -7 -43 -6 0 -11 -7 -11 -15 0 -8 7 -15 15 -15 8 0 15 8 15 17 0 12 3 14
11 6 17 -17 1 -56 -22 -50 -21 6 -27 -9 -6 -16 9 -4 9 -7 0 -18 -18 -18 -16
-30 2 -22 9 3 22 -2 30 -13 13 -18 14 -18 20 -1 5 12 14 16 26 12 30 -10 57
12 61 48 2 26 8 33 30 35 15 2 36 -2 48 -8 16 -8 20 -8 20 3 0 10 -18 16 -56
20 -61 6 -76 13 -55 26 10 7 9 10 -3 14 -13 5 -16 -1 -16 -27 0 -19 6 -36 12
-38 17 -6 -6 -58 -26 -58 -17 0 -29 41 -16 54 20 20 10 43 -20 50 -23 4 -30
11 -30 28 0 39 16 50 86 64 118 23 473 11 525 -17 l22 -11 -24 -14 c-13 -7
-50 -16 -81 -20 -32 -4 -58 -10 -58 -14 0 -3 -13 -5 -30 -2 -22 3 -30 0 -30
-10 0 -12 10 -13 63 -5 34 5 64 12 67 16 8 9 70 9 70 0 0 -5 -11 -11 -25 -15
-15 -4 -25 -13 -25 -24 0 -21 23 -43 35 -32 5 4 5 1 1 -6 -4 -7 -12 -10 -17
-7 -5 4 -9 -1 -9 -9 0 -9 -9 -16 -20 -16 -11 0 -19 -5 -18 -12 7 -32 -128 -59
-256 -51 -48 3 -86 2 -85 -3 0 -5 -2 -19 -6 -32 -11 -34 -59 -27 -63 9 -4 32
-46 59 -64 41 -7 -7 -22 -12 -35 -12 -25 0 -43 -26 -43 -64 0 -28 30 -48 89
-61 25 -5 32 -4 26 5 -5 8 -2 11 11 7 11 -3 37 -8 59 -12 22 -4 46 -11 53 -17
8 -7 12 -7 12 1 0 7 27 10 83 9 l82 -1 -65 -7 -65 -7 71 -1 c53 -2 75 2 84 13
7 9 27 14 49 14 l36 -2 -35 -8 c-27 -6 -23 -7 20 -3 59 5 117 21 138 37 6 5
12 24 12 43 0 18 5 36 10 39 6 3 10 13 10 20 0 22 -27 6 -34 -19 -3 -14 -19
-29 -36 -36 -22 -9 -30 -19 -30 -38 0 -19 -3 -23 -11 -15 -7 7 -21 8 -42 2
-18 -5 -46 -9 -64 -9 -22 0 -33 -5 -36 -18 -3 -10 -5 -5 -6 12 0 16 -8 34 -16
40 -19 15 -8 56 15 56 21 0 34 -39 18 -57 -8 -10 -2 -13 28 -12 22 1 53 5 69
10 22 6 17 7 -22 3 -46 -4 -53 -2 -53 13 0 24 27 63 44 63 7 0 18 -10 24 -22
l11 -23 0 23 c1 16 7 22 25 22 15 0 26 -7 29 -17 4 -13 5 -12 6 5 0 12 -6 25
-15 29 -13 5 -10 11 12 34 32 34 44 36 44 10 0 -10 8 -21 18 -23 15 -4 18 1
18 28 0 27 -4 33 -20 31 -25 -2 -35 32 -14 47 8 6 17 28 21 49 7 44 -11 61
-78 73 -83 15 -375 23 -455 12z m-14 -300 c4 -13 2 -24 -5 -26 -6 -2 -11 -14
-11 -27 0 -12 -7 -26 -16 -29 -23 -9 -31 -7 -15 3 10 7 5 11 -18 16 -40 9 -41
27 -1 19 30 -7 39 3 20 22 -15 15 -1 44 20 44 10 0 22 -10 26 -22z m237 -5 c4
-2 7 -11 7 -19 0 -10 -12 -14 -40 -14 -22 0 -40 4 -40 9 0 5 -3 17 -6 26 -6
14 -1 15 32 9 22 -3 42 -9 47 -11z m-93 -23 c0 -16 -4 -30 -10 -30 -5 0 -10
-8 -10 -18 0 -19 -9 -20 -97 -6 -60 9 -35 24 30 18 51 -6 60 -4 50 7 -26 26
-13 56 25 58 7 1 12 -11 12 -29z m148 -52 c-5 -14 -118 -24 -145 -14 -33 13 4
26 73 26 56 0 75 -3 72 -12z"/>
<path d="M385 449 c-33 -4 -72 -6 -87 -3 -17 4 -28 1 -28 -6 0 -7 29 -10 90
-9 69 1 90 5 90 15 0 8 -1 13 -2 13 -2 -1 -30 -5 -63 -10z"/>
<path d="M503 423 c-43 -4 -54 -18 -32 -40 16 -16 1 -53 -21 -53 -27 0 -34 34
-14 65 l16 25 -86 0 -86 0 7 -45 c5 -41 4 -45 -16 -45 -13 0 -25 9 -31 23 -5
13 -9 16 -9 6 -1 -21 19 -39 45 -39 25 0 34 23 22 58 -7 21 -5 22 52 22 59 0
70 -6 50 -26 -6 -6 -5 -17 6 -32 22 -32 67 -29 93 6 18 23 20 24 21 7 0 -18 1
-17 17 4 16 23 17 23 24 5 6 -16 8 -15 8 8 1 15 6 30 11 33 6 3 10 10 10 16 0
9 -6 9 -87 2z"/>
</g>
</svg>
