<?xml version="1.0" standalone="no"?>
<!DOCTYPE svg PUBLIC "-//W3C//DTD SVG 20010904//EN"
 "http://www.w3.org/TR/2001/REC-SVG-20010904/DTD/svg10.dtd">
<svg version="1.0" xmlns="http://www.w3.org/2000/svg"
 width="72.000000pt" height="72.000000pt" viewBox="0 0 72.000000 72.000000"
 preserveAspectRatio="xMidYMid meet">
<metadata>
Created by potrace 1.10, written by Peter Selinger 2001-2011
</metadata>
<g transform="translate(0.000000,72.000000) scale(0.100000,-0.100000)"
fill="#000000" stroke="none">
<path d="M15 700 c-4 -6 5 -26 19 -45 14 -18 26 -38 26 -44 0 -22 23 -22 46 0
18 17 21 25 13 36 -6 7 -15 11 -19 8 -5 -3 -11 -1 -15 4 -13 22 -64 51 -70 41z"/>
<path d="M154 610 c1 -17 5 -30 9 -30 16 0 77 -53 77 -66 0 -8 5 -13 10 -12 6
2 45 -34 88 -80 60 -64 78 -79 79 -63 1 12 -12 30 -33 46 -38 29 -70 72 -61
82 4 3 13 0 22 -7 12 -10 15 -10 15 3 0 17 -27 30 -41 21 -6 -3 -45 26 -88 65
-77 69 -78 69 -77 41z"/>
<path d="M106 565 c1 -24 -2 -35 -11 -35 -21 0 -24 -48 -4 -66 18 -16 19 -16
19 3 0 22 23 47 33 36 14 -13 7 13 -9 36 -16 22 -16 23 5 16 29 -9 26 0 -8 24
l-28 20 3 -34z"/>
<path d="M162 515 c2 -15 7 -24 14 -21 14 5 77 -57 67 -67 -3 -4 4 -18 16 -31
19 -21 20 -24 6 -30 -9 -3 -24 -6 -33 -6 -12 1 -11 4 7 14 l24 13 -27 5 c-33
6 -39 -3 -26 -36 13 -36 70 -56 70 -25 0 5 -8 9 -17 9 -15 0 -16 2 -3 10 15 9
47 -20 167 -153 48 -53 73 -70 73 -48 0 5 -6 12 -12 14 -8 4 -9 6 -2 6 6 1 17
-6 24 -14 9 -10 9 -15 1 -15 -18 0 -13 -25 10 -46 16 -14 22 -15 28 -5 11 17
55 -44 47 -64 -11 -30 21 -14 67 33 53 54 59 72 22 72 -16 0 -50 23 -102 70
-71 63 -77 73 -74 102 1 18 7 38 12 44 12 14 -34 54 -61 54 -13 0 -16 -6 -12
-26 3 -15 -1 -29 -7 -34 -9 -5 -4 -14 16 -31 15 -13 59 -59 97 -102 37 -42 72
-75 76 -72 5 3 11 1 15 -5 3 -5 18 -10 32 -10 l25 0 -23 -25 -24 -24 -135 132
c-186 182 -224 211 -62 46 73 -74 129 -138 125 -142 -4 -4 -31 16 -60 45 -30
29 -57 52 -61 51 -4 -2 -7 2 -7 7 0 18 -146 170 -157 164 -6 -4 -8 -2 -5 3 4
6 0 16 -9 23 -8 7 -13 18 -10 25 2 6 -14 30 -35 54 -21 23 -39 38 -39 34 0 -4
-5 0 -11 10 -15 25 -29 21 -27 -8z m329 -164 c7 11 9 11 9 -4 0 -16 -25 -35
-35 -26 -2 2 0 18 3 34 6 28 7 28 10 6 3 -19 6 -21 13 -10z m133 -274 c15 -24
-2 -34 -19 -11 -8 10 -15 23 -15 27 0 13 22 3 34 -16z"/>
</g>
</svg>
