<?xml version="1.0" standalone="no"?>
<!DOCTYPE svg PUBLIC "-//W3C//DTD SVG 20010904//EN"
 "http://www.w3.org/TR/2001/REC-SVG-20010904/DTD/svg10.dtd">
<svg version="1.0" xmlns="http://www.w3.org/2000/svg"
 width="72.000000pt" height="72.000000pt" viewBox="0 0 72.000000 72.000000"
 preserveAspectRatio="xMidYMid meet">
<metadata>
Created by potrace 1.10, written by Peter Selinger 2001-2011
</metadata>
<g transform="translate(0.000000,72.000000) scale(0.100000,-0.100000)"
fill="#000000" stroke="none">
<path d="M10 703 c0 -4 10 -18 23 -31 18 -21 19 -24 4 -19 -11 4 -16 3 -12 -3
4 -6 12 -10 18 -9 24 3 36 -1 39 -15 4 -18 340 -388 346 -381 3 3 -6 18 -21
33 l-26 27 31 2 c25 1 28 -1 14 -9 -13 -8 -15 -13 -5 -24 6 -7 16 -11 22 -7 6
3 7 1 3 -5 -6 -10 35 -59 156 -186 15 -17 28 -38 28 -48 0 -26 17 -22 51 11
32 32 38 61 13 61 -9 0 -47 27 -85 61 -42 37 -69 55 -69 46 0 -8 4 -17 9 -19
5 -1 37 -29 70 -61 l60 -58 -21 -21 c-17 -17 -20 -18 -15 -4 5 13 -7 31 -48
70 -30 28 -55 57 -55 64 0 7 -6 12 -14 12 -8 0 -18 4 -21 10 -3 5 0 7 8 4 8
-3 17 2 20 10 7 18 -9 31 -18 16 -7 -11 -25 -4 -25 10 0 5 8 6 18 3 15 -6 15
-5 3 10 -11 13 -17 15 -28 6 -7 -7 -16 -10 -18 -7 -3 3 2 11 10 18 17 14 19
13 122 -84 24 -22 45 -37 48 -34 3 3 -35 42 -84 86 -81 74 -112 98 -97 73 3
-5 -2 -15 -11 -22 -15 -12 -16 -12 -8 1 25 41 4 70 -30 42 -20 -17 -20 -17 -3
4 17 20 16 21 -21 58 -22 21 -44 35 -50 31 -6 -3 -9 -11 -6 -16 13 -19 -8 -7
-55 32 -27 23 -47 46 -44 51 4 6 26 -9 49 -32 23 -23 45 -37 49 -32 3 5 -12
25 -33 45 -49 44 -57 57 -31 50 11 -3 18 -9 15 -13 -6 -9 25 -23 33 -15 3 3 0
5 -6 5 -7 0 -12 6 -12 14 0 18 -26 27 -56 20 -20 -5 -38 7 -115 85 -80 80
-119 107 -119 84z m350 -325 c0 -5 6 -6 13 -2 8 5 8 2 -2 -9 -12 -15 -11 -17
10 -17 22 0 22 0 4 -14 -20 -14 -40 -12 -30 4 3 4 -2 13 -10 20 -19 16 -19 27
0 27 8 0 15 -4 15 -9z"/>
</g>
</svg>
