<?xml version="1.0" standalone="no"?>
<!DOCTYPE svg PUBLIC "-//W3C//DTD SVG 20010904//EN"
 "http://www.w3.org/TR/2001/REC-SVG-20010904/DTD/svg10.dtd">
<svg version="1.0" xmlns="http://www.w3.org/2000/svg"
 width="72.000000pt" height="72.000000pt" viewBox="0 0 72.000000 72.000000"
 preserveAspectRatio="xMidYMid meet">
<metadata>
Created by potrace 1.10, written by Peter Selinger 2001-2011
</metadata>
<g transform="translate(0.000000,72.000000) scale(0.100000,-0.100000)"
fill="#000000" stroke="none">
<path d="M44 697 c-3 -8 0 -26 6 -41 9 -25 12 -27 27 -15 9 8 14 9 10 3 -6
-10 46 -78 128 -164 18 -19 34 -44 36 -55 3 -11 13 -21 24 -23 18 -2 19 -2 3
8 -10 6 -18 16 -18 22 0 7 5 6 15 -2 8 -7 15 -9 15 -5 0 3 12 -7 26 -24 14
-17 30 -28 35 -25 5 3 7 10 3 15 -3 5 -10 7 -15 3 -5 -3 -8 -2 -7 3 2 4 -1 9
-6 10 -4 1 -17 16 -28 33 -14 24 -24 31 -39 27 -15 -4 -18 -2 -10 7 13 16 4
27 -15 19 -10 -4 -12 0 -8 11 4 11 1 16 -11 16 -9 0 -13 5 -10 10 3 6 -1 10
-9 10 -9 0 -16 7 -16 15 0 7 -7 18 -16 23 -9 5 -14 14 -11 19 5 8 367 -340
367 -352 0 -2 -7 -5 -14 -8 -10 -4 -13 -1 -10 7 6 17 -22 40 -40 33 -9 -4 -13
-1 -10 7 6 16 -31 50 -45 41 -7 -4 -8 1 -4 12 5 14 3 15 -7 6 -10 -9 -5 -19
24 -48 20 -20 40 -33 45 -30 6 3 13 1 16 -5 4 -6 1 -9 -6 -8 -6 2 -14 -3 -17
-11 -3 -10 0 -12 12 -8 11 4 22 -2 33 -21 10 -15 30 -38 46 -51 34 -29 81
-107 72 -121 -3 -5 -1 -10 6 -10 16 0 104 89 95 97 -3 4 -16 -4 -27 -16 l-21
-23 -28 27 c-18 17 -33 24 -42 20 -7 -4 -6 0 3 9 15 17 19 17 47 2 45 -23 53
-20 12 5 -19 12 -50 34 -69 50 -27 22 -37 25 -52 16 -10 -6 -15 -15 -12 -21 4
-5 1 -6 -7 -1 -10 6 -7 13 13 29 l27 22 -100 99 c-55 55 -103 108 -106 118 -3
10 -13 17 -23 15 -11 -2 -63 40 -141 115 -67 64 -126 117 -131 117 -5 0 -12
-6 -15 -13z m421 -367 c49 -49 87 -90 85 -90 -3 0 -46 41 -95 90 -49 50 -87
90 -85 90 3 0 46 -40 95 -90z m124 -143 c16 -20 -6 -39 -31 -26 -15 8 -17 13
-7 25 14 17 23 18 38 1z"/>
<path d="M357 373 c-4 -3 -7 -12 -7 -20 0 -15 26 -18 34 -4 7 11 -18 33 -27
24z"/>
</g>
</svg>
