<?xml version="1.0" standalone="no"?>
<!DOCTYPE svg PUBLIC "-//W3C//DTD SVG 20010904//EN"
 "http://www.w3.org/TR/2001/REC-SVG-20010904/DTD/svg10.dtd">
<svg version="1.0" xmlns="http://www.w3.org/2000/svg"
 width="72.000000pt" height="72.000000pt" viewBox="0 0 72.000000 72.000000"
 preserveAspectRatio="xMidYMid meet">
<metadata>
Created by potrace 1.10, written by Peter Selinger 2001-2011
</metadata>
<g transform="translate(0.000000,72.000000) scale(0.100000,-0.100000)"
fill="#000000" stroke="none">
<path d="M555 685 c-5 -2 -22 -6 -37 -9 -16 -4 -28 -10 -28 -15 0 -11 100 -7
121 4 8 3 5 -1 -6 -10 -11 -9 -32 -15 -47 -12 -21 2 -25 0 -17 -9 7 -9 -23
-22 -122 -54 -73 -23 -139 -39 -148 -37 -9 3 -25 8 -36 12 -19 7 -19 7 -1 -7
18 -14 17 -15 -13 -21 -18 -4 -31 -13 -31 -22 0 -8 -4 -15 -10 -15 -5 0 -10 4
-10 9 0 5 -10 11 -23 14 -12 4 -31 13 -42 21 -18 15 -15 15 40 10 42 -5 57 -3
50 4 -5 6 -28 13 -50 15 -32 4 -30 4 12 4 29 -1 55 2 59 5 11 12 -111 1 -148
-13 -33 -12 -38 -18 -38 -45 0 -17 3 -33 6 -37 3 -3 5 -85 4 -181 0 -116 3
-176 10 -176 5 0 10 6 10 14 0 8 22 22 50 32 45 16 49 21 52 53 2 20 3 -7 2
-59 -1 -52 -3 -101 -5 -109 -2 -7 2 -16 9 -18 6 -3 12 1 12 9 0 19 483 259
492 245 4 -7 8 51 8 129 0 78 3 161 6 185 l6 44 -48 22 c-27 11 -50 17 -52 12
-2 -5 -11 -9 -20 -9 -15 0 -15 2 -2 10 14 9 6 12 -15 5z m100 -47 c-11 -6 -26
-18 -32 -26 -9 -11 -13 -12 -13 -3 0 7 -5 9 -10 6 -6 -4 -7 -11 -4 -17 5 -7 0
-9 -14 -6 -12 4 -20 3 -17 -2 7 -11 -171 -73 -186 -64 -7 4 -10 3 -6 -2 3 -6
-36 -25 -88 -43 -51 -18 -96 -39 -99 -47 -4 -12 -9 -11 -26 6 -11 11 -25 20
-31 20 -5 0 -7 5 -3 12 5 8 2 9 -10 5 -11 -4 -15 -3 -11 4 4 6 -1 9 -11 7 -12
-2 -18 2 -16 11 2 9 -3 11 -13 7 -9 -3 -13 -2 -10 4 3 6 0 10 -7 11 -10 0 -10
2 0 6 6 2 35 -9 63 -27 l51 -31 124 41 c68 23 128 39 134 35 5 -3 10 -1 10 5
0 7 7 9 16 6 10 -4 13 -2 8 6 -5 7 0 9 14 6 15 -4 19 -2 15 9 -5 13 -2 13 15
4 18 -10 21 -9 15 5 -5 14 -3 15 15 5 17 -9 21 -9 17 1 -6 14 77 58 110 57 20
0 20 0 0 -11z m20 -37 c-9 -8 -39 -20 -90 -35 -11 -4 3 5 30 18 52 26 76 33
60 17z m-5 -32 c0 -5 -4 -7 -10 -4 -6 4 -10 -34 -10 -108 l0 -114 -70 -32
c-38 -18 -70 -37 -70 -42 0 -6 -4 -8 -9 -4 -14 8 -81 -27 -74 -38 4 -6 -1 -8
-11 -4 -11 5 -15 3 -10 -5 5 -8 2 -9 -10 -5 -9 4 -15 3 -12 -1 6 -11 -82 -54
-95 -47 -5 4 -9 1 -9 -5 0 -6 -4 -8 -10 -5 -5 3 -10 1 -10 -5 0 -6 -4 -9 -9
-6 -5 3 -20 -3 -34 -14 -14 -11 -28 -20 -31 -20 -3 0 -6 19 -6 43 l1 42 184
74 c102 40 191 71 199 68 10 -4 15 12 20 71 3 43 2 91 -3 107 -11 39 -20 18
-23 -59 l-3 -58 -50 -20 c-27 -11 -51 -23 -53 -28 -2 -5 -10 -6 -19 -3 -12 5
-14 3 -8 -6 6 -10 2 -11 -15 -6 -17 5 -21 4 -15 -6 6 -9 3 -11 -9 -6 -11 4
-15 3 -10 -4 4 -8 -1 -9 -16 -4 -15 5 -20 3 -16 -3 8 -13 -29 -26 -45 -16 -8
5 -9 3 -4 -6 6 -9 2 -10 -15 -5 -15 5 -20 3 -16 -3 8 -13 -29 -26 -45 -16 -8
4 -9 3 -5 -4 4 -7 5 -12 2 -12 -2 0 -12 -3 -21 -6 -14 -6 -16 3 -13 76 l3 82
147 55 c81 31 145 59 143 64 -3 4 5 5 17 1 14 -3 19 -1 14 6 -5 8 -1 10 10 5
11 -4 15 -3 11 4 -5 7 1 9 15 5 14 -3 19 -1 14 6 -4 7 -2 10 7 7 7 -3 29 1 48
9 41 18 59 20 59 5z m-541 -152 c34 -23 34 -24 32 -92 -3 -83 -14 -109 -43
-99 -13 4 -18 2 -14 -4 6 -9 -14 -22 -35 -22 -5 0 -9 58 -9 130 0 146 -5 139
69 87z m435 -56 c-8 -7 -81 -38 -114 -48 -8 -2 14 11 50 30 59 32 89 40 64 18z
m96 -41 c0 -5 -19 -19 -42 -31 -47 -24 -46 -19 4 17 39 27 38 27 38 14z"/>
<path d="M444 651 c3 -4 -6 -6 -21 -3 -19 4 -24 2 -18 -8 5 -9 2 -10 -14 -5
-13 4 -21 2 -21 -5 0 -6 -5 -8 -10 -5 -16 10 -71 -5 -64 -17 4 -6 -1 -8 -15
-3 -13 4 -21 2 -21 -5 0 -7 -8 -9 -20 -5 -28 9 -25 -3 3 -14 29 -11 43 -11 39
0 -3 13 12 11 27 -3 10 -11 12 -10 9 1 -3 14 31 28 120 51 40 10 50 30 16 30
-8 0 -13 -4 -10 -9z"/>
</g>
</svg>
