<?xml version="1.0" standalone="no"?>
<!DOCTYPE svg PUBLIC "-//W3C//DTD SVG 20010904//EN"
 "http://www.w3.org/TR/2001/REC-SVG-20010904/DTD/svg10.dtd">
<svg version="1.0" xmlns="http://www.w3.org/2000/svg"
 width="72.000000pt" height="72.000000pt" viewBox="0 0 72.000000 72.000000"
 preserveAspectRatio="xMidYMid meet">
<metadata>
Created by potrace 1.10, written by Peter Selinger 2001-2011
</metadata>
<g transform="translate(0.000000,72.000000) scale(0.100000,-0.100000)"
fill="#000000" stroke="none">
<path d="M196 580 c-52 -39 -52 -40 -28 -40 12 0 21 4 20 8 -2 5 11 20 27 35
40 35 29 34 -19 -3z"/>
<path d="M106 518 c-18 -10 -22 -38 -6 -38 10 0 319 -128 374 -156 22 -11 32
-11 43 -2 12 9 4 15 -39 33 -29 12 -106 43 -171 70 -64 26 -116 50 -113 52 2
2 55 -16 117 -41 62 -26 125 -46 139 -45 22 0 21 2 -10 14 -19 7 -99 37 -176
68 -101 38 -146 52 -158 45z"/>
<path d="M420 520 c-10 -6 -11 -12 -5 -18 16 -15 242 -91 249 -85 15 15 5 35
-14 30 -11 -3 -18 -1 -15 3 7 12 -152 63 -166 54 -7 -4 -9 -3 -6 3 4 6 0 14
-9 17 -19 7 -16 8 -34 -4z"/>
<path d="M53 448 c-15 -17 -15 -20 -3 -28 20 -13 30 -12 30 0 0 6 -8 10 -17
10 -12 0 -9 5 11 15 35 19 47 19 23 1 -10 -8 -14 -17 -9 -20 4 -3 16 4 25 15
13 14 14 21 5 23 -25 8 -48 2 -65 -16z"/>
<path d="M665 394 c-16 -30 -29 -63 -27 -73 1 -10 -4 -24 -12 -30 -12 -10 -21
-8 -48 12 -18 13 -39 22 -45 20 -25 -9 -12 -20 42 -38 30 -11 54 -24 52 -29
-2 -6 -23 -15 -48 -19 -24 -5 -47 -14 -50 -20 -4 -5 -14 -7 -24 -4 -9 4 -14 3
-11 -2 8 -12 -50 -22 -82 -15 -22 5 -24 3 -12 -6 12 -10 10 -11 -10 -6 -14 3
-32 6 -40 6 -19 1 17 23 40 25 8 1 26 3 40 4 l25 2 -24 13 c-33 18 -9 31 26
13 17 -8 38 -11 53 -7 22 7 23 8 6 15 -10 4 -31 8 -47 9 l-29 1 22 16 c20 16
24 15 61 -8 21 -13 41 -22 44 -19 3 2 -15 15 -39 27 -47 25 -71 32 -63 19 3
-5 -3 -11 -13 -14 -12 -4 -65 16 -143 54 -68 33 -134 60 -146 60 -26 0 -42 20
-16 21 11 0 13 3 5 6 -7 3 -19 -1 -28 -8 -12 -10 -9 -15 23 -29 238 -111 275
-130 262 -135 -12 -5 -254 102 -363 160 -34 18 -36 18 -29 -16 4 -21 29 -37
164 -104 101 -51 158 -84 155 -92 -3 -7 3 -17 12 -22 23 -14 6 -14 -19 -1 -31
17 -167 -25 -147 -45 5 -5 156 20 203 34 24 6 42 2 98 -26 l67 -33 30 47 c17
26 30 50 30 54 0 4 9 11 21 14 12 4 18 13 15 20 -3 8 11 44 29 80 32 61 46
125 28 125 -5 0 -21 -25 -38 -56z m-409 -96 c71 -34 135 -60 142 -59 6 1 12
-3 12 -9 0 -16 -12 -12 -73 21 -31 17 -61 27 -67 24 -6 -4 -25 4 -43 18 -18
13 -50 34 -72 45 -82 43 -23 20 101 -40z m318 -102 c-3 -8 -16 -16 -29 -19
-14 -2 -22 0 -19 4 3 5 -1 9 -8 10 -17 1 22 17 44 18 11 1 15 -4 12 -13z"/>
<path d="M461 376 c17 -16 150 -63 155 -55 8 13 10 11 -59 37 -51 19 -109 30
-96 18z"/>
</g>
</svg>
