<?xml version="1.0" standalone="no"?>
<!DOCTYPE svg PUBLIC "-//W3C//DTD SVG 20010904//EN"
 "http://www.w3.org/TR/2001/REC-SVG-20010904/DTD/svg10.dtd">
<svg version="1.0" xmlns="http://www.w3.org/2000/svg"
 width="72.000000pt" height="72.000000pt" viewBox="0 0 72.000000 72.000000"
 preserveAspectRatio="xMidYMid meet">
<metadata>
Created by potrace 1.10, written by Peter Selinger 2001-2011
</metadata>
<g transform="translate(0.000000,72.000000) scale(0.100000,-0.100000)"
fill="#000000" stroke="none">
<path d="M40 675 l-24 -26 317 -317 c300 -300 318 -316 334 -299 15 15 15 17
1 17 -8 0 -81 68 -162 151 -108 112 -151 149 -163 145 -15 -6 -15 -5 1 13 17
18 7 39 -13 27 -4 -3 -19 6 -32 20 -13 14 -30 22 -39 19 -10 -3 -9 -1 4 9 19
16 13 41 -9 32 -16 -6 -60 39 -60 62 0 9 -7 17 -15 17 -22 0 -73 42 -65 55 10
17 -5 33 -20 20 -16 -13 -52 37 -37 52 6 6 122 -104 320 -304 171 -172 314
-309 318 -305 7 7 -613 637 -627 637 -3 0 -16 -11 -29 -25z m370 -400 c35 -36
62 -65 59 -65 -2 0 -34 29 -69 65 -35 36 -62 65 -59 65 2 0 34 -29 69 -65z"/>
</g>
</svg>
