<?xml version="1.0" standalone="no"?>
<!DOCTYPE svg PUBLIC "-//W3C//DTD SVG 20010904//EN"
 "http://www.w3.org/TR/2001/REC-SVG-20010904/DTD/svg10.dtd">
<svg version="1.0" xmlns="http://www.w3.org/2000/svg"
 width="72.000000pt" height="72.000000pt" viewBox="0 0 72.000000 72.000000"
 preserveAspectRatio="xMidYMid meet">
<metadata>
Created by potrace 1.10, written by Peter Selinger 2001-2011
</metadata>
<g transform="translate(0.000000,72.000000) scale(0.100000,-0.100000)"
fill="#000000" stroke="none">
<path d="M22 698 c-4 -4 26 -43 68 -87 41 -43 143 -151 226 -238 177 -186 199
-221 191 -306 l-5 -60 104 104 c57 57 104 104 104 105 0 0 -31 0 -69 0 -68 -1
-78 -15 -11 -16 l35 -1 -34 -30 -33 -31 -22 37 c-12 19 -25 33 -29 29 -4 -4
-7 -2 -7 4 0 7 5 12 12 12 6 0 -8 13 -33 30 -24 16 -87 72 -139 125 -85 86
-124 117 -104 83 5 -9 2 -9 -9 1 -20 16 -23 25 -4 15 6 -4 -15 20 -48 53 -127
127 -185 179 -193 171z m354 -330 c20 -22 24 -29 11 -25 -10 4 -23 7 -28 7 -6
0 -7 5 -4 11 4 6 -1 17 -11 24 -11 8 -14 15 -8 15 5 0 23 -14 40 -32z m128
-122 c21 -13 34 -26 29 -29 -6 -4 -23 4 -39 18 -15 13 -31 22 -36 19 -4 -3 -8
0 -8 5 0 16 11 13 54 -13z m57 -103 c9 -24 3 -53 -12 -53 -5 0 -9 6 -9 14 0 7
-11 34 -25 60 l-25 46 31 -22 c17 -13 35 -33 40 -45z"/>
</g>
</svg>
