<?xml version="1.0" standalone="no"?>
<!DOCTYPE svg PUBLIC "-//W3C//DTD SVG 20010904//EN"
 "http://www.w3.org/TR/2001/REC-SVG-20010904/DTD/svg10.dtd">
<svg version="1.0" xmlns="http://www.w3.org/2000/svg"
 width="72.000000pt" height="72.000000pt" viewBox="0 0 72.000000 72.000000"
 preserveAspectRatio="xMidYMid meet">
<metadata>
Created by potrace 1.10, written by Peter Selinger 2001-2011
</metadata>
<g transform="translate(0.000000,72.000000) scale(0.100000,-0.100000)"
fill="#000000" stroke="none">
<path d="M255 700 c4 -6 -7 -10 -26 -10 -30 0 -31 -1 -14 -14 10 -7 27 -11 37
-8 22 5 24 -16 2 -25 -10 -4 -20 0 -26 10 -13 23 -49 21 -55 -2 -3 -11 -10
-18 -16 -17 -7 2 -9 1 -4 -1 4 -3 7 -12 6 -21 0 -11 -2 -12 -6 -4 -5 14 -43
17 -43 3 0 -5 6 -12 13 -15 6 -4 2 -4 -9 -2 -37 6 -46 -8 -50 -80 -2 -37 -8
-81 -15 -96 -6 -15 -9 -38 -6 -50 9 -38 49 -142 65 -165 13 -21 16 -21 40 -9
42 22 68 44 61 51 -4 3 -22 -4 -42 -15 -34 -20 -35 -20 -41 -2 -13 39 23 92
62 92 20 0 22 -3 12 -14 -6 -8 -17 -13 -24 -10 -16 6 -39 -20 -34 -41 2 -13 8
-12 38 7 19 12 52 30 74 40 31 14 36 15 26 3 -7 -8 -19 -15 -26 -15 -8 0 -14
-4 -14 -10 0 -13 6 -13 41 6 39 20 50 11 12 -10 -38 -21 -6 -21 36 0 37 18 55
12 19 -7 -12 -6 -25 -16 -28 -20 -3 -5 -28 -2 -55 6 -78 24 -63 11 37 -32 69
-30 98 -38 111 -31 14 7 22 5 32 -9 25 -32 47 -85 52 -124 4 -25 11 -39 20
-39 17 0 123 77 123 89 0 5 3 16 6 24 3 9 -1 17 -11 19 -15 3 -14 6 5 23 l23
20 -7 -22 c-5 -14 -3 -23 4 -23 13 0 29 40 23 57 -2 6 -18 17 -34 23 -16 7
-29 16 -29 21 0 13 18 11 22 -3 2 -6 9 -9 15 -5 7 4 7 23 1 59 -6 29 -11 75
-12 101 -1 27 -8 52 -15 56 -6 4 -11 14 -9 21 2 7 -7 16 -19 19 -22 6 -146
141 -138 150 3 2 0 10 -6 18 -13 15 -43 18 -34 4 8 -14 -24 -18 -65 -9 -19 4
-45 5 -56 2 -14 -4 -23 0 -27 10 -4 10 -1 13 9 9 7 -3 14 -1 14 5 0 10 -23 22
-41 22 -6 0 -7 -4 -4 -10z m185 -89 c0 -20 2 -23 10 -11 8 12 10 11 10 -8 0
-14 8 -26 23 -31 12 -5 30 -17 39 -27 15 -17 15 -21 2 -39 -15 -20 -15 -20
-34 3 -25 30 -34 13 -10 -18 l18 -24 23 19 c12 11 19 15 16 9 -7 -13 13 -24
44 -24 10 0 19 -6 19 -14 0 -23 -41 -87 -51 -80 -6 3 -7 -6 -4 -23 3 -15 -5
-1 -19 31 -14 32 -37 74 -51 92 -14 18 -22 39 -19 48 3 9 1 16 -6 16 -6 0 -8
-5 -4 -12 5 -7 -4 -3 -20 9 -15 12 -33 21 -39 19 -7 -1 -8 -1 -4 2 4 2 2 11
-5 19 -18 23 -19 45 -1 41 9 -2 18 -9 21 -16 2 -8 -3 -10 -15 -7 -17 6 -16 5
1 -7 11 -7 27 -21 37 -30 22 -21 34 -6 18 23 -9 17 -13 19 -20 8 -7 -11 -9 -9
-9 7 0 32 -27 51 -51 36 -10 -7 -19 -8 -19 -4 0 17 13 21 56 20 41 0 44 -3 44
-27z m-150 -6 c-14 -17 -35 -21 -25 -5 3 6 0 10 -7 10 -7 0 -19 -9 -26 -21 -8
-12 -19 -18 -28 -15 -9 3 -16 -4 -20 -20 -5 -19 -9 -22 -15 -13 -4 7 -10 11
-11 9 -2 -3 -12 -18 -22 -34 -13 -21 -21 -25 -29 -17 -9 9 -9 14 -1 19 6 4 15
17 19 30 7 24 44 45 80 46 11 1 19 7 18 14 -2 8 11 12 38 12 36 0 40 -2 29
-15z m30 -5 c-8 -5 -10 -10 -3 -10 6 0 21 -16 32 -36 16 -27 27 -35 41 -31 23
6 70 -44 95 -103 9 -19 22 -46 30 -60 25 -46 37 -111 27 -139 -6 -14 -16 -48
-23 -76 l-13 -49 -14 34 c-8 19 -15 40 -16 47 -1 7 -11 22 -22 34 -10 12 -13
19 -6 15 7 -4 24 0 38 9 14 9 33 14 41 11 13 -5 14 -4 4 8 -7 8 -19 12 -27 9
-24 -9 -229 68 -236 89 -4 10 -14 8 -44 -4 -21 -9 -48 -19 -60 -23 -11 -3 -31
-15 -43 -26 -21 -20 -23 -20 -19 -3 2 10 13 23 24 29 18 9 20 14 11 35 -9 23
-10 23 -15 5 -2 -11 -10 -27 -17 -35 -7 -8 -15 -22 -17 -30 -3 -8 -10 9 -16
38 -18 78 -16 87 10 62 25 -23 38 -18 16 7 -9 10 -13 24 -11 31 5 14 53 17 53
2 0 -5 5 -10 10 -10 6 0 10 16 10 36 0 29 8 44 36 71 20 19 49 37 65 40 16 3
34 12 40 19 6 8 17 14 23 14 6 0 4 -5 -4 -10z m286 -215 c-9 -19 -21 -35 -26
-35 -4 0 1 18 13 39 26 48 36 45 13 -4z m34 -37 c0 -32 -14 -57 -37 -67 -13
-6 -29 -9 -34 -6 -14 9 -11 35 5 35 7 0 21 11 30 25 18 27 36 33 36 13z m-245
-93 c-11 -8 -25 -18 -30 -23 -6 -5 -16 -7 -24 -4 -8 3 -3 11 16 23 34 23 69
26 38 4z m50 -4 c-8 -13 -67 -42 -73 -36 -3 3 -3 6 -1 8 61 36 85 45 74 28z
m179 -18 c17 -23 17 -27 4 -37 -9 -6 -17 -20 -19 -30 -7 -35 -27 -29 -27 8 0
22 4 33 10 30 6 -4 5 2 -1 14 -25 47 1 59 33 15z m-72 -95 c-2 -10 -10 -18
-17 -18 -9 0 -10 9 -1 41 9 36 11 38 17 18 3 -13 3 -32 1 -41z"/>
<path d="M507 454 c-7 -7 24 -74 35 -74 7 0 28 33 28 44 0 20 -49 44 -63 30z"/>
<path d="M106 432 c-3 -6 3 -12 14 -15 11 -3 20 -12 20 -21 0 -9 5 -16 11 -16
6 0 8 -9 4 -20 -7 -24 10 -27 19 -4 12 31 5 51 -21 65 -16 7 -31 15 -35 17 -3
2 -9 -1 -12 -6z"/>
</g>
</svg>
