<?xml version="1.0" standalone="no"?>
<!DOCTYPE svg PUBLIC "-//W3C//DTD SVG 20010904//EN"
 "http://www.w3.org/TR/2001/REC-SVG-20010904/DTD/svg10.dtd">
<svg version="1.0" xmlns="http://www.w3.org/2000/svg"
 width="72.000000pt" height="72.000000pt" viewBox="0 0 72.000000 72.000000"
 preserveAspectRatio="xMidYMid meet">
<metadata>
Created by potrace 1.10, written by Peter Selinger 2001-2011
</metadata>
<g transform="translate(0.000000,72.000000) scale(0.100000,-0.100000)"
fill="#000000" stroke="none">
<path d="M69 699 c-12 -60 -1 -97 25 -82 6 3 8 2 3 -2 -4 -5 0 -17 10 -27 15
-17 18 -17 40 -3 19 13 23 13 23 1 0 -7 -7 -19 -15 -26 -19 -16 -9 -33 16 -25
11 4 19 2 19 -4 0 -6 -5 -11 -12 -11 -6 0 -9 -3 -6 -6 4 -3 16 0 28 6 18 10
21 9 18 -1 -3 -8 -19 -18 -36 -23 -32 -9 -45 -36 -17 -36 8 0 15 4 15 10 0 5
14 16 30 25 31 16 43 3 13 -14 -24 -14 -7 -14 19 0 16 9 19 8 16 -3 -3 -7 -15
-14 -27 -16 -12 -2 -25 -10 -28 -18 -9 -24 2 -26 27 -4 13 11 30 20 39 20 13
-1 12 -4 -4 -16 -19 -15 -19 -15 8 -9 37 10 34 -3 -4 -17 -26 -9 -29 -13 -17
-25 11 -11 21 -11 42 -3 51 19 97 -35 56 -67 -13 -10 -13 -14 3 -31 18 -20 71
-23 98 -6 7 4 9 3 6 -3 -4 -6 0 -14 9 -17 8 -3 12 -10 9 -16 -4 -7 -13 -6 -27
1 -21 11 -49 -3 -34 -18 4 -4 11 -1 15 6 7 11 11 9 20 -8 14 -25 29 -27 46 -5
11 15 14 15 38 -1 15 -9 27 -24 27 -32 0 -8 4 -12 10 -8 5 3 20 -5 32 -17 13
-13 29 -22 35 -20 19 4 16 -5 -14 -44 -14 -19 -32 -33 -39 -30 -7 3 -14 0 -16
-5 -2 -5 -12 -3 -23 5 -16 13 -17 17 -6 25 7 5 21 7 30 4 10 -2 23 3 31 12 15
18 5 34 -11 18 -16 -16 -51 -3 -46 16 3 12 -3 17 -17 19 -19 1 -22 -3 -18 -36
6 -64 18 -79 68 -80 34 -2 46 2 56 18 7 11 20 20 28 20 33 -1 -45 -50 -80 -50
-30 -1 -32 -2 -17 -11 25 -14 70 5 102 43 36 43 41 72 16 106 -16 23 -26 28
-53 26 -30 -3 -31 -3 -8 5 22 8 19 9 -19 10 -43 1 -46 3 -283 239 -132 130
-241 239 -244 241 -2 2 -4 2 -5 0z m317 -348 c-3 -4 6 -13 19 -19 17 -8 23
-16 18 -28 -5 -13 -3 -15 7 -9 9 5 11 4 6 -3 -5 -8 -13 -9 -25 -2 -12 6 -22 5
-29 -2 -19 -19 -14 3 6 26 17 20 17 20 -10 3 -16 -10 -28 -13 -28 -8 0 5 7 11
15 15 8 3 15 9 14 13 -2 13 1 23 7 23 3 0 3 -4 0 -9z"/>
<path d="M63 593 c-17 -6 -16 -33 1 -33 7 0 16 9 19 20 5 20 2 22 -20 13z"/>
<path d="M90 540 c0 -11 4 -20 10 -20 5 0 14 9 20 20 9 17 8 20 -10 20 -13 0
-20 -7 -20 -20z"/>
</g>
</svg>
