<?xml version="1.0" standalone="no"?>
<!DOCTYPE svg PUBLIC "-//W3C//DTD SVG 20010904//EN"
 "http://www.w3.org/TR/2001/REC-SVG-20010904/DTD/svg10.dtd">
<svg version="1.0" xmlns="http://www.w3.org/2000/svg"
 width="72.000000pt" height="72.000000pt" viewBox="0 0 72.000000 72.000000"
 preserveAspectRatio="xMidYMid meet">
<metadata>
Created by potrace 1.10, written by Peter Selinger 2001-2011
</metadata>
<g transform="translate(0.000000,72.000000) scale(0.100000,-0.100000)"
fill="#000000" stroke="none">
<path d="M126 670 c-17 -23 -39 -40 -53 -42 -14 -2 -32 -15 -41 -30 -14 -23
-14 -30 -2 -55 7 -15 14 -32 14 -38 1 -5 10 -11 20 -13 14 -3 17 0 13 11 -4
11 -1 14 9 10 10 -4 12 -9 4 -18 -7 -9 -5 -16 7 -26 13 -11 17 -11 20 -1 3 6
9 12 15 12 6 0 7 -7 4 -16 -9 -23 137 -167 153 -151 8 8 16 6 29 -6 21 -20 32
-22 32 -6 0 5 -4 7 -10 4 -5 -3 -10 -2 -10 4 0 17 14 20 27 5 8 -8 9 -15 3
-19 -6 -3 -10 -13 -10 -22 0 -9 3 -13 7 -10 3 4 15 -1 25 -10 19 -17 20 -16
40 7 11 14 16 19 12 11 -5 -9 -3 -12 4 -7 8 5 10 1 5 -10 -5 -14 -2 -16 16
-11 13 3 20 3 17 0 -3 -4 -1 -12 5 -19 7 -9 4 -17 -13 -28 l-22 -16 21 0 c35
0 47 33 23 62 -11 12 -19 19 -20 13 0 -5 -7 1 -16 13 -8 12 -19 20 -24 17 -5
-3 -14 4 -20 15 -6 11 -15 18 -20 15 -5 -3 -21 12 -36 35 -27 41 -41 52 -30
25 7 -20 -14 -9 -74 39 -41 32 -46 34 -57 19 -7 -9 -16 -13 -20 -8 -5 4 -2 10
5 12 6 3 12 10 12 16 0 13 -118 97 -136 97 -7 0 -14 7 -18 15 -7 19 31 58 49
51 13 -5 85 68 85 86 0 17 -16 6 -44 -32z m204 -340 c0 -10 -56 -7 -67 3 -4 5
0 5 9 2 9 -4 18 0 22 11 5 13 9 14 21 4 8 -7 15 -16 15 -20z"/>
<path d="M416 242 c-10 -17 31 -45 50 -34 11 6 13 11 5 16 -6 4 -11 2 -11 -3
0 -6 -5 -11 -11 -11 -5 0 -8 4 -5 9 3 5 -1 14 -8 20 -8 7 -17 8 -20 3z"/>
<path d="M511 202 c-15 -28 -8 -53 20 -70 12 -8 18 -9 15 -4 -3 5 1 16 10 23
13 11 14 9 9 -14 -8 -29 9 -38 19 -11 4 9 9 14 13 11 3 -4 0 -13 -7 -21 -10
-13 -8 -20 9 -42 12 -15 21 -33 21 -40 0 -24 14 -15 48 30 38 51 39 56 9 56
-27 0 -142 71 -149 92 -3 9 -9 6 -17 -10z"/>
</g>
</svg>
