<?xml version="1.0" standalone="no"?>
<!DOCTYPE svg PUBLIC "-//W3C//DTD SVG 20010904//EN"
 "http://www.w3.org/TR/2001/REC-SVG-20010904/DTD/svg10.dtd">
<svg version="1.0" xmlns="http://www.w3.org/2000/svg"
 width="72.000000pt" height="72.000000pt" viewBox="0 0 72.000000 72.000000"
 preserveAspectRatio="xMidYMid meet">
<metadata>
Created by potrace 1.10, written by Peter Selinger 2001-2011
</metadata>
<g transform="translate(0.000000,72.000000) scale(0.100000,-0.100000)"
fill="#000000" stroke="none">
<path d="M39 681 l-29 -29 0 -281 c0 -180 4 -289 11 -304 24 -54 43 -57 344
-57 l277 0 34 34 34 34 0 287 0 287 -29 29 -29 29 -292 0 -292 0 -29 -29z
m561 7 c0 -5 9 -8 19 -8 29 0 62 -47 59 -84 -1 -18 1 -36 4 -42 4 -5 3 -16 -2
-24 -5 -8 -5 -21 1 -31 6 -13 5 -22 -4 -31 -12 -10 -12 -15 -1 -26 10 -9 11
-19 4 -31 -5 -10 -7 -21 -4 -24 3 -3 5 -69 5 -148 0 -125 -2 -146 -19 -168
l-19 -26 -207 -3 -206 -2 0 25 0 25 194 0 c110 0 197 4 201 9 3 5 8 114 11
241 3 127 7 239 9 250 4 21 -44 67 -54 53 -6 -9 -91 -11 -91 -3 0 3 -88 4
-196 3 -137 -1 -200 -5 -210 -14 -13 -10 -14 -49 -9 -267 3 -141 8 -259 11
-264 3 -4 16 -8 28 -8 19 0 22 -4 18 -25 -6 -33 -44 -33 -77 0 -24 23 -25 30
-26 147 0 68 -2 145 -4 171 -2 32 2 52 12 62 13 13 13 15 -1 15 -18 0 -20 13
-6 40 6 12 7 21 0 25 -6 3 -6 15 0 30 5 14 6 27 0 30 -13 8 7 59 32 82 18 16
38 18 214 16 106 -1 196 1 198 5 6 10 116 9 116 0z m5 -78 c11 -9 15 -33 15
-81 0 -65 -2 -70 -25 -79 -14 -5 -33 -7 -42 -4 -16 5 -16 4 0 -6 10 -7 27 -10
38 -7 16 4 19 0 19 -25 0 -22 -4 -29 -15 -25 -8 4 -17 2 -20 -3 -4 -6 3 -10
13 -10 18 0 20 -8 21 -110 1 -105 0 -110 -20 -110 -11 0 -18 -4 -14 -10 3 -5
12 -7 20 -3 9 3 15 -1 15 -9 0 -12 -42 -14 -252 -13 -164 0 -252 4 -250 10 1
6 15 10 31 10 17 0 33 4 37 8 7 7 -24 11 -58 8 -10 -1 -18 3 -18 8 0 8 81 11
252 11 138 0 248 3 244 7 -4 4 -116 8 -248 8 l-241 0 -2 43 -2 42 166 0 c205
-2 206 -2 197 7 -3 4 -86 7 -183 7 l-176 1 -4 156 c-4 167 -2 174 47 181 14 1
119 2 233 1 145 -1 212 -5 222 -13z m-385 -556 c0 -21 -5 -24 -35 -24 -30 0
-35 3 -35 24 0 18 6 26 23 28 34 6 47 -2 47 -28z"/>
<path d="M385 542 c8 -8 94 -11 99 -4 2 4 -20 7 -50 8 -30 1 -52 -1 -49 -4z"/>
<path d="M190 408 c0 -5 9 -8 21 -8 11 0 18 -4 14 -9 -3 -5 -26 -8 -50 -7 -29
1 -44 -2 -42 -8 2 -6 14 -11 27 -11 13 0 25 -6 28 -14 3 -10 0 -11 -9 -5 -20
12 -48 12 -58 0 -7 -8 60 -11 234 -11 193 0 241 3 238 13 -3 7 -10 9 -17 5
-10 -8 -55 -9 -81 -3 -25 6 -41 5 -52 -4 -9 -5 -13 -4 -13 4 0 8 -4 9 -12 4
-18 -13 -51 -11 -55 2 -2 6 7 11 19 11 107 -1 178 4 178 14 0 6 -7 9 -15 6 -8
-4 -17 -2 -20 3 -4 6 3 10 14 10 12 0 21 4 21 9 0 4 -25 8 -55 7 -30 -1 -55
-4 -55 -7 0 -12 -45 -21 -120 -24 -92 -4 -99 -6 -36 -14 29 -4 51 -12 54 -20
3 -9 0 -11 -9 -5 -17 10 -48 13 -54 5 -7 -12 -79 -5 -83 7 -2 7 0 12 5 11 21
-4 33 2 33 16 0 8 7 15 15 15 8 0 15 4 15 9 0 5 -18 8 -40 7 -22 0 -40 -4 -40
-8z"/>
<path d="M480 278 c0 -5 28 -8 62 -8 34 0 58 3 54 7 -9 10 -116 10 -116 1z"/>
<path d="M160 248 c0 -11 26 -13 135 -13 74 0 135 3 135 7 0 3 -20 5 -46 4
-25 -1 -47 1 -49 4 -4 6 -40 6 -55 0 -17 -7 -97 -4 -107 3 -9 6 -13 5 -13 -5z"/>
<path d="M480 248 c0 -10 14 -14 55 -14 30 1 55 4 55 8 0 4 -12 6 -27 4 -16
-1 -34 2 -40 7 -9 6 -13 5 -13 -3 0 -10 -3 -10 -15 0 -12 10 -15 10 -15 -2z"/>
<path d="M270 150 c-31 -7 -16 -16 27 -15 18 0 32 5 30 10 -3 11 -24 13 -57 5z"/>
<path d="M432 152 c-12 -2 -20 -7 -18 -11 5 -8 105 -5 113 3 6 5 -67 12 -95 8z"/>
</g>
</svg>
