<?xml version="1.0" standalone="no"?>
<!DOCTYPE svg PUBLIC "-//W3C//DTD SVG 20010904//EN"
 "http://www.w3.org/TR/2001/REC-SVG-20010904/DTD/svg10.dtd">
<svg version="1.0" xmlns="http://www.w3.org/2000/svg"
 width="72.000000pt" height="72.000000pt" viewBox="0 0 72.000000 72.000000"
 preserveAspectRatio="xMidYMid meet">
<metadata>
Created by potrace 1.10, written by Peter Selinger 2001-2011
</metadata>
<g transform="translate(0.000000,72.000000) scale(0.100000,-0.100000)"
fill="#000000" stroke="none">
<path d="M20 684 c-16 -17 10 -48 200 -239 28 -28 50 -57 50 -65 0 -9 9 -21
20 -28 25 -15 27 -4 3 14 -17 13 -17 14 2 7 11 -4 34 -22 50 -42 51 -59 154
-158 160 -153 3 3 5 -4 5 -16 0 -12 6 -22 14 -22 8 0 23 -10 33 -23 10 -12 29
-30 43 -40 13 -9 21 -17 17 -17 -4 0 1 -9 10 -20 20 -22 43 -27 43 -7 0 7 10
17 23 22 12 6 21 14 21 19 -2 16 -398 405 -406 400 -5 -3 -4 -12 2 -19 8 -10
8 -15 -1 -21 -8 -4 -9 -3 -5 4 4 7 3 12 -3 12 -5 0 -65 56 -132 125 -67 69
-125 125 -129 125 -3 0 -12 -7 -20 -16z m335 -313 c168 -168 305 -308 305
-313 0 -18 -21 -6 -62 35 -24 23 -44 46 -45 52 -1 5 -9 12 -18 15 -9 3 -16 9
-15 13 0 4 -29 37 -65 74 -36 36 -65 62 -65 59 0 -4 -7 -1 -15 8 -8 8 -15 19
-15 25 0 6 -3 11 -7 11 -19 0 -233 222 -233 241 0 7 -3 9 -7 5 -9 -9 -84 65
-77 76 3 5 8 8 10 6 1 -2 140 -140 309 -307z m339 -293 c-7 -11 -50 28 -199
180 -66 68 -135 132 -153 144 -27 16 -31 23 -21 35 11 12 42 -15 195 -168 101
-101 181 -187 178 -191z"/>
</g>
</svg>
