<?xml version="1.0" standalone="no"?>
<!DOCTYPE svg PUBLIC "-//W3C//DTD SVG 20010904//EN"
 "http://www.w3.org/TR/2001/REC-SVG-20010904/DTD/svg10.dtd">
<svg version="1.0" xmlns="http://www.w3.org/2000/svg"
 width="72.000000pt" height="72.000000pt" viewBox="0 0 72.000000 72.000000"
 preserveAspectRatio="xMidYMid meet">
<metadata>
Created by potrace 1.10, written by Peter Selinger 2001-2011
</metadata>
<g transform="translate(0.000000,72.000000) scale(0.100000,-0.100000)"
fill="#000000" stroke="none">
<path d="M90 668 c-27 -62 -55 -207 -42 -220 7 -7 14 -4 21 10 18 35 65 44
160 31 47 -6 97 -18 110 -26 18 -12 25 -12 31 -3 10 16 22 -20 25 -73 l2 -39
-38 38 c-41 40 -56 73 -16 36 26 -25 48 -17 36 13 -7 17 -8 18 -8 2 -1 -15 -4
-16 -23 -5 -13 7 -27 12 -31 13 -4 0 -11 6 -16 13 -6 10 -10 10 -21 -3 -10
-12 -10 -15 4 -15 9 0 17 -7 17 -15 3 -34 5 -40 15 -38 17 3 107 -94 111 -119
3 -18 -14 -6 -71 51 -42 41 -74 77 -71 79 8 8 -25 33 -35 27 -15 -9 -12 -25 6
-25 8 0 13 -3 11 -7 -7 -12 12 -55 21 -49 9 5 119 -101 115 -109 -2 -3 -1 -5
2 -5 3 0 9 0 14 0 5 0 12 9 16 19 4 13 12 17 26 14 26 -7 52 -44 39 -57 -19
-19 -10 -44 25 -75 37 -32 44 -35 85 -31 21 2 23 0 10 -15 -19 -23 -64 -45
-93 -45 -13 0 -36 10 -51 21 -27 21 -27 21 -7 36 19 13 31 50 13 39 -12 -7
-44 33 -36 46 5 7 2 8 -5 3 -14 -8 -91 61 -91 82 0 8 -10 17 -22 22 -24 9 -63
48 -90 89 -13 20 -17 21 -28 7 -10 -12 -10 -15 1 -15 17 0 39 -45 39 -80 0
-36 40 -89 143 -187 93 -89 131 -106 187 -83 33 14 90 73 90 93 -1 7 -8 1 -16
-13 -10 -16 -13 -18 -8 -5 4 11 10 36 14 55 l8 35 2 -30 c2 -20 4 -24 7 -12 7
26 -6 69 -17 62 -5 -3 -7 1 -4 9 3 9 -38 62 -115 146 l-120 133 39 28 c22 16
47 26 59 24 27 -5 33 6 15 29 -14 19 -14 19 -36 -1 -13 -11 -39 -29 -59 -40
-30 -17 -39 -19 -50 -8 -8 7 -48 27 -89 44 -120 50 -154 72 -165 109 -5 17
-13 32 -18 32 -4 0 -17 -19 -27 -42z m134 -77 c45 -21 98 -44 118 -50 46 -15
54 -26 34 -46 -10 -10 -21 -12 -37 -7 -22 9 -22 9 6 16 26 7 28 9 12 18 -10 5
-25 7 -33 4 -10 -4 -12 -2 -8 6 5 8 2 9 -10 5 -9 -4 -15 -3 -11 3 3 5 -3 9
-12 8 -10 0 -46 7 -79 16 -46 12 -68 14 -88 6 -27 -10 -27 -10 -22 26 4 19 11
45 18 57 l11 22 10 -23 c7 -15 40 -37 91 -61z m24 -63 c35 -11 61 -22 59 -24
-3 -3 -44 1 -91 8 -68 9 -91 10 -106 0 -11 -7 -22 -12 -25 -12 -11 0 -4 30 12
45 19 19 52 16 151 -17z m283 -172 c58 -62 65 -73 31 -47 -67 52 -162 151
-162 169 0 18 -5 23 131 -122z m3 -59 c85 -79 106 -104 106 -126 0 -58 -58
-70 -105 -21 -22 23 -26 33 -17 42 17 17 15 43 -3 58 -11 9 -13 16 -5 24 5 5
10 14 10 20 0 5 -3 7 -6 3 -3 -3 -19 10 -36 29 -29 33 -58 45 -58 23 0 -5 4
-8 8 -5 5 3 22 -8 37 -24 16 -17 24 -30 18 -30 -5 0 -18 9 -28 20 -10 11 -21
18 -23 15 -3 -3 5 -17 19 -33 l24 -27 -27 24 c-35 30 -44 57 -26 78 11 15 11
16 -4 10 -18 -6 -24 3 -11 17 11 10 15 7 127 -97z m-229 -47 c-6 -9 -12 -6
-21 11 -20 36 -17 46 7 22 13 -12 18 -26 14 -33z m88 -61 c53 -49 80 -90 59
-89 -4 1 -37 31 -74 68 -58 57 -66 71 -61 92 6 22 8 23 11 5 2 -11 31 -45 65
-76z m-13 -44 c35 -36 62 -65 59 -65 -2 0 -34 29 -69 65 -35 36 -62 65 -59 65
2 0 34 -29 69 -65z"/>
</g>
</svg>
