<?xml version="1.0" standalone="no"?>
<!DOCTYPE svg PUBLIC "-//W3C//DTD SVG 20010904//EN"
 "http://www.w3.org/TR/2001/REC-SVG-20010904/DTD/svg10.dtd">
<svg version="1.0" xmlns="http://www.w3.org/2000/svg"
 width="72.000000pt" height="72.000000pt" viewBox="0 0 72.000000 72.000000"
 preserveAspectRatio="xMidYMid meet">
<metadata>
Created by potrace 1.10, written by Peter Selinger 2001-2011
</metadata>
<g transform="translate(0.000000,72.000000) scale(0.100000,-0.100000)"
fill="#000000" stroke="none">
<path d="M140 685 c-13 -14 -33 -25 -45 -25 -64 0 -99 -92 -47 -126 14 -9 43
-35 64 -58 36 -38 40 -40 52 -23 14 18 36 23 36 8 0 -5 -9 -13 -20 -16 -11 -3
-20 -9 -20 -13 0 -4 9 -13 20 -20 11 -7 20 -19 20 -27 0 -18 34 -37 53 -29 8
3 27 -10 45 -31 18 -19 33 -35 34 -35 12 4 36 -15 31 -24 -3 -6 -3 -8 1 -4 5
4 17 -2 29 -13 22 -20 37 -25 37 -10 0 14 -26 32 -35 23 -5 -4 -5 -1 -1 6 4 6
3 12 -3 12 -6 0 -22 11 -36 26 -14 14 -30 22 -35 19 -6 -3 -7 1 -4 9 9 23 5
25 76 -34 22 -18 42 -28 49 -24 7 4 9 3 5 -4 -7 -11 50 -59 65 -54 5 1 4 -7
-3 -18 -7 -11 -16 -20 -21 -20 -4 0 -5 5 -2 10 11 17 -5 32 -21 19 -10 -8 -14
-8 -14 0 0 6 5 11 12 11 9 0 9 3 0 12 -8 8 -15 8 -27 -2 -15 -12 -15 -14 0
-22 8 -5 12 -14 9 -20 -5 -7 -2 -8 5 -4 7 5 21 0 32 -10 18 -16 20 -16 41 2
20 18 21 18 15 1 -4 -10 -7 -21 -7 -23 0 -2 -6 -4 -13 -4 -7 0 17 -32 53 -71
70 -75 81 -78 114 -32 25 34 15 49 -62 93 -33 19 -71 48 -83 63 -12 15 -23 26
-25 25 -4 -5 -106 85 -181 159 -29 29 -55 48 -58 42 -4 -5 -28 9 -55 31 -44
37 -50 39 -59 23 -5 -10 -13 -15 -17 -11 -4 4 -1 14 6 23 10 12 6 19 -21 42
-18 16 -41 36 -51 46 -10 9 -21 16 -26 16 -21 -4 -23 3 -7 21 10 11 30 20 44
20 22 0 91 50 91 66 0 11 -19 2 -40 -21z m-22 -155 c13 -11 21 -24 17 -30 -9
-15 -26 -12 -23 4 2 8 -6 22 -17 30 -11 9 -15 15 -10 15 6 0 20 -8 33 -19z
m135 -112 c23 -18 44 -34 46 -36 3 -1 -1 -8 -8 -15 -11 -9 -14 -9 -18 1 -4 9
-9 10 -17 3 -9 -8 -18 -6 -32 5 -18 14 -18 15 4 4 19 -9 22 -8 22 9 0 20 -32
37 -49 27 -5 -3 -7 3 -4 14 3 11 7 20 10 20 2 0 23 -15 46 -32z m320 -295
c-24 -18 -37 -4 -17 18 13 15 19 17 26 7 4 -8 1 -18 -9 -25z m86 -14 c32 -19
33 -21 16 -40 -25 -27 -30 -25 -53 21 -22 45 -14 50 37 19z"/>
</g>
</svg>
