<?xml version="1.0" standalone="no"?>
<!DOCTYPE svg PUBLIC "-//W3C//DTD SVG 20010904//EN"
 "http://www.w3.org/TR/2001/REC-SVG-20010904/DTD/svg10.dtd">
<svg version="1.0" xmlns="http://www.w3.org/2000/svg"
 width="72.000000pt" height="72.000000pt" viewBox="0 0 72.000000 72.000000"
 preserveAspectRatio="xMidYMid meet">
<metadata>
Created by potrace 1.10, written by Peter Selinger 2001-2011
</metadata>
<g transform="translate(0.000000,72.000000) scale(0.100000,-0.100000)"
fill="#000000" stroke="none">
<path d="M600 489 l0 -151 -22 5 c-12 4 -54 0 -93 -8 -38 -8 -99 -19 -135 -25
-120 -20 -117 -19 -113 -43 4 -20 -3 -24 -88 -44 -139 -34 -168 -62 -114 -113
18 -17 40 -25 80 -28 69 -6 108 10 126 50 8 18 25 40 39 50 25 18 26 18 77 -6
l51 -25 151 52 151 52 0 31 c0 30 -3 32 -45 38 l-45 7 0 155 c0 96 -4 154 -10
154 -6 0 -10 -57 -10 -151z m-31 -163 c-2 -2 -31 -6 -64 -9 -37 -3 -51 -2 -35
3 25 8 107 13 99 6z m61 -27 c0 -6 -6 -9 -13 -6 -7 3 -13 -3 -13 -14 0 -17 2
-17 18 -2 16 14 19 14 35 -3 17 -17 17 -17 -9 -11 -17 5 -28 3 -32 -6 -3 -9
-9 -7 -19 6 -13 15 -16 15 -27 2 -9 -10 -9 -15 -1 -15 6 0 11 -5 11 -10 0 -17
-33 5 -36 24 -1 9 5 16 14 16 8 0 13 2 10 5 -3 4 -18 3 -34 -1 -24 -6 -25 -8
-10 -14 10 -3 -5 -6 -33 -6 -28 0 -51 3 -51 7 0 7 123 37 163 38 15 1 27 -4
27 -10z m-208 -42 c-3 -16 2 -17 32 -11 29 5 36 3 36 -10 0 -9 1 -19 2 -23 2
-5 -13 -15 -32 -25 l-35 -16 -11 31 c-9 26 -18 33 -60 44 -27 7 -49 12 -49 11
0 -1 -8 3 -18 8 -13 8 3 10 60 10 69 -1 78 -3 75 -19z m-144 -45 c9 -6 5 -12
-13 -20 -14 -7 -32 -27 -40 -46 -17 -39 -30 -46 -91 -46 -57 0 -103 23 -104
52 0 12 41 30 110 49 72 19 119 23 138 11z"/>
</g>
</svg>
