<?xml version="1.0" standalone="no"?>
<!DOCTYPE svg PUBLIC "-//W3C//DTD SVG 20010904//EN"
 "http://www.w3.org/TR/2001/REC-SVG-20010904/DTD/svg10.dtd">
<svg version="1.0" xmlns="http://www.w3.org/2000/svg"
 width="72.000000pt" height="72.000000pt" viewBox="0 0 72.000000 72.000000"
 preserveAspectRatio="xMidYMid meet">
<metadata>
Created by potrace 1.10, written by Peter Selinger 2001-2011
</metadata>
<g transform="translate(0.000000,72.000000) scale(0.100000,-0.100000)"
fill="#000000" stroke="none">
<path d="M164 651 c-136 -7 -154 -15 -154 -67 0 -26 12 -46 56 -96 l56 -63
-29 -12 c-16 -7 -21 -12 -11 -13 9 0 25 -3 35 -6 15 -5 15 -4 3 4 -17 12 -29
7 170 77 74 27 149 54 165 62 l30 14 -30 -6 c-16 -4 -70 -22 -119 -40 l-90
-34 -48 41 c-27 22 -51 38 -54 36 -8 -8 37 -59 60 -67 19 -8 19 -9 -11 -25
-18 -9 -38 -16 -46 -16 -14 0 -116 102 -118 117 0 4 -2 16 -4 25 -2 9 3 25 10
35 12 16 34 19 167 24 84 3 226 4 316 1 136 -4 164 -8 171 -21 19 -35 -7 -61
-106 -108 -54 -25 -158 -74 -231 -109 -74 -35 -137 -64 -142 -64 -4 0 -13 -7
-20 -15 -10 -13 -15 -10 -34 18 -28 41 -67 55 -100 38 -27 -15 -25 -32 6 -67
13 -14 28 -20 51 -17 29 2 30 2 7 -6 -25 -9 -25 -9 5 -10 17 -1 46 8 66 18
l36 19 124 -124 c137 -137 153 -145 209 -98 23 20 30 34 28 53 -2 21 -9 27
-36 29 -27 3 -39 -3 -65 -31 l-33 -34 -72 81 c-40 45 -86 90 -102 101 -17 11
-30 23 -30 26 0 3 22 16 48 28 l49 23 100 -84 c88 -72 98 -84 79 -90 -17 -5
-14 -6 12 -7 17 -1 32 1 32 3 0 3 -42 39 -92 82 -51 43 -99 83 -107 90 -13 12
10 25 145 90 87 41 167 83 177 91 34 31 12 103 -31 103 -9 0 -98 2 -197 3 -99
2 -234 1 -301 -2z"/>
<path d="M590 608 c-27 -12 -442 -14 -497 -2 -27 5 -33 3 -33 -10 0 -10 11
-29 25 -44 13 -15 37 -41 52 -57 15 -17 21 -22 12 -10 -33 40 -52 94 -29 80
16 -10 383 -6 420 4 32 9 33 9 16 -4 -27 -20 -13 -19 32 4 20 10 43 16 51 13
21 -7 34 22 13 30 -23 9 -33 8 -62 -4z"/>
<path d="M460 520 c-36 -15 -97 -40 -137 -54 -69 -26 -160 -82 -150 -92 3 -3
36 11 74 30 37 20 116 58 176 85 59 27 107 52 107 55 0 3 -1 6 -2 5 -2 -1 -32
-13 -68 -29z"/>
<path d="M397 233 c26 -27 50 -47 52 -46 12 7 -40 69 -67 80 -32 13 -31 12 15
-34z"/>
</g>
</svg>
