<?xml version="1.0" standalone="no"?>
<!DOCTYPE svg PUBLIC "-//W3C//DTD SVG 20010904//EN"
 "http://www.w3.org/TR/2001/REC-SVG-20010904/DTD/svg10.dtd">
<svg version="1.0" xmlns="http://www.w3.org/2000/svg"
 width="72.000000pt" height="72.000000pt" viewBox="0 0 72.000000 72.000000"
 preserveAspectRatio="xMidYMid meet">
<metadata>
Created by potrace 1.10, written by Peter Selinger 2001-2011
</metadata>
<g transform="translate(0.000000,72.000000) scale(0.100000,-0.100000)"
fill="#000000" stroke="none">
<path d="M37 682 c-16 -18 -16 -20 3 -37 11 -10 20 -23 20 -29 0 -6 132 -143
294 -305 l294 -294 27 28 28 27 -294 294 c-162 162 -298 294 -303 294 -5 0
-19 9 -31 20 -21 20 -22 20 -38 2z m62 -42 c23 0 24 -1 6 -14 -12 -8 -16 -19
-11 -31 6 -16 8 -17 24 -1 23 20 28 20 36 0 4 -10 2 -13 -7 -8 -6 4 11 -17 38
-46 93 -98 106 -109 123 -103 14 5 14 3 -2 -15 -17 -19 -17 -22 -3 -22 10 0
17 5 17 11 0 5 5 7 10 4 6 -4 8 -10 5 -15 -8 -12 46 -72 60 -66 6 2 18 0 26
-5 11 -7 11 -9 -3 -9 -10 0 -18 -7 -18 -15 0 -13 4 -14 23 -4 12 6 19 8 15 4
-11 -12 11 -35 28 -28 8 3 14 0 14 -6 0 -6 -4 -11 -10 -11 -5 0 -10 -7 -10
-15 0 -20 16 -19 30 3 9 14 11 14 7 1 -6 -20 51 -79 76 -79 16 0 41 -33 32
-42 -3 -2 9 -17 25 -33 30 -29 39 -55 20 -55 -17 0 -569 551 -585 584 -18 35
-19 44 -3 28 7 -7 23 -12 37 -12z"/>
</g>
</svg>
