<?xml version="1.0" standalone="no"?>
<!DOCTYPE svg PUBLIC "-//W3C//DTD SVG 20010904//EN"
 "http://www.w3.org/TR/2001/REC-SVG-20010904/DTD/svg10.dtd">
<svg version="1.0" xmlns="http://www.w3.org/2000/svg"
 width="72.000000pt" height="72.000000pt" viewBox="0 0 72.000000 72.000000"
 preserveAspectRatio="xMidYMid meet">
<metadata>
Created by potrace 1.10, written by Peter Selinger 2001-2011
</metadata>
<g transform="translate(0.000000,72.000000) scale(0.100000,-0.100000)"
fill="#000000" stroke="none">
<path d="M102 698 c-9 -12 21 -47 163 -189 142 -141 176 -180 178 -204 2 -27
0 -30 -28 -28 -23 2 -64 37 -205 178 -142 142 -179 174 -188 163 -9 -11 29
-55 189 -214 l199 -199 55 0 c43 0 54 -3 50 -14 -3 -9 28 -47 80 -100 76 -76
87 -84 101 -70 13 14 5 25 -81 109 -89 88 -95 96 -95 134 0 39 -7 47 -203 244
-166 167 -205 201 -215 190z m178 -185 l75 -78 -77 75 c-43 41 -78 76 -78 77
0 8 11 -3 80 -74z m-50 -100 l75 -78 -77 75 c-72 69 -83 80 -75 80 1 0 36 -35
77 -77z m270 -124 c0 -47 -16 -69 -50 -69 -38 0 -38 15 0 48 17 15 30 35 30
45 0 10 5 15 10 12 6 -3 10 -20 10 -36z m100 -176 c41 -42 57 -62 35 -43 -38
31 -121 120 -113 120 2 0 37 -35 78 -77z"/>
</g>
</svg>
