<?xml version="1.0" standalone="no"?>
<!DOCTYPE svg PUBLIC "-//W3C//DTD SVG 20010904//EN"
 "http://www.w3.org/TR/2001/REC-SVG-20010904/DTD/svg10.dtd">
<svg version="1.0" xmlns="http://www.w3.org/2000/svg"
 width="72.000000pt" height="72.000000pt" viewBox="0 0 72.000000 72.000000"
 preserveAspectRatio="xMidYMid meet">
<metadata>
Created by potrace 1.10, written by Peter Selinger 2001-2011
</metadata>
<g transform="translate(0.000000,72.000000) scale(0.100000,-0.100000)"
fill="#000000" stroke="none">
<path d="M273 695 c-37 -16 -42 -39 -13 -57 16 -11 20 -23 20 -73 0 -74 -22
-124 -83 -193 -28 -32 -49 -65 -53 -88 -14 -77 17 -189 63 -224 17 -14 17 -14
2 5 -30 38 -32 50 -3 23 16 -15 43 -34 59 -42 33 -18 17 -22 -18 -5 -21 10
-21 9 -3 -5 24 -20 96 -30 153 -22 102 14 167 81 180 184 8 74 -3 115 -46 163
-61 70 -91 138 -91 207 0 41 5 64 15 72 59 49 -91 95 -182 55z m120 -2 c-23
-9 -14 -24 11 -17 27 7 46 -13 25 -27 -8 -5 -39 -8 -69 -7 -42 2 -56 7 -58 20
-2 12 2 15 17 11 12 -3 29 -2 38 2 15 7 13 9 -12 15 -27 7 -25 8 15 8 25 0 39
-2 33 -5z m34 -151 c-2 -40 -1 -68 3 -62 4 6 15 -7 25 -30 10 -23 34 -56 52
-74 35 -34 43 -53 50 -126 4 -35 -1 -55 -22 -92 -73 -131 -191 -150 -297 -48
-27 26 -48 51 -48 56 0 6 42 10 103 10 60 0 110 5 122 12 16 9 1 11 -82 12
-100 0 -183 19 -183 41 0 18 54 94 100 141 l48 48 53 -50 c75 -71 77 -62 3 18
-53 56 -62 71 -56 92 8 30 7 55 -2 95 l-8 30 72 0 71 0 -4 -73z"/>
<path d="M464 275 c-31 -47 12 -127 50 -96 9 8 16 27 16 43 0 17 4 27 10 23
15 -9 12 8 -6 33 -20 29 -50 28 -70 -3z"/>
</g>
</svg>
