<?xml version="1.0" standalone="no"?>
<!DOCTYPE svg PUBLIC "-//W3C//DTD SVG 20010904//EN"
 "http://www.w3.org/TR/2001/REC-SVG-20010904/DTD/svg10.dtd">
<svg version="1.0" xmlns="http://www.w3.org/2000/svg"
 width="72.000000pt" height="72.000000pt" viewBox="0 0 72.000000 72.000000"
 preserveAspectRatio="xMidYMid meet">
<metadata>
Created by potrace 1.10, written by Peter Selinger 2001-2011
</metadata>
<g transform="translate(0.000000,72.000000) scale(0.100000,-0.100000)"
fill="#000000" stroke="none">
<path d="M410 649 c-19 -5 -52 -11 -73 -14 -21 -3 -35 -10 -32 -15 3 -4 -3 -6
-13 -3 -11 2 -25 -2 -33 -9 -8 -8 -66 -30 -129 -51 l-115 -36 0 -131 1 -131
35 -32 c36 -34 152 -133 181 -155 14 -12 22 -11 48 4 18 11 30 27 30 39 0 16
16 29 65 53 36 17 65 37 65 44 0 6 3 8 7 5 3 -4 12 1 20 11 8 9 11 11 8 4 -5
-10 1 -9 24 2 17 9 31 21 31 27 0 6 4 8 9 4 5 -3 33 8 61 25 58 34 60 35 60
18 0 -7 -77 -55 -171 -107 -94 -51 -168 -95 -166 -97 3 -3 90 42 193 99 201
111 216 126 177 169 -10 11 -37 31 -60 45 l-43 25 0 93 0 94 -37 11 c-59 16
-105 19 -143 9z m83 -8 c14 -5 6 -10 -29 -19 -32 -9 -51 -9 -57 -3 -19 19 49
37 86 22z m-103 -35 c0 -14 -100 -66 -176 -90 -59 -19 -99 -23 -134 -13 -14 5
-3 -3 23 -17 l49 -24 51 23 c114 50 327 125 354 124 28 -1 28 -1 3 -8 -14 -4
-27 -15 -28 -25 -3 -13 0 -17 11 -13 8 3 18 3 21 0 8 -9 -24 -43 -40 -43 -9 0
-14 -18 -16 -57 -2 -36 -8 -57 -16 -59 -7 -1 -8 0 -2 3 5 2 10 16 10 31 0 25
-1 25 -15 6 -14 -18 -15 -16 -9 19 4 26 3 37 -6 37 -9 0 -11 -13 -8 -45 3 -27
1 -51 -7 -61 -6 -9 -79 -49 -161 -89 l-149 -73 -3 112 -3 113 -49 22 c-62 28
-55 36 59 73 60 19 89 24 102 18 26 -15 59 -12 59 4 0 9 -7 12 -19 9 -10 -3
-22 1 -27 8 -5 8 -3 11 7 7 21 -8 111 16 102 27 -4 4 -2 5 5 1 6 -4 12 -13 12
-20z m171 -103 c-5 -11 -5 -26 0 -42 10 -24 -2 -42 -26 -40 -5 0 -5 3 1 5 7 3
9 18 4 44 -8 42 -5 50 17 50 10 0 11 -5 4 -17z m-467 -43 c25 -9 26 -12 26
-100 0 -49 -4 -90 -9 -90 -5 0 -21 14 -35 31 -23 26 -26 40 -26 100 0 72 2 75
44 59z m548 -66 l51 -26 -119 -62 c-65 -35 -161 -86 -212 -115 -51 -28 -98
-48 -104 -45 -7 4 -8 2 -4 -5 4 -6 17 -9 29 -6 21 5 21 4 -1 -7 -20 -10 -27
-7 -67 32 -25 24 -45 50 -45 57 0 18 7 16 44 -12 36 -27 46 -30 46 -15 0 5
-11 12 -24 16 -14 3 -27 12 -30 20 -7 17 6 18 23 2 10 -11 11 -10 6 4 -9 23
30 44 51 27 12 -10 13 -9 8 6 -8 20 -2 18 49 -17 15 -11 27 -14 27 -8 0 6 -11
15 -24 20 -29 10 -40 26 -26 35 5 3 27 -7 47 -22 29 -22 35 -24 30 -10 -6 15
-3 17 14 12 15 -5 19 -4 15 4 -4 6 -14 11 -22 11 -9 0 -12 5 -8 12 4 7 3 8 -4
4 -7 -4 -12 -1 -12 8 0 22 6 20 45 -10 32 -24 36 -25 51 -10 8 9 20 14 25 11
5 -4 9 -2 9 4 0 5 -5 13 -10 16 -6 4 -8 10 -5 15 3 5 0 12 -6 16 -7 4 -9 3 -5
-4 10 -17 -10 -23 -24 -7 -12 15 -4 19 38 18 6 -1 12 6 12 13 0 10 8 13 30 9
25 -4 28 -3 23 12 -6 16 -5 16 10 4 15 -12 17 -12 11 3 -8 21 -2 20 58 -10z
m-175 -68 c4 -3 2 -10 -3 -15 -11 -10 -54 4 -54 18 0 10 46 8 57 -3z m-317
-145 c0 -21 -19 -11 -71 37 -41 38 -51 53 -45 68 6 17 14 12 62 -38 30 -31 54
-61 54 -67z"/>
<path d="M487 573 c-4 -3 -7 -15 -7 -26 0 -16 3 -17 15 -7 8 7 15 19 15 26 0
15 -12 19 -23 7z"/>
<path d="M427 553 c-4 -3 -7 -17 -7 -31 0 -21 2 -22 15 -12 8 7 15 21 15 31 0
19 -11 25 -23 12z"/>
<path d="M357 523 c-12 -12 -7 -43 7 -43 13 0 26 20 26 41 0 10 -23 12 -33 2z"/>
<path d="M192 458 c-13 -13 -16 -41 -6 -51 14 -13 34 7 34 34 0 31 -9 36 -28
17z"/>
<path d="M360 428 c0 -8 -13 -21 -29 -28 -18 -7 -28 -17 -25 -25 3 -7 -4 -18
-15 -24 -29 -16 -31 -14 -31 18 0 20 8 35 22 45 12 9 18 16 12 16 -14 0 -45
-34 -48 -52 -1 -7 -5 -18 -9 -25 -5 -7 4 -14 25 -18 28 -7 36 -4 60 26 26 31
28 32 28 10 0 -35 25 -19 28 19 2 18 -1 37 -7 43 -8 8 -11 6 -11 -5z"/>
<path d="M433 424 c-16 -16 -17 -44 -3 -44 13 0 23 24 18 43 -2 13 -5 13 -15
1z"/>
<path d="M203 388 c-7 -8 -16 -36 -19 -62 -6 -39 -4 -46 10 -46 22 0 28 18 24
75 -2 40 -5 46 -15 33z"/>
<path d="M580 379 c-20 -8 -22 -12 -10 -19 21 -13 33 -12 24 2 -4 6 -3 8 4 5
14 -9 43 3 36 14 -7 11 -22 11 -54 -2z"/>
<path d="M304 239 c-7 -11 4 -29 17 -29 6 0 7 5 3 12 -5 8 -2 9 9 5 10 -3 17
-3 17 2 0 12 -39 21 -46 10z"/>
</g>
</svg>
