<?xml version="1.0" standalone="no"?>
<!DOCTYPE svg PUBLIC "-//W3C//DTD SVG 20010904//EN"
 "http://www.w3.org/TR/2001/REC-SVG-20010904/DTD/svg10.dtd">
<svg version="1.0" xmlns="http://www.w3.org/2000/svg"
 width="72.000000pt" height="72.000000pt" viewBox="0 0 72.000000 72.000000"
 preserveAspectRatio="xMidYMid meet">
<metadata>
Created by potrace 1.10, written by Peter Selinger 2001-2011
</metadata>
<g transform="translate(0.000000,72.000000) scale(0.100000,-0.100000)"
fill="#000000" stroke="none">
<path d="M178 704 c-14 -13 -9 -54 7 -60 13 -5 15 -48 15 -298 l0 -291 36 -24
c22 -15 38 -21 42 -14 11 16 116 33 124 20 6 -9 10 -8 17 2 10 16 89 32 97 20
15 -25 23 -1 21 69 -1 42 2 92 6 110 8 31 7 34 -22 45 -26 9 -31 17 -31 44 0
22 -6 33 -19 38 -22 7 -61 80 -61 114 0 12 -4 20 -8 17 -4 -2 -6 12 -4 32 3
29 1 34 -8 22 -9 -12 -10 -9 -5 13 3 17 2 26 -4 23 -5 -4 -7 3 -3 16 3 14 1
19 -6 14 -7 -4 -10 -2 -7 6 3 8 -10 29 -30 48 -30 29 -43 34 -92 38 -32 2 -61
0 -65 -4z m114 -31 c35 -39 49 -69 64 -137 17 -84 17 -85 -73 -100 l-32 -5 -3
107 c-3 102 -4 107 -25 110 -25 4 -32 22 -9 22 8 0 16 7 20 15 8 23 29 18 58
-12z m-23 -400 c67 14 211 20 211 9 0 -6 -37 -13 -90 -18 -50 -3 -93 -11 -97
-17 -4 -6 6 -8 28 -4 78 14 199 19 199 9 0 -11 -34 -18 -136 -28 -67 -6 -105
-17 -94 -27 3 -3 32 -1 65 4 149 22 135 23 135 -11 0 -38 -23 -50 -97 -50 -37
0 -67 -6 -81 -16 -34 -23 -26 -35 13 -18 19 7 52 14 74 14 22 0 52 5 66 10 25
9 26 8 23 -16 -2 -22 -11 -29 -48 -41 -25 -7 -55 -12 -67 -10 -13 3 -23 1 -23
-3 0 -3 -13 -5 -30 -2 -19 3 -30 0 -30 -7 0 -7 -4 -9 -10 -6 -5 3 -10 34 -9
68 1 46 3 56 9 37 l8 -25 0 25 c0 14 -3 34 -7 45 -8 19 -8 19 -15 -2 -8 -26
-21 -30 -30 -8 -13 36 -18 151 -10 251 l9 109 3 -139 3 -138 28 5z m164 89
c26 -28 16 -37 -52 -46 -25 -4 -62 -9 -82 -12 l-37 -5 -5 43 c-6 54 17 78 74
78 27 0 42 5 46 16 4 12 9 8 20 -17 8 -19 24 -44 36 -57z m74 -254 c-2 -18 -4
-4 -4 32 0 36 2 50 4 33 2 -18 2 -48 0 -65z m-247 -35 c0 -45 0 -45 -22 -31
-18 12 -23 25 -23 60 -1 45 0 45 22 31 18 -12 23 -25 23 -60z"/>
</g>
</svg>
