<?xml version="1.0" standalone="no"?>
<!DOCTYPE svg PUBLIC "-//W3C//DTD SVG 20010904//EN"
 "http://www.w3.org/TR/2001/REC-SVG-20010904/DTD/svg10.dtd">
<svg version="1.0" xmlns="http://www.w3.org/2000/svg"
 width="72.000000pt" height="72.000000pt" viewBox="0 0 72.000000 72.000000"
 preserveAspectRatio="xMidYMid meet">
<metadata>
Created by potrace 1.10, written by Peter Selinger 2001-2011
</metadata>
<g transform="translate(0.000000,72.000000) scale(0.100000,-0.100000)"
fill="#000000" stroke="none">
<path d="M45 684 c-9 -9 -13 -24 -10 -35 4 -13 2 -19 -9 -19 -16 0 -22 -21
-10 -33 10 -10 34 4 34 20 0 17 22 13 28 -5 2 -7 -3 -12 -11 -12 -8 0 -18 -7
-21 -16 -9 -23 -8 -24 14 -24 11 0 20 6 20 14 0 26 20 28 31 3 7 -17 8 -31 2
-42 -15 -26 55 -100 86 -90 12 3 19 11 15 16 -7 11 23 49 39 49 6 0 2 -9 -8
-20 -9 -10 -15 -26 -12 -34 4 -10 -2 -20 -14 -26 -11 -6 -17 -15 -14 -21 4 -5
11 -6 17 -3 6 4 14 1 18 -7 7 -10 11 -10 23 0 10 7 18 8 21 2 4 -5 2 -12 -4
-16 -13 -8 -13 -25 0 -25 6 0 10 6 10 14 0 8 5 18 12 22 6 4 8 3 5 -3 -4 -6 5
-21 18 -33 24 -23 35 -47 16 -35 -11 6 -26 -13 -17 -22 3 -3 12 -1 19 5 11 9
19 6 37 -13 26 -28 45 -33 37 -10 -4 8 -2 17 4 20 5 4 6 12 2 18 -4 7 10 -1
30 -16 20 -15 42 -25 47 -22 6 3 10 -2 10 -12 0 -23 79 -103 96 -96 25 9 15
-20 -18 -54 -32 -33 -32 -33 -7 -33 13 0 33 7 43 15 12 9 15 15 7 15 -11 0
-11 3 -1 15 7 8 17 15 23 15 8 0 8 -3 0 -11 -6 -6 -9 -17 -6 -25 7 -19 -86
-76 -115 -71 -12 2 -25 1 -27 -3 -10 -16 51 -18 83 -3 74 35 137 150 98 178
-9 7 -16 19 -16 28 0 23 -51 47 -100 47 -57 0 -83 16 -191 115 -86 80 -93 89
-94 126 -2 56 -30 82 -89 81 -25 0 -46 4 -46 9 0 5 7 9 15 9 8 0 15 9 15 20 0
22 -25 18 -34 -6 -3 -9 -10 -12 -16 -9 -15 9 -12 25 5 25 8 0 15 9 15 20 0 24
-25 27 -38 4 -8 -14 -10 -14 -21 0 -17 20 -26 20 -46 0z m175 -109 c17 -9 30
-17 30 -19 0 -3 3 -12 6 -20 5 -12 2 -15 -12 -9 -11 4 -15 3 -11 -4 7 -11 -37
-53 -56 -53 -5 0 -7 9 -4 19 3 11 -3 28 -14 40 -45 48 -2 79 61 46z m66 -114
c-3 -5 1 -14 9 -21 8 -7 15 -10 15 -7 0 2 24 -18 54 -45 32 -29 53 -56 51 -66
-4 -25 -25 -16 -65 28 -27 29 -34 43 -26 51 8 9 8 10 0 6 -15 -8 -56 22 -48
35 5 7 2 8 -5 4 -7 -5 -10 -14 -7 -22 3 -8 -1 -14 -9 -14 -22 0 -18 20 7 41
23 20 33 24 24 10z m358 -254 c6 -9 7 -19 4 -23 -8 -7 -68 33 -68 46 0 14 53
-5 64 -23z"/>
<path d="M189 571 c8 -5 11 -16 7 -26 -5 -13 -2 -16 11 -11 15 6 14 4 -2 -14
-15 -17 -16 -20 -3 -15 9 4 19 13 22 21 6 15 -22 54 -39 54 -5 0 -4 -4 4 -9z"/>
<path d="M434 204 c3 -9 6 -35 6 -58 0 -41 34 -106 48 -91 3 3 -5 17 -19 31
-24 25 -24 26 -4 41 13 9 33 13 57 10 34 -5 58 6 58 26 0 5 -7 4 -15 -3 -13
-11 -21 -8 -45 15 -22 21 -27 31 -18 37 8 4 -5 8 -31 8 -35 0 -42 -3 -37 -16z"/>
</g>
</svg>
