<?xml version="1.0" standalone="no"?>
<!DOCTYPE svg PUBLIC "-//W3C//DTD SVG 20010904//EN"
 "http://www.w3.org/TR/2001/REC-SVG-20010904/DTD/svg10.dtd">
<svg version="1.0" xmlns="http://www.w3.org/2000/svg"
 width="72.000000pt" height="72.000000pt" viewBox="0 0 72.000000 72.000000"
 preserveAspectRatio="xMidYMid meet">
<metadata>
Created by potrace 1.10, written by Peter Selinger 2001-2011
</metadata>
<g transform="translate(0.000000,72.000000) scale(0.100000,-0.100000)"
fill="#000000" stroke="none">
<path d="M53 699 c-9 -9 0 -23 35 -55 26 -24 55 -46 65 -50 18 -6 18 -6 0 -19
-24 -17 -8 -33 17 -17 24 15 26 5 4 -20 -14 -14 -15 -20 -4 -33 12 -14 16 -13
37 6 12 13 23 18 23 12 0 -5 -9 -18 -20 -28 -20 -19 -20 -19 12 -52 l32 -33
20 22 19 21 8 -21 c5 -12 17 -27 28 -33 10 -7 17 -19 14 -26 -3 -7 0 -13 7
-13 19 0 67 -44 62 -58 -2 -7 3 -12 10 -12 15 0 56 -38 57 -52 1 -5 3 -7 5 -5
8 4 56 -47 56 -60 0 -7 5 -13 11 -13 16 0 66 -44 62 -55 -2 -6 7 -15 19 -20
26 -12 62 -61 38 -53 -8 3 -14 11 -12 17 1 7 -2 10 -7 6 -6 -3 -91 76 -190
177 -100 100 -183 180 -185 177 -3 -3 84 -94 192 -202 l198 -198 23 22 22 21
-217 222 c-120 121 -236 239 -258 261 -23 22 -69 71 -104 108 -35 37 -65 67
-66 67 -1 0 -7 -5 -13 -11z m190 -206 c-5 -13 -3 -15 12 -9 18 7 18 6 1 -13
-14 -16 -21 -17 -31 -8 -11 10 -10 15 2 30 20 21 24 22 16 0z"/>
<path d="M10 652 c0 -8 61 -68 115 -112 l30 -25 -25 30 c-72 87 -120 130 -120
107z"/>
</g>
</svg>
