<?xml version="1.0" standalone="no"?>
<!DOCTYPE svg PUBLIC "-//W3C//DTD SVG 20010904//EN"
 "http://www.w3.org/TR/2001/REC-SVG-20010904/DTD/svg10.dtd">
<svg version="1.0" xmlns="http://www.w3.org/2000/svg"
 width="72.000000pt" height="72.000000pt" viewBox="0 0 72.000000 72.000000"
 preserveAspectRatio="xMidYMid meet">
<metadata>
Created by potrace 1.10, written by Peter Selinger 2001-2011
</metadata>
<g transform="translate(0.000000,72.000000) scale(0.100000,-0.100000)"
fill="#000000" stroke="none">
<path d="M36 692 c-12 -11 -6 -52 8 -52 7 0 19 -7 26 -15 10 -12 10 -15 -4
-15 -19 0 -20 -8 -3 -43 13 -29 37 -37 37 -12 0 28 25 13 88 -55 55 -59 62
-71 53 -88 -25 -46 5 -132 45 -132 8 0 17 -7 20 -15 4 -10 14 -13 29 -9 16 4
29 -2 49 -26 28 -34 33 -59 14 -78 -9 -9 -9 -12 0 -12 6 0 18 -15 26 -32 17
-38 50 -78 64 -78 5 0 24 15 42 32 30 32 32 32 45 14 8 -10 12 -23 9 -27 -10
-16 2 -9 33 19 77 69 95 152 44 203 -16 16 -36 29 -45 29 -8 0 -19 7 -24 16
-7 13 -13 14 -29 5 -31 -16 -88 25 -88 62 1 15 -2 27 -6 27 -4 0 -17 15 -28
34 -29 47 -68 62 -113 43 l-34 -14 -93 82 c-51 46 -93 87 -93 91 0 5 6 10 13
13 8 2 10 -2 5 -14 -5 -13 -2 -16 10 -11 8 3 20 6 25 6 20 0 7 26 -18 38 -35
16 -43 15 -43 -2 0 -8 -6 -16 -12 -19 -18 -5 -48 3 -48 14 0 13 14 11 28 -3 9
-9 12 -8 12 4 0 16 -34 31 -44 20z m144 -132 c15 -16 26 -30 23 -30 -2 0 10
-12 28 -27 18 -16 35 -27 38 -26 3 1 11 -3 16 -7 6 -5 17 -5 25 0 8 6 32 10
52 10 28 0 41 -6 57 -27 12 -16 24 -32 28 -38 5 -5 10 -19 11 -30 2 -11 9 -26
14 -32 8 -10 4 -13 -13 -13 -16 0 -49 22 -92 61 -37 33 -64 55 -61 47 10 -23
131 -123 148 -122 12 1 13 -2 5 -17 -14 -27 -23 -24 -56 15 -15 18 -44 46 -63
62 -31 25 -31 23 8 -17 23 -25 39 -48 36 -52 -7 -7 -175 166 -175 180 0 4 -18
25 -40 45 -21 20 -39 39 -39 42 0 15 25 3 50 -24z m126 -191 l43 -42 -22 -18
c-12 -9 -26 -14 -32 -11 -5 4 -14 7 -20 7 -18 0 -38 51 -31 78 3 15 9 27 13
27 4 0 26 -19 49 -41z m141 -128 c-11 -14 -10 -14 5 -3 15 12 20 11 40 -10 13
-13 17 -16 10 -7 -25 33 -2 43 29 13 16 -15 29 -23 29 -18 0 6 -11 21 -25 34
-19 18 -28 20 -38 12 -19 -16 -30 -3 -14 17 10 14 10 14 -5 3 -10 -8 -18 -9
-22 -3 -4 6 1 14 11 20 13 7 24 4 42 -10 26 -21 61 -25 61 -7 0 14 47 -29 62
-56 14 -26 -14 -48 -47 -36 -28 11 -58 7 -63 -8 -2 -6 8 -10 24 -9 16 1 29 -4
32 -13 5 -13 3 -13 -11 -1 -10 7 -17 10 -17 5 0 -5 -23 -10 -51 -12 -42 -3
-51 0 -46 11 3 8 -5 30 -19 48 -18 25 -21 35 -11 41 8 5 7 8 -5 8 -10 0 -18
-6 -18 -14 0 -9 -11 -3 -30 16 -34 34 -39 52 -11 43 11 -3 22 -1 26 5 5 8 19
0 41 -21 28 -27 32 -35 21 -48z m199 -95 c-8 -19 -12 -36 -10 -39 3 -2 -2 -7
-10 -10 -8 -3 -20 1 -26 9 -18 21 -41 17 -92 -15 l-47 -30 -14 22 c-30 48 -28
55 9 47 19 -5 50 -4 69 1 19 6 36 9 37 8 2 -1 19 8 38 20 52 31 63 28 46 -13z"/>
</g>
</svg>
