<?xml version="1.0" standalone="no"?>
<!DOCTYPE svg PUBLIC "-//W3C//DTD SVG 20010904//EN"
 "http://www.w3.org/TR/2001/REC-SVG-20010904/DTD/svg10.dtd">
<svg version="1.0" xmlns="http://www.w3.org/2000/svg"
 width="72.000000pt" height="72.000000pt" viewBox="0 0 72.000000 72.000000"
 preserveAspectRatio="xMidYMid meet">

<g transform="translate(0.000000,72.000000) scale(0.100000,-0.100000)"
fill="#000000" stroke="none">
<path d="M64 673 c22 -42 82 -97 97 -87 9 5 11 2 6 -9 -3 -8 1 -21 9 -27 8 -7
14 -23 14 -36 0 -28 30 -34 31 -6 0 13 2 13 9 -4 5 -12 13 -25 18 -28 6 -3 8
-15 5 -25 -6 -22 14 -38 29 -23 15 15 48 -22 41 -47 -5 -18 -8 -19 -22 -9 -14
12 -14 11 -3 -4 10 -13 19 -15 37 -8 17 6 27 5 35 -5 6 -8 19 -11 27 -8 11 4
14 3 9 -6 -4 -6 -3 -17 3 -24 5 -7 8 -25 7 -40 -2 -16 3 -32 13 -39 14 -11 14
-11 3 3 -10 14 -9 17 7 22 24 6 47 -18 43 -45 -3 -14 2 -19 15 -17 31 5 60
-21 55 -49 -4 -23 -2 -24 21 -18 20 5 29 2 37 -14 6 -11 16 -17 22 -14 6 4 8
3 5 -3 -4 -6 4 -20 16 -32 20 -18 26 -19 41 -8 17 12 13 18 -50 72 -38 33 -98
91 -134 129 -36 39 -87 91 -114 116 -59 54 -126 121 -220 221 -89 95 -142 129
-112 72z"/>
<path d="M17 673 c-5 -8 29 -73 39 -73 2 0 4 8 4 18 -1 22 -35 68 -43 55z"/>
<path d="M125 530 c10 -11 20 -20 23 -20 3 0 -3 9 -13 20 -10 11 -20 20 -23
20 -3 0 3 -9 13 -20z"/>
<path d="M355 300 c10 -11 20 -20 23 -20 3 0 -3 9 -13 20 -10 11 -20 20 -23
20 -3 0 3 -9 13 -20z"/>
<path d="M605 50 c22 -22 41 -36 43 -30 5 15 -15 37 -52 55 -31 16 -31 16 9
-25z"/>
</g>
</svg>
