<?xml version="1.0" standalone="no"?>
<!DOCTYPE svg PUBLIC "-//W3C//DTD SVG 20010904//EN"
 "http://www.w3.org/TR/2001/REC-SVG-20010904/DTD/svg10.dtd">
<svg version="1.0" xmlns="http://www.w3.org/2000/svg"
 width="72.000000pt" height="72.000000pt" viewBox="0 0 72.000000 72.000000"
 preserveAspectRatio="xMidYMid meet">

<g transform="translate(0.000000,72.000000) scale(0.100000,-0.100000)"
fill="#000000" stroke="none">
<path d="M371 599 c-33 -20 -33 -21 -15 -38 10 -10 42 -34 69 -53 l50 -35 30
18 c17 11 44 19 60 19 29 -1 28 -1 -10 -15 -38 -13 -115 -85 -115 -109 -1 -6
-7 -24 -15 -41 l-14 -30 2 35 c3 54 -20 45 -135 -51 -57 -47 -109 -89 -115
-93 -30 -17 -8 6 72 75 47 41 85 81 85 90 0 18 -72 79 -93 79 -12 0 -180 -182
-201 -218 -15 -26 77 -137 108 -130 8 1 60 47 114 100 l98 97 67 -44 c98 -66
165 -61 234 19 39 44 56 96 49 149 -3 23 -7 54 -9 69 -2 15 1 24 6 21 5 -3 7
5 5 18 -1 12 -9 24 -16 27 -7 2 -10 -2 -6 -11 3 -8 1 -18 -5 -22 -6 -3 -11 0
-11 8 0 9 -9 12 -30 9 -16 -2 -28 -8 -25 -12 3 -4 -16 -10 -41 -12 -40 -3 -51
1 -82 28 -21 17 -48 37 -61 44 -19 9 -21 14 -10 21 8 5 10 9 4 9 -5 0 -25 -9
-44 -21z m260 -139 c26 -15 24 -37 -6 -44 -13 -3 -38 -26 -54 -50 -27 -38 -70
-66 -102 -66 -15 0 -10 69 6 101 29 56 107 85 156 59z m43 -97 c-19 -81 -103
-144 -159 -122 -19 7 -19 8 3 8 51 2 125 64 138 117 3 13 10 24 15 24 5 0 6
-12 3 -27z"/>
<path d="M529 580 l62 -40 37 20 37 21 -54 -5 c-45 -5 -59 -2 -89 19 -20 14
-41 25 -46 25 -5 0 19 -18 53 -40z"/>
<path d="M312 531 c-9 -17 -26 -32 -37 -33 -16 -2 -7 -13 42 -50 71 -56 103
-61 124 -20 7 15 15 30 17 33 2 5 -80 71 -116 93 -8 5 -18 -3 -30 -23z"/>
</g>
</svg>
