<?xml version="1.0" standalone="no"?>
<!DOCTYPE svg PUBLIC "-//W3C//DTD SVG 20010904//EN"
 "http://www.w3.org/TR/2001/REC-SVG-20010904/DTD/svg10.dtd">
<svg version="1.0" xmlns="http://www.w3.org/2000/svg"
 width="72.000000pt" height="72.000000pt" viewBox="0 0 72.000000 72.000000"
 preserveAspectRatio="xMidYMid meet">

<g transform="translate(0.000000,72.000000) scale(0.100000,-0.100000)"
fill="#000000" stroke="none">
<path d="M37 672 l-27 -28 135 -134 c74 -74 135 -130 135 -125 0 5 34 -24 75
-65 41 -41 75 -79 75 -85 0 -6 46 -55 103 -110 l102 -100 -98 101 -98 100 21
19 c21 19 21 18 121 -81 99 -99 100 -99 78 -116 -12 -10 -17 -18 -11 -18 6 0
22 14 36 30 l25 30 -45 65 c-25 36 -53 65 -62 65 -9 0 -35 18 -57 40 l-41 41
-24 -21 c-13 -11 -26 -20 -29 -20 -10 0 -114 112 -128 137 -10 17 -9 24 1 32
7 6 15 8 19 5 3 -3 4 2 3 11 -3 24 -206 225 -243 241 -41 18 -35 19 -66 -14z
m154 -117 c119 -120 119 -120 99 -140 -20 -20 -20 -20 -145 105 -118 117 -124
125 -108 142 9 10 21 17 26 15 5 -1 63 -56 128 -122z"/>
<path d="M122 582 c-10 -7 -8 -13 7 -26 21 -19 37 -7 27 19 -6 17 -15 18 -34
7z"/>
</g>
</svg>
