<?xml version="1.0" standalone="no"?>
<!DOCTYPE svg PUBLIC "-//W3C//DTD SVG 20010904//EN"
 "http://www.w3.org/TR/2001/REC-SVG-20010904/DTD/svg10.dtd">
<svg version="1.0" xmlns="http://www.w3.org/2000/svg"
 width="72.000000pt" height="72.000000pt" viewBox="0 0 72.000000 72.000000"
 preserveAspectRatio="xMidYMid meet">

<g transform="translate(0.000000,72.000000) scale(0.100000,-0.100000)"
fill="#000000" stroke="none">
<path d="M148 671 c-55 -35 -64 -64 -54 -171 9 -97 60 -291 89 -336 31 -50 99
-112 143 -130 18 -8 57 -14 86 -14 125 1 218 95 218 219 0 49 -27 140 -53 175
-10 14 -12 7 -6 -46 3 -35 12 -87 19 -116 17 -75 6 -119 -40 -163 -151 -144
-377 -8 -415 249 -3 20 -2 30 1 22 18 -40 68 -102 94 -115 33 -17 87 -19 110
-5 12 8 9 15 -17 42 -65 68 -90 169 -59 243 14 33 58 65 93 65 14 1 12 6 -12
25 -37 31 -24 33 18 3 17 -12 27 -17 24 -11 -4 6 -35 30 -68 52 -74 50 -108
52 -171 12z m62 -11 c-8 -6 -24 -16 -35 -22 -20 -11 -20 -11 -1 11 11 11 26
21 35 21 14 0 14 -2 1 -10z m80 -390 c0 -13 -6 -20 -17 -19 -11 0 -13 3 -5 6
6 2 12 11 12 19 0 8 2 14 5 14 3 0 5 -9 5 -20z"/>
<path d="M410 375 c0 -8 7 -15 15 -15 8 0 15 7 15 15 0 8 -7 15 -15 15 -8 0
-15 -7 -15 -15z"/>
<path d="M487 294 c-14 -14 -7 -35 11 -32 9 2 17 10 17 17 0 16 -18 25 -28 15z"/>
<path d="M294 175 c-3 -8 -3 -19 0 -24 10 -16 36 -1 36 20 0 22 -28 26 -36 4z"/>
<path d="M504 165 c-3 -8 -3 -19 0 -24 10 -16 36 -1 36 20 0 22 -28 26 -36 4z"/>
<path d="M387 103 c-9 -9 -9 -43 1 -43 18 1 34 19 29 34 -7 17 -19 21 -30 9z"/>
</g>
</svg>
