<?xml version="1.0" standalone="no"?>
<!DOCTYPE svg PUBLIC "-//W3C//DTD SVG 20010904//EN"
 "http://www.w3.org/TR/2001/REC-SVG-20010904/DTD/svg10.dtd">
<svg version="1.0" xmlns="http://www.w3.org/2000/svg"
 width="72.000000pt" height="72.000000pt" viewBox="0 0 72.000000 72.000000"
 preserveAspectRatio="xMidYMid meet">

<g transform="translate(0.000000,72.000000) scale(0.100000,-0.100000)"
fill="#000000" stroke="none">
<path d="M140 387 l0 -312 148 12 c214 17 263 17 256 -2 -10 -26 5 -16 20 13
29 57 30 108 1 197 -15 47 -25 100 -23 120 3 32 -3 43 -36 78 -21 22 -57 70
-81 106 -59 93 -74 101 -190 101 l-95 0 0 -313z m219 277 c17 -14 50 -55 75
-92 24 -37 56 -78 70 -91 22 -20 26 -33 26 -76 0 -29 9 -81 21 -116 23 -70 22
-155 -2 -170 -8 -5 -27 -9 -43 -9 -29 0 -29 1 -10 15 18 14 18 15 -6 6 -40
-14 -318 -46 -327 -37 -4 4 -10 140 -12 302 l-3 294 90 0 c82 0 93 -2 121 -26z"/>
<path d="M306 388 c-21 -30 -20 -44 4 -68 23 -23 40 -25 62 -7 28 21 31 54 9
76 -27 27 -56 27 -75 -1z"/>
<path d="M385 155 c-5 -2 -54 -7 -107 -10 -75 -5 -98 -10 -98 -21 0 -10 8 -13
23 -10 12 3 60 8 107 11 127 9 180 17 180 26 0 9 -84 11 -105 4z"/>
</g>
</svg>
