<?xml version="1.0" standalone="no"?>
<!DOCTYPE svg PUBLIC "-//W3C//DTD SVG 20010904//EN"
 "http://www.w3.org/TR/2001/REC-SVG-20010904/DTD/svg10.dtd">
<svg version="1.0" xmlns="http://www.w3.org/2000/svg"
 width="72.000000pt" height="72.000000pt" viewBox="0 0 72.000000 72.000000"
 preserveAspectRatio="xMidYMid meet">

<g transform="translate(0.000000,72.000000) scale(0.100000,-0.100000)"
fill="#000000" stroke="none">
<path d="M65 650 l-39 -40 64 -63 c35 -34 49 -45 32 -24 -32 38 -40 53 -22 42
18 -11 50 6 50 25 0 28 -34 44 -51 24 -21 -25 -33 0 -14 30 10 14 20 26 24 26
4 0 24 -17 45 -39 33 -34 36 -40 22 -53 -14 -14 -13 -17 3 -32 16 -15 19 -15
36 4 18 20 18 22 -40 80 -33 33 -62 60 -65 60 -3 0 -24 -18 -45 -40z"/>
<path d="M429 368 c181 -183 192 -197 181 -218 -10 -18 -9 -25 4 -38 14 -15
17 -14 29 2 9 13 19 16 28 11 38 -22 -240 264 -356 368 -44 39 7 -17 114 -125z"/>
<path d="M220 495 c-15 -18 -5 -35 21 -35 12 0 19 7 19 19 0 24 -25 34 -40 16z"/>
<path d="M272 428 c2 -13 10 -23 18 -23 8 0 16 10 18 23 3 17 -2 22 -18 22
-16 0 -21 -5 -18 -22z"/>
<path d="M324 385 c-4 -9 -2 -21 4 -27 15 -15 44 -1 40 19 -4 23 -36 29 -44 8z"/>
<path d="M379 334 c-9 -11 -9 -18 -1 -26 14 -14 42 -3 42 16 0 20 -27 27 -41
10z"/>
<path d="M300 317 c0 -1 35 -36 78 -77 l77 -75 -75 78 c-69 71 -80 82 -80 74z"/>
<path d="M432 268 c2 -13 10 -23 18 -23 8 0 16 10 18 23 3 17 -2 22 -18 22
-16 0 -21 -5 -18 -22z"/>
<path d="M484 225 c-4 -9 -2 -21 4 -27 15 -15 44 -1 40 19 -4 23 -36 29 -44 8z"/>
<path d="M542 178 c-15 -15 -3 -38 19 -38 12 0 19 7 19 19 0 22 -23 34 -38 19z"/>
<path d="M533 98 c38 -38 73 -68 78 -68 8 0 -14 21 -112 104 -19 17 -4 1 34
-36z"/>
</g>
</svg>
