<svg width="61" height="53" viewBox="0 0 61 53" fill="none" xmlns="http://www.w3.org/2000/svg">
<path d="M0.436174 2.93991L15.3316 0V40.5766L0.799195 43.4449C0.38542 43.5267 0 43.21 0 42.7881V3.47056C0 3.21227 0.182643 2.98995 0.436174 2.93991Z" fill="#AA9572"/>
<path d="M0 7.07541L15.3315 4.04114V36.5299L0 38.9011V7.07541Z" fill="#37D1C9"/>
<path d="M7.53585 31.3131L9.75639 29.1874L12.054 27.8166L15.2812 23.9236L15.3318 36.5298L7.63116 37.7208L7.06786 32.5998C7.01532 32.1215 7.18819 31.6457 7.53585 31.3131Z" fill="#16A877"/>
<path d="M0.00634766 17.2214L15.3316 13.4233V17.1029L0.00634766 20.8873V17.2214Z" fill="#F24400"/>
<path d="M15.3313 40.5768V0L30.5325 3.02605V43.6027L15.3313 40.5768Z" fill="#E2D3B7"/>
<path d="M15.3313 36.5299V4.04114L30.5325 7.07541V38.9011L15.3313 36.5299Z" fill="#7FE4F4"/>
<path d="M15.3316 36.5298L15.281 23.9236L21.1725 25.8312C21.7039 25.9981 22.0538 26.5051 22.0215 27.0611L21.7508 31.7201C21.7319 32.0456 21.8499 32.3643 22.0764 32.5987L23.8043 34.3884C24.1072 34.7019 24.2187 35.1537 24.0969 35.5721L23.4468 37.8052L15.3316 36.5298Z" fill="#2AF49D"/>
<path d="M15.3313 17.1029V13.4233L30.5325 17.2557V20.9215L15.3313 17.1029Z" fill="#F4663B"/>
<path d="M30.5327 3.02605L45.799 0V40.5768L30.5327 43.6027V3.02605Z" fill="#AA9572"/>
<path d="M45.7986 40.5768V0L60.2221 2.87105C60.6742 2.961 60.9997 3.35774 60.9997 3.81869V42.3067C60.9997 42.9773 60.3865 43.4804 59.7288 43.3495L45.7986 40.5768Z" fill="#E2D3B7"/>
<path d="M30.5327 7.07541L45.799 4.04114L45.8643 36.5299L30.5327 38.9011V7.07541Z" fill="#37D1C9"/>
<path d="M45.7336 36.5298L45.7989 4.04114L61 7.06242V38.8909L45.7336 36.5298Z" fill="#7FE4F4"/>
<path d="M47.4443 23.5234H43.8916V28.8017H47.4443V23.5234Z" fill="#9BB8BC"/>
<path d="M43.0066 23.8503V21.8642C43.0066 21.573 43.2427 21.3369 43.5339 21.3369H47.8031C48.0942 21.3369 48.3304 21.573 48.3304 21.8642V23.8503C48.3304 24.1414 48.0942 24.3776 47.8031 24.3776H43.5339C43.2427 24.3775 43.0066 24.1414 43.0066 23.8503Z" fill="#0C4156"/>
<path d="M45.6686 52.4372C38.9164 52.4372 33.4233 46.9439 33.4233 40.1919C33.4233 33.44 38.9166 27.9468 45.6686 27.9468C52.4207 27.9468 57.9139 33.44 57.9139 40.1919C57.9139 46.9439 52.4207 52.4372 45.6686 52.4372Z" fill="#0C4156"/>
<path d="M44.3017 39.2675C44.3017 34.8444 46.6591 30.9617 50.1833 28.8094C48.7856 28.253 47.2621 27.9467 45.6684 27.9467C38.9162 27.9467 33.4231 33.4399 33.4231 40.1918C33.4231 46.9437 38.9163 52.437 45.6684 52.437C47.9973 52.437 50.1764 51.7832 52.032 50.6499C47.5079 48.8491 44.3017 44.4258 44.3017 39.2675Z" fill="#044C56"/>
<path d="M45.6688 49.1671C40.7198 49.1671 36.6936 45.1409 36.6936 40.1919C36.6936 35.243 40.7198 31.2169 45.6688 31.2169C50.6178 31.2169 54.644 35.2431 54.644 40.1919C54.644 45.1408 50.6178 49.1671 45.6688 49.1671Z" fill="#C7EAEA"/>
<path d="M45.6688 31.2167C42.8046 31.2167 40.2514 32.567 38.6069 34.6625C39.9716 33.8239 41.5759 33.3393 43.2918 33.3393C48.2408 33.3393 52.267 37.3656 52.267 42.3144C52.267 44.3993 51.5505 46.3186 50.3535 47.844C52.9249 46.2638 54.6438 43.4252 54.6438 40.1921C54.644 35.243 50.6177 31.2167 45.6688 31.2167Z" fill="#A6D1D0"/>
<path d="M43.5217 38.2217L48.5689 36.8493C48.8381 36.7762 49.0851 37.0226 49.0126 37.2918L47.7051 42.1531C47.6707 42.2806 47.5698 42.3791 47.4416 42.4103L42.7256 43.5592C42.4673 43.6221 42.2318 43.3939 42.2866 43.1337L43.2628 38.496C43.2909 38.3631 43.3908 38.2573 43.5217 38.2217Z" fill="#DD3A3A"/>
<path d="M37.2344 19.7297V24.6356C37.2344 25.1408 37.6437 25.5503 38.149 25.5503C38.6543 25.5503 39.0637 25.1408 39.0637 24.6356V19.7297H37.2344Z" fill="#9BB8BC"/>
<path d="M57.6925 27.3266L57.1452 26.8774L57.6976 26.4342C58.0915 26.1181 58.1549 25.5424 57.8387 25.1484C57.5226 24.7545 56.9469 24.6911 56.5528 25.0074L55.7001 25.6915L54.855 24.998C54.4648 24.6776 53.8884 24.7342 53.5676 25.1247C53.2471 25.5153 53.3039 26.0916 53.6945 26.4122L54.2419 26.8614L53.6895 27.3047C53.2956 27.6207 53.2322 28.1964 53.5484 28.5904C53.729 28.8157 53.9945 28.9328 54.2624 28.9328C54.4632 28.9328 54.6654 28.8669 54.8342 28.7316L55.6869 28.0475L56.5319 28.741C56.7021 28.8806 56.9075 28.9487 57.1117 28.9487C57.376 28.9487 57.6383 28.8347 57.8192 28.6142C58.1399 28.2235 58.083 27.6471 57.6925 27.3266Z" fill="#DD3A3A"/>
<path d="M38.1753 21.163C36.8227 21.163 35.7224 20.0628 35.7224 18.7102C35.7224 17.3576 36.8227 16.2573 38.1753 16.2573C39.5276 16.2573 40.628 17.3576 40.628 18.7102C40.628 20.0628 39.5276 21.163 38.1753 21.163Z" fill="#DD3A3A"/>
</svg>
