<svg width="56" height="57" viewBox="0 0 56 57" fill="none" xmlns="http://www.w3.org/2000/svg">
<path d="M19.0479 56.8888H9.52417V16.254H19.0479V56.8888Z" fill="#EA3836"/>
<path d="M45.2383 56.8887V2.70898H55.9525V56.8887" fill="#EA3836"/>
<path d="M45.2377 13.5448H35.7139V56.8887H45.2377V13.5448Z" fill="#FFD33F"/>
<path d="M9.5238 0H0V56.8889H9.5238V0Z" fill="#FFD33F"/>
<path d="M27.381 10.8358H19.0476V56.8887H27.381V10.8358Z" fill="#91CECE"/>
<path d="M35.7141 37.9258H27.3809V51.4708H35.7141V37.9258Z" fill="#383856"/>
<path d="M9.52417 50.7421V56.8889H19.048V47.9966C15.8669 49.0516 12.6681 49.9605 9.52417 50.7421Z" fill="#D62121"/>
<path d="M45.2383 33.8839V56.8887H55.9525V18.757C53.555 24.7439 49.8704 29.9465 45.2383 33.8839Z" fill="#D62121"/>
<path d="M35.7141 40.6782V56.8889H45.2379V33.8839C42.2628 36.4927 39.0736 38.7683 35.7141 40.6782Z" fill="#FFAC3E"/>
<path d="M0 52.7887V56.8888H9.5238V50.7419C6.26065 51.5533 3.05952 52.2279 0 52.7887Z" fill="#FFAC3E"/>
<path d="M19.0476 47.9965V56.8887H27.381V44.8336C24.6513 46.0122 21.8571 47.0632 19.0476 47.9965Z" fill="#83B2B7"/>
<path d="M27.3809 44.8339V51.4709H35.7141V40.6783C33.0035 42.2333 30.2226 43.6202 27.3809 44.8339Z" fill="#202033"/>
<path d="M35.7141 2.70898H27.3809V37.9258H35.7141V2.70898Z" fill="#EA3836"/>
<path d="M41.6666 20.3173H39.2856V50.1162H41.6666V20.3173Z" fill="white"/>
<path d="M35.7136 2.70898H27.3804V7.67587H35.7136V2.70898Z" fill="#383856"/>
<path d="M9.5238 6.77234H0V12.1902H9.5238V6.77234Z" fill="#383856"/>
<path d="M15.4761 28.4443H13.0952V44.6983H15.4761V28.4443Z" fill="white"/>
<path d="M19.0482 16.254H9.52441V21.6719H19.0482V16.254Z" fill="#383856"/>
<path d="M19.0482 51.4708H9.52441V56.8887H19.0482V51.4708Z" fill="#202033"/>
<path d="M35.7141 51.4708H27.3809V56.8887H35.7141V51.4708Z" fill="#D62121"/>
<path d="M55.9525 9.48145H45.2383V14.8994H55.9525V9.48145Z" fill="#383856"/>
<path d="M55.9525 44.6982H45.2383V50.1163H55.9525V44.6982Z" fill="#202033"/>
</svg>
