<svg width="55" height="55" viewBox="0 0 55 55" fill="none" xmlns="http://www.w3.org/2000/svg">
<g clip-path="url(#clip0)">
<path d="M21.7365 43.7994L19.041 28.9822L11.3825 32.4608L3.91901 35.8508L5.65194 45.4125C5.12041 45.3258 4.57052 45.3081 4.01193 45.4106C1.3904 45.8907 -0.399783 48.4163 0.0817894 51.0378C0.508147 53.3651 2.59578 55 4.88215 55C7.9079 55 10.1821 52.2495 9.63901 49.2927L7.54149 37.7455L11.3826 36.0009L16.6147 33.6244L17.7484 39.9151C17.2126 39.8294 16.6628 39.8167 16.1111 39.9175C13.4881 40.3986 11.7446 42.91 12.2276 45.5429C12.6635 47.9192 14.734 49.5052 16.9718 49.5052C20.0045 49.5052 22.2811 46.7685 21.7365 43.7994Z" fill="#99BBFF"/>
<path d="M17.7483 39.9151C17.2124 39.8293 16.6626 39.8167 16.1109 39.9174C13.488 40.3986 11.7444 42.91 12.2274 45.5429C12.6633 47.9192 14.7339 49.5051 16.9717 49.5051C20.0043 49.5051 22.2809 46.7686 21.7364 43.7994L19.0409 28.9823L11.3823 32.4608V36.0007L16.6144 33.6242L17.7483 39.9151Z" fill="#8095FF"/>
<path d="M37.1641 1.78836L31.7604 2.33363L29.8102 17.085C28.942 16.4117 27.9268 15.9468 26.81 15.7849C23.2877 15.2812 20.0177 17.7021 19.5055 21.2357C18.9347 25.145 21.9813 28.6078 25.8879 28.6078C29.035 28.6078 31.795 26.2931 32.2608 23.0894C32.2617 23.0829 34.6179 5.28247 34.6179 5.28247L37.1639 5.02595L51.2635 3.61604L49.7478 15.087C48.8969 14.4257 47.888 13.9471 46.7474 13.7817C43.247 13.2742 39.9572 15.6849 39.4429 19.2325C38.8721 23.1418 41.9186 26.6046 45.8253 26.6046C48.9724 26.6046 51.7324 24.2899 52.1982 21.0846C52.1992 21.0781 54.9961 0 54.9961 0L37.1641 1.78836Z" fill="#99BBFF"/>
<path d="M49.7475 15.087C48.8967 14.4257 47.8877 13.9471 46.7471 13.7817C43.2468 13.2742 39.957 15.6849 39.4427 19.2325C38.8718 23.1418 41.9184 26.6046 45.825 26.6046C48.9722 26.6046 51.7322 24.2899 52.1979 21.0846C52.199 21.0781 54.9959 0 54.9959 0L37.1638 1.78836V5.02595L51.2634 3.61604L49.7475 15.087Z" fill="#8095FF"/>
<path d="M44.0154 29.4796L38.7405 40.5279C38.3613 40.1467 37.9265 39.8105 37.4144 39.566C36.8105 39.2771 36.1787 39.1256 35.5528 39.0967C33.6639 39.0096 31.8277 40.0458 30.969 41.843C29.4382 45.0476 31.7742 48.7604 35.3216 48.7604C35.4002 48.7604 35.4746 48.7318 35.5528 48.7282C37.2719 48.6439 38.8998 47.6699 39.6929 46.013V46.0114L43.5717 37.8886L45.3136 42.8154L48.3505 41.7423L44.0154 29.4796Z" fill="#FFD480"/>
<path d="M39.6925 46.013V46.0113L43.5713 37.8886L45.3133 42.8154L48.3502 41.7423L44.0151 29.4796L38.7401 40.5279C38.3609 40.1467 37.9262 39.8105 37.414 39.566C36.8102 39.2771 36.1783 39.1256 35.5525 39.0967V48.728C37.2716 48.6439 38.8994 47.6699 39.6925 46.013Z" fill="#FFBB33"/>
<path d="M16.6021 11.5363L8.15996 5.94281L5.76026 4.35297L8.15996 16.1787L8.19595 16.3562C8.18435 16.3545 8.17156 16.3583 8.15996 16.3567C7.63897 16.285 7.10229 16.2737 6.55647 16.3813C3.92808 16.9175 2.25283 19.4726 2.78146 22.0808C3.25938 24.4242 5.31371 25.9549 7.50845 25.9549C7.73382 25.9549 7.94394 25.9099 8.15985 25.8807C10.8985 25.5123 12.8172 22.9189 12.2575 20.1578L10.4651 11.3365L14.8208 14.224L16.6021 11.5363Z" fill="#FFD480"/>
<path d="M12.2573 20.1577L10.4649 11.3363L14.8206 14.2238L16.6019 11.5361L8.15967 5.94269V16.1785L8.19566 16.356C8.18405 16.3542 8.17127 16.3581 8.15967 16.3565V25.8805C10.8983 25.5122 12.8171 22.9188 12.2573 20.1577Z" fill="#FFBB33"/>
</g>
<defs>
<clipPath id="clip0">
<rect width="55" height="55" rx="10" fill="white"/>
</clipPath>
</defs>
</svg>
