<svg width="50" height="50" viewBox="0 0 50 50" fill="none" xmlns="http://www.w3.org/2000/svg">
<path d="M31.6974 45.4252L24.3662 41.2383C23.4074 40.6908 23.0741 39.4695 23.6217 38.5108L38.6837 12.138C38.8473 11.8516 39.0791 11.6101 39.3585 11.4352L46.9272 6.69442C47.5516 6.3034 48.3402 6.28739 48.98 6.65272C49.6197 7.01805 50.0066 7.70565 49.987 8.44198L49.7494 17.3698C49.7406 17.6994 49.6505 18.0217 49.487 18.3081L34.4248 44.6806C33.8772 45.6395 32.6561 45.9728 31.6974 45.4252Z" fill="#3F9797"/>
<path d="M23.5958 38.4962C23.0483 39.455 23.4062 40.6925 24.3649 41.24L31.6961 45.427C32.6549 45.9744 33.9271 45.6681 34.4747 44.7094L37.1176 40.0818L26.2386 33.8687L23.5958 38.4962Z" fill="#61B872"/>
<path d="M49.5366 18.3365C49.7002 18.0502 49.7652 17.7135 49.774 17.384L49.9991 8.44901C50.0187 7.71268 49.6256 7.02157 48.9858 6.65624C48.3461 6.2909 47.5543 6.30516 46.93 6.69618L39.3469 11.4289C39.0675 11.6039 38.8212 11.8371 38.6577 12.1234L36.1533 16.5086L47.0323 22.7218L49.5366 18.3365Z" fill="#61B872"/>
<path d="M25.265 46.1189H16.8225C15.7184 46.1189 14.8232 45.2238 14.8232 44.1197V13.7487C14.8232 13.4191 14.9048 13.0944 15.0606 12.8038L19.2818 4.93341C19.63 4.28419 20.3068 3.87921 21.0437 3.87921C21.7805 3.87921 22.4572 4.28439 22.8055 4.93341L27.0268 12.8038C27.1825 13.0944 27.2642 13.4191 27.2642 13.7487V44.1197C27.2642 45.2238 26.3692 46.1189 25.265 46.1189Z" fill="#3F9797"/>
<path d="M21.0439 46.1189H16.8227C15.7186 46.1189 14.8235 45.2238 14.8235 44.1197V13.7487C14.8235 13.4191 14.905 13.0944 15.0609 12.8038L19.2821 4.93341C19.6302 4.28419 20.3071 3.87921 21.0439 3.87921V46.1189Z" fill="#46A8A8"/>
<path d="M10.4711 46.1189H2.02876C0.924658 46.1189 0.029541 45.2238 0.029541 44.1197V13.7487C0.029541 13.4191 0.111084 13.0944 0.266943 12.8038L4.48813 4.93341C4.83628 4.28429 5.51313 3.87921 6.24995 3.87921C6.98677 3.87921 7.66352 4.28439 8.01177 4.93341L12.2331 12.8038C12.3888 13.0944 12.4705 13.4191 12.4705 13.7487V44.1197C12.4703 45.2238 11.5753 46.1189 10.4711 46.1189Z" fill="#46A8A8"/>
<path d="M0 44.1196C0 45.2237 0.924707 46.1208 2.02881 46.1208H10.4714C11.5755 46.1208 12.5284 45.2237 12.5284 44.1196V38.7905H0V44.1196Z" fill="#FF5364"/>
<path d="M12.5282 13.7487C12.5282 13.419 12.4178 13.0943 12.2619 12.8038L8.02617 4.93347C7.67803 4.28425 6.99375 3.87927 6.25713 3.87927C5.52051 3.87927 4.83984 4.28435 4.4918 4.93347L0.254004 12.8038C0.0982422 13.0943 0 13.419 0 13.7487V18.7986H12.5282V13.7487Z" fill="#FF5364"/>
<path d="M14.7939 44.1196C14.7939 45.2237 15.7187 46.1208 16.8228 46.1208H25.2653C26.3694 46.1208 27.3224 45.2237 27.3224 44.1196V38.7905H14.794V44.1196H14.7939Z" fill="#F3C74F"/>
<path d="M14.7939 44.1197C14.7939 45.2238 15.7187 46.1209 16.8228 46.1209H21.0439L21.0432 38.7905H14.7939V44.1197Z" fill="#F5ED7F"/>
<path d="M27.3222 13.7487C27.3222 13.4191 27.2117 13.0944 27.0559 12.8038L22.8201 4.93341C22.472 4.28419 21.7877 3.87921 21.0511 3.87921C20.3145 3.87921 19.6338 4.28439 19.2856 4.93341L15.0479 12.8038C14.8922 13.0944 14.7939 13.4191 14.7939 13.7487V18.7987H27.3222V13.7487Z" fill="#F3C74F"/>
<path d="M21.0511 3.87921C20.3145 3.87921 19.6338 4.28439 19.2856 4.93341L15.0479 12.8038C14.8922 13.0944 14.7939 13.4191 14.7939 13.7487V18.7987H21.0431L21.0511 3.87921Z" fill="#F5ED7F"/>
</svg>
