<svg width="62" height="62" viewBox="0 0 62 62" xmlns="http://www.w3.org/2000/svg">
<path d="M60.9903 7.24171C60.0964 4.43044 58.8848 2.41754 58.8335 2.33294C58.6348 2.00552 58.2258 1.83519 57.8554 1.92017C57.7594 1.94207 55.4716 2.47607 52.8325 3.79409C49.2697 5.57285 46.781 7.94754 45.6344 10.6602C44.6801 12.9194 44.543 15.6812 45.2201 18.7322C43.7779 17.1215 42.1555 15.7125 40.3869 14.5263C39.8469 13.4594 38.419 10.8328 36.1866 8.08765C35.4513 7.18392 34.037 8.31802 34.7799 9.23081C36.2841 11.0809 37.4163 12.9005 38.1244 14.1505L29.8677 12.541L22.0231 1.84086C22.7848 1.85143 23.5492 1.92508 24.3098 2.07425C26.7211 2.54632 29.103 3.77445 31.3904 5.72391C32.2866 6.48791 33.4505 5.09738 32.5661 4.34396C30.0392 2.19057 27.3786 0.827987 24.658 0.295116C20.5049 -0.517598 15.6611 0.549278 10.6488 3.38169C6.91307 5.49278 4.41488 7.81159 4.31065 7.90902C3.97642 8.22134 3.92317 8.78858 4.20302 9.1534C4.56934 9.90493 5.9576 12.6161 8.26848 15.535C9.63068 17.256 11.0673 18.7288 12.5534 19.9392C12.1311 20.2931 11.7202 20.6632 11.3226 21.0526C9.19864 23.13 7.57246 25.5806 6.50483 28.2597C5.56107 30.6269 5.0535 33.1734 5.02517 35.7981C4.97834 40.0902 6.22196 44.2296 8.62234 47.7698C10.9672 51.2276 14.2452 53.8825 18.1019 55.4471C19.1812 55.8841 19.8636 54.2054 18.7835 53.7673C17.3862 53.2005 16.0735 52.4742 14.8627 51.6105C15.0176 50.7517 15.3767 47.661 13.3238 44.4615C13.0364 44.014 13.8955 42.2564 14.4084 41.2065C14.9379 40.1245 15.4843 39.0059 15.7396 37.9526C16.0108 36.8336 15.7056 35.8944 14.8578 35.2354C14.2354 34.7516 13.4208 34.5012 12.7029 34.2803C12.2365 34.1368 11.7078 33.9744 11.519 33.8169C11.13 33.491 10.4948 32.2867 9.98416 31.3195C9.41768 30.2466 8.87839 29.2254 8.32777 28.5966C9.56685 25.6539 11.5571 23.05 14.0496 21.0578C16.3265 22.6089 18.9251 23.6791 21.6873 23.8959C18.484 26.3779 17.4478 29.5475 18.9289 32.5922C20.6586 36.1474 24.2187 35.5794 27.3597 35.079C27.9031 34.9922 28.4655 34.9027 29.004 34.8355C29.2061 34.8102 29.2669 34.8653 29.3076 34.9012C29.9954 35.513 29.975 38.4349 29.9602 40.5686C29.9402 43.52 29.9213 46.3079 31.0207 47.7392C31.5815 48.4688 32.3712 48.8419 33.2968 48.8419C33.8516 48.8419 34.4543 48.7082 35.0865 48.4371C37.8204 47.2664 40.6622 43.7428 40.2287 40.955C39.8499 38.5176 39.5991 36.9073 40.1902 35.6093C40.7366 34.408 42.0577 33.2958 44.6593 31.8765C44.9709 33.2795 45.128 34.7392 45.1118 36.2366C45.0562 41.3477 43.0131 46.1315 39.3593 49.706C35.2757 53.7008 29.5365 55.6737 23.8592 55.0479C22.7025 54.9226 22.5027 56.7225 23.6609 56.8501C29.8753 57.5344 36.1583 55.3742 40.6267 51.0021C44.6272 47.0885 46.8637 41.8519 46.9245 36.2558C47.0053 28.836 43.1982 22.2626 37.4027 18.4758C38.6002 17.6219 39.4922 16.8836 39.987 16.455C42.1 17.9709 43.9743 19.8384 45.5336 22.0141C49.2769 27.2382 50.7615 33.6066 49.7146 39.9474C47.5525 53.0366 35.1454 61.9277 22.054 59.7649C15.7128 58.7176 10.1594 55.2643 6.41608 50.0402C2.67238 44.8165 1.18782 38.4474 2.23506 32.1069C2.42313 30.966 0.635686 30.6665 0.446859 31.8116C-0.679687 38.6301 0.917417 45.4789 4.94209 51.0965C8.96751 56.7134 14.9401 60.4273 21.7587 61.5538C23.1847 61.7891 24.6123 61.9054 26.03 61.9054C31.3889 61.9054 36.6021 60.2415 41.0444 57.0582C46.6628 53.0328 50.377 47.0613 51.5028 40.2427C52.328 35.2463 51.6894 30.2337 49.7059 25.7011C50.6214 25.4311 52.1792 24.9069 53.8854 24.0549C57.4475 22.2762 59.9366 19.9015 61.0828 17.1888C62.2301 14.4753 62.198 11.0356 60.9903 7.24171ZM8.38064 32.1654C9.05513 33.4442 9.69299 34.6527 10.3558 35.2071C10.8252 35.5995 11.4785 35.8004 12.17 36.013C13.9416 36.5576 14.1474 36.825 13.9775 37.5255C13.769 38.3869 13.266 39.4157 12.7799 40.41C11.8437 42.3255 10.9596 44.1337 11.7977 45.4404C12.9861 47.2924 13.1897 49.1157 13.1693 50.2498C7.77035 45.3815 5.57202 37.692 7.58303 30.7032C7.84966 31.1601 8.12988 31.6911 8.38064 32.1654ZM52.2358 14.3526L49.6599 8.10993C50.9133 6.93769 52.3676 6.05549 53.6064 5.43425C54.6615 4.90478 55.6653 4.50899 56.4705 4.22839L52.2358 14.3526ZM58.1416 4.93121C58.5015 5.70465 58.9188 6.70204 59.2753 7.82934C59.6662 9.06653 60.025 10.5998 60.0964 12.1992L54.0595 14.6898L58.1416 4.93121ZM47.304 11.3661C47.5714 10.7339 47.917 10.1478 48.3162 9.60658L51.2487 16.7122L48.6172 23.0047C48.2474 22.2203 47.812 21.19 47.4426 20.0197C46.7013 17.6763 46.0759 14.2721 47.304 11.3661ZM53.1113 22.4148C52.0957 22.9246 51.1267 23.3106 50.3374 23.5889L53.0682 17.0604L60.0193 14.1921C59.9185 14.9708 59.7263 15.7427 59.4132 16.4829C58.1854 19.389 55.3084 21.3131 53.1113 22.4148ZM20.4263 21.8989C20.1061 21.8362 19.79 21.7595 19.4784 21.6723L29.5104 14.3186L37.7709 15.9285C34.7617 18.2994 27.4386 23.2728 20.4263 21.8989ZM11.258 16.2276C9.11253 13.9153 7.53998 11.4427 6.637 9.85961L17.149 11.9091L11.258 16.2276ZM13.1145 4.13398L17.5127 10.133L6.93271 8.07066C8.2647 7.01889 10.4634 5.43991 13.1145 4.13398ZM20.1352 10.6444L14.803 3.37112C16.3994 2.71513 18.1128 2.19888 19.8693 1.96926L27.2456 12.03L20.1352 10.6444ZM19.5709 12.3812L27.0889 13.8465L17.4402 20.9189C15.6207 20.0786 13.9832 18.8705 12.5503 17.5275L19.5709 12.3812ZM44.1669 30.0819C40.899 31.8229 39.2989 33.1904 38.5398 34.8585C37.7244 36.6497 38.0232 38.5724 38.4367 41.2333C38.681 42.8025 36.8162 45.7244 34.3728 46.7709C33.4686 47.158 32.8247 47.1123 32.458 46.6345C31.7379 45.6972 31.7575 42.8603 31.773 40.5811C31.7945 37.4277 31.8134 34.7044 30.5124 33.5469C30.0444 33.1307 29.4459 32.9547 28.7808 33.0363C28.2109 33.1073 27.6327 33.1995 27.0742 33.2886C23.7421 33.8196 21.6454 34.0322 20.5593 31.7991C18.7994 28.1823 22.3618 25.5032 23.9752 24.5194C24.3037 24.3193 24.6085 24.0832 24.8917 23.8204C28.791 23.3544 32.4754 21.6814 35.7588 19.5857C39.6954 21.9378 42.7174 25.66 44.1669 30.0819Z" fill="black"/>
</svg>
