<svg width="50" height="44" viewBox="0 0 50 44" xmlns="http://www.w3.org/2000/svg">
<path d="M22.1917 26.8359L14.2357 39.3159C13.4037 40.6159 13.7677 42.3839 15.1197 43.2159C15.5877 43.5279 16.1077 43.6839 16.6277 43.6839C17.5637 43.6839 18.4997 43.2159 19.0197 42.3839L26.8197 30.1639L24.6877 29.1759C23.6477 28.6559 22.7637 27.8239 22.1917 26.8359Z" fill="black"/>
<path d="M41.2757 10.3004C44.0327 10.3004 46.2677 8.06541 46.2677 5.30841C46.2677 2.5514 44.0327 0.316406 41.2757 0.316406C38.5187 0.316406 36.2837 2.5514 36.2837 5.30841C36.2837 8.06541 38.5187 10.3004 41.2757 10.3004Z" fill="black"/>
<path d="M49.5958 19.348C49.2318 18.1 47.9318 17.372 46.6838 17.684L43.1998 18.672L41.4838 14.824C40.9638 13.68 40.1318 12.692 39.0918 12.016L35.0358 9.36405C33.8398 8.58405 32.3838 8.22005 30.9798 8.32405L24.9998 8.79205C24.3758 8.84405 23.8038 9.15605 23.3878 9.62405L19.3318 14.408C18.4998 15.396 18.6038 16.904 19.5918 17.736C20.5798 18.568 22.0878 18.464 22.9198 17.476L26.3518 13.42L29.9398 13.16L24.7918 22.416C24.4278 23.092 24.3238 23.924 24.5838 24.652C24.8438 25.38 25.3638 26.004 26.0918 26.368L34.0478 30.112L29.6278 36.144C28.6918 37.392 29.0038 39.16 30.2518 40.096C30.7718 40.46 31.3438 40.668 31.9158 40.668C32.7998 40.668 33.6318 40.252 34.2038 39.524L40.6518 30.684C41.1718 30.008 41.3278 29.124 41.1198 28.292C40.9118 27.46 40.3398 26.784 39.5598 26.42L33.9958 23.768L37.8438 18.1L39.7678 22.416C40.1318 23.3 41.0158 23.82 41.9518 23.82C42.1598 23.82 42.3678 23.768 42.5758 23.716L48.0358 22.208C49.2318 21.896 49.9598 20.596 49.5958 19.348Z" fill="black"/>
<path d="M5.75969 12.4842H15.3797C16.5237 12.4842 17.4597 11.5482 17.4597 10.4042C17.4597 9.26022 16.5237 8.32422 15.3797 8.32422H5.75969C4.61569 8.32422 3.67969 9.26022 3.67969 10.4042C3.67969 11.5482 4.61569 12.4842 5.75969 12.4842Z" fill="black"/>
<path d="M4.04387 21.7928H13.6639C14.8079 21.7928 15.7439 20.8568 15.7439 19.7128C15.7439 18.5688 14.8079 17.6328 13.6639 17.6328H4.04387C2.89987 17.6328 1.96387 18.5688 1.96387 19.7128C2.01587 20.8568 2.89987 21.7928 4.04387 21.7928Z" fill="black"/>
<path d="M11.9478 26.9395H2.3798C1.2358 26.9395 0.299805 27.8755 0.299805 29.0195C0.299805 30.1635 1.2358 31.0995 2.3798 31.0995H11.9998C13.1438 31.0995 14.0798 30.1635 14.0798 29.0195C14.0798 27.8755 13.0918 26.9395 11.9478 26.9395Z" fill="black"/>
</svg>
