<svg id="Capa_1" enable-background="new 0 0 512 512" height="512" viewBox="0 0 512 512" width="512" xmlns="http://www.w3.org/2000/svg"><g><g><path d="m69.6 262.8h51.7c11.5 0 20.8-9.3 20.8-20.8v-51.7c0-11.5-9.3-20.8-20.8-20.8h-51.7c-11.5 0-20.8 9.3-20.8 20.8v51.7c.1 11.5 9.4 20.8 20.8 20.8zm-5.7-72.5c0-3.2 2.6-5.8 5.8-5.8h51.7c3.2 0 5.8 2.6 5.8 5.8v51.7c0 3.1-2.7 5.8-5.8 5.8h-51.8c-3.1 0-5.8-2.6-5.8-5.8v-51.7z"/><path d="m48.9 354.8c0 11.4 9.3 20.8 20.8 20.8h51.7c11.5 0 20.8-9.3 20.8-20.8v-51.8c0-11.4-9.3-20.8-20.8-20.8h-51.8c-11.5 0-20.8 9.3-20.8 20.8v51.8zm15-51.8c0-3.1 2.7-5.8 5.8-5.8h51.7c3.1 0 5.8 2.6 5.8 5.8v51.8c0 3.1-2.7 5.8-5.8 5.8h-51.8c-3.1 0-5.8-2.6-5.8-5.8v-51.8z"/><path d="m181.2 262.8h51.8c11.4 0 20.8-9.3 20.8-20.8v-51.7c0-11.5-9.3-20.8-20.8-20.8h-51.8c-11.4 0-20.8 9.3-20.8 20.8v51.7c.1 11.5 9.4 20.8 20.8 20.8zm-5.7-72.5c0-3.2 2.6-5.8 5.8-5.8h51.7c3.2 0 5.8 2.6 5.8 5.8v51.7c0 3.2-2.6 5.8-5.8 5.8h-51.8c-3.2 0-5.8-2.6-5.8-5.8v-51.7z"/><path d="m385.3 290.7c-28.7-27.2-74.1-26.1-101.4 2.5-27.2 28.7-26.1 74.1 2.5 101.4 13.4 12.8 30.9 19.8 49.4 19.8h1.8c19.1-.5 37-8.4 50.2-22.3 27.2-28.7 26.1-74.2-2.5-101.4zm-8.4 91c-10.4 11-24.5 17.2-39.7 17.6s-29.5-5.2-40.5-15.6c-22.6-21.5-23.5-57.5-2-80.2 21.5-22.6 57.5-23.5 80.2-2 22.7 21.6 23.6 57.5 2 80.2z"/><path d="m502.2 456.7-31.7-30.1c-6.1-5.8-14.2-8.9-22.7-8.7-5.9.1-11.5 1.9-16.4 5l-15.1-14.3c15.3-18.6 24.2-42.6 23.6-68.5-.7-28.9-13.2-54.8-32.7-73.2v-121.1c4.7-2.6 7.9-7.7 7.9-13.5v-75.9c0-8.5-6.9-15.4-15.4-15.4h-25.7v-14.7c0-14.2-11.5-25.7-25.7-25.7s-25.7 11.5-25.7 25.7v14.6h-42.5v-14.6c0-14.2-11.5-25.7-25.7-25.7s-25.7 11.5-25.7 25.7v14.6h-42.5v-14.6c0-14.2-11.5-25.7-25.7-25.7s-25.7 11.5-25.7 25.7v14.6h-42.3v-14.6c0-14.2-11.5-25.7-25.7-25.7s-25.7 11.5-25.7 25.7v14.6h-25.7c-8.5 0-15.4 7-15.4 15.5v75.9c0 5.8 3.2 10.8 7.9 13.5v240.1c0 16.5 13.4 29.9 29.9 29.9h64.8c4.1 0 7.5-3.4 7.5-7.5s-3.4-7.5-7.5-7.5h-64.8c-8.2 0-14.9-6.7-14.9-14.9v-238.2h167.1c4.1 0 7.5-3.4 7.5-7.5s-3.4-7.5-7.5-7.5h-174.6c-.2 0-.4-.2-.4-.4v-13.9h385.2v13.9c0 .2-.2.4-.4.4h-175.3c-4.1 0-7.5 3.4-7.5 7.5s3.4 7.5 7.5 7.5h167.7v107.4c-8.2-5.3-17.3-9.5-26.9-12.4 0-.2 0-.5 0-.7v-51.7c0-11.5-9.3-20.8-20.8-20.8h-51.8c-11.4 0-20.8 9.3-20.8 20.8v51.7c0 5.5 2.2 10.5 5.7 14.2-12.3 8.3-22.7 19.1-30.5 31.7-3.7-3.5-8.7-5.7-14.3-5.7h-51.8c-11.4 0-20.8 9.3-20.8 20.8v51.8c0 11.4 9.3 20.8 20.8 20.8h52c1.3 0 2.6-.1 3.9-.4 3 9.2 7.3 17.8 12.6 25.6h-112.3c-4.1 0-7.5 3.4-7.5 7.5s3.4 7.5 7.5 7.5h124.7c18.9 19.1 45.2 31 74 31h2.6c26.1-.6 49.7-10.9 67.6-27.3l15 14.3c-2.9 5-4.3 10.7-4.2 16.6.2 8.5 3.7 16.4 9.8 22.2l31.7 30.1c5.9 5.6 13.6 8.7 21.8 8.7h.8c8.5-.2 16.4-3.7 22.2-9.8 12.1-12.7 11.6-32.8-1-44.9zm-164.6-430.4c0-5.9 4.8-10.7 10.7-10.7s10.7 4.8 10.7 10.7v38.8c0 5.9-4.8 10.7-10.7 10.7s-10.7-4.8-10.7-10.7zm-93.8 0c0-5.9 4.8-10.7 10.7-10.7s10.7 4.8 10.7 10.7v38.8c0 5.9-4.8 10.7-10.7 10.7s-10.7-4.8-10.7-10.7zm-93.8 0c0-5.9 4.8-10.7 10.7-10.7s10.7 4.8 10.7 10.7v38.8c0 5.9-4.8 10.7-10.7 10.7s-10.7-4.8-10.7-10.7zm-93.9 0c0-5.9 4.8-10.7 10.7-10.7s10.7 4.8 10.7 10.7v38.8c0 5.9-4.8 10.7-10.7 10.7s-10.7-4.8-10.7-10.7zm-41.1 77.1v-47c0-.3.2-.4.4-.4h25.7v9.2c0 14.2 11.5 25.7 25.7 25.7s25.7-11.5 25.7-25.7v-9.2h42.5v9.2c0 14.2 11.5 25.7 25.7 25.7s25.7-11.5 25.7-25.7v-9.2h42.5v9.2c0 14.2 11.5 25.7 25.7 25.7s25.7-11.5 25.7-25.7v-9.2h42.5v9.2c0 14.2 11.5 25.7 25.7 25.7s25.7-11.5 25.7-25.7v-9.2h25.7c.2 0 .4.2.4.4v47zm277.8 144.4c-3.2 0-5.8-2.6-5.8-5.8v-51.7c0-3.2 2.6-5.8 5.8-5.8h51.8c3.2 0 5.8 2.6 5.8 5.8v49.2c-5.6-.8-11.3-1.1-17.1-1-14.5.4-28.1 3.7-40.5 9.3zm-59.8 112.7h-51.8c-3.2 0-5.8-2.6-5.8-5.8v-51.7c0-3.2 2.6-5.8 5.8-5.8h51.8c3.2 0 5.8 2.6 5.8 5.8 0 .5.1 1 .2 1.5-5 12.6-7.6 26.4-7.2 40.7.1 5.2.6 10.3 1.5 15.3-.1 0-.2 0-.3 0zm105.1 71.2c-.8 0-1.5 0-2.2 0-48.1 0-87.9-38.5-89.1-86.9-1.2-49.1 37.7-90.1 86.9-91.4 7.1-.2 14.1.5 20.8 1.9.2.1.5.1.7.1 39.1 8.6 68.8 43.1 69.9 84.8 1.1 26.4-10.6 49-27.1 66.2-15.6 15.3-36.6 24.8-59.9 25.3zm154.3 59.5c-3.1 3.2-7.2 5.1-11.7 5.2s-8.7-1.5-11.9-4.6l-31.7-30.1c-3.2-3.1-5-7.2-5.2-11.7-.1-4.5 1.5-8.7 4.6-11.9 3-3.2 7.2-5 11.7-5.2h.4c4.3 0 8.4 1.6 11.5 4.6l31.7 30.1c6.7 6.3 7 16.9.6 23.6z"/></g></g></svg>