<svg height="512" viewBox="0 0 128 128" width="512" xmlns="http://www.w3.org/2000/svg"><g><path d="m80.229 82.863c.231-.376.462-.745.693-1.128 10.389-17.2 15.617-32.246 15.542-44.715a32.464 32.464 0 0 0 -64.927-.011c-.076 12.48 5.153 27.528 15.542 44.726.231.383.462.752.693 1.128-21.872 2.703-36.372 10.52-36.372 19.801 0 11.652 23.1 20.779 52.6 20.779s52.6-9.127 52.6-20.779c0-9.281-14.5-17.098-36.371-19.801zm-45.192-45.843a28.964 28.964 0 1 1 57.927.011c.15 24.858-23.09 55.517-28.964 62.869-5.874-7.352-29.115-38.012-28.963-62.88zm28.963 82.923c-29.371 0-49.1-8.935-49.1-17.279 0-7.4 14.629-14.285 34.934-16.518a185.3 185.3 0 0 0 12.833 17.654 1.748 1.748 0 0 0 2.666 0 185.3 185.3 0 0 0 12.834-17.654c20.3 2.233 34.934 9.114 34.934 16.518-.001 8.344-19.73 17.279-49.101 17.279z"/><path d="m49.692 109.807c-7.766-.994-14-2.744-17.548-4.925a1.75 1.75 0 1 0 -1.833 2.981c3.963 2.436 10.689 4.36 18.937 5.415a1.7 1.7 0 0 0 .224.014 1.75 1.75 0 0 0 .22-3.485z"/><path d="m66.939 110.643c-2.439.056-4.979.043-7.458-.048a1.75 1.75 0 1 0 -.129 3.5c1.538.056 3.1.085 4.648.085q1.527 0 3.021-.036a1.75 1.75 0 0 0 1.709-1.79 1.73 1.73 0 0 0 -1.791-1.711z"/><path d="m78.777 37.02a14.778 14.778 0 1 0 -14.777 14.78 14.795 14.795 0 0 0 14.777-14.78zm-26.055 0a11.278 11.278 0 1 1 11.278 11.28 11.29 11.29 0 0 1 -11.278-11.28z"/></g></svg>