<svg width="55" height="55" viewBox="0 0 55 55" xmlns="http://www.w3.org/2000/svg">
<path d="M54.6864 40.9204L45.448 31.682C45.2694 31.5118 45.0105 31.3657 44.6884 31.3674H38.8459C42.8531 28.0358 45.2351 23.0716 45.2351 17.7341C45.2351 7.95553 37.2796 0 27.501 0C17.7224 0 9.76686 7.95553 9.76686 17.7341C9.76686 23.0717 12.1487 28.0358 16.1561 31.3674H10.3135C10.0671 31.3732 9.78018 31.4532 9.55395 31.682L0.315587 40.9204C-0.103894 41.3399 -0.103894 42.0201 0.315587 42.4396C0.735176 42.8591 1.41515 42.8591 1.83485 42.4396L9.23942 35.0351V51.7775C9.23942 53.5544 10.6851 55.0001 12.4621 55.0001H42.5401C44.3171 55.0001 45.7627 53.5544 45.7627 51.7775V35.035L53.1673 42.4395C53.5869 42.859 54.2669 42.859 54.6866 42.4395C55.1059 42.0201 55.1059 41.3399 54.6864 40.9204ZM42.9503 33.5158L39.4054 40.6056H15.5966L12.0517 33.5157L42.9503 33.5158ZM11.9153 17.7341C11.9153 9.14017 18.907 2.14843 27.501 2.14843C36.0949 2.14843 43.0867 9.14017 43.0867 17.7341C43.0867 23.4156 40.0144 28.6145 35.0532 31.3674H19.9487C14.9877 28.6145 11.9153 23.4157 11.9153 17.7341ZM42.54 52.8516H12.462C11.8696 52.8516 11.3877 52.3697 11.3877 51.7774V50.703H15.147C15.7401 50.703 16.2212 50.2221 16.2212 49.6288C16.2212 49.0355 15.7401 48.5546 15.147 48.5546H11.3877V36.9921L13.9719 42.1603C14.1538 42.5243 14.5257 42.7542 14.9327 42.7542H40.0693C40.4762 42.7542 40.8481 42.5243 41.0301 42.1603L43.6142 36.9921V51.7774C43.6142 52.3697 43.1323 52.8516 42.54 52.8516Z" fill="black"/>
<path d="M35.5576 12.7949C35.5576 10.6432 34.7195 8.62008 33.1977 7.09823C31.6758 5.57639 29.6526 4.73828 27.501 4.73828C25.3493 4.73828 23.3261 5.57639 21.8043 7.09823C20.2824 8.62008 19.4443 10.6432 19.4443 12.7949C19.4443 14.5719 20.89 16.0176 22.667 16.0176C24.444 16.0176 25.8896 14.5719 25.8896 12.7949C25.8896 12.3643 26.0572 11.9597 26.3616 11.6554C26.6658 11.3512 27.0704 11.1836 27.501 11.1836C27.9315 11.1836 28.3362 11.3512 28.6405 11.6555C28.9447 11.9597 29.1123 12.3643 29.1123 12.7949C29.1123 13.0137 29.0719 13.2213 28.9922 13.4121C28.911 13.6065 28.7857 13.7891 28.62 13.9549C27.1553 15.4196 26.2958 16.4108 25.6536 17.3762C24.7154 18.7863 24.2783 20.1242 24.2783 21.5867C24.2783 22.4114 24.5902 23.1646 25.1016 23.7352C24.5902 24.3059 24.2783 25.0593 24.2783 25.8844C24.2783 27.6614 25.724 29.107 27.501 29.107C29.2779 29.107 30.7236 27.6614 30.7236 25.8844V25.8836C30.7236 25.0588 30.4118 24.3057 29.9004 23.7352C30.4118 23.1646 30.7236 22.4114 30.7236 21.5868C30.7236 21.49 30.7747 21.298 31.0172 20.9332C31.4749 20.2454 32.3659 19.3234 33.1771 18.5121C33.9307 17.7585 34.5224 16.8747 34.9358 15.8852C35.3485 14.8974 35.5576 13.8578 35.5576 12.7949ZM28.5752 25.8844C28.5752 26.4767 28.0933 26.9586 27.501 26.9586C26.9087 26.9586 26.4268 26.4767 26.4268 25.8835C26.4268 25.2912 26.9087 24.8093 27.501 24.8093C28.0933 24.8093 28.5752 25.2912 28.5752 25.8835V25.8844ZM32.9534 15.057C32.6485 15.7868 32.2126 16.4381 31.658 16.9929C30.3854 18.2655 29.6815 19.0622 29.2286 19.743C28.7828 20.413 28.5752 20.9988 28.5752 21.5867C28.5752 22.179 28.0933 22.6609 27.501 22.6609C26.9087 22.6609 26.4268 22.179 26.4268 21.5867C26.4268 20.5534 26.74 19.6219 27.4423 18.5664C28.0005 17.7273 28.7819 16.8314 30.1391 15.474C30.5038 15.1093 30.785 14.6942 30.9746 14.2403C31.1644 13.7859 31.2606 13.2996 31.2606 12.7949C31.2606 11.7903 30.8695 10.8461 30.1596 10.1362C29.4496 9.42617 28.5055 9.03516 27.5009 9.03516C26.4963 9.03516 25.5521 9.42617 24.8423 10.1361C24.1322 10.8461 23.7411 11.7903 23.7411 12.7948C23.7411 13.3871 23.2592 13.869 22.6669 13.869C22.0746 13.869 21.5927 13.3871 21.5927 12.7948C21.5927 11.217 22.2073 9.73329 23.3233 8.61728C24.4395 7.50117 25.9229 6.88661 27.5009 6.88661C29.0788 6.88661 30.5623 7.50128 31.6784 8.61728C32.7945 9.73329 33.4091 11.2169 33.4091 12.7948C33.4092 13.5719 33.2558 14.333 32.9534 15.057Z" fill="black"/>
<path d="M19.9805 48.5547C19.3873 48.5547 18.9062 49.0356 18.9062 49.6289C18.9062 50.2222 19.3873 50.7031 19.9805 50.7031H19.9813C20.5745 50.7031 21.0551 50.2222 21.0551 49.6289C21.0551 49.0356 20.5738 48.5547 19.9805 48.5547Z" fill="black"/>
</svg>
