<svg width="36" height="63" viewBox="0 0 36 63" xmlns="http://www.w3.org/2000/svg">
<path d="M14.4359 32.3918C14.9639 32.0638 15.0959 31.4734 14.8319 30.9486C14.5019 30.4238 13.8419 30.2926 13.3799 30.555C13.1819 30.6862 11.2679 31.867 11.1359 33.835C11.0039 35.147 11.7299 36.3934 13.1159 37.5086C13.3139 37.6398 13.5779 37.771 13.7759 37.771C14.1059 37.771 14.3699 37.6398 14.6339 37.3774C15.0299 36.9182 14.9639 36.2622 14.5019 35.8686C13.9079 35.4094 13.2479 34.6878 13.3139 33.9662C13.2479 33.2446 14.1059 32.5886 14.4359 32.3918Z" fill="black"/>
<path d="M22.6861 30.5549C22.1581 30.2269 21.4981 30.4237 21.2341 30.9485C20.9041 31.4733 21.1021 32.1293 21.6301 32.3917C21.8941 32.5229 22.8181 33.2445 22.8841 34.0317C22.9501 34.7533 22.2901 35.4749 21.6961 35.9341C21.2341 36.3277 21.1681 36.9837 21.5641 37.4429C21.7621 37.7053 22.0921 37.8365 22.4221 37.8365C22.6861 37.8365 22.8841 37.7709 23.0821 37.5741C24.4681 36.4589 25.1281 35.2125 25.0621 33.9005C24.7981 31.8669 22.8841 30.6861 22.6861 30.5549Z" fill="black"/>
<path d="M35.2921 42.0343C35.1601 41.4439 34.6321 40.9847 34.0381 40.9191C34.4341 40.1319 34.7641 39.2135 34.7641 38.2951C34.7641 36.0647 33.5101 34.0311 31.5301 33.1127C31.1341 29.8327 28.4281 27.2087 25.1281 27.0775C23.6101 24.7815 20.4421 23.9287 18.0001 25.1751C15.5581 23.9287 12.3901 24.7815 10.8721 27.0775C7.63807 27.2087 4.93207 29.8327 4.47007 33.1127C2.49007 34.0311 1.23607 35.9991 1.23607 38.2951C1.23607 39.2135 1.50007 40.1319 1.96207 40.9191C1.36807 40.9847 0.840067 41.4439 0.708067 42.0343C0.114067 45.0519 0.180067 48.2663 1.56607 51.6775C3.87607 57.5159 9.22207 61.9767 15.5581 62.8295C26.3821 64.2727 35.6221 55.9415 35.6221 45.4455C35.6221 44.2647 35.4901 43.1495 35.2921 42.0343ZM4.47007 40.8535C3.81007 40.1319 3.41407 39.2791 3.41407 38.2951C3.41407 37.1143 3.94207 36.0647 4.86607 35.4087C5.46007 36.9175 6.64807 38.4919 9.09007 39.4759C9.22207 39.5415 9.35407 39.5415 9.48607 39.5415C9.88207 39.5415 10.3441 39.2791 10.4761 38.8855C10.6741 38.3607 10.4101 37.7047 9.88207 37.5079C8.03407 36.7863 6.97807 35.5399 6.64807 33.7687C6.78007 31.1447 8.76007 29.1767 11.1361 29.1767L11.4661 29.2423C11.9281 29.2423 12.3241 29.0455 12.5221 28.6519C13.3801 26.9463 15.4261 26.2247 17.0101 27.0119V40.8535H4.47007ZM9.94807 47.3479C9.94807 45.9703 11.0701 44.9207 12.3901 44.9207C13.7761 44.9207 14.8321 46.0359 14.8321 47.3479C14.8321 48.6599 13.7101 49.7751 12.3901 49.7751C11.0701 49.8407 9.94807 48.7255 9.94807 47.3479ZM22.6861 54.4327C21.9601 56.3351 20.0461 57.6471 18.0001 57.6471C15.8881 57.6471 14.0401 56.3351 13.3141 54.3671C13.1161 53.7767 13.4461 53.1207 14.0401 52.9239C14.6341 52.7271 15.2941 53.0551 15.4921 53.6455C15.8881 54.6951 16.8781 55.3511 18.0001 55.3511C19.1221 55.3511 20.1121 54.6295 20.5081 53.5799C20.7061 52.9895 21.3661 52.7271 21.9601 52.9239C22.6201 53.1863 22.8841 53.8423 22.6861 54.4327ZM23.5441 49.8407C22.1581 49.8407 21.1021 48.7255 21.1021 47.4135C21.1021 46.1015 22.2241 44.9863 23.5441 44.9863C24.9301 44.9863 25.9861 46.1015 25.9861 47.4135C25.9861 48.7255 24.9301 49.8407 23.5441 49.8407ZM31.5301 40.8535H19.0561V27.0119C20.6401 26.2247 22.6861 26.9463 23.5441 28.6519C23.7421 29.0455 24.4021 29.2423 24.8641 29.2423C27.2401 29.2423 29.2201 31.2103 29.3521 33.7031C29.0221 35.4743 27.9001 36.7863 26.1181 37.4423C25.5901 37.6391 25.3261 38.2951 25.5241 38.8199C25.7221 39.2135 26.1181 39.4759 26.5141 39.4759C26.6461 39.4759 26.7781 39.4759 26.9101 39.4103C29.3521 38.4919 30.5401 36.8519 31.1341 35.3431C31.9921 35.9991 32.5861 37.0487 32.5861 38.2295C32.5861 39.2135 32.1901 40.1319 31.5301 40.8535Z" fill="black"/>
<path d="M12.654 5.8884C12.852 6.282 13.248 6.5444 13.644 6.5444C13.776 6.5444 13.908 6.5444 14.04 6.4788C14.568 6.282 14.832 5.626 14.634 5.1012L13.512 2.4116C13.314 1.8868 12.654 1.6244 12.126 1.8212C11.598 2.018 11.334 2.674 11.532 3.1988L12.654 5.8884Z" fill="black"/>
<path d="M21.96 6.47945C22.092 6.54505 22.224 6.54505 22.356 6.54505C22.752 6.54505 23.148 6.28265 23.346 5.88905L24.468 3.19945C24.666 2.67465 24.468 2.01865 23.874 1.82185C23.346 1.62505 22.686 1.82185 22.488 2.41225L21.366 5.10185C21.168 5.62665 21.432 6.28265 21.96 6.47945Z" fill="black"/>
<path d="M17.9998 5.69182C18.5938 5.69182 19.0558 5.23263 19.0558 4.64223V1.69023C19.0558 1.09982 18.5938 0.640625 17.9998 0.640625C17.4058 0.640625 16.9438 1.09982 16.9438 1.69023V4.64223C16.9438 5.23263 17.4058 5.69182 17.9998 5.69182Z" fill="black"/>
<path d="M11.2681 17.9585C11.5321 17.9585 11.7961 17.8929 11.9941 17.7617C12.2581 17.6305 12.5881 17.4993 12.9181 17.4993H13.1821V20.8449C13.1821 21.3697 13.5781 21.7633 14.1061 21.7633H16.6801C16.8121 21.7633 16.9441 21.6321 16.9441 21.5009C16.9441 21.1729 16.8781 20.9105 16.7461 20.6481C16.6141 20.4513 16.5481 20.1889 16.5481 19.9265C16.5481 19.0737 17.2741 18.3521 18.1321 18.4177C18.9901 18.4177 19.6501 19.2049 19.6501 20.0577C19.6501 20.3201 19.5841 20.5169 19.4521 20.7137C19.3201 20.9761 19.2541 21.2385 19.2541 21.5009C19.2541 21.6321 19.3861 21.7633 19.5181 21.7633H22.0921C22.6201 21.7633 23.0161 21.3697 23.0161 20.8449V17.4993H23.2141C23.5441 17.4993 23.8741 17.6305 24.2041 17.7617C24.4021 17.8273 24.6001 17.8929 24.7981 17.8929C25.6561 17.9585 26.3821 17.2369 26.4481 16.3841C26.4481 15.5313 25.7881 14.8097 24.9301 14.8097C24.6661 14.8097 24.4021 14.8753 24.2041 15.0065C23.9401 15.1377 23.6101 15.2689 23.2801 15.2689H23.0161V11.9233C23.0161 11.3985 22.6201 11.0049 22.0921 11.0049H19.2541V10.8081C19.2541 10.4801 19.3861 10.1521 19.5181 9.82415C19.5841 9.62735 19.6501 9.43055 19.6501 9.23375C19.7161 8.38095 18.9901 7.65935 18.1321 7.59375C17.2741 7.59375 16.5481 8.24975 16.5481 9.10255C16.5481 9.36495 16.6141 9.62735 16.7461 9.82415C16.8781 10.0865 17.0101 10.4145 17.0101 10.7425V11.0049H14.0401C13.5121 11.0049 13.1161 11.3985 13.1161 11.9233V15.2689H12.9181C12.5881 15.2689 12.2581 15.1377 11.9281 15.0065C11.7301 14.9409 11.5321 14.8753 11.3341 14.8753C10.4761 14.8097 9.75008 15.5313 9.68408 16.3841C9.68408 17.2369 10.4101 17.9585 11.2681 17.9585Z" fill="black"/>
</svg>
