<?xml version="1.0" encoding="iso-8859-1"?>
<!-- Generator: Adobe Illustrator 19.0.0, SVG Export Plug-In . SVG Version: 6.00 Build 0)  -->
<svg version="1.1" id="Capa_1" xmlns="http://www.w3.org/2000/svg" xmlns:xlink="http://www.w3.org/1999/xlink" x="0px" y="0px"
	 viewBox="0 0 480 480" style="enable-background:new 0 0 480 480;" xml:space="preserve">
<g>
	<g>
		<path d="M285.966,273.369c36.162-25.386,44.897-75.281,19.51-111.442s-75.281-44.897-111.442-19.51s-44.897,75.281-19.51,111.442
			c5.324,7.584,11.926,14.186,19.51,19.51c-42.717,7.343-73.96,44.35-74.034,87.694V472c-0.001,4.417,3.579,7.999,7.996,8
			c0.001,0,0.003,0,0.004,0h224c4.417,0.001,7.999-3.579,8-7.996c0-0.001,0-0.003,0-0.004V361.062
			C359.925,317.719,328.683,280.712,285.966,273.369z M176,208c0-35.346,28.654-64,64-64c35.346,0,64,28.654,64,64
			c0,35.346-28.654,64-64,64C204.671,271.96,176.04,243.329,176,208z M344,464H136V361.062c0.045-40.332,32.73-73.017,73.063-73.062
			h61.875c40.332,0.045,73.017,32.73,73.062,73.062V464z"/>
	</g>
</g>
<g>
	<g>
		<rect x="232" y="48" width="16" height="32"/>
	</g>
</g>
<g>
	<g>
		<rect x="312.003" y="76.672" transform="matrix(0.7071 -0.7071 0.7071 0.7071 36.1983 256.7335)" width="32" height="16"/>
	</g>
</g>
<g>
	<g>
		<rect x="408" y="464" width="32" height="16"/>
	</g>
</g>
<g>
	<g>
		<rect x="408" y="384" width="32" height="16"/>
	</g>
</g>
<g>
	<g>
		<rect x="408" y="304" width="32" height="16"/>
	</g>
</g>
<g>
	<g>
		<rect x="400.028" y="224.004" transform="matrix(0.9486 -0.3164 0.3164 0.9486 -52.0304 143.5361)" width="32" height="16"/>
	</g>
</g>
<g>
	<g>
		<rect x="375.174" y="141.039" transform="matrix(0.9486 -0.3164 0.3164 0.9486 -27.0591 131.4119)" width="32" height="16"/>
	</g>
</g>
<g>
	<g>
		<rect x="144.004" y="68.683" transform="matrix(0.7072 -0.707 0.707 0.7072 -15.3631 132.2722)" width="16" height="32"/>
	</g>
</g>
<g>
	<g>
		<rect x="40" y="464" width="32" height="16"/>
	</g>
</g>
<g>
	<g>
		<rect x="40" y="384" width="32" height="16"/>
	</g>
</g>
<g>
	<g>
		<rect x="40" y="304" width="32" height="16"/>
	</g>
</g>
<g>
	<g>
		<rect x="56.004" y="215.996" transform="matrix(0.3161 -0.9487 0.9487 0.3161 -176.3279 219.372)" width="16" height="32"/>
	</g>
</g>
<g>
	<g>
		<rect x="80.808" y="133.076" transform="matrix(0.3163 -0.9487 0.9487 0.3163 -80.7029 186.1785)" width="16" height="32"/>
	</g>
</g>
<g>
	<g>
		<path d="M472,32c-13.249-0.014-23.986-10.751-24-24c0-4.418-3.582-8-8-8s-8,3.582-8,8c-0.014,13.249-10.751,23.986-24,24
			c-4.418,0-8,3.582-8,8s3.582,8,8,8c13.249,0.014,23.986,10.751,24,24c0,4.418,3.582,8,8,8s8-3.582,8-8
			c0.014-13.249,10.751-23.986,24-24c4.418,0,8-3.582,8-8S476.418,32,472,32z M440,48.023c-2.283-3.039-4.984-5.74-8.023-8.023
			c3.039-2.283,5.74-4.984,8.023-8.023c2.283,3.039,4.984,5.74,8.023,8.023C444.984,42.283,442.283,44.984,440,48.023z"/>
	</g>
</g>
<g>
	<g>
		<path d="M72,32C58.751,31.986,48.014,21.249,48,8c0-4.418-3.582-8-8-8s-8,3.582-8,8C31.986,21.249,21.249,31.986,8,32
			c-4.418,0-8,3.582-8,8s3.582,8,8,8c13.249,0.014,23.986,10.751,24,24c0,4.418,3.582,8,8,8s8-3.582,8-8
			c0.014-13.249,10.751-23.986,24-24c4.418,0,8-3.582,8-8S76.418,32,72,32z M40,48.023c-2.283-3.039-4.984-5.74-8.023-8.023
			c3.039-2.283,5.74-4.984,8.023-8.023c2.283,3.039,4.984,5.74,8.023,8.023C44.984,42.283,42.283,44.984,40,48.023z"/>
	</g>
</g>
<g>
</g>
<g>
</g>
<g>
</g>
<g>
</g>
<g>
</g>
<g>
</g>
<g>
</g>
<g>
</g>
<g>
</g>
<g>
</g>
<g>
</g>
<g>
</g>
<g>
</g>
<g>
</g>
<g>
</g>
</svg>
