<svg width="18" height="18" viewBox="0 0 18 18" fill="none" xmlns="http://www.w3.org/2000/svg">
<path d="M9.00033 0.666016C4.40533 0.666016 0.666992 4.40435 0.666992 8.99935C0.666992 13.5943 4.40533 17.3327 9.00033 17.3327C13.5953 17.3327 17.3337 13.5943 17.3337 8.99935C17.3337 4.40435 13.5953 0.666016 9.00033 0.666016ZM9.00033 15.666C5.32449 15.666 2.33366 12.6752 2.33366 8.99935C2.33366 5.32352 5.32449 2.33268 9.00033 2.33268C12.6762 2.33268 15.667 5.32352 15.667 8.99935C15.667 12.6752 12.6762 15.666 9.00033 15.666Z" fill="#D93939"/>
<path d="M9.83366 4.83398H8.16699V9.83399H13.167V8.16732H9.83366V4.83398Z" fill="#D93939"/>
</svg>
