<svg width="255" height="198" viewBox="0 0 255 198" fill="none" xmlns="http://www.w3.org/2000/svg">
<path d="M62.6397 168.095L48.3657 177.908C34.1612 187.673 14.7571 184.034 5.02516 169.78C2.81033 166.535 3.63559 162.103 6.86886 159.88L41.0085 136.411C49.7276 130.417 61.6383 132.65 67.6115 141.4C73.5846 150.15 71.3588 162.101 62.6397 168.095Z" fill="#4C3ED9"/>
<path opacity="0.15" d="M67.6111 141.401C61.638 132.652 49.7274 130.418 41.0084 136.412L36.0805 139.8C37.4544 151.028 44.2461 160.72 54.6896 166.771C56.589 167.871 58.5338 168.797 60.5048 169.564L62.6398 168.096C71.3587 162.101 73.5845 150.15 67.6111 141.401Z" fill="black"/>
<path d="M88.819 137.616L96.5537 142.097C111.465 150.736 130.532 145.609 139.142 130.646C141.101 127.24 139.938 122.885 136.544 120.919L107.955 104.356C98.8024 99.0528 87.0987 102.2 81.8143 111.384C76.5301 120.569 79.6661 132.313 88.819 137.616Z" fill="#4C3ED9"/>
<path d="M112.963 127.323C112.963 103.064 105.532 83.3984 75.8239 83.3984C46.1157 83.3984 38.6848 103.064 38.6848 127.323C38.6848 151.582 55.3124 165.992 75.8239 165.992C96.3353 165.992 112.963 151.582 112.963 127.323Z" fill="#4C3ED9"/>
<path d="M75.824 83.3984V114.344C75.824 128.34 87.1309 139.686 101.078 139.686C104.994 139.686 108.702 138.791 112.009 137.195C112.626 134.02 112.963 130.719 112.963 127.323C112.963 103.064 105.532 83.3984 75.824 83.3984Z" fill="white"/>
<path opacity="0.1" d="M84.2401 81.9496C66.8527 77.2745 55.5045 81.6993 47.8676 91.1242C52.0309 96.2679 57.7852 100.195 64.6519 102.041L111.671 114.683C111.629 99.648 104.683 87.4462 84.2401 81.9496Z" fill="black"/>
<path d="M221.279 141.829C216.236 136.685 209.913 132.988 202.967 131.121L114.163 107.243L120.416 83.8282L222.541 111.288L235.298 126.681L232.011 138.99C230.732 143.782 224.747 145.365 221.279 141.829Z" fill="#F4B759"/>
<path opacity="0.1" d="M221.279 141.829C216.236 136.685 209.913 132.988 202.967 131.121L114.163 107.243L120.416 83.8282L222.541 111.288L235.298 126.681L232.011 138.99C230.732 143.782 224.747 145.365 221.279 141.829Z" fill="#F4B759"/>
<path d="M114.163 107.243L66.6722 94.4736C49.3444 89.8145 39.0608 71.9416 43.7039 54.5531C51.749 24.424 82.6102 6.54439 112.635 14.6175L137.137 21.2055L114.163 107.243Z" fill="#4C3ED9"/>
<path d="M229.336 134.73L224.004 127.143C217.796 118.311 208.699 111.943 198.296 109.145L119.325 87.9117L137.137 21.2056L183.1 33.564C222.809 44.2411 246.375 85.1993 235.734 125.047L233.34 134.015C232.847 135.86 230.433 136.291 229.336 134.73Z" fill="#F3C74F"/>
<path d="M78.7995 97.7345L114.164 107.243L131.515 42.2616L104.588 35.0213C85.9409 30.0076 66.7751 41.1117 61.7789 59.8227L60.2601 65.5105C56.5113 79.5464 64.8124 93.9737 78.7995 97.7345Z" fill="white"/>
<path d="M90.8946 73.2225C92.1989 68.3376 88.1273 62.9998 81.7992 61.2983C75.4725 59.5972 69.2867 62.177 67.9823 67.0618C66.6783 71.9454 70.7499 77.2832 77.0767 78.9843C83.4047 80.6858 89.5906 78.106 90.8946 73.2225Z" fill="#EDA1AB"/>
<path d="M89.4566 65.7174C91.3325 66.2218 93.2623 65.1038 93.7649 63.2214L95.4836 56.7848C95.9862 54.9024 94.8721 52.9659 92.9962 52.4615C91.1204 51.9571 89.1906 53.0752 88.6879 54.9576L86.9692 61.3942C86.4666 63.2765 87.5808 65.213 89.4566 65.7174Z" fill="#4A5058"/>
<path d="M72.1624 175.267C68.7234 175.267 65.9358 172.469 65.9358 169.019V159.261C65.9358 155.81 68.7234 153.013 72.1624 153.013C75.6014 153.013 78.3891 155.81 78.3891 159.261V169.019C78.3886 172.469 75.6005 175.267 72.1624 175.267Z" fill="#F4B759"/>
<path d="M96.0719 175.267C92.6328 175.267 89.8452 172.469 89.8452 169.019V159.261C89.8452 155.81 92.6328 153.013 96.0719 153.013C99.5109 153.013 102.298 155.81 102.298 159.261V169.019C102.298 172.469 99.5104 175.267 96.0719 175.267Z" fill="#F4B759"/>
<path d="M99.8321 156.135C101.522 156.135 103.209 155.489 104.499 154.195L124.696 133.927C127.275 131.34 127.275 127.146 124.696 124.56C122.119 121.972 117.938 121.972 115.361 124.56L95.1638 144.828C92.5851 147.413 92.5851 151.607 95.1638 154.195C96.4532 155.489 98.1427 156.135 99.8321 156.135Z" fill="#E1B89A"/>
<path d="M108.77 122.103C108.77 132.286 116.997 140.541 127.145 140.541C137.293 140.541 145.52 132.286 145.52 122.103C145.52 111.92 137.293 103.664 127.145 103.664C116.997 103.664 108.77 111.92 108.77 122.103Z" fill="#7ACEFA"/>
<path d="M133.081 104.651C136.153 105.699 138.984 107.576 141.221 110.249C141.598 110.701 141.947 111.165 142.272 111.64L116.718 137.282C115.39 136.363 114.157 135.255 113.071 133.954C111.566 132.155 110.469 130.153 109.756 128.058L133.081 104.651Z" fill="#A3DEFE"/>
<path d="M127.182 143.969C132.292 143.969 137.19 142.187 141.15 138.851C145.609 135.098 148.344 129.826 148.851 124.009C149.359 118.189 147.577 112.521 143.837 108.047C136.114 98.812 122.343 97.6038 113.14 105.353C103.937 113.103 102.731 126.921 110.455 136.156C114.195 140.63 119.448 143.375 125.248 143.884C125.895 143.941 126.54 143.969 127.182 143.969ZM127.133 107.096C131.406 107.096 135.649 108.918 138.605 112.453C141.173 115.525 142.397 119.417 142.048 123.411C141.7 127.405 139.823 131.024 136.761 133.603C133.7 136.18 129.822 137.407 125.842 137.058C121.861 136.708 118.255 134.823 115.685 131.752C110.384 125.411 111.211 115.923 117.529 110.603C120.327 108.247 123.739 107.096 127.133 107.096Z" fill="#6A96D7"/>
<path d="M111.933 187.955C111.933 183.115 121.477 179.19 133.252 179.19C145.027 179.19 154.572 183.115 154.572 187.955C154.572 192.794 145.027 196.719 133.252 196.719C121.477 196.719 111.933 192.794 111.933 187.955Z" fill="#E1B89A"/>
<path d="M168.488 167.603C168.488 162.763 178.033 158.839 189.807 158.839C201.582 158.839 211.127 162.763 211.127 167.603C211.127 172.443 201.582 176.367 189.807 176.367C178.033 176.367 168.488 172.443 168.488 167.603Z" fill="#E1B89A"/>
<path opacity="0.15" d="M74.6353 112.999L83.2622 115.319C99.8943 119.791 109.764 136.945 105.308 153.635C104.293 157.434 100.402 159.688 96.6169 158.67L64.7296 150.096C54.5209 147.351 48.4626 136.821 51.1981 126.577C53.9334 116.333 64.427 110.254 74.6353 112.999Z" fill="black"/>
<path d="M76.9161 109.795L85.543 112.114C102.175 116.586 112.045 133.741 107.589 150.43C106.574 154.229 102.683 156.483 98.8977 155.466L67.0104 146.892C56.8016 144.147 50.7434 133.617 53.4788 123.373C56.2141 113.129 66.7078 107.05 76.9161 109.795Z" fill="#4C3ED9"/>
</svg>
