<svg width="123" height="115" viewBox="0 0 123 115" fill="none" xmlns="http://www.w3.org/2000/svg">
<g clip-path="url(#clip0_9724_44171)">
<path d="M37.8512 99.106L31.3221 104.906C24.8247 110.678 14.8941 110.072 9.14124 103.553C7.83193 102.069 7.96931 99.8009 9.44823 98.4869L25.0641 84.6147C29.0524 81.0718 35.1481 81.4435 38.679 85.4452C42.2101 89.4473 41.8395 95.5632 37.8512 99.106Z" fill="#4C3ED9"/>
<path opacity="0.15" d="M38.678 85.4442C35.147 81.4426 29.0515 81.0707 25.0632 84.6135L22.8091 86.616C24.1939 92.1449 28.1929 96.567 33.7919 98.9393C34.8102 99.3708 35.8404 99.7119 36.8738 99.9722L37.8504 99.1047C41.8385 95.5615 42.2091 89.4456 38.678 85.4442Z" fill="black"/>
<path d="M59.4475 84.0808H63.9489C72.6269 84.0808 79.6619 77.0222 79.6619 68.315C79.6619 66.333 78.0606 64.7266 76.0854 64.7266H59.4475C54.1208 64.7266 49.8027 69.0592 49.8027 74.4038C49.8027 79.7482 54.1208 84.0808 59.4475 84.0808Z" fill="#4C3ED9"/>
<path d="M62.3639 78.4676C62.3639 66.2425 58.6187 56.332 43.6458 56.332C28.6729 56.332 24.9277 66.2425 24.9277 78.4676C24.9277 90.6926 33.3081 97.9547 43.6458 97.9547C53.9836 97.9547 62.3639 90.6926 62.3639 78.4676Z" fill="#4C3ED9"/>
<path d="M43.6465 56.332V71.9269C43.6465 78.9801 49.3452 84.6978 56.3746 84.6978C58.3481 84.6978 60.217 84.2468 61.8838 83.4424C62.1947 81.8426 62.3643 80.179 62.3643 78.4676C62.3646 66.2425 58.6194 56.332 43.6465 56.332Z" fill="white"/>
<path opacity="0.1" d="M43.6463 56.332C34.5739 56.332 29.6245 59.9712 27.1318 65.5585C29.8273 67.5174 33.1391 68.6757 36.7219 68.6757H61.2557C59.2804 61.3625 54.3128 56.332 43.6463 56.332Z" fill="black"/>
<path d="M118.145 67.5435C115.021 65.6999 111.462 64.7278 107.838 64.7278H61.502V52.5117H114.789L123 58.335V64.7569C123 67.257 120.293 68.8108 118.145 67.5435Z" fill="#F4B759"/>
<path opacity="0.1" d="M118.145 67.5435C115.021 65.6999 111.462 64.7278 107.838 64.7278H61.502V52.5117H114.789L123 58.335V64.7569C123 67.257 120.293 68.8108 118.145 67.5435Z" fill="#F4B759"/>
<path d="M61.5013 64.7273H36.7215C27.6802 64.7273 20.3506 57.3732 20.3506 48.3013C20.3506 32.5823 33.0504 19.8398 48.7167 19.8398H61.5011L61.5013 64.7273Z" fill="#4C3ED9"/>
<path d="M121.144 63.0332L117.562 60.0378C113.392 56.5511 108.136 54.6418 102.707 54.6418H61.502V19.8398H85.4842C106.204 19.8398 123 36.6928 123 57.4821V62.1607C123 63.1236 121.881 63.6495 121.144 63.0332Z" fill="#F3C74F"/>
<path d="M85.6372 12.6471L82.7103 13.5071C80.8392 14.0569 79.1025 12.3144 79.6505 10.437L80.5076 7.50026C80.6398 7.0466 80.6398 6.56348 80.5076 6.10983L79.6505 3.1731C79.1025 1.29567 80.8392 -0.446831 82.7103 0.102982L85.6372 0.962986C86.0893 1.09637 86.5708 1.09637 87.023 0.962986L89.9499 0.102982C91.821 -0.446831 93.5577 1.29567 93.0097 3.1731L92.1526 6.10983C92.0196 6.56348 92.0196 7.0466 92.1526 7.50026L93.0097 10.437C93.5577 12.3144 91.821 14.0569 89.9499 13.5071L87.023 12.6471C86.5708 12.5137 86.0893 12.5137 85.6372 12.6471Z" fill="#A3DEFE"/>
<path d="M17.4973 24.6896L16.6545 21.8025C16.116 19.9574 17.824 18.2445 19.6621 18.7848L22.5396 19.6304C22.9849 19.7618 23.4579 19.7618 23.9024 19.6304L26.7798 18.7848C28.6188 18.2445 30.326 19.9574 29.7875 21.8025L28.9446 24.6896C28.8144 25.1364 28.8144 25.611 28.9446 26.057L29.7875 28.9441C30.326 30.7892 28.6188 32.5021 26.7798 31.9618L23.9024 31.1162C23.4571 30.9855 22.9849 30.9855 22.5396 31.1162L19.6621 31.9618C17.824 32.5021 16.116 30.7892 16.6545 28.9441L17.4973 26.057C17.6283 25.611 17.6283 25.1364 17.4973 24.6896Z" fill="#7ACEFA"/>
<path d="M3.50587 10.8358L1.136 9.53503C-0.378666 8.70422 -0.378666 6.5212 1.136 5.68961L3.50587 4.38962C3.87249 4.18854 4.17387 3.88614 4.37428 3.51828L5.67067 1.14042C6.49869 -0.380139 8.67437 -0.380139 9.50316 1.14042L10.7996 3.51828C11 3.88614 11.3013 4.18854 11.6672 4.38962L14.0378 5.68961C15.5525 6.5212 15.5525 8.70422 14.0378 9.53503L11.6672 10.8358C11.3013 11.0369 11 11.3393 10.7996 11.7071L9.50316 14.085C8.67437 15.6048 6.49869 15.6048 5.67067 14.085L4.37428 11.7071C4.17387 11.3393 3.87249 11.0369 3.50587 10.8358Z" fill="#8EAFE2"/>
<path d="M43.0493 64.7265H61.5016V30.8242H47.4513C37.7219 30.8242 29.835 38.7379 29.835 48.4998V51.4673C29.8345 58.7902 35.7511 64.7265 43.0493 64.7265Z" fill="white"/>
<path d="M45.751 51.2116C45.751 48.6631 43.075 46.5977 39.7731 46.5977C36.472 46.5977 33.7959 48.6631 33.7959 51.2116C33.7959 53.7594 36.472 55.8248 39.7731 55.8248C43.075 55.8248 45.751 53.7594 45.751 51.2116Z" fill="#EDA1AB"/>
<path d="M44.0757 47.2831C45.0544 47.2831 45.8486 46.4862 45.8486 45.5042V42.1461C45.8486 41.164 45.0544 40.3672 44.0757 40.3672C43.0969 40.3672 42.3027 41.164 42.3027 42.1461V45.5042C42.3027 46.4862 43.0969 47.2831 44.0757 47.2831Z" fill="#4A5058"/>
<path opacity="0.15" d="M26.1461 68.2812C25.2674 71.3299 24.9287 74.7929 24.9287 78.4653C24.9287 81.8929 25.5881 84.9301 26.7641 87.5268C31.4944 86.9068 35.1476 82.8498 35.1476 77.9347C35.1476 72.8072 31.1725 68.6137 26.1461 68.2812Z" fill="black"/>
<path d="M25.5026 84.0808H21.0013C12.323 84.0808 5.28809 77.0222 5.28809 68.315C5.28809 66.333 6.88939 64.7266 8.86451 64.7266H25.5026C30.8293 64.7266 35.1474 69.0592 35.1474 74.4038C35.1474 79.7482 30.8291 84.0808 25.5026 84.0808Z" fill="#4C3ED9"/>
<path d="M41.8003 102.625C40.0671 102.625 38.6621 101.215 38.6621 99.4763V94.5589C38.6621 92.8201 40.0671 91.4102 41.8003 91.4102C43.5336 91.4102 44.9386 92.8201 44.9386 94.5589V99.4763C44.9383 101.215 43.5331 102.625 41.8003 102.625Z" fill="#F4B759"/>
<path d="M53.8511 102.625C52.1178 102.625 50.7129 101.215 50.7129 99.4763V94.5589C50.7129 92.8201 52.1178 91.4102 53.8511 91.4102C55.5844 91.4102 56.9893 92.8201 56.9893 94.5589V99.4763C56.9893 101.215 55.5842 102.625 53.8511 102.625Z" fill="#F4B759"/>
<path d="M43.4445 33.5744L38.9625 38.0715C37.0802 39.9601 37.413 43.1102 39.649 44.5611L41.0543 45.4741C43.4166 47.0072 46.5264 46.6765 48.5159 44.6802L50.0311 43.1599C52.0213 41.1631 52.3503 38.0435 50.8224 35.6732L49.913 34.2625C48.4664 32.0197 45.3268 31.6858 43.4445 33.5744Z" fill="#4E5660"/>
<path d="M58.9214 22.4493C58.8774 22.4934 58.8286 22.5348 58.7759 22.5723C57.2504 23.6592 55.2049 25.2026 52.9132 27.502C50.622 29.8008 49.0837 31.8532 48 33.3845C47.5543 34.014 46.5915 34.0427 45.8503 33.4458C45.1092 32.849 44.8699 31.8544 45.3166 31.2238C46.4516 29.6208 48.0639 27.4712 50.4732 25.0538C52.883 22.6359 55.0254 21.0182 56.623 19.8794C57.2515 19.4312 58.2428 19.6712 58.8376 20.4149C59.3827 21.0962 59.4048 21.9643 58.9214 22.4493Z" fill="#E26E7E"/>
<path d="M51.2506 44.3831L49.7354 45.9034C47.1877 48.4597 43.1431 48.8898 40.1185 46.9267L38.7125 46.0143C37.2075 45.0369 36.2359 43.4516 36.0473 41.6631C35.8587 39.8745 36.4765 38.1191 37.7441 36.8474L42.2255 32.3509C43.493 31.0791 45.2425 30.4591 47.0251 30.6483C48.807 30.8382 50.3876 31.8125 51.3611 33.3232L52.2705 34.7339C54.227 37.7687 53.7983 41.8268 51.2506 44.3831ZM40.182 39.2947C39.6549 39.8236 39.3983 40.5538 39.4764 41.2986C39.5552 42.0428 39.9597 42.7023 40.5858 43.1088L41.9905 44.0212C43.6594 45.1044 45.8909 44.8674 47.2969 43.4567L48.8121 41.9364C50.2174 40.5264 50.4536 38.2874 49.3741 36.6129L48.4647 35.2022C48.0602 34.5746 47.4023 34.1693 46.6606 34.0903C45.9189 34.0113 45.1911 34.2687 44.6634 34.7982L40.182 39.2947Z" fill="#E26E7E"/>
<path d="M55.2569 23.0164L59.739 18.5192C61.6212 16.6307 64.7608 16.9646 66.2068 19.208L67.1168 20.6181C68.6447 22.9883 68.3151 26.1085 66.3255 28.1048L64.8103 29.6251C62.8201 31.622 59.711 31.952 57.3487 30.419L55.9427 29.5066C53.7074 28.0551 53.374 24.9056 55.2569 23.0164Z" fill="#4E5660"/>
<path d="M67.5445 29.3285L66.0294 30.8487C63.4816 33.4051 59.4371 33.8351 56.4118 31.8714L55.0064 30.9596C53.5014 29.9822 52.5298 28.3969 52.3412 26.6084C52.1526 24.8198 52.7705 23.0645 54.038 21.7927L58.5194 17.2962C59.787 16.0244 61.5359 15.4051 63.3184 15.5943C65.1009 15.7835 66.6815 16.7578 67.655 18.2685L68.5644 19.6779C70.5209 22.714 70.0923 26.7721 67.5445 29.3285ZM56.4759 24.24C55.9488 24.7689 55.6916 25.4997 55.7704 26.2439C55.8491 26.9881 56.253 27.6482 56.8792 28.0548L58.2845 28.9665C59.9534 30.0497 62.1849 29.8127 63.5902 28.4026L65.106 26.8817C66.5113 25.4717 66.7476 23.2327 65.668 21.5582L64.7586 20.1475C64.3535 19.5193 63.6956 19.114 62.9539 19.035C62.2128 18.9566 61.4844 19.2147 60.9573 19.7435L56.4759 24.24Z" fill="#E26E7E"/>
</g>
<defs>
<clipPath id="clip0_9724_44171">
<rect width="123" height="115" fill="white"/>
</clipPath>
</defs>
</svg>
