<svg width="512" height="419" viewBox="0 0 512 419" fill="none" xmlns="http://www.w3.org/2000/svg">
<path d="M169.005 345.887L152.624 380.097C136.323 414.141 95.5104 428.526 61.4644 412.225C53.7154 408.514 50.4414 399.225 54.1514 391.475L93.3294 309.652C103.335 288.755 128.387 279.925 149.284 289.931C170.182 299.939 179.011 324.99 169.005 345.887Z" fill="#4C3ED9"/>
<path opacity="0.15" d="M149.285 289.934C128.388 279.928 103.336 288.757 93.3303 309.654L87.6753 321.465C102.548 341.202 126.029 352.095 152.465 352.095C157.273 352.095 161.976 351.714 166.556 351.005L169.006 345.888C179.011 324.99 170.182 299.939 149.285 289.934Z" fill="black"/>
<path d="M235.576 278.49H255.155C292.901 278.49 323.5 247.891 323.5 210.145C323.5 201.553 316.535 194.589 307.944 194.589H235.576C212.407 194.589 193.625 213.371 193.625 236.54C193.625 259.708 212.407 278.49 235.576 278.49Z" fill="#4C3ED9"/>
<path d="M248.259 254.15C248.259 201.154 231.969 158.192 166.843 158.192C101.717 158.192 85.4272 201.154 85.4272 254.15C85.4272 307.146 121.878 338.627 166.843 338.627C211.808 338.627 248.259 307.146 248.259 254.15Z" fill="#4C3ED9"/>
<path d="M166.843 158.192V225.796C166.843 256.372 191.63 281.158 222.205 281.158C230.789 281.158 238.918 279.203 246.168 275.716C247.52 268.781 248.258 261.569 248.258 254.15C248.259 201.154 231.969 158.192 166.843 158.192Z" fill="white"/>
<path opacity="0.1" d="M166.844 158.192C127.383 158.192 105.855 173.968 95.0127 198.189C106.737 206.681 121.142 211.702 136.726 211.702H243.438C234.846 179.999 213.239 158.192 166.844 158.192Z" fill="black"/>
<path d="M490.88 206.794C477.292 198.802 461.813 194.588 446.049 194.588H244.507V141.631H476.284L512 166.875V194.714C512 205.552 500.223 212.288 490.88 206.794Z" fill="#F4B759"/>
<path opacity="0.1" d="M490.88 206.794C477.292 198.802 461.813 194.588 446.049 194.588H244.507V141.631H476.284L512 166.875V194.714C512 205.552 500.223 212.288 490.88 206.794Z" fill="#F4B759"/>
<path d="M244.508 194.588H136.726C97.3996 194.588 65.5186 162.708 65.5186 123.381C65.5186 55.239 120.758 0 188.9 0H244.507L244.508 194.588Z" fill="#4C3ED9"/>
<path d="M503.926 187.244L488.345 174.259C470.207 159.144 447.344 150.867 423.733 150.867H244.507V0H348.82C438.942 0 512 73.058 512 163.18V183.462C512 187.636 507.132 189.916 503.926 187.244Z" fill="#F3C74F"/>
<path d="M164.248 194.588H244.508V47.6211H183.395C141.076 47.6211 106.771 81.9271 106.771 124.245V137.109C106.769 168.854 132.504 194.588 164.248 194.588Z" fill="white"/>
<path d="M168.712 118.98C172.969 118.98 176.423 115.526 176.423 111.269V96.7115C176.423 92.4542 172.969 89 168.712 89C164.455 89 161 92.4542 161 96.7115V111.269C161 115.526 164.455 118.98 168.712 118.98Z" fill="#4A5058"/>
<path d="M176 136.001C176 124.954 164.361 116 149.999 116C135.64 116 124 124.954 124 136.001C124 147.046 135.64 156 149.999 156C164.361 156 176 147.046 176 136.001Z" fill="#EDA1AB"/>
<path opacity="0.15" d="M90.7237 210.002C86.9017 223.218 85.4287 238.23 85.4287 254.15C85.4287 269.009 88.2967 282.175 93.4117 293.432C113.987 290.744 129.877 273.157 129.877 251.85C129.877 229.622 112.587 211.443 90.7237 210.002Z" fill="black"/>
<path d="M87.9255 278.49H68.3465C30.5995 278.49 0.000488281 247.891 0.000488281 210.145C0.000488281 201.553 6.96549 194.589 15.5565 194.589H87.9255C111.094 194.589 129.876 213.371 129.876 236.54C129.876 259.708 111.093 278.49 87.9255 278.49Z" fill="#4C3ED9"/>
<path d="M158.816 358.889C151.277 358.889 145.167 352.777 145.167 345.239V323.922C145.167 316.384 151.277 310.272 158.816 310.272C166.355 310.272 172.467 316.384 172.467 323.922V345.239C172.466 352.777 166.353 358.889 158.816 358.889Z" fill="#F4B759"/>
<path d="M211.23 358.889C203.691 358.889 197.581 352.777 197.581 345.239V323.922C197.581 316.384 203.691 310.272 211.23 310.272C218.769 310.272 224.881 316.384 224.881 323.922V345.239C224.881 352.777 218.768 358.889 211.23 358.889Z" fill="#F4B759"/>
</svg>
