<svg width="657" height="631" viewBox="0 0 657 631" fill="none" xmlns="http://www.w3.org/2000/svg">
<path d="M381.154 166.071C373.691 192.067 399.345 248.626 433.71 264.365C364.715 304.199 242.167 354.01 242.167 354.01L198.598 289.125L224.661 256.423L381.154 166.071Z" fill="#E1A954"/>
<path d="M210.195 513.411L244.326 529.956C278.292 546.42 292.481 587.301 276.017 621.269C272.269 629 262.965 632.229 255.233 628.482L173.598 588.913C152.749 578.807 144.039 553.713 154.145 532.864C164.253 512.014 189.346 503.305 210.195 513.411Z" fill="#4C3ED9"/>
<path opacity="0.15" d="M220.915 502.489C193.122 497.259 162.225 506.457 153.559 529.5L151.059 542.999C173.12 559.268 203.229 569.563 236.102 563.59C242.081 562.503 265.492 554.24 271.059 552.5L268.059 542.999C276.724 519.956 248.708 507.717 220.915 502.489Z" fill="black"/>
<path d="M155.893 516.568L137.803 524.058C102.929 538.499 62.9514 521.934 48.5106 487.06C45.2235 479.122 48.9943 470.023 56.9317 466.736L123.794 439.05C145.201 430.186 169.739 440.353 178.603 461.76C187.467 483.165 177.299 507.704 155.893 516.568Z" fill="#4C3ED9"/>
<path d="M285.333 429.414C258.835 383.518 223.246 354.457 166.845 387.02C110.445 419.583 117.818 464.934 144.316 510.83C170.814 556.726 218.122 565.764 257.063 543.282C296.004 520.799 311.831 475.31 285.333 429.414Z" fill="#4C3ED9"/>
<path d="M166.845 387.02L200.647 445.567C215.935 472.046 249.794 481.118 276.273 465.831C283.707 461.539 289.769 455.781 294.305 449.136C292.008 442.454 289.041 435.84 285.332 429.415C258.835 383.518 223.246 354.457 166.845 387.02Z" fill="white"/>
<path opacity="0.1" d="M166.846 387.02C132.672 406.75 121.916 431.176 124.637 457.573C139.036 459.066 154.022 456.212 167.518 448.42L259.933 395.064C236.641 371.904 207.025 363.822 166.846 387.02Z" fill="black"/>
<path d="M471.771 267.092C456.007 266.964 440.495 271.054 426.843 278.936L252.302 379.707L225.824 333.845L426.548 217.957L470.101 221.961L484.021 246.07C489.44 255.456 482.609 267.178 471.771 267.092Z" fill="#F4B759"/>
<path d="M471.771 267.092C456.007 266.964 440.495 271.054 426.843 278.936L252.302 379.707L225.824 333.845L426.548 217.957C426.548 217.957 441.937 209.227 452.071 211.153C460.136 212.685 470.101 221.961 470.101 221.961L484.021 246.07C489.44 255.456 482.609 267.178 471.771 267.092Z" fill="#F4B759"/>
<path d="M252.303 379.707L158.961 433.598C124.904 453.261 81.354 441.593 61.6905 407.535C27.6195 348.522 47.8384 273.064 106.851 238.993L155.008 211.19L252.303 379.707Z" fill="#4C3ED9"/>
<path d="M437 179.964L416.8 181.8C393.287 183.937 371.268 194.251 354.572 210.947L227.84 337.679L154.977 211.476L194.922 157.239C258.647 93.5132 361.967 93.5132 425.693 157.239L440.034 171.581C442.986 174.532 441.156 179.586 437 179.964Z" fill="#F3C74F"/>
<path d="M182.797 419.837L252.304 379.707L178.82 252.429L125.895 282.986C89.2456 304.145 76.6896 351.008 97.8486 387.656L104.281 398.797C120.151 426.29 155.306 435.709 182.797 419.837Z" fill="white"/>
<path d="M163.681 363.223C158.157 353.655 143.599 351.721 131.162 358.902C118.727 366.081 113.123 379.655 118.647 389.223C124.17 398.788 138.727 400.722 151.162 393.543C163.599 386.362 169.203 372.788 163.681 363.223Z" fill="#EDA1AB"/>
<path d="M160.835 344.678C156.918 346.939 151.909 345.597 149.647 341.68C148.105 339.009 144.679 338.09 142.008 339.632C139.337 341.174 138.419 344.601 139.961 347.272C142.222 351.189 140.88 356.199 136.963 358.46C133.046 360.722 128.037 359.379 125.775 355.462C119.717 344.97 123.324 331.505 133.818 325.447C144.31 319.389 157.773 322.997 163.832 333.49C166.094 337.407 164.752 342.416 160.835 344.678Z" fill="#4A5058"/>
<path opacity="0.15" d="M118.661 463.706C122.011 477.05 128.293 490.763 136.306 504.52C143.785 517.359 152.89 527.293 162.975 534.445C179.401 521.767 184.28 498.572 173.556 480.161C162.369 460.954 138.279 453.947 118.661 463.706Z" fill="black"/>
<path d="M151.764 539.512L134.846 549.367C102.228 568.365 60.3866 557.325 41.3886 524.709C37.0642 517.284 39.5776 507.761 47.0011 503.437L109.535 467.013C129.556 455.352 155.239 462.128 166.9 482.149C178.561 502.168 171.783 527.851 151.764 539.512Z" fill="#4C3ED9"/>
<path d="M295.996 559.73C291.271 565.605 282.678 566.536 276.804 561.812L260.193 548.452C254.319 543.728 253.386 535.136 258.111 529.261C262.836 523.386 271.429 522.455 277.303 527.179L293.914 540.539C299.787 545.264 300.719 553.857 295.996 559.73Z" fill="#F4B759"/>
<path d="M312.214 526.852C307.489 532.726 298.897 533.658 293.023 528.934L276.412 515.574C270.538 510.849 269.605 502.257 274.33 496.382C279.055 490.508 287.647 489.576 293.521 494.3L310.132 507.66C316.006 512.385 316.938 520.978 312.214 526.852Z" fill="#F4B759"/>
<path d="M636.944 102.199L651.333 92.7085C658.301 88.1112 658.301 77.8887 651.333 73.2915L636.944 63.8015C632.973 61.1832 631 56.4125 631.955 51.7574L635.418 34.872C637.098 26.6927 629.866 19.4644 621.69 21.1413L604.802 24.6045C600.147 25.5619 595.376 23.5861 592.758 19.6153L583.268 5.2261C578.67 -1.74203 568.448 -1.74203 563.851 5.2261L554.361 19.6153C551.742 23.5861 546.972 25.5619 542.317 24.6045L525.428 21.1413C517.252 19.4611 510.023 26.6927 511.7 34.8688L515.164 51.7542C516.121 56.4125 514.145 61.1832 510.174 63.8015L495.785 73.2915C488.817 77.8887 488.817 88.1112 495.785 92.7085L510.174 102.199C514.145 104.817 516.121 109.587 515.164 114.243L511.7 131.131C510.023 139.307 517.252 146.536 525.428 144.859L542.317 141.395C546.972 140.438 551.742 142.414 554.361 146.385L563.851 160.774C568.448 167.742 578.67 167.742 583.268 160.774L592.758 146.385C595.376 142.414 600.147 140.438 604.802 141.395L621.69 144.859C629.866 146.536 637.095 139.307 635.418 131.131L631.955 114.243C630.997 109.587 632.973 104.817 636.944 102.199Z" fill="#E26E7E"/>
<path d="M622.559 83C622.559 110.063 600.622 132 573.559 132C546.496 132 524.559 110.063 524.559 83C524.559 55.9399 546.496 34 573.559 34C600.622 34 622.559 55.9399 622.559 83Z" fill="#F7EF87"/>
<path d="M124.864 309.967L120.486 337.188C118.647 348.619 127.82 358.838 139.386 358.238L146.659 357.865C158.879 357.231 169.002 348.146 170.945 336.063L172.426 326.861C174.37 314.774 167.607 302.976 156.202 298.542L149.414 295.903C138.619 291.709 126.703 298.536 124.864 309.967Z" fill="#4E5660"/>
<path d="M151.169 231.447C151.126 231.714 151.059 231.984 150.969 232.25C148.351 239.956 145.06 250.59 142.822 264.508C140.583 278.423 140.373 289.553 140.441 297.694C140.469 301.042 137.147 303.596 133.019 303.387C128.891 303.179 125.522 300.294 125.495 296.941C125.425 288.417 125.649 276.756 128.003 262.124C130.357 247.489 133.801 236.347 136.541 228.275C137.618 225.099 141.722 223.416 145.707 224.513C149.359 225.518 151.642 228.511 151.169 231.447Z" fill="#E26E7E"/>
<path d="M179.831 328.052L178.35 337.254C175.861 352.727 162.696 364.544 147.049 365.354L139.775 365.731C131.988 366.132 124.537 363.038 119.33 357.235C114.123 351.432 111.843 343.69 113.081 335.993L117.46 308.776C118.698 301.078 123.291 294.442 130.055 290.565C136.818 286.691 144.864 286.087 152.133 288.914L158.921 291.553C173.525 297.229 182.32 312.579 179.831 328.052ZM127.89 338.379C127.376 341.58 128.326 344.799 130.492 347.217C132.66 349.631 135.761 350.917 139 350.75L146.269 350.376C154.903 349.929 162.167 343.41 163.541 334.871L165.021 325.669C166.394 317.135 161.541 308.666 153.483 305.534L146.694 302.895C143.675 301.721 140.326 301.974 137.511 303.586C134.696 305.199 132.784 307.957 132.269 311.162L127.89 338.379Z" fill="#E26E7E"/>
<path d="M139.694 242.781L144.073 215.56C145.912 204.129 157.827 197.302 168.622 201.5L175.41 204.135C186.816 208.569 193.578 220.371 191.634 232.454L190.154 241.656C188.21 253.743 178.088 262.824 165.867 263.458L158.594 263.835C147.028 264.431 137.855 254.216 139.694 242.781Z" fill="#4E5660"/>
<path d="M199.039 233.645L197.559 242.847C195.07 258.32 181.905 270.137 166.253 270.946L158.984 271.324C151.196 271.725 143.745 268.631 138.538 262.828C133.331 257.025 131.052 249.284 132.29 241.586L136.668 214.369C137.907 206.671 142.499 200.039 149.263 196.162C156.027 192.285 164.073 191.68 171.341 194.507L178.126 197.141C192.733 202.823 201.528 218.172 199.039 233.645ZM147.099 243.972C146.584 247.173 147.533 250.396 149.701 252.81C151.868 255.224 154.969 256.514 158.208 256.347L165.478 255.969C174.111 255.522 181.376 249.003 182.749 240.469L184.229 231.263C185.602 222.728 180.749 214.26 172.691 211.128L165.903 208.489C162.879 207.314 159.531 207.567 156.716 209.179C153.904 210.792 151.992 213.555 151.477 216.756L147.099 243.972Z" fill="#E26E7E"/>
</svg>
