<svg width="568" height="450" viewBox="0 0 568 450" fill="none" xmlns="http://www.w3.org/2000/svg">
<path d="M225.005 376.887L208.624 411.097C192.323 445.141 151.51 459.526 117.464 443.225C109.715 439.514 106.441 430.225 110.151 422.475L149.329 340.652C159.335 319.755 184.387 310.925 205.284 320.931C226.182 330.939 235.011 355.99 225.005 376.887Z" fill="#4C3ED9"/>
<path opacity="0.15" d="M205.285 320.934C184.388 310.928 159.336 319.757 149.33 340.654L143.675 352.465C158.548 372.202 182.029 383.095 208.465 383.095C213.273 383.095 217.976 382.714 222.556 382.005L225.006 376.888C235.011 355.99 226.182 330.939 205.285 320.934Z" fill="black"/>
<path d="M289.237 309.798L308.149 304.731C344.608 294.962 366.245 257.486 356.476 221.026C354.252 212.727 345.722 207.803 337.424 210.026L267.522 228.756C245.142 234.753 231.861 257.756 237.858 280.136C243.854 302.514 266.857 315.795 289.237 309.798Z" fill="#4C3ED9"/>
<path d="M304.259 285.15C304.259 232.154 287.969 189.192 222.843 189.192C157.717 189.192 141.427 232.154 141.427 285.15C141.427 338.146 177.878 369.627 222.843 369.627C267.808 369.627 304.259 338.146 304.259 285.15Z" fill="#4C3ED9"/>
<path d="M222.843 189.192V256.796C222.843 287.372 247.63 312.158 278.205 312.158C286.789 312.158 294.918 310.203 302.168 306.716C303.52 299.781 304.258 292.569 304.258 285.15C304.259 232.154 287.969 189.192 222.843 189.192Z" fill="white"/>
<path opacity="0.1" d="M222.843 189.192C183.382 189.192 161.854 204.968 151.012 229.189C162.736 237.681 177.141 242.702 192.725 242.702H299.437C290.845 210.999 269.238 189.192 222.843 189.192Z" fill="black"/>
<path d="M546.88 237.794C533.292 229.802 517.813 225.588 502.049 225.588H300.507V172.631H532.284L568 197.875V225.714C568 236.552 556.223 243.288 546.88 237.794Z" fill="#F4B759"/>
<path opacity="0.1" d="M546.88 237.794C533.292 229.802 517.813 225.588 502.049 225.588H300.507V172.631H532.284L568 197.875V225.714C568 236.552 556.223 243.288 546.88 237.794Z" fill="#F4B759"/>
<path d="M300.507 225.588H192.725C153.399 225.588 121.518 193.708 121.518 154.381C121.518 86.239 176.757 31 244.899 31H300.506L300.507 225.588Z" fill="#4C3ED9"/>
<path d="M559.926 218.244L544.345 205.259C526.207 190.144 503.344 181.867 479.733 181.867H300.507V31H404.82C494.942 31 568 104.058 568 194.18V214.462C568 218.636 563.132 220.916 559.926 218.244Z" fill="#F3C74F"/>
<path d="M134.664 8.36719C130.031 8.36719 125.562 9.07031 121.355 10.375C112.52 3.85938 101.602 0 89.7773 0C77.9531 0 67.0352 3.85547 58.1992 10.375C53.9922 9.07031 49.5234 8.36719 44.8906 8.36719C20.0977 8.36719 0 28.4648 0 53.2578C0 78.0469 20.0977 98.1445 44.8906 98.1445C49.5234 98.1445 53.9922 97.4414 58.1992 96.1367C67.0352 102.656 77.9531 106.516 89.7773 106.516C101.602 106.516 112.52 102.656 121.355 96.1367C125.562 97.4414 130.031 98.1445 134.664 98.1445C159.457 98.1445 179.555 78.0469 179.555 53.2578C179.555 28.4648 159.457 8.36719 134.664 8.36719Z" fill="#A3DEFE"/>
<path d="M76.8633 1.57812C70.0234 3.28516 63.7031 6.3125 58.1992 10.375C53.9922 9.07031 49.5234 8.36719 44.8867 8.36719C20.0977 8.36719 0 28.4648 0 53.2578C0 78.0469 20.0977 98.1445 44.8867 98.1445C49.5234 98.1445 53.9922 97.4414 58.1992 96.1367C67.0352 102.656 77.9531 106.516 89.7773 106.516C98.0586 106.516 105.895 104.617 112.883 101.242C58.7188 80.6289 62.6758 25.3984 76.8633 1.57812Z" fill="#7ACEFA"/>
<path d="M62.3672 53.2578C62.3672 60.1641 56.7695 65.7656 49.8594 65.7656C42.9531 65.7656 37.3516 60.1641 37.3516 53.2578C37.3516 46.3477 42.9531 40.7461 49.8594 40.7461C56.7695 40.7461 62.3672 46.3477 62.3672 53.2578Z" fill="white"/>
<path d="M142.203 53.2578C142.203 60.1641 136.601 65.7656 129.695 65.7656C122.785 65.7656 117.183 60.1641 117.183 53.2578C117.183 46.3477 122.785 40.7461 129.695 40.7461C136.601 40.7461 142.203 46.3477 142.203 53.2578Z" fill="white"/>
<path d="M102.285 53.2578C102.285 60.1641 96.6836 65.7656 89.7773 65.7656C82.8672 65.7656 77.2695 60.1641 77.2695 53.2578C77.2695 46.3477 82.8672 40.7461 89.7773 40.7461C96.6836 40.7461 102.285 46.3477 102.285 53.2578Z" fill="white"/>
<path d="M220.248 225.588H300.508V78.6211H239.395C197.076 78.6211 162.771 112.927 162.771 155.245V168.109C162.769 199.854 188.504 225.588 220.248 225.588Z" fill="white"/>
<path d="M224.711 150.98C228.969 150.98 232.423 147.526 232.423 143.269V128.711C232.423 124.454 228.969 121 224.711 121C220.454 121 217 124.454 217 128.711V143.269C217 147.526 220.454 150.98 224.711 150.98Z" fill="#4A5058"/>
<path d="M232 167.001C232 155.954 220.36 147 205.998 147C191.64 147 180 155.954 180 167.001C180 178.046 191.64 187 205.998 187C220.36 187 232 178.046 232 167.001Z" fill="#EDA1AB"/>
<path d="M214.816 389.889C207.277 389.889 201.166 383.777 201.166 376.239V354.922C201.166 347.384 207.277 341.272 214.816 341.272C222.355 341.272 228.466 347.384 228.466 354.922V376.239C228.465 383.777 222.353 389.889 214.816 389.889Z" fill="#F4B759"/>
<path d="M267.23 389.889C259.691 389.889 253.58 383.777 253.58 376.239V354.922C253.58 347.384 259.691 341.272 267.23 341.272C274.769 341.272 280.88 347.384 280.88 354.922V376.239C280.88 383.777 274.768 389.889 267.23 389.889Z" fill="#F4B759"/>
<path opacity="0.15" d="M220.237 319.799L239.149 314.731C275.61 304.962 297.246 267.486 287.477 231.026C285.253 222.727 276.723 217.803 268.425 220.026L198.522 238.757C176.142 244.753 162.861 267.756 168.858 290.136C174.854 312.515 197.858 325.795 220.237 319.799Z" fill="black"/>
<path d="M220.403 309.799L239.314 304.731C275.775 294.962 297.412 257.486 287.643 221.026C285.419 212.727 276.889 207.803 268.591 210.026L198.687 228.757C176.308 234.753 163.027 257.756 169.024 280.136C175.02 302.515 198.024 315.795 220.403 309.799Z" fill="#4C3ED9"/>
</svg>
