<svg width="55" height="43" viewBox="0 0 55 43" fill="none" xmlns="http://www.w3.org/2000/svg">
<path d="M48.9595 0.00502064C48.8379 0.0233253 48.7241 0.0759017 48.632 0.156509C48.5398 0.237116 48.4731 0.342306 48.4399 0.459447L45.3625 11.386H10.2315V1.90185C10.2315 1.73416 10.1641 1.57333 10.0442 1.45475C9.9243 1.33618 9.76166 1.26959 9.59206 1.26957H5.4355C2.44143 1.26957 0 3.6395 0 6.56491V37.7047C0 40.6301 2.44143 43 5.4355 43H47.9603C48.1299 43 48.2926 42.9334 48.4125 42.8148C48.5324 42.6962 48.5998 42.5354 48.5998 42.3677V25.3949C48.5981 25.2912 48.5707 25.1894 48.5199 25.0986C48.52 25.0921 48.52 25.0855 48.5199 25.079L54.9745 2.13913C54.9986 2.05739 55.0057 1.97167 54.9955 1.88714C54.9852 1.80261 54.9578 1.72104 54.9149 1.64723C54.872 1.57343 54.8144 1.50893 54.7457 1.45765C54.6769 1.40637 54.5985 1.36937 54.5149 1.34881L49.2193 0.024936C49.135 0.000803133 49.0465 -0.00609869 48.9595 0.00502064ZM49.4991 1.3881L53.5557 2.41556L45.0228 32.7847L42.0852 35.4917L40.9461 31.7573L49.4991 1.3881ZM5.4355 2.53412H8.95259V11.386H5.4355C3.25775 11.386 1.50449 9.78956 1.29893 7.75042C1.29609 7.71036 1.28939 7.67069 1.27894 7.63189V6.56491C1.27894 4.33003 3.11708 2.53412 5.4355 2.53412ZM1.27894 10.6155C2.27611 11.818 3.72923 12.6506 5.4355 12.6506H45.0028L39.6672 31.5992C39.6328 31.7153 39.6328 31.8387 39.6672 31.9548L41.146 36.855C41.1769 36.9596 41.2346 37.0545 41.3135 37.1306C41.3925 37.2066 41.4899 37.2612 41.5965 37.2891C41.7031 37.3169 41.8151 37.317 41.9217 37.2894C42.0284 37.2619 42.126 37.2075 42.2051 37.1317L46.0219 33.5948C46.1086 33.5145 46.1708 33.4118 46.2018 33.2985L47.3209 29.327V41.7355H5.4355C3.11708 41.7355 1.27894 39.9395 1.27894 37.7047V10.6155ZM13.7286 21.5025C12.2919 21.5089 10.6718 21.693 8.81271 22.115C8.64575 22.1517 8.50037 22.2524 8.40855 22.3951C8.31673 22.5377 8.28599 22.7106 8.32309 22.8757C8.36019 23.0408 8.46209 23.1845 8.60638 23.2753C8.75067 23.3661 8.92552 23.3965 9.09248 23.3598C16.2262 21.7404 19.2234 23.6292 22.2416 25.6914C25.2598 27.7536 28.3542 30.0505 34.6713 28.6354C34.7547 28.618 34.8339 28.5844 34.9041 28.5365C34.9743 28.4887 35.0342 28.4276 35.0804 28.3567C35.1266 28.2858 35.158 28.2066 35.173 28.1236C35.188 28.0406 35.1862 27.9555 35.1677 27.8732C35.1492 27.7909 35.1144 27.713 35.0653 27.6441C35.0161 27.5752 34.9537 27.5166 34.8815 27.4717C34.8093 27.4269 34.7288 27.3966 34.6447 27.3827C34.5606 27.3687 34.4746 27.3715 34.3915 27.3906C28.4346 28.725 26.0212 26.735 22.961 24.6441C20.6659 23.0759 18.0388 21.4855 13.7286 21.5025Z" fill="black"/>
</svg>
