<?xml version="1.0" encoding="utf-8"?>
<svg version="1.1" id="Layer_1" xmlns="http://www.w3.org/2000/svg" xmlns:xlink="http://www.w3.org/1999/xlink" x="0px" y="0px"
	 viewBox="4.782 7.5871 1274.218 1906.6958" enable-background="new 4.782 7.5871 1274.218 1906.6958" xml:space="preserve">
<g id="_x23_ffffffff">
</g>
<g id="_x23_000000ff">
	<path stroke="#000000" stroke-width="0.0938" d="M331.95,94.93c18.79-28.44,46.05-50.38,75.69-66.72
		c66.62,145.29,133.12,290.63,199.87,435.86c3.03-26.88,5.59-53.82,8.42-80.73c4.12-40.96,11.42-82.07,27.11-120.32
		c7.95-19.11,18.22-37.46,31.92-53.06c11.77-13.59,26.32-24.83,42.65-32.38c19.3-9.05,40.82-12.59,62.03-12.4
		c9.93,0.4,19.84,1.28,29.75,2.13c-9.92,96.88-8.81,194.44-6.75,291.68c4.03,154.96,15.57,309.66,31.96,463.79
		c0.4901,2.61,2.33,4.6899,3.62,6.96c138.4301,224.23,276.87,448.47,415.3101,672.7c3.7999,6.53,8.27,12.7001,11.6799,19.4501
		c-16.4299,37.73-35.1899,74.5-56.8199,109.52c-20.2001,32.5599-43.17,63.5499-70,90.99c-29.2001,29.7-63.48,55.1-102.33,70.65
		c-1.0901,0.33-2.4,1.2999-3.0801-0.13c-29.93-37.41-59.57-75.0701-89.54-112.4401c-9.62-2.39-19.51-3.6699-29.16-5.98
		c-83.19-17.73-163.09-51.37-233.1801-99.66c-31.3-21.4299-60.7-45.61-88.02-71.9099c-8.05-7.62-15.64-15.7101-23.53-23.4701
		c-44.47-6.2999-89.09-11.76-133.6-17.7899c-23.29-3.12-46.63-5.91-69.87-9.3301c-35.83-18.14-71.37-36.9299-107.09-55.3099
		c-46.1-23.92-92.22-47.8-138.32-71.7001c-4.96-2.7999-10.38-4.86-15.03-8.1499c14.3-36.54,31.94-72.2301,56.59-102.9701
		c12.54-15.39,26.82-29.5399,43.28-40.72c32.49-22.33,73.8-31.46,112.61-24.35c34.13,6.0499,65.85,21.4,94.87,39.92
		c1.24,1.0099,2.78,0.95,4.18,0.3199c36.88-13.52,73.87-26.84,111.53-38.0601c3.5-21.0199,6.12-42.1899,8.33-63.3899
		c1.4-15.62,2.81-31.28,2.6-46.9801c-44.97-40.8899-87.31-85.0499-122.89-134.4399c-22.1,15.29-44.68,29.92-68.03,43.25
		c-18.23,10.6799-36.99,20.4399-55.76,30.12c-3.68,40.78-10.34,82.09-27.37,119.7c-7.74,17.2301-17.76,33.52-30.3,47.6901
		c-14,15.85-31.37,28.73-50.64,37.45c-26.44,12.17-55.82,16.65-84.75,16.54c-0.05-108.4401,0.02-216.89-0.03-325.34
		c0.02-1.95-0.05-4.16,1.5-5.59c69.48-79.47,138.82-159.08,208.32-238.53c-5.83-7.24-12.79-13.54-19.09-20.38
		c-54.97-57.37-110.03-114.65-164.96-172.04c-28.55-30.71-55.18-63.56-75.78-100.2C34.56,411.62,22.56,381.59,19.46,350
		c-2.71-24.35,0.94-49.09,8.36-72.33c9.71-30.04,26.03-57.52,45-82.6C152.08,266.18,231.43,337.2,310.7,408.3
		c19.55,17.35,38.8,35.04,58.49,52.23c-14.49-42.18-31.68-83.46-44.4-126.24c-13.28-45.19-22.4-92.03-22.09-139.28
		C302.87,159.83,312.09,124.23,331.95,94.93 M372.28,124.3c-16.02,19.47-24.53,44.59-25.08,69.69c-0.84,30.93,5.07,61.54,12.16,91.5
		c10.68,43.54,25.27,86.01,41.04,127.95c14.34,37.75,28.64,75.53,42.98,113.29c1.56,2.92,4.56,4.72,6.88,7.01
		c48.66,44,97.29,88.04,145.92,132.07c29.04,26.1,57.77,52.55,86.96,78.47c-6.16-14.19-12.86-28.13-19.22-42.22
		C572.69,503.4,481.67,304.65,390.37,106.04C383.86,111.63,377.66,117.61,372.28,124.3 M726.06,234.08
		c-16.31,10.75-30.02,25.44-39.47,42.54c-10.23,18.12-15.88,38.39-19.94,58.68c-7.51,38.75-9.46,78.33-10.13,117.71
		c-0.6,40.72,2.4,81.35,4.98,121.95c0.15,2.42,0.18,4.94,1.28,7.17c37.97,82.33,75.92,164.67,113.85,247.02
		c-0.33-6.33-1.22-12.62-1.8-18.92c-15.19-153.91-20.86-308.62-20.61-463.24c0.2-42.86,2.39-85.66,4.4-128.46
		C747.18,222.35,736.17,227.5,726.06,234.08 M81.91,274.16c-9.71,20.45-16.51,42.96-15.28,65.82c0.77,12.57,3.66,24.94,7.73,36.84
		c8.87,25.41,22.75,48.74,38.09,70.73c24.58,34.84,53.27,66.53,83.2,96.81c56.89,57.12,113.85,114.16,170.76,171.25
		c1.05,1.23,2.54,1.82,4.1,2.11c97.25,24.1201,194.43,48.55,291.72,72.52c-11.64-10.87-23.76-21.24-35.6-31.89
		C445.05,596.96,263.49,435.55,81.91,274.16 M339.44,772.44C274.68,846,209.96,919.6,145.2,993.16c-1.13,0.95-0.95,2.45-0.98,3.8
		c0.05,81.77-0.01,163.53,0.04,245.29c28.3-7.6899,54.94-23.67,72.32-47.65c13.92-18.89,22.24-41.4199,26.47-64.37
		c5.79-29.77,4.56-60.28,3.55-90.4199c12.9-5.4601,25.92-10.64,38.51-16.8c49.33-22.96,95.65-52.46,137-87.86
		c49.76,65.92,105.74,126.91,164.62,184.74c-0.18,60.9399-10.67,121.37-25.28,180.38c-29.92,6.8099-59.64,14.7999-88.39,25.61
		c-21.37,7.6899-42.82,15.23-64.68,21.46c-1.49,0.24-3.31,1.1801-4.61-0.0499c-22.41-18.98-48.18-34.99-76.99-41.9301
		c-22.83-5.62-47.5-5.67-69.67,2.73c-20.67,7.65-38.45,21.7101-52.81,38.2201c-12.17,13.7999-22.14,29.3899-31.01,45.47
		c68.44,35.5699,136.87,71.1699,205.35,106.6599c8.94,1.9601,18.26,2.3,27.36,3.53c48.93,5.67,97.88,11.23,146.81,16.88
		c10.16,1.34,20.44,1.9501,30.52,3.75c11.94,12.72,23.98,25.4,36.66,37.41c59.18,56.92,129.08,103.55,206.54,131.53
		c42.5699,15.51,87.15,25.1499,132.21,29.58c24.52,33.52,49.14,66.96,73.6901,100.45c4.23,5.38,7.7999,11.3401,12.4199,16.39
		c11.05-8.5699,21.8101-17.5499,32.1-27.02c55.9801-50.8999,99.92-114.35,130.6001-183.36c0.76-2.46,3.4399-5.13,1.5599-7.64
		C1057.35,1376.02,905.56,1132.11,753.79,888.19c-3.37-5.03-6.11-10.56-9.84-15.3c-23.16-6.68-46.5-12.77-69.72-19.27
		c-72.89-19.98-145.78-39.99-218.67-59.99c-36.16-9.8-72.21-20.04-108.43-29.58C344.18,766.44,342.09,769.73,339.44,772.44z"/>
</g>
</svg>
