<svg id="Capa_1" enable-background="new 0 0 511.997 511.997" height="512" viewBox="0 0 511.997 511.997" width="512" xmlns="http://www.w3.org/2000/svg"><g id="XMLID_876_"><g id="XMLID_29_"><path id="XMLID_45_" d="m375.115 1.299c-20.239-5.422-41.118 6.631-46.541 26.87l-30.91 115.356-30.908-115.356c-5.423-20.239-26.3-32.292-46.541-26.87-9.804 2.627-17.999 8.915-23.074 17.705-5.075 8.791-6.423 19.031-3.796 28.835l24.11 89.981c-3.694-2.663-7.874-4.667-12.405-5.881-9.804-2.626-20.044-1.279-28.835 3.796s-15.078 13.27-17.705 23.074c-.146.544-.275 1.089-.396 1.635-9.808-3.086-20.827-2.219-30.412 3.315-12.059 6.963-18.86 19.583-18.99 32.592-.001.104.001 90.914.001 90.914 0 41.969 18.358 80.888 48.581 107.61v107.123c0 5.523 4.477 10 10 10s10-4.477 10-10v-92.343c8.487 5.204 17.584 9.591 27.23 12.988 1.099.387 2.22.571 3.322.571 4.124 0 7.984-2.57 9.432-6.681 1.834-5.209-.901-10.919-6.11-12.754-49.319-17.371-82.455-64.194-82.455-116.514v-45.755l23.02 39.873c7.03 12.177 19.829 18.992 32.973 18.992 6.442 0 12.968-1.637 18.937-5.083 9.599-5.542 15.864-14.67 18.087-24.724 3.705 1.167 7.58 1.784 11.489 1.784 6.442 0 12.967-1.637 18.936-5.083 6.279-3.625 11.272-8.847 14.575-15.106 6.132 4.326 13.464 7.053 21.394 7.569-9.065 10.302-14.58 23.8-14.58 38.569 0 5.523 4.477 10 10 10s10-4.477 10-10c0-21.211 17.257-38.468 38.468-38.468h7.032c5.523 0 10-4.477 10-10s-4.477-10-10-10h-48.164c-12.131 0-22-9.869-22-22s9.869-22 22-22h58.758c14.371 0 26.062 11.691 26.062 26.062v65.371c0 52.316-33.133 99.139-82.448 116.512-5.209 1.835-7.944 7.545-6.109 12.754 1.448 4.11 5.308 6.68 9.432 6.68 1.102 0 2.224-.184 3.323-.571 9.643-3.397 18.738-7.783 27.222-12.985v92.343c0 5.523 4.477 10 10 10s10-4.477 10-10v-107.125c30.222-26.722 48.581-65.641 48.581-107.61v-65.371c0-19.335-11.98-35.914-28.903-42.734l35.187-131.32c5.423-20.239-6.63-41.117-26.87-46.54zm-173.084 265.742c-1.245 4.644-4.223 8.526-8.387 10.93-8.595 4.962-19.626 2.007-24.589-6.588l-37.94-65.714c-2.404-4.164-3.042-9.015-1.798-13.659 1.245-4.644 4.223-8.525 8.387-10.93 2.828-1.632 5.918-2.408 8.97-2.408 6.226 0 12.289 3.229 15.619 8.996l37.94 65.714c2.403 4.164 3.042 9.015 1.798 13.659zm48.512-28.024c-1.244 4.644-4.223 8.525-8.387 10.93-8.595 4.962-19.625 2.007-24.588-6.588l-37.94-65.714c-2.404-4.164-3.043-9.015-1.798-13.659s4.223-8.525 8.387-10.93c2.828-1.632 5.918-2.408 8.97-2.408 6.225 0 12.289 3.229 15.619 8.996l37.94 65.714c2.403 4.164 3.042 9.015 1.797 13.659zm4.407-42.912-2.185-3.785-40.1-149.658c-2.569-9.587 3.141-19.477 12.728-22.045 9.588-2.568 19.476 3.141 22.045 12.728l38.267 142.816c-13.031 1.611-24.235 9.201-30.755 19.944zm127.717-153.442-35.682 133.168h-37.27l38.179-142.486c1.245-4.644 4.223-8.526 8.387-10.93 4.165-2.405 9.015-3.042 13.659-1.798 4.644 1.245 8.526 4.223 10.93 8.387 2.403 4.164 3.041 9.015 1.797 13.659z"/><path id="XMLID_841_" d="m252.211 410.757c-2.63 0-5.21 1.07-7.07 2.93s-2.93 4.44-2.93 7.07 1.07 5.21 2.93 7.07 4.44 2.93 7.07 2.93 5.21-1.07 7.07-2.93 2.93-4.44 2.93-7.07-1.07-5.21-2.93-7.07-4.441-2.93-7.07-2.93z"/></g></g></svg>