<svg id="Capa_1" enable-background="new 0 0 512 512" height="512" viewBox="0 0 512 512" width="512" xmlns="http://www.w3.org/2000/svg"><g><g><path d="m216.18 406.41c-4.175 0-7.985-2.693-9.402-6.615-1.416-3.919-.174-8.472 3.059-11.113 3.335-2.725 8.143-2.983 11.765-.671 3.39 2.164 5.172 6.327 4.408 10.274-.903 4.658-5.081 8.125-9.83 8.125z"/><path d="m502 229.593h-70v-84.171c0-21.965-17.87-39.835-39.834-39.835h-352.332c-21.964 0-39.834 17.87-39.834 39.835v221.157c0 21.965 17.87 39.834 39.834 39.834h130.96c5.523 0 10-4.478 10-10s-4.477-10-10-10h-130.96c-10.937 0-19.834-8.897-19.834-19.834v-221.157c0-10.938 8.897-19.835 19.834-19.835h352.332c10.937 0 19.834 8.898 19.834 19.835v84.171h-24v-14.857c0-5.522-4.477-10-10-10-24.895 0-45.149-20.254-45.149-45.149 0-5.522-4.477-10-10-10h-213.702c-5.523 0-10 4.478-10 10 0 24.896-20.254 45.149-45.149 45.149-5.523 0-10 4.478-10 10v82.527c0 5.522 4.477 10 10 10 24.895 0 45.149 20.254 45.149 45.149 0 5.522 4.477 10 10 10h203.357v24h-51.3c-5.523 0-10 4.478-10 10s4.477 10 10 10h240.794c5.523 0 10-4.478 10-10v-156.82c0-5.522-4.477-9.999-10-9.999zm-169.494 72.273h159.494v32.273h-159.494zm159.494-20h-159.494v-32.273h159.494zm-428 6.164v-64.06c27.93-4.321 50.061-26.452 54.383-54.383h195.234c4.322 27.931 26.453 50.062 54.383 54.383v5.623h-45.494c-5.523 0-10 4.477-10 10v102.82h-194.123c-4.322-27.931-26.453-50.061-54.383-54.383zm428 98.383h-159.494v-32.273h159.494z"/><path d="m216 323.447c-37.19 0-67.447-30.257-67.447-67.447s30.257-67.447 67.447-67.447 67.447 30.257 67.447 67.447-30.257 67.447-67.447 67.447zm0-114.894c-26.162 0-47.447 21.285-47.447 47.447s21.285 47.447 47.447 47.447 47.447-21.285 47.447-47.447-21.285-47.447-47.447-47.447z"/></g></g></svg>