<svg id="Layer_1" data-name="Layer 1" xmlns="http://www.w3.org/2000/svg" viewBox="0 0 759.92 759.92"><defs><style>.cls-1{fill:#f3c74f;}.cls-2{fill:#ef9d30;}.cls-3{fill:#2c2e36;}.cls-4{fill:#fbe1ba;}.cls-5{fill:#231f20;}.cls-6{fill:#525760;}.cls-7{fill:#424242;}.cls-8{fill:#dec5a5;}.cls-9{fill:#fffce8;}.cls-10{fill:#ededee;}.cls-11{fill:#ccae8b;}</style></defs><title>video-placeholder</title><path class="cls-1" d="M780,400c0,209.85-170.11,380-380,380S20,609.85,20,400,190.15,20,400,20,780,190.16,780,400Z" transform="translate(-20.04 -20.04)"/><path class="cls-2" d="M655.8,284.11H262.85l-.49-.81-13.6-15.66,24.74-4.35L338,252l60.74-10.69,64.47-11.35,60.75-10.68,64.48-11.33,60.29-10.61-.07-.49-9.51-54h0l-1-5.52h0l-.56-3.24L581.07,144l-60.74,10.69L455.85,166l-60.73,10.69L330.65,188l-60.74,10.68-64.48,11.35-14.12,2.49a26.81,26.81,0,0,0-7-.49l-15.19,1a23.67,23.67,0,0,0-13.71,5.77l-10.74,1.89-.48.08,2.21,12.56a28.91,28.91,0,0,0-.94,7.24v84.9a27.56,27.56,0,0,0,9.39,21v1.82h2.42a22.8,22.8,0,0,0,9.94,3.69V653.67a15.56,15.56,0,0,0,15.57,15.57H625.18a15.57,15.57,0,0,0,15.56-15.57V351.39a16.09,16.09,0,0,0-.3-3.05H655.8Z" transform="translate(-20.04 -20.04)"/><path class="cls-3" d="M145.35,324.73a15.57,15.57,0,0,1,15.57-15.58H603.31a15.57,15.57,0,0,1,15.56,15.58V627a15.57,15.57,0,0,1-15.56,15.58H160.92A15.57,15.57,0,0,1,145.35,627Z" transform="translate(-20.04 -20.04)"/><rect class="cls-4" x="180.14" y="557.66" width="353.63" height="4.95"/><rect class="cls-4" x="438.03" y="562.61" width="4.96" height="39.57"/><rect class="cls-4" x="270.93" y="562.61" width="4.95" height="39.57"/><path class="cls-5" d="M378.19,365.64a90.13,90.13,0,1,0,90.13,90.13A90.15,90.15,0,0,0,378.19,365.64Zm0,168.11a78,78,0,1,1,78-78A78,78,0,0,1,378.19,533.75Z" transform="translate(-20.04 -20.04)"/><path class="cls-4" d="M289.7,455.77a88.49,88.49,0,1,0,88.49-88.5A88.59,88.59,0,0,0,289.7,455.77Zm8.89,0a79.6,79.6,0,1,1,79.6,79.6A79.69,79.69,0,0,1,298.59,455.77Z" transform="translate(-20.04 -20.04)"/><path class="cls-6" d="M603.31,321H160.92a3.73,3.73,0,0,0-3.73,3.73V627a3.73,3.73,0,0,0,2.3,3.44c21.35-69.87,65.78-131.13,125.43-176.86a93.15,93.15,0,0,1,149.81-72,440.18,440.18,0,0,1,108.09-13.43A446.35,446.35,0,0,1,607,372.83v-48.1A3.74,3.74,0,0,0,603.31,321Z" transform="translate(-20.04 -20.04)"/><path class="cls-7" d="M341.23,411.16c0-3.89,1.55-7,4.25-8.57s6.18-1.35,9.56.6l7,4a420,420,0,0,1,48.41-18.75,74.45,74.45,0,0,0-105,50.39,403.06,403.06,0,0,1,35.75-21.41Z" transform="translate(-20.04 -20.04)"/><path class="cls-5" d="M430.66,460.91c4.9-2.83,4.9-7.47,0-10.29l-29.72-17.16c-4.89-2.83-12.92-7.45-17.82-10.29L353.4,406c-4.89-2.83-8.91-.52-8.91,5.15v89.21c0,5.66,4,8,8.91,5.13l29.72-17.14c4.9-2.83,12.93-7.47,17.82-10.31Z" transform="translate(-20.04 -20.04)"/><path class="cls-4" d="M347.92,406.82c-1.14.66-1.8,2.25-1.79,4.35v89.21c0,2.09.65,3.67,1.79,4.33s2.86.44,4.67-.62L382.31,487l47.53-27.46c1.82-1.05,2.86-2.41,2.86-3.74s-1-2.67-2.86-3.73l-77.25-44.6C350.78,406.38,349.07,406.16,347.92,406.82Z" transform="translate(-20.04 -20.04)"/><path class="cls-8" d="M290.07,448.28c3.27-2.39,6.56-4.75,9.91-7a79.5,79.5,0,0,1,116.56-55.18c3.83-1.14,7.68-2.25,11.58-3.28a88.37,88.37,0,0,0-138,65.51Z" transform="translate(-20.04 -20.04)"/><path class="cls-8" d="M347.92,406.82c-1.14.66-1.8,2.25-1.79,4.35V414q4.77-2.41,9.61-4.72l-3.15-1.81C350.78,406.38,349.07,406.16,347.92,406.82Z" transform="translate(-20.04 -20.04)"/><polygon class="cls-4" points="539.16 97.28 606.72 150.1 606.79 150.59 546.5 161.19 478.42 107.97 539.16 97.28"/><polygon class="cls-4" points="288.74 141.33 356.8 194.56 296.06 205.25 228 152.01 288.74 141.33"/><polygon class="cls-4" points="163.52 163.36 231.59 216.59 170.85 227.27 102.77 174.04 163.52 163.36"/><polygon class="cls-4" points="413.94 119.3 482.02 172.53 421.27 183.21 353.21 129.99 413.94 119.3"/><polygon class="cls-3" points="595.66 87.34 606.72 150.1 539.16 97.28 595.66 87.34"/><polygon class="cls-3" points="478.42 107.97 546.5 161.19 482.02 172.53 413.94 119.3 478.42 107.97"/><polygon class="cls-3" points="353.21 129.99 421.27 183.21 356.8 194.56 288.74 141.33 353.21 129.99"/><polygon class="cls-3" points="228 152.01 296.06 205.25 231.59 216.59 163.52 163.36 228 152.01"/><polygon class="cls-3" points="102.29 174.13 102.77 174.04 170.85 227.27 113.43 237.37 102.29 174.13"/><polygon class="cls-9" points="542.75 99.98 548.69 104.63 487.95 115.32 482 110.67 542.75 99.98"/><polygon class="cls-9" points="417.52 122.01 423.49 126.66 362.74 137.34 356.79 132.69 417.52 122.01"/><polygon class="cls-9" points="292.32 144.03 298.27 148.68 237.52 159.36 231.59 154.72 292.32 144.03"/><polygon class="cls-10" points="167.11 166.06 173.04 170.71 112.3 181.39 106.36 176.74 167.11 166.06"/><polygon class="cls-6" points="596.24 90.58 597.22 96.09 548.69 104.63 542.75 99.98 596.24 90.58"/><polygon class="cls-6" points="482 110.67 487.95 115.32 423.49 126.66 417.52 122.01 482 110.67"/><polygon class="cls-6" points="356.79 132.69 362.74 137.34 298.27 148.68 292.32 144.03 356.79 132.69"/><polygon class="cls-6" points="231.59 154.72 237.52 159.36 173.04 170.71 167.11 166.06 231.59 154.72"/><polygon class="cls-6" points="112.3 181.39 103.85 182.88 102.87 177.36 106.36 176.74 112.3 181.39"/><polygon class="cls-4" points="170.31 237.41 112.95 301.14 112.95 301.64 174.18 301.64 231.98 237.41 170.31 237.41"/><polygon class="cls-4" points="424.6 237.41 366.76 301.64 428.44 301.64 486.28 237.41 424.6 237.41"/><polygon class="cls-4" points="551.72 237.41 493.91 301.64 555.58 301.64 613.4 237.41 551.72 237.41"/><polygon class="cls-4" points="297.46 237.41 239.63 301.64 301.31 301.64 359.13 237.41 297.46 237.41"/><polygon class="cls-3" points="231.98 237.41 174.18 301.64 239.63 301.64 297.46 237.41 231.98 237.41"/><polygon class="cls-3" points="359.13 237.41 301.31 301.64 366.76 301.64 424.6 237.41 359.13 237.41"/><polygon class="cls-3" points="486.28 237.41 428.44 301.64 493.91 301.64 551.72 237.41 486.28 237.41"/><polygon class="cls-3" points="613.89 237.41 613.4 237.41 555.58 301.64 613.89 301.64 613.89 237.41"/><polygon class="cls-10" points="167.26 240.7 162.21 246.31 223.87 246.31 228.93 240.7 167.26 240.7"/><polygon class="cls-9" points="294.4 240.7 289.35 246.31 351.02 246.31 356.07 240.7 294.4 240.7"/><polygon class="cls-9" points="421.53 240.7 416.49 246.31 478.16 246.31 483.21 240.7 421.53 240.7"/><polygon class="cls-9" points="548.67 240.7 543.61 246.31 605.29 246.31 610.34 240.7 548.67 240.7"/><polygon class="cls-6" points="228.93 240.7 223.87 246.31 289.35 246.31 294.4 240.7 228.93 240.7"/><polygon class="cls-6" points="356.07 240.7 351.02 246.31 416.49 246.31 421.53 240.7 356.07 240.7"/><polygon class="cls-6" points="483.21 240.7 478.16 246.31 543.61 246.31 548.67 240.7 483.21 240.7"/><polygon class="cls-6" points="605.29 246.31 613.89 246.31 613.89 240.7 610.34 240.7 605.29 246.31"/><path class="cls-6" d="M162.19,185.4l-15.18,1c-13,.89-23.66,13.25-23.66,27.54v84.9c0,14.7,10.92,26.67,24.39,26.67h77.68c13.46,0,24.41-12,24.41-26.67v-8c0-10.33-3.89-24.66-9-33.33l-.56-.94-48.8-56.2,1.26,1.75C186.55,191.84,173.45,184.62,162.19,185.4Z" transform="translate(-20.04 -20.04)"/><path class="cls-3" d="M147.71,198.53c-7.29.49-13.29,7.45-13.29,15.44v84.9c0,8,6,14.55,13.32,14.55h77.68c7.33,0,13.31-6.54,13.31-14.55v-8c0-8-3.26-20-7.24-26.74L183.4,208.78c-4-6.72-13.21-11.79-20.52-11.3Z" transform="translate(-20.04 -20.04)"/><path class="cls-11" d="M167.94,220.43c0,5.32-4,9.65-8.85,9.65s-8.83-4.33-8.83-9.65,4-9.67,8.83-9.67S167.94,215.09,167.94,220.43Z" transform="translate(-20.04 -20.04)"/><path class="cls-11" d="M167.94,293.09c0,5.34-4,9.66-8.85,9.66s-8.83-4.32-8.83-9.66,4-9.65,8.83-9.65S167.94,287.75,167.94,293.09Z" transform="translate(-20.04 -20.04)"/><path class="cls-11" d="M226.61,293.09c0,5.34-4,9.66-8.83,9.66s-8.85-4.32-8.85-9.66,3.95-9.65,8.85-9.65S226.61,287.75,226.61,293.09Z" transform="translate(-20.04 -20.04)"/><rect class="cls-4" x="180.14" y="315.57" width="347.58" height="3.14"/><path class="cls-4" d="M162.34,218.82c0,2.67-1.9,4.84-4.25,4.84a4.89,4.89,0,0,1,0-9.69C160.44,214,162.34,216.14,162.34,218.82Z" transform="translate(-20.04 -20.04)"/><path class="cls-4" d="M161.47,291.41a3.56,3.56,0,1,1-3.53-4A3.81,3.81,0,0,1,161.47,291.41Z" transform="translate(-20.04 -20.04)"/><path class="cls-4" d="M220.57,291.27a4,4,0,1,1-4-4A4,4,0,0,1,220.57,291.27Z" transform="translate(-20.04 -20.04)"/></svg>