<svg width="38" height="29" viewBox="0 0 38 29" fill="none" xmlns="http://www.w3.org/2000/svg">
<path d="M0 5C0 2.23858 2.23858 0 5 0H40C42.7614 0 45 2.23858 45 5V24C45 26.7614 42.7614 29 40 29H5C2.23858 29 0 26.7614 0 24V5Z" fill="#E6E6E6"/>
<path d="M16 5H30C30.5523 5 31 5.44772 31 6V18C31 18.5523 30.5523 19 30 19H17.1538" stroke="#666666" stroke-width="3"/>
<path d="M15.3292 19.3442C14.7107 18.9513 14.7107 18.0487 15.3292 17.6558L19.9639 14.7124C20.6297 14.2896 21.5 14.7679 21.5 15.5566V21.4434C21.5 22.2321 20.6297 22.7104 19.9639 22.2876L15.3292 19.3442Z" fill="#666666"/>
</svg>
