<svg width="40" height="40" viewBox="0 0 40 40" fill="none" xmlns="http://www.w3.org/2000/svg">
<rect x="0.5" y="0.5" width="39" height="39" rx="4.5" stroke="#666666"/>
<path d="M13.0858 10.0893C12.7545 10.2675 12.6506 10.688 12.8583 11.0047C12.9126 11.0889 13.1797 11.2571 13.5804 11.46C14.085 11.7173 14.2184 11.8063 14.1988 11.8706C14.184 11.9153 14.095 12.2764 13.996 12.6722C13.897 13.068 13.808 13.3947 13.798 13.4044C13.7881 13.4143 13.5904 13.3054 13.3577 13.1668C12.794 12.8304 12.1856 12.5829 11.602 12.4642C11.0826 12.3555 10.8403 12.3652 10.6375 12.4989C10.5336 12.5681 10.1875 13.2163 9.23779 15.1163C8.12535 17.3429 7.98199 17.6645 8.00163 17.8227C8.04627 18.1641 8.1353 18.2333 9.27759 18.8073L10.3607 19.3516V22.9882V26.6248H9.8268C9.21356 26.6248 9.01561 26.694 8.8674 26.976C8.75363 27.1888 8.75363 27.3471 8.8674 27.5599C9.0503 27.9062 9.09494 27.9111 11.004 27.9111C12.9131 27.9111 12.9575 27.9062 13.1407 27.5599C13.2544 27.3471 13.2544 27.1888 13.1407 26.976C12.9922 26.694 12.7945 26.6248 12.1813 26.6248H11.6471V23.3098V19.9947L12.1813 20.2619L12.7203 20.5339L12.7499 21.1674C12.8389 22.9683 13.4274 24.5268 14.5156 25.858C14.8123 26.2191 15.3365 26.7387 15.6778 27.0059L15.8757 27.1592L15.6135 27.6936C15.3265 28.2923 15.302 28.4605 15.4701 28.708C15.6036 28.9109 15.7668 29 15.9995 29C16.3012 29 16.4594 28.8566 16.7216 28.337C16.8948 27.9955 16.9838 27.8669 17.0382 27.8817C17.0777 27.8917 17.2905 27.9807 17.5081 28.0795C18.4379 28.4901 19.3628 28.6733 20.5003 28.6733C21.6377 28.6733 22.5627 28.4904 23.4925 28.0795C23.71 27.9805 23.9228 27.8914 23.9623 27.8817C24.0167 27.8669 24.1057 27.9955 24.2789 28.337C24.5411 28.8566 24.6993 29 25.0011 29C25.2334 29 25.3967 28.9109 25.5304 28.708C25.6985 28.4608 25.6737 28.2923 25.387 27.6936L25.1248 27.1592L25.3225 27.0059C25.7133 26.6991 26.2571 26.1448 26.5936 25.7094C27.632 24.3735 28.1662 22.9089 28.2504 21.1674L28.28 20.5339L28.819 20.2619L29.3531 19.9947V23.3098V26.6248H28.819C28.2057 26.6248 28.0078 26.694 27.8596 26.976C27.7458 27.1888 27.7458 27.3471 27.8596 27.5599C28.0425 27.9062 28.0871 27.9111 29.9962 27.9111C31.9053 27.9111 31.9497 27.9062 32.1329 27.5599C32.2466 27.3471 32.2466 27.1888 32.1329 26.976C31.9844 26.694 31.7867 26.6248 31.1735 26.6248H30.6393V22.9882V19.3516L31.7224 18.8073C32.865 18.2333 32.9537 18.1641 32.9984 17.8227C33.018 17.6645 32.8747 17.3427 31.7619 15.1163C30.8123 13.2163 30.4661 12.5681 30.3623 12.4989C30.1595 12.3652 29.9171 12.3555 29.4029 12.4642C28.8044 12.588 28.2111 12.8253 27.657 13.1568C27.4147 13.3003 27.2119 13.4141 27.202 13.4041C27.192 13.3942 27.103 13.0678 27.004 12.672C26.905 12.2761 26.816 11.915 26.8012 11.8704C26.7813 11.8061 26.915 11.717 27.4196 11.4598C28.0922 11.1183 28.2108 11.0096 28.2504 10.6977C28.2899 10.3563 27.9634 10 27.6124 10C27.5333 10 26.7272 10.3762 25.7528 10.861C23.9279 11.7765 23.8736 11.8112 23.8289 12.1723C23.7894 12.5086 24.1156 12.87 24.4621 12.87C24.5312 12.87 24.8182 12.7562 25.1 12.6227C25.3771 12.4841 25.6143 12.3803 25.6194 12.3851C25.6242 12.3951 25.7679 12.9639 25.9408 13.6517C26.2127 14.7552 26.2671 14.9233 26.3959 15.0469C26.564 15.2201 26.8262 15.2794 27.029 15.1954C27.1081 15.1607 27.3356 14.9925 27.5336 14.8144C27.7313 14.6411 28.0578 14.3938 28.2606 14.27C28.6019 14.0523 29.3832 13.716 29.5513 13.7109C29.6008 13.7109 29.9421 14.3443 30.5653 15.591C31.0796 16.6202 31.4903 17.4761 31.4803 17.4861C31.4655 17.5009 30.6939 17.8918 29.7592 18.3568C28.6465 18.9111 28.0578 19.1832 28.0481 19.1436C27.8206 18.3719 27.6573 17.9414 27.3953 17.4266C25.1452 12.9984 19.4228 11.801 15.5801 14.9527C14.2993 16.0016 13.5029 17.2732 12.9539 19.1436C12.934 19.2079 9.52171 17.5307 9.52171 17.4613C9.52171 17.4266 11.3418 13.7604 11.3765 13.7208C11.416 13.6762 11.9996 13.8842 12.3606 14.0623C12.8057 14.2848 13.1223 14.5076 13.5674 14.9083C13.9383 15.2446 14.1263 15.2993 14.4182 15.1706C14.5271 15.1211 14.6457 15.0321 14.6901 14.9678C14.7296 14.9083 14.8977 14.3047 15.0658 13.6269C15.2339 12.954 15.3773 12.3948 15.3824 12.3851C15.3872 12.3803 15.6247 12.4841 15.9018 12.6227C16.1836 12.7562 16.4706 12.87 16.5397 12.87C16.8859 12.87 17.2124 12.5089 17.1729 12.1723C17.1282 11.8112 17.0739 11.7765 15.249 10.861C14.2748 10.3762 13.4685 10 13.3894 10C13.3134 10.0003 13.1748 10.0398 13.0858 10.0893ZM21.5035 14.5275C22.7547 14.7156 24.0554 15.3638 25.0199 16.279C25.8855 17.1002 26.5877 18.3867 26.8596 19.6484C26.9882 20.2423 26.9882 21.6275 26.8596 22.2213C26.3007 24.7943 24.3572 26.7387 21.7854 27.2978C21.1918 27.4264 19.8072 27.4264 19.2136 27.2978C17.6359 26.9563 16.2808 26.0956 15.3362 24.8438C13.3776 22.2412 13.6251 18.6541 15.9247 16.3583C16.8793 15.3985 18.1009 14.7651 19.4363 14.5326C19.9653 14.4385 20.9051 14.4385 21.5035 14.5275Z" fill="#666666"/>
</svg>
