<svg width="40" height="40" viewBox="0 0 40 40" fill="none" xmlns="http://www.w3.org/2000/svg">
<rect x="0.5" y="0.5" width="39" height="39" rx="4.5" stroke="#666666"/>
<path d="M22.8965 15.3488L22.8965 15.3487L22.9476 15.3546L22.995 15.36L23.0291 15.3266L23.5818 14.7841L23.724 14.6445L23.527 14.6139L23.3229 14.5823L23.3226 14.5823L23.3226 14.5823C22.1433 14.4024 20.8919 14.3102 19.6049 14.3102C18.2666 14.3102 16.9712 14.4086 15.7554 14.6023L15.7554 14.6023L15.5533 14.6346L15.3579 14.6658L15.4989 14.8046L16.0471 15.344L16.0824 15.3788L16.1315 15.3717L16.184 15.3641L22.8965 15.3488ZM22.8965 15.3488L22.8943 15.3485M22.8965 15.3488L22.8943 15.3485M22.8943 15.3485C21.8483 15.2042 20.7411 15.1308 19.6049 15.1308M22.8943 15.3485L19.6049 15.1308M19.6049 15.1308C18.411 15.1308 17.2602 15.2093 16.1841 15.3641L19.6049 15.1308Z" fill="#666666" stroke="#666666" stroke-width="0.2"/>
<path d="M14.258 14.9065L14.2581 14.9065L14.3163 14.8921L14.3704 14.8786L14.4103 14.9177L14.9332 15.4299L15.0633 15.5573L14.886 15.5987L14.7018 15.6417L14.7017 15.6417C13.5882 15.9005 12.6775 16.2454 12.0478 16.6246C11.7329 16.8142 11.4921 17.0102 11.331 17.2049C11.1699 17.3996 11.0928 17.5876 11.0928 17.7643C11.0928 17.9816 11.2163 18.2239 11.4783 18.4757C11.7139 18.7021 12.0531 18.9278 12.4862 19.1392V19.0857H12.5862H13.2178H13.3178V19.1857V19.4835C14.1282 19.7728 15.1183 20.0058 16.2036 20.1618V20.0733H16.3036H16.9341H17.0341V20.1733V20.2667C17.8599 20.3514 18.7249 20.3946 19.607 20.3946C19.8813 20.3946 20.1693 20.3892 20.4814 20.3785V20.173V20.073H20.5814H21.2126H21.3126V20.173V20.3357C22.5915 20.252 23.7608 20.0766 24.7957 19.8139V19.5307V19.4307H24.8957H25.5269H25.6269V19.5307V19.576C26.3932 19.3246 27.0101 19.0281 27.4396 18.7176C27.8982 18.386 28.1204 18.0557 28.1204 17.7637C28.1204 17.583 28.0407 17.3913 27.8742 17.1933C27.7077 16.9951 27.4587 16.7962 27.1333 16.6042C26.4826 16.2204 25.5415 15.8735 24.3907 15.6158L24.2052 15.5746L24.0257 15.5347L24.1568 15.4057L24.6812 14.8897L24.7209 14.8506L24.7751 14.8638L24.8326 14.8779C24.8327 14.8779 24.8327 14.8779 24.8328 14.8779C25.9541 15.1484 26.882 15.5023 27.5703 15.9154C28.2258 16.3087 28.6753 16.7626 28.8567 17.2593H28.9516V17.3593V26.357C28.9516 26.9138 28.6235 27.4333 28.0438 27.8867C27.4765 28.3303 26.6572 28.7201 25.6269 29.0315V29.2771V29.3771H25.5269H24.8957H24.7957V29.2771V29.2519C23.7463 29.5022 22.5762 29.6703 21.3126 29.7509V30.0008V30.1008H21.2126H20.5814H20.4814V30.0008V29.7931C20.1682 29.8035 19.8801 29.8088 19.607 29.8088C18.7275 29.8088 17.8636 29.7664 17.0341 29.6833V29.723V29.823H16.9341H16.303H16.203V29.723V29.5818C14.9804 29.4141 13.9007 29.1629 12.9911 28.8337H12.5859H12.4859V28.7337V28.6334C11.3995 28.1693 10.6691 27.5949 10.391 26.9473H10.3623H10.2623V26.8473V17.8491H10.2617L10.263 17.838L10.2656 17.8146C10.2628 17.7963 10.262 17.7794 10.262 17.764C10.262 17.1514 10.6488 16.5904 11.3302 16.1105C12.0127 15.6299 13.0058 15.219 14.258 14.9065ZM20.4814 29.0681H20.5814L20.5814 29.0681L20.4814 29.0681ZM19.607 28.9878C19.8813 28.9878 20.1693 28.9824 20.4814 28.9717V28.9673V28.9615V28.9554V28.9493V28.9429V28.9364V28.9298V28.923V28.916V28.9089V28.9016V28.8942V28.8867V28.8789V28.8711V28.8631V28.8549V28.8466V28.8382V28.8296V28.8208V28.8119V28.8029V28.7937V28.7844V28.775V28.7654V28.7556V28.7458V28.7357V28.7256V28.7153V28.7049V28.6943V28.6836V28.6728V28.6618V28.6507V28.6395V28.6282V28.6167V28.6051V28.5933V28.5814V28.5694V28.5573V28.5451V28.5327V28.5202V28.5076V28.4948V28.4819V28.4689V28.4558V28.4426V28.4292V28.4157V28.4021V28.3884V28.3746V28.3607V28.3466V28.3324V28.3181V28.3037V28.2892V28.2746V28.2598V28.245V28.23V28.215V28.1998V28.1845V28.1691V28.1536V28.138V28.1223V28.1065V28.0906V28.0746V28.0584V28.0422V28.0259V28.0095V27.993V27.9763V27.9596V27.9428V27.9259V27.9089V27.8918V27.8746V27.8573V27.8399V27.8225V27.8049V27.7872V27.7695V27.7517V27.7337V27.7157V27.6976V27.6795V27.6612V27.6428V27.6244V27.6059V27.5873V27.5686V27.5498V27.531V27.5121V27.4931V27.474V27.4548V27.4356V27.4163V27.3969V27.3774V27.3579V27.3382V27.3186V27.2988V27.279V27.2591V27.2391V27.2191V27.199V27.1788V27.1585V27.1382V27.1179V27.0974V27.0769V27.0564V27.0357V27.015V26.9943V26.9735V26.9526V26.9317V26.9107V26.8896V26.8685V26.8474V26.8262V26.8049V26.7836V26.7622V26.7407V26.7193V26.6977V26.6761V26.6545V26.6328V26.6111V26.5893V26.5675V26.5456V26.5237V26.5017V26.4797V26.4577V26.4356V26.4134V26.3912V26.369V26.3468V26.3245V26.3021V26.2798V26.2573V26.2349V26.2124V26.1899V26.1673V26.1448V26.1221V26.0995V26.0768V26.0541V26.0313V26.0086V25.9858V25.9629V25.9401V25.9172V25.8943V25.8714V25.8484V25.8254V25.8024V25.7794V25.7563V25.7333V25.7102V25.6871V25.664V25.6408V25.6177V25.5945V25.5713V25.5481V25.5249V25.5016V25.4784V25.4551V25.4318V25.4086V25.3853V25.362V25.3387V25.3153V25.292V25.2687V25.2453V25.222V25.1987V25.1753V25.152V25.1286V25.1052V25.0819V25.0585V25.0352V25.0118V24.9885V24.9651V24.9418V24.9184V24.8951V24.8718V24.8484V24.8251V24.8018V24.7785V24.7552V24.7319V24.7087V24.6854V24.6621V24.6389V24.6157V24.5925V24.5693V24.5461V24.523V24.4998V24.4767V24.4536V24.4305V24.4074V24.3844V24.3613V24.3383V24.3154V24.2924V24.2695V24.2466V24.2237V24.2008V24.178V24.1552V24.1324V24.1097V24.087V24.0643V24.0416V24.019V23.9964V23.9739V23.9514V23.9289V23.9064V23.884V23.8616V23.8393V23.817V23.7947V23.7725V23.7503V23.7282V23.7061V23.6841V23.662V23.6401V23.6182V23.5963V23.5745V23.5527V23.5309V23.5093V23.4876V23.466V23.4445V23.423V23.4016V23.3802V23.3589V23.3376V23.3164V23.2952V23.2741V23.2531V23.2321V23.2112V23.1903V23.1695V23.1487V23.128V23.1074V23.0868V23.0663V23.0459V23.0255V23.0052V22.985V22.9648V22.9447V22.9247V22.9047V22.8848V22.865V22.8452V22.8255V22.8059V22.7864V22.7669V22.7475V22.7282V22.7089V22.6898V22.6707V22.6517V22.6328V22.6139V22.5952V22.5765V22.5579V22.5394V22.5209V22.5026V22.4843V22.4661V22.448V22.43V22.4121V22.3943V22.3765V22.3589V22.3413V22.3238V22.3064V22.2892V22.272V22.2549V22.2379V22.2209V22.2041V22.1874V22.1708V22.1543V22.1378V22.1215V22.1053V22.0892V22.0732V22.0573V22.0414V22.0257V22.0101V21.9946V21.9792V21.964V21.9488V21.9337V21.9187V21.9039V21.8892V21.8745V21.86V21.8456V21.8313V21.8171V21.8031V21.7891V21.7753V21.7616V21.748V21.7345V21.7212V21.7079V21.6948V21.6818V21.6689V21.6562V21.6436V21.6311V21.6187V21.6064V21.5943V21.5823V21.5704V21.5587V21.5471V21.5356V21.5242V21.513V21.5019V21.4909V21.4801V21.4694V21.4588V21.4484V21.4381V21.428V21.418V21.4081V21.3984V21.3888V21.3793V21.37V21.3608V21.3518V21.3429V21.3342V21.3256V21.3171V21.3088V21.3007V21.2926V21.2848V21.2771V21.2695V21.2621V21.2548V21.2477V21.2407V21.2339V21.2273V21.2208V21.2145V21.2083V21.2022V21.1991C20.1683 21.2095 19.8802 21.2152 19.607 21.2152C18.7275 21.2152 17.8636 21.1731 17.0341 21.09V28.8593C17.8599 28.9446 18.7248 28.9878 19.607 28.9878ZM28.1204 26.357V19.2356C27.5485 19.7065 26.6971 20.1153 25.6269 20.4385V28.1699C26.3933 27.9185 27.0103 27.622 27.4397 27.3114C27.8982 26.9798 28.1204 26.6493 28.1204 26.357ZM24.7957 20.6586C23.7463 20.9088 22.5761 21.0766 21.3126 21.1569V28.9286C22.5915 28.8453 23.7608 28.6701 24.7957 28.4075V20.6586ZM12.4858 20.0394C11.9168 19.7968 11.4496 19.5275 11.0924 19.2349V26.3569C11.0924 26.5744 11.2159 26.8168 11.4779 27.0687C11.7135 27.2951 12.0527 27.5207 12.4858 27.7319V20.0394ZM16.2033 20.9878C15.1193 20.8394 14.1507 20.6269 13.3174 20.3545V28.0762C14.1278 28.3656 15.1179 28.5988 16.2033 28.7552V20.9878Z" fill="#666666" stroke="#666666" stroke-width="0.2"/>
<path d="M18.0298 17.8947L18.0298 17.8948C17.8721 18.0498 17.6611 18.1348 17.4388 18.1348C17.2165 18.1348 17.0063 18.0498 16.8489 17.8948C16.6356 17.6851 16.5572 17.3796 16.634 17.0983L9.93009 10.5105L9.85762 10.4393L9.92998 10.368L10.3756 9.92878L10.4457 9.85969L10.5159 9.92868L17.2205 16.5186C17.5076 16.4434 17.82 16.5222 18.0297 16.728C18.1886 16.8834 18.2758 17.0912 18.2758 17.3113C18.2758 17.5319 18.1884 17.7386 18.0298 17.8947Z" fill="#666666" stroke="#666666" stroke-width="0.2"/>
<path d="M29.0701 10.5376L22.3668 17.1255C22.4432 17.4071 22.3651 17.7123 22.1517 17.9218C21.994 18.0771 21.7842 18.1626 21.5606 18.1626C21.3379 18.1626 21.1283 18.0776 20.9707 17.9219C20.8121 17.766 20.7243 17.559 20.7243 17.3386C20.7243 17.1181 20.8116 16.9114 20.9707 16.7558C21.1802 16.5493 21.4936 16.4712 21.7786 16.5456L28.4843 9.95602L28.5545 9.88706L28.6246 9.9561L29.0702 10.395L29.1426 10.4663L29.0701 10.5376Z" fill="#666666" stroke="#666666" stroke-width="0.2"/>
</svg>
