<svg width="40" height="40" viewBox="0 0 40 40" fill="none" xmlns="http://www.w3.org/2000/svg">
<rect x="0.5" y="0.5" width="39" height="39" rx="4.5" stroke="#666666"/>
<g clip-path="url(#clip0_4148_45018)">
<path d="M21.6735 17.7556L21.6382 17.7909L21.6735 17.8263L22.1717 18.3244L22.207 18.3598L22.2424 18.3244L22.7918 17.775L22.8272 17.7396L22.7918 17.7043L22.2937 17.2061L22.2583 17.1708L22.223 17.2061L21.6735 17.7556Z" fill="#666666" stroke="#666666" stroke-width="0.1"/>
<path d="M20.0251 19.404L19.9897 19.4394L20.0251 19.4747L20.5232 19.9729L20.5586 20.0082L20.5939 19.9729L21.1434 19.4234L21.1787 19.3881L21.1434 19.3527L20.6452 18.8546L20.6099 18.8192L20.5745 18.8546L20.0251 19.404Z" fill="#666666" stroke="#666666" stroke-width="0.1"/>
<path d="M18.3767 21.0524L18.3413 21.0878L18.3767 21.1231L18.8748 21.6213L18.9102 21.6566L18.9455 21.6213L19.495 21.0718L19.5303 21.0365L19.495 21.0011L18.9968 20.503L18.9615 20.4676L18.9261 20.503L18.3767 21.0524Z" fill="#666666" stroke="#666666" stroke-width="0.1"/>
<path d="M16.7282 22.7009L16.6929 22.7362L16.7282 22.7716L17.2264 23.2697L17.2617 23.3051L17.2971 23.2697L17.8465 22.7203L17.8819 22.6849L17.8465 22.6496L17.3484 22.1514L17.313 22.1161L17.2777 22.1514L16.7282 22.7009Z" fill="#666666" stroke="#666666" stroke-width="0.1"/>
<path d="M15.0798 24.3493L15.0444 24.3847L15.0798 24.42L15.5779 24.9182L15.6133 24.9535L15.6486 24.9182L16.1981 24.3687L16.2334 24.3334L16.1981 24.298L15.6999 23.7999L15.6646 23.7645L15.6292 23.7999L15.0798 24.3493Z" fill="#666666" stroke="#666666" stroke-width="0.1"/>
<path d="M13.4313 25.9977L13.396 26.0331L13.4313 26.0685L13.9295 26.5666L13.9648 26.602L14.0002 26.5666L14.5496 26.0172L14.585 25.9818L14.5496 25.9464L14.0515 25.4483L14.0161 25.4129L13.9808 25.4483L13.4313 25.9977Z" fill="#666666" stroke="#666666" stroke-width="0.1"/>
<path d="M11.7829 27.6423L11.7475 27.6776L11.7829 27.713L12.2811 28.2111L12.3164 28.2465L12.3518 28.2111L12.9012 27.6617L12.9366 27.6263L12.9012 27.591L12.4031 27.0928L12.3677 27.0575L12.3323 27.0928L11.7829 27.6423Z" fill="#666666" stroke="#666666" stroke-width="0.1"/>
<path d="M28.8382 8.9665L28.8028 8.93114L28.7675 8.9665L28.2693 9.46464L28.234 9.5L28.2693 9.53536L30.4669 11.7329L30.5023 11.7683L30.5376 11.7329L31.0358 11.2348L31.0711 11.1994L31.0358 11.1641L28.8382 8.9665Z" fill="#666666" stroke="#666666" stroke-width="0.1"/>
<path d="M26.3449 13.0324L26.3095 13.0677L26.3449 13.1031L26.8943 13.6525L26.9297 13.6879L26.965 13.6525L27.4632 13.1544L27.4986 13.119L27.4632 13.0837L26.9137 12.5342L26.8784 12.4989L26.843 12.5342L26.3449 13.0324Z" fill="#666666" stroke="#666666" stroke-width="0.1"/>
<path d="M25.396 15.9608C25.4679 15.7063 25.6037 15.4731 25.7956 15.2811L25.396 15.9608ZM25.396 15.9608L24.0357 14.6005C24.285 14.5302 24.5204 14.3975 24.7163 14.2016L28.0032 10.9147L29.0738 11.9854L25.7957 15.281L25.396 15.9608ZM23.068 13.6327L23.0326 13.5974L22.9973 13.6327L21.4002 15.2298L21.3648 15.2652L21.4002 15.3005L21.9399 15.8402L9.86206 27.9181C9.71596 28.0642 9.47818 28.0642 9.33199 27.9181L9.08291 27.669L9.04755 27.6336L9.0122 27.669L7.96464 28.7166L7.92929 28.752L7.96464 28.7874L11.21 32.0327L11.2453 32.068L11.2807 32.0327L12.3283 30.9851L12.3637 30.9497L12.3283 30.9144L12.0792 30.6652L12.0439 30.7006L12.0792 30.6652C11.9331 30.5192 11.9331 30.2813 12.0792 30.1353L12.0439 30.0999L12.0792 30.1352L24.1572 18.0573L24.6969 18.5971L24.7322 18.6324L24.7676 18.5971L26.3646 16.9999L26.4 16.9646L26.3646 16.9292C26.2204 16.785 26.1411 16.5935 26.1411 16.3896C26.1411 16.1856 26.2204 15.9941 26.3653 15.8491L26.3654 15.849L30.1749 12.0191L30.2101 11.9838L30.1749 11.9485L28.0386 9.8123L28.0032 9.77695L27.9679 9.8123L24.1474 13.6327L24.1828 13.6681L24.1474 13.6327C23.8499 13.9303 23.3655 13.9303 23.068 13.6327ZM11.5103 29.5664C11.1502 29.9265 11.0722 30.4632 11.2759 30.8998L11.2454 30.9303L9.0671 28.752L9.09764 28.7215C9.53425 28.925 10.0709 28.847 10.431 28.487L10.3956 28.4517L10.431 28.487L22.5088 16.4091L23.5882 17.4885L11.5103 29.5664ZM24.7066 17.4691L22.5283 15.2908L23.0583 14.7607L25.2366 16.9391L24.7066 17.4691Z" fill="#666666" stroke="#666666" stroke-width="0.1"/>
</g>
<defs>
<clipPath id="clip0_4148_45018">
<rect width="23" height="23" fill="white" transform="translate(8 9)"/>
</clipPath>
</defs>
</svg>
