<svg width="40" height="40" viewBox="0 0 40 40" fill="none" xmlns="http://www.w3.org/2000/svg">
<rect x="0.5" y="0.5" width="39" height="39" rx="4.5" stroke="#666666"/>
<path d="M29.3596 7.06521L29.3596 7.06522L31.9348 9.64031L31.8641 9.71102L31.9348 9.64031C32.1551 9.86055 32.1551 10.2178 31.9348 10.438L28.5219 13.8509C28.4118 13.9611 28.2672 14.0161 28.123 14.0161C28.054 14.0161 27.9851 14.0033 27.92 13.9781L23.858 18.0401C24.5291 18.8367 24.8959 19.8344 24.8964 20.8886V20.8887C24.8953 22.0733 24.4341 23.1863 23.5979 24.0224C23.1551 24.4652 22.6366 24.8028 22.057 25.0253L22.0212 24.9319L22.057 25.0253C21.3184 25.3088 20.803 26.0352 20.7766 26.8316L20.7766 26.8317C20.7537 27.5074 20.6086 28.1647 20.3452 28.7853L20.3451 28.7854C20.0716 29.4279 19.6808 30.0057 19.1834 30.503L19.1127 30.4323L19.1834 30.503C18.1537 31.5327 16.7841 32.1 15.3279 32.1C13.8716 32.1 12.502 31.5327 11.4723 30.503L11.543 30.4323L11.4723 30.503L8.49688 27.5277C7.46679 26.4976 6.89951 25.128 6.9 23.672L29.3596 7.06521ZM29.3596 7.06521C29.1393 6.84494 28.7822 6.84492 28.5619 7.06522L25.149 10.4781C24.986 10.6411 24.9441 10.8786 25.0219 11.0802M29.3596 7.06521L25.0219 11.0802M25.0219 11.0802L20.9599 15.1423C19.2205 13.6798 16.6134 13.7655 14.9771 15.4018C14.755 15.6239 14.5566 15.8692 14.3873 16.1311M25.0219 11.0802L6.9 23.672C6.90001 22.2159 7.46727 20.8463 8.49695 19.8167C9.47803 18.8356 10.782 18.2697 12.1683 18.2236C12.9647 18.1972 13.6912 17.6818 13.9747 16.9431L13.9748 16.9429C14.0852 16.6569 14.2238 16.384 14.3873 16.1311M14.3873 16.1311C14.3873 16.1311 14.3874 16.1311 14.3874 16.1311L14.4713 16.1854L14.3873 16.1311ZM8.02825 23.6721V23.6721C8.02783 24.8271 8.47748 25.9127 9.29472 26.7299L12.2701 29.7052C13.087 30.5221 14.1726 30.9718 15.3279 30.9718C16.4832 30.9718 17.5689 30.5221 18.3857 29.7052C18.7806 29.3103 19.0905 28.8523 19.307 28.3439C19.5158 27.852 19.6309 27.3305 19.649 26.794C19.649 26.7939 19.649 26.7939 19.649 26.7939L19.7489 26.7973L8.02825 23.6721ZM8.02825 23.6721C8.02825 22.5168 8.47792 21.4312 9.29472 20.6143C10.0728 19.8362 11.1065 19.3877 12.2058 19.3511C13.4688 19.3091 14.5768 18.5227 15.0277 17.3481L14.9343 17.3122M8.02825 23.6721L20.1584 15.9437M20.1584 15.9437L16.723 19.3791L16.7229 19.3791C16.5719 19.5302 16.5191 19.7538 16.5867 19.9565L16.5868 19.9565C16.6545 20.1593 16.831 20.3064 17.0426 20.3364L17.0426 20.3364C17.4544 20.3949 17.8278 20.5816 18.1231 20.8769L18.1231 20.8769C18.4185 21.1722 18.6052 21.5456 18.6636 21.9574C18.6936 22.1691 18.8407 22.3455 19.0435 22.4132M20.1584 15.9437L19.0435 22.4132M20.1584 15.9437C19.5774 15.4826 18.8637 15.2319 18.1107 15.2319C17.2282 15.2319 16.399 15.5753 15.7749 16.1994C15.6089 16.3655 15.4608 16.5485 15.3347 16.7435C15.2134 16.9312 15.11 17.1347 15.0276 17.3482L14.9343 17.3122M19.0435 22.4132C19.0435 22.4132 19.0435 22.4132 19.0435 22.4132L19.0752 22.3184L19.0435 22.4132ZM19.0435 22.4132C19.102 22.4328 19.1623 22.4422 19.2221 22.4422C19.3693 22.4422 19.5135 22.3846 19.621 22.277L23.0564 18.8417C23.5171 19.4224 23.7679 20.1358 23.7682 20.8885C23.7674 21.7719 23.4237 22.6013 22.8001 23.2248L22.8709 23.2955L19.0435 22.4132ZM14.9343 17.3122C14.4979 18.4491 13.4255 19.2105 12.2025 19.2511C11.0778 19.2886 10.02 19.7476 9.22401 20.5436L15.2507 16.6892C15.1256 16.8829 15.0192 17.0924 14.9343 17.3122ZM18.9209 20.0792C18.6968 19.8552 18.4441 19.6703 18.1696 19.528L25.7854 11.9123L27.0879 13.2148L19.4721 20.8305C19.3299 20.556 19.1449 20.3032 18.9209 20.0792L18.9209 20.0792ZM28.123 12.6543L26.3456 10.8769L28.9608 8.26179L30.7382 10.0392L28.123 12.6543Z" fill="#666666" stroke="#666666" stroke-width="0.2"/>
<path d="M13.7865 21.2474L13.7865 21.2474C12.6931 22.3408 12.6931 24.1197 13.7865 25.2131L13.7865 25.2131C14.3333 25.7599 15.0515 26.0332 15.7694 26.0332C16.4872 26.0332 17.2055 25.7599 17.7523 25.2131C18.8457 24.1197 18.8457 22.3408 17.7523 21.2474L17.7523 21.2474C16.6587 20.154 14.88 20.154 13.7865 21.2474ZM16.9545 24.4154L16.9545 24.4154C16.3012 25.0688 15.2376 25.0688 14.5842 24.4154C13.9308 23.762 13.9308 22.6986 14.5842 22.0452C14.9109 21.7185 15.3399 21.5551 15.7694 21.5551C16.1988 21.5551 16.6279 21.7185 16.9545 22.0452L16.9545 22.0452C17.608 22.6985 17.608 23.762 16.9545 24.4154Z" fill="#666666" stroke="#666666" stroke-width="0.2"/>
<path d="M11.6364 24.8699L11.6364 24.8699C11.4161 24.6496 11.059 24.6496 10.8387 24.8699C10.6184 25.0902 10.6184 25.4474 10.8387 25.6676C10.8387 25.6676 10.8387 25.6676 10.8387 25.6676L13.3328 28.1616L13.3328 28.1617C13.4429 28.2717 13.5875 28.3269 13.7317 28.3269C13.8759 28.3269 14.0205 28.2718 14.1306 28.1616C14.3509 27.9414 14.3509 27.5842 14.1306 27.3639C14.1306 27.3639 14.1306 27.3639 14.1306 27.3639L11.6364 24.8699Z" fill="#666666" stroke="#666666" stroke-width="0.2"/>
</svg>
