<svg width="40" height="40" viewBox="0 0 40 40" fill="none" xmlns="http://www.w3.org/2000/svg">
<rect x="0.5" y="0.5" width="39" height="39" rx="4.5" stroke="#666666"/>
<path d="M13.65 18.125C13.8224 18.125 13.9877 18.1908 14.1096 18.3081C14.2315 18.4253 14.3 18.5842 14.3 18.75V20C14.3 21.3261 14.8479 22.5979 15.823 23.5355C16.7982 24.4732 18.1209 25 19.5 25C20.8791 25 22.2018 24.4732 23.177 23.5355C24.1521 22.5979 24.7 21.3261 24.7 20V18.75C24.7 18.5842 24.7685 18.4253 24.8904 18.3081C25.0123 18.1908 25.1776 18.125 25.35 18.125C25.5224 18.125 25.6877 18.1908 25.8096 18.3081C25.9315 18.4253 26 18.5842 26 18.75V20C26 21.5494 25.4015 23.0436 24.3206 24.1927C23.2396 25.3418 21.7533 26.0638 20.15 26.2188V28.75H24.05C24.2224 28.75 24.3877 28.8158 24.5096 28.9331C24.6315 29.0503 24.7 29.2092 24.7 29.375C24.7 29.5408 24.6315 29.6997 24.5096 29.8169C24.3877 29.9342 24.2224 30 24.05 30H14.95C14.7776 30 14.6123 29.9342 14.4904 29.8169C14.3685 29.6997 14.3 29.5408 14.3 29.375C14.3 29.2092 14.3685 29.0503 14.4904 28.9331C14.6123 28.8158 14.7776 28.75 14.95 28.75H18.85V26.2188C17.2467 26.0638 15.7604 25.3418 14.6794 24.1927C13.5985 23.0436 13 21.5494 13 20V18.75C13 18.5842 13.0685 18.4253 13.1904 18.3081C13.3123 18.1908 13.4776 18.125 13.65 18.125Z" fill="#666666"/>
<path d="M22.1016 20C22.1016 20.663 21.8276 21.2989 21.34 21.7678C20.8524 22.2366 20.1911 22.5 19.5016 22.5C18.812 22.5 18.1507 22.2366 17.6631 21.7678C17.1755 21.2989 16.9016 20.663 16.9016 20V13.75C16.9016 13.087 17.1755 12.4511 17.6631 11.9822C18.1507 11.5134 18.812 11.25 19.5016 11.25C20.1911 11.25 20.8524 11.5134 21.34 11.9822C21.8276 12.4511 22.1016 13.087 22.1016 13.75V20ZM19.5016 10C18.4672 10 17.4752 10.3951 16.7438 11.0983C16.0125 11.8016 15.6016 12.7554 15.6016 13.75V20C15.6016 20.9946 16.0125 21.9484 16.7438 22.6517C17.4752 23.3549 18.4672 23.75 19.5016 23.75C20.5359 23.75 21.5279 23.3549 22.2593 22.6517C22.9907 21.9484 23.4016 20.9946 23.4016 20V13.75C23.4016 12.7554 22.9907 11.8016 22.2593 11.0983C21.5279 10.3951 20.5359 10 19.5016 10V10Z" fill="#666666"/>
</svg>
