<svg width="40" height="40" viewBox="0 0 40 40" fill="none" xmlns="http://www.w3.org/2000/svg">
<rect x="0.5" y="0.5" width="39" height="39" rx="4.5" stroke="#666666"/>
<g clip-path="url(#clip0_4148_45006)">
<path d="M9.75883 8.02112C9.07587 8.0399 9.01954 8.04929 8.7473 8.1901C8.53138 8.30276 8.36474 8.45296 8.22628 8.66184C7.99628 9.00449 8.01036 8.28163 8.0127 19.8872V29.9321L8.13944 30.1786C8.31546 30.5212 8.48209 30.6855 8.83648 30.8662L9.09699 31H19.5104H29.9214L30.1397 30.892C30.5128 30.709 30.7147 30.5071 30.893 30.1387L30.9986 29.9228V19.5141V9.10306L30.9048 8.90827C30.7006 8.47408 30.5621 8.33327 30.1537 8.12908L29.9308 8.01643L20.1558 8.01174C14.7789 8.00704 10.1015 8.01174 9.75883 8.02112ZM11.9415 15.7871V22.8702L12.0447 22.9711C12.1457 23.0697 12.1551 23.0744 12.3452 23.0932C12.4531 23.1026 12.7324 23.1119 12.9694 23.1119L13.3966 23.1143V26.7098V30.303L11.397 30.2865C10.2963 30.2795 9.33403 30.2631 9.25893 30.2513C9.08995 30.2232 8.97026 30.1457 8.82944 29.9697L8.72617 29.8383V19.4859V9.13357L8.82709 9.00214C8.93036 8.86837 9.00311 8.80969 9.13219 8.7698C9.25424 8.73225 9.82219 8.71112 10.9159 8.70878L11.9415 8.70408V15.7871ZM17.7103 15.8012L17.715 22.889L17.7807 22.957C17.9051 23.0908 17.9332 23.0955 18.5645 23.1096L19.1466 23.1213V26.7074V30.2959H16.6236H14.1007V26.7051V23.1143L14.5184 23.1119C14.7461 23.1119 15.0277 23.1026 15.1404 23.0932C15.3445 23.0744 15.3492 23.072 15.4525 22.9735L15.5558 22.8702V15.7871V8.70408L16.6307 8.70878L17.7032 8.71582L17.7103 15.8012ZM23.465 15.8012V22.9007L23.5706 22.9876C23.6691 23.0673 23.695 23.0767 23.871 23.0932C23.9766 23.1026 24.2512 23.1119 24.4812 23.1119L24.8966 23.1143V26.7051V30.2959H22.3854H19.8741V26.7098V23.1213L20.4444 23.1072C20.7566 23.1002 21.0406 23.0838 21.0734 23.072C21.1086 23.058 21.1743 23.0134 21.2213 22.9735L21.3058 22.8984V15.8012V8.70408H22.3854H23.465V15.8012ZM29.9425 8.81204C30.2101 9.00918 30.2077 9.00214 30.25 9.42459C30.2828 9.73908 30.3063 22.9852 30.2828 27.097L30.2664 29.8735L30.1232 30.0284C30.0434 30.1152 29.9425 30.202 29.8956 30.2208C29.7853 30.2678 28.8019 30.2936 27.0041 30.2936L25.6241 30.2959V26.7098V23.1213L26.2109 23.1072C26.8328 23.0932 26.8492 23.0908 26.9807 22.9664L27.0558 22.8937V15.7989V8.70408L28.4475 8.72051L29.8369 8.73459L29.9425 8.81204Z" fill="#666666"/>
</g>
<defs>
<clipPath id="clip0_4148_45006">
<rect width="23" height="23" fill="white" transform="translate(8 8)"/>
</clipPath>
</defs>
</svg>
