<svg width="38" height="23" viewBox="0 0 38 23" fill="none" xmlns="http://www.w3.org/2000/svg">
<path d="M0 23V0H5.27613C5.31973 0.148006 5.34153 0.318212 5.34153 0.510618C5.34153 0.688224 5.31973 0.85103 5.27613 0.999035C5.24706 1.14704 5.20345 1.25804 5.14531 1.33205H1.56976L2.81248 0.355213V22.6448L1.56976 21.668H5.10171C5.18892 21.7568 5.24706 21.8752 5.27613 22.0232C5.31973 22.1712 5.34153 22.3266 5.34153 22.4894C5.34153 22.6818 5.327 22.852 5.29793 23H0Z" fill="#4C3ED9"/>
<path d="M6.68543 17.2722C6.68543 16.9466 6.7145 16.6876 6.77264 16.4952C6.84532 16.3028 6.93252 16.1844 7.03427 16.14L8.56042 15.6515L8.16798 16.1178V4.26255L8.58222 4.72877L6.68543 4.26255C6.68543 4.01094 6.7145 3.79633 6.77264 3.61873C6.83078 3.42632 6.94706 3.23391 7.12148 3.04151H12.6592C12.6592 3.36712 12.6302 3.63353 12.572 3.84073C12.5139 4.03314 12.4267 4.14415 12.3104 4.17375L10.6316 4.66216L10.9805 4.19595V15.6737L10.7624 15.4295L15.886 15.8292L15.6025 16.2066L16.1912 13.4093C16.4383 13.4093 16.6563 13.4463 16.8452 13.5203C17.0487 13.5795 17.245 13.6831 17.4339 13.8311V17.2722H6.68543Z" fill="#4C3ED9"/>
<path d="M17.816 17.2722C17.816 16.9466 17.845 16.6876 17.9032 16.4952C17.9758 16.3028 18.063 16.1844 18.1648 16.14L19.6909 15.5849L18.9061 16.4064L23.5935 3.33012C23.6517 3.16731 23.7752 3.04151 23.9642 2.9527C24.1531 2.8639 24.3566 2.8047 24.5746 2.7751C24.7927 2.7455 24.9743 2.7307 25.1197 2.7307C25.2796 2.7307 25.4394 2.7381 25.5993 2.7529C25.7592 2.7677 25.9191 2.7973 26.079 2.8417L31.2025 16.3176L30.3522 15.5849L32.4234 16.0512C32.4234 16.288 32.3943 16.5026 32.3362 16.695C32.2781 16.8726 32.1545 17.065 31.9656 17.2722H26.5368C26.5368 16.9466 26.5659 16.6876 26.624 16.4952C26.6967 16.3028 26.7839 16.1844 26.8857 16.14L28.4336 15.6515L28.2592 16.2954L23.877 4.79537L24.7054 4.77317L20.5412 16.362L20.3886 15.5183L22.6996 16.0512C22.6996 16.288 22.6706 16.5026 22.6124 16.695C22.5543 16.8726 22.4307 17.065 22.2418 17.2722H17.816ZM21.3261 12.7876L21.6313 11.3668H27.0601L27.3871 12.7876H21.3261Z" fill="#4C3ED9"/>
<path d="M38 23V0H32.7239C32.6803 0.148006 32.6585 0.318212 32.6585 0.510618C32.6585 0.688224 32.673 0.85103 32.7021 0.999035C32.7457 1.14704 32.7965 1.25804 32.8547 1.33205H36.4302L35.1875 0.355213V22.6448L36.4302 21.668H32.8983C32.8111 21.7568 32.7457 21.8752 32.7021 22.0232C32.673 22.1712 32.6585 22.3266 32.6585 22.4894C32.6585 22.6818 32.673 22.852 32.7021 23H38Z" fill="#4C3ED9"/>
</svg>
