<svg width="42" height="27" viewBox="0 0 42 27" fill="none" xmlns="http://www.w3.org/2000/svg">
<path d="M10.6873 17.2722C10.6873 16.9466 10.7164 16.6876 10.7745 16.4952C10.8472 16.3028 10.9344 16.1844 11.0362 16.14L12.5623 15.6515L12.1699 16.1178V4.26255L12.5841 4.72877L10.6873 4.26255C10.6873 4.01094 10.7164 3.79633 10.7745 3.61873C10.8327 3.42632 10.9489 3.23391 11.1234 3.04151H16.6611C16.6611 3.36712 16.632 3.63353 16.5739 3.84073C16.5158 4.03314 16.4286 4.14415 16.3123 4.17375L14.6335 4.66216L14.9823 4.19595V15.6737L14.7643 15.4295L19.8878 15.8292L19.6044 16.2066L20.1931 13.4093C20.4402 13.4093 20.6582 13.4463 20.8471 13.5203C21.0506 13.5795 21.2468 13.6831 21.4358 13.8311V17.2722H10.6873Z" fill="#4C3ED9"/>
<path d="M21.8178 17.2722C21.8178 16.9466 21.8469 16.6876 21.9051 16.4952C21.9777 16.3028 22.0649 16.1844 22.1667 16.14L23.6928 15.5849L22.908 16.4064L27.5954 3.33012C27.6536 3.16731 27.7771 3.04151 27.9661 2.9527C28.155 2.8639 28.3585 2.8047 28.5765 2.7751C28.7945 2.7455 28.9762 2.7307 29.1216 2.7307C29.2815 2.7307 29.4413 2.7381 29.6012 2.7529C29.7611 2.7677 29.921 2.7973 30.0809 2.8417L35.2044 16.3176L34.3541 15.5849L36.4253 16.0512C36.4253 16.288 36.3962 16.5026 36.3381 16.695C36.28 16.8726 36.1564 17.065 35.9675 17.2722H30.5387C30.5387 16.9466 30.5678 16.6876 30.6259 16.4952C30.6986 16.3028 30.7858 16.1844 30.8875 16.14L32.4355 15.6515L32.2611 16.2954L27.8788 4.79537L28.7073 4.77317L24.5431 16.362L24.3905 15.5183L26.7015 16.0512C26.7015 16.288 26.6725 16.5026 26.6143 16.695C26.5562 16.8726 26.4326 17.065 26.2437 17.2722H21.8178ZM25.328 12.7876L25.6332 11.3668H31.062L31.389 12.7876H25.328Z" fill="#4C3ED9"/>
<path d="M42.0019 23V0H36.7258C36.6822 0.148006 36.6604 0.318212 36.6604 0.510618C36.6604 0.688224 36.6749 0.85103 36.704 0.999035C36.7476 1.14704 36.7984 1.25804 36.8566 1.33205H40.4321L39.1894 0.355213V22.6448L40.4321 21.668H6.90018C6.81297 21.7568 6.74757 21.8752 6.70396 22.0232C6.67489 22.1712 6.66036 22.3266 6.66036 22.4894C6.66036 22.6818 6.67489 22.852 6.70396 23H42.0019Z" fill="#4C3ED9"/>
<path d="M1.33108 23.3442C0.712557 22.9513 0.712556 22.0487 1.33108 21.6558L5.96578 18.7124C6.63155 18.2896 7.50189 18.7679 7.50189 19.5566V25.4434C7.50189 26.2321 6.63155 26.7104 5.96578 26.2876L1.33108 23.3442Z" fill="#4C3ED9"/>
</svg>
