<svg width="40" height="40" viewBox="0 0 40 40" fill="none" xmlns="http://www.w3.org/2000/svg">
<rect x="0.5" y="0.5" width="39" height="39" rx="4.5" stroke="#666666"/>
<g clip-path="url(#clip0_4148_45014)">
<path d="M31.9584 13.9394L31.9584 13.9394C32.0878 14.0688 32.1329 14.2602 32.0751 14.4338L32.0751 14.4338C32.0171 14.6075 31.866 14.7334 31.6849 14.7591L31.6708 14.6601L31.6848 14.7591L25.0723 15.6986L24.5824 16.1885L24.5824 16.1886C24.3937 16.3771 24.0879 16.377 23.8992 16.1884L23.8991 16.1883C23.7107 15.9997 23.7107 15.6941 23.8993 15.5054L23.8993 15.5054L24.5032 14.9016L24.5032 14.9015C24.5772 14.8276 24.6732 14.7797 24.7767 14.7649L24.7768 14.7649L30.5917 13.9388L24.7879 8.13467L23.9618 13.9495C23.9618 13.9495 23.9618 13.9495 23.9618 13.9495C23.9471 14.0531 23.899 14.1492 23.8251 14.2231L23.8251 14.2231L21.5527 16.4956C22.1621 16.4216 22.7836 16.4708 23.3769 16.6426L23.3491 16.7387L23.3769 16.6426C24.0886 16.8488 24.7596 17.2314 25.3195 17.7912L25.2488 17.8619L25.3195 17.7912C26.1779 18.6497 26.6509 19.7914 26.6509 21.0055C26.6509 22.2195 26.1779 23.3613 25.3194 24.2197L20.4886 29.0506L20.4179 28.9798L20.4886 29.0506C19.6301 29.9089 18.4883 30.3819 17.2743 30.3819C16.0603 30.3819 14.9184 29.9089 14.0601 29.0505C13.6571 28.6476 13.3363 28.176 13.1104 27.6606L10.7893 29.9817L10.8096 30.002C10.9982 30.1906 10.9982 30.4964 10.8096 30.685L10.8096 30.6851C10.7153 30.7793 10.5915 30.8265 10.4681 30.8265C10.3446 30.8265 10.2208 30.7793 10.1265 30.6851L10.1265 30.6851L10.1972 30.6143L10.1265 30.685L10.1265 30.685L10.1264 30.685L10.1262 30.6848L10.1255 30.684L10.1224 30.681L10.111 30.6695L10.07 30.6286L9.94572 30.5043L9.82122 30.3798L9.78005 30.3386L9.76843 30.327L9.76533 30.3239L9.76425 30.3228L9.7642 30.3228L9.83491 30.252L9.76419 30.3227L9.76414 30.3227L9.76396 30.3225L9.76322 30.3218L9.7603 30.3189L9.74893 30.3075L9.70575 30.2643L9.55162 30.1102L9.08386 29.6424L8.40279 28.9613L8.40277 28.9613L8.04146 28.6C7.85284 28.4114 7.85286 28.1056 8.04145 27.917L8.04148 27.9169C8.2301 27.7284 8.53584 27.7284 8.72449 27.9169L8.72452 27.917L8.7448 27.9372L8.91374 27.7683L9.44113 27.2409L9.96891 26.7131L10.1431 26.5389L10.1921 26.4899L10.2051 26.4769L10.2085 26.4735L10.2094 26.4726L10.2096 26.4724L10.2097 26.4723L10.2097 26.4723L10.2097 26.4723L13.638 23.0441L12.9694 22.3756L12.7203 22.6247L12.7203 22.6247C12.626 22.719 12.5022 22.7661 12.3788 22.7661C12.2553 22.7661 12.1315 22.719 12.0372 22.6247L12.0372 22.6247C11.8486 22.4361 11.8486 22.1303 12.0372 21.9416L12.0372 21.9416L13.2185 20.7604L13.2185 20.7604C13.4071 20.5718 13.7128 20.5718 13.9015 20.7603L13.9015 20.7604C14.0901 20.949 14.0901 21.2547 13.9015 21.4434L13.9015 21.4434L13.6524 21.6925L14.321 22.3611L16.1338 20.5482L15.4653 19.8797L15.2162 20.1288L15.2161 20.1288C15.1218 20.2231 14.998 20.2702 14.8746 20.2702C14.7512 20.2702 14.6274 20.2231 14.5331 20.1288L14.5331 20.1288C14.3444 19.9402 14.3444 19.6344 14.533 19.4457L14.5331 19.4457L15.7143 18.2645L15.7143 18.2645C15.9029 18.0759 16.2087 18.0759 16.3973 18.2644L16.3974 18.2645C16.586 18.4531 16.586 18.7589 16.3974 18.9475L16.3974 18.9475L16.1483 19.1966L16.8168 19.8652L18.6297 18.0523L17.9611 17.3838L17.7121 17.6328C17.6177 17.7272 17.4939 17.7743 17.3705 17.7743C17.2471 17.7743 17.1233 17.7272 17.029 17.6329L31.9584 13.9394ZM31.9584 13.9394L24.7871 6.76801L24.787 6.76799L31.9584 13.9394ZM17.0997 17.0206L17.029 16.9499C16.8403 17.1385 16.8403 17.4443 17.029 17.6329L17.0997 17.0206ZM17.0997 17.0206L17.029 16.9499L17.029 16.9499L17.0291 16.9498L17.0294 16.9495L17.0306 16.9482L17.0356 16.9433L17.0543 16.9245L17.1211 16.8577L17.3241 16.6547L17.6203 16.3585L17.6203 16.3585L18.2101 15.7686C18.2102 15.7686 18.2102 15.7686 18.2102 15.7686C18.3988 15.5799 18.7046 15.58 18.8932 15.7686C19.0818 15.9571 19.0818 16.263 18.8932 16.4516L18.6441 16.7007L19.3127 17.3693L23.0278 13.6542M17.0997 17.0206L23.0278 13.6542M23.9673 7.04162L23.9673 7.04158C23.9931 6.86045 24.119 6.7093 24.2926 6.65138C24.2926 6.65138 24.2926 6.65138 24.2926 6.65138L23.9673 7.04162ZM23.9673 7.04162L23.0278 13.6542M23.9673 7.04162L23.0278 13.6542M14.7429 28.3676L14.6721 28.4383L14.7428 28.3676C14.3332 27.958 14.0313 27.4586 13.8594 26.9115L14.6684 26.1025C14.7271 26.6821 14.978 27.246 15.4213 27.6893L15.492 27.6186L15.4213 27.6893C16.443 28.7109 18.1052 28.7109 19.127 27.6892L19.0563 27.6185L19.127 27.6892L23.9578 22.8584C24.9795 21.8367 24.9795 20.1744 23.9579 19.1527C22.9362 18.1311 21.2739 18.1309 20.2521 19.1527L15.4219 23.983L15.4219 23.983L13.6305 25.7744L12.4 27.0049L11.9945 27.4103L11.9114 27.4934L11.2331 26.815L19.5737 18.4744L19.503 18.4037L19.5737 18.4744C20.9694 17.0786 23.2405 17.0786 24.6361 18.4744L24.7068 18.4037L24.6361 18.4744C25.3124 19.1506 25.6846 20.0492 25.6846 21.0056C25.6846 21.9619 25.3124 22.8605 24.6361 23.5367L24.7068 23.6074L24.6361 23.5367L19.8053 28.3675C19.129 29.0438 18.2304 29.4161 17.274 29.4161C16.3177 29.4161 15.4191 29.0439 14.7429 28.3676ZM24.7163 6.83871L24.7164 6.83871L24.7163 6.83871ZM20.9352 19.8358L20.9352 19.8358C21.5801 19.1908 22.6298 19.1907 23.2748 19.8358L23.3455 19.7651L23.2748 19.8358C23.9198 20.4807 23.9197 21.5303 23.2747 22.1753L18.4439 27.0062C17.7989 27.6512 16.7492 27.6512 16.1043 27.0062L16.0352 27.0754L16.1043 27.0062C15.4593 26.3612 15.4593 25.3116 16.1043 24.6666L20.9352 19.8358ZM9.42771 28.6204L10.55 27.498L11.2284 28.1764L10.1061 29.2987L9.42771 28.6204Z" fill="#666666" stroke="#666666" stroke-width="0.2"/>
</g>
<defs>
<clipPath id="clip0_4148_45014">
<rect width="24" height="24" fill="white" transform="translate(8 6)"/>
</clipPath>
</defs>
</svg>
