<svg width="766" height="120" viewBox="0 0 766 120" fill="none" xmlns="http://www.w3.org/2000/svg">
<g clip-path="url(#clip0_4008_38139)">
<rect y="13" width="766" height="94" rx="10" fill="#E6E6E6"/>
<rect x="-383" y="13" width="1532" height="94" rx="10" fill="#E6E6E6"/>
<rect x="6" y="22" width="10" height="75" rx="5" fill="white"/>
<rect x="30" y="39.5" width="10" height="40" rx="5" fill="white"/>
<rect x="54" y="22" width="10" height="75" rx="5" fill="white"/>
<rect x="78" y="39.5" width="10" height="40" rx="5" fill="white"/>
<rect x="102" y="22" width="10" height="75" rx="5" fill="white"/>
<rect x="126" y="39.5" width="10" height="40" rx="5" fill="white"/>
<rect x="150" y="22" width="10" height="75" rx="5" fill="white"/>
<rect x="174" y="39.5" width="10" height="40" rx="5" fill="white"/>
<rect x="198" y="22" width="10" height="75" rx="5" fill="white"/>
<rect x="222" y="39.5" width="10" height="40" rx="5" fill="white"/>
<rect x="246" y="22" width="10" height="75" rx="5" fill="white"/>
<rect x="270" y="39.5" width="10" height="40" rx="5" fill="white"/>
<rect x="294" y="22" width="10" height="75" rx="5" fill="white"/>
<rect x="318" y="39.5" width="10" height="40" rx="5" fill="white"/>
<rect x="342" y="22" width="10" height="75" rx="5" fill="white"/>
<rect x="366" y="39.5" width="10" height="40" rx="5" fill="white"/>
<rect x="390" y="39.5" width="10" height="40" rx="5" fill="white"/>
<rect x="414" y="22" width="10" height="75" rx="5" fill="white"/>
<rect x="438" y="39.5" width="10" height="40" rx="5" fill="white"/>
<rect x="462" y="22" width="10" height="75" rx="5" fill="white"/>
<rect x="486" y="39.5" width="10" height="40" rx="5" fill="white"/>
<rect x="510" y="22" width="10" height="75" rx="5" fill="white"/>
<rect x="534" y="39.5" width="10" height="40" rx="5" fill="white"/>
<rect x="558" y="22" width="10" height="75" rx="5" fill="white"/>
<rect x="582" y="39.5" width="10" height="40" rx="5" fill="white"/>
<rect x="606" y="22" width="10" height="75" rx="5" fill="white"/>
<rect x="630" y="39.5" width="10" height="40" rx="5" fill="white"/>
<rect x="654" y="22" width="10" height="75" rx="5" fill="white"/>
<rect x="678" y="39.5" width="10" height="40" rx="5" fill="white"/>
<rect x="702" y="22" width="10" height="75" rx="5" fill="white"/>
<rect x="726" y="39.5" width="10" height="40" rx="5" fill="white"/>
<rect x="750" y="22" width="10" height="75" rx="5" fill="white"/>
</g>
<rect x="1" y="14" width="764" height="92" rx="9" stroke="#666666" stroke-width="2"/>
<rect x="1" y="15" width="207" height="92" rx="10" fill="#666666" fill-opacity="0.5"/>
<rect x="558" y="14" width="207" height="92" rx="10" fill="#666666" fill-opacity="0.5"/>
<rect x="200" width="8" height="120" rx="4" fill="#666666"/>
<rect x="558" width="8" height="120" rx="4" fill="#666666"/>
<defs>
<clipPath id="clip0_4008_38139">
<rect y="13" width="766" height="94" rx="10" fill="white"/>
</clipPath>
</defs>
</svg>
