<svg width="24" height="24" viewBox="0 0 24 24" xmlns="http://www.w3.org/2000/svg">
<g clip-path="url(#clip0)">
<path d="M22.1914 1.02429H21.1944C20.5801 1.02429 20.0802 1.52417 20.0802 2.13849V5.63049V7.00378V10.2863V14.2282V17.58V18.6202C20.0802 18.9216 20.0718 19.1583 20.2005 19.4295C20.3199 19.6815 20.4391 19.9332 20.5586 20.1852C20.7599 20.61 20.9613 21.035 21.1627 21.46C21.2609 21.6669 21.4641 21.7956 21.693 21.7954C21.9221 21.7954 22.1251 21.6669 22.2233 21.46C22.4369 21.0088 22.6508 20.5576 22.8647 20.1064C22.9831 19.8565 23.1177 19.6086 23.2221 19.3522C23.3856 18.9503 23.3056 18.5374 23.3056 18.1165C23.3056 17.0528 23.3056 15.9893 23.3056 14.9257C23.3056 14.7314 23.1481 14.5737 22.9537 14.5737C22.759 14.5737 22.6016 14.7312 22.6016 14.9257V18.7447H20.7844V5.9826H22.6016V13.2673C22.6016 13.4617 22.759 13.6194 22.9537 13.6194C23.1481 13.6194 23.3056 13.4617 23.3056 13.2673V2.13849C23.3056 1.52417 22.8059 1.02429 22.1914 1.02429ZM20.7844 5.25531V4.73456H22.6016V5.25531H20.7844ZM20.7844 2.13849C20.7844 1.91235 20.9684 1.72833 21.1944 1.72833H22.1916C22.4175 1.72833 22.6016 1.91235 22.6016 2.13849V4.03052H20.7844V2.13849ZM22.3972 19.4487L21.693 20.9346L20.9888 19.4487H22.3972Z" />
<path d="M14.7138 5.82715V3.70532C14.7138 3.38177 14.4507 3.11865 14.1271 3.11865H3.75458C3.43103 3.11865 3.16772 3.38177 3.16772 3.70532V5.82733C3.16772 6.15088 3.43085 6.414 3.75458 6.414H5.22913C5.42358 6.414 5.58124 6.25653 5.58124 6.06189C5.58124 5.86743 5.42358 5.70996 5.22913 5.70996H3.87195V3.82269H14.0098V5.70996H6.85638C6.66193 5.70996 6.50446 5.86743 6.50446 6.06189C6.50446 6.25653 6.66193 6.414 6.85638 6.414H14.1271C14.4507 6.414 14.7138 6.15088 14.7138 5.82715Z" />
<path d="M17.5025 1.72742H17.1784V1.15594C17.1784 0.518555 16.6599 0 16.0225 0H1.05524C0.860779 0 0.703125 0.157654 0.703125 0.352112V20.8903C0.703125 21.5609 1.2486 22.1061 1.91895 22.1061H2.26282V23.4034C2.26282 23.6186 2.37396 23.8112 2.56018 23.9191C2.65356 23.9729 2.7561 24 2.85846 24C2.96045 24 3.06262 23.9733 3.15546 23.9196L4.10907 23.3712L5.06268 23.9196C5.24908 24.0271 5.47174 24.0267 5.65778 23.9191C5.84418 23.8112 5.95532 23.6186 5.95532 23.4034V22.1061H17.5027C18.1401 22.1061 18.6586 21.5876 18.6586 20.9502V2.88336C18.6584 2.24597 18.1399 1.72742 17.5025 1.72742ZM2.26282 21.4021H1.91895C1.63678 21.4021 1.40717 21.1725 1.40717 20.8903V20.3787H2.26282V21.4021ZM5.2511 23.2158L4.40607 22.7298C4.22296 22.6243 3.99536 22.6243 3.81207 22.7298L2.96704 23.2158V20.3787H5.2511V23.2158ZM5.60321 19.6745H1.40717V0.704041H16.0225C16.2717 0.704041 16.4744 0.906738 16.4744 1.15594V19.2228C16.4744 19.4718 16.2717 19.6745 16.0225 19.6745H5.60321ZM17.9544 20.9502C17.9544 21.1994 17.7517 21.4021 17.5025 21.4021H5.95532V20.3787H16.0225C16.6599 20.3787 17.1784 19.8602 17.1784 19.2228V2.43164H17.5025C17.7517 2.43164 17.9544 2.63434 17.9544 2.88354V20.9502Z" />
<path d="M13.0841 13.9501C13.0841 13.7556 12.9265 13.5981 12.732 13.5981H7.37433C7.17987 13.5981 7.02222 13.7556 7.02222 13.9501C7.02222 14.1447 7.17987 14.3022 7.37433 14.3022H12.732C12.9265 14.3022 13.0841 14.1445 13.0841 13.9501Z" />
<path d="M15.1318 13.5981H14.3866C14.1923 13.5981 14.0347 13.7556 14.0347 13.9501C14.0347 14.1447 14.1921 14.3022 14.3866 14.3022H15.1318C15.3263 14.3022 15.484 14.1447 15.484 13.9501C15.484 13.7556 15.3265 13.5981 15.1318 13.5981Z" />
<path d="M7.37433 15.8335C7.17987 15.8335 7.02222 15.9911 7.02222 16.1856C7.02222 16.3801 7.17987 16.5377 7.37433 16.5377H9.37567C9.56995 16.5377 9.7276 16.3801 9.7276 16.1856C9.7276 15.9911 9.57013 15.8335 9.37567 15.8335H7.37433Z" />
<path d="M15.1318 15.8335H10.9888C10.7944 15.8335 10.6367 15.9911 10.6367 16.1856C10.6367 16.3801 10.7944 16.5377 10.9888 16.5377H15.1318C15.3262 16.5377 15.4839 16.3801 15.4839 16.1856C15.4839 15.9911 15.3264 15.8335 15.1318 15.8335Z" />
<path d="M10.5961 17.2256H7.37433C7.17987 17.2256 7.02222 17.3831 7.02222 17.5776C7.02222 17.7722 7.17987 17.9297 7.37433 17.9297H10.5961C10.7905 17.9297 10.9482 17.7722 10.9482 17.5776C10.9482 17.3833 10.7905 17.2256 10.5961 17.2256Z" />
<path d="M15.1318 17.2256H12.1922C11.9977 17.2256 11.8401 17.3831 11.8401 17.5776C11.8401 17.7722 11.9976 17.9297 12.1922 17.9297H15.1318C15.3262 17.9297 15.4839 17.7722 15.4839 17.5776C15.4839 17.3833 15.3264 17.2256 15.1318 17.2256Z" />
</g>
<defs>
<clipPath id="clip0">
<rect width="24" height="24"/>
</clipPath>
</defs>
</svg>
