<svg width="34" height="27" viewBox="0 0 34 27" fill="none" xmlns="http://www.w3.org/2000/svg">
<g clip-path="url(#clip0_4126_45361)">
<path d="M23.1751 17.2812C25.7164 13.7809 24.2698 9.46802 19.7345 7.65538L19.6954 18.0625C19.6954 24.563 13.4007 26.9069 10.1947 24.4692C6.28491 21.469 12.7751 15.9998 18.0924 17.4687V1.90492C18.2097 1.46738 19.5781 1.49864 19.6954 1.90492C19.6954 6.15526 30.1735 9.59303 24.1134 17.6249C23.8006 18 22.9014 17.5937 23.136 17.2812H23.1751Z" fill="none"/>
<path d="M5.17653 19.3863C4.8676 17.7798 5.91974 16.2266 7.52632 15.9177C8.78553 15.6756 10.0297 16.2918 10.6376 17.3456L13.4959 13.1263L11.4768 11.7585C11.2439 11.6007 10.9182 11.6633 10.7604 11.8963L10.094 12.8799C9.61391 12.7246 9.12041 12.6169 8.59602 12.5827L8.37059 11.4103C8.31214 11.1063 8.03157 10.9352 7.74934 10.9894L5.49144 11.4236C5.1875 11.4821 5.01214 11.7409 5.07059 12.0449L5.29603 13.2172C4.82173 13.4435 4.40339 13.7266 4.0151 14.0489L3.03146 13.3825C2.79849 13.2247 2.47283 13.2873 2.31501 13.5203L1.0349 15.4099C0.877079 15.6429 0.939701 15.9686 1.17267 16.1264L2.15631 16.7927C2.00099 17.2729 1.89327 17.7664 1.85902 18.2907L0.664946 18.5204C0.360999 18.5788 0.189817 18.8594 0.244089 19.1416L0.674093 21.3778C0.73254 21.6817 0.991393 21.8571 1.29534 21.7986L2.46771 21.5732C2.69399 22.0475 2.97706 22.4659 3.29937 22.8541L2.63301 23.8378C2.45348 24.0749 2.53781 24.3964 2.77078 24.5542L4.78983 25.922L7.64816 21.7027C6.4307 21.5766 5.41867 20.6455 5.17653 19.3863Z" fill="none"/>
</g>
<defs>
<clipPath id="clip0_4126_45361">
<rect width="34" height="27" fill="none"/>
</clipPath>
</defs>
</svg>
