<svg width="28" height="31" viewBox="0 0 28 31" fill="none" xmlns="http://www.w3.org/2000/svg">
<g clip-path="url(#clip0)">
<path d="M15.5645 4.37351C15.5645 3.31323 14.7433 2.45097 13.7333 2.45097H13.2755C12.2656 2.45097 11.4443 3.31323 11.4443 4.37351H12.3599C12.3599 3.84337 12.7706 3.41224 13.2755 3.41224H13.7333C14.1792 3.41224 14.5514 3.7482 14.6325 4.19183L13.4097 5.4756C13.3236 5.56548 13.2755 5.68756 13.2755 5.81541V6.77668H14.1911V6.01439L15.4304 4.71332C15.5165 4.62344 15.5645 4.50136 15.5645 4.37351Z" fill="#4C3ED9"/>
<path d="M13.2744 7.7379H14.19V8.69916H13.2744V7.7379Z" fill="#4C3ED9"/>
<path d="M27.4298 12.6163L27.4321 12.6134L25.1431 10.6908C25.0616 10.6226 24.9614 10.5856 24.857 10.5856H20.7368V0.972905C20.7368 0.707115 20.5321 0.492271 20.279 0.492271H7.46055C7.20739 0.492271 7.00275 0.707115 7.00275 0.972905V10.5856H2.88255C2.77817 10.5856 2.67791 10.6226 2.59642 10.6908L0.307417 12.6134L0.309706 12.6163C0.202581 12.7066 0.135742 12.8412 0.135742 12.9887V16.3532C0.135742 16.4128 0.146272 16.4719 0.166873 16.5272L3.22864 24.7931L0.366474 26.5099C0.22364 26.5955 0.135742 26.7551 0.135742 26.9271V28.369C0.135742 28.6348 0.340379 28.8497 0.593543 28.8497H11.123C11.3761 28.8497 11.5808 28.6348 11.5808 28.369V25.8616L12.2272 26.3547C12.3055 26.4148 12.3998 26.4465 12.4964 26.4465H15.2432C15.3398 26.4465 15.4341 26.4148 15.5124 26.3547L16.1588 25.8616V28.369C16.1588 28.6348 16.3634 28.8497 16.6166 28.8497H27.146C27.3991 28.8497 27.6038 28.6348 27.6038 28.369V26.9271C27.6038 26.7551 27.5159 26.5955 27.373 26.5099L24.5109 24.7931L27.5726 16.5277C27.5932 16.4719 27.6038 16.4128 27.6038 16.3532V12.9887C27.6038 12.8412 27.5369 12.7066 27.4298 12.6163ZM26.381 12.9618L20.7368 17.0837V13.95H23.0258C23.2789 13.95 23.4836 13.7352 23.4836 13.4694V12.9887C23.4836 12.4456 23.3046 11.9496 23.0139 11.5468H24.6963L26.381 12.9618ZM7.91835 9.62431H12.4964V8.66304H7.91835V1.45354H19.8212V8.66304H15.2432V9.62431H19.8212V10.5856H7.91835V9.62431ZM21.1946 11.5468C21.9518 11.5468 22.568 12.1938 22.568 12.9887H5.17155C5.17155 12.1938 5.78775 11.5468 6.54495 11.5468H21.1946ZM15.2432 13.95H17.99V15.8725H15.2432V13.95ZM9.74955 13.95H12.4964V15.8725H9.74955V13.95ZM3.04323 11.5468H4.72565C4.43495 11.9496 4.25595 12.4456 4.25595 12.9887V13.4694C4.25595 13.7352 4.46058 13.95 4.71375 13.95H7.00275V17.0837L1.35853 12.9618L3.04323 11.5468ZM10.6652 27.8884H1.05134V27.2059L4.02522 25.4218C4.22207 25.3035 4.30676 25.0517 4.22482 24.8306L1.05134 16.2628V13.9087L10.6652 20.9298V27.8884ZM15.0944 25.4852H12.6451L11.5808 24.6734V20.6789C11.5808 20.5217 11.5075 20.3742 11.3844 20.2843L7.91835 17.7528V13.95H8.83395V16.3532C8.83395 16.619 9.03859 16.8338 9.29175 16.8338H12.9542C13.2073 16.8338 13.412 16.619 13.412 16.3532V13.95H14.3276V16.3532C14.3276 16.619 14.5322 16.8338 14.7854 16.8338H18.4478C18.7009 16.8338 18.9056 16.619 18.9056 16.3532V13.95H19.8212V17.7528L16.3552 20.2843C16.232 20.3742 16.1588 20.5217 16.1588 20.6789V24.6734L15.0944 25.4852ZM26.6882 16.2628L23.5147 24.8301C23.4323 25.0517 23.5175 25.3031 23.7143 25.4213L26.6882 27.2059V27.8884H17.0744V20.9298L26.6882 13.9087V16.2628Z" fill="#4C3ED9"/>
</g>
<defs>
<clipPath id="clip0">
<rect width="27.4791" height="29.5206" fill="white" transform="translate(0.135742 0.492271)"/>
</clipPath>
</defs>
</svg>
