<svg width="21" height="21" viewBox="0 0 21 21" fill="none" xmlns="http://www.w3.org/2000/svg">
<path d="M4.79749 7.76C4.79749 6.12399 6.12399 4.79749 7.76 4.79749C9.04228 4.79749 10.1477 5.63761 10.5456 6.78724L14.1493 3.18359L12.4248 1.45915C12.2259 1.26017 11.8942 1.26017 11.6953 1.45915L10.8552 2.29926C10.413 2.05607 9.94872 1.85709 9.44023 1.72444V0.530598C9.44023 0.221083 9.19704 0 8.90963 0H6.61037C6.30086 0 6.07977 0.221083 6.07977 0.530598V1.72444C5.57128 1.85709 5.10701 2.05607 4.66484 2.29926L3.82473 1.45915C3.62576 1.26017 3.29413 1.26017 3.09516 1.45915L1.48125 3.07305C1.28228 3.27202 1.28228 3.60365 1.48125 3.80262L2.32137 4.64274C2.07818 5.0849 1.8792 5.54917 1.74655 6.05766H0.530598C0.221083 6.05766 0 6.30086 0 6.58826V8.86541C0 9.17493 0.221083 9.39601 0.530598 9.39601H1.72444C1.85709 9.9045 2.05607 10.3688 2.29926 10.8109L1.45915 11.6511C1.23806 11.85 1.26017 12.1817 1.45915 12.3806L3.18359 14.1051L6.78724 10.5014C5.6155 10.1477 4.79749 9.04228 4.79749 7.76Z"/>
<path d="M14.5703 5.76953L6.69141 13.6484L10.0837 17.0407L17.9626 9.16184L14.5703 5.76953Z"/>
<path d="M20.7817 5.3513L18.4161 2.9636C18.1287 2.6762 17.6865 2.6762 17.3991 2.9636L15.8516 4.51118L19.2562 7.91585L20.8038 6.36828C21.0691 6.08087 21.0691 5.61659 20.7817 5.3513Z"/>
<path d="M4.5557 15.8062C4.46727 15.8946 4.40094 16.0273 4.35673 16.1599L3.64926 19.233C3.53872 19.7415 4.00299 20.2058 4.51148 20.0952L7.58453 19.3877C7.71718 19.3656 7.82772 19.2993 7.93827 19.1888L8.8226 18.3044L5.44003 14.9219L4.5557 15.8062Z"/>
</svg>