<svg width="17" height="17" viewBox="0 0 17 17" xmlns="http://www.w3.org/2000/svg">
<path d="M14.7333 17H2.26667C1.64097 17 1.10677 16.7784 0.664062 16.3352C0.221354 15.8921 0 15.3573 0 14.731V2.2513C0 1.63677 0.221354 1.10792 0.664062 0.664755C1.10677 0.221585 1.64097 0 2.26667 0H14.7333C15.359 0 15.8932 0.218631 16.3359 0.655892C16.7786 1.09315 17 1.62496 17 2.2513V14.731C17 15.3573 16.7786 15.8921 16.3359 16.3352C15.8932 16.7784 15.359 17 14.7333 17ZM3.96667 2.2513C3.49444 2.2513 3.09306 2.41971 2.7625 2.75652C2.43194 3.09333 2.26667 3.49513 2.26667 3.96194C2.26667 4.42875 2.43194 4.8276 2.7625 5.1585C3.09306 5.4894 3.49444 5.65485 3.96667 5.65485C4.43889 5.65485 4.84028 5.4894 5.17083 5.1585C5.50139 4.8276 5.66667 4.42875 5.66667 3.96194C5.66667 3.49513 5.50139 3.09333 5.17083 2.75652C4.84028 2.41971 4.43889 2.2513 3.96667 2.2513ZM3.96667 11.3274C3.49444 11.3274 3.09306 11.4929 2.7625 11.8238C2.43194 12.1547 2.26667 12.5565 2.26667 13.0292C2.26667 13.5019 2.43194 13.9037 2.7625 14.2346C3.09306 14.5655 3.49444 14.731 3.96667 14.731C4.43889 14.731 4.84028 14.5655 5.17083 14.2346C5.50139 13.9037 5.66667 13.5019 5.66667 13.0292C5.66667 12.5565 5.50139 12.1547 5.17083 11.8238C4.84028 11.4929 4.43889 11.3274 3.96667 11.3274ZM8.5 6.78936C8.02778 6.78936 7.62639 6.95777 7.29583 7.29458C6.96528 7.63139 6.8 8.03319 6.8 8.5C6.8 8.96681 6.96528 9.36566 7.29583 9.69656C7.62639 10.0275 8.02778 10.1929 8.5 10.1929C8.97222 10.1929 9.37361 10.0275 9.70417 9.69656C10.0347 9.36566 10.2 8.96681 10.2 8.5C10.2 8.03319 10.0347 7.63139 9.70417 7.29458C9.37361 6.95777 8.97222 6.78936 8.5 6.78936ZM13.0333 2.2513C12.5611 2.2513 12.1597 2.41971 11.8292 2.75652C11.4986 3.09333 11.3333 3.49513 11.3333 3.96194C11.3333 4.42875 11.4986 4.8276 11.8292 5.1585C12.1597 5.4894 12.5611 5.65485 13.0333 5.65485C13.5056 5.65485 13.9069 5.4894 14.2375 5.1585C14.5681 4.8276 14.7333 4.42875 14.7333 3.96194C14.7333 3.49513 14.5681 3.09333 14.2375 2.75652C13.9069 2.41971 13.5056 2.2513 13.0333 2.2513ZM13.0333 11.3274C12.5611 11.3274 12.1597 11.4929 11.8292 11.8238C11.4986 12.1547 11.3333 12.5565 11.3333 13.0292C11.3333 13.5019 11.4986 13.9037 11.8292 14.2346C12.1597 14.5655 12.5611 14.731 13.0333 14.731C13.5056 14.731 13.9069 14.5655 14.2375 14.2346C14.5681 13.9037 14.7333 13.5019 14.7333 13.0292C14.7333 12.5565 14.5681 12.1547 14.2375 11.8238C13.9069 11.4929 13.5056 11.3274 13.0333 11.3274Z" />
</svg>
