<svg width="28" height="28" viewBox="0 0 28 28" xmlns="http://www.w3.org/2000/svg">
<path d="M25.6666 14.7778C25.5642 14.7784 25.4628 14.7588 25.368 14.7201C25.2732 14.6814 25.1871 14.6243 25.1144 14.5522L13.9999 3.43003L2.8855 14.5522C2.73671 14.6797 2.54531 14.7463 2.34957 14.7387C2.15382 14.7311 1.96813 14.65 1.82961 14.5115C1.6911 14.3729 1.60995 14.1873 1.60239 13.9915C1.59483 13.7958 1.66141 13.6044 1.78883 13.4556L13.4555 1.78892C13.6012 1.64405 13.7984 1.56274 14.0038 1.56274C14.2093 1.56274 14.4064 1.64405 14.5522 1.78892L26.2188 13.4556C26.3259 13.5648 26.3983 13.7031 26.4272 13.8532C26.456 14.0034 26.44 14.1587 26.3811 14.2998C26.3222 14.4409 26.223 14.5615 26.0959 14.6465C25.9688 14.7315 25.8195 14.7772 25.6666 14.7778Z"/>
<path d="M14 6.0589L4.66663 15.4233V24.8889C4.66663 25.3015 4.83051 25.6971 5.12224 25.9888C5.41396 26.2806 5.80962 26.4445 6.22218 26.4445H11.6666V18.6667H16.3333V26.4445H21.7777C22.1903 26.4445 22.586 26.2806 22.8777 25.9888C23.1694 25.6971 23.3333 25.3015 23.3333 24.8889V15.3689L14 6.0589Z"/>
</svg>
