<svg width="28" height="22" viewBox="0 0 28 22" fill="none" xmlns="http://www.w3.org/2000/svg">
<path d="M26.8365 0.982867C25.212 -0.294981 22.7847 -0.0613599 21.1002 0.225456C18.9058 0.599156 16.2141 1.41397 13.0975 2.35744C12.7772 2.45442 12.4519 2.5529 12.1216 2.65259C12.1087 2.6565 12.0958 2.66062 12.083 2.66488C11.9657 2.70441 9.19154 3.6413 7.58319 4.42157C2.82737 6.72873 1.81461 9.80805 1.80243 11.9849C1.79642 13.0649 2.03201 14.1681 2.50226 15.2717C0.894935 17.4246 0 19.4782 0 21.1407C0 21.6153 0.489035 22 1.0924 22C1.69576 22 2.18479 21.6153 2.18479 21.1407C2.18479 20.1091 2.69944 18.5693 3.97482 16.7111C4.47052 16.9239 5.17619 17.1746 6.07014 17.3604C6.76778 17.5054 7.64278 17.6206 8.66247 17.6206C10.037 17.6206 11.6742 17.4112 13.4919 16.7832C14.2933 16.5063 15.0773 16.1784 15.8221 15.8085C16.3322 15.5551 16.4847 15.0244 16.1626 14.623C15.8405 14.2217 15.166 14.1019 14.6557 14.3551C14.0026 14.6795 13.3154 14.9669 12.6132 15.2096C10.5737 15.9142 8.59386 16.0857 6.72856 15.719C6.03256 15.5822 5.4812 15.3918 5.10054 15.234C5.82369 14.3689 6.69934 13.4539 7.74787 12.5038C10.8055 9.73328 16.3568 5.76911 25.5481 2.44552C25.8688 2.84247 25.9557 3.46728 25.1556 4.69571C24.7438 5.328 24.1646 6.01777 23.4702 6.76418C23.4485 6.77093 23.4266 6.7772 23.4052 6.78511C22.1498 7.24805 19.6741 7.37975 18.8256 7.39144C18.2223 7.39935 17.7414 7.79045 17.7515 8.26495C17.7615 8.73469 18.2486 9.10998 18.8434 9.10998C18.8496 9.10998 18.8558 9.10993 18.862 9.10985C19.0577 9.10727 20.0982 9.0878 21.3128 8.95718C21.1392 9.12837 20.963 9.30179 20.7843 9.47744C20.3175 9.93678 19.8367 10.4103 19.3511 10.8958C17.7448 11.1802 16.1415 11.296 14.339 11.2586C14.3292 11.2584 14.3194 11.2583 14.3097 11.2583C13.7197 11.2583 13.2339 11.6283 13.2183 12.0951C13.2024 12.5695 13.6785 12.9642 14.2815 12.9767C14.5211 12.9817 14.7575 12.9842 14.9911 12.9842C16.8432 12.9842 18.5258 12.8275 20.2332 12.4984C20.2438 12.4964 20.2539 12.4934 20.2643 12.4911C20.2853 12.4865 20.3061 12.4819 20.3267 12.4764C20.3415 12.4725 20.3557 12.4679 20.37 12.4635C20.3889 12.4578 20.4076 12.4519 20.4261 12.4453C20.4412 12.4399 20.4558 12.434 20.4705 12.4281C20.4874 12.4213 20.5042 12.4144 20.5207 12.4069C20.5358 12.4001 20.5503 12.3927 20.5648 12.3854C20.5801 12.3776 20.5952 12.3699 20.61 12.3615C20.6248 12.3531 20.6391 12.3443 20.6533 12.3353C20.6667 12.3269 20.6802 12.3185 20.6932 12.3094C20.7079 12.2993 20.7218 12.2887 20.7357 12.278C20.7472 12.2691 20.7588 12.2603 20.77 12.2509C20.7843 12.2389 20.7977 12.2262 20.8112 12.2136C20.8185 12.2066 20.8264 12.2004 20.8335 12.1933C21.3931 11.6308 21.9511 11.0817 22.4908 10.5507C24.4424 8.63057 26.1278 6.97224 27.1001 5.47933C27.6673 4.6084 27.9501 3.85017 27.9647 3.16138C27.9828 2.31881 27.6031 1.58589 26.8365 0.982867ZM6.09822 11.3771C5.38578 12.0227 4.72687 12.6749 4.12635 13.326C4.03141 12.8766 3.98482 12.4314 3.98728 11.9925C4.00033 9.64489 5.37278 7.70829 8.06725 6.22737C8.06239 6.23691 8.05758 6.24615 8.05272 6.25578C7.8286 6.69642 8.10112 7.19653 8.66127 7.37279C8.79438 7.41469 8.93154 7.4345 9.06668 7.4345C9.50022 7.4345 9.91038 7.23005 10.0812 6.89412C10.5727 5.92775 10.9076 5.47155 11.4112 4.78826C12.1868 4.50252 12.811 4.28966 12.9246 4.25116C13.2486 4.15336 13.5678 4.05672 13.8822 3.96155C17.1917 2.95964 20.0829 2.08454 22.2005 1.81032C14.0903 5.05523 9.01571 8.73336 6.09822 11.3771Z"/>
</svg>