<svg width="28" height="29" viewBox="0 0 28 29" xmlns="http://www.w3.org/2000/svg">
<path d="M9.2841 8.79718C6.7162 8.79718 4.61743 10.9709 4.61743 13.6305C4.61743 16.2901 6.7162 18.4638 9.2841 18.4638C11.2347 18.4638 12.889 17.2363 13.6051 15.4974H15.2347V15.0882H15.8026C15.8026 15.0882 16.568 13.963 16.8397 13.9118C17.1113 13.8607 17.5557 13.8095 17.7039 13.8607C17.852 13.9118 18.3705 14.3466 18.3705 14.3466L18.9878 14.7302C18.9878 14.7302 19.3582 14.7302 19.5063 14.6279C19.6545 14.5256 19.8767 14.1931 20.0248 14.2443C20.173 14.2954 19.9755 13.9885 20.173 14.2954C20.3705 14.6023 20.7409 14.6023 20.7409 14.6023C20.7409 14.6023 20.9878 13.963 21.2594 14.0653C21.5063 14.1675 21.8273 14.5 21.8273 14.5L22.2964 14.9347L22.7656 14.8836C22.7656 14.8836 24.0001 13.7072 24.2471 13.4515C24.494 13.1958 24.2471 12.9145 24.2471 12.9145L23.6298 12.224H15.2347V11.7892H13.6051C12.889 10.0247 11.2347 8.79718 9.2841 8.79718ZM12.0248 13.6561C12.0248 15.216 10.7903 16.4947 9.2841 16.4947C7.77793 16.4947 6.54336 15.216 6.54336 13.6561C6.54336 12.0961 7.77793 10.8175 9.2841 10.8175C10.7903 10.8175 12.0248 12.0705 12.0248 13.6561Z"/>
</svg>
