<svg width="21" height="19" viewBox="0 0 21 19" xmlns="http://www.w3.org/2000/svg">
<g clip-path="url(#clip0)">
<path d="M20.9179 17.2058L19.4762 13.4098C20.1696 12.1416 20.5363 10.7281 20.5388 9.30573C20.543 6.85644 19.4956 4.54049 17.5894 2.78462C15.683 1.02843 13.1425 0.0399088 10.4361 0.00105534C9.01815 -0.0195403 7.64224 0.216846 6.34451 0.702866C5.09283 1.17167 3.97036 1.85073 3.0083 2.72117C2.0462 3.5916 1.29566 4.60717 0.777548 5.73964C0.240367 6.91378 -0.0206148 8.15928 0.00182074 9.44155C0.044682 11.8902 1.1373 14.1887 3.07836 15.9136C5.01527 17.6349 7.56841 18.5822 10.2697 18.5822C10.275 18.5822 10.2806 18.5822 10.2859 18.5822C11.8579 18.58 13.4202 18.2482 14.8219 17.6208L19.0175 18.9252C19.1789 18.9753 19.3443 18.9998 19.5078 18.9998C19.8964 18.9998 20.2744 18.8617 20.561 18.6023C20.9683 18.2338 21.1051 17.6987 20.9179 17.2058ZM19.6806 17.8058C19.6393 17.8431 19.5509 17.8998 19.4221 17.8598L14.9762 16.4777C14.9105 16.4573 14.8421 16.4471 14.7739 16.4471C14.6735 16.4471 14.5734 16.4691 14.4828 16.5125C13.1979 17.1275 11.746 17.4537 10.2839 17.4557C5.38048 17.4628 1.32437 13.8594 1.24668 9.4237C1.2076 7.19199 2.14587 5.09453 3.88866 3.51772C5.63145 1.94094 7.94899 1.09218 10.4163 1.12747C15.3189 1.19779 19.3013 4.86579 19.2937 9.30399C19.2914 10.6269 18.9309 11.9405 18.2512 13.103C18.1707 13.2406 18.1568 13.4022 18.2127 13.5494L19.7404 17.5718C19.7846 17.6883 19.722 17.7684 19.6806 17.8058Z" />
<path d="M10.1682 13.4614C9.8426 13.4614 9.53064 13.7205 9.54569 14.0247C9.56078 14.3298 9.81922 14.5879 10.1682 14.5879C10.4938 14.5879 10.8058 14.3289 10.7908 14.0247C10.7757 13.7195 10.5172 13.4614 10.1682 13.4614Z" />
<path d="M10.1681 4.73798C8.46025 4.73798 7.0708 5.99509 7.0708 7.54028C7.0708 7.85133 7.34954 8.10353 7.69334 8.10353C8.03713 8.10353 8.31587 7.85133 8.31587 7.54028C8.31587 6.61626 9.14681 5.86447 10.1681 5.86447C11.1894 5.86447 12.0203 6.61626 12.0203 7.54028C12.0203 8.46431 11.1894 9.2161 10.1681 9.2161C9.8243 9.2161 9.54556 9.4683 9.54556 9.77935V12.0766C9.54556 12.3876 9.8243 12.6398 10.1681 12.6398C10.5119 12.6398 10.7906 12.3877 10.7906 12.0766V10.2857C12.2011 10.0243 13.2654 8.89262 13.2654 7.54028C13.2654 5.99509 11.8759 4.73798 10.1681 4.73798Z" />
</g>
<defs>
<clipPath id="clip0">
<rect width="21" height="19" fill="white"/>
</clipPath>
</defs>
</svg>
