<svg width="30" height="24" viewBox="0 0 30 24" xmlns="http://www.w3.org/2000/svg">
<g clip-path="url(#clip0_3286_23971)">
<g clip-path="url(#clip1_3286_23971)">
<path fill-rule="evenodd" clip-rule="evenodd" d="M7.02748 13.7805C10.4364 12.0197 13.6307 11.9281 15.151 11.982H19.4918V11.9914V14.1887L24.7492 9.08012L19.4918 3.96483V6.14594H16.4304C15.2507 6.17423 13.4895 6.34667 11.5053 7.06472C8.31795 8.21657 6.37533 10.1148 5.65118 10.884C3.12148 13.5744 2.31564 16.4856 2.03733 17.818C2.92348 16.7376 4.52826 15.0711 7.02748 13.7805ZM3.55764 10.7951C4.59333 9.4991 6.41964 7.6494 9.17502 6.29143C12.2101 4.79605 14.9849 4.56703 16.4539 4.54547C16.9136 4.54547 17.3733 4.54412 17.833 4.54412V1.66382C17.8344 1.39977 17.9936 1.16132 18.2387 1.05624C18.4976 0.94577 18.8023 1.00235 19.0044 1.20039C21.5396 3.6671 24.0763 6.13516 26.6115 8.60322C26.6433 8.6342 26.8164 8.8053 26.8164 9.07608C26.8164 9.33744 26.6572 9.50449 26.6239 9.53817C24.0749 12.0197 21.5258 14.5012 18.9753 16.9814C18.9352 17.0205 18.8618 17.0771 18.7552 17.1175C18.6569 17.1525 18.571 17.1592 18.5156 17.1592C18.4603 17.1592 18.2456 17.1512 18.0601 16.9895C17.8399 16.7968 17.833 16.5382 17.833 16.4951V13.6148H14.4227C13.2818 13.6161 9.17364 13.7522 5.42548 16.7591C3.52995 18.2801 2.35718 20.0288 1.63164 21.5349C1.47933 21.9094 1.07641 22.1237 0.688715 22.0482C0.338408 21.9808 0.0670223 21.6899 0.0254841 21.3302C0.0060997 19.7189 0.166716 15.0415 3.55764 10.7951Z"/>
</g>
</g>
<defs>
<clipPath id="clip0_3286_23971">
<rect width="29.856" height="24" fill="white"/>
</clipPath>
<clipPath id="clip1_3286_23971">
<rect width="27" height="27" fill="white" transform="matrix(-1 0 0 1 27 1)"/>
</clipPath>
</defs>
</svg>
