<svg width="30" height="25" viewBox="0 0 30 25" fill="none" xmlns="http://www.w3.org/2000/svg">
<path d="M30 3.1392C30 1.41661 28.8316 0 27.4104 0C25.9894 0 24.8208 1.41634 24.8208 3.1392C24.8208 4.63217 25.705 5.89544 26.8734 6.20176V13.825C26.8734 14.5139 26.4313 15.0501 25.8627 15.0501H24.7895V9.26433C24.7895 8.03919 23.9685 7.04402 22.958 7.04402H22.6421V5.85737C22.6421 3.79032 21.2526 2.14409 19.5789 2.14409H18.2212C18.2212 2.14409 15.0001 2.10579 12.4106 2.10579C9.82123 2.10579 6.60013 2.10588 6.60013 2.10588L5.2106 2.10561C3.50546 2.10561 2.14745 3.79005 2.14745 5.81889V7.00554H1.83157C0.820938 7.00554 0 8.00078 0 9.22585V17.0735C0 18.2986 0.820994 19.2938 1.83157 19.2938H2.14745V20.4423C2.14745 22.5094 3.53698 24.1556 5.2106 24.1556H19.579C21.2841 24.1556 22.6421 22.4712 22.6421 20.4423V19.2938H22.958C23.9687 19.2938 24.7896 18.2986 24.7896 17.0735V16.4664H25.8317C27.0633 16.4664 28.0422 15.2413 28.0422 13.7868V6.16356C29.179 5.81882 30 4.59395 30 3.1392ZM3.37901 5.8573C3.37901 4.63216 4.2 3.59878 5.2421 3.59878H19.6105C20.6211 3.59878 21.4736 4.59402 21.4736 5.8573V7.04395H3.37889L3.37901 5.8573ZM15.7263 8.49877V17.8777H9.09478L9.095 8.49877H15.7263ZM1.23164 17.112V9.22612C1.23164 8.80501 1.5158 8.46056 1.86316 8.46056H7.89473V17.8395H1.83159C1.48421 17.8779 1.23164 17.5329 1.23164 17.112ZM21.4421 20.5191C21.4421 21.7442 20.6211 22.7776 19.579 22.7776H5.21064C4.2 22.7776 3.34754 21.7824 3.34754 20.5191V19.3706H21.4107V20.5191H21.4421ZM23.5896 17.112C23.5896 17.5332 23.3054 17.8776 22.9581 17.8776H16.9265V8.4987H22.9581C23.3055 8.4987 23.5896 8.84317 23.5896 9.26426V17.112ZM27.4105 4.7855C26.6526 4.7855 26.021 4.01994 26.021 3.10105C26.021 2.18224 26.6525 1.41661 27.4105 1.41661C28.1685 1.41661 28.8001 2.18217 28.8001 3.10105C28.8001 4.01967 28.1685 4.7855 27.4105 4.7855Z" fill="#4C3ED9"/>
<path d="M5.52758 12.1739C5.55908 12.0973 5.55908 11.9824 5.55908 11.9058C5.55908 11.2169 5.11699 10.6807 4.54844 10.6807C3.98013 10.6807 3.5378 11.2166 3.5378 11.9058C3.5378 12.0206 3.5378 12.0973 3.5693 12.1739C3.06443 12.2505 2.68555 12.748 2.68555 13.3605C2.68555 14.0495 3.12764 14.5857 3.69618 14.5857C3.88562 14.5857 4.07506 14.509 4.233 14.3942L3.8224 15.4661C3.7909 15.5427 3.8539 15.6576 3.91712 15.6576H5.1487C5.24342 15.6576 5.27492 15.5427 5.24342 15.4661L4.83283 14.3942C4.99077 14.509 5.1802 14.5857 5.36964 14.5857C5.93794 14.5857 6.38028 14.0498 6.38028 13.3605C6.38028 12.748 6.00118 12.2505 5.52759 12.1739H5.52758Z" fill="#4C3ED9"/>
<path d="M20.4003 10.7186C20.3371 10.642 20.2108 10.642 20.1476 10.7186L18.6634 12.5178C18.2528 13.0156 18.2528 13.7811 18.6634 14.2789C18.8529 14.5085 19.137 14.6234 19.3897 14.6234C19.5791 14.6234 19.7685 14.5467 19.9265 14.4319L19.5476 15.4656C19.5161 15.5422 19.5791 15.657 19.6423 15.657H20.8739C20.9686 15.657 21.0001 15.5422 20.9686 15.4656L20.5897 14.4319C20.7477 14.5467 20.9686 14.6234 21.158 14.6234C21.4422 14.6234 21.6949 14.5085 21.8843 14.2404C22.2632 13.7427 22.2317 12.9772 21.8528 12.4794L20.4003 10.7186Z" fill="#4C3ED9"/>
<path d="M12.2219 15.3895C12.3166 15.5425 12.4745 15.5425 12.5692 15.3895L13.8008 13.3225C13.864 13.2458 13.864 13.131 13.8008 13.0544L12.5692 10.9873C12.4745 10.8343 12.3166 10.8343 12.2219 10.9873L11.022 13.0162C10.9588 13.0929 10.9588 13.2077 11.022 13.2843L12.2219 15.3895Z" fill="#4C3ED9"/>
</svg>
