<svg width="20" height="24" viewBox="0 0 20 27" fill="none" xmlns="http://www.w3.org/2000/svg">
<path d="M7.51016 0.172241L2.34012 0.199451L1.95917 0.351831C1.13741 0.67836 0.451698 1.36951 0.15238 2.18583L0 2.59399V13.2062V23.8183L0.15238 24.2265C0.45714 25.0592 1.15373 25.7558 1.98638 26.0605L2.39454 26.2129H9.98633H17.5781L17.9319 26.0823C18.6883 25.8102 19.3196 25.2496 19.6788 24.5422C20.0162 23.8782 19.9999 24.319 19.9999 15.383V7.21981L16.506 3.72596C13.97 1.18992 12.9632 0.215778 12.8435 0.183125C12.7564 0.161356 10.3564 0.155914 7.51016 0.172241ZM12.0543 3.3178C12.0543 4.46609 12.0761 5.40214 12.1142 5.59262C12.272 6.46336 12.9469 7.36675 13.7469 7.75859C14.4162 8.08512 14.6666 8.11777 16.8325 8.11777H18.7482L18.7373 15.9109L18.721 23.7095L18.574 23.9816C18.3999 24.3081 18.0461 24.6564 17.7142 24.8306L17.4693 24.9612H9.98633H2.50339L2.23128 24.8143C1.86121 24.6183 1.53468 24.2646 1.34965 23.8728L1.19727 23.5462L1.18094 13.4511C1.1755 7.39941 1.18639 3.22528 1.21904 3.02392C1.33877 2.22393 1.84489 1.66339 2.63944 1.4457C2.82447 1.39128 3.99997 1.37495 7.47206 1.37495L12.0543 1.36951V3.3178ZM17.5944 6.85519C17.4366 6.86608 16.7183 6.86608 15.9999 6.85519C14.7047 6.83887 14.6883 6.83887 14.3945 6.69193C14.0026 6.50145 13.6543 6.15315 13.4747 5.77765C13.3332 5.47833 13.3332 5.47833 13.3169 3.8729L13.3006 2.26747L15.5917 4.55317L17.8774 6.83887L17.5944 6.85519Z"/>
<path d="M3.62918 11.002C3.26455 11.2252 3.22102 11.6877 3.5421 11.9871L3.6836 12.1177H7.29718H10.9108L11.0849 11.9381C11.2319 11.7911 11.2645 11.7204 11.2645 11.519C11.2645 11.3177 11.2319 11.2469 11.0849 11.1L10.9108 10.9204L7.35705 10.9041C3.87407 10.8932 3.80333 10.8932 3.62918 11.002Z"/>
<path d="M3.54762 15.7367C3.30817 15.9217 3.26463 16.2211 3.41701 16.5422C3.55851 16.836 3.28096 16.8251 9.98568 16.8251C16.6904 16.8251 16.4129 16.836 16.5543 16.5422C16.7067 16.2211 16.6632 15.9217 16.4237 15.7367C16.2822 15.6279 16.2496 15.6279 9.98568 15.6279C3.72177 15.6279 3.68912 15.6279 3.54762 15.7367Z"/>
<path d="M3.7301 20.3465C3.57772 20.4009 3.40901 20.5968 3.34915 20.7764C3.26752 21.0158 3.39269 21.3043 3.63214 21.4512C3.81173 21.5601 3.88792 21.5601 9.99401 21.5601H16.1763L16.3613 21.4349C16.6987 21.2063 16.7314 20.7709 16.4375 20.4716L16.3014 20.3356L10.0539 20.3247C6.61988 20.3193 3.77364 20.3301 3.7301 20.3465Z" />
</svg>
