<svg width="26" height="26" viewBox="0 0 26 26" xmlns="http://www.w3.org/2000/svg">
<path d="M17.5796 10.5527C17.4647 10.2619 17.1358 10.1195 16.8449 10.2343C16.5541 10.3493 16.4116 10.6783 16.5265 10.9691C16.8143 11.6968 16.9601 12.466 16.9601 13.2552C16.9601 16.6836 14.1709 19.4729 10.7424 19.4729C7.31359 19.4729 4.52401 16.6836 4.52401 13.2552C4.52401 9.82675 7.31359 7.03745 10.7424 7.03745C11.5344 7.03745 12.3048 7.18422 13.0323 7.47367C13.3228 7.58941 13.6521 7.44742 13.7677 7.15694C13.8833 6.86636 13.7415 6.53711 13.451 6.42151C12.5897 6.07876 11.6783 5.905 10.7424 5.905C6.68921 5.905 3.3916 9.20223 3.3916 13.2551C3.3916 17.308 6.68907 20.6053 10.7424 20.6053C14.7952 20.6053 18.0925 17.3081 18.0925 13.2552C18.0925 12.3228 17.9199 11.4136 17.5796 10.5527Z"/>
<path d="M21.0706 10.2941C20.9846 9.99341 20.6713 9.81965 20.3705 9.90548C20.0698 9.99154 19.8959 10.305 19.9819 10.6056C20.2273 11.4635 20.3518 12.355 20.3518 13.2551C20.3518 18.554 16.041 22.8651 10.7424 22.8651C5.4435 22.8651 1.13245 18.5541 1.13245 13.2551C1.13245 7.95609 5.44345 3.64513 10.7424 3.64513C11.6446 3.64513 12.5376 3.77015 13.3964 4.01676C13.697 4.10301 14.0106 3.92938 14.0969 3.62877C14.1832 3.32817 14.0095 3.01457 13.7089 2.92832C12.7485 2.65251 11.7503 2.51263 10.7424 2.51263C4.81903 2.51268 0 7.33171 0 13.2551C0 19.1785 4.81903 23.9976 10.7424 23.9976C16.6655 23.9976 21.4842 19.1786 21.4842 13.2551C21.4842 12.2496 21.345 11.2533 21.0706 10.2941Z"/>
<path d="M14.6849 12.9094C14.6572 12.5979 14.382 12.3692 14.0706 12.3958C13.7591 12.4236 13.5291 12.6986 13.557 13.0101C13.5641 13.0907 13.5678 13.1732 13.5678 13.2552C13.5678 14.8131 12.3003 16.0806 10.7424 16.0806C9.18408 16.0806 7.9163 14.8131 7.9163 13.2552C7.91639 11.6968 9.18412 10.4291 10.7424 10.4291C10.8295 10.4291 10.9147 10.4329 10.9958 10.4403C11.3075 10.4689 11.583 10.2399 11.6117 9.92844C11.6404 9.61705 11.4112 9.34138 11.0998 9.3126C10.9843 9.30196 10.8641 9.29657 10.7425 9.29657C8.55975 9.29657 6.78394 11.0723 6.78394 13.2551C6.78394 15.4375 8.55975 17.2129 10.7425 17.2129C12.9248 17.2129 14.7003 15.4375 14.7003 13.2551C14.7003 13.1397 14.6951 13.0233 14.6849 12.9094Z"/>
<path d="M23.9131 3.80926C23.7372 3.38448 23.3264 3.10998 22.8666 3.10998H20.8923V1.1357C20.8923 0.675858 20.6178 0.265093 20.193 0.0891707C19.7684 -0.0867043 19.284 0.00971757 18.959 0.334749L15.6601 3.63367C15.3394 3.95434 15.1628 4.38081 15.1628 4.83451V8.03866L10.5611 12.6404C10.34 12.8615 10.34 13.22 10.5611 13.4412C10.6716 13.5517 10.8166 13.607 10.9615 13.607C11.1063 13.607 11.2513 13.5517 11.3618 13.4412L15.9636 8.83942H19.1677C19.6214 8.83942 20.0479 8.6628 20.3686 8.34217L23.6675 5.04316C23.9926 4.71808 24.089 4.23381 23.9131 3.80926ZM16.2953 4.83447C16.2953 4.6833 16.3541 4.54117 16.4609 4.43444L19.7598 1.13603V3.44172L16.2952 6.9063V4.83447H16.2953ZM19.5678 7.54136C19.4627 7.64655 19.3168 7.70697 19.1678 7.70697H17.0961L20.5606 4.24248L22.8664 4.24276L19.5678 7.54136Z"/>
</svg>
