<svg width="19" height="23" viewBox="0 0 19 23" fill="none" xmlns="http://www.w3.org/2000/svg">
<mask id="path-1-outside-1_10705_44558" maskUnits="userSpaceOnUse" x="0" y="0" width="19" height="23" fill="black">
<rect fill="white" width="19" height="23"/>
<path d="M2 2.93487C2 2.00033 2.46875 2 3.40625 2.00848L11.8437 2.00905L12.1961 2.32557L16.9931 6.63421L17 6.64042L16.9999 19.6104C16.9999 20.5368 16.9999 21 16.0624 21L3.40625 20.9994C2.46872 21 2 20.5368 2 19.6098V2.93487Z"/>
</mask>
<path d="M16.9931 6.63421L17.1804 7.20422L17.1804 7.20422L16.9931 6.63421ZM12.1961 2.32557L12.7651 2.5161L12.7651 2.5161L12.1961 2.32557ZM11.7515 1.78712C11.7072 1.90407 11.6657 2.02007 11.6272 2.13504L12.7651 2.5161C12.7984 2.41655 12.8345 2.31546 12.8735 2.21288L11.7515 1.78712ZM11.6272 2.13504C11.0082 3.98336 11.1234 5.68983 12.2035 6.73247C13.2788 7.77047 15.0569 7.90206 17.1804 7.20422L16.8058 6.0642C14.8403 6.7101 13.6318 6.44335 13.0369 5.86909C12.4468 5.29946 12.208 4.17974 12.7651 2.5161L11.6272 2.13504ZM17.1804 7.20422C17.1828 7.20343 17.1853 7.20262 17.1877 7.20182L16.8123 6.06206C16.8101 6.06277 16.8079 6.06349 16.8058 6.0642L17.1804 7.20422ZM3.40625 2.00848L3.3954 3.20848L3.40617 3.20848L3.40625 2.00848ZM3.40625 20.9994L3.4063 19.7994L3.40552 19.7994L3.40625 20.9994ZM16.0624 21L16.0624 22.2H16.0624V21ZM16.9999 19.6104L15.7999 19.6104V19.6104H16.9999ZM17 6.64042L18.2 6.64043C18.2 6.29981 18.0553 5.97524 17.8018 5.74764L17 6.64042ZM16.9931 6.63421L16.1912 7.52696L16.1913 7.52699L16.9931 6.63421ZM12.1961 2.32557L12.998 1.43282L12.998 1.43282L12.1961 2.32557ZM11.8437 2.00905L12.6456 1.1163C12.4254 0.918495 12.1398 0.809067 11.8438 0.809047L11.8437 2.00905ZM3.4171 0.808527C3.19696 0.806536 2.93667 0.80359 2.69953 0.821723C2.46679 0.839519 2.14064 0.883721 1.81986 1.04227C1.45547 1.22237 1.16614 1.5155 0.992031 1.9057C0.836665 2.2539 0.8 2.61906 0.8 2.93487H3.2C3.2 2.86606 3.20447 2.83086 3.20619 2.82037C3.20785 2.81028 3.20479 2.83649 3.18375 2.88364C3.1612 2.93419 3.12228 2.99893 3.06092 3.06247C2.99961 3.12595 2.93537 3.16807 2.88326 3.19382C2.83466 3.21784 2.80371 3.22418 2.80592 3.2237C2.80871 3.22309 2.83093 3.21868 2.88251 3.21474C2.93363 3.21083 2.99977 3.20835 3.08863 3.20746C3.17786 3.20657 3.27633 3.20735 3.3954 3.20843L3.4171 0.808527ZM0.8 2.93487V19.6098H3.2V2.93487H0.8ZM0.8 19.6098C0.8 20.2617 0.966066 20.9704 1.50809 21.506C2.04762 22.0392 2.75671 22.1998 3.40698 22.1994L3.40552 19.7994C3.26638 19.7995 3.19318 19.7819 3.166 19.773C3.1445 19.7659 3.16479 19.769 3.19501 19.7989C3.22552 19.829 3.23059 19.8513 3.22499 19.8347C3.21737 19.8121 3.2 19.744 3.2 19.6098H0.8ZM3.4062 22.1994L16.0624 22.2L16.0625 19.8L3.4063 19.7994L3.4062 22.1994ZM16.0624 22.2C16.3776 22.2 16.7406 22.164 17.0869 22.0119C17.4749 21.8415 17.77 21.557 17.9535 21.1944C18.115 20.8751 18.1616 20.55 18.181 20.3192C18.2008 20.0846 18.1999 19.8263 18.1999 19.6104H15.7999C15.7999 19.7288 15.7999 19.826 15.7983 19.9144C15.7967 20.0024 15.7937 20.0674 15.7895 20.1175C15.7875 20.1418 15.7854 20.1597 15.7835 20.1725C15.7817 20.1852 15.7804 20.1909 15.7804 20.1908C15.7805 20.1907 15.7822 20.183 15.7868 20.1696C15.7915 20.1561 15.7994 20.1358 15.812 20.1108C15.8386 20.0582 15.8815 19.9944 15.9452 19.934C16.0087 19.8737 16.0728 19.836 16.1219 19.8144C16.1676 19.7943 16.1923 19.7917 16.1807 19.7936C16.1688 19.7955 16.1323 19.8 16.0624 19.8V22.2ZM18.1999 19.6104L18.2 6.64043L15.8 6.64041L15.7999 19.6104L18.1999 19.6104ZM17.8018 5.74764L17.7949 5.74143L16.1913 7.52699L16.1982 7.5332L17.8018 5.74764ZM17.795 5.74146L12.998 1.43282L11.3943 3.21832L16.1912 7.52696L17.795 5.74146ZM12.998 1.43282L12.6456 1.1163L11.0419 2.9018L11.3943 3.21832L12.998 1.43282ZM11.8438 0.809047L3.40633 0.808478L3.40617 3.20848L11.8437 3.20905L11.8438 0.809047Z" fill="#4C3ED9" mask="url(#path-1-outside-1_10705_44558)"/>
<path d="M4.28693 14V11.0909H5.37784C5.60133 11.0909 5.78883 11.1326 5.94034 11.2159C6.0928 11.2992 6.20786 11.4138 6.28551 11.5597C6.36411 11.7045 6.40341 11.8693 6.40341 12.054C6.40341 12.2405 6.36411 12.4062 6.28551 12.5511C6.20691 12.696 6.09091 12.8101 5.9375 12.8935C5.78409 12.9759 5.59517 13.017 5.37074 13.017H4.64773V12.5838H5.29972C5.4304 12.5838 5.53741 12.5611 5.62074 12.5156C5.70407 12.4702 5.76563 12.4077 5.8054 12.3281C5.84612 12.2486 5.86648 12.1572 5.86648 12.054C5.86648 11.9508 5.84612 11.8598 5.8054 11.7812C5.76563 11.7027 5.7036 11.6416 5.61932 11.598C5.53598 11.5535 5.4285 11.5312 5.29688 11.5312H4.81392V14H4.28693ZM7.84695 14H6.86115V11.0909H7.86683C8.15566 11.0909 8.40376 11.1491 8.61115 11.2656C8.81948 11.3812 8.97952 11.5473 9.09126 11.7642C9.20301 11.9811 9.25888 12.2405 9.25888 12.5426C9.25888 12.8456 9.20253 13.1061 9.08984 13.3239C8.9781 13.5417 8.81664 13.7088 8.60547 13.8253C8.39524 13.9418 8.1424 14 7.84695 14ZM7.38814 13.544H7.82138C8.02403 13.544 8.19306 13.5071 8.32848 13.4332C8.4639 13.3584 8.5657 13.2472 8.63388 13.0994C8.70206 12.9508 8.73615 12.7652 8.73615 12.5426C8.73615 12.3201 8.70206 12.1354 8.63388 11.9886C8.5657 11.8409 8.46484 11.7306 8.33132 11.6577C8.19875 11.5838 8.03397 11.5469 7.837 11.5469H7.38814V13.544ZM9.75959 14V11.0909H11.6232V11.5327H10.2866V12.3224H11.4954V12.7642H10.2866V14H9.75959Z" fill="#4C3ED9"/>
<path d="M11.5 1.5C11.5 6.5 11.5 6.5 17.5005 6.5" stroke="#4C3ED9" stroke-linejoin="round"/>
</svg>
