<svg width="24" height="21" viewBox="0 0 24 21" fill="none" xmlns="http://www.w3.org/2000/svg">
<g clip-path="url(#clip0)">
<path d="M17.3596 20.1523C17.1827 20.1523 17.0021 20.1313 16.8231 20.0876L2.34703 16.464C1.23031 16.1761 0.564733 15.0964 0.856812 14.0533L2.44816 8.34915C2.54552 7.99907 2.92845 7.78646 3.30469 7.88019C3.67921 7.97119 3.90479 8.32993 3.80657 8.68081L2.21505 14.386C2.11683 14.7377 2.34052 15.1007 2.71504 15.197L17.1827 18.8188C17.5543 18.9106 17.9381 18.7041 18.0355 18.3585L18.5296 16.4946C18.6234 16.143 19.0034 15.9294 19.3797 16.0153C19.7561 16.1027 19.9854 16.4579 19.8927 16.8096L19.3966 18.6823C19.1465 19.5686 18.2929 20.1523 17.3596 20.1523Z" fill="#4C3ED9"/>
<path d="M21.1478 14.9022H6.638C5.47637 14.9022 4.53174 14.0192 4.53174 12.9334V2.87053C4.53174 1.78471 5.47637 0.901733 6.638 0.901733H21.1478C22.3095 0.901733 23.2541 1.78471 23.2541 2.87053V12.9334C23.2541 14.0192 22.3095 14.9022 21.1478 14.9022ZM6.638 2.21427C6.25044 2.21427 5.93591 2.50827 5.93591 2.87053V12.9334C5.93591 13.2956 6.25044 13.5897 6.638 13.5897H21.1478C21.5354 13.5897 21.8499 13.2956 21.8499 12.9334V2.87053C21.8499 2.50827 21.5354 2.21427 21.1478 2.21427H6.638Z" fill="#4C3ED9"/>
<path d="M9.21213 7.02705C8.17957 7.02705 7.33984 6.24212 7.33984 5.27695C7.33984 4.31178 8.17957 3.52686 9.21213 3.52686C10.2447 3.52686 11.0842 4.31178 11.0842 5.27695C11.0842 6.24212 10.2447 7.02705 9.21213 7.02705ZM9.21213 4.83939C8.95365 4.83939 8.74402 5.0355 8.74402 5.27695C8.74402 5.51841 8.95365 5.71452 9.21213 5.71452C9.47044 5.71452 9.68007 5.51841 9.68007 5.27695C9.68007 5.0355 9.47044 4.83939 9.21213 4.83939Z" fill="#4C3ED9"/>
<path d="M5.25301 14.0097C5.07338 14.0097 4.89357 13.9457 4.75696 13.8172C4.48271 13.5609 4.48271 13.1451 4.75696 12.8888L8.98816 8.9337C9.62854 8.33511 10.6704 8.33511 11.3097 8.9337L12.4415 9.99164L15.9182 6.09073C16.2289 5.74241 16.6849 5.54118 17.1689 5.53861C17.6893 5.51153 18.1107 5.7328 18.4242 6.0768L23.0842 11.1589C23.3369 11.4336 23.3023 11.8484 23.0083 12.0846C22.7135 12.3209 22.2707 12.2886 22.0179 12.0138L17.3561 6.92997C17.2942 6.86076 17.2185 6.86428 17.1763 6.85195C17.1362 6.85195 17.0584 6.86332 16.9967 6.93158L13.0276 11.3856C12.9011 11.5272 12.7168 11.6131 12.5202 11.6209C12.3198 11.6313 12.1308 11.5596 11.9921 11.4293L10.3166 9.86298C10.1976 9.75179 10.0994 9.75179 9.98044 9.86298L5.74924 13.8172C5.61246 13.9457 5.43282 14.0097 5.25301 14.0097Z" fill="#4C3ED9"/>
</g>
<defs>
<clipPath id="clip0">
<rect width="22.4662" height="21" fill="white" transform="translate(0.788086)"/>
</clipPath>
</defs>
</svg>
