<svg width="26" height="23" viewBox="0 0 26 23" fill="none" xmlns="http://www.w3.org/2000/svg">
<g clip-path="url(#clip0)">
<path d="M15.2707 3.1827C14.771 2.93258 14.1675 2.95989 13.6959 3.25382L7.1025 7.36264H4.60284C3.96179 7.36264 3.43507 7.82525 3.38245 8.41193H3.02951C1.84338 8.41193 0.878418 9.31391 0.878418 10.4226V12.5776C0.878418 13.6863 1.84338 14.5883 3.02951 14.5883H3.3824C3.43507 15.175 3.96184 15.6376 4.60279 15.6376H7.1024L13.6958 19.7464C13.9529 19.9066 14.2492 19.9877 14.5466 19.9876C14.7946 19.9876 15.0434 19.9312 15.2706 19.8175C15.7704 19.5675 16.0809 19.0831 16.0809 18.5532V4.44703C16.081 3.91718 15.7705 3.43269 15.2707 3.1827ZM3.37716 13.4505H3.02951C2.51461 13.4505 2.09574 13.0589 2.09574 12.5776V10.4226C2.09574 9.94129 2.51461 9.54975 3.02951 9.54975H3.37716V13.4505ZM6.6781 14.4997H4.60284C4.59828 14.4997 4.59448 14.4963 4.59448 14.4919V8.50828C4.59448 8.50397 4.59823 8.50047 4.60284 8.50047H6.6781V14.4997ZM14.8637 18.5533C14.8637 18.7134 14.7467 18.7892 14.6963 18.8144C14.646 18.8395 14.5136 18.8885 14.3711 18.7997L7.89537 14.7642V8.23606L14.3711 4.20063C14.5137 4.11182 14.6461 4.16079 14.6963 4.18594C14.7467 4.2111 14.8637 4.28693 14.8637 4.44703V18.5533Z" fill="#4C3ED9"/>
<path d="M22.2931 4.28861C22.0792 4.08861 21.7324 4.08861 21.5184 4.28861C21.3045 4.4886 21.3045 4.81275 21.5184 5.01275C23.3691 6.74264 24.3883 9.04651 24.3883 11.5C24.3883 13.9535 23.369 16.2574 21.5184 17.9872C21.3044 18.1872 21.3044 18.5114 21.5184 18.7113C21.6253 18.8114 21.7655 18.8613 21.9057 18.8613C22.0459 18.8613 22.1861 18.8113 22.2931 18.7113C24.3507 16.788 25.4839 14.2269 25.4839 11.4999C25.4839 8.77289 24.3507 6.21185 22.2931 4.28861Z" fill="#4C3ED9"/>
<path d="M19.2853 7.1009C19.0714 6.90086 18.7246 6.90086 18.5106 7.10086C18.2967 7.30085 18.2967 7.625 18.5106 7.825C19.559 8.80497 20.1364 10.1102 20.1363 11.5003C20.1363 12.8904 19.559 14.1957 18.5106 15.1756C18.2966 15.3756 18.2966 15.6998 18.5106 15.8998C18.6175 15.9998 18.7577 16.0497 18.8979 16.0497C19.0381 16.0497 19.1783 15.9997 19.2853 15.8998C20.5406 14.7264 21.232 13.164 21.232 11.5003C21.232 9.83673 20.5406 8.27426 19.2853 7.1009Z" fill="#4C3ED9"/>
</g>
<defs>
<clipPath id="clip0">
<rect width="24.6059" height="23" fill="white" transform="translate(0.878418)"/>
</clipPath>
</defs>
</svg>
