<svg width="15" height="15" viewBox="0 0 15 15" fill="none" xmlns="http://www.w3.org/2000/svg">
<path d="M14.0924 0H0.90685C0.578261 0 0.312012 0.266329 0.312012 0.594838V4.26142C0.312012 4.58993 0.578261 4.85626 0.90685 4.85626C1.23544 4.85626 1.50169 4.58993 1.50169 4.26142V1.18968H6.9048V13.8103H4.97158C4.64299 13.8103 4.37674 14.0767 4.37674 14.4052C4.37674 14.7337 4.64299 15 4.97158 15H10.0277C10.3563 15 10.6225 14.7337 10.6225 14.4052C10.6225 14.0767 10.3563 13.8103 10.0277 13.8103H8.09448V1.18968H13.4976V4.26142C13.4976 4.58993 13.7638 4.85626 14.0924 4.85626C14.421 4.85626 14.6873 4.58993 14.6873 4.26142V0.594838C14.6873 0.266329 14.421 0 14.0924 0Z" fill="#4C3ED9"/>
</svg>
