<svg width="23" height="19" viewBox="0 0 23 19" fill="none" xmlns="http://www.w3.org/2000/svg">
<path d="M21.8721 1.3125H19.7659C19.5792 1.31147 19.3999 1.37997 19.2674 1.50281L18.0739 2.625H16.9576V1.96875C16.9576 0.881426 16.0146 0 14.8514 0H2.21412C1.05088 0 0.10791 0.881426 0.10791 1.96875V12.4688C0.10791 13.5561 1.05088 14.4375 2.21412 14.4375H5.0224V13.125H2.21412C1.82636 13.125 1.51205 12.8312 1.51205 12.4688V1.96875C1.51205 1.60629 1.82636 1.3125 2.21412 1.3125H14.8514C15.2391 1.3125 15.5534 1.60629 15.5534 1.96875V5.25H16.9576V3.9375H18.3617C18.5483 3.93853 18.7277 3.87003 18.8602 3.74719L20.0537 2.625H21.17V12.4688H22.5741V1.96875C22.5741 1.60629 22.2598 1.3125 21.8721 1.3125Z" fill="#4C3ED9"/>
<path d="M13.447 6.5625C9.95736 6.5625 7.12842 9.20682 7.12842 12.4688C7.12842 15.7307 9.95736 18.375 13.447 18.375C16.9367 18.375 19.7657 15.7307 19.7657 12.4688C19.7657 9.20682 16.9367 6.5625 13.447 6.5625ZM13.447 17.0625C10.7328 17.0625 8.53256 15.0058 8.53256 12.4688C8.53256 9.93169 10.7328 7.875 13.447 7.875C16.1612 7.875 18.3615 9.93169 18.3615 12.4688C18.3615 15.0058 16.1612 17.0625 13.447 17.0625Z" fill="#4C3ED9"/>
<path d="M14.1495 9.84375H12.7454V11.8125H10.6392V13.125H12.7454V15.0938H14.1495V13.125H16.2557V11.8125H14.1495V9.84375Z" fill="#4C3ED9"/>
</svg>
