<svg width="55" height="55" viewBox="0 0 55 55" fill="none" xmlns="http://www.w3.org/2000/svg">
<g clip-path="url(#clip0)">
<path d="M40.6708 31.2592C36.9704 26.7913 32.293 24.3307 27.5 24.3307C22.7071 24.3307 18.0296 26.7913 14.3294 31.2592C11.0032 35.2751 9.01758 40.3364 9.01758 44.7981C9.01758 46.9654 9.68016 48.6163 10.9868 49.705C12.2765 50.7797 13.9793 51.1432 15.8789 51.1431C17.9003 51.1431 20.1448 50.7314 22.35 50.3269C24.2771 49.9734 26.0972 49.6395 27.5002 49.6395C28.711 49.6395 30.4183 49.9564 32.2254 50.2919C36.4489 51.076 41.2361 51.9646 44.0014 49.6654C45.3161 48.5724 45.9826 46.9347 45.9826 44.7981C45.9827 40.3364 43.997 35.2751 40.6708 31.2592ZM41.9411 47.1874C40.338 48.5204 36.1659 47.7458 32.8135 47.1235C30.8561 46.7601 29.0074 46.4168 27.4999 46.4168C25.8039 46.4168 23.8437 46.7765 21.7683 47.1572C18.5531 47.7469 14.5516 48.4811 13.0494 47.2293C12.8492 47.0624 12.2399 46.5548 12.2399 44.798C12.2399 41.1192 13.9915 36.719 16.811 33.3147C19.8881 29.5994 23.6842 27.5532 27.4998 27.5532C31.3155 27.5532 35.1115 29.5994 38.1886 33.3147C41.0082 36.719 42.7598 41.1192 42.7598 44.798C42.7601 46.5065 42.1437 47.019 41.9411 47.1874Z" fill="black"/>
<path d="M41.0496 6.99809C39.6957 5.00187 37.7569 3.85718 35.7304 3.85718C33.7038 3.85718 31.7651 5.00208 30.4112 6.99809C29.1675 8.83189 28.4824 11.2401 28.4824 13.7791C28.4824 16.3181 29.1673 18.7263 30.4112 20.5601C31.7651 22.5562 33.7039 23.7011 35.7304 23.7011C37.757 23.7011 39.6957 22.5562 41.0496 20.5601C42.2933 18.7263 42.9784 16.3181 42.9784 13.7791C42.9784 11.2401 42.2934 8.83178 41.0496 6.99809ZM38.3826 18.7512C37.9451 19.3963 37.0187 20.4786 35.7304 20.4786C34.4421 20.4786 33.5158 19.3964 33.0781 18.7512C32.2055 17.4645 31.705 15.6522 31.705 13.7791C31.705 11.9059 32.2056 10.0937 33.0781 8.80696C33.5157 8.16189 34.4421 7.07962 35.7304 7.07962C37.0187 7.07962 37.9451 8.16179 38.3826 8.80696C39.2553 10.0937 39.7558 11.906 39.7558 13.7791C39.7557 15.6522 39.2553 17.4645 38.3826 18.7512Z" fill="black"/>
<path d="M24.5887 6.99795C23.2347 5.00173 21.2961 3.85693 19.2695 3.85693C17.2428 3.85693 15.3041 5.00184 13.9502 6.99795C12.7065 8.83175 12.0215 11.2399 12.0215 13.779C12.0215 16.318 12.7064 18.7262 13.9502 20.56C15.3042 22.5562 17.2428 23.7011 19.2695 23.7011C21.2961 23.7011 23.2347 22.5562 24.5887 20.56C25.8324 18.7262 26.5174 16.3181 26.5174 13.779C26.5173 11.2399 25.8324 8.83164 24.5887 6.99795ZM21.9215 18.7512C21.484 19.3963 20.5575 20.4785 19.2693 20.4785C17.981 20.4785 17.0546 19.3963 16.6171 18.7512C15.7444 17.4645 15.2439 15.6522 15.2439 13.7791C15.2439 11.9058 15.7445 10.0936 16.6171 8.80693C17.0546 8.16187 17.981 7.07959 19.2693 7.07959C20.5577 7.07959 21.484 8.16176 21.9215 8.80693C22.7942 10.0936 23.2947 11.9059 23.2947 13.7791C23.2947 15.6522 22.7942 17.4645 21.9215 18.7512Z" fill="black"/>
<path d="M54.6793 22.5729C54.1335 20.7162 52.9636 19.3671 51.3852 18.7743C50.1151 18.2972 48.6813 18.3781 47.348 19.0021C45.5105 19.8619 44.0087 21.6374 43.2277 23.8731C42.5895 25.7002 42.5099 27.6313 43.0037 29.3111C43.5495 31.1677 44.7195 32.5169 46.2979 33.1097C46.8442 33.3149 47.4205 33.4168 48.0062 33.4168C48.7825 33.4168 49.5753 33.2376 50.3353 32.8819C52.1727 32.0221 53.6746 30.2466 54.4555 28.0109V28.0108C55.0936 26.1839 55.1732 24.2527 54.6793 22.5729ZM51.4131 26.9481C50.9237 28.349 50.0101 29.4761 48.9693 29.9631C48.5866 30.1421 48.0092 30.31 47.431 30.0929C46.0358 29.5688 45.4931 27.1589 46.2698 24.9359C46.7592 23.535 47.6728 22.4079 48.7137 21.9208C48.9675 21.8021 49.3067 21.6883 49.675 21.6883C49.8623 21.6883 50.0572 21.7177 50.2519 21.7909C51.6471 22.3151 52.1898 24.725 51.4131 26.9481Z" fill="black"/>
<path d="M11.772 23.873C10.9909 21.6372 9.48903 19.8619 7.65169 19.0021C6.31826 18.378 4.88439 18.2973 3.61434 18.7742C2.03589 19.3672 0.865955 20.7163 0.320145 22.5729C-0.173674 24.2526 -0.0940739 26.1838 0.544119 28.0108V28.0109C1.32529 30.2466 2.82705 32.022 4.66439 32.8818C5.42451 33.2375 6.21718 33.4168 6.99351 33.4168C7.57918 33.4168 8.1556 33.3147 8.70174 33.1096C10.2804 32.5167 11.4502 31.1676 11.996 29.311C12.4896 27.6314 12.41 25.7001 11.772 23.873ZM7.56844 30.0929C6.9904 30.31 6.4129 30.1421 6.03026 29.9632C4.98945 29.4761 4.07572 28.349 3.58641 26.9481V26.9483C2.80986 24.7252 3.35245 22.3154 4.74764 21.7911C5.32557 21.5741 5.90318 21.742 6.28593 21.9209C7.32684 22.4081 8.24047 23.5351 8.72977 24.9359C9.50633 27.159 8.96363 29.5688 7.56844 30.0929Z" fill="black"/>
</g>
<defs>
<clipPath id="clip0">
<rect width="55" height="55" fill="white"/>
</clipPath>
</defs>
</svg>
