<svg width="55" height="55" viewBox="0 0 55 55" fill="none" xmlns="http://www.w3.org/2000/svg">
<g clip-path="url(#clip0)">
<path d="M49.1992 40.9399V17.5815C49.1992 17.2379 49.0347 16.9147 48.7569 16.7125L46.105 14.7844L48.193 13.4793C48.4926 13.2922 48.681 12.9695 48.6969 12.6166C48.7125 12.2637 48.5538 11.9255 48.2723 11.7123L46.3345 10.2441V9.56055H48.125C48.7183 9.56055 49.1992 9.07967 49.1992 8.48633V6.33789C49.1992 2.84332 46.3559 0 42.8613 0H6.23047C6.21956 0 6.20949 0.00125886 6.199 0.00167847C6.17424 0.00125886 6.15032 0 6.12556 0C4.43409 0 2.86263 0.835457 1.70071 2.35279C0.603829 3.78494 0 5.67322 0 7.66975C0 11.2592 2.34943 14.1797 5.23724 14.1797H11.1803V31.2061C11.1803 31.5703 11.3645 31.9093 11.67 32.1074L13.776 33.4728L11.5386 35.4719C11.3108 35.6754 11.1803 35.967 11.1803 36.2729V45.5825C11.1803 45.6404 11.1861 45.6971 11.195 45.7525C11.1861 45.8083 11.1803 45.8649 11.1803 45.9229C11.1803 48.6558 11.8861 50.9562 13.2209 52.575C14.5103 54.1385 16.3441 55 18.3838 55H47.9102C51.8197 55 55 51.8197 55 47.9102C55 44.4412 52.4949 41.5479 49.1992 40.9399ZM8.81657 12.0312C9.13296 11.435 9.31213 10.7468 9.31213 10.0074C9.31213 7.53086 7.70794 5.80078 5.41054 5.80078C4.8172 5.80078 4.33632 6.28166 4.33632 6.875C4.33632 7.46834 4.8172 7.94922 5.41054 7.94922C6.50826 7.94922 7.1637 8.7188 7.1637 10.0074C7.1637 11.3221 6.17088 12.0312 5.23724 12.0312C3.56297 12.0312 2.14844 10.0339 2.14844 7.66975C2.14844 4.62543 3.93265 2.14844 6.12556 2.14844C7.64458 2.14844 8.83209 2.62051 9.65412 3.55122C10.6671 4.69719 11.1803 6.55651 11.1803 9.07715V12.0312H8.81657ZM14.8783 51.2079C13.8646 49.9784 13.3287 48.151 13.3287 45.9229C13.3287 45.8649 13.3228 45.8083 13.314 45.7525C13.3228 45.6971 13.3287 45.6404 13.3287 45.5825V36.7534L16.256 34.1375C16.5056 33.9147 16.6374 33.5878 16.6114 33.2538C16.5858 32.9202 16.4058 32.6172 16.125 32.4351L13.3287 30.6224V9.07715C13.3287 6.02947 12.6393 3.69892 11.281 2.14844H42.8613C45.1713 2.14844 47.0508 4.0279 47.0508 6.33789V7.41211H45.2603C44.6674 7.41211 44.1861 7.89299 44.1861 8.48633V10.7779C44.1861 11.1144 44.3438 11.4312 44.612 11.6343L45.7328 12.4836L43.6171 13.8058C43.3141 13.9951 43.1253 14.3224 43.1127 14.679C43.1001 15.0357 43.2658 15.3756 43.5545 15.5854L47.0508 18.1283V40.8203H19.7404C19.6876 40.8203 19.6355 40.8253 19.5844 40.8329C19.4811 40.8253 19.3771 40.8203 19.2717 40.8203C16.9869 40.8203 15.1968 42.6532 15.1968 44.9926C15.1968 47.4696 16.801 49.1992 19.0984 49.1992C19.6918 49.1992 20.1727 48.7183 20.1727 48.125C20.1727 47.5317 19.6918 47.0508 19.0984 47.0508C18.0007 47.0508 17.3453 46.2812 17.3453 44.9926C17.3453 43.6779 18.3381 42.9688 19.2717 42.9688C20.946 42.9688 22.3605 44.9661 22.3605 47.3302C22.3605 50.3746 20.5767 52.8516 18.3838 52.8516C16.9773 52.8516 15.765 52.2834 14.8783 51.2079ZM47.9102 52.8516H22.6438C22.6992 52.7844 22.7546 52.7173 22.8083 52.6472C23.838 51.3028 24.433 49.5559 24.5023 47.6953H41.25C41.8433 47.6953 42.3242 47.2144 42.3242 46.6211C42.3242 46.0278 41.8433 45.5469 41.25 45.5469H24.3076C24.0852 44.5767 23.6865 43.6976 23.1561 42.9688H47.9102C50.6347 42.9688 52.8516 45.1856 52.8516 47.9102C52.8516 50.6347 50.6347 52.8516 47.9102 52.8516Z" fill="black"/>
<path d="M20.3418 10.5273C20.6242 10.5273 20.9003 10.4124 21.1013 10.2126C21.301 10.0129 21.416 9.73553 21.416 9.45312C21.416 9.17072 21.301 8.89336 21.1013 8.69362C20.9003 8.49388 20.6242 8.37891 20.3418 8.37891C20.0581 8.37891 19.782 8.49388 19.5823 8.69362C19.3826 8.89336 19.2676 9.17072 19.2676 9.45312C19.2676 9.73553 19.3826 10.0129 19.5823 10.2126C19.782 10.4124 20.0581 10.5273 20.3418 10.5273Z" fill="black"/>
<path d="M24.9219 10.5273H40.4288C41.0221 10.5273 41.503 10.0465 41.503 9.45312C41.503 8.85979 41.0221 8.37891 40.4288 8.37891H24.9219C24.3285 8.37891 23.8477 8.85979 23.8477 9.45312C23.8477 10.0465 24.3285 10.5273 24.9219 10.5273Z" fill="black"/>
<path d="M20.3418 16.543H40.4297C41.023 16.543 41.5039 16.0621 41.5039 15.4688C41.5039 14.8754 41.023 14.3945 40.4297 14.3945H20.3418C19.7489 14.3945 19.2676 14.8754 19.2676 15.4688C19.2676 16.0621 19.7489 16.543 20.3418 16.543Z" fill="black"/>
<path d="M20.3418 22.5586H40.4297C41.023 22.5586 41.5039 22.0777 41.5039 21.4844C41.5039 20.891 41.023 20.4102 40.4297 20.4102H20.3418C19.7489 20.4102 19.2676 20.891 19.2676 21.4844C19.2676 22.0777 19.7489 22.5586 20.3418 22.5586Z" fill="black"/>
<path d="M20.3418 28.5742H40.4297C41.023 28.5742 41.5039 28.0933 41.5039 27.5C41.5039 26.9067 41.023 26.4258 40.4297 26.4258H20.3418C19.7489 26.4258 19.2676 26.9067 19.2676 27.5C19.2676 28.0933 19.7489 28.5742 20.3418 28.5742Z" fill="black"/>
<path d="M20.3418 34.5898H40.4297C41.023 34.5898 41.5039 34.109 41.5039 33.5156C41.5039 32.9223 41.023 32.4414 40.4297 32.4414H20.3418C19.7489 32.4414 19.2676 32.9223 19.2676 33.5156C19.2676 34.109 19.7489 34.5898 20.3418 34.5898Z" fill="black"/>
<path d="M45.4258 45.5469C45.143 45.5469 44.866 45.6618 44.6663 45.8616C44.4665 46.0613 44.3516 46.3387 44.3516 46.6211C44.3516 46.9035 44.4661 47.1809 44.6663 47.3806C44.866 47.5803 45.143 47.6953 45.4258 47.6953C45.7082 47.6953 45.9851 47.5803 46.1849 47.3806C46.385 47.1809 46.5 46.9035 46.5 46.6211C46.5 46.3387 46.385 46.0613 46.1849 45.8616C45.9851 45.6618 45.7082 45.5469 45.4258 45.5469Z" fill="black"/>
</g>
<defs>
<clipPath id="clip0">
<rect width="55" height="55" fill="white"/>
</clipPath>
</defs>
</svg>
