<svg width="55" height="55" viewBox="0 0 55 55" xmlns="http://www.w3.org/2000/svg">
<g clip-path="url(#clip0)">
<path d="M0.409063 41.1228C0.822422 41.3772 9.61383 46.6864 22.4563 46.6864C24.1046 46.6864 25.8216 46.5979 27.5945 46.402C32.5548 45.8502 36.398 45.1198 39.4857 44.532C46.0092 43.2885 49.2834 42.6671 53.6843 45.4163C53.949 45.5821 54.2824 45.589 54.5566 45.4395C54.8307 45.2874 55 44.9995 55 44.6875V12.8906C55 12.5942 54.847 12.3192 54.5961 12.1619C49.6255 9.05611 45.9104 9.76166 39.1652 11.0456C36.1066 11.6274 32.2996 12.3518 27.4055 12.8949C12.4326 14.557 1.41883 7.92947 1.30883 7.86158C1.045 7.69916 0.711563 7.69228 0.44 7.84439C0.168438 7.9965 0 8.28267 0 8.59377V40.3906C0 40.6897 0.154688 40.9664 0.409063 41.1228ZM39.1652 42.8433C36.1066 43.4251 32.2996 44.1495 27.4055 44.6927C14.0559 46.1768 3.84828 41.0635 1.71875 39.8922V30.6728C4.65695 32.1845 12.283 35.5137 22.4563 35.5137C24.1046 35.5137 25.8216 35.4252 27.5945 35.2292C32.5548 34.6775 36.398 33.947 39.4857 33.3592C45.8073 32.1552 49.0798 31.5434 53.2804 34.0072V43.2102C48.9311 40.9836 45.3028 41.6737 39.1652 42.8433ZM27.5945 14.6042C32.5548 14.0525 36.398 13.322 39.4857 12.7342C45.8081 11.5303 49.0789 10.9081 53.2804 13.3745V21.7345C48.932 19.5095 45.3011 20.1893 39.1643 21.3581C36.1058 21.9399 32.2988 22.6643 27.4046 23.2074C21.3529 23.8812 15.2694 23.3114 9.32078 21.5205C8.86703 21.3838 8.3875 21.6417 8.25 22.0954C8.11336 22.5492 8.37031 23.0287 8.82492 23.1653C13.3203 24.5197 17.8905 25.2003 22.4692 25.2003C24.1777 25.2003 25.8878 25.1058 27.5937 24.9159C32.554 24.3642 36.3971 23.6337 39.4848 23.0459C45.8064 21.841 49.0789 21.23 53.2795 23.6938V32.0461C48.9311 29.8203 45.3002 30.5018 39.1634 31.6697C36.1049 32.2515 32.2979 32.976 27.4038 33.5191C14.037 35.0084 3.83195 29.8839 1.71875 28.7203V20.3543C2.62195 20.8149 3.9643 21.4466 5.71055 22.1092C5.81109 22.147 5.91422 22.165 6.01562 22.165C6.36195 22.165 6.68852 21.9536 6.81914 21.6099C6.98758 21.1664 6.76414 20.6697 6.3207 20.5021C4.01586 19.6281 2.42172 18.798 1.71875 18.4087V10.0495C5.13734 11.8061 14.887 16.0119 27.5945 14.6042Z" fill="black"/>
</g>
<defs>
<clipPath id="clip0">
<rect width="55" height="55" fill="white"/>
</clipPath>
</defs>
</svg>
