<svg width="55" height="55" viewBox="0 0 55 55" fill="none" xmlns="http://www.w3.org/2000/svg">
<g clip-path="url(#clip0)">
<path d="M49.1166 3.50311C49.1211 2.94056 48.6687 2.48089 48.1061 2.47644C47.9594 2.47529 47.8142 2.50585 47.6803 2.56595C41.2647 5.55188 33.7128 4.65661 28.1731 0.253603C27.7885 -0.0842087 27.213 -0.0842087 26.8285 0.253603C21.2655 4.60033 13.7463 5.49166 7.32121 2.56595C6.80807 2.33522 6.20515 2.5643 5.97442 3.07732C5.91432 3.21114 5.88376 3.3563 5.88491 3.50311C5.88491 3.71703 5.95621 24.7217 5.88491 31.6791C5.84416 35.3972 14.5231 47.4683 26.9813 54.8637C27.2964 55.0457 27.6848 55.0457 27.9999 54.8637C40.4784 47.4683 49.1574 35.3972 49.1166 31.6791C49.0453 24.7217 49.1166 3.71703 49.1166 3.50311ZM47.0793 31.6893C47.0793 33.9303 39.9487 45.1865 27.5008 52.7958C15.0121 45.1967 7.90185 33.9405 7.92222 31.6995C7.98334 25.8219 7.94259 10.0021 7.92222 5.01072C14.4934 7.41526 21.8297 6.39991 27.5008 2.3011C33.1719 6.39991 40.5081 7.41526 47.0793 5.01072C47.0793 9.99195 47.0284 25.8218 47.0793 31.6893Z" fill="black"/>
<path d="M43.797 9.69635C43.8014 9.13379 43.349 8.67413 42.7865 8.66967C42.6398 8.66852 42.4945 8.69908 42.3607 8.75918C37.704 10.9484 32.2099 10.3173 28.1708 7.12934C27.7863 6.79152 27.2107 6.79152 26.8262 7.12934C22.7862 10.2804 17.3294 10.9242 12.6669 8.79993C12.1537 8.5692 11.5508 8.79827 11.3201 9.31129C11.26 9.44512 11.2294 9.59041 11.2306 9.73709C11.2306 9.88989 11.2815 25.4448 11.2306 30.5992C11.2 33.4005 17.6787 42.4665 26.979 47.9876C27.2941 48.1696 27.6825 48.1696 27.9976 47.9876C37.3183 42.4665 43.797 33.4005 43.797 30.5584C43.7461 25.404 43.797 9.85933 43.797 9.69635ZM41.7597 30.5584C41.7597 31.9947 36.6664 40.2764 27.4985 45.8382C18.4019 40.2458 13.2373 31.9642 13.2373 30.5584C13.3086 26.4023 13.2373 15.2786 13.2373 11.204C18.0388 12.8926 23.362 12.1322 27.4985 9.16665C31.635 12.1322 36.9582 12.8926 41.7597 11.204V30.5584Z" fill="black"/>
</g>
<defs>
<clipPath id="clip0">
<rect width="55" height="55" fill="white"/>
</clipPath>
</defs>
</svg>
