<svg width="55" height="55" viewBox="0 0 55 55" xmlns="http://www.w3.org/2000/svg">
<path d="M2.57812 52.4219H35.2344C35.4623 52.4219 35.6809 52.3314 35.842 52.1702C36.0032 52.009 36.0938 51.7905 36.0938 51.5625V39.5227L39.5312 42.2824V51.5625C39.5312 51.7905 39.6218 52.009 39.783 52.1702C39.9441 52.3314 40.1627 52.4219 40.3906 52.4219H43.8281C44.056 52.4219 44.2746 52.3314 44.4358 52.1702C44.597 52.009 44.6875 51.7905 44.6875 51.5625V45.5291C45.2045 45.5074 45.7053 45.3433 46.1349 45.0548C46.2941 45.2204 46.317 45.3166 46.3696 45.5538C46.4661 46.071 46.7169 46.547 47.089 46.9191C47.461 47.2911 47.9369 47.5419 48.4541 47.6385C48.7029 47.6938 48.796 47.7146 48.9772 47.8958C49.1584 48.077 49.179 48.17 49.2343 48.4187C49.3247 48.9382 49.5766 49.416 49.9541 49.7842C50.1152 49.9454 50.3338 50.0359 50.5618 50.0359C50.7897 50.0359 51.0083 49.9454 51.1695 49.7842C51.3307 49.6231 51.4212 49.4045 51.4212 49.1765C51.4213 48.9486 51.3307 48.73 51.1696 48.5688C50.9882 48.3876 50.9676 48.2945 50.9123 48.0458C50.8156 47.5285 50.5647 47.0525 50.1926 46.6804C49.8205 46.3083 49.3445 46.0574 48.8272 45.9608C48.5785 45.9055 48.4854 45.8848 48.3043 45.7035C48.1232 45.5223 48.1028 45.4297 48.0475 45.1814C47.9576 44.6619 47.7059 44.1842 47.3285 43.8162C47.2876 43.7753 47.2427 43.7387 47.1945 43.7068C47.3619 43.2586 47.412 42.7752 47.3402 42.3023C47.2684 41.8293 47.0771 41.3825 46.7843 41.0043L46.7757 40.9935L41.26 34.1232C41.3313 33.9646 41.3526 33.788 41.3211 33.617C41.2896 33.446 41.2068 33.2886 41.0836 33.1658L38.6529 30.735C38.5893 30.6718 38.5163 30.6189 38.4364 30.5782C38.3168 30.4191 38.1862 30.2686 38.0454 30.1279C37.5289 29.6107 36.8889 29.2338 36.186 29.0331C35.4831 28.8324 34.7407 28.8144 34.0289 28.9808C33.3171 29.1472 32.6596 29.4926 32.1186 29.9842C31.5777 30.4758 31.1711 31.0973 30.9375 31.7899H25.1089C27.1423 30.5609 28.7693 28.761 29.7874 26.6142C29.9463 26.6318 30.106 26.6406 30.2659 26.6407C32.5316 26.6407 34.375 24.9059 34.375 22.7735C34.375 21.4772 33.6931 20.3287 32.6498 19.6267C33.4593 17.6546 33.7065 15.6568 33.3614 13.818C32.7079 10.3362 30.951 8.44877 29.5923 7.47875C28.8044 6.91048 27.9188 6.49175 26.9796 6.2434C23.5503 2.75423 18.7726 1.68871 13.8262 3.32206C8.85242 4.96475 4.89844 9.03228 4.42417 12.9938C4.12522 15.4907 4.34962 17.7356 5.09019 19.6754C4.58552 20.0205 4.1717 20.4824 3.88395 21.0218C3.5962 21.5612 3.44304 22.1621 3.4375 22.7735C3.4375 24.9059 5.28086 26.6407 7.5466 26.6407C7.70645 26.6406 7.86618 26.6318 8.02506 26.6142C9.04322 28.761 10.6702 30.5609 12.7036 31.7899H6.77585C5.43509 31.7915 4.14969 32.3248 3.20164 33.2728C2.25358 34.2209 1.72029 35.5063 1.71875 36.847V51.5625C1.71875 51.7905 1.80929 52.009 1.97046 52.1702C2.13162 52.3314 2.3502 52.4219 2.57812 52.4219ZM17.1875 33.3923C18.3274 33.5568 19.4851 33.5568 20.625 33.3923V35.2344H17.1875V33.3923ZM16.3281 36.9532H21.4844C21.7123 36.9532 21.9309 36.8626 22.092 36.7015C22.2532 36.5403 22.3438 36.3217 22.3438 36.0938V33.5087H25.3607L18.9062 49.1965L12.4518 33.5087H15.4688V36.0938C15.4688 36.3217 15.5593 36.5403 15.7205 36.7015C15.8816 36.8626 16.1002 36.9532 16.3281 36.9532ZM41.25 50.7032V43.6623L42.8346 44.9346C42.8381 44.9375 42.8418 44.9404 42.8453 44.9431C42.8855 44.9744 42.9273 45.0022 42.9686 45.0309V50.7032H41.25ZM45.3367 43.4966C45.1496 43.6828 44.9014 43.7949 44.638 43.8119C44.3746 43.829 44.114 43.7499 43.9045 43.5893L37.2324 38.2325L40.0738 35.391L45.4306 42.0633C45.5912 42.2731 45.6702 42.534 45.6529 42.7976C45.6356 43.0612 45.5232 43.3096 45.3367 43.4966ZM35.615 37.4194L34.3997 36.2041L38.0456 32.558L39.2604 33.7735L35.615 37.4194ZM33.1839 31.3433C33.6679 30.8607 34.3235 30.5897 35.007 30.5897C35.6904 30.5897 36.346 30.8607 36.83 31.3433L33.1841 34.9893C32.7013 34.5055 32.4302 33.8499 32.43 33.1664C32.4299 32.4829 32.7008 31.8273 33.1834 31.3433H33.1839ZM32.4192 36.595C32.46 36.6751 32.5132 36.7482 32.5767 36.8118L34.375 38.6107V50.7032H20.1449L27.2192 33.5087H30.7267C30.8057 34.5265 31.2459 35.4825 31.968 36.2041C32.109 36.3446 32.2596 36.4753 32.4186 36.595H32.4192ZM30.4382 24.9157C30.7699 23.8021 30.9381 22.6463 30.9375 21.4844V20.7119C31.9295 20.9735 32.6562 21.7984 32.6562 22.7735C32.6562 23.906 31.676 24.836 30.4382 24.9157ZM6.13067 13.1981C6.52319 9.91894 10.0632 6.37499 14.3651 4.95444C16.3888 4.28606 18.4542 4.12439 20.3378 4.48716C22.464 4.89665 24.3409 5.94971 25.9164 7.61732C26.0467 7.75357 26.2175 7.84401 26.4034 7.87513C26.576 7.90425 30.6427 8.64986 31.6722 14.1348C31.9602 15.6702 31.7528 17.2979 31.0582 18.9789C31.0182 18.9715 30.9779 18.9648 30.9374 18.9586V18.0469C30.9374 17.8246 30.8513 17.611 30.6971 17.4508L25.7321 12.2946C25.5815 12.1383 25.3773 12.0448 25.1606 12.0329C24.9439 12.0209 24.7307 12.0914 24.5638 12.2301C24.5042 12.2792 18.4716 17.1875 7.73438 17.1875C7.50645 17.1875 7.28787 17.2781 7.12671 17.4392C6.96554 17.6004 6.875 17.819 6.875 18.0469V18.9588C6.80632 18.9694 6.73829 18.9817 6.6709 18.9956C6.0514 17.3327 5.86889 15.3856 6.13067 13.1981ZM5.15625 22.7735C5.15625 21.7984 5.88296 20.9735 6.875 20.7119V21.4844C6.87438 22.6463 7.04257 23.8021 7.3743 24.9157C6.13648 24.836 5.15625 23.906 5.15625 22.7735ZM8.59375 21.4844V18.8964C17.5365 18.6905 23.188 15.3139 25.0195 14.0324L29.2188 18.3935V21.4844C29.2188 24.2195 28.1323 26.8425 26.1983 28.7765C24.2643 30.7104 21.6413 31.7969 18.9062 31.7969C16.1712 31.7969 13.5482 30.7104 11.6142 28.7765C9.68024 26.8425 8.59375 24.2195 8.59375 21.4844ZM3.4375 36.847C3.4385 35.962 3.79053 35.1134 4.41638 34.4876C5.04223 33.8617 5.89077 33.5097 6.77585 33.5087H10.5933L17.6676 50.7032H3.4375V36.847Z" fill="black"/>
<path d="M23.2031 22.3438C23.6777 22.3438 24.0625 21.959 24.0625 21.4844C24.0625 21.0098 23.6777 20.625 23.2031 20.625C22.7285 20.625 22.3438 21.0098 22.3438 21.4844C22.3438 21.959 22.7285 22.3438 23.2031 22.3438Z" fill="black"/>
<path d="M14.6094 22.3438C15.084 22.3438 15.4688 21.959 15.4688 21.4844C15.4688 21.0098 15.084 20.625 14.6094 20.625C14.1348 20.625 13.75 21.0098 13.75 21.4844C13.75 21.959 14.1348 22.3438 14.6094 22.3438Z" fill="black"/>
<path d="M18.0469 24.0625H19.7656C19.9935 24.0625 20.2121 23.972 20.3733 23.8108C20.5345 23.6496 20.625 23.431 20.625 23.2031C20.625 22.9752 20.5345 22.7566 20.3733 22.5955C20.2121 22.4343 19.9935 22.3438 19.7656 22.3438H18.9062V21.4844C18.9062 21.2565 18.8157 21.0379 18.6545 20.8767C18.4934 20.7155 18.2748 20.625 18.0469 20.625C17.819 20.625 17.6004 20.7155 17.4392 20.8767C17.278 21.0379 17.1875 21.2565 17.1875 21.4844V23.2031C17.1875 23.431 17.278 23.6496 17.4392 23.8108C17.6004 23.972 17.819 24.0625 18.0469 24.0625Z" fill="black"/>
<path d="M18.9062 40.3906C19.3809 40.3906 19.7656 40.0059 19.7656 39.5312C19.7656 39.0566 19.3809 38.6719 18.9062 38.6719C18.4316 38.6719 18.0469 39.0566 18.0469 39.5312C18.0469 40.0059 18.4316 40.3906 18.9062 40.3906Z" fill="black"/>
<path d="M18.9062 43.8281C19.3809 43.8281 19.7656 43.4434 19.7656 42.9688C19.7656 42.4941 19.3809 42.1094 18.9062 42.1094C18.4316 42.1094 18.0469 42.4941 18.0469 42.9688C18.0469 43.4434 18.4316 43.8281 18.9062 43.8281Z" fill="black"/>
<path d="M21.4844 27.5C21.4844 26.9901 21.3332 26.4916 21.0499 26.0677C20.7666 25.6437 20.3639 25.3133 19.8929 25.1181C19.4218 24.923 18.9034 24.8719 18.4033 24.9714C17.9032 25.0709 17.4438 25.3164 17.0832 25.677C16.7227 26.0376 16.4771 26.4969 16.3777 26.997C16.2782 27.4971 16.3292 28.0155 16.5244 28.4866C16.7195 28.9577 17.05 29.3604 17.4739 29.6436C17.8979 29.9269 18.3963 30.0781 18.9062 30.0781C19.5898 30.0774 20.2451 29.8055 20.7284 29.3222C21.2117 28.8388 21.4836 28.1835 21.4844 27.5ZM18.0469 27.5C18.0469 27.33 18.0973 27.1639 18.1917 27.0226C18.2861 26.8812 18.4204 26.7711 18.5774 26.706C18.7344 26.641 18.9072 26.624 19.0739 26.6571C19.2406 26.6903 19.3937 26.7722 19.5139 26.8923C19.6341 27.0125 19.716 27.1656 19.7491 27.3324C19.7823 27.4991 19.7653 27.6718 19.7002 27.8289C19.6352 27.9859 19.525 28.1201 19.3837 28.2146C19.2424 28.309 19.0762 28.3594 18.9062 28.3594C18.6784 28.3591 18.46 28.2685 18.2989 28.1074C18.1378 27.9463 18.0471 27.7279 18.0469 27.5Z" fill="black"/>
<path d="M40.3917 17.1875C41.0752 17.1867 41.7305 16.9149 42.2138 16.4315C42.6972 15.9482 42.969 15.2929 42.9698 14.6094V7.73438H47.2667C47.4946 7.73438 47.7132 7.64383 47.8743 7.48267C48.0355 7.32151 48.126 7.10292 48.126 6.875C48.126 6.64708 48.0355 6.42849 47.8743 6.26733C47.7132 6.10617 47.4946 6.01562 47.2667 6.01562H42.1104C41.8825 6.01562 41.6639 6.10617 41.5027 6.26733C41.3416 6.42849 41.251 6.64708 41.251 6.875V12.1791C40.897 12.0537 40.5199 12.0072 40.146 12.0429C39.7722 12.0785 39.4106 12.1954 39.0866 12.3853C38.7627 12.5753 38.4841 12.8337 38.2704 13.1426C38.0568 13.4514 37.9131 13.8032 37.8496 14.1734C37.7861 14.5435 37.8042 14.9231 37.9027 15.2855C38.0012 15.6479 38.1777 15.9844 38.4198 16.2715C38.6619 16.5586 38.9639 16.7893 39.3045 16.9475C39.6451 17.1058 40.0161 17.1877 40.3917 17.1875ZM40.3917 13.75C40.5616 13.75 40.7278 13.8004 40.8691 13.8948C41.0104 13.9893 41.1206 14.1235 41.1856 14.2805C41.2507 14.4375 41.2677 14.6103 41.2345 14.777C41.2014 14.9437 41.1195 15.0969 40.9993 15.217C40.8791 15.3372 40.726 15.4191 40.5593 15.4522C40.3926 15.4854 40.2198 15.4684 40.0628 15.4033C39.9058 15.3383 39.7715 15.2281 39.6771 15.0868C39.5827 14.9455 39.5323 14.7793 39.5323 14.6094C39.5325 14.3815 39.6232 14.1631 39.7843 14.002C39.9454 13.8409 40.1638 13.7503 40.3917 13.75Z" fill="black"/>
<path d="M44.6875 19.7656V25.0697C44.1715 24.8873 43.6108 24.8738 43.0867 25.0312C42.5625 25.1886 42.102 25.5087 41.7719 25.9452C41.4418 26.3817 41.2591 26.9119 41.2503 27.4591C41.2416 28.0064 41.4072 28.5422 41.7232 28.989C42.0392 29.4358 42.4892 29.7705 43.0081 29.9446C43.5269 30.1187 44.0878 30.1231 44.6093 29.9573C45.1309 29.7915 45.5861 29.464 45.9092 29.0222C46.2322 28.5804 46.4063 28.0473 46.4062 27.5V20.625H51.5625V25.0697C51.0465 24.8873 50.4858 24.8738 49.9617 25.0312C49.4375 25.1886 48.977 25.5087 48.6469 25.9452C48.3167 26.3817 48.1341 26.9119 48.1253 27.4591C48.1166 28.0064 48.2822 28.5422 48.5982 28.989C48.9142 29.4358 49.3642 29.7705 49.8831 29.9446C50.4019 30.1187 50.9627 30.1231 51.4843 29.9573C52.0059 29.7915 52.4611 29.464 52.7842 29.0222C53.1072 28.5804 53.2813 28.0473 53.2812 27.5V19.7656C53.2812 19.5377 53.1907 19.3191 53.0295 19.158C52.8684 18.9968 52.6498 18.9062 52.4219 18.9062H45.5469C45.319 18.9062 45.1004 18.9968 44.9392 19.158C44.778 19.3191 44.6875 19.5377 44.6875 19.7656ZM50.7031 28.3594C50.5332 28.3594 50.367 28.309 50.2257 28.2145C50.0844 28.1201 49.9742 27.9859 49.9092 27.8289C49.8441 27.6718 49.8271 27.499 49.8603 27.3323C49.8934 27.1656 49.9753 27.0125 50.0954 26.8923C50.2156 26.7721 50.3688 26.6903 50.5355 26.6571C50.7022 26.624 50.875 26.641 51.032 26.706C51.189 26.7711 51.3232 26.8812 51.4177 27.0226C51.5121 27.1639 51.5625 27.33 51.5625 27.5C51.5622 27.7278 51.4716 27.9463 51.3105 28.1074C51.1494 28.2685 50.931 28.3591 50.7031 28.3594ZM43.8281 28.3594C43.6582 28.3594 43.492 28.309 43.3507 28.2145C43.2094 28.1201 43.0992 27.9859 43.0342 27.8289C42.9691 27.6718 42.9521 27.499 42.9853 27.3323C43.0184 27.1656 43.1003 27.0125 43.2205 26.8923C43.3406 26.7721 43.4938 26.6903 43.6605 26.6571C43.8272 26.624 44 26.641 44.157 26.706C44.314 26.7711 44.4482 26.8812 44.5427 27.0226C44.6371 27.1639 44.6875 27.33 44.6875 27.5C44.6872 27.7278 44.5966 27.9463 44.4355 28.1074C44.2744 28.2685 44.056 28.3591 43.8281 28.3594Z" fill="black"/>
</svg>
