<svg width="55" height="55" viewBox="0 0 55 55" xmlns="http://www.w3.org/2000/svg">
<path d="M54.9899 19.25C54.8992 17.6816 53.0338 16.456 49.3029 15.521C49.4285 15.246 49.4991 14.96 49.5 14.663V8.25H49.4844C49.1563 2.90767 27.2644 2.75 24.75 2.75C22.2356 2.75 0.34375 2.90767 0.0155833 8.25H0V8.36917V14.6657C0.00458333 16.4074 2.25225 17.7705 5.59625 18.7852C5.55042 18.9374 5.52292 19.0923 5.51375 19.25H5.5V19.3692V25.6548C1.8975 26.5824 0.0980833 27.7906 0.00916667 29.3333H0V29.4525V35.7491C0.00275 36.9618 1.09633 37.9903 2.88567 38.8474C2.81783 39.0335 2.77567 39.2233 2.76375 39.4176H2.75V39.5368V45.8333C2.75733 48.8822 9.62225 50.7751 17.2498 51.6588C17.3058 51.6698 17.3571 51.6927 17.4167 51.6927C17.4341 51.6927 17.4488 51.6835 17.4662 51.6826C18.9365 51.8485 20.4307 51.9778 21.9093 52.0703C21.9404 52.074 21.9679 52.0887 22 52.0887C22.0174 52.0887 22.0312 52.0795 22.0477 52.0786C23.925 52.1922 25.7721 52.25 27.5 52.25C29.2279 52.25 31.075 52.1923 32.9523 52.0777C32.9688 52.0786 32.9835 52.0878 33 52.0878C33.0321 52.0878 33.0596 52.0722 33.0908 52.0694C34.5693 51.9768 36.0635 51.8485 37.5338 51.6817C37.5513 51.6817 37.5659 51.6908 37.5833 51.6908C37.6429 51.6908 37.6942 51.6679 37.7502 51.6569C45.3778 50.7733 52.2418 48.8794 52.25 45.8297V39.4167H52.2353C52.1712 38.2928 51.2133 37.3551 49.3213 36.5713C49.4368 36.3064 49.5 36.0314 49.5 35.7463V29.755C52.7908 28.743 54.9954 27.3891 55 25.663V19.25H54.9899ZM47.5677 36.0443L47.2551 36.3183C46.7738 36.7427 45.9718 37.1708 44.9167 37.5833V33.2127C46.0066 32.8332 46.9342 32.4124 47.6667 31.9513V35.7445C47.6667 35.8389 47.6318 35.9398 47.5677 36.0443ZM27.0655 40.304C26.9317 40.3077 26.7969 40.3095 26.6622 40.3123C26.3349 40.3187 25.9994 40.3205 25.6676 40.3232V35.7445C25.9197 35.7417 26.1718 35.7381 26.4238 35.7335C26.4724 35.7326 26.521 35.7317 26.5696 35.7308C27.4927 35.7133 28.4158 35.6849 29.3342 35.6427V40.2197C29.1381 40.2298 28.941 40.2389 28.7421 40.2472C28.1903 40.2719 27.6329 40.2902 27.0655 40.304ZM23.0624 40.3168C22.6426 40.3095 22.2246 40.2994 21.8093 40.2866C21.758 40.2848 21.7067 40.2829 21.6553 40.2811C21.1558 40.2646 20.6598 40.2435 20.1676 40.2197V35.6437C21.0861 35.6867 22.0092 35.7152 22.9323 35.7317C22.9808 35.7326 23.0294 35.7335 23.0771 35.7344C23.3292 35.739 23.5813 35.7427 23.8333 35.7454V40.3269C23.6555 40.3251 23.4777 40.3251 23.3008 40.3223C23.2201 40.3205 23.1422 40.3177 23.0624 40.3168ZM6.50558 38.2268C6.47533 38.2177 6.44692 38.2094 6.41667 38.2012V33.7727C7.27283 34.0037 8.19317 34.2146 9.16667 34.4062V38.8804C8.32517 38.7017 7.54875 38.5138 6.842 38.3213C6.73017 38.2892 6.61467 38.2589 6.50558 38.2268ZM25.8271 45.8178C26.0792 45.8223 26.3313 45.826 26.5833 45.8288V50.4112C25.3165 50.3993 24.0937 50.3626 22.9167 50.3048V45.7279C23.8352 45.771 24.7583 45.7994 25.6813 45.8159C25.7299 45.8159 25.7785 45.8168 25.8271 45.8178ZM29.3187 45.815C30.2418 45.7976 31.1648 45.7692 32.0833 45.727V50.3039C30.9063 50.3617 29.6835 50.3983 28.4167 50.4103V45.8278C28.6688 45.8251 28.9208 45.8214 29.1729 45.8168C29.2215 45.8168 29.2701 45.8159 29.3187 45.815ZM36.6667 45.4007V49.9528C35.7858 50.0454 34.8691 50.127 33.9167 50.1939V45.6225C34.8462 45.562 35.7647 45.4878 36.6667 45.4007ZM38.5 45.2027C39.4451 45.089 40.3627 44.9598 41.25 44.8158V49.3167C40.3865 49.4688 39.4689 49.6091 38.5 49.7365V45.2027ZM43.0833 44.4886C44.0568 44.297 44.9772 44.0862 45.8333 43.8552V48.2836C45.0166 48.5192 44.0972 48.7474 43.0833 48.9628V44.4886ZM11.9167 44.4886V48.9628C10.9028 48.7474 9.98342 48.5192 9.16667 48.2836V43.8552C10.0228 44.0862 10.9432 44.2979 11.9167 44.4886ZM13.75 44.8167C14.6373 44.9607 15.5549 45.0899 16.5 45.2036V49.7374C15.5311 49.61 14.6135 49.4697 13.75 49.3176V44.8167ZM18.3333 45.4007C19.2353 45.4878 20.1538 45.562 21.0833 45.6234V50.1948C20.1309 50.1279 19.2143 50.0463 18.3333 49.9538V45.4007ZM16.0591 39.919C15.9656 39.9098 15.873 39.8997 15.7804 39.8906C15.7144 39.8842 15.6493 39.8759 15.5833 39.8695V35.3182C16.4853 35.4053 17.4038 35.4796 18.3333 35.541V40.1088C17.5633 40.0538 16.8025 39.9914 16.0591 39.919ZM13.75 35.1193V39.6532C12.7811 39.5257 11.8635 39.3855 11 39.2333V34.7325C11.8873 34.8764 12.8049 35.0066 13.75 35.1193ZM31.7772 40.0657C31.5755 40.0812 31.372 40.0968 31.1667 40.1115V35.5401C32.0962 35.4787 33.0147 35.4053 33.9167 35.3173V39.8695C33.3502 39.9291 32.7708 39.985 32.1759 40.0336C32.043 40.0455 31.9101 40.0556 31.7772 40.0657ZM35.75 39.6532V35.1193C36.6951 35.0057 37.6127 34.8764 38.5 34.7325V39.2333C37.6365 39.3855 36.7189 39.5267 35.75 39.6532ZM40.3333 34.4053C41.3068 34.2137 42.2272 34.0028 43.0833 33.7718V38.2003C42.2666 38.4358 41.3472 38.6641 40.3333 38.8795V34.4053ZM27.7979 30.2179C27.1086 30.2005 26.4348 30.1739 25.773 30.1418C25.7372 30.14 25.7015 30.1382 25.6667 30.1372V25.5603C26.5852 25.6034 27.5083 25.6318 28.4313 25.6483C28.4799 25.6493 28.5285 25.6502 28.5762 25.6511C28.8283 25.6557 29.0803 25.6593 29.3324 25.6621V30.239C28.886 30.2344 28.4359 30.2326 28.0005 30.2225C27.9336 30.2207 27.8648 30.2198 27.7979 30.2179ZM6.41667 17.1178V12.6894C7.27283 12.9204 8.19317 13.1313 9.16667 13.3228V17.7971C9.05392 17.7733 8.9375 17.7494 8.8275 17.7256C8.33983 17.6183 7.86408 17.5065 7.40942 17.3883C7.06292 17.2993 6.73383 17.2086 6.41667 17.1178ZM23.0771 14.6511C23.3292 14.6557 23.5813 14.6593 23.8333 14.6621V19.239C22.5995 19.2271 21.373 19.195 20.1667 19.1345V14.5613C21.0852 14.6043 22.0083 14.6328 22.9313 14.6493C22.9799 14.6493 23.0285 14.6502 23.0771 14.6511ZM26.5687 14.6483C27.4918 14.6309 28.4148 14.6025 29.3333 14.5603V19.1336C29.1775 19.1409 29.0281 19.1519 28.8713 19.1593C28.8585 19.1602 28.8457 19.1602 28.8319 19.1611C28.2168 19.1886 27.5898 19.2088 26.9546 19.2234C26.8556 19.2262 26.7566 19.2271 26.6576 19.2298C26.3312 19.2363 25.9976 19.2372 25.6667 19.2408V14.6621C25.9188 14.6593 26.1708 14.6557 26.4229 14.6511C26.4715 14.6502 26.5201 14.6493 26.5687 14.6483ZM47.4568 15.1085L47.4311 15.103L47.0974 15.3624C46.6134 15.7392 45.87 16.1205 44.9167 16.489V12.1284C46.0066 11.7489 46.9342 11.3282 47.6667 10.8671V14.6603C47.6667 14.7996 47.5933 14.9499 47.4568 15.1085ZM35.75 18.5643V14.036C36.6951 13.9223 37.6127 13.7931 38.5 13.6492V18.1427C37.631 18.2967 36.7162 18.4378 35.75 18.5643ZM40.3333 17.7898V13.3228C41.3068 13.1313 42.2272 12.9204 43.0833 12.6894V17.1077C42.262 17.347 41.3371 17.5752 40.3333 17.7898ZM33.9167 14.234V18.7807C33.0312 18.8742 32.1145 18.9558 31.1667 19.0236V14.4567C32.0962 14.3953 33.0147 14.3211 33.9167 14.234ZM15.5833 18.7825V14.234C16.4853 14.3211 17.4038 14.3953 18.3333 14.4567V19.0199C17.4002 18.953 16.4798 18.8769 15.5833 18.7825ZM13.75 14.036V18.5653C13.5685 18.5414 13.3797 18.5222 13.2 18.4974C13.0827 18.4809 12.9708 18.4635 12.8553 18.447C12.3255 18.3709 11.8076 18.2893 11.2998 18.2041C11.198 18.1867 11.0999 18.1683 11 18.1509V13.6501C11.8873 13.7931 12.8049 13.9233 13.75 14.036ZM23.606 30.0107C23.4823 30.0016 23.3576 29.9924 23.2348 29.9832C22.6481 29.9374 22.0752 29.887 21.516 29.8311C21.3959 29.8192 21.2758 29.8063 21.1567 29.7944C21.1319 29.7917 21.1081 29.788 21.0833 29.7862V25.234C21.9853 25.3211 22.9038 25.3953 23.8333 25.4568V30.0254C23.7591 30.0199 23.6803 30.0162 23.606 30.0107ZM17.5496 29.326C17.1866 29.2683 16.8456 29.2059 16.5 29.1454V24.6501C17.3873 24.794 18.3049 24.9233 19.25 25.0369V29.5707C18.689 29.4965 18.1399 29.4195 17.6128 29.337C17.5918 29.3324 17.5707 29.3288 17.5496 29.326ZM14.6667 24.3219V28.7888C13.6538 28.5716 12.7353 28.3406 11.9167 28.1004V23.6885C12.7728 23.9195 13.6932 24.1313 14.6667 24.3219ZM10.0833 23.1284V27.4835C8.64233 26.9271 7.71283 26.3587 7.41033 25.8527L7.34892 25.7501C7.34342 25.7217 7.33425 25.6914 7.33333 25.663V21.8671C8.06575 22.3282 8.99342 22.7489 10.0833 23.1284ZM32.0687 25.6483C32.9918 25.6309 33.9148 25.6025 34.8333 25.5603V30.1327C33.6288 30.1923 32.4042 30.2253 31.1667 30.2381V25.6621C31.4188 25.6593 31.6708 25.6557 31.9229 25.6511C31.9715 25.6502 32.0201 25.6493 32.0687 25.6483ZM43.9148 29.1656C43.5123 29.2353 43.1063 29.304 42.6892 29.3672C42.4499 29.4039 42.2052 29.4388 41.9595 29.4736C41.7276 29.5066 41.4865 29.535 41.2509 29.5652V25.036C42.196 24.9223 43.1136 24.7931 44.0009 24.6492V29.15C43.9716 29.1555 43.9432 29.161 43.9148 29.1656ZM37.708 29.9484C37.3661 29.9768 37.0132 29.9952 36.6667 30.0199V25.4568C37.5962 25.3953 38.5147 25.322 39.4167 25.234V29.7816C38.8841 29.8375 38.3524 29.8934 37.8052 29.9392C37.7722 29.942 37.741 29.9457 37.708 29.9484ZM48.1837 28.2297C47.7272 28.3571 47.2441 28.4762 46.7509 28.5927C46.5227 28.6458 46.2898 28.699 46.0515 28.7503C45.9809 28.7659 45.9058 28.7797 45.8343 28.7952V24.3228C46.8078 24.1313 47.7281 23.9204 48.5843 23.6894V28.1178C48.4523 28.1545 48.3193 28.1921 48.1837 28.2297ZM53.1566 19.3096C53.0723 19.932 51.6615 20.7598 49.1434 21.538C45.9002 22.5399 40.8256 23.4575 34.3942 23.7417C34.0652 23.7554 33.737 23.7692 33.4015 23.7802C33.1274 23.7893 32.8524 23.7976 32.5728 23.8049C31.8138 23.8214 31.0438 23.8333 30.25 23.8333C29.4562 23.8333 28.6862 23.8214 27.9272 23.804C27.6485 23.7976 27.3735 23.7884 27.0985 23.7793C26.7621 23.7692 26.4339 23.7545 26.1058 23.7408C19.6744 23.4566 14.5988 22.539 11.3566 21.5371C8.85867 20.7653 7.45067 19.9439 7.34617 19.3242C7.35075 19.3068 7.35075 19.2922 7.36175 19.2702C7.42408 19.2857 7.49375 19.2986 7.557 19.3142C7.91542 19.3994 8.283 19.4819 8.657 19.5608C10.4784 19.9531 12.4969 20.2748 14.6474 20.5205C14.6548 20.5205 14.6603 20.5242 14.6667 20.5242C14.6685 20.5242 14.6703 20.5233 14.6712 20.5233C16.1361 20.6901 17.6559 20.8212 19.2161 20.9138C19.228 20.9138 19.2381 20.9202 19.25 20.9202C19.2564 20.9202 19.261 20.9165 19.2674 20.9165C20.3903 20.9825 21.5279 21.0311 22.6793 21.0568C23.3842 21.0742 24.0763 21.0833 24.75 21.0833C25.2313 21.0833 25.7244 21.0778 26.2222 21.0687C32.8827 20.966 39.0555 20.174 43.351 18.9466C43.549 18.8907 43.7424 18.8329 43.9331 18.7752C44.0495 18.7394 44.1687 18.7046 44.2814 18.6688C44.6133 18.5625 44.9313 18.4534 45.2384 18.3398C45.2916 18.3196 45.342 18.2994 45.3952 18.2793C45.6546 18.1812 45.9039 18.0794 46.1423 17.9758C46.211 17.9456 46.2816 17.9162 46.3485 17.886C46.6024 17.7714 46.8481 17.6541 47.0754 17.5322C47.1781 17.4781 47.267 17.4222 47.3633 17.3672C47.4733 17.3039 47.5833 17.2397 47.685 17.1747C47.7428 17.138 47.8115 17.1032 47.8665 17.0665C51.9704 17.9566 53.0521 18.9301 53.1566 19.3096ZM24.75 4.58333C39.8649 4.58333 47.5099 6.963 47.6529 8.32883C47.542 8.9485 46.1349 9.76708 43.6434 10.5371C40.4002 11.539 35.3256 12.4566 28.8943 12.7408C28.5652 12.7545 28.237 12.7683 27.9015 12.7793C27.6274 12.7884 27.3524 12.7967 27.0728 12.804C26.3138 12.8214 25.5438 12.8333 24.75 12.8333C23.9562 12.8333 23.1862 12.8214 22.4272 12.804C22.1485 12.7976 21.8735 12.7884 21.5985 12.7793C21.2621 12.7692 20.9339 12.7545 20.6058 12.7408C14.1744 12.4566 9.09883 11.539 5.85658 10.5371C3.36417 9.76708 1.958 8.9485 1.84708 8.32883C1.99008 6.963 9.63508 4.58333 24.75 4.58333ZM1.83333 14.663V10.8671C2.56575 11.3282 3.49342 11.7489 4.58333 12.1284V16.5174C2.80042 15.8492 1.83517 15.1791 1.83333 14.663ZM6.27367 27.3487C6.28742 27.3634 6.3085 27.3763 6.32225 27.3909C7.57717 28.6578 10.1759 29.6533 13.4108 30.3958C13.4851 30.4132 13.5639 30.4297 13.6391 30.4471C13.8765 30.5002 14.1176 30.5525 14.3614 30.6029C17.3323 31.2354 20.8789 31.6928 24.7427 31.9193C24.7454 31.9193 24.7473 31.9202 24.7491 31.9202C24.7509 31.9202 24.7518 31.9193 24.7528 31.9193C25.9939 31.9917 27.2635 32.0421 28.5597 32.0641C29.1335 32.076 29.6982 32.0833 30.25 32.0833C30.8825 32.0833 31.5315 32.076 32.1915 32.0604C33.3905 32.0357 34.5721 31.9862 35.7372 31.9183C35.7418 31.9183 35.7454 31.9211 35.75 31.9211C35.7583 31.9211 35.7647 31.9165 35.7729 31.9165C39.6468 31.6883 43.2813 31.2263 46.3549 30.5617C45.6894 30.91 44.7783 31.2702 43.6434 31.6213C40.2197 32.6792 34.7518 33.6426 27.8025 33.8663C27.5963 33.8727 27.3928 33.88 27.1838 33.8855C26.9592 33.891 26.7309 33.8947 26.5027 33.8993C25.9261 33.9084 25.3458 33.9167 24.75 33.9167C23.9562 33.9167 23.1862 33.9047 22.4272 33.8873C22.1485 33.8809 21.8735 33.8718 21.5985 33.8626C21.2621 33.8525 20.9339 33.8378 20.6058 33.8241C14.1744 33.5399 9.09883 32.6223 5.85658 31.6204C3.33575 30.8412 1.925 30.0126 1.84342 29.3902C1.94517 29.0455 2.87192 28.1829 6.27367 27.3487ZM1.83333 35.7463V31.9504C2.56575 32.4115 3.49342 32.8323 4.58333 33.2118V37.5833L4.05992 37.3798L4.04892 37.3908C2.60975 36.7941 1.83517 36.2083 1.83333 35.7463ZM4.58333 45.8297V42.0337C5.31575 42.4948 6.24342 42.9156 7.33333 43.2951V47.6841C5.55042 47.0158 4.58517 46.3457 4.58333 45.8297ZM47.6667 47.6841V43.296C48.7566 42.9165 49.6842 42.4958 50.4167 42.0347V45.8278C50.4158 46.3439 49.4496 47.0149 47.6667 47.6841ZM50.4048 39.4873C50.3048 40.1078 48.8968 40.931 46.3934 41.7047C43.1502 42.7066 38.0756 43.6242 31.6443 43.9083C31.3152 43.9221 30.987 43.9358 30.6515 43.9468C30.3774 43.956 30.1024 43.9643 29.8228 43.9716C29.0638 43.9881 28.2938 44 27.5 44C26.7062 44 25.9353 43.9881 25.1753 43.9707C24.8994 43.9642 24.6272 43.9551 24.3549 43.9459C24.0167 43.9349 23.6867 43.9212 23.3558 43.9074C16.9244 43.6232 11.8498 42.7057 8.60658 41.7038C6.182 40.9548 4.78133 40.1592 4.60533 39.545C4.8785 39.6403 5.16175 39.7329 5.45233 39.8237C5.48167 39.8328 5.511 39.842 5.54033 39.8503C5.78783 39.9263 6.04083 39.9997 6.30025 40.0712C6.39833 40.0987 6.49733 40.1262 6.59725 40.1528C6.74392 40.1922 6.89425 40.2298 7.04458 40.2683C10.3831 41.1235 14.6447 41.7294 19.2454 42.0017C19.2473 42.0017 19.2482 42.0026 19.25 42.0026C19.2509 42.0026 19.2518 42.0017 19.2528 42.0017C20.6736 42.086 22.1247 42.1382 23.5913 42.1557C23.9818 42.163 24.3696 42.1667 24.75 42.1667C25.2551 42.1667 25.7721 42.1603 26.2955 42.1511C27.6329 42.1291 28.9529 42.0796 30.2436 42.0026C30.2463 42.0026 30.2482 42.0044 30.2509 42.0044C30.2555 42.0044 30.2583 42.0017 30.2628 42.0017C31.8349 41.9072 33.3566 41.7725 34.8187 41.6048C34.8242 41.6048 34.8288 41.6075 34.8343 41.6075C34.8544 41.6075 34.8709 41.5974 34.8911 41.5956C36.5191 41.4077 38.0627 41.1767 39.4955 40.9081C39.7907 40.854 40.0813 40.7981 40.3691 40.7403C40.4333 40.7275 40.4974 40.7147 40.5616 40.7009C43.2685 40.1454 45.6115 39.4258 47.2193 38.5339C47.3073 38.4862 47.3898 38.4367 47.4733 38.3882C47.575 38.3277 47.6722 38.2663 47.7666 38.2039C47.8546 38.1471 47.9563 38.0921 48.037 38.0343C49.8465 38.6797 50.3452 39.2572 50.4048 39.4873ZM50.4167 27.5174V23.1293C51.5066 22.7498 52.4342 22.3291 53.1667 21.868V25.6612C53.1658 26.1772 52.1996 26.8482 50.4167 27.5174Z" fill="black"/>
</svg>
