<svg version="1.0" xmlns="http://www.w3.org/2000/svg"
 width="72.000000pt" height="72.000000pt" viewBox="0 0 72.000000 72.000000"
 preserveAspectRatio="xMidYMid meet">
<metadata>
Created by potrace 1.10, written by Peter Selinger 2001-2011
</metadata>
<g transform="translate(0.000000,72.000000) scale(0.100000,-0.100000)"
fill="#000000" stroke="none">
<path d="M611 633 c1 -33 4 -45 6 -28 3 17 9 35 15 40 7 7 9 -1 5 -25 -3 -19
-18 -134 -32 -255 -26 -216 -43 -302 -44 -223 -1 20 -5 39 -9 42 -4 2 -9 19
-10 38 -2 18 -6 36 -11 41 -5 5 -7 -2 -5 -15 10 -68 14 -92 19 -112 6 -20 5
-20 -13 3 -14 18 -21 21 -27 11 -6 -9 -4 -11 5 -5 8 5 11 3 8 -5 -8 -26 -27
-21 -31 7 l-4 28 -2 -26 c-1 -24 -31 -52 -31 -30 0 5 -13 121 -30 257 -16 137
-30 255 -30 262 0 6 -7 12 -15 12 -8 0 -15 7 -15 15 0 19 -16 19 -68 1 -22 -8
-49 -12 -59 -10 -24 6 -202 -21 -214 -33 -11 -11 73 -569 88 -584 12 -12 117
1 198 24 22 6 61 9 87 8 36 -2 49 1 54 13 7 19 94 23 94 5 0 -16 70 -2 93 18
9 9 17 26 17 37 0 12 14 126 31 255 l31 235 -33 28 c-55 45 -69 39 -68 -29z
m-318 0 c-15 -5 -17 -33 -3 -33 5 0 12 11 16 24 4 17 11 22 25 19 29 -8 40
-37 42 -104 1 -32 6 -59 11 -59 4 0 5 -7 2 -16 -3 -9 5 -88 19 -176 14 -88 25
-165 25 -172 0 -18 -33 -16 -48 3 -12 14 -13 13 -9 -6 6 -27 -5 -30 -24 -6 -8
9 -9 14 -3 10 7 -4 14 5 18 23 8 45 8 44 -4 48 -8 3 -10 -3 -5 -17 5 -15 3
-19 -8 -16 -9 4 -12 16 -9 35 3 18 0 30 -7 30 -6 0 -11 8 -11 18 0 15 2 15 11
2 8 -12 9 -9 4 10 -6 24 -45 247 -45 263 0 4 -4 7 -10 7 -13 0 -13 -37 0 -45
6 -4 8 -10 5 -15 -3 -5 2 -51 11 -102 9 -51 18 -106 20 -123 8 -59 11 -70 18
-86 7 -15 -10 -76 -19 -67 -6 6 -85 512 -85 542 0 20 1 20 19 -3 12 -16 17
-35 14 -55 -4 -29 -4 -30 10 -11 11 14 12 25 4 42 -7 16 -6 27 3 38 7 8 16 13
19 9 3 -4 0 -9 -6 -11z m398 -6 c8 -17 6 -39 -5 -84 -9 -34 -16 -80 -16 -104
l-1 -44 -15 29 c-12 22 -14 45 -9 100 11 128 23 154 46 103z m-486 -6 c8 -14
-12 -23 -51 -23 -19 0 -34 -5 -34 -10 0 -6 17 -8 45 -4 29 5 45 4 45 -3 0 -11
-24 -15 -67 -12 -11 1 -24 -3 -29 -10 -5 -9 7 -10 52 -5 43 5 56 4 48 -4 -6
-6 -31 -13 -55 -15 -24 -2 -57 -8 -74 -14 -26 -9 -23 -10 20 -5 28 3 64 7 81
10 26 4 33 1 37 -16 6 -24 -27 -42 -61 -33 -11 2 -23 -1 -27 -8 -6 -9 4 -11
43 -6 31 4 52 2 52 -3 0 -9 -29 -15 -52 -11 -4 0 -31 -6 -60 -13 -62 -17 -48
-19 41 -6 65 9 107 2 61 -11 -24 -7 -24 -7 -2 -8 12 -1 22 -5 22 -11 0 -10
-26 -14 -62 -11 -9 1 -20 -3 -24 -10 -5 -9 4 -11 39 -6 27 4 47 3 47 -3 0 -13
-37 -22 -60 -15 -12 4 -20 2 -20 -6 0 -8 13 -10 45 -6 25 4 45 3 45 -2 0 -12
-36 -20 -66 -15 -14 3 -24 0 -24 -7 0 -8 15 -10 44 -7 39 5 45 3 50 -15 7 -28
2 -32 -45 -31 -21 1 -39 -3 -39 -9 0 -6 18 -8 45 -5 25 3 45 2 45 -3 0 -10
-41 -22 -63 -17 -9 2 -16 -1 -15 -7 0 -5 3 -9 7 -9 80 16 81 16 81 -10 0 -26
-29 -42 -61 -34 -8 2 -14 -1 -14 -7 0 -5 2 -9 5 -9 39 10 80 13 80 6 0 -13
-25 -22 -61 -22 -16 0 -29 -5 -29 -10 0 -9 20 -8 73 7 21 6 23 -13 1 -21 -9
-3 -29 -6 -45 -6 -17 0 -28 -4 -25 -9 4 -5 22 -5 43 -1 38 9 61 4 46 -10 -10
-10 -151 -32 -161 -26 -4 2 -9 19 -10 38 -1 18 -14 98 -27 178 -28 166 -34
205 -41 276 l-6 51 74 10 c40 6 76 11 80 12 4 0 9 -3 13 -8z"/>
<path d="M341 540 c-1 -27 32 -246 48 -320 l10 -45 -5 55 c-7 80 -52 339 -53
310z"/>
<path d="M125 279 c-20 -5 -9 -6 30 -2 33 3 62 7 64 9 8 7 -63 2 -94 -7z"/>
<path d="M145 190 c-42 -11 -1 -11 50 -1 34 7 35 9 10 9 -16 0 -43 -4 -60 -8z"/>
<path d="M449 655 c-3 -2 -1 -57 4 -122 5 -65 6 -172 4 -238 -3 -66 -1 -109 3
-95 11 34 12 448 1 454 -4 3 -10 4 -12 1z"/>
<path d="M500 530 c2 -180 -3 -187 -10 -15 l-6 140 -1 -195 c-1 -107 2 -211 6
-230 6 -28 8 -19 9 44 1 43 4 81 7 84 3 3 5 -14 5 -38 0 -26 4 -40 9 -35 5 6
5 42 -1 85 -4 41 -7 121 -6 177 2 56 -1 105 -5 110 -5 4 -8 -53 -7 -127z"/>
<path d="M404 633 c3 -10 12 -90 21 -178 9 -88 18 -167 20 -175 5 -17 -8 313
-14 360 0 6 -8 10 -17 10 -10 0 -14 -6 -10 -17z"/>
<path d="M595 575 c3 -60 1 -71 -5 -45 -7 28 -8 22 -5 -30 3 -48 1 -58 -5 -40
-7 18 -8 7 -5 -39 6 -76 -3 -75 -16 1 -7 48 -8 46 -3 -21 2 -41 7 -86 10 -100
4 -19 3 -22 -5 -11 -5 8 -14 60 -20 115 -18 169 -19 173 -15 65 3 -89 27 -266
37 -276 1 -2 12 79 24 179 16 133 20 196 13 232 -8 45 -8 41 -5 -30z"/>
</g>
</svg>
