<?xml version="1.0" standalone="no"?>
<!DOCTYPE svg PUBLIC "-//W3C//DTD SVG 20010904//EN"
 "http://www.w3.org/TR/2001/REC-SVG-20010904/DTD/svg10.dtd">
<svg version="1.0" xmlns="http://www.w3.org/2000/svg"
 width="72.000000pt" height="72.000000pt" viewBox="0 0 72.000000 72.000000"
 preserveAspectRatio="xMidYMid meet">
<metadata>
Created by potrace 1.10, written by Peter Selinger 2001-2011
</metadata>
<g transform="translate(0.000000,72.000000) scale(0.100000,-0.100000)"
fill="#000000" stroke="none">
<path d="M58 704 c-4 -3 -4 -12 -1 -20 4 -10 0 -12 -13 -7 -12 4 -15 3 -10 -5
4 -7 2 -12 -4 -12 -11 0 73 -112 109 -144 12 -11 21 -24 21 -30 0 -6 106 -117
235 -246 129 -129 235 -230 235 -224 0 6 -3 14 -7 18 -5 4 -8 12 -8 17 0 5 -3
8 -6 7 -9 -4 -49 33 -49 44 0 21 31 4 58 -32 24 -32 32 -38 41 -27 8 11 -45
69 -257 281 -148 147 -285 278 -305 292 -20 13 -37 30 -37 36 0 6 10 2 23 -10
13 -12 29 -22 35 -22 6 0 30 -20 53 -45 23 -25 43 -44 45 -42 5 4 424 -414
424 -423 0 -8 44 -40 55 -40 23 0 -25 55 -223 253 -125 125 -232 227 -237 227
-5 0 -46 36 -90 80 -45 44 -84 78 -87 74z m87 -154 c21 -25 42 -44 46 -42 5 1
9 -5 9 -13 0 -7 7 -18 15 -22 9 -5 11 -13 6 -21 -6 -10 -25 8 -69 61 -33 41
-58 78 -55 81 4 3 7 5 9 4 1 -2 19 -23 39 -48z m132 -137 c16 -16 28 -34 25
-41 -3 -10 -15 -4 -38 19 -18 18 -31 36 -28 41 7 12 9 11 41 -19z m82 -84 c17
-17 28 -35 25 -41 -4 -5 -21 4 -40 23 -18 18 -31 36 -28 41 8 12 10 11 43 -23z
m105 -121 c-4 -5 -21 5 -40 23 -21 20 -30 35 -23 39 13 9 71 -48 63 -62z m85
-82 c-6 -6 -23 3 -44 24 -23 22 -31 36 -24 41 15 9 79 -53 68 -65z"/>
</g>
</svg>
