<?xml version="1.0" standalone="no"?>
<!DOCTYPE svg PUBLIC "-//W3C//DTD SVG 20010904//EN"
 "http://www.w3.org/TR/2001/REC-SVG-20010904/DTD/svg10.dtd">
<svg version="1.0" xmlns="http://www.w3.org/2000/svg"
 width="72.000000pt" height="72.000000pt" viewBox="0 0 72.000000 72.000000"
 preserveAspectRatio="xMidYMid meet">
<metadata>
Created by potrace 1.10, written by Peter Selinger 2001-2011
</metadata>
<g transform="translate(0.000000,72.000000) scale(0.100000,-0.100000)"
fill="#000000" stroke="none">
<path d="M37 683 c-13 -13 -7 -30 23 -59 30 -29 116 -128 237 -274 35 -41 72
-84 82 -96 11 -11 25 -33 31 -48 5 -15 14 -24 20 -21 5 3 10 1 10 -6 0 -6 23
-34 50 -62 31 -31 50 -59 50 -73 0 -17 4 -22 15 -18 27 11 16 32 -53 111 -37
43 -77 90 -87 104 -11 14 -26 24 -34 21 -9 -3 -11 0 -6 8 4 7 4 15 -1 19 -5 3
-22 22 -39 40 -21 24 -25 32 -12 28 10 -4 16 -3 13 2 -7 11 19 33 28 24 4 -4
4 1 0 12 -5 14 6 7 34 -19 25 -23 45 -35 52 -31 8 5 11 3 8 -6 -3 -8 7 -23 21
-34 14 -10 61 -50 104 -87 79 -69 100 -80 111 -53 4 11 -1 15 -18 15 -14 0
-42 19 -73 50 -28 28 -56 50 -62 50 -7 0 -9 5 -6 10 3 6 -6 15 -21 20 -15 6
-37 20 -48 31 -12 10 -55 47 -96 82 -146 121 -245 207 -274 237 -29 30 -46 36
-59 23z m57 -36 c4 5 6 1 4 -7 -2 -9 3 -14 12 -12 8 2 12 0 7 -4 -4 -4 1 -17
10 -28 18 -21 18 -21 -3 -3 -11 9 -24 14 -28 10 -4 -5 -6 -1 -4 7 2 9 -3 14
-12 12 -8 -2 -12 0 -7 4 4 4 -3 19 -15 33 l-23 26 26 -23 c14 -12 29 -19 33
-15z m126 -119 c-7 -9 31 -48 47 -48 7 0 13 -5 13 -12 0 -6 3 -8 7 -5 3 4 15
0 25 -9 14 -13 15 -20 7 -31 -9 -11 -9 -12 4 -8 22 9 32 -14 14 -32 -18 -18
-41 -8 -32 14 4 13 3 13 -8 4 -11 -8 -18 -7 -31 7 -9 10 -13 22 -9 25 3 4 1 7
-5 7 -7 0 -12 6 -12 13 0 16 -34 50 -42 41 -3 -3 -9 0 -14 7 -5 9 -1 10 15 6
22 -5 22 -5 6 13 -16 17 -16 18 2 16 10 -2 16 -5 13 -8z"/>
<path d="M254 458 c21 -26 42 -45 47 -42 13 8 13 8 -38 50 l-48 39 39 -47z"/>
<path d="M349 376 c-10 -11 -1 -40 17 -57 35 -33 42 -14 8 24 l-29 32 32 -29
c38 -34 57 -28 25 7 -17 18 -46 31 -53 23z"/>
<path d="M413 307 l-21 -22 90 -97 c49 -53 93 -109 96 -123 7 -25 7 -25 57 25
43 44 46 50 27 50 -14 0 -60 34 -125 94 l-103 94 -21 -21z m115 -100 c51 -51
89 -96 85 -100 -7 -8 -193 171 -193 185 0 19 21 2 108 -85z"/>
</g>
</svg>
