<?xml version="1.0" standalone="no"?>
<!DOCTYPE svg PUBLIC "-//W3C//DTD SVG 20010904//EN"
 "http://www.w3.org/TR/2001/REC-SVG-20010904/DTD/svg10.dtd">
<svg version="1.0" xmlns="http://www.w3.org/2000/svg"
 width="72.000000pt" height="72.000000pt" viewBox="0 0 72.000000 72.000000"
 preserveAspectRatio="xMidYMid meet">
<metadata>
Created by potrace 1.10, written by Peter Selinger 2001-2011
</metadata>
<g transform="translate(0.000000,72.000000) scale(0.100000,-0.100000)"
fill="#000000" stroke="none">
<path d="M186 674 c-3 -22 -15 -144 -27 -272 -18 -190 -20 -244 -11 -299 17
-101 14 -99 189 -78 81 10 158 22 169 26 12 4 32 28 44 54 25 51 29 114 15
233 -8 70 -11 77 -102 209 -51 76 -101 141 -109 146 -8 5 -48 11 -88 14 l-74
6 -6 -39z m107 16 c35 0 51 -14 25 -23 -7 -2 -5 -3 4 -2 9 2 19 0 21 -4 2 -3
2 0 0 7 -1 8 3 12 9 9 7 -2 12 -15 11 -28 -1 -13 1 -18 3 -11 8 18 24 4 17
-15 -4 -10 -2 -14 4 -10 15 10 35 -17 27 -37 -4 -12 -2 -15 9 -11 11 5 13 0
10 -19 -3 -14 -13 -27 -22 -29 -11 -3 -9 -5 7 -6 16 -1 22 5 22 20 0 11 4 18
10 14 5 -3 6 -13 3 -22 -4 -11 -3 -14 5 -9 8 5 10 2 6 -8 -4 -10 -1 -16 10
-16 10 0 13 -6 10 -15 -5 -11 -2 -13 10 -9 12 5 15 2 9 -12 -5 -13 -3 -15 7
-9 10 6 12 1 6 -26 -6 -32 -6 -32 10 -14 12 16 15 16 10 3 -3 -9 0 -18 5 -20
7 -2 11 -52 12 -125 3 -163 4 -161 -175 -185 -176 -23 -195 -23 -208 3 -8 15
-8 24 0 34 7 9 8 15 0 20 -5 3 -10 40 -10 82 0 94 8 92 13 -2 l3 -70 75 -6
c41 -3 121 -3 179 0 l105 6 3 116 3 116 -43 -4 c-24 -2 -51 -5 -60 -7 -10 -2
-22 2 -29 10 -13 16 -70 19 -85 5 -5 -6 -40 -12 -79 -14 -49 -2 -34 -4 48 -5
l117 -2 1 -27 1 -28 10 28 c9 25 14 28 52 25 40 -3 41 -4 44 -40 3 -34 1 -38
-20 -38 -13 0 -38 4 -55 9 -24 7 -35 6 -40 -2 -10 -16 -64 -40 -72 -32 -3 3 1
10 9 15 13 9 13 10 0 11 -8 0 3 10 25 20 22 11 29 17 15 14 -14 -4 -31 -7 -37
-7 -7 -1 -14 -5 -14 -10 -1 -4 -2 -11 -3 -15 -2 -5 -6 -34 -10 -65 l-8 -58
-58 0 c-52 0 -58 2 -53 19 3 10 14 24 26 30 20 10 19 11 -10 8 l-33 -4 -1 76
c-1 42 -1 78 -1 81 -1 3 2 18 6 33 5 20 3 27 -5 22 -7 -5 -9 -1 -5 11 3 11 10
71 17 134 6 63 13 119 16 123 3 5 15 6 27 3 11 -3 38 -6 59 -6z m225 -472 l-3
-53 -62 -3 -61 -3 10 36 c11 34 13 35 62 37 l51 2 -52 3 c-38 3 -53 8 -53 19
0 10 14 14 56 14 l55 0 -3 -52z m-118 32 c0 -5 -8 -10 -17 -11 -11 0 -13 -3
-5 -6 23 -9 13 -40 -18 -53 -32 -13 -55 -5 -30 10 9 6 10 10 3 10 -6 0 -9 8
-6 19 7 28 73 56 73 31z m95 -179 c-10 -10 -286 -52 -294 -45 -12 11 22 20
137 35 157 21 169 22 157 10z"/>
<path d="M227 503 c-11 -10 -8 -53 3 -53 6 0 10 14 10 30 0 31 -2 35 -13 23z"/>
<path d="M255 255 l-50 -24 53 -1 c49 0 52 1 52 25 0 14 -1 25 -2 24 -2 0 -25
-11 -53 -24z"/>
<path d="M420 124 c-8 -1 -63 -6 -122 -9 -87 -6 -108 -10 -108 -22 0 -12 8
-14 33 -10 17 3 75 9 127 14 52 4 98 8 103 9 4 1 21 2 38 3 17 0 28 5 24 11
-6 9 -61 12 -95 4z"/>
</g>
</svg>
