<?xml version="1.0" standalone="no"?>
<!DOCTYPE svg PUBLIC "-//W3C//DTD SVG 20010904//EN"
 "http://www.w3.org/TR/2001/REC-SVG-20010904/DTD/svg10.dtd">
<svg version="1.0" xmlns="http://www.w3.org/2000/svg"
 width="72.000000pt" height="72.000000pt" viewBox="0 0 72.000000 72.000000"
 preserveAspectRatio="xMidYMid meet">
<metadata>
Created by potrace 1.10, written by Peter Selinger 2001-2011
</metadata>
<g transform="translate(0.000000,72.000000) scale(0.100000,-0.100000)"
fill="#000000" stroke="none">
<path d="M296 698 c-53 -14 -118 -80 -135 -137 -7 -25 -17 -90 -22 -145 -13
-137 -50 -273 -79 -291 -44 -27 38 -72 169 -92 89 -14 141 -13 303 2 41 4 122
37 133 55 4 6 -4 33 -18 58 -34 63 -44 105 -62 256 -22 193 -65 266 -170 295
-47 13 -66 13 -119 -1z m141 -27 c47 -22 63 -45 63 -91 0 -25 4 -31 15 -26 8
3 15 1 15 -4 0 -6 -7 -10 -16 -10 -8 0 -30 -11 -49 -25 -60 -46 -149 -45 -205
2 -31 26 -53 25 -31 -1 50 -60 221 -61 270 -2 22 26 28 4 19 -76 -6 -58 -12
-76 -30 -91 -23 -18 -23 -18 8 -3 34 16 43 45 45 141 1 45 2 47 9 21 5 -16 14
-78 19 -137 6 -59 20 -134 31 -166 31 -85 31 -85 -25 -106 -105 -40 -275 -41
-405 -3 -84 25 -84 25 -62 82 11 27 23 68 27 91 4 24 11 43 16 43 5 0 9 -4 9
-10 0 -30 122 -52 175 -31 12 5 -7 7 -45 4 -62 -5 -66 -4 -103 28 -38 34 -38
34 -28 79 6 25 11 59 11 75 0 17 5 47 11 68 8 29 15 38 28 34 13 -3 17 3 17
29 0 40 18 62 69 85 51 24 89 23 142 0z m-52 -624 c104 0 107 -1 45 -9 -63 -8
-226 4 -239 18 -3 3 14 3 39 -2 25 -4 95 -7 155 -7z"/>
<path d="M323 563 c26 -2 68 -2 95 0 26 2 4 3 -48 3 -52 0 -74 -1 -47 -3z"/>
<path d="M500 310 c-21 -39 -50 -132 -50 -161 0 -18 -9 -35 -27 -49 l-28 -21
25 7 c47 12 51 19 54 80 2 33 13 81 25 108 22 49 23 76 1 36z"/>
</g>
</svg>
