<?xml version="1.0" standalone="no"?>
<!DOCTYPE svg PUBLIC "-//W3C//DTD SVG 20010904//EN"
 "http://www.w3.org/TR/2001/REC-SVG-20010904/DTD/svg10.dtd">
<svg version="1.0" xmlns="http://www.w3.org/2000/svg"
 width="72.000000pt" height="72.000000pt" viewBox="0 0 72.000000 72.000000"
 preserveAspectRatio="xMidYMid meet">
<metadata>
Created by potrace 1.10, written by Peter Selinger 2001-2011
</metadata>
<g transform="translate(0.000000,72.000000) scale(0.100000,-0.100000)"
fill="#000000" stroke="none">
<path d="M43 674 c-27 -29 -22 -47 25 -79 49 -33 386 -388 429 -452 27 -39 34
-60 31 -83 -9 -61 47 -46 118 32 49 54 56 66 49 87 -5 16 -12 19 -38 15 -49
-8 -95 29 -351 281 -126 124 -231 225 -235 224 -3 -1 -16 -12 -28 -25z m57
-39 c9 -11 10 -19 2 -27 -12 -12 -28 -4 -42 23 -9 16 -7 19 8 19 11 0 25 -7
32 -15z m247 -217 c112 -112 218 -210 236 -220 17 -9 47 -17 65 -18 l34 0 -31
-39 -31 -39 -109 104 c-63 61 -108 112 -107 122 0 10 -5 16 -13 14 -19 -4 -51
27 -44 44 3 9 -2 14 -13 14 -26 1 -58 26 -44 35 14 9 1 28 -15 21 -16 -6 -47
26 -43 45 2 8 -5 14 -14 14 -22 0 -43 21 -43 43 0 10 -7 16 -16 14 -20 -3 -43
23 -34 38 3 5 9 10 13 10 3 0 97 -91 209 -202z m230 -316 c11 -44 -12 -42 -28
2 -15 43 -15 44 3 33 10 -7 21 -22 25 -35z"/>
</g>
</svg>
