<?xml version="1.0" standalone="no"?>
<!DOCTYPE svg PUBLIC "-//W3C//DTD SVG 20010904//EN"
 "http://www.w3.org/TR/2001/REC-SVG-20010904/DTD/svg10.dtd">
<svg version="1.0" xmlns="http://www.w3.org/2000/svg"
 width="72.000000pt" height="72.000000pt" viewBox="0 0 72.000000 72.000000"
 preserveAspectRatio="xMidYMid meet">
<metadata>
Created by potrace 1.10, written by Peter Selinger 2001-2011
</metadata>
<g transform="translate(0.000000,72.000000) scale(0.100000,-0.100000)"
fill="#000000" stroke="none">
<path d="M140 680 c-12 -16 -28 -30 -36 -30 -8 0 -14 -5 -14 -11 0 -5 -4 -7
-10 -4 -5 3 -10 -1 -10 -9 0 -9 -14 -28 -30 -43 -30 -26 -38 -43 -21 -43 11 0
161 150 161 161 0 18 -19 8 -40 -21z"/>
<path d="M151 649 c-27 -29 -29 -35 -16 -49 20 -22 7 -35 -15 -15 -14 13 -20
11 -49 -16 -18 -16 -31 -33 -27 -36 3 -4 19 6 35 21 16 16 34 26 39 22 27 -17
95 -121 117 -182 42 -113 47 -124 55 -119 11 7 22 -24 13 -37 -4 -7 -1 -8 7
-3 10 6 12 4 7 -9 -4 -10 -3 -15 3 -11 5 3 14 -3 19 -14 16 -29 13 -38 -5 -15
-14 18 -15 18 -4 -3 6 -13 16 -22 22 -20 6 1 13 -4 16 -12 3 -9 0 -11 -8 -6
-9 6 -11 4 -6 -4 5 -7 11 -10 14 -7 7 7 32 -13 32 -26 0 -6 -8 -5 -17 2 -10 7
3 -8 28 -33 29 -29 61 -50 88 -57 146 -39 256 104 186 240 -35 68 -188 165
-354 224 -69 25 -151 75 -181 111 -11 13 -9 20 15 45 16 17 26 33 22 36 -3 4
-20 -9 -36 -27z m119 -164 c58 -47 76 -55 66 -29 -8 21 16 13 130 -41 99 -48
189 -121 210 -172 8 -18 14 -49 14 -70 0 -42 -34 -108 -51 -97 -7 4 0 17 17
35 23 24 25 31 14 44 -12 14 -18 11 -60 -30 -25 -25 -50 -42 -54 -38 -4 5 -6
1 -4 -7 3 -16 -33 -26 -59 -16 -22 9 4 39 28 33 11 -3 30 8 50 29 18 19 38 34
45 34 6 0 9 10 7 23 -3 13 -11 24 -18 24 -8 0 -13 -5 -12 -11 1 -6 -4 -10 -12
-8 -11 2 -12 0 -3 -11 15 -18 3 -30 -15 -16 -8 8 -13 8 -13 1 0 -6 5 -12 11
-14 7 -2 5 -9 -5 -18 -10 -7 -16 -9 -14 -4 2 5 -1 9 -7 9 -5 0 -9 -4 -7 -8 1
-5 -1 -6 -6 -3 -5 3 -20 -6 -32 -19 -13 -14 -28 -25 -34 -25 -5 0 3 13 18 29
l28 30 -37 46 c-23 28 -42 42 -47 37 -6 -6 1 -20 16 -35 26 -26 34 -61 16 -72
-5 -3 -22 12 -37 33 -17 23 -34 37 -43 34 -8 -3 -2 9 14 27 27 28 28 32 15 48
-9 10 -51 60 -95 111 -43 51 -79 96 -79 100 0 4 -3 12 -6 17 -12 21 -18 45
-11 45 4 0 32 -20 62 -45z m95 -215 c26 -27 27 -32 14 -45 -13 -14 -17 -10
-37 30 -25 52 -18 57 23 15z m252 -177 c-25 -26 -50 -44 -54 -39 -4 4 14 28
40 53 63 59 75 46 14 -14z"/>
<path d="M226 490 c5 -8 9 -18 9 -21 0 -7 275 -319 281 -319 13 0 -1 25 -32
60 -22 24 -30 38 -19 34 13 -5 16 -4 11 5 -4 6 -16 9 -27 6 -11 -4 -19 -2 -19
4 0 6 5 11 11 11 7 0 -30 43 -81 95 -51 52 -98 93 -103 92 -6 -1 -11 3 -12 10
0 7 -6 18 -14 25 -12 11 -12 10 -5 -2z m146 -152 c33 -38 58 -68 55 -68 -3 0
-42 42 -88 93 -46 50 -71 81 -55 67 15 -14 55 -55 88 -92z"/>
<path d="M407 340 l53 -54 35 34 c19 19 35 38 35 43 0 6 -16 -7 -36 -27 l-37
-38 -51 49 -51 48 52 -55z"/>
<path d="M514 275 c15 -14 26 -29 22 -32 -3 -4 -16 3 -29 15 -44 41 -41 22 3
-24 44 -45 38 -52 -7 -11 -32 29 -29 9 4 -25 25 -26 28 -27 45 -11 17 15 17
17 2 35 -18 19 -6 26 13 7 12 -12 33 -4 33 12 0 6 -5 7 -11 3 -6 -3 -32 8 -57
26 -39 26 -42 27 -18 5z"/>
</g>
</svg>
