<?xml version="1.0" standalone="no"?>
<!DOCTYPE svg PUBLIC "-//W3C//DTD SVG 20010904//EN"
 "http://www.w3.org/TR/2001/REC-SVG-20010904/DTD/svg10.dtd">
<svg version="1.0" xmlns="http://www.w3.org/2000/svg"
 width="72.000000pt" height="72.000000pt" viewBox="0 0 72.000000 72.000000"
 preserveAspectRatio="xMidYMid meet">
<metadata>
Created by potrace 1.10, written by Peter Selinger 2001-2011
</metadata>
<g transform="translate(0.000000,72.000000) scale(0.100000,-0.100000)"
fill="#000000" stroke="none">
<path d="M174 685 c-25 -6 -39 -15 -37 -22 3 -8 -4 -13 -15 -13 -11 0 -25 -7
-32 -15 -14 -17 -6 -46 12 -43 8 2 14 -9 16 -27 5 -41 17 -53 47 -47 20 3 25
0 25 -16 0 -11 -7 -23 -16 -26 -18 -7 -74 32 -74 51 0 8 -4 11 -10 8 -18 -11
-10 -89 14 -140 29 -64 117 -159 221 -240 134 -104 222 -144 286 -130 27 6 29
10 29 53 0 87 -93 237 -235 378 -89 88 -166 129 -229 122 -39 -5 -46 -2 -57
19 -11 20 -11 26 1 33 10 6 20 5 28 -4 12 -11 19 -11 44 1 17 9 26 18 22 22
-5 3 -13 11 -18 16 -6 6 -7 4 -3 -7 4 -11 -1 -18 -16 -22 -31 -8 -34 1 -8 25
15 15 31 20 52 17 16 -3 29 -1 29 3 0 13 -35 15 -76 4z m203 -219 c64 -60 126
-133 167 -198 17 -26 16 -27 -15 -63 l-32 -36 64 -65 c59 -59 61 -64 37 -64
-34 0 -107 26 -130 46 -15 14 -15 18 -3 31 25 25 16 38 -9 14 -24 -23 -25 -23
-56 -5 l-31 19 33 27 c18 14 30 30 26 33 -4 4 -22 -5 -40 -20 -21 -18 -34 -23
-36 -15 -3 7 2 16 9 21 12 7 12 9 0 9 -9 0 -12 8 -9 24 4 18 1 22 -13 19 -22
-6 -36 16 -18 28 11 7 9 9 -7 9 -14 0 -24 -8 -27 -21 -7 -27 -30 -15 -81 41
-30 34 -35 44 -26 60 6 11 15 20 20 20 6 0 10 5 10 12 0 6 -12 0 -28 -15 -26
-25 -28 -26 -39 -8 -10 16 -8 24 9 46 l21 27 -22 -13 c-20 -12 -24 -12 -37 5
-8 11 -14 28 -14 39 0 18 1 18 25 3 36 -24 63 -20 102 14 28 25 38 29 49 19
13 -10 18 -6 15 14 -3 18 22 2 86 -57z"/>
<path d="M295 490 c-19 -21 -41 -28 -30 -10 3 6 -2 10 -11 10 -14 0 -15 -3 -6
-12 9 -9 8 -16 -5 -30 -16 -18 -13 -23 80 -116 l98 -96 21 22 22 22 -21 0
c-24 0 -39 15 -24 25 6 3 8 12 4 20 -3 10 1 15 12 15 11 0 15 -5 12 -14 -7
-17 26 -31 44 -20 19 11 -6 -28 -35 -55 -14 -13 -23 -28 -20 -33 4 -6 24 7 45
28 46 45 52 39 9 -9 -24 -28 -27 -37 -16 -46 10 -8 17 -6 30 8 9 10 16 22 15
27 -4 21 2 35 11 29 6 -4 7 -11 4 -17 -4 -7 -2 -8 4 -4 15 9 -26 77 -50 84
-10 2 -17 10 -16 17 4 16 -70 104 -120 144 -39 30 -39 30 -57 11z m40 -36 c20
-20 25 -33 21 -50 -4 -14 -2 -33 4 -44 16 -30 -6 -34 -27 -4 -10 14 -27 36
-38 47 -24 26 -25 48 -5 64 19 16 15 17 45 -13z m75 -65 c0 -10 -4 -20 -9 -23
-15 -9 -41 5 -41 21 0 13 3 13 15 3 19 -16 34 -5 17 12 -17 17 -15 33 3 18 8
-7 15 -21 15 -31z m-4 -60 c10 -17 -13 -36 -27 -22 -12 12 -4 33 11 33 5 0 12
-5 16 -11z"/>
<path d="M240 286 c0 -13 29 -31 37 -23 2 2 1 12 -3 21 -8 20 -34 21 -34 2z"/>
<path d="M320 680 c0 -5 7 -10 15 -10 8 0 15 -4 15 -10 0 -5 -7 -10 -15 -10
-8 0 -15 -8 -15 -17 0 -13 3 -14 12 -5 20 20 53 14 88 -18 34 -31 50 -37 50
-21 0 13 -68 71 -84 71 -8 0 -19 7 -26 15 -14 17 -40 20 -40 5z"/>
</g>
</svg>
