<?xml version="1.0" standalone="no"?>
<!DOCTYPE svg PUBLIC "-//W3C//DTD SVG 20010904//EN"
 "http://www.w3.org/TR/2001/REC-SVG-20010904/DTD/svg10.dtd">
<svg version="1.0" xmlns="http://www.w3.org/2000/svg"
 width="72.000000pt" height="72.000000pt" viewBox="0 0 72.000000 72.000000"
 preserveAspectRatio="xMidYMid meet">
<metadata>
Created by potrace 1.10, written by Peter Selinger 2001-2011
</metadata>
<g transform="translate(0.000000,72.000000) scale(0.100000,-0.100000)"
fill="#000000" stroke="none">
<path d="M64 701 c3 -4 -6 -6 -19 -3 -14 2 -25 0 -26 -4 0 -5 -2 -20 -5 -33
-2 -13 1 -29 6 -36 8 -9 8 -15 0 -20 -15 -9 -12 -35 4 -35 8 0 17 7 20 16 5
13 9 14 21 4 13 -11 13 -14 -2 -26 -15 -10 -16 -15 -5 -26 11 -11 15 -10 25 2
14 18 44 15 69 -7 14 -13 20 -13 33 -3 8 7 15 16 15 21 0 13 -28 11 -32 -3 -2
-6 -9 -8 -16 -4 -9 5 -9 10 1 20 6 8 15 12 19 10 3 -2 3 8 -1 23 -6 20 -3 31
8 40 13 10 14 14 3 25 -11 11 -16 10 -26 -4 -9 -13 -16 -14 -24 -6 -8 8 -7 15
6 24 13 10 14 15 5 25 -10 9 -15 10 -27 0 -10 -8 -16 -9 -21 -1 -3 5 -13 10
-21 10 -8 0 -13 -4 -10 -9z m18 -38 c-6 -3 -9 -10 -6 -15 4 -7 2 -8 -4 -4 -7
4 -12 2 -12 -3 0 -6 -5 -11 -11 -11 -5 0 -7 5 -4 10 3 6 2 10 -4 10 -5 0 -12
-6 -14 -12 -4 -8 -6 -7 -6 3 -1 18 25 33 39 24 5 -3 12 0 15 6 4 5 10 7 14 3
3 -4 0 -9 -7 -11z"/>
<path d="M210 504 c-11 -13 -9 -20 18 -46 27 -28 33 -30 48 -17 16 13 16 12 5
-10 -15 -28 1 -53 21 -33 20 20 32 13 13 -8 -10 -11 -14 -20 -8 -20 10 0 43
32 43 42 0 16 -35 17 -51 2 -11 -10 -19 -14 -19 -9 0 4 8 14 18 21 16 12 14
16 -23 53 -44 46 -47 47 -65 25z"/>
<path d="M395 406 c-11 -8 -24 -12 -31 -9 -6 2 -19 -7 -28 -21 -9 -15 -14 -26
-12 -26 3 0 -1 -11 -8 -25 -20 -38 -8 -72 40 -111 36 -30 45 -44 54 -89 26
-123 125 -151 224 -64 57 50 76 85 76 139 0 32 -6 48 -29 70 -16 16 -39 31
-52 34 -13 3 -36 7 -51 10 -15 4 -49 29 -76 56 -51 52 -75 60 -107 36z m112
-56 c35 -35 59 -50 78 -50 71 0 133 -77 105 -131 -48 -88 -115 -149 -165 -149
-48 0 -93 54 -109 131 -3 14 -26 46 -51 71 -56 57 -58 83 -10 121 20 16 33 32
30 37 -6 10 12 18 46 19 17 1 41 -14 76 -49z"/>
<path d="M376 345 c-4 -13 -2 -14 14 -5 17 9 19 8 13 -7 -11 -32 -15 -34 -31
-21 -14 10 -15 10 -4 -2 6 -8 12 -21 12 -29 0 -14 -1 -14 -10 -1 -8 12 -10 11
-10 -6 0 -11 10 -30 23 -42 43 -40 118 -21 131 33 12 46 -44 117 -65 83 -7
-10 -12 -11 -29 0 -26 16 -37 15 -44 -3z m118 -68 c4 4 3 -4 -2 -17 -8 -20
-17 -25 -48 -26 -22 -1 -33 1 -27 3 9 3 9 10 -2 27 -14 21 -14 25 0 36 8 7 12
17 8 24 -3 6 10 -4 29 -22 19 -18 38 -29 42 -25z"/>
<path d="M422 297 c-9 -11 -7 -19 12 -36 19 -18 25 -19 34 -8 9 11 7 19 -12
36 -19 18 -25 19 -34 8z m42 -39 c-3 -5 -14 -2 -25 8 -10 9 -16 21 -13 26 3 5
14 2 25 -8 10 -9 16 -21 13 -26z"/>
<path d="M580 238 c0 -19 -79 -98 -98 -98 -15 0 -15 -2 -1 -15 14 -14 21 -10
73 42 31 31 54 63 52 70 -7 17 -26 17 -26 1z"/>
</g>
</svg>
