<?xml version="1.0" standalone="no"?>
<!DOCTYPE svg PUBLIC "-//W3C//DTD SVG 20010904//EN"
 "http://www.w3.org/TR/2001/REC-SVG-20010904/DTD/svg10.dtd">
<svg version="1.0" xmlns="http://www.w3.org/2000/svg"
 width="72.000000pt" height="72.000000pt" viewBox="0 0 72.000000 72.000000"
 preserveAspectRatio="xMidYMid meet">
<metadata>
Created by potrace 1.10, written by Peter Selinger 2001-2011
</metadata>
<g transform="translate(0.000000,72.000000) scale(0.100000,-0.100000)"
fill="#000000" stroke="none">
<path d="M57 673 c-4 -27 -4 -27 -12 -5 -8 23 -25 30 -25 10 0 -7 22 -29 48
-48 26 -19 111 -95 189 -169 136 -127 143 -136 143 -172 0 -84 31 -181 72
-226 43 -47 137 -36 195 22 46 46 46 99 2 150 -33 37 -79 70 -63 43 5 -7 9
-21 9 -30 0 -9 15 -33 34 -52 l35 -36 -17 -35 c-9 -20 -25 -39 -34 -42 -10 -4
-21 -11 -25 -17 -14 -21 -82 30 -125 93 -24 34 -43 68 -43 74 0 7 9 -3 20 -21
17 -28 23 -31 40 -22 26 14 26 30 0 30 -11 0 -20 4 -20 10 0 15 39 32 61 25
22 -7 49 10 49 30 0 7 -23 22 -51 34 -73 30 -84 25 -19 -9 30 -16 53 -30 50
-30 -3 -1 -21 -3 -40 -4 -33 -2 -100 -30 -100 -42 0 -3 5 -14 10 -24 6 -11 6
-21 1 -24 -10 -6 -32 47 -30 73 0 10 2 12 6 3 10 -24 22 -1 12 25 -11 31 -7
39 11 18 7 -8 22 -15 33 -15 20 0 20 0 -1 23 -12 13 -19 27 -15 32 5 4 2 5 -5
1 -8 -5 -35 14 -75 52 -130 123 -204 189 -230 207 -20 12 -25 21 -17 30 5 6 7
15 3 18 -11 12 -31 7 -35 -8 -2 -10 -7 -12 -18 -5 -12 7 -12 12 -2 22 16 16
15 38 -2 38 -8 0 -17 -12 -19 -27z"/>
<path d="M512 238 c6 -16 36 -34 44 -25 9 9 -15 37 -33 37 -8 0 -13 -5 -11
-12z"/>
<path d="M587 183 c5 -12 3 -14 -8 -8 -8 5 -11 4 -6 -1 5 -5 16 -9 25 -9 11 0
16 -7 14 -19 -3 -17 -2 -18 12 -6 15 12 15 15 -5 37 -26 27 -41 30 -32 6z"/>
</g>
</svg>
