<?xml version="1.0" standalone="no"?>
<!DOCTYPE svg PUBLIC "-//W3C//DTD SVG 20010904//EN"
 "http://www.w3.org/TR/2001/REC-SVG-20010904/DTD/svg10.dtd">
<svg version="1.0" xmlns="http://www.w3.org/2000/svg"
 width="72.000000pt" height="72.000000pt" viewBox="0 0 72.000000 72.000000"
 preserveAspectRatio="xMidYMid meet">
<metadata>
Created by potrace 1.10, written by Peter Selinger 2001-2011
</metadata>
<g transform="translate(0.000000,72.000000) scale(0.100000,-0.100000)"
fill="#000000" stroke="none">
<path d="M478 611 c-5 -16 -272 -51 -307 -41 -24 7 -33 6 -37 -4 -3 -8 -29
-17 -60 -21 l-54 -6 0 -44 c0 -34 6 -50 26 -71 19 -18 23 -28 15 -33 -8 -6
-10 -23 -6 -52 3 -24 8 -71 10 -103 8 -93 21 -93 30 0 8 84 10 103 17 109 3 4
3 15 1 26 -4 15 -8 17 -14 8 -4 -8 -11 -10 -15 -6 -4 3 -1 14 7 24 9 11 10 14
2 9 -8 -4 -13 -2 -13 7 0 12 16 10 91 -8 106 -25 128 -43 102 -82 -10 -15 -13
-27 -7 -31 6 -4 11 -16 12 -27 6 -96 12 -159 17 -163 11 -11 17 8 20 63 2 32
7 70 10 86 5 21 2 31 -9 35 -20 8 -21 24 -1 24 8 0 15 -5 15 -12 0 -6 2 -9 5
-6 9 8 -16 68 -26 62 -5 -3 -8 0 -7 8 3 13 30 25 61 27 17 1 18 -6 12 -77 -7
-87 5 -116 42 -106 25 7 39 50 22 70 -9 11 -8 18 2 30 11 14 11 18 -2 28 -8 6
-15 25 -15 41 1 24 6 31 26 34 14 1 27 7 30 12 3 4 16 6 28 2 20 -5 22 -12 22
-64 0 -33 4 -59 10 -59 11 0 11 2 15 71 3 58 10 69 40 69 31 0 39 -14 23 -40
-8 -13 -9 -23 -3 -28 10 -7 11 -15 16 -115 2 -54 17 -91 20 -50 1 10 3 40 5
67 2 27 5 55 8 63 3 7 -2 13 -12 14 -9 0 -12 3 -5 5 7 3 9 12 6 20 -3 8 0 14
6 14 6 0 11 -5 11 -12 0 -6 2 -9 5 -6 9 8 -6 38 -16 32 -5 -3 -6 2 -3 10 3 9
1 16 -5 16 -6 0 -11 5 -11 11 0 6 6 9 13 6 28 -11 48 19 45 68 l-3 47 -62 23
c-71 25 -150 39 -155 26z m67 -42 c25 -11 45 -23 42 -25 -3 -3 -28 -7 -56 -9
-29 -2 -67 -8 -86 -14 -18 -5 -37 -5 -42 0 -4 4 -43 12 -86 18 -82 10 -113 21
-59 21 18 0 33 1 35 2 4 2 161 26 183 27 12 0 43 -8 69 -20z m124 -79 c-22
-14 -187 -42 -200 -35 -7 5 -10 4 -6 -2 4 -6 -16 -15 -46 -22 -29 -6 -62 -14
-74 -17 -21 -6 -23 -3 -23 32 0 47 -12 37 -21 -19 l-6 -42 -2 53 -1 52 33 1
c17 0 46 3 62 5 75 11 175 27 230 39 l60 12 3 -25 c2 -14 -2 -28 -9 -32z
m-434 39 c13 -6 0 -7 -40 -3 -33 4 -62 8 -64 10 -9 8 85 2 104 -7z m-88 -22
c-7 -4 8 -5 33 -2 31 4 39 3 25 -4 -17 -7 -13 -9 20 -12 39 -4 40 -5 43 -43 3
-30 0 -37 -11 -33 -8 3 -60 16 -116 28 -97 22 -101 24 -101 49 0 26 2 27 59
26 33 0 54 -4 48 -9z"/>
<path d="M566 494 c-72 -23 -51 -25 34 -4 43 11 62 19 45 19 -16 0 -52 -7 -79
-15z"/>
</g>
</svg>
