<?xml version="1.0" standalone="no"?>
<!DOCTYPE svg PUBLIC "-//W3C//DTD SVG 20010904//EN"
 "http://www.w3.org/TR/2001/REC-SVG-20010904/DTD/svg10.dtd">
<svg version="1.0" xmlns="http://www.w3.org/2000/svg"
 width="72.000000pt" height="72.000000pt" viewBox="0 0 72.000000 72.000000"
 preserveAspectRatio="xMidYMid meet">
<metadata>
Created by potrace 1.10, written by Peter Selinger 2001-2011
</metadata>
<g transform="translate(0.000000,72.000000) scale(0.100000,-0.100000)"
fill="#000000" stroke="none">
<path d="M490 593 c-8 -3 -23 -13 -33 -21 -10 -9 -25 -16 -35 -17 -9 -1 -56
-12 -104 -25 -61 -17 -88 -29 -88 -40 0 -12 -2 -13 -9 -1 -7 12 -15 12 -52 0
-42 -13 -44 -16 -42 -49 2 -28 1 -31 -6 -15 -10 20 -10 20 -11 0 -2 -11 -2
-26 -1 -34 2 -7 -2 -10 -8 -6 -6 3 -11 1 -11 -6 0 -6 -18 -31 -40 -55 -41 -44
-48 -70 -30 -104 14 -26 73 -41 110 -29 26 9 35 6 83 -30 30 -23 57 -41 62
-41 4 0 24 12 44 27 20 16 42 27 48 25 10 -2 69 26 118 56 6 4 12 7 15 8 48 9
128 56 171 100 l40 41 -29 79 c-28 75 -33 81 -83 111 -52 31 -78 37 -109 26z
m76 -18 c18 -13 16 -14 -21 -15 l-40 0 35 -21 c44 -27 43 -26 35 -38 -4 -8
-15 -6 -33 3 -36 19 -93 69 -68 60 13 -5 17 -4 13 3 -15 24 50 30 79 8z m-31
-85 c4 -6 11 -8 16 -5 5 3 6 -2 2 -11 -4 -12 -3 -15 5 -10 16 10 15 -3 -3 -34
-9 -15 -15 -19 -15 -10 0 9 -6 6 -16 -10 -14 -24 -15 -24 -11 -2 3 12 1 20 -4
16 -12 -7 -11 7 1 26 9 13 10 13 10 0 0 -13 1 -13 10 0 13 21 12 39 -1 20 -9
-13 -10 -13 -6 1 4 11 -7 23 -34 38 -21 12 -39 24 -39 27 0 7 78 -35 85 -46z
m-68 14 c33 -19 43 -30 38 -42 -12 -29 -14 -83 -3 -76 6 4 8 -2 4 -17 -5 -17
0 -14 14 11 15 25 20 29 16 12 -2 -14 0 -20 7 -15 7 4 8 0 4 -11 -4 -10 -3
-15 4 -11 5 4 7 15 4 25 -6 19 22 86 31 77 3 -3 -2 -20 -11 -37 -11 -21 -12
-29 -4 -24 9 5 10 2 6 -10 -4 -11 -3 -15 4 -11 6 4 8 14 5 22 -3 8 -1 23 4 33
11 21 3 53 -11 44 -14 -8 -11 12 4 24 7 6 24 15 39 21 24 9 26 7 30 -20 4 -24
2 -28 -13 -24 -28 9 -31 -10 -9 -65 11 -28 20 -56 20 -62 0 -21 -17 5 -30 45
-9 29 -15 36 -23 28 -8 -8 -8 -14 -2 -19 6 -4 11 -14 11 -22 1 -8 5 -23 9 -33
6 -13 3 -16 -9 -11 -11 4 -16 0 -16 -12 -1 -16 -3 -15 -16 6 -8 14 -14 18 -13
10 3 -38 -1 -46 -15 -27 -9 12 -16 14 -21 8 -3 -6 -2 -11 4 -11 6 0 8 -6 5
-14 -8 -20 -34 -8 -27 12 4 14 3 14 -5 3 -6 -8 -8 -21 -4 -29 3 -10 1 -13 -6
-8 -7 4 -15 0 -19 -10 -6 -16 -7 -16 -19 1 -13 17 -14 17 -23 -6 -5 -13 -10
-18 -10 -11 -1 7 3 22 9 32 6 12 6 29 -2 50 l-11 33 -14 -24 -14 -24 7 25 c12
41 13 106 2 86 -5 -9 -7 -24 -4 -34 3 -9 1 -24 -5 -32 -8 -12 -9 -9 -4 9 5 15
3 21 -3 17 -6 -4 -8 2 -4 16 4 16 2 19 -9 13 -8 -5 -11 -5 -7 0 15 16 -27 31
-89 33 -68 3 -78 -6 -37 -32 14 -10 29 -27 34 -39 7 -17 9 -18 9 -5 1 14 46
48 64 48 3 0 15 -27 27 -61 23 -60 24 -60 37 -38 l14 24 -7 -24 c-4 -16 -3
-21 5 -17 13 8 14 4 5 -19 -5 -13 -9 -14 -15 -3 -6 8 -7 1 -3 -19 5 -28 3 -33
-26 -48 -17 -9 -49 -32 -71 -52 -32 -29 -42 -34 -52 -23 -9 10 -9 11 1 5 17
-9 57 25 41 36 -6 4 -8 16 -4 28 3 12 11 18 17 15 7 -5 9 1 5 18 -12 47 -38
99 -47 93 -5 -3 -11 -1 -15 5 -3 5 -12 10 -18 10 -7 0 -6 -4 3 -10 12 -8 12
-10 -5 -11 -14 0 -10 -5 15 -15 l35 -14 -49 5 c-38 4 -46 2 -39 -8 30 -37 19
-84 -16 -72 -20 6 -22 13 -20 74 1 37 -1 72 -4 78 -13 20 -4 73 12 74 9 1 5 5
-9 10 -22 8 -20 8 8 4 19 -3 42 -1 52 5 11 6 30 6 51 0 32 -9 33 -9 14 7 -14
11 -15 14 -4 10 9 -3 21 -1 27 5 6 6 26 0 58 -21 26 -16 52 -27 57 -24 5 3 -8
16 -29 28 -21 13 -42 21 -46 19 -5 -3 -8 0 -8 6 0 7 7 10 15 7 8 -4 17 -2 21
4 3 6 12 8 20 5 8 -3 14 -1 14 4 0 15 9 12 57 -16z m-346 -169 c-4 -22 -3 -55
2 -74 7 -26 5 -37 -8 -50 -15 -15 -18 -14 -36 8 -27 33 -24 57 14 112 17 26
33 46 33 46 1 -1 -1 -20 -5 -42z m156 -64 c1 -11 -6 -22 -15 -24 -12 -3 -10
-5 6 -6 18 -1 21 -4 14 -18 -5 -10 -7 -24 -5 -30 5 -14 -15 -17 -40 -7 -12 4
-13 12 -6 37 11 39 11 40 -1 32 -5 -3 -10 -1 -10 4 0 6 6 11 13 11 8 0 7 4 -3
10 -12 7 -8 10 15 10 23 0 31 -5 32 -19z"/>
<path d="M415 510 c-3 -5 3 -11 13 -14 10 -4 28 -15 40 -27 16 -15 22 -16 22
-5 0 17 -67 59 -75 46z"/>
<path d="M380 502 c0 -6 16 -19 35 -31 19 -11 35 -26 34 -33 0 -10 -2 -10 -6
0 -5 13 -23 7 -23 -9 0 -6 5 -7 12 -3 8 5 9 2 5 -9 -18 -43 -16 -49 3 -17 15
25 20 29 16 12 -2 -13 0 -20 6 -16 6 4 8 -2 4 -17 -7 -24 -7 -24 8 1 17 28 21
53 5 30 -9 -12 -10 -11 -6 8 3 13 1 20 -5 16 -5 -3 -8 2 -6 11 2 11 -12 25
-39 42 -24 14 -43 21 -43 15z"/>
<path d="M313 473 c0 -12 5 -19 10 -16 5 3 22 -4 38 -16 20 -15 29 -17 29 -8
0 13 -60 54 -60 40 0 -4 -5 -1 -10 7 -7 12 -9 10 -7 -7z"/>
<path d="M305 350 c-3 -5 4 -38 17 -72 13 -37 24 -56 26 -45 2 10 -1 32 -7 50
-10 26 -9 34 5 44 14 10 14 12 -5 22 -24 13 -28 14 -36 1z"/>
</g>
</svg>
