<?xml version="1.0" standalone="no"?>
<!DOCTYPE svg PUBLIC "-//W3C//DTD SVG 20010904//EN"
 "http://www.w3.org/TR/2001/REC-SVG-20010904/DTD/svg10.dtd">
<svg version="1.0" xmlns="http://www.w3.org/2000/svg"
 width="72.000000pt" height="72.000000pt" viewBox="0 0 72.000000 72.000000"
 preserveAspectRatio="xMidYMid meet">
<metadata>
Created by potrace 1.10, written by Peter Selinger 2001-2011
</metadata>
<g transform="translate(0.000000,72.000000) scale(0.100000,-0.100000)"
fill="#000000" stroke="none">
<path d="M250 695 c-7 -8 -18 -15 -25 -15 -7 0 -15 -12 -17 -27 -3 -16 -8 -37
-12 -48 -4 -11 0 -7 9 8 21 36 26 31 18 -16 -3 -22 -11 -37 -19 -37 -8 0 -14
-7 -14 -15 0 -8 5 -15 10 -15 6 0 10 -33 10 -77 0 -93 21 -226 53 -343 l24
-85 33 3 c19 2 36 -2 41 -9 5 -9 16 -10 40 -3 33 10 34 10 67 144 20 84 35
173 38 235 3 55 11 113 17 129 8 23 8 30 -6 37 -15 9 -34 66 -24 76 3 2 12 -8
21 -24 8 -15 15 -23 15 -18 0 6 -6 21 -13 34 -8 14 -12 31 -9 38 3 7 -2 13
-10 13 -8 0 -20 7 -27 15 -18 22 -202 22 -220 0z m207 -8 c0 -10 -21 -12 -91
-9 -127 6 -134 22 -10 22 76 0 101 -3 101 -13z m-49 -34 c-26 -2 -71 -2 -100
0 -29 2 -8 3 47 3 55 0 79 -1 53 -3z m-147 -28 c5 4 9 1 9 -6 0 -8 6 -6 18 4
13 12 37 17 80 17 65 0 70 -4 83 -54 l7 -31 -1 35 c-2 66 16 69 29 4 16 -74
16 -166 0 -269 l-12 -80 -26 50 c-33 63 -59 87 -130 118 -78 35 -93 64 -82
166 4 42 9 68 11 58 3 -9 9 -15 14 -12z m51 -231 c56 -22 96 -59 120 -111 18
-40 18 -45 2 -115 -25 -110 -57 -143 -98 -103 -16 17 -17 21 -60 202 -37 159
-38 155 36 127z m-26 -311 c-5 -6 -46 150 -45 173 0 10 11 -23 25 -75 13 -52
22 -96 20 -98z"/>
<path d="M286 558 c16 -18 16 -20 2 -15 -21 8 -31 -3 -17 -20 8 -9 8 -13 1
-13 -14 0 -25 37 -16 51 4 8 3 9 -4 5 -22 -13 -10 -75 14 -79 5 -1 8 -6 6 -12
-1 -5 7 1 18 14 22 26 26 61 8 79 -21 21 -32 13 -12 -10z"/>
<path d="M422 568 c-18 -18 -14 -63 7 -82 19 -17 20 -17 31 4 17 31 4 63 -23
54 -20 -6 -20 -5 -8 10 16 19 10 31 -7 14z"/>
</g>
</svg>
