<?xml version="1.0" standalone="no"?>
<!DOCTYPE svg PUBLIC "-//W3C//DTD SVG 20010904//EN"
 "http://www.w3.org/TR/2001/REC-SVG-20010904/DTD/svg10.dtd">
<svg version="1.0" xmlns="http://www.w3.org/2000/svg"
 width="72.000000pt" height="72.000000pt" viewBox="0 0 72.000000 72.000000"
 preserveAspectRatio="xMidYMid meet">
<metadata>
Created by potrace 1.10, written by Peter Selinger 2001-2011
</metadata>
<g transform="translate(0.000000,72.000000) scale(0.100000,-0.100000)"
fill="#000000" stroke="none">
<path d="M20 699 c0 -8 18 -28 39 -45 32 -23 38 -34 34 -54 -4 -22 9 -38 93
-115 53 -50 120 -111 148 -137 50 -46 75 -61 60 -35 -4 6 2 3 14 -7 12 -11 22
-14 22 -8 0 6 -9 17 -21 25 -14 10 -16 16 -8 19 9 3 7 10 -9 23 -12 11 -22 23
-22 28 0 5 7 4 15 -3 13 -11 14 -10 9 4 -4 10 -13 15 -22 11 -9 -3 -27 5 -44
22 -15 15 -28 21 -28 14 0 -7 -37 21 -81 63 -70 66 -83 75 -98 64 -14 -12 -15
-11 -1 7 8 11 16 22 17 24 2 3 10 -4 19 -15 8 -10 12 -12 8 -4 -4 8 10 -4 30
-28 21 -23 41 -40 44 -38 4 2 32 -18 62 -45 92 -81 71 -42 -28 51 -64 61 -99
87 -110 83 -11 -5 -14 -2 -9 9 6 18 -18 32 -35 22 -5 -4 -30 13 -54 37 -27 26
-44 37 -44 28z m310 -327 c0 -9 -81 63 -140 124 -53 55 -45 49 38 -26 56 -52
102 -96 102 -98z"/>
<path d="M353 523 c-32 -4 -33 -5 -19 -31 8 -15 42 -54 75 -86 33 -33 57 -64
54 -70 -3 -6 -2 -8 2 -3 12 10 45 -22 39 -38 -3 -7 -1 -15 4 -19 18 -11 5 35
-18 59 -13 14 -19 25 -14 25 13 0 116 -105 109 -112 -3 -3 3 -11 12 -19 17
-13 17 -13 3 6 -14 20 -14 20 7 1 13 -10 20 -22 18 -26 -6 -9 30 -42 37 -35 3
3 3 -5 1 -19 -6 -31 -28 -40 -48 -20 -11 11 -12 20 -5 33 7 14 2 25 -25 51
-19 18 -32 36 -30 40 3 4 -3 14 -13 21 -15 12 -16 12 -5 -2 7 -9 9 -19 5 -23
-4 -4 10 -23 32 -40 35 -31 37 -33 17 -39 -11 -3 -19 -2 -16 3 3 4 -3 14 -12
21 -15 12 -16 12 -9 -6 4 -11 -20 7 -53 39 -33 33 -64 57 -67 53 -4 -4 -13 -2
-21 4 -7 6 -13 8 -13 4 0 -12 113 -110 124 -107 6 2 8 0 3 -4 -4 -4 5 -20 20
-36 20 -21 23 -28 11 -28 -14 0 -38 -63 -38 -100 0 -29 18 5 24 44 4 25 13 47
22 50 8 3 13 9 12 13 -2 4 2 8 7 8 6 0 10 -8 9 -18 -1 -24 43 -34 75 -16 19
11 27 24 29 50 3 31 -2 41 -35 69 -21 18 -86 79 -145 136 -85 82 -108 110
-114 138 -3 20 -9 35 -13 34 -3 0 -21 -3 -38 -5z m54 -61 c12 -25 20 -48 18
-51 -8 -8 -36 23 -56 61 -18 36 -18 38 -2 38 11 -1 26 -18 40 -48z"/>
<path d="M470 275 c35 -36 69 -65 74 -65 6 0 -19 29 -54 65 -35 36 -69 65 -74
65 -6 0 19 -29 54 -65z"/>
</g>
</svg>
