<?xml version="1.0" standalone="no"?>
<!DOCTYPE svg PUBLIC "-//W3C//DTD SVG 20010904//EN"
 "http://www.w3.org/TR/2001/REC-SVG-20010904/DTD/svg10.dtd">
<svg version="1.0" xmlns="http://www.w3.org/2000/svg"
 width="72.000000pt" height="72.000000pt" viewBox="0 0 72.000000 72.000000"
 preserveAspectRatio="xMidYMid meet">
<metadata>
Created by potrace 1.10, written by Peter Selinger 2001-2011
</metadata>
<g transform="translate(0.000000,72.000000) scale(0.100000,-0.100000)"
fill="#000000" stroke="none">
<path d="M10 685 c0 -14 102 -184 109 -182 9 2 111 -107 111 -119 0 -13 -60
48 -82 84 -11 18 -23 31 -25 28 -9 -8 61 -97 124 -157 82 -79 163 -144 291
-233 93 -64 115 -75 131 -67 14 8 41 57 41 76 0 1 -37 24 -82 50 -46 26 -113
67 -149 91 -46 30 -74 41 -90 38 -20 -4 -21 -3 -5 4 18 8 17 10 -12 31 -18 12
-37 19 -42 16 -6 -4 -9 -3 -8 2 1 4 -45 55 -103 113 -57 58 -122 133 -144 167
-22 35 -46 63 -52 63 -7 0 -13 -2 -13 -5z m249 -320 c61 -58 193 -152 189
-134 -2 6 3 13 10 15 7 1 8 0 3 -2 -6 -3 -7 -12 -4 -20 7 -19 200 -127 213
-119 18 11 11 -11 -10 -30 -18 -17 -21 -16 -57 6 -111 67 -373 270 -373 290 0
13 11 11 29 -6z"/>
</g>
</svg>
