<?xml version="1.0" standalone="no"?>
<!DOCTYPE svg PUBLIC "-//W3C//DTD SVG 20010904//EN"
 "http://www.w3.org/TR/2001/REC-SVG-20010904/DTD/svg10.dtd">
<svg version="1.0" xmlns="http://www.w3.org/2000/svg"
 width="72.000000pt" height="72.000000pt" viewBox="0 0 72.000000 72.000000"
 preserveAspectRatio="xMidYMid meet">
<metadata>
Created by potrace 1.10, written by Peter Selinger 2001-2011
</metadata>
<g transform="translate(0.000000,72.000000) scale(0.100000,-0.100000)"
fill="#000000" stroke="none">
<path d="M237 646 c-91 -25 -90 -22 -89 -282 2 -260 -1 -250 91 -285 75 -28
205 -24 268 9 73 38 74 42 72 286 l-1 216 -29 24 c-52 44 -208 60 -312 32z
m278 -41 c60 -30 60 -60 -2 -87 -63 -28 -240 -31 -295 -5 -75 36 -74 69 3 99
63 25 237 21 294 -7z m-285 -307 c0 -183 -2 -192 -40 -168 -12 7 -14 41 -15
177 0 92 -5 176 -9 186 -8 17 -7 17 28 1 l36 -18 0 -178z m300 187 c-15 -18 1
-20 18 -3 9 9 12 -23 12 -147 0 -149 -1 -160 -22 -182 -12 -13 -25 -23 -30
-23 -5 0 -8 77 -6 170 2 94 0 170 -4 170 -5 0 -8 5 -8 11 0 5 4 8 8 5 4 -2 14
-1 22 5 21 13 24 11 10 -6z m-50 -197 l0 -177 -42 -5 c-82 -10 -199 -13 -186
-5 10 7 10 9 0 9 -9 0 -12 40 -10 177 l3 178 118 0 117 0 0 -177z m-77 -205
c-24 -2 -62 -2 -86 0 -23 2 -4 4 43 4 47 0 66 -2 43 -4z"/>
<path d="M446 382 c-4 -10 -5 -57 -5 -104 2 -74 -1 -91 -21 -123 -22 -36 -22
-37 -2 -24 12 8 25 20 29 29 6 12 12 240 6 240 -1 0 -4 -8 -7 -18z"/>
</g>
</svg>
