<?xml version="1.0" standalone="no"?>
<!DOCTYPE svg PUBLIC "-//W3C//DTD SVG 20010904//EN"
 "http://www.w3.org/TR/2001/REC-SVG-20010904/DTD/svg10.dtd">
<svg version="1.0" xmlns="http://www.w3.org/2000/svg"
 width="72.000000pt" height="72.000000pt" viewBox="0 0 72.000000 72.000000"
 preserveAspectRatio="xMidYMid meet">
<metadata>
Created by potrace 1.10, written by Peter Selinger 2001-2011
</metadata>
<g transform="translate(0.000000,72.000000) scale(0.100000,-0.100000)"
fill="#000000" stroke="none">
<path d="M108 680 l-30 -31 5 -296 c6 -283 7 -297 27 -317 19 -20 33 -21 245
-24 l225 -3 31 30 30 30 -3 297 -3 296 -28 24 c-28 24 -30 24 -248 24 l-221 0
-30 -30z m488 -15 c23 -23 24 -31 23 -110 l-2 -85 -36 0 c-27 0 -32 -3 -23
-12 7 -7 12 -23 12 -36 0 -21 2 -22 15 -12 13 11 15 0 15 -90 0 -106 -10 -127
-20 -42 l-5 47 -85 7 c-47 3 -147 6 -222 7 l-138 1 0 -30 c0 -20 -5 -30 -15
-30 -13 0 -15 27 -15 180 0 247 -19 230 260 230 l211 0 25 -25z m-408 -431
c-2 -32 1 -44 10 -44 9 0 12 -6 8 -15 -3 -8 -1 -15 5 -15 6 0 13 9 16 21 3 12
11 18 19 15 11 -4 14 8 14 53 0 45 4 60 16 65 14 5 15 -3 12 -59 -1 -36 0 -65
5 -65 4 0 7 27 7 60 0 44 4 60 14 60 10 0 14 -14 14 -51 0 -44 -5 -56 -27 -75
l-26 -22 48 -7 c90 -14 174 10 136 38 -21 16 -24 117 -3 117 9 0 14 -18 16
-57 4 -80 28 -85 28 -5 0 45 4 61 16 66 14 5 15 -3 12 -59 -1 -36 1 -65 6 -65
4 0 5 -7 2 -16 -4 -11 -1 -14 12 -12 9 2 17 10 17 18 0 8 -6 14 -12 13 -9 -2
-13 14 -13 57 0 48 3 60 16 60 11 0 15 -8 13 -27 -4 -52 1 -83 13 -80 7 1 13
-17 15 -52 3 -53 3 -53 -15 -31 -16 20 -24 22 -70 15 -48 -6 -52 -9 -52 -34 0
-26 -16 -51 -31 -51 -4 0 -4 14 1 31 5 18 7 35 5 39 -2 4 -66 10 -141 13 -165
8 -170 10 -158 88 l8 54 7 -40 c6 -38 6 -37 8 17 0 35 6 58 14 61 15 5 20 -21
15 -79z m240 0 c-2 -24 1 -44 5 -44 5 0 5 -5 2 -10 -4 -6 -18 -10 -33 -9 -15
1 -39 -2 -55 -6 -24 -6 -26 -5 -20 11 3 11 12 28 20 40 7 11 10 23 7 27 -4 3
-3 19 1 34 6 25 8 26 17 10 5 -10 7 -29 4 -41 -3 -13 1 -31 9 -42 13 -17 14
-13 15 43 0 40 4 63 13 66 15 5 20 -21 15 -79z m-198 21 c0 -41 -4 -55 -14
-55 -11 0 -14 14 -14 55 0 40 4 55 14 55 10 0 14 -15 14 -55z m385 -195 c-8
-16 -17 -30 -18 -31 -1 0 -45 -2 -97 -3 -56 -2 -75 -1 -46 3 44 5 47 8 33 20
-23 18 -21 41 3 41 12 0 20 -7 20 -16 0 -10 -5 -14 -16 -10 -9 4 -13 2 -8 -5
4 -7 23 -9 48 -6 37 5 39 4 22 -9 -19 -14 -19 -14 1 -14 41 0 63 45 65 134 l2
81 3 -77 c3 -56 0 -86 -12 -108z m-205 47 c0 -11 -27 -13 -112 -7 -5 0 -8 5
-8 10 0 6 27 10 60 10 42 0 60 -4 60 -13z m-213 -38 c-3 -13 -1 -19 6 -16 7 2
11 12 11 21 -1 11 6 16 22 16 15 0 24 -6 24 -16 0 -9 -5 -12 -12 -8 -10 6 -10
4 0 -8 11 -14 10 -17 -8 -23 -25 -8 -87 2 -95 14 -10 18 8 41 32 41 21 0 24
-4 20 -21z m213 -2 c0 -10 -18 -14 -60 -15 -47 -1 -60 1 -60 13 0 12 14 15 60
15 43 0 60 -4 60 -13z"/>
<path d="M172 598 c-17 -17 -15 -45 4 -52 10 -4 13 -2 8 6 -5 7 -3 8 6 3 17
-11 31 15 19 37 -11 21 -20 23 -37 6z"/>
<path d="M270 595 c-16 -19 -5 -49 16 -41 10 4 13 2 8 -7 -4 -6 2 -4 12 6 14
13 16 21 8 34 -15 23 -29 26 -44 8z"/>
<path d="M413 603 c-17 -6 -16 -38 1 -52 21 -18 50 14 36 40 -11 19 -16 21
-37 12z"/>
<path d="M512 598 c-16 -16 -15 -33 4 -48 22 -19 54 12 38 37 -14 22 -27 26
-42 11z"/>
<path d="M164 515 c-8 -21 2 -45 19 -45 8 0 20 7 27 15 10 12 10 18 0 30 -7 8
-19 15 -27 15 -7 0 -16 -7 -19 -15z"/>
<path d="M267 516 c-10 -26 4 -47 27 -44 15 2 21 10 21 28 0 29 -38 41 -48 16z"/>
<path d="M404 515 c-9 -23 3 -45 25 -45 23 0 35 28 20 46 -15 18 -38 18 -45
-1z"/>
<path d="M507 516 c-10 -26 4 -47 27 -44 15 2 21 10 21 28 0 29 -38 41 -48 16z"/>
<path d="M171 447 c-15 -15 -14 -32 3 -46 17 -14 48 12 40 34 -8 19 -29 26
-43 12z"/>
<path d="M275 446 c-11 -8 -16 -20 -12 -29 4 -12 -1 -17 -21 -20 l-27 -4 28
-2 c15 0 27 -6 27 -11 0 -17 -27 -22 -50 -10 -18 10 -21 9 -18 -2 7 -21 67
-23 75 -1 4 10 15 24 25 31 21 16 23 35 5 51 -10 8 -18 7 -32 -3z"/>
<path d="M412 448 c-7 -7 -12 -20 -12 -30 0 -11 -11 -20 -32 -26 -39 -10 -39
-27 0 -27 17 0 27 5 27 15 0 10 8 14 22 12 30 -4 49 31 27 52 -19 19 -17 19
-32 4z"/>
<path d="M515 446 c-11 -8 -16 -19 -12 -30 6 -14 11 -15 29 -6 22 11 22 10 4
-4 -23 -19 -46 -5 -46 27 0 25 -15 13 -25 -20 -5 -20 -3 -23 19 -23 16 0 26
-6 26 -15 0 -9 -9 -15 -25 -15 -14 0 -25 5 -25 10 0 6 -4 10 -10 10 -5 0 -7
-7 -4 -15 9 -21 63 -20 71 3 4 9 15 23 25 30 21 16 23 35 5 51 -10 8 -18 7
-32 -3z"/>
</g>
</svg>
