<?xml version="1.0" standalone="no"?>
<!DOCTYPE svg PUBLIC "-//W3C//DTD SVG 20010904//EN"
 "http://www.w3.org/TR/2001/REC-SVG-20010904/DTD/svg10.dtd">
<svg version="1.0" xmlns="http://www.w3.org/2000/svg"
 width="72.000000pt" height="72.000000pt" viewBox="0 0 72.000000 72.000000"
 preserveAspectRatio="xMidYMid meet">
<metadata>
Created by potrace 1.10, written by Peter Selinger 2001-2011
</metadata>
<g transform="translate(0.000000,72.000000) scale(0.100000,-0.100000)"
fill="#000000" stroke="none">
<path d="M31 658 c-19 -19 -19 -22 -4 -33 10 -7 13 -17 8 -25 -5 -8 -4 -11 3
-6 13 8 36 -30 27 -44 -3 -6 3 -10 14 -10 11 0 23 5 26 10 3 6 2 10 -3 10 -6
0 -15 14 -21 31 -7 19 -15 28 -22 23 -7 -4 -9 -3 -5 4 3 6 2 13 -4 17 -15 9
-12 25 5 25 8 0 15 -6 15 -14 0 -8 79 -91 176 -185 155 -150 177 -169 194
-159 17 11 13 18 -50 87 -37 42 -81 87 -96 101 l-29 25 20 -25 c10 -14 41 -48
68 -76 31 -32 45 -54 38 -58 -15 -10 -261 222 -261 245 0 10 -9 21 -21 24 -11
4 -24 18 -29 31 -12 30 -23 30 -49 2z"/>
<path d="M147 665 c-15 -15 -15 -18 -1 -40 19 -28 39 -24 24 5 -17 33 -11 30
33 -14 23 -23 39 -38 35 -33 -3 5 -4 16 -1 23 3 8 0 14 -6 14 -7 0 -25 14 -40
31 -26 28 -29 29 -44 14z"/>
<path d="M177 604 c-11 -18 4 -55 22 -52 9 1 23 -1 31 -6 8 -4 3 3 -11 17 -14
13 -28 30 -31 37 -3 9 -7 10 -11 4z"/>
<path d="M250 546 c0 -8 5 -18 10 -21 6 -3 10 0 10 7 0 7 37 -23 83 -68 45
-44 93 -89 107 -102 l26 -21 2 22 c1 12 3 32 3 45 1 32 20 22 45 -24 17 -33
27 -40 67 -49 61 -13 87 -36 87 -78 0 -47 -12 -53 -30 -15 -16 36 -43 47 -66
27 -11 -9 -12 -15 -2 -26 18 -22 52 -33 60 -19 5 7 8 3 8 -9 0 -25 -27 -65
-43 -65 -7 0 -25 16 -41 36 -21 27 -31 33 -40 24 -8 -9 -1 -20 29 -45 39 -33
39 -34 21 -54 -25 -27 -44 -27 -55 2 -11 27 -40 54 -65 58 -11 2 -21 10 -24
18 -3 9 0 11 8 6 9 -5 11 -4 6 4 -4 6 -12 9 -17 6 -5 -4 -9 0 -9 7 0 7 -59 74
-131 148 -92 95 -105 107 -45 40 47 -52 80 -97 75 -99 -6 -2 -21 7 -34 19 -20
19 -27 21 -40 10 -8 -7 -15 -19 -15 -27 0 -25 34 -66 67 -79 44 -19 59 -18 43
1 -7 9 -20 13 -27 10 -17 -6 -73 47 -73 69 0 9 7 16 15 16 8 0 14 -5 12 -11
-1 -6 11 -13 27 -15 37 -4 55 -22 59 -59 2 -17 8 -39 14 -50 6 -11 16 -39 22
-62 12 -43 34 -73 54 -73 6 0 1 9 -11 20 -12 12 -22 24 -22 27 0 3 8 -1 18
-10 10 -10 26 -17 35 -17 9 0 17 -4 17 -10 0 -5 -5 -10 -12 -10 -6 0 -9 -3 -5
-6 24 -25 186 97 223 168 35 67 -2 128 -85 142 -32 5 -44 12 -51 31 -13 34
-46 65 -71 65 -18 0 -20 -4 -14 -30 4 -16 4 -34 0 -40 -3 -6 -50 31 -106 82
-106 99 -119 108 -119 84z m211 -387 c32 -22 39 -49 12 -49 -23 0 -53 29 -53
52 0 23 5 23 41 -3z"/>
</g>
</svg>
