<?xml version="1.0" standalone="no"?>
<!DOCTYPE svg PUBLIC "-//W3C//DTD SVG 20010904//EN"
 "http://www.w3.org/TR/2001/REC-SVG-20010904/DTD/svg10.dtd">
<svg version="1.0" xmlns="http://www.w3.org/2000/svg"
 width="72.000000pt" height="72.000000pt" viewBox="0 0 72.000000 72.000000"
 preserveAspectRatio="xMidYMid meet">
<metadata>
Created by potrace 1.10, written by Peter Selinger 2001-2011
</metadata>
<g transform="translate(0.000000,72.000000) scale(0.100000,-0.100000)"
fill="#000000" stroke="none">
<path d="M97 558 c-24 -19 -39 -65 -21 -65 8 0 12 2 9 5 -2 3 6 13 19 23 22
17 45 19 269 19 l244 0 14 -47 c7 -27 12 -50 12 -53 -1 -3 5 -13 14 -22 17
-19 13 -64 -5 -60 -8 1 -11 -2 -8 -7 9 -15 -12 -24 -40 -17 -15 4 -30 19 -37
35 -11 25 -15 27 -37 19 l-25 -9 31 -14 c32 -13 64 -49 64 -71 0 -7 -12 -27
-27 -44 -23 -28 -31 -32 -64 -27 -26 3 -42 0 -53 -11 -15 -15 -16 -15 -16 1 0
21 -28 23 -36 2 -4 -10 -20 -15 -45 -15 -28 0 -39 4 -39 15 0 19 -26 20 -37 1
-5 -8 -27 -16 -53 -18 -25 -2 36 -5 135 -6 l180 -2 54 70 c29 39 58 73 64 77
6 3 -17 -30 -51 -75 -34 -44 -70 -83 -79 -86 -14 -4 -297 -2 -350 3 -7 1 -44
46 -83 101 -63 87 -71 104 -65 130 4 17 11 28 15 25 5 -3 14 3 19 14 16 30 12
40 -4 11 -9 -15 -15 -19 -15 -10 -1 18 -39 -49 -40 -69 0 -22 151 -219 174
-225 27 -7 325 -7 352 0 26 7 174 204 173 230 0 18 -1 18 -9 -1 -8 -18 -9 -18
-9 -2 -1 10 -8 28 -17 41 -13 21 -21 52 -23 94 -1 6 -10 21 -21 32 -19 19 -33
20 -268 20 -183 0 -252 -3 -265 -12z"/>
<path d="M121 516 c-17 -20 -11 -75 8 -68 9 3 12 1 7 -6 -5 -8 2 -12 21 -12
19 0 24 3 15 9 -11 7 -11 9 2 14 23 9 20 54 -3 67 -26 13 -36 13 -50 -4z m47
-5 c18 -11 -10 -34 -32 -25 -19 7 -21 20 -3 27 18 8 21 8 35 -2z"/>
<path d="M548 519 c-22 -12 -24 -57 -3 -65 8 -4 12 -10 9 -15 -3 -5 4 -9 16
-9 12 0 19 4 16 9 -3 5 1 11 9 15 29 11 12 77 -19 76 -6 0 -19 -5 -28 -11z
m42 -9 c13 -9 13 -11 0 -20 -8 -5 -18 -10 -22 -10 -11 0 -20 19 -13 30 8 12
16 12 35 0z"/>
<path d="M242 483 c-29 -26 -36 -87 -12 -108 10 -9 25 -15 32 -12 9 4 7 6 -4
6 -9 1 -19 5 -23 10 -3 6 9 7 30 4 65 -11 105 65 53 101 -29 21 -51 20 -76 -1z
m75 -19 c6 -17 -12 -34 -37 -34 -25 0 -43 17 -37 34 4 10 18 16 37 16 19 0 33
-6 37 -16z"/>
<path d="M402 484 c-28 -19 -29 -64 -2 -89 15 -13 29 -16 57 -12 l38 6 -25
-19 c-24 -19 -25 -19 -2 -13 12 3 27 14 33 25 7 13 7 18 1 14 -6 -4 -8 8 -5
33 4 32 2 41 -18 55 -29 20 -48 20 -77 0z m75 -20 c8 -21 -16 -36 -47 -28 -32
7 -34 10 -27 29 8 21 66 20 74 -1z"/>
<path d="M72 408 c-12 -15 -11 -69 1 -61 4 2 7 0 7 -4 0 -5 11 -9 25 -9 14 0
25 6 25 13 0 7 -12 13 -27 13 -21 0 -24 3 -14 9 9 6 22 6 33 0 14 -7 20 -6 24
6 14 34 -49 62 -74 33z"/>
<path d="M587 413 c-4 -3 -7 -16 -7 -29 0 -18 4 -21 23 -16 20 5 21 4 8 -11
-12 -15 -11 -17 7 -17 15 0 20 5 16 15 -4 9 0 15 10 15 17 0 20 9 10 34 -6 16
-54 22 -67 9z"/>
<path d="M154 325 c-14 -21 -15 -31 -5 -51 14 -32 14 -37 -1 -29 -7 4 -2 -3
11 -14 27 -25 59 -27 87 -6 17 13 16 13 -13 3 -24 -9 -37 -9 -55 0 -21 11 -21
12 9 6 42 -7 88 33 77 69 -11 36 -25 47 -60 47 -25 0 -38 -7 -50 -25z m84 3
c26 -26 -32 -51 -67 -29 -12 8 -12 12 -2 25 16 19 52 21 69 4z"/>
<path d="M472 338 c-22 -22 -15 -76 13 -94 31 -21 53 -15 79 19 19 26 19 30 5
55 -11 20 -24 28 -49 30 -19 2 -41 -3 -48 -10z m77 -7 c8 -5 11 -16 8 -25 -8
-20 -60 -22 -76 -3 -22 27 33 50 68 28z"/>
<path d="M331 326 c-16 -19 -11 -46 12 -60 25 -16 52 4 52 40 0 24 -5 30 -26
32 -14 2 -31 -4 -38 -12z m59 -6 c0 -6 -7 -13 -15 -16 -20 -8 -48 3 -40 16 8
13 55 13 55 0z"/>
<path d="M343 243 c-24 -9 -13 -23 18 -23 20 0 29 4 27 13 -5 13 -26 18 -45
10z"/>
</g>
</svg>
