<?xml version="1.0" standalone="no"?>
<!DOCTYPE svg PUBLIC "-//W3C//DTD SVG 20010904//EN"
 "http://www.w3.org/TR/2001/REC-SVG-20010904/DTD/svg10.dtd">
<svg version="1.0" xmlns="http://www.w3.org/2000/svg"
 width="72.000000pt" height="72.000000pt" viewBox="0 0 72.000000 72.000000"
 preserveAspectRatio="xMidYMid meet">
<metadata>
Created by potrace 1.10, written by Peter Selinger 2001-2011
</metadata>
<g transform="translate(0.000000,72.000000) scale(0.100000,-0.100000)"
fill="#000000" stroke="none">
<path d="M215 654 c-11 -2 -46 -9 -77 -15 -31 -7 -71 -20 -87 -30 l-31 -19 0
-218 c0 -159 3 -223 13 -235 15 -20 101 -57 130 -56 15 0 10 5 -17 15 -52 19
-57 25 -15 19 30 -5 28 -3 -19 19 -28 14 -52 28 -53 33 0 4 -2 16 -4 25 -2 9
3 28 11 43 13 26 13 27 -6 22 -18 -5 -20 -2 -13 16 4 12 8 61 8 108 l0 86 39
-13 c21 -8 45 -14 53 -14 26 0 4 18 -30 24 -38 7 -75 31 -65 41 4 4 25 0 48
-9 44 -17 70 -21 55 -8 -6 5 -28 14 -51 20 -27 8 -44 20 -52 37 -10 22 -9 27
13 41 105 69 615 47 615 -27 0 -14 -51 -36 -110 -48 -129 -26 -347 -39 -378
-22 -22 12 -22 11 -22 -67 0 -53 -5 -84 -15 -98 -22 -29 -18 -40 4 -13 19 23
20 23 15 3 -3 -12 -1 -25 5 -28 6 -4 11 -13 11 -19 0 -9 -2 -9 -8 0 -4 6 -8
-28 -10 -77 l-3 -87 32 -7 c41 -8 253 -8 313 0 37 5 46 11 46 26 0 11 -4 17
-9 13 -21 -13 -241 -33 -303 -28 l-68 6 0 48 c0 27 5 49 10 49 6 0 10 28 10
65 0 37 -4 65 -10 65 -5 0 -10 19 -10 43 l0 42 185 0 c116 0 181 -3 175 -10
-6 -5 -10 -23 -10 -40 0 -21 3 -26 9 -16 7 11 9 11 14 0 3 -8 6 11 6 42 l1 56
-42 -8 c-51 -10 -247 -11 -300 -3 -21 4 -38 11 -38 16 0 5 38 6 94 2 109 -8
261 3 279 19 6 7 26 12 42 12 17 1 41 4 55 8 l25 8 -24 -20 c-13 -12 -34 -21
-47 -21 -19 0 -24 -5 -24 -24 l0 -24 50 19 50 19 0 -126 0 -125 -52 -24 c-52
-23 -54 -34 -4 -15 16 6 26 6 26 0 0 -5 -15 -13 -32 -18 -25 -6 -33 -14 -32
-30 1 -32 -81 -47 -251 -46 -89 0 -125 -3 -100 -7 160 -30 436 16 459 76 3 9
6 113 6 231 l0 214 -25 16 c-45 30 -136 45 -290 49 -82 2 -159 2 -170 -1z"/>
<path d="M590 325 c-1 -16 -2 -46 -3 -65 -2 -24 -7 -36 -20 -38 -15 -3 -17 3
-13 40 2 24 7 51 11 61 5 13 3 16 -8 11 -12 -4 -16 -20 -16 -62 1 -52 17 -122
18 -80 1 9 9 19 19 22 13 5 21 22 28 65 5 33 7 58 3 55 -4 -2 -10 2 -12 8 -3
7 -6 0 -7 -17z"/>
<path d="M495 268 c-11 -6 -56 -11 -100 -11 -51 0 -71 -3 -55 -7 14 -5 51 -8
83 -9 31 -1 57 -5 57 -10 0 -6 -11 -22 -24 -38 -22 -25 -31 -28 -102 -31 -106
-5 -121 -22 -19 -22 69 0 82 3 112 26 29 22 83 93 83 109 0 8 -13 5 -35 -7z"/>
<path d="M117 245 c10 -13 24 -27 32 -30 11 -4 11 -2 2 9 -6 7 -9 20 -6 28 4
9 -3 14 -20 16 -26 2 -26 2 -8 -23z"/>
<path d="M475 150 l-50 -7 45 0 c25 -1 56 3 70 7 31 10 8 10 -65 0z"/>
</g>
</svg>
