<?xml version="1.0" standalone="no"?>
<!DOCTYPE svg PUBLIC "-//W3C//DTD SVG 20010904//EN"
 "http://www.w3.org/TR/2001/REC-SVG-20010904/DTD/svg10.dtd">
<svg version="1.0" xmlns="http://www.w3.org/2000/svg"
 width="72.000000pt" height="72.000000pt" viewBox="0 0 72.000000 72.000000"
 preserveAspectRatio="xMidYMid meet">
<metadata>
Created by potrace 1.10, written by Peter Selinger 2001-2011
</metadata>
<g transform="translate(0.000000,72.000000) scale(0.100000,-0.100000)"
fill="#000000" stroke="none">
<path d="M126 685 c4 -8 2 -15 -4 -15 -11 0 -23 -36 -15 -44 3 -3 17 6 30 19
27 24 26 55 -1 55 -10 0 -13 -6 -10 -15z"/>
<path d="M40 655 c-10 -13 -8 -19 14 -36 25 -19 25 -22 11 -49 -22 -43 -18
-60 6 -23 12 18 25 30 31 27 5 -3 43 -47 85 -97 83 -100 172 -230 235 -344 66
-121 143 -147 221 -74 37 35 42 45 42 83 0 61 -31 98 -123 149 -132 72 -350
228 -401 288 -12 15 -13 14 -8 -1 3 -10 -14 1 -38 24 -24 23 -41 47 -38 54 7
19 -21 18 -37 -1z m185 -156 c85 -72 198 -151 285 -198 41 -22 69 -41 62 -41
-7 0 -24 -12 -38 -27 l-25 -27 -141 140 c-89 87 -119 113 -81 69 34 -38 95
-103 137 -144 l77 -74 -26 -27 c-14 -14 -25 -32 -25 -40 0 -8 -23 26 -51 75
-61 106 -120 191 -195 280 -31 36 -51 65 -47 65 5 0 36 -23 68 -51z m425 -287
c26 -33 26 -51 0 -21 l-21 24 16 -33 c16 -33 16 -33 -4 -23 -12 7 -42 9 -76 5
-30 -4 -55 -4 -55 0 0 15 46 76 60 79 30 6 61 -6 80 -31z m-36 -68 c20 -8 21
-38 0 -58 -19 -19 -82 -20 -106 -2 -18 13 -24 47 -11 59 8 9 96 9 117 1z"/>
</g>
</svg>
