<?xml version="1.0" standalone="no"?>
<!DOCTYPE svg PUBLIC "-//W3C//DTD SVG 20010904//EN"
 "http://www.w3.org/TR/2001/REC-SVG-20010904/DTD/svg10.dtd">
<svg version="1.0" xmlns="http://www.w3.org/2000/svg"
 width="72.000000pt" height="72.000000pt" viewBox="0 0 72.000000 72.000000"
 preserveAspectRatio="xMidYMid meet">
<metadata>
Created by potrace 1.10, written by Peter Selinger 2001-2011
</metadata>
<g transform="translate(0.000000,72.000000) scale(0.100000,-0.100000)"
fill="#000000" stroke="none">
<path d="M430 641 c45 -10 30 -15 -95 -35 -96 -15 -126 -12 -111 13 4 6 17 11
28 11 12 0 19 3 15 6 -3 4 -18 4 -32 0 -20 -5 -25 -12 -25 -40 0 -32 -2 -34
-46 -40 -26 -3 -64 -6 -85 -6 -58 0 -69 -8 -69 -47 0 -24 7 -40 22 -53 21 -16
23 -29 29 -146 5 -123 6 -125 7 -36 2 66 6 92 15 92 6 0 118 14 247 30 129 16
238 30 243 30 4 0 7 -34 7 -75 0 -41 -3 -75 -7 -75 -24 -1 -476 -80 -481 -84
-12 -13 73 -4 236 24 170 29 233 37 162 19 -19 -4 -118 -22 -220 -39 -102 -17
-189 -35 -194 -40 -22 -22 11 -22 119 -2 63 12 123 18 132 15 11 -4 14 -3 9 5
-5 8 1 12 16 12 13 0 76 10 141 22 94 18 117 26 117 39 0 10 -6 20 -12 23 -7
3 -4 5 7 3 13 -2 20 -10 20 -24 0 -25 39 -58 56 -48 7 5 4 15 -9 29 -26 28
-36 92 -27 182 7 73 7 74 36 74 41 0 39 36 -3 75 -31 28 -39 30 -113 31 l-80
1 -5 29 c-5 26 -9 29 -45 31 l-40 1 35 -7z m62 -71 c34 0 59 -2 57 -4 -8 -8
-311 -36 -389 -36 -81 0 -106 -9 -97 -34 3 -8 2 -18 -2 -21 -12 -7 -22 21 -15
39 7 19 29 23 152 32 68 4 99 10 90 16 -8 6 15 7 62 3 58 -5 72 -3 60 5 -13
10 -12 11 3 6 10 -3 46 -6 79 -6z m156 -63 c-13 -10 -16 -15 -8 -11 12 5 13 4
3 -6 -8 -8 -72 -21 -160 -31 -362 -44 -385 -48 -399 -66 -12 -17 -13 -17 -14
5 0 12 4 22 9 22 4 0 6 11 3 25 -6 35 5 62 20 47 16 -16 52 -16 42 0 -4 7 -3
8 4 4 24 -15 52 -15 52 0 0 11 4 12 18 5 13 -7 22 -7 30 1 7 7 16 8 24 1 18
-13 44 -10 40 5 -2 10 3 10 16 3 13 -7 22 -7 30 1 9 9 15 9 23 1 13 -13 51 -5
43 9 -4 6 3 5 14 -1 13 -7 23 -7 27 -1 3 5 19 7 35 3 17 -3 30 -1 30 4 0 5 7
10 15 10 8 0 15 -5 15 -11 0 -6 4 -5 9 3 6 8 20 12 39 9 17 -2 31 -2 30 1 -2
21 5 23 18 6 13 -18 12 -21 -8 -38z"/>
<path d="M364 478 c-66 -9 -128 -17 -138 -18 -11 0 -17 -3 -13 -6 5 -5 117 5
247 22 19 3 64 9 100 13 l65 9 -71 -1 c-40 -1 -125 -9 -190 -19z"/>
<path d="M17 370 c-4 -34 -7 -101 -7 -147 0 -77 2 -87 28 -119 15 -18 33 -34
40 -34 17 0 15 19 -2 26 -8 3 -12 12 -10 19 3 7 1 16 -5 20 -7 4 -11 47 -11
108 0 56 -6 122 -14 146 l-13 45 -6 -64z"/>
</g>
</svg>
