<?xml version="1.0" standalone="no"?>
<!DOCTYPE svg PUBLIC "-//W3C//DTD SVG 20010904//EN"
 "http://www.w3.org/TR/2001/REC-SVG-20010904/DTD/svg10.dtd">
<svg version="1.0" xmlns="http://www.w3.org/2000/svg"
 width="72.000000pt" height="72.000000pt" viewBox="0 0 72.000000 72.000000"
 preserveAspectRatio="xMidYMid meet">
<metadata>
Created by potrace 1.10, written by Peter Selinger 2001-2011
</metadata>
<g transform="translate(0.000000,72.000000) scale(0.100000,-0.100000)"
fill="#000000" stroke="none">
<path d="M147 703 c-15 -14 -5 -22 21 -17 23 5 32 1 46 -21 20 -30 11 -49 -29
-59 -14 -4 -25 -11 -25 -16 0 -16 26 -11 53 10 l26 21 12 -22 c9 -18 8 -24 -7
-33 -59 -34 -56 -34 -112 11 -54 43 -72 52 -72 33 0 -5 5 -10 11 -10 6 0 84
-61 174 -135 155 -129 165 -140 212 -223 53 -92 62 -126 33 -117 -10 3 -27 -3
-38 -12 l-21 -18 25 -42 c15 -24 31 -43 38 -43 20 0 57 31 50 42 -5 7 -1 9 9
5 10 -4 29 -2 42 3 25 9 25 11 10 34 -9 14 -16 27 -16 31 3 16 -32 52 -47 48
-12 -3 -27 12 -50 52 -19 31 -32 58 -29 61 2 2 23 -16 46 -41 22 -24 41 -42
41 -39 0 4 25 -15 55 -41 30 -25 55 -42 55 -36 0 5 -33 38 -72 72 -91 78 -102
89 -104 103 -1 7 -39 72 -85 146 -46 74 -82 142 -80 149 2 13 0 13 -14 1 -15
-12 -19 -12 -31 5 -13 17 -13 21 2 32 10 7 15 16 11 19 -4 4 -13 1 -21 -5 -12
-10 -17 -7 -30 17 -8 16 -23 32 -31 36 -22 8 -50 8 -58 -1z m247 -260 c46 -76
83 -140 80 -142 -12 -13 -99 117 -181 272 -2 4 0 7 6 7 5 0 48 -62 95 -137z
m-92 69 c15 -26 39 -67 54 -91 15 -24 20 -40 12 -35 -24 16 -158 128 -158 134
0 5 49 37 60 39 3 1 17 -20 32 -47z m228 -397 c-6 -8 -24 -13 -40 -12 -32 2
-29 12 3 12 12 0 22 5 22 10 0 6 5 17 10 25 8 13 10 12 13 -3 2 -10 -2 -24 -8
-32z m50 -4 c-1 -19 -75 -69 -86 -58 -7 7 46 47 62 47 16 0 19 16 4 25 -5 3
-10 12 -10 18 0 7 7 3 15 -7 8 -11 15 -22 15 -25z"/>
</g>
</svg>
