<?xml version="1.0" standalone="no"?>
<!DOCTYPE svg PUBLIC "-//W3C//DTD SVG 20010904//EN"
 "http://www.w3.org/TR/2001/REC-SVG-20010904/DTD/svg10.dtd">
<svg version="1.0" xmlns="http://www.w3.org/2000/svg"
 width="72.000000pt" height="72.000000pt" viewBox="0 0 72.000000 72.000000"
 preserveAspectRatio="xMidYMid meet">
<metadata>
Created by potrace 1.10, written by Peter Selinger 2001-2011
</metadata>
<g transform="translate(0.000000,72.000000) scale(0.100000,-0.100000)"
fill="#000000" stroke="none">
<path d="M266 682 c-58 -20 -77 -42 -55 -68 23 -28 75 -44 145 -44 78 0 79 -9
2 -20 l-53 -8 72 -1 c40 0 83 4 97 10 21 10 31 6 86 -32 l61 -43 -38 -20 c-27
-14 -59 -20 -114 -20 -76 -1 -77 -1 -68 22 11 30 11 52 0 52 -5 0 -11 -13 -14
-29 -5 -25 -12 -31 -44 -36 -76 -13 -79 -19 -13 -26 36 -4 94 -5 130 -1 36 3
80 6 98 6 20 0 28 3 20 8 -13 8 -11 9 30 13 28 3 37 -25 37 -120 -1 -91 -31
-161 -93 -215 -43 -38 -119 -70 -166 -70 -18 0 -17 3 10 25 17 13 37 38 44 54
11 27 9 37 -18 93 -31 64 -44 60 -17 -5 22 -54 19 -75 -19 -113 -35 -35 -51
-37 -111 -14 -37 14 -120 104 -144 155 -25 53 -43 128 -36 149 16 52 14 49 38
34 31 -21 61 -28 156 -37 46 -5 87 -14 91 -21 5 -8 9 -5 13 9 4 17 14 21 49
23 23 0 -20 4 -97 8 -141 7 -217 26 -228 54 -3 8 16 30 44 51 49 37 76 71 65
82 -6 6 -114 -71 -134 -96 -20 -25 -32 -83 -34 -163 -3 -161 97 -276 260 -299
194 -28 345 104 346 301 1 126 -7 138 -163 256 -13 10 -13 15 -2 27 21 26 -3
54 -61 72 -66 19 -110 18 -172 -3z m161 -11 c7 -3 -26 -6 -72 -6 -46 0 -82 2
-80 4 18 18 120 19 152 2z m53 -40 c0 -17 -29 -39 -61 -46 -45 -10 -135 4
-161 25 -22 17 -21 18 67 13 51 -3 101 0 115 5 32 14 40 14 40 3z m-335 -477
c15 -20 45 -49 68 -65 43 -31 43 -38 -2 -15 -61 32 -132 134 -131 188 1 16 7
7 20 -25 10 -27 31 -64 45 -83z"/>
</g>
</svg>
