<?xml version="1.0" standalone="no"?>
<!DOCTYPE svg PUBLIC "-//W3C//DTD SVG 20010904//EN"
 "http://www.w3.org/TR/2001/REC-SVG-20010904/DTD/svg10.dtd">
<svg version="1.0" xmlns="http://www.w3.org/2000/svg"
 width="72.000000pt" height="72.000000pt" viewBox="0 0 72.000000 72.000000"
 preserveAspectRatio="xMidYMid meet">
<metadata>
Created by potrace 1.10, written by Peter Selinger 2001-2011
</metadata>
<g transform="translate(0.000000,72.000000) scale(0.100000,-0.100000)"
fill="#000000" stroke="none">
<path d="M220 668 c-24 -6 -55 -21 -67 -34 -12 -13 -31 -24 -41 -24 -10 0 -24
-11 -30 -25 -7 -16 -17 -23 -27 -19 -15 6 -33 -21 -21 -34 4 -3 28 -6 54 -7
37 0 46 -3 43 -15 -4 -19 -10 -98 -11 -165 -1 -53 -8 -47 -28 25 -8 28 -10 7
-11 -102 -1 -92 -5 -138 -12 -138 -7 0 -10 57 -9 182 1 101 1 188 -1 193 -2 6
-6 -89 -9 -210 -3 -121 -9 -228 -14 -237 -8 -17 11 -18 323 -18 324 0 331 0
331 20 0 11 -7 20 -15 20 -12 0 -15 35 -17 222 -3 204 -2 222 15 226 25 6 21
31 -7 41 -13 5 -26 17 -29 25 -4 9 -13 16 -21 16 -8 0 -27 11 -43 23 -15 13
-49 29 -75 35 -56 14 -215 14 -278 0z m275 -9 c24 -6 51 -20 61 -30 20 -22 18
-22 -79 -8 -61 9 -88 8 -152 -5 -75 -16 -175 -22 -175 -11 0 17 41 46 76 54
56 13 217 13 269 0z m114 -95 c17 -4 31 -9 31 -13 0 -5 -545 -6 -560 0 -43 14
458 27 529 13z m-19 -38 c34 -1 44 -5 41 -16 -1 -8 -6 -54 -11 -103 -4 -48
-10 -90 -13 -94 -4 -3 -7 3 -7 15 0 12 -4 22 -10 22 -6 0 -10 -44 -10 -111 0
-80 -3 -108 -11 -103 -9 5 -10 57 -6 185 3 103 1 181 -4 185 -5 3 -9 -84 -9
-210 l0 -216 -195 0 -195 0 0 215 c0 118 -1 218 -2 223 -2 4 21 8 50 10 l52 3
0 -34 c0 -23 -8 -41 -26 -58 -61 -57 -73 -150 -29 -225 87 -149 325 -84 325
89 0 59 -14 94 -52 134 -17 17 -28 38 -26 45 3 7 2 22 -3 33 -6 16 -8 14 -8
-13 -1 -30 -3 -33 -23 -25 -29 10 -85 10 -120 0 -26 -7 -28 -5 -28 22 0 26 4
30 33 34 17 3 79 2 137 0 58 -3 125 -6 150 -7z m-159 -86 c31 -17 68 -74 74
-115 5 -31 1 -50 -17 -84 -32 -59 -77 -83 -146 -78 -45 3 -59 9 -89 39 -75 76
-56 194 40 239 43 20 99 19 138 -1z m-284 -217 c-1 -43 -3 -8 -3 77 0 85 2
120 3 78 2 -43 2 -113 0 -155z m500 -5 c-1 -46 -3 -11 -3 77 0 88 2 125 3 83
2 -42 2 -114 0 -160z m-534 -65 c4 -31 1 -43 -7 -43 -14 0 -17 21 -9 63 6 36
9 32 16 -20z m497 -8 c0 -25 -4 -45 -10 -45 -11 0 -13 33 -4 68 10 34 14 27
14 -23z m23 -82 c-18 -2 -48 -2 -65 0 -18 2 -4 4 32 4 36 0 50 -2 33 -4z"/>
<path d="M317 352 c-26 -28 -21 -69 9 -89 24 -15 29 -15 53 -2 16 9 27 25 29
43 7 55 -56 87 -91 48z m67 -5 c14 -10 17 -21 11 -45 -3 -18 -11 -30 -16 -26
-5 3 -9 0 -9 -5 0 -6 -8 -11 -17 -10 -10 0 -13 3 -6 6 8 3 4 12 -12 27 -29 27
-31 41 -7 55 23 14 35 13 56 -2z"/>
</g>
</svg>
