<?xml version="1.0" standalone="no"?>
<!DOCTYPE svg PUBLIC "-//W3C//DTD SVG 20010904//EN"
 "http://www.w3.org/TR/2001/REC-SVG-20010904/DTD/svg10.dtd">
<svg version="1.0" xmlns="http://www.w3.org/2000/svg"
 width="72.000000pt" height="72.000000pt" viewBox="0 0 72.000000 72.000000"
 preserveAspectRatio="xMidYMid meet">
<metadata>
Created by potrace 1.10, written by Peter Selinger 2001-2011
</metadata>
<g transform="translate(0.000000,72.000000) scale(0.100000,-0.100000)"
fill="#000000" stroke="none">
<path d="M354 659 c-9 -10 -13 -22 -10 -27 3 -5 -8 -24 -25 -43 l-30 -34 26
38 c46 63 20 41 -51 -45 -93 -112 -102 -124 -86 -114 21 13 102 -3 102 -20 0
-8 -8 -14 -19 -14 -37 0 -110 13 -107 19 2 3 -18 4 -46 2 l-50 -3 4 -33 c2
-19 1 -33 -2 -33 -32 3 -40 -4 -40 -35 0 -31 4 -35 40 -46 42 -12 47 -26 41
-98 -2 -25 18 -41 29 -23 4 7 6 33 4 57 -4 40 -3 45 13 38 10 -4 26 -10 36
-12 13 -4 17 -16 17 -49 0 -24 -4 -44 -10 -44 -20 0 -9 -20 19 -35 37 -19 61
-10 61 22 0 13 -4 21 -10 18 -6 -4 -9 10 -8 34 1 44 11 53 45 40 27 -10 37
-45 30 -105 -3 -34 -1 -47 10 -51 22 -9 26 3 24 67 -1 34 1 69 4 80 6 19 56
50 81 50 7 0 19 6 27 14 8 8 35 17 60 21 l47 7 1 -33 c1 -19 2 -45 3 -59 1
-14 7 -25 15 -25 10 0 15 14 17 47 3 39 0 48 -14 49 -25 1 13 16 61 24 l37 6
0 59 0 60 -62 1 c-62 0 -63 0 -38 17 53 36 91 76 88 91 -2 9 -18 18 -40 22
-21 3 -35 2 -32 -3 3 -4 -14 -7 -38 -7 l-43 2 35 7 c35 7 35 7 5 9 -41 2 -103
20 -111 32 -3 6 4 21 17 35 12 13 21 26 18 28 -2 2 -32 6 -67 8 -50 3 -65 1
-78 -13z m37 -53 c-16 -19 -5 -56 17 -56 9 0 40 -14 67 -30 53 -31 110 -39
147 -19 15 8 19 8 14 0 -14 -23 -86 -51 -130 -51 -34 0 -50 6 -66 22 -22 24
-25 21 -10 -16 8 -23 15 -26 58 -26 27 0 78 -3 113 -7 79 -8 50 -20 -53 -22
l-68 -1 0 -34 c0 -45 -9 -66 -27 -66 -8 0 -39 -12 -69 -27 -44 -22 -59 -25
-74 -16 -10 7 -28 9 -40 6 -13 -4 -25 0 -31 8 -7 11 -9 10 -9 -5 0 -14 -5 -17
-22 -12 -13 4 -53 14 -90 23 -38 9 -68 21 -68 25 0 10 92 2 145 -13 16 -4 85
29 85 41 0 6 5 8 11 4 14 -8 8 38 -6 48 -5 4 11 8 36 8 65 0 109 10 109 25 0
9 -11 10 -42 4 -59 -11 -98 -11 -98 1 0 6 28 10 65 10 36 0 65 2 65 4 0 3 -12
37 -26 77 -21 59 -24 76 -15 97 7 13 14 22 18 19 3 -4 0 -13 -6 -21z m43 -8
c18 -36 19 -38 9 -38 -22 1 -44 30 -38 49 8 28 11 27 29 -11z m-179 -92 c-36
-45 -59 -64 -33 -28 45 61 62 81 66 77 2 -2 -13 -24 -33 -49z m129 8 c9 -26
13 -50 10 -55 -6 -10 -94 -12 -118 -3 -22 9 -20 23 9 67 20 28 32 37 54 37 26
0 31 -6 45 -46z m165 10 c17 -4 31 -10 31 -15 0 -15 -57 -10 -70 6 -14 17 -8
18 39 9z m141 -158 c0 -36 -15 -48 -49 -39 -17 4 -19 9 -10 24 5 11 7 23 4 28
-6 10 11 19 38 20 13 1 17 -7 17 -33z m-462 7 c23 -3 42 -10 42 -15 0 -4 -10
-6 -22 -3 -13 2 -50 9 -82 15 -69 12 -92 26 -26 16 25 -4 64 -10 88 -13z m382
-3 c0 -16 -37 -30 -79 -30 -39 0 -53 14 -34 33 10 11 113 8 113 -3z m-427 -21
c31 -7 57 -15 57 -19 0 -23 -117 -19 -132 4 -20 29 -8 31 75 15z"/>
<path d="M365 341 c-16 -10 -39 -28 -49 -40 -34 -38 5 -24 53 19 47 43 45 52
-4 21z"/>
</g>
</svg>
