<?xml version="1.0" standalone="no"?>
<!DOCTYPE svg PUBLIC "-//W3C//DTD SVG 20010904//EN"
 "http://www.w3.org/TR/2001/REC-SVG-20010904/DTD/svg10.dtd">
<svg version="1.0" xmlns="http://www.w3.org/2000/svg"
 width="72.000000pt" height="72.000000pt" viewBox="0 0 72.000000 72.000000"
 preserveAspectRatio="xMidYMid meet">
<metadata>
Created by potrace 1.10, written by Peter Selinger 2001-2011
</metadata>
<g transform="translate(0.000000,72.000000) scale(0.100000,-0.100000)"
fill="#000000" stroke="none">
<path d="M95 663 c30 -45 15 -57 -24 -19 -24 23 -30 25 -40 12 -10 -12 -4 -20
33 -49 28 -21 41 -38 36 -43 -6 -6 94 -113 260 -279 l270 -269 35 34 c19 19
34 38 33 42 -2 4 -122 127 -267 273 -186 186 -268 262 -276 255 -8 -7 -21 4
-44 35 -39 54 -52 60 -16 8z m75 -63 c0 -5 -9 -15 -20 -22 -11 -7 -20 -17 -20
-22 0 -5 11 1 25 14 l25 24 116 -115 c278 -273 365 -366 352 -376 -20 -15 -59
-14 -75 3 -8 7 -10 14 -4 14 5 0 13 -5 16 -10 7 -11 25 -4 25 9 0 10 -39 24
-58 22 -7 -1 -19 5 -28 14 -8 8 -11 15 -5 15 5 0 13 -5 16 -10 7 -11 25 -4 25
9 0 11 -39 24 -62 21 -10 -1 -18 4 -18 9 0 6 5 10 11 9 6 -2 13 2 16 8 4 11
-25 25 -61 27 -11 1 -21 9 -24 17 -4 12 -3 13 10 3 14 -12 28 -8 28 8 0 9 -40
22 -62 19 -10 -1 -18 4 -18 9 0 6 5 10 11 8 6 -1 13 3 16 9 4 12 -31 27 -55
25 -7 -1 -19 5 -28 14 -8 8 -11 15 -5 15 5 0 13 -5 16 -10 7 -12 25 -4 25 11
0 5 -6 9 -13 9 -7 0 -30 17 -51 39 -24 25 -44 37 -56 34 -10 -3 -20 2 -24 13
-5 13 -4 15 7 6 8 -7 17 -9 20 -5 11 11 8 23 -6 23 -7 0 -28 16 -47 35 -24 25
-37 32 -46 24 -20 -17 -28 9 -10 36 17 25 36 33 36 15z m508 -512 c-3 -7 -14
-14 -26 -16 -12 -2 -22 -8 -22 -14 0 -6 -3 -8 -7 -5 -9 9 27 47 44 47 8 0 13
-6 11 -12z"/>
</g>
</svg>
