<?xml version="1.0" standalone="no"?>
<!DOCTYPE svg PUBLIC "-//W3C//DTD SVG 20010904//EN"
 "http://www.w3.org/TR/2001/REC-SVG-20010904/DTD/svg10.dtd">
<svg version="1.0" xmlns="http://www.w3.org/2000/svg"
 width="72.000000pt" height="72.000000pt" viewBox="0 0 72.000000 72.000000"
 preserveAspectRatio="xMidYMid meet">
<metadata>
Created by potrace 1.10, written by Peter Selinger 2001-2011
</metadata>
<g transform="translate(0.000000,72.000000) scale(0.100000,-0.100000)"
fill="#000000" stroke="none">
<path d="M65 518 c-57 -46 -67 -84 -27 -99 22 -8 22 -8 7 13 -25 37 -18 39 52
13 37 -14 71 -24 77 -22 6 2 -15 12 -46 22 -32 10 -58 25 -58 32 0 7 18 25 41
40 l41 27 99 -33 c54 -19 96 -37 94 -41 -3 -5 5 -6 17 -3 19 4 20 3 8 -7 -12
-9 -11 -10 9 -5 15 5 21 3 17 -3 -4 -6 3 -8 16 -5 19 4 20 3 8 -6 -18 -13 -1
-15 18 -2 9 5 -34 25 -125 59 -188 69 -187 69 -248 20z"/>
<path d="M145 502 c6 -5 28 -15 50 -22 22 -7 96 -38 165 -70 69 -31 139 -60
155 -64 17 -4 38 -9 47 -12 10 -3 18 -1 18 3 0 5 -20 14 -45 21 -25 7 -105 41
-178 77 -72 36 -152 68 -177 71 -30 4 -42 3 -35 -4z"/>
<path d="M82 418 c2 -12 9 -23 16 -26 18 -6 15 35 -4 42 -11 4 -15 0 -12 -16z"/>
<path d="M473 433 c4 -3 5 -8 2 -13 -3 -4 5 -6 17 -2 16 4 19 2 13 -8 -5 -8
-4 -11 3 -7 5 4 35 -3 66 -14 55 -21 55 -22 39 -45 -15 -23 -14 -24 3 -18 12
4 4 -9 -20 -34 -39 -41 -39 -41 -65 -23 -35 23 -262 123 -268 117 -2 -2 5 -7
16 -11 12 -3 21 -10 21 -14 0 -4 6 -8 14 -8 19 0 76 -24 76 -32 0 -4 10 -7 22
-8 11 -1 25 -8 29 -15 5 -7 9 -9 9 -4 0 5 7 2 16 -5 10 -8 40 -24 67 -35 l50
-22 25 29 c35 42 48 35 16 -8 l-28 -38 48 45 c27 25 44 36 38 25 -6 -11 -25
-34 -44 -52 -32 -31 -35 -31 -75 -20 -24 6 -43 16 -43 23 0 19 -28 25 -33 6
-3 -13 -7 -10 -15 11 -13 31 -29 35 -35 10 -3 -14 -6 -12 -15 10 -13 30 -32
36 -32 9 0 -13 31 -32 111 -69 l110 -52 37 41 c55 61 61 71 62 96 0 17 -8 27
-29 35 -16 6 -32 18 -34 26 -2 9 -38 29 -83 45 -75 27 -108 38 -91 29z"/>
<path d="M120 402 c0 -11 7 -23 16 -26 11 -4 15 0 12 16 -4 28 -28 36 -28 10z"/>
<path d="M210 362 c0 -11 7 -23 16 -26 11 -4 15 0 12 16 -4 28 -28 36 -28 10z"/>
<path d="M250 341 c0 -17 27 -37 37 -27 7 7 -17 46 -27 46 -6 0 -10 -9 -10
-19z"/>
<path d="M300 322 c0 -11 7 -23 16 -26 11 -4 15 0 12 16 -4 28 -28 36 -28 10z"/>
<path d="M340 301 c0 -10 7 -22 16 -25 22 -8 24 -5 17 22 -7 27 -33 29 -33 3z"/>
</g>
</svg>
