<?xml version="1.0" standalone="no"?>
<!DOCTYPE svg PUBLIC "-//W3C//DTD SVG 20010904//EN"
 "http://www.w3.org/TR/2001/REC-SVG-20010904/DTD/svg10.dtd">
<svg version="1.0" xmlns="http://www.w3.org/2000/svg"
 width="72.000000pt" height="72.000000pt" viewBox="0 0 72.000000 72.000000"
 preserveAspectRatio="xMidYMid meet">
<metadata>
Created by potrace 1.10, written by Peter Selinger 2001-2011
</metadata>
<g transform="translate(0.000000,72.000000) scale(0.100000,-0.100000)"
fill="#000000" stroke="none">
<path d="M28 689 c-27 -15 -22 -46 9 -61 23 -11 80 -88 97 -132 2 -6 11 -1 21
12 28 38 57 62 68 55 6 -4 -10 -25 -36 -48 -26 -23 -47 -45 -47 -49 0 -4 6
-22 14 -39 8 -18 20 -52 26 -75 14 -53 81 -124 134 -142 21 -6 40 -9 43 -6 3
3 -3 8 -13 11 -85 26 -145 90 -152 165 -4 48 -3 52 33 85 21 19 42 32 47 29 4
-3 8 -1 8 5 0 14 29 41 45 41 7 0 16 -8 19 -17 4 -10 4 -15 1 -11 -10 10 -65
-45 -65 -66 0 -31 23 -89 46 -114 l20 -23 12 26 c16 35 3 56 -14 24 -11 -21
-13 -22 -19 -7 -7 17 51 118 76 134 21 12 22 -7 2 -29 -30 -33 -45 -65 -33
-72 5 -3 10 -2 10 4 0 6 13 25 28 43 33 39 33 70 2 103 -18 19 -34 25 -67 25
-24 0 -55 7 -68 16 -21 14 -28 14 -42 3 -9 -8 -14 -9 -10 -3 4 7 -13 19 -46
33 -34 14 -45 16 -32 5 11 -8 30 -17 43 -21 25 -6 30 -23 7 -23 -8 0 -15 4
-15 8 0 5 -16 16 -36 25 -22 11 -32 22 -28 29 5 8 2 9 -10 5 -10 -4 -15 -3
-11 3 3 6 0 13 -8 16 -8 3 -17 14 -20 25 -6 21 -14 23 -39 8z m243 -147 c-18
-33 -89 -94 -95 -83 -9 15 29 68 54 76 11 4 18 10 16 14 -3 4 4 8 15 8 15 1
17 -2 10 -15z m114 -46 c-8 -11 -26 -37 -40 -58 -32 -48 -45 -55 -45 -24 0 13
-2 30 -5 38 -2 7 8 22 23 32 l27 19 -20 -24 c-11 -14 -5 -9 14 12 19 21 40 35
48 32 12 -5 11 -9 -2 -27z"/>
<path d="M485 493 c-27 -7 -35 -21 -35 -67 0 -60 35 -123 91 -163 38 -27 57
-51 87 -111 35 -72 43 -112 21 -112 -6 0 -6 7 0 19 8 14 5 23 -16 42 -14 13
-34 42 -44 64 -10 22 -45 64 -79 93 -72 63 -94 101 -85 145 l6 32 -16 -29
c-33 -62 -53 -116 -44 -121 5 -3 16 13 26 36 9 24 18 38 20 32 3 -7 -3 -25
-11 -42 -9 -16 -12 -32 -7 -35 4 -3 13 6 20 20 6 14 16 22 21 19 7 -4 7 -12 0
-25 -13 -24 -13 -30 0 -30 6 0 10 7 10 15 0 8 5 15 11 15 6 0 8 -9 4 -22 -6
-16 -4 -20 8 -15 9 3 18 -1 21 -9 3 -8 11 -13 18 -12 7 2 12 -4 10 -13 -1 -9
5 -23 15 -30 15 -13 15 -12 4 9 -7 13 -8 22 -2 22 13 0 32 -35 24 -44 -9 -9
18 -56 29 -50 4 3 8 -4 8 -16 0 -12 4 -19 9 -16 4 3 13 -6 19 -19 24 -53 -23
-21 -68 45 -13 19 -31 40 -40 46 -8 7 -28 24 -43 38 -15 14 -33 26 -39 26 -7
0 8 -17 33 -38 24 -20 52 -46 61 -57 9 -11 31 -36 47 -56 39 -47 102 -66 120
-37 12 20 2 46 -47 121 -24 36 -25 42 -14 83 34 127 -11 234 -104 248 -16 2
-38 2 -49 -1z m80 -51 c37 -31 55 -66 55 -107 0 -22 -4 -46 -9 -54 -23 -37
-110 47 -126 121 -12 53 37 77 80 40z"/>
</g>
</svg>
