<?xml version="1.0" standalone="no"?>
<!DOCTYPE svg PUBLIC "-//W3C//DTD SVG 20010904//EN"
 "http://www.w3.org/TR/2001/REC-SVG-20010904/DTD/svg10.dtd">
<svg version="1.0" xmlns="http://www.w3.org/2000/svg"
 width="72.000000pt" height="72.000000pt" viewBox="0 0 72.000000 72.000000"
 preserveAspectRatio="xMidYMid meet">
<metadata>
Created by potrace 1.10, written by Peter Selinger 2001-2011
</metadata>
<g transform="translate(0.000000,72.000000) scale(0.100000,-0.100000)"
fill="#000000" stroke="none">
<path d="M16 692 c-2 -4 68 -149 157 -322 l162 -315 75 -17 c148 -32 220 -18
267 53 61 93 34 193 -71 259 -33 21 -169 109 -301 194 -219 142 -275 171 -289
148z m316 -183 c305 -197 287 -183 265 -207 -9 -10 -15 -21 -12 -24 3 -3 -5
-13 -17 -24 l-23 -19 19 23 c11 12 14 22 8 22 -6 0 -16 -9 -22 -20 -6 -11 -8
-20 -4 -20 4 0 -2 -10 -14 -22 -11 -13 -21 -26 -21 -31 0 -4 -12 -23 -27 -43
-15 -19 -25 -36 -23 -39 3 -2 13 9 24 26 11 16 24 29 28 29 5 0 -1 -12 -12
-26 -12 -15 -21 -33 -21 -40 0 -8 -4 -14 -10 -14 -5 0 -10 -7 -10 -16 0 -17
-16 -14 -82 14 -28 12 -35 19 -27 28 7 9 7 18 0 31 -6 10 -11 12 -11 6 0 -23
-19 -14 -26 12 -3 14 -11 25 -17 25 -6 0 -2 7 9 16 18 14 18 15 -6 8 l-25 -6
27 21 c29 24 43 27 32 9 -4 -7 -3 -9 1 -5 15 13 14 36 0 31 -11 -5 -13 8 -6
34 1 1 1 5 2 10 0 4 7 14 15 24 12 13 13 17 2 24 -7 4 -10 3 -5 -1 4 -5 1 -15
-7 -24 -8 -9 -15 -20 -15 -26 0 -5 -5 -11 -12 -14 -7 -2 -9 1 -4 9 6 9 4 11
-5 5 -10 -6 -9 -11 4 -21 10 -7 18 -14 19 -17 4 -9 -26 -37 -41 -37 -13 0 -12
3 4 15 18 14 18 14 -2 9 -12 -3 -25 -1 -29 6 -4 7 -2 10 6 8 8 -1 14 2 14 7 0
6 -5 9 -12 7 -14 -3 -36 32 -26 42 3 3 0 6 -7 6 -7 0 -11 2 -8 5 3 3 13 2 22
-1 14 -5 15 -9 4 -15 -10 -7 -11 -9 0 -9 7 0 10 -5 6 -11 -4 -8 0 -8 15 0 25
14 28 23 4 14 -10 -4 -14 -2 -9 5 3 6 -1 15 -10 20 -9 5 -15 13 -14 18 1 5 -4
10 -12 12 -9 2 -8 0 2 -7 9 -7 10 -11 3 -11 -21 0 -44 42 -31 57 9 11 7 12 -8
7 -19 -5 -19 -5 0 10 18 14 17 15 -8 22 -18 4 -35 23 -56 62 -29 54 -32 71
-11 57 6 -3 9 -11 6 -16 -4 -5 1 -12 9 -15 9 -3 14 -10 11 -14 -3 -5 0 -12 6
-16 8 -5 9 -3 4 6 -6 10 -4 12 9 7 9 -4 14 -3 11 2 -3 5 -1 12 4 15 5 4 8 14
6 24 -1 9 1 22 6 28 5 6 4 11 -4 11 -8 0 -13 -12 -13 -30 1 -17 -4 -32 -11
-34 -8 -3 -11 3 -8 16 2 13 -1 18 -10 15 -9 -4 -12 4 -10 26 1 16 -2 33 -8 37
-6 4 -7 1 -3 -6 5 -8 3 -11 -7 -9 -9 2 -15 -1 -14 -7 1 -5 8 -9 15 -7 19 4 14
-6 -8 -18 -17 -9 -23 -4 -50 49 -31 62 -26 82 15 56 11 -7 127 -82 257 -166z
m344 -250 c31 -61 15 -137 -38 -186 -31 -28 -102 -49 -127 -37 -19 9 -19 11
13 64 18 30 52 88 75 128 23 40 46 70 52 67 5 -4 16 -20 25 -36z m-117 -78
c-18 -33 -41 -70 -52 -83 -21 -25 -19 -22 48 95 39 68 42 58 4 -12z"/>
<path d="M239 534 c-18 -22 -20 -84 -3 -77 9 3 12 -2 9 -16 -4 -23 21 -42 44
-33 9 3 11 0 6 -8 -5 -8 -4 -11 3 -7 5 4 9 15 7 25 -1 9 4 25 13 35 8 9 12 17
7 17 -4 0 -1 8 6 18 13 16 13 16 -7 0 -27 -23 -34 -23 -29 3 3 12 1 18 -3 15
-4 -4 -8 -12 -8 -17 -1 -5 -3 -11 -4 -14 -1 -3 -3 -15 -4 -27 0 -12 -6 -23
-12 -25 -9 -3 -12 45 -4 55 1 1 3 5 4 10 1 4 5 12 9 19 4 6 2 15 -5 19 -7 4
-10 4 -6 -1 9 -9 -9 -35 -24 -35 -6 0 -5 7 2 15 7 8 9 15 5 15 -4 0 -2 7 5 15
7 8 10 15 7 15 -2 0 -11 -7 -18 -16z"/>
<path d="M344 459 c-10 -12 -19 -29 -19 -38 0 -9 -4 -21 -8 -28 -4 -6 -2 -15
5 -19 7 -4 10 -4 6 1 -4 4 -3 14 3 22 6 7 8 13 4 13 -4 0 -2 7 5 15 7 8 9 15
5 15 -5 0 0 9 10 20 10 11 16 20 13 20 -3 0 -13 -9 -24 -21z"/>
<path d="M395 422 c3 -3 -2 -14 -12 -24 -9 -10 -13 -18 -8 -18 4 0 2 -6 -4
-14 -8 -10 -9 -16 -1 -21 11 -7 12 -5 14 24 0 10 9 28 19 38 14 16 15 20 2 20
-8 0 -13 -3 -10 -5z"/>
<path d="M419 404 c-13 -16 -22 -71 -10 -58 3 3 6 9 6 12 0 4 5 14 10 22 9 15
16 40 10 40 -1 0 -9 -7 -16 -16z"/>
<path d="M210 390 c-11 -7 -11 -10 -2 -10 7 0 10 -5 6 -11 -4 -8 -1 -8 12 -1
23 11 47 5 37 -11 -3 -7 -2 -8 2 -4 16 14 14 36 -3 30 -11 -5 -13 -3 -7 8 6
11 5 12 -6 2 -16 -15 -33 -17 -24 -3 8 12 4 12 -15 0z"/>
<path d="M291 373 c1 -4 0 -10 -1 -13 -9 -25 -6 -38 8 -33 11 5 13 3 7 -8 -6
-11 -5 -12 5 -2 20 19 21 43 2 36 -10 -4 -13 -2 -8 5 3 6 2 14 -4 17 -6 4 -10
3 -9 -2z"/>
<path d="M408 311 c-25 -20 -36 -71 -16 -71 7 0 -6 -19 -27 -42 -36 -39 -37
-40 -5 -11 25 22 43 30 62 28 65 -8 94 71 37 101 -24 12 -30 11 -51 -5z m26
-3 c-5 -7 -2 -9 8 -5 22 8 30 -3 15 -21 -10 -13 -9 -15 4 -10 23 9 20 -18 -4
-39 -11 -10 -17 -13 -14 -7 4 7 0 15 -9 18 -8 3 -12 2 -9 -3 3 -5 0 -13 -6
-17 -7 -4 -9 -3 -6 3 4 6 0 14 -9 17 -13 5 -14 9 -4 21 10 12 10 15 -1 15 -8
0 -3 9 11 20 29 23 34 24 24 8z"/>
<path d="M419 293 c-1 -2 -2 -6 -3 -10 -1 -5 -4 -13 -8 -19 -4 -6 0 -10 10 -9
9 0 19 5 20 10 2 6 8 15 12 20 6 7 2 11 -11 11 -10 0 -20 -2 -20 -3z"/>
<path d="M480 195 c-27 -28 -49 -34 -29 -7 7 9 -4 1 -24 -17 -20 -19 -37 -37
-37 -40 0 -2 11 6 25 19 28 27 34 17 8 -14 -10 -12 -4 -9 13 7 17 15 33 25 37
22 4 -3 5 -2 2 2 -3 3 5 17 17 30 12 13 19 23 16 23 -2 0 -15 -11 -28 -25z"/>
<path d="M620 225 c0 -5 9 -32 20 -60 l19 -50 1 36 c0 22 -8 46 -20 60 -10 13
-19 20 -20 14z"/>
</g>
</svg>
