<?xml version="1.0" standalone="no"?>
<!DOCTYPE svg PUBLIC "-//W3C//DTD SVG 20010904//EN"
 "http://www.w3.org/TR/2001/REC-SVG-20010904/DTD/svg10.dtd">
<svg version="1.0" xmlns="http://www.w3.org/2000/svg"
 width="72.000000pt" height="72.000000pt" viewBox="0 0 72.000000 72.000000"
 preserveAspectRatio="xMidYMid meet">
<metadata>
Created by potrace 1.10, written by Peter Selinger 2001-2011
</metadata>
<g transform="translate(0.000000,72.000000) scale(0.100000,-0.100000)"
fill="#000000" stroke="none">
<path d="M153 671 c-78 -57 -152 -148 -139 -170 3 -5 27 -6 52 -3 34 3 45 2
40 -7 -4 -6 -13 -11 -20 -11 -25 0 -60 -50 -60 -86 0 -31 11 -46 99 -134 55
-55 95 -100 90 -100 -5 0 15 -25 45 -55 53 -54 116 -87 129 -68 3 5 21 15 39
22 17 8 45 29 62 47 16 19 31 30 34 25 3 -5 -1 -14 -9 -21 -20 -16 -19 -45 1
-65 23 -23 64 -8 77 29 4 11 66 -22 84 -44 11 -13 14 -13 22 0 12 17 5 30 -14
30 -17 0 -110 54 -142 83 -12 10 -19 25 -16 33 8 21 20 17 26 -8 4 -12 9 -20
12 -17 6 7 -22 79 -31 79 -3 0 -4 -7 0 -15 3 -8 0 -15 -5 -15 -7 0 -9 9 -6 22
6 22 -39 96 -51 84 -7 -8 -52 34 -52 48 0 6 11 -2 25 -19 13 -16 24 -25 25
-20 0 6 -33 47 -73 91 -40 44 -83 97 -96 117 -27 44 -33 46 -27 10 l5 -28 -29
34 c-39 46 -55 93 -40 121 11 20 6 40 -9 40 -4 0 -26 -13 -48 -29z m37 -70
c20 -43 40 -69 89 -116 6 -5 24 -26 41 -46 26 -32 28 -38 14 -43 -9 -4 -18 -5
-18 -4 -1 2 -23 28 -48 58 -87 105 -118 152 -118 176 0 38 14 28 40 -25z m-41
-56 c26 -13 150 -155 136 -155 -4 0 -25 16 -48 35 -50 43 -174 107 -182 94 -9
-14 -25 -11 -25 4 0 8 19 33 43 56 l42 42 3 -30 c2 -22 11 -35 31 -46z m226
-133 c28 -30 42 -52 33 -49 -12 4 -18 1 -18 -8 0 -8 6 -15 13 -16 6 0 29 -21
51 -45 32 -37 35 -44 19 -44 -11 0 -33 19 -53 45 -30 40 -34 43 -46 27 -7 -9
-14 -12 -14 -6 0 5 5 15 12 22 7 7 8 13 3 13 -6 1 -17 2 -25 3 -8 0 -16 10
-18 20 -4 19 -3 19 21 3 41 -27 39 -5 -4 46 -57 66 -35 57 26 -11z m-212 36
c12 -6 60 -46 107 -87 47 -42 104 -90 127 -106 49 -35 70 -74 54 -103 -13 -24
-54 -52 -77 -52 -18 0 -281 250 -302 288 -11 20 -10 25 12 47 28 28 46 31 79
13z m343 -233 c8 -34 -8 -77 -34 -86 -21 -8 -22 -8 -6 16 9 14 14 32 10 40 -3
10 -2 13 5 10 6 -4 7 3 3 19 -4 16 -2 26 5 26 6 0 13 -11 17 -25z m-194 -95
c23 -26 64 -35 96 -20 27 12 27 12 8 -9 -29 -32 -67 -27 -106 14 -19 19 -30
35 -24 35 5 0 17 -9 26 -20z m247 -19 c19 -12 6 -41 -19 -41 -13 0 -20 7 -20
18 0 31 14 39 39 23z"/>
<path d="M392 231 c-10 -6 -7 -12 13 -25 33 -22 46 -12 19 14 -12 12 -24 16
-32 11z"/>
</g>
</svg>
