<?xml version="1.0" standalone="no"?>
<!DOCTYPE svg PUBLIC "-//W3C//DTD SVG 20010904//EN"
 "http://www.w3.org/TR/2001/REC-SVG-20010904/DTD/svg10.dtd">
<svg version="1.0" xmlns="http://www.w3.org/2000/svg"
 width="72.000000pt" height="72.000000pt" viewBox="0 0 72.000000 72.000000"
 preserveAspectRatio="xMidYMid meet">
<metadata>
Created by potrace 1.10, written by Peter Selinger 2001-2011
</metadata>
<g transform="translate(0.000000,72.000000) scale(0.100000,-0.100000)"
fill="#000000" stroke="none">
<path d="M90 682 c0 -10 5 -23 12 -30 9 -9 8 -15 -8 -26 -10 -8 -16 -18 -12
-22 4 -4 14 -1 22 5 10 9 16 9 21 1 4 -6 -1 -17 -11 -25 -11 -7 -16 -17 -12
-21 4 -4 13 -2 20 4 10 8 26 -13 70 -91 l58 -102 -2 -87 c-1 -91 8 -125 50
-191 65 -99 204 -108 285 -18 69 76 75 174 16 261 -49 72 -95 94 -201 96 -105
3 -122 7 -136 40 -10 21 -15 23 -33 13 -15 -8 -19 -8 -15 0 4 6 1 11 -8 11 -8
0 -18 5 -22 12 -5 8 -2 9 10 5 10 -4 15 -3 11 3 -3 6 -1 10 4 10 6 0 11 -7 11
-15 0 -8 5 -15 11 -15 14 0 8 17 -26 69 -14 23 -30 41 -37 41 -12 0 -37 30
-38 45 0 6 3 5 8 -1 5 -8 13 -5 27 9 20 20 20 20 -7 13 -21 -5 -28 -3 -28 9 0
8 -9 15 -20 15 -13 0 -20 -7 -20 -18z m104 -124 c-3 -4 1 -8 8 -8 9 0 9 -3 -2
-10 -8 -5 -19 -10 -25 -10 -5 0 -3 5 5 10 11 7 11 10 2 10 -7 0 -10 4 -7 10 3
6 -1 7 -9 4 -9 -3 -16 -1 -16 4 0 14 33 20 42 8 4 -6 4 -14 2 -18z m78 -123
c6 -14 17 -25 24 -25 13 0 27 -27 19 -39 -2 -4 2 -8 10 -8 10 0 11 5 4 18 -13
25 -12 29 9 29 10 0 24 6 31 13 11 9 12 9 7 0 -5 -9 1 -12 22 -9 50 5 114 -23
159 -70 l41 -45 -17 -60 c-14 -51 -22 -64 -60 -88 -24 -16 -61 -37 -82 -46
-21 -10 -36 -22 -33 -26 5 -9 87 32 162 82 46 31 47 31 31 -26 -10 -37 -12
-38 -25 -20 -13 18 -15 18 -38 -4 -13 -13 -41 -29 -63 -36 -25 -9 -37 -19 -35
-29 7 -40 -91 -1 -124 48 -20 32 -13 53 23 68 15 7 29 13 31 14 2 1 -22 46
-53 100 -30 55 -60 114 -66 132 -6 17 -16 32 -22 32 -7 0 -6 4 3 10 23 15 29
12 42 -15z m44 -207 c12 -23 13 -33 4 -42 -16 -15 -40 19 -40 57 0 34 14 28
36 -15z"/>
<path d="M355 360 c18 -35 19 -44 3 -34 -7 5 -8 3 -3 -6 4 -7 8 -21 9 -31 1
-11 6 -18 11 -17 6 2 9 5 8 8 -12 35 -11 40 2 17 14 -24 14 -31 3 -45 -11 -15
-11 -15 3 -5 9 7 18 11 20 9 2 -2 4 6 4 19 0 13 -4 21 -9 17 -5 -3 -6 2 -3 12
4 10 3 15 -3 11 -5 -3 -18 12 -30 35 -11 22 -23 40 -25 40 -3 0 1 -13 10 -30z"/>
<path d="M427 263 c3 -7 9 -10 14 -7 16 10 9 -13 -13 -42 -22 -29 -22 -29 -1
-11 12 11 26 31 31 46 9 24 7 27 -13 27 -15 0 -21 -5 -18 -13z"/>
<path d="M470 242 c0 -6 -12 -25 -27 -43 -16 -18 -23 -30 -16 -26 6 4 13 2 15
-5 3 -9 6 -9 12 0 4 7 2 12 -4 12 -6 0 -1 13 11 30 13 16 20 33 16 37 -4 3 -7
1 -7 -5z"/>
</g>
</svg>
