<?xml version="1.0" standalone="no"?>
<!DOCTYPE svg PUBLIC "-//W3C//DTD SVG 20010904//EN"
 "http://www.w3.org/TR/2001/REC-SVG-20010904/DTD/svg10.dtd">
<svg version="1.0" xmlns="http://www.w3.org/2000/svg"
 width="72.000000pt" height="72.000000pt" viewBox="0 0 72.000000 72.000000"
 preserveAspectRatio="xMidYMid meet">
<metadata>
Created by potrace 1.10, written by Peter Selinger 2001-2011
</metadata>
<g transform="translate(0.000000,72.000000) scale(0.100000,-0.100000)"
fill="#000000" stroke="none">
<path d="M65 659 c-25 -23 -45 -47 -45 -53 0 -15 572 -586 586 -586 10 0 94
83 94 92 0 4 -584 588 -588 588 -1 0 -23 -19 -47 -41z m179 -127 c68 -67 121
-122 119 -122 -13 0 42 -61 60 -67 28 -8 243 -230 234 -240 -4 -4 -63 47 -130
112 l-122 120 119 -122 c114 -116 119 -123 108 -147 -6 -15 -17 -26 -24 -26
-7 0 -139 126 -293 280 -276 276 -279 279 -260 300 25 27 33 26 80 -17 l40
-38 -37 40 c-38 40 -48 60 -28 53 6 -2 66 -58 134 -126z"/>
<path d="M177 544 c-11 -11 5 -34 24 -34 12 0 19 7 19 20 0 19 -28 28 -43 14z"/>
<path d="M244 426 c-7 -19 21 -56 43 -56 22 0 12 40 -14 57 -20 14 -23 14 -29
-1z"/>
<path d="M467 204 c-10 -10 12 -44 28 -44 18 0 20 21 3 38 -13 13 -22 15 -31
6z"/>
</g>
</svg>
