<?xml version="1.0" standalone="no"?>
<!DOCTYPE svg PUBLIC "-//W3C//DTD SVG 20010904//EN"
 "http://www.w3.org/TR/2001/REC-SVG-20010904/DTD/svg10.dtd">
<svg version="1.0" xmlns="http://www.w3.org/2000/svg"
 width="72.000000pt" height="72.000000pt" viewBox="0 0 72.000000 72.000000"
 preserveAspectRatio="xMidYMid meet">
<metadata>
Created by potrace 1.10, written by Peter Selinger 2001-2011
</metadata>
<g transform="translate(0.000000,72.000000) scale(0.100000,-0.100000)"
fill="#000000" stroke="none">
<path d="M300 673 c0 -5 -18 -7 -40 -7 -40 2 -40 2 -40 -35 0 -27 -3 -32 -10
-21 -8 11 -9 7 -4 -15 14 -62 23 -72 23 -28 1 53 16 93 36 93 20 0 19 -26 -1
-34 -9 -3 -12 -11 -8 -18 15 -24 1 -158 -17 -158 -5 0 -9 12 -10 28 0 15 -3
21 -6 15 -6 -15 -33 -18 -33 -3 0 5 5 20 11 33 8 19 8 30 -1 43 -11 18 -11 18
-5 0 7 -25 -26 -106 -44 -106 -9 0 -11 7 -7 23 4 17 1 24 -9 24 -9 0 -16 -10
-16 -24 -1 -12 -2 -28 -3 -35 -1 -8 18 -11 62 -9 46 2 62 -1 62 -11 0 -10 3
-9 11 2 8 11 9 -23 5 -120 -3 -83 -1 -129 4 -120 6 8 10 58 10 110 0 142 -2
138 86 139 l74 0 0 -53 c0 -29 3 -68 6 -86 l7 -32 -44 22 c-33 17 -40 19 -30
6 7 -9 19 -16 26 -16 23 0 33 -24 39 -92 8 -84 -9 -109 -76 -107 -78 2 -93 10
-93 52 l0 37 -97 0 -98 0 0 -36 c0 -55 44 -94 107 -94 34 0 55 6 69 19 20 18
21 18 43 0 32 -26 110 -26 143 1 25 19 26 19 43 0 13 -15 31 -20 67 -20 65 0
108 38 108 97 0 38 -43 324 -59 398 -7 28 -6 42 2 47 16 10 1 22 -19 14 -11
-4 -14 -13 -10 -29 4 -12 9 -44 13 -72 5 -43 4 -48 -8 -38 -21 17 -52 109 -46
139 2 13 0 27 -5 30 -5 3 -6 13 -4 22 5 14 -1 17 -32 16 -70 -1 -75 -3 -67
-21 3 -10 8 -37 11 -61 8 -82 23 -81 17 1 -6 74 -5 77 16 77 21 0 29 -24 11
-35 -6 -4 -4 -15 6 -29 11 -17 14 -43 12 -92 l-4 -69 -14 33 c-17 39 -40 42
-40 6 0 -20 -3 -24 -13 -16 -21 17 -39 98 -35 155 3 47 1 53 -14 49 -10 -2
-18 1 -18 7 0 6 -11 11 -25 11 -14 0 -25 -3 -25 -7z m54 -35 c17 -41 28 -151
15 -143 -5 4 -9 -3 -9 -14 0 -12 -4 -21 -10 -21 -5 0 -10 3 -10 8 0 4 -4 33
-10 66 -6 39 -6 65 1 77 7 15 6 21 -6 25 -20 8 -20 34 1 34 8 0 21 -15 28 -32z
m-34 -149 c0 -11 -8 -16 -26 -16 -25 0 -26 1 -18 46 4 25 8 57 9 71 1 14 3 27
5 30 3 6 29 -109 30 -131z m204 -1 c-12 -18 -24 6 -24 45 l1 42 14 -39 c8 -22
12 -43 9 -48z m-44 -60 c0 -9 3 -9 12 0 7 7 31 12 54 12 l42 0 13 -85 c6 -46
12 -88 13 -92 0 -5 -13 -10 -30 -13 l-29 -6 26 -7 c21 -5 49 -41 49 -62 0 -3
-37 -6 -82 -7 l-83 -2 75 -5 c68 -5 75 -8 72 -26 -8 -43 -33 -58 -89 -52 -29
3 -57 8 -62 11 -5 4 -10 72 -10 153 -1 80 -4 156 -7 169 -5 20 -2 24 15 24 12
0 21 -5 21 -12z m-238 -298 c-3 -33 -28 -50 -74 -50 -29 0 -41 6 -55 26 -16
25 -16 27 3 41 12 9 38 13 74 11 52 -3 55 -4 52 -28z"/>
<path d="M157 653 c-13 -12 -7 -43 8 -43 8 0 15 4 15 9 0 5 3 16 6 25 6 16
-16 23 -29 9z"/>
<path d="M547 635 c3 -14 11 -25 19 -25 10 0 11 6 5 22 -11 31 -29 34 -24 3z"/>
<path d="M120 591 c0 -5 8 -12 17 -15 11 -5 13 -10 7 -14 -6 -4 -14 -16 -17
-27 -7 -20 -7 -20 8 -1 11 15 15 16 16 5 1 -8 5 -3 9 11 13 40 11 46 -15 48
-14 1 -25 -2 -25 -7z"/>
<path d="M105 373 c-4 -27 -9 -57 -11 -68 -5 -19 -4 -19 9 -2 13 15 23 117 12
117 -2 0 -7 -21 -10 -47z"/>
</g>
</svg>
