<?xml version="1.0" standalone="no"?>
<!DOCTYPE svg PUBLIC "-//W3C//DTD SVG 20010904//EN"
 "http://www.w3.org/TR/2001/REC-SVG-20010904/DTD/svg10.dtd">
<svg version="1.0" xmlns="http://www.w3.org/2000/svg"
 width="72.000000pt" height="72.000000pt" viewBox="0 0 72.000000 72.000000"
 preserveAspectRatio="xMidYMid meet">
<metadata>
Created by potrace 1.10, written by Peter Selinger 2001-2011
</metadata>
<g transform="translate(0.000000,72.000000) scale(0.100000,-0.100000)"
fill="#000000" stroke="none">
<path d="M193 608 c5 -65 -19 -397 -29 -407 -12 -13 -11 22 8 182 18 144 19
180 9 190 -11 10 -12 5 -6 -23 5 -27 4 -32 -5 -20 -9 12 -10 3 -6 -37 3 -32 1
-53 -5 -53 -6 0 -8 -15 -4 -37 4 -29 3 -33 -4 -18 -8 15 -10 8 -10 -35 0 -136
0 -136 -12 -120 -9 12 -10 11 -6 -7 3 -16 0 -23 -9 -23 -8 0 -14 -4 -14 -9 0
-6 -17 -11 -37 -13 -30 -2 -38 -7 -38 -23 0 -15 8 -21 34 -23 19 -2 40 -10 47
-17 16 -16 19 -29 4 -20 -5 3 -10 -1 -10 -9 0 -9 7 -16 15 -16 8 0 15 9 15 20
0 11 7 20 15 20 18 0 18 -5 5 -31 -8 -15 -7 -19 5 -19 10 0 15 10 15 29 0 23
-6 30 -32 39 -29 9 -24 10 42 10 70 0 73 -1 40 -12 -28 -9 -35 -16 -35 -36 0
-26 13 -42 27 -34 4 3 4 14 -2 24 -13 25 -13 30 5 30 9 0 15 -9 15 -25 0 -14
4 -25 9 -25 4 0 6 10 4 23 -8 42 11 46 238 49 206 3 214 4 214 23 0 19 -8 20
-217 23 l-218 2 -6 27 c-4 14 -4 77 -1 139 3 63 2 114 -3 114 -8 0 -20 -137
-20 -225 0 -34 -2 -37 -11 -21 -7 10 -8 34 -5 55 4 20 9 79 12 131 2 52 7 105
9 118 3 12 1 22 -5 22 -5 0 -10 -16 -10 -35 0 -19 -5 -35 -10 -35 -6 0 -8 10
-6 23 8 38 18 100 23 145 4 38 2 42 -18 42 -21 0 -21 -3 -16 -72z m12 -305
c-4 -57 -11 -103 -16 -103 -5 0 -7 19 -4 43 10 92 14 134 16 177 2 35 3 39 6
15 3 -16 2 -76 -2 -132z m45 -133 c0 -18 -7 -20 -70 -20 -63 0 -70 2 -70 20 0
18 7 20 70 20 63 0 70 -2 70 -20z m328 -7 c-60 -2 -156 -2 -215 0 -60 1 -11 3
107 3 118 0 167 -2 108 -3z"/>
</g>
</svg>
