<?xml version="1.0" standalone="no"?>
<!DOCTYPE svg PUBLIC "-//W3C//DTD SVG 20010904//EN"
 "http://www.w3.org/TR/2001/REC-SVG-20010904/DTD/svg10.dtd">
<svg version="1.0" xmlns="http://www.w3.org/2000/svg"
 width="72.000000pt" height="72.000000pt" viewBox="0 0 72.000000 72.000000"
 preserveAspectRatio="xMidYMid meet">
<metadata>
Created by potrace 1.10, written by Peter Selinger 2001-2011
</metadata>
<g transform="translate(0.000000,72.000000) scale(0.100000,-0.100000)"
fill="#000000" stroke="none">
<path d="M65 548 c-46 -36 -67 -116 -49 -184 6 -23 49 -48 65 -38 5 3 30 -6
54 -21 25 -14 50 -23 57 -19 6 4 8 3 5 -3 -8 -12 20 -26 34 -17 5 3 23 2 41
-1 18 -4 26 -10 19 -14 -6 -4 25 -16 70 -26 45 -11 78 -20 72 -22 -27 -9 -224
48 -282 82 -34 20 -65 35 -67 32 -3 -3 28 -23 68 -45 59 -32 108 -48 255 -81
101 -23 193 -41 206 -41 24 0 56 28 76 68 19 36 25 144 9 164 -16 20 -217 110
-229 102 -5 -3 -9 0 -9 7 0 10 -3 10 -12 1 -17 -17 -33 -15 -18 3 11 13 10 14
-5 9 -12 -5 -16 -4 -12 3 4 7 -8 9 -36 7 -31 -3 -38 -1 -27 7 12 8 10 9 -9 4
-13 -4 -21 -3 -18 1 3 5 -28 10 -67 11 -50 1 -73 -2 -74 -10 0 -7 -2 -21 -4
-32 -4 -23 27 -33 35 -10 4 9 1 15 -8 15 -9 0 -12 6 -9 15 4 8 10 15 16 15 5
0 7 -4 4 -9 -4 -5 11 -7 32 -4 26 3 61 -3 108 -19 39 -14 85 -24 103 -23 17 1
31 -2 31 -6 0 -4 21 -15 48 -24 54 -18 103 -44 84 -45 -7 0 -67 18 -134 40
-66 22 -123 39 -125 37 -5 -5 220 -93 230 -89 8 2 -3 -20 -23 -48 -9 -12 -10
-12 -6 5 5 18 -7 23 -122 52 -70 18 -138 35 -152 38 -14 3 29 -14 95 -38 182
-67 175 -64 175 -89 0 -14 -3 -19 -8 -11 -4 7 -41 19 -82 28 -41 8 -121 26
-177 38 -115 26 -141 21 -35 -7 271 -71 295 -79 276 -93 -10 -7 -13 -13 -7
-13 10 0 26 -40 19 -47 -4 -4 -210 38 -216 44 -3 3 15 3 40 -1 38 -5 35 -3
-20 13 -36 10 -81 22 -101 25 -20 4 -77 26 -127 51 -74 36 -90 47 -85 61 4 12
3 15 -5 10 -8 -5 -12 2 -12 23 0 16 4 33 10 36 5 3 10 0 10 -7 0 -12 98 -43
107 -34 3 2 -9 7 -26 11 -38 8 -50 25 -19 26 17 1 14 3 -12 11 -47 13 -52 20
-34 46 10 14 26 22 47 23 27 0 29 2 12 9 -17 6 -14 8 15 12 l35 5 -36 1 c-24
1 -46 -5 -64 -20z m614 -162 c16 -19 20 -83 9 -125 -6 -18 -24 -47 -41 -63
-28 -26 -29 -29 -7 -17 23 11 24 11 11 -4 -16 -21 -54 -22 -70 -3 -35 42 -19
150 29 198 31 31 52 35 69 14z"/>
<path d="M619 294 c-14 -40 -1 -64 29 -53 19 7 23 15 20 41 -4 43 -34 50 -49
12z"/>
<path d="M226 482 c-5 -9 222 -77 230 -69 6 6 -179 77 -203 77 -12 0 -24 -4
-27 -8z"/>
<path d="M203 425 c-3 -9 -4 -18 -1 -20 6 -6 272 -64 276 -60 2 2 -31 15 -75
28 -43 14 -102 35 -131 46 -63 25 -61 25 -69 6z"/>
<path d="M70 405 c17 -20 99 -60 107 -51 3 2 -23 19 -58 37 -45 22 -59 26 -49
14z"/>
<path d="M200 354 c0 -9 270 -77 277 -70 2 2 -52 17 -120 34 -68 17 -131 34
-140 38 -9 3 -17 2 -17 -2z"/>
<path d="M340 280 c73 -22 89 -24 74 -12 -9 9 -107 33 -127 31 -7 0 17 -9 53
-19z"/>
</g>
</svg>
