<?xml version="1.0" standalone="no"?>
<!DOCTYPE svg PUBLIC "-//W3C//DTD SVG 20010904//EN"
 "http://www.w3.org/TR/2001/REC-SVG-20010904/DTD/svg10.dtd">
<svg version="1.0" xmlns="http://www.w3.org/2000/svg"
 width="72.000000pt" height="72.000000pt" viewBox="0 0 72.000000 72.000000"
 preserveAspectRatio="xMidYMid meet">
<metadata>
Created by potrace 1.10, written by Peter Selinger 2001-2011
</metadata>
<g transform="translate(0.000000,72.000000) scale(0.100000,-0.100000)"
fill="#000000" stroke="none">
<path d="M257 672 c-26 -26 -47 -55 -47 -63 0 -8 14 -28 30 -44 17 -16 28 -35
26 -42 -3 -6 3 -21 12 -33 15 -18 16 -41 12 -193 l-5 -172 -42 -23 c-24 -13
-43 -28 -43 -33 0 -13 6 -12 57 16 l46 24 44 -25 c31 -19 43 -22 43 -12 0 8
-18 23 -40 34 l-41 19 -2 167 c-2 150 0 165 14 157 12 -6 22 -2 35 12 l18 20
18 -23 17 -23 48 45 c76 72 78 77 33 122 -17 16 -28 33 -25 38 3 5 -11 25 -30
45 -33 36 -36 37 -58 22 -20 -13 -26 -13 -42 -1 -10 8 -22 14 -25 14 -3 0 -27
-22 -53 -48z m93 14 c21 -12 26 -12 36 3 11 15 15 14 38 -8 28 -26 34 -51 13
-51 -7 0 -19 6 -26 13 -11 10 -13 9 -7 -3 4 -8 0 -6 -8 4 -14 17 -16 18 -16 3
0 -21 -28 -22 -58 -1 -23 16 -30 54 -9 54 6 -1 23 -7 37 -14z m-50 -47 c0 -17
-35 -49 -52 -49 -13 0 -9 33 7 50 20 22 45 21 45 -1z m12 -61 c-16 -17 -35
-27 -41 -24 -6 4 2 18 22 36 42 37 58 27 19 -12z m112 10 c33 -47 8 -67 -47
-39 -33 17 -34 17 -29 -2 5 -21 -20 -47 -45 -47 -22 0 -14 25 17 55 17 16 30
35 30 42 0 23 57 16 74 -9z m61 -3 c29 -28 32 -45 8 -45 -23 0 -53 29 -53 52
0 25 16 23 45 -7z m-75 -69 c0 -10 -61 -48 -67 -42 -10 10 28 46 49 46 10 0
18 -2 18 -4z"/>
<path d="M300 95 c0 -12 40 -84 50 -90 19 -11 10 20 -15 58 -24 34 -35 45 -35
32z"/>
</g>
</svg>
