<?xml version="1.0" standalone="no"?>
<!DOCTYPE svg PUBLIC "-//W3C//DTD SVG 20010904//EN"
 "http://www.w3.org/TR/2001/REC-SVG-20010904/DTD/svg10.dtd">
<svg version="1.0" xmlns="http://www.w3.org/2000/svg"
 width="72.000000pt" height="72.000000pt" viewBox="0 0 72.000000 72.000000"
 preserveAspectRatio="xMidYMid meet">
<metadata>
Created by potrace 1.10, written by Peter Selinger 2001-2011
</metadata>
<g transform="translate(0.000000,72.000000) scale(0.100000,-0.100000)"
fill="#000000" stroke="none">
<path d="M38 679 c-10 -5 -18 -15 -18 -21 0 -6 9 -3 20 7 11 10 20 14 21 9 2
-28 9 -46 28 -70 32 -41 28 -63 -6 -33 -15 13 -4 -3 24 -36 56 -66 93 -102
108 -107 6 -2 10 -8 10 -15 0 -7 7 -18 15 -25 12 -11 12 -10 0 7 -14 18 -14
19 2 6 10 -7 16 -17 13 -21 -2 -4 23 -43 58 -87 34 -43 70 -90 80 -103 18 -25
18 -25 1 4 -12 22 -14 31 -5 34 9 3 7 10 -5 23 -10 11 -12 19 -5 19 6 0 19
-13 29 -29 13 -22 22 -27 32 -20 30 18 34 8 6 -15 l-30 -23 57 -22 c72 -26 95
-27 42 -1 l-40 20 39 -5 c48 -5 64 -25 33 -42 -12 -7 -17 -13 -12 -13 6 0 3
-5 -5 -10 -11 -7 -11 -10 -2 -10 7 0 10 -4 7 -10 -3 -5 -1 -10 5 -10 6 0 9 -3
7 -7 -6 -10 19 -34 27 -26 3 4 6 1 6 -5 0 -13 78 -16 97 -4 16 10 25 62 11 62
-6 0 -8 3 -5 6 11 12 -66 65 -89 62 -12 -2 -31 6 -43 16 -12 11 -21 16 -21 12
0 -14 -156 115 -222 182 -79 83 -169 202 -200 266 -22 46 -38 54 -70 35z m616
-564 c34 -52 14 -75 -38 -44 -38 22 -44 37 -24 57 19 19 44 14 62 -13z"/>
<path d="M460 145 c0 -5 11 -23 25 -40 13 -16 24 -25 25 -20 0 6 -11 24 -25
40 -13 17 -24 26 -25 20z"/>
</g>
</svg>
