<?xml version="1.0" standalone="no"?>
<!DOCTYPE svg PUBLIC "-//W3C//DTD SVG 20010904//EN"
 "http://www.w3.org/TR/2001/REC-SVG-20010904/DTD/svg10.dtd">
<svg version="1.0" xmlns="http://www.w3.org/2000/svg"
 width="72.000000pt" height="72.000000pt" viewBox="0 0 72.000000 72.000000"
 preserveAspectRatio="xMidYMid meet">
<metadata>
Created by potrace 1.10, written by Peter Selinger 2001-2011
</metadata>
<g transform="translate(0.000000,72.000000) scale(0.100000,-0.100000)"
fill="#000000" stroke="none">
<path d="M577 675 c-10 -14 -13 -25 -7 -25 5 0 10 -8 10 -18 0 -26 20 -43 39
-33 9 5 20 8 25 8 16 -3 34 37 26 58 -7 17 -9 17 -9 3 -1 -20 -27 -23 -51 -8
-13 9 -13 11 0 20 8 5 20 8 27 5 7 -2 15 0 18 5 4 6 -8 10 -27 10 -23 -1 -38
-8 -51 -25z"/>
<path d="M399 565 c-13 -19 -28 -35 -34 -35 -5 0 -5 -4 2 -8 8 -5 6 -20 -9
-55 -25 -57 -54 -65 -45 -13 3 19 0 39 -6 45 -19 19 -26 12 -16 -16 4 -16 11
-40 14 -55 7 -35 27 -36 45 -3 7 14 17 25 22 25 5 0 7 4 3 10 -3 5 3 26 14 46
11 21 18 41 15 46 -3 5 0 7 8 6 7 -2 13 4 12 12 -1 9 7 17 17 17 11 1 19 -5
19 -13 0 -8 -7 -14 -15 -14 -9 0 -20 -12 -25 -26 -16 -41 -12 -47 14 -17 33
38 29 7 -6 -43 -41 -60 -55 -97 -40 -102 7 -2 9 -9 5 -15 -4 -7 1 -5 12 3 16
13 16 15 2 18 -15 3 -13 10 8 53 14 27 29 49 34 49 12 0 32 85 25 104 -11 28
-50 18 -75 -19z"/>
<path d="M226 557 c-18 -13 -19 -46 -1 -59 6 -5 6 -8 -2 -8 -15 0 -4 -42 15
-56 20 -14 26 -103 10 -133 -7 -13 -27 -29 -45 -35 -59 -20 -73 -40 -73 -101
l0 -55 -40 -6 c-22 -4 -43 -11 -47 -17 -7 -12 42 -57 62 -57 19 0 28 17 14 26
-8 4 -9 3 -5 -4 9 -15 5 -15 -31 -1 -22 8 -24 12 -13 20 8 5 29 7 45 4 l30 -6
-25 15 c-33 20 -16 20 37 0 23 -9 40 -21 37 -25 -3 -5 11 -16 32 -25 37 -15
99 -12 135 7 24 12 38 61 30 100 -6 29 -2 38 26 67 38 39 41 59 12 96 -19 24
-19 26 -2 26 15 0 16 2 3 10 -13 8 -13 10 2 10 9 0 32 24 50 53 40 61 56 90
35 65 -8 -10 -16 -17 -18 -15 -2 1 -3 0 -2 -2 5 -9 -19 -41 -28 -36 -14 9 -11
27 4 19 6 -4 9 -3 4 1 -4 5 0 19 9 33 28 43 0 16 -36 -35 -19 -26 -26 -42 -17
-34 28 22 20 2 -28 -66 -26 -36 -44 -67 -41 -70 2 -2 12 9 22 26 l18 30 17
-25 c9 -14 14 -35 12 -45 -7 -27 -63 -71 -83 -66 -10 3 -16 -3 -17 -14 -2 -16
2 -17 17 -9 27 15 30 13 30 -18 0 -60 -39 -98 -97 -95 -7 0 -10 -3 -7 -8 3 -5
-2 -9 -11 -9 -9 0 -14 4 -10 9 3 5 1 12 -5 16 -16 10 -12 35 5 29 8 -4 15 -2
15 4 0 13 -39 10 -48 -5 -5 -8 -17 -6 -42 8 -19 10 -29 18 -22 19 9 0 8 6 -3
24 -25 38 -16 77 24 103 39 26 66 30 58 9 -6 -15 51 -42 62 -30 3 4 1 9 -6 11
-6 2 -21 13 -34 24 -20 17 -19 24 4 20 5 -1 6 2 3 7 -3 5 1 32 8 60 12 44 12
53 0 63 -8 7 -12 14 -10 16 2 3 -3 13 -12 23 -16 20 -26 84 -16 110 4 12 6 13
14 0 5 -9 5 -19 -1 -26 -7 -9 -5 -22 6 -43 19 -38 29 -40 21 -5 -4 14 -2 31 3
38 8 9 5 19 -10 34 -23 26 -21 25 -43 9z"/>
<path d="M383 254 c-7 -12 -8 -26 -3 -34 7 -12 10 -12 15 2 4 9 5 25 3 35 -4
17 -5 16 -15 -3z"/>
<path d="M216 161 c-3 -5 1 -15 10 -22 13 -10 17 -10 24 1 6 9 4 17 -3 22 -16
10 -25 10 -31 -1z"/>
</g>
</svg>
