<?xml version="1.0" standalone="no"?>
<!DOCTYPE svg PUBLIC "-//W3C//DTD SVG 20010904//EN"
 "http://www.w3.org/TR/2001/REC-SVG-20010904/DTD/svg10.dtd">
<svg version="1.0" xmlns="http://www.w3.org/2000/svg"
 width="72.000000pt" height="72.000000pt" viewBox="0 0 72.000000 72.000000"
 preserveAspectRatio="xMidYMid meet">
<metadata>
Created by potrace 1.10, written by Peter Selinger 2001-2011
</metadata>
<g transform="translate(0.000000,72.000000) scale(0.100000,-0.100000)"
fill="#000000" stroke="none">
<path d="M333 690 c4 -17 2 -20 -14 -15 -15 5 -19 1 -19 -14 0 -12 -7 -21 -15
-21 -8 0 -15 -9 -15 -20 0 -11 -4 -20 -10 -20 -18 0 -11 -83 9 -107 14 -17 31
-22 76 -24 38 -2 59 -7 62 -16 9 -24 -10 -30 -74 -24 -46 5 -63 3 -63 -5 0 -7
-13 -17 -30 -23 -29 -10 -30 -11 -30 -78 0 -46 5 -76 16 -91 9 -13 14 -37 12
-60 -4 -36 -4 -36 -15 -12 -10 22 -12 18 -12 -37 -1 -41 3 -63 10 -63 7 0 18
-8 25 -17 10 -14 28 -18 91 -19 43 0 90 -4 105 -7 21 -6 31 -2 47 19 19 25 21
40 21 194 0 138 -3 169 -15 173 -8 4 -17 2 -20 -3 -4 -6 -20 -10 -36 -10 -18
0 -28 -4 -24 -10 3 -5 1 -10 -5 -10 -8 0 -9 7 -5 18 4 9 9 31 12 48 5 31 7 32
46 26 l42 -5 -16 24 c-30 44 -90 69 -174 73 -28 1 -40 5 -40 16 0 8 6 14 13
12 6 -1 12 7 12 18 0 11 7 20 15 20 8 0 15 9 15 20 0 13 5 18 15 14 11 -5 15
1 15 25 0 22 -5 31 -16 31 -12 0 -15 -6 -11 -20z m45 -183 c3 -27 2 -28 -40
-25 -39 3 -43 6 -46 31 -3 27 -2 28 40 25 39 -3 43 -6 46 -31z m72 -7 l25 -20
-42 0 c-39 0 -43 2 -43 24 0 28 20 27 60 -4z m-56 -182 c0 -45 2 -48 25 -49
25 -1 25 -2 -3 -8 -43 -9 -43 -28 -1 -33 l35 -4 0 72 c0 63 2 72 20 77 23 6
23 5 11 -43 -5 -19 -12 -52 -15 -74 l-5 -38 21 18 c21 19 21 19 13 -1 -5 -11
-11 -46 -13 -79 -3 -47 -1 -57 10 -50 7 4 6 0 -3 -12 -10 -10 -19 -28 -22 -39
-2 -11 -5 1 -6 28 -1 44 -3 48 -31 54 -25 5 -30 10 -30 35 0 21 -8 37 -26 51
-26 20 -29 49 -9 99 5 13 -2 19 -32 27 -39 11 -80 15 -72 6 6 -5 46 -13 74
-14 14 -1 16 -4 8 -12 -16 -16 -98 -2 -115 18 -7 9 -8 14 -2 10 7 -4 16 -1 22
6 7 8 31 10 79 7 l68 -5 -1 -47z m-77 -34 c13 -4 20 -11 16 -20 -3 -8 2 -32
11 -55 l16 -41 -31 -29 c-35 -33 -33 -35 18 -14 45 19 43 20 43 -14 0 -22 -6
-31 -30 -41 -16 -7 -30 -16 -30 -21 0 -5 -11 -9 -24 -9 -28 0 -66 42 -66 72 0
16 3 17 21 8 19 -10 19 -10 10 8 -6 11 -10 52 -8 91 2 75 5 78 54 65z m129
-211 c-2 -3 -14 -2 -25 2 -14 4 -21 15 -21 32 l0 26 26 -28 c14 -15 23 -29 20
-32z"/>
<path d="M376 683 c-12 -13 -6 -53 9 -53 9 0 15 -9 15 -21 0 -15 5 -19 16 -15
8 3 12 2 9 -4 -3 -6 1 -10 9 -10 9 0 16 -8 16 -17 1 -21 23 -53 37 -53 16 0 2
53 -19 71 -10 9 -18 24 -18 33 0 19 -16 22 -23 4 -3 -7 -6 -3 -6 10 -1 13 -7
22 -17 22 -10 0 -14 6 -11 15 7 15 -6 29 -17 18z"/>
</g>
</svg>
