<?xml version="1.0" standalone="no"?>
<!DOCTYPE svg PUBLIC "-//W3C//DTD SVG 20010904//EN"
 "http://www.w3.org/TR/2001/REC-SVG-20010904/DTD/svg10.dtd">
<svg version="1.0" xmlns="http://www.w3.org/2000/svg"
 width="72.000000pt" height="72.000000pt" viewBox="0 0 72.000000 72.000000"
 preserveAspectRatio="xMidYMid meet">
<metadata>
Created by potrace 1.10, written by Peter Selinger 2001-2011
</metadata>
<g transform="translate(0.000000,72.000000) scale(0.100000,-0.100000)"
fill="#000000" stroke="none">
<path d="M47 704 c-3 -3 -3 -13 0 -22 5 -11 2 -14 -10 -9 -31 12 -29 -15 3
-48 18 -18 37 -43 44 -56 6 -12 14 -20 18 -18 11 6 138 -122 149 -149 5 -12
19 -26 31 -31 27 -11 304 -288 321 -321 7 -12 15 -21 18 -19 3 2 13 -2 22 -9
9 -8 21 -11 27 -7 16 10 12 25 -7 25 -16 0 -16 1 0 18 15 15 19 15 27 2 5 -8
12 -11 16 -7 4 3 2 12 -4 19 -6 7 -10 18 -10 23 1 6 -10 15 -22 22 -33 17
-310 294 -321 321 -5 12 -19 26 -31 31 -27 11 -155 138 -149 149 2 4 -6 12
-18 18 -13 7 -37 26 -55 43 -33 32 -39 35 -49 25z m88 -95 c-4 -5 -15 -14 -25
-19 -16 -8 -18 -8 -14 5 4 9 0 15 -9 15 -8 0 -21 8 -28 18 -11 14 -11 15 1 5
20 -18 44 -16 36 2 -3 8 -9 22 -12 30 -4 9 8 2 25 -15 17 -18 29 -36 26 -41z
m105 -93 c68 -66 70 -69 53 -88 -16 -18 -19 -17 -89 53 -63 63 -71 74 -61 90
7 11 15 18 19 17 3 -2 39 -34 78 -72z m110 -106 c0 -5 -7 -10 -15 -10 -20 0
-19 -24 1 -40 13 -11 16 -10 21 9 5 20 7 21 23 6 17 -16 17 -18 2 -34 -16 -17
-19 -17 -49 12 -31 29 -32 32 -16 49 18 20 33 24 33 8z m191 -230 c-17 -18
-36 -16 -25 3 4 7 3 9 -1 4 -5 -4 -35 18 -66 49 -54 53 -56 57 -41 75 16 18
19 16 83 -47 62 -62 66 -67 50 -84z m117 -76 c2 -1 -6 -11 -18 -22 l-22 -20
-33 37 c-31 33 -32 37 -17 54 15 17 17 16 51 -15 20 -18 37 -34 39 -34z"/>
<path d="M205 490 c33 -33 64 -60 69 -60 6 0 -16 27 -49 60 -33 33 -64 60 -69
60 -6 0 16 -27 49 -60z"/>
<path d="M430 276 c0 -21 21 -31 30 -15 5 7 6 17 4 21 -9 14 -34 9 -34 -6z"/>
<path d="M474 222 c22 -26 36 -28 36 -7 0 8 -4 15 -9 15 -5 0 -18 3 -28 7 -17
6 -17 5 1 -15z"/>
<path d="M590 116 c0 -8 4 -17 9 -20 11 -7 33 18 24 27 -12 12 -33 7 -33 -7z"/>
</g>
</svg>
