<?xml version="1.0" standalone="no"?>
<!DOCTYPE svg PUBLIC "-//W3C//DTD SVG 20010904//EN"
 "http://www.w3.org/TR/2001/REC-SVG-20010904/DTD/svg10.dtd">
<svg version="1.0" xmlns="http://www.w3.org/2000/svg"
 width="72.000000pt" height="72.000000pt" viewBox="0 0 72.000000 72.000000"
 preserveAspectRatio="xMidYMid meet">
<metadata>
Created by potrace 1.10, written by Peter Selinger 2001-2011
</metadata>
<g transform="translate(0.000000,72.000000) scale(0.100000,-0.100000)"
fill="#000000" stroke="none">
<path d="M179 682 c-50 -32 -124 -109 -141 -147 -15 -33 1 -52 29 -36 12 6 31
7 49 2 l29 -8 -28 -8 c-32 -9 -77 -58 -77 -86 0 -35 27 -72 114 -158 47 -47
83 -87 81 -91 -5 -9 103 -115 110 -108 3 3 -15 22 -40 42 -25 21 -45 42 -45
49 0 6 22 -11 50 -38 27 -26 47 -52 44 -57 -3 -4 7 -13 21 -18 33 -12 56 -13
37 -1 -9 5 0 10 29 15 34 5 53 17 86 53 24 25 45 44 48 41 3 -3 -4 -13 -15
-23 -26 -24 -25 -50 2 -69 29 -21 34 -20 59 5 20 20 23 20 31 5 10 -17 38 -22
38 -6 0 5 -20 28 -44 51 -25 22 -43 46 -40 54 6 14 -24 80 -32 72 -3 -3 2 -19
10 -36 19 -36 21 -50 4 -33 -12 12 -18 32 -21 67 -3 28 -36 77 -47 70 -5 -3
-12 0 -16 6 -4 8 -3 9 4 5 31 -19 4 19 -73 102 -46 50 -93 109 -105 132 -24
48 -33 51 -26 9 4 -25 2 -28 -9 -19 -8 7 -26 32 -41 57 -22 38 -25 52 -19 89
3 24 2 44 -2 44 -5 0 -29 -13 -54 -28z m36 -77 c24 -50 105 -135 129 -135 15
0 66 -52 66 -67 0 -7 4 -12 9 -10 12 3 82 -83 75 -95 -3 -5 4 -20 17 -34 22
-23 22 -24 2 -24 -11 0 -34 17 -52 40 -27 34 -30 44 -20 56 6 8 9 17 6 21 -4
3 -9 -2 -13 -11 -6 -16 -8 -16 -25 0 -15 13 -19 14 -19 3 0 -10 -4 -9 -17 4
-22 21 -8 35 18 18 26 -15 37 -7 19 14 -9 10 -22 14 -36 11 -18 -5 -32 5 -68
45 -107 118 -151 191 -129 212 10 11 11 10 38 -48z m-75 -10 c0 -18 11 -32 40
-51 33 -22 79 -75 140 -159 16 -23 17 -24 -73 49 -44 35 -64 45 -80 41 -17 -5
-19 -4 -7 4 12 8 8 13 -22 26 -21 8 -42 15 -48 15 -6 0 -8 6 -5 13 4 6 0 4 -8
-5 -22 -27 -41 -24 -26 5 14 27 70 87 81 87 4 0 8 -11 8 -25z m43 -146 c26
-14 58 -40 152 -125 39 -35 86 -73 105 -86 19 -13 41 -36 50 -50 13 -25 13
-29 -6 -55 -30 -40 -68 -57 -96 -42 -13 6 -63 50 -112 98 l-90 86 84 -90 c111
-120 127 -129 185 -99 l30 15 -26 -27 c-40 -39 -77 -36 -114 11 -16 21 -61 71
-99 112 -38 40 -66 73 -61 73 4 0 -17 27 -48 59 -32 33 -57 65 -57 71 0 17 47
60 65 60 9 0 26 -5 38 -11z m361 -235 c15 -40 -7 -105 -38 -110 -20 -3 -20 -2
6 42 17 29 19 40 10 55 -15 24 -15 29 2 29 8 0 17 -7 20 -16z m71 -139 c0 -22
-31 -33 -47 -17 -17 17 -1 44 24 40 15 -2 23 -10 23 -23z"/>
<path d="M424 219 c-3 -6 2 -17 12 -24 24 -18 34 -19 34 -2 0 18 -37 39 -46
26z"/>
</g>
</svg>
