<?xml version="1.0" standalone="no"?>
<!DOCTYPE svg PUBLIC "-//W3C//DTD SVG 20010904//EN"
 "http://www.w3.org/TR/2001/REC-SVG-20010904/DTD/svg10.dtd">
<svg version="1.0" xmlns="http://www.w3.org/2000/svg"
 width="72.000000pt" height="72.000000pt" viewBox="0 0 72.000000 72.000000"
 preserveAspectRatio="xMidYMid meet">
<metadata>
Created by potrace 1.10, written by Peter Selinger 2001-2011
</metadata>
<g transform="translate(0.000000,72.000000) scale(0.100000,-0.100000)"
fill="#000000" stroke="none">
<path d="M55 701 c-18 -4 -30 -13 -31 -24 -1 -12 -1 -13 3 -2 2 8 16 15 29 15
19 0 24 -4 20 -17 -2 -10 -7 -29 -11 -41 l-7 -24 -15 22 c-10 14 -19 18 -25
12 -13 -13 31 -64 46 -55 6 4 22 7 36 7 20 1 25 6 25 28 1 15 4 30 7 34 6 5
-36 56 -44 53 -2 -1 -16 -4 -33 -8z"/>
<path d="M207 531 c62 -62 75 -79 51 -65 -7 4 -3 -4 10 -18 12 -13 22 -28 22
-33 0 -5 -37 30 -82 76 -46 47 -74 74 -63 60 11 -14 34 -40 50 -57 135 -143
166 -174 171 -174 3 0 2 5 -1 10 -13 21 10 9 41 -21 23 -22 34 -27 39 -18 5 7
4 10 -2 6 -5 -3 -22 7 -37 24 -15 16 -23 29 -16 29 6 0 8 5 5 10 -4 6 -14 9
-23 8 -11 -2 -17 3 -16 14 1 9 -28 45 -65 79 -109 103 -151 138 -84 70z"/>
<path d="M419 353 c-12 -15 -12 -16 6 -9 44 18 51 16 97 -28 26 -26 55 -46 65
-46 12 0 7 6 -14 16 -18 9 -33 20 -33 24 0 4 -12 19 -26 34 -31 30 -75 34 -95
9z"/>
<path d="M464 309 c-3 -6 1 -18 9 -26 14 -14 17 -14 31 0 9 9 12 18 7 22 -5 3
-12 1 -16 -5 -10 -16 -28 -12 -21 5 6 17 0 20 -10 4z"/>
<path d="M360 291 c-19 -36 -11 -59 30 -92 28 -23 43 -45 50 -73 17 -67 27
-84 61 -101 43 -23 86 -13 136 30 44 37 73 88 73 128 0 33 -33 73 -72 86 l-33
11 25 -20 c14 -11 21 -20 16 -20 -5 0 -2 -8 7 -18 9 -10 14 -27 12 -37 -2 -11
-6 -32 -10 -47 -3 -16 -12 -28 -21 -28 -8 0 -18 -8 -21 -17 -9 -26 -23 -33
-66 -33 -48 0 -97 44 -97 86 0 15 -7 32 -16 39 -15 10 -15 13 1 28 9 9 14 21
10 27 -7 12 -44 -22 -37 -35 3 -5 -5 -1 -17 10 -19 16 -22 27 -18 57 6 43 3
47 -13 19z m241 -245 c-16 -20 -58 -28 -79 -17 -14 8 -10 10 18 11 19 0 42 5
50 10 21 14 24 12 11 -4z"/>
<path d="M510 250 c0 -5 15 -9 33 -8 61 2 96 -33 63 -64 -11 -11 -11 -16 1
-35 20 -30 33 -20 33 22 0 47 -8 64 -41 80 -32 17 -89 20 -89 5z"/>
<path d="M477 219 c-3 -12 -10 -18 -15 -15 -12 7 0 -62 17 -91 15 -29 16 -29
18 8 2 24 -1 30 -12 25 -11 -4 -15 2 -15 20 0 16 4 23 12 18 7 -4 8 -3 4 5 -4
6 -3 18 4 26 6 8 7 16 2 19 -6 3 -12 -4 -15 -15z"/>
<path d="M556 163 c-3 -3 6 -14 19 -25 35 -28 20 -43 -16 -17 -22 15 -34 18
-41 11 -16 -16 10 -44 33 -37 11 4 19 2 19 -4 0 -18 27 -12 32 7 5 19 -35 76
-46 65z"/>
</g>
</svg>
