<?xml version="1.0" standalone="no"?>
<!DOCTYPE svg PUBLIC "-//W3C//DTD SVG 20010904//EN"
 "http://www.w3.org/TR/2001/REC-SVG-20010904/DTD/svg10.dtd">
<svg version="1.0" xmlns="http://www.w3.org/2000/svg"
 width="72.000000pt" height="72.000000pt" viewBox="0 0 72.000000 72.000000"
 preserveAspectRatio="xMidYMid meet">
<metadata>
Created by potrace 1.10, written by Peter Selinger 2001-2011
</metadata>
<g transform="translate(0.000000,72.000000) scale(0.100000,-0.100000)"
fill="#000000" stroke="none">
<path d="M205 663 c-17 -17 -14 -75 4 -81 25 -9 52 -48 175 -262 75 -129 150
-247 166 -262 54 -50 126 -27 150 47 10 31 8 48 -20 137 -24 76 -31 114 -26
144 5 38 3 42 -18 46 -29 6 -145 0 -157 -8 -5 -3 7 -20 26 -38 63 -60 127
-231 85 -231 -8 0 -66 83 -132 190 -65 105 -129 207 -143 228 -14 22 -25 49
-25 61 0 44 -52 62 -85 29z m33 -25 c-2 -13 -11 -24 -20 -26 -21 -4 -24 18 -6
36 19 19 30 14 26 -10z m97 -124 c33 -56 53 -99 49 -106 -4 -7 -3 -10 1 -5 12
10 68 -81 59 -95 -5 -7 -2 -8 6 -3 10 6 12 4 7 -8 -3 -9 -1 -19 5 -23 7 -5 8
-2 4 7 -4 8 0 5 8 -6 9 -11 14 -25 12 -32 -3 -7 0 -15 6 -19 7 -4 8 -3 4 4 -4
7 -5 12 -2 12 3 0 13 -14 22 -31 11 -23 12 -29 2 -24 -7 4 1 -4 17 -19 39 -33
62 -41 80 -26 22 18 18 44 -18 150 -27 79 -36 96 -54 98 -13 2 -23 8 -23 13 0
10 43 12 87 3 28 -5 30 -9 31 -57 1 -47 7 -75 27 -132 6 -16 3 -16 -15 5 l-21
25 20 -42 c26 -52 27 -85 2 -107 -24 -22 -59 -9 -96 36 l-27 33 19 -35 c10
-19 34 -45 53 -57 l33 -23 -30 0 c-50 0 -106 78 -204 285 -28 61 -67 142 -85
182 -23 47 -39 70 -48 67 -7 -3 -13 1 -13 9 0 34 29 6 82 -79z"/>
<path d="M115 645 c-16 -8 -47 -21 -68 -29 -21 -9 -36 -20 -33 -25 4 -5 34 3
71 20 75 34 75 34 75 13 0 -8 -4 -12 -10 -9 -5 3 -10 2 -10 -4 0 -5 -25 -15
-55 -22 -43 -10 -55 -16 -55 -31 0 -12 5 -18 13 -14 6 2 42 15 79 26 60 19 67
24 58 40 -6 10 -7 26 -4 34 8 20 -19 20 -61 1z"/>
</g>
</svg>
