<?xml version="1.0" standalone="no"?>
<!DOCTYPE svg PUBLIC "-//W3C//DTD SVG 20010904//EN"
 "http://www.w3.org/TR/2001/REC-SVG-20010904/DTD/svg10.dtd">
<svg version="1.0" xmlns="http://www.w3.org/2000/svg"
 width="72.000000pt" height="72.000000pt" viewBox="0 0 72.000000 72.000000"
 preserveAspectRatio="xMidYMid meet">
<metadata>
Created by potrace 1.10, written by Peter Selinger 2001-2011
</metadata>
<g transform="translate(0.000000,72.000000) scale(0.100000,-0.100000)"
fill="#000000" stroke="none">
<path d="M150 695 c-54 -17 -136 -95 -127 -119 12 -32 37 -30 75 6 49 47 72
58 122 58 34 0 48 -6 75 -33 37 -37 57 -103 35 -117 -10 -6 -9 -9 1 -13 11 -4
11 -7 1 -14 -9 -7 -7 -15 11 -31 13 -13 30 -21 38 -19 8 2 11 2 7 0 -12 -7
-10 -23 2 -23 6 0 15 10 21 23 9 21 9 20 6 -5 -3 -16 -1 -28 3 -28 17 0 19
-33 5 -60 -8 -16 -11 -31 -6 -34 4 -3 6 -18 3 -32 -4 -23 -2 -26 12 -21 10 4
15 3 11 -3 -8 -13 -3 -13 32 3 26 11 29 17 32 67 1 30 7 63 12 72 6 12 6 24 0
36 -6 9 -11 13 -11 7 0 -5 -5 -3 -10 5 -7 12 -12 12 -22 2 -9 -9 -9 -12 3 -12
15 -1 -30 -29 -46 -29 -5 0 1 6 15 14 15 9 19 15 10 15 -12 0 -11 3 3 11 9 6
15 15 11 21 -4 6 -10 5 -15 -3 -7 -11 -9 -10 -9 3 0 10 -9 22 -19 28 -25 13
-44 13 -36 0 4 -6 10 -8 14 -6 4 3 8 -1 8 -9 0 -19 0 -19 -24 3 -18 15 -19 19
-5 31 14 14 31 18 75 20 10 1 17 9 17 22 0 11 -4 18 -8 15 -5 -3 -35 22 -68
55 -32 33 -72 68 -89 79 -42 26 -111 32 -165 15z m155 -22 c25 -14 115 -110
115 -123 0 -6 8 -10 18 -10 16 -1 16 -1 -1 -11 -9 -5 -22 -7 -29 -3 -7 5 -8 3
-3 -6 6 -10 4 -12 -8 -7 -9 3 -18 3 -20 -1 -2 -4 -3 -2 -1 4 5 21 -43 110 -71
132 -21 17 -41 22 -82 22 -64 0 -84 -9 -140 -63 -46 -44 -56 -43 -23 3 25 34
81 71 124 80 35 7 91 -1 121 -17z m169 -329 c3 -9 1 -12 -4 -9 -6 3 -10 1 -10
-4 0 -6 6 -11 13 -11 8 0 7 -4 -3 -10 -8 -5 -19 -10 -25 -10 -5 0 -3 5 5 10
12 8 12 10 1 10 -10 0 -11 3 -2 13 8 10 7 17 -2 26 -9 10 -9 11 5 6 9 -4 19
-13 22 -21z"/>
<path d="M561 361 c-23 -15 -22 -39 1 -33 10 2 17 10 14 18 -3 7 0 15 7 18 7
2 8 5 2 5 -5 0 -16 -3 -24 -8z"/>
<path d="M535 238 c-11 -6 -21 -12 -23 -13 -6 -5 21 -55 30 -55 4 0 8 -7 8
-15 0 -9 7 -18 15 -21 39 -15 40 -69 1 -84 -21 -9 -21 -9 2 -9 12 -1 25 6 28
14 4 8 10 12 15 9 5 -3 5 -13 -1 -24 -16 -29 -12 -32 21 -15 29 15 30 18 15
34 -9 10 -16 28 -16 40 0 15 -7 25 -20 28 -16 4 -18 8 -9 19 9 11 8 14 -4 14
-8 0 -17 9 -20 20 -3 11 -16 24 -29 29 -12 6 -18 10 -12 10 7 1 14 8 18 16 6
18 7 18 -19 3z"/>
<path d="M654 135 c14 -11 16 -15 5 -15 -10 -1 -9 -3 4 -11 9 -5 17 -18 17
-27 -1 -16 -2 -16 -14 1 -21 28 -28 20 -11 -14 13 -24 19 -28 30 -19 7 6 13
21 13 33 -2 24 -35 67 -52 67 -6 0 -2 -7 8 -15z"/>
</g>
</svg>
