<?xml version="1.0" standalone="no"?>
<!DOCTYPE svg PUBLIC "-//W3C//DTD SVG 20010904//EN"
 "http://www.w3.org/TR/2001/REC-SVG-20010904/DTD/svg10.dtd">
<svg version="1.0" xmlns="http://www.w3.org/2000/svg"
 width="72.000000pt" height="72.000000pt" viewBox="0 0 72.000000 72.000000"
 preserveAspectRatio="xMidYMid meet">
<metadata>
Created by potrace 1.10, written by Peter Selinger 2001-2011
</metadata>
<g transform="translate(0.000000,72.000000) scale(0.100000,-0.100000)"
fill="#000000" stroke="none">
<path d="M63 668 c-29 -30 -53 -75 -53 -99 0 -12 33 -12 46 1 7 7 30 -3 73
-30 73 -47 84 -50 39 -11 -43 37 -96 64 -114 57 -19 -7 -18 25 2 50 15 19 15
19 10 -1 -4 -16 7 -27 57 -55 61 -35 219 -155 225 -172 2 -5 10 -4 18 3 10 8
14 8 14 1 0 -20 -38 -34 -60 -22 -11 6 -18 15 -15 20 3 5 1 11 -3 14 -5 3 -9
-3 -8 -14 1 -19 184 -165 195 -154 3 3 -1 9 -9 14 -8 6 -11 10 -5 10 19 0 -16
24 -37 25 -12 0 -23 7 -26 15 -5 13 -3 13 14 0 16 -12 17 -12 6 0 -7 8 -20 15
-30 15 -9 0 -17 7 -17 15 0 9 -8 14 -18 12 -21 -4 -23 14 -2 22 16 6 135 -78
135 -95 0 -6 8 -5 20 1 15 8 20 8 20 -1 0 -6 -9 -13 -20 -16 -11 -3 -17 -9
-14 -15 3 -5 12 -4 20 3 11 9 18 8 32 -5 10 -9 22 -13 27 -9 4 5 5 0 2 -10 -4
-10 -7 -23 -7 -29 0 -5 -6 -8 -13 -5 -6 2 -12 10 -12 17 0 16 -44 21 -65 8
-12 -8 -11 -8 3 -4 11 4 32 -4 53 -20 19 -15 34 -21 34 -15 0 6 3 10 8 10 4
-1 9 0 12 1 3 1 14 3 26 4 16 2 20 -2 16 -16 -2 -10 -9 -15 -15 -11 -6 3 -7 1
-3 -5 4 -8 -3 -10 -24 -7 -22 2 -30 -1 -30 -12 0 -8 -6 -13 -12 -10 -7 2 -11
11 -10 18 2 8 0 11 -3 7 -10 -9 -47 10 -41 21 3 4 -1 8 -8 8 -7 0 -57 33 -112
75 -108 82 -159 112 -178 105 -7 -3 -22 3 -34 12 -20 15 -21 18 -8 36 14 20
15 20 40 -4 14 -14 29 -21 33 -17 5 4 -1 14 -11 22 -13 9 -15 14 -6 14 8 0 23
-9 35 -20 17 -16 22 -17 22 -5 0 8 -4 15 -9 15 -4 0 -7 6 -5 12 1 9 -12 13
-45 12 -29 -1 -49 4 -52 11 -3 9 6 12 31 10 19 -2 32 -1 28 3 -4 4 -10 7 -13
7 -4 1 -17 4 -29 9 -30 10 -58 -7 -73 -44 -11 -26 -10 -33 3 -48 8 -9 17 -28
19 -42 2 -20 8 -25 30 -23 19 1 41 -11 72 -38 25 -22 50 -38 55 -35 5 4 13 1
17 -5 4 -8 3 -9 -4 -5 -37 22 1 -13 101 -95 61 -51 117 -98 122 -104 33 -39
90 -45 129 -14 57 45 72 115 33 152 -37 35 -67 57 -76 57 -5 0 -11 3 -13 8 -5
12 -105 92 -114 92 -5 -1 1 -9 13 -19 12 -10 19 -21 16 -25 -7 -6 -39 35 -36
45 3 8 -163 139 -174 139 -5 0 8 -14 27 -32 l35 -31 -35 26 c-19 14 -34 30
-33 35 1 5 -34 38 -78 73 -88 69 -101 85 -92 117 8 34 -27 28 -64 -10z m60
-36 l19 -32 -30 17 c-17 10 -28 21 -26 25 3 5 0 8 -6 8 -6 0 -8 5 -5 11 10 16
28 5 48 -29z m42 -181 c3 -6 -4 -15 -15 -21 -17 -9 -20 -8 -20 10 0 20 24 28
35 11z m115 -116 c7 -9 8 -15 1 -20 -11 -6 -71 33 -71 46 0 11 57 -10 70 -26z
m70 -52 c28 -21 50 -41 50 -45 0 -22 -26 -15 -69 21 -26 22 -52 37 -57 33 -4
-4 -2 1 5 11 7 9 15 17 17 17 3 0 27 -17 54 -37z m164 -123 c51 -39 100 -70
110 -70 22 0 32 28 18 50 -8 14 -7 21 7 34 10 9 22 16 27 16 5 -1 -2 -10 -15
-20 -13 -11 -19 -20 -13 -20 17 0 23 -30 10 -53 -7 -12 -11 -25 -10 -30 1 -4
-9 -12 -23 -19 -18 -8 -28 -8 -39 1 -8 7 -20 10 -25 6 -7 -3 -8 0 -5 9 7 18
15 20 30 9 5 -5 4 -1 -3 7 -9 10 -16 11 -23 4 -8 -8 -22 -1 -47 23 -27 24 -39
30 -45 20 -6 -9 -8 -9 -8 0 0 7 8 16 17 22 10 5 15 13 10 17 -4 4 -17 -1 -29
-12 -12 -10 -19 -14 -15 -8 4 6 -2 19 -13 29 -18 16 -28 55 -15 55 3 0 47 -31
99 -70z m111 -20 c27 -30 5 -49 -30 -26 -21 14 -24 20 -14 32 15 19 22 18 44
-6z"/>
</g>
</svg>
