<?xml version="1.0" standalone="no"?>
<!DOCTYPE svg PUBLIC "-//W3C//DTD SVG 20010904//EN"
 "http://www.w3.org/TR/2001/REC-SVG-20010904/DTD/svg10.dtd">
<svg version="1.0" xmlns="http://www.w3.org/2000/svg"
 width="72.000000pt" height="72.000000pt" viewBox="0 0 72.000000 72.000000"
 preserveAspectRatio="xMidYMid meet">
<metadata>
Created by potrace 1.10, written by Peter Selinger 2001-2011
</metadata>
<g transform="translate(0.000000,72.000000) scale(0.100000,-0.100000)"
fill="#000000" stroke="none">
<path d="M24 688 c-4 -6 0 -16 8 -22 19 -15 40 -54 34 -65 -3 -4 29 -39 72
-77 42 -38 86 -80 96 -94 24 -31 171 -177 247 -245 30 -27 78 -77 106 -109
l51 -60 32 33 33 32 -54 47 c-66 56 -124 115 -208 211 -35 40 -90 94 -122 121
-32 27 -88 81 -124 122 -36 40 -71 73 -78 73 -24 1 -55 16 -61 30 -6 18 -22
19 -32 3z m161 -138 c40 -38 70 -71 68 -74 -3 -2 4 -9 15 -15 11 -6 22 -7 26
-4 3 3 6 -3 6 -15 0 -21 14 -30 23 -14 2 4 2 1 1 -5 -2 -7 3 -13 11 -13 9 0
12 -6 8 -17 -5 -13 -2 -15 11 -10 14 6 17 3 12 -9 -4 -11 -2 -15 8 -11 11 4
13 1 9 -10 -5 -12 -1 -14 18 -8 21 7 22 6 10 -9 -12 -14 -11 -16 7 -16 15 0
20 -5 16 -15 -5 -11 -2 -13 12 -8 12 4 15 3 10 -6 -10 -16 13 -43 31 -37 11 4
13 0 8 -14 -4 -12 -2 -20 5 -20 14 0 147 -126 161 -152 23 -43 -19 -11 -116
87 -57 58 -109 105 -114 105 -6 0 -11 5 -11 11 0 14 -26 39 -40 39 -6 0 -8 4
-5 10 3 6 1 10 -5 10 -11 0 -60 44 -60 55 0 3 -47 52 -105 108 -93 90 -121
127 -98 127 3 0 39 -31 78 -70z"/>
</g>
</svg>
