<?xml version="1.0" standalone="no"?>
<!DOCTYPE svg PUBLIC "-//W3C//DTD SVG 20010904//EN"
 "http://www.w3.org/TR/2001/REC-SVG-20010904/DTD/svg10.dtd">
<svg version="1.0" xmlns="http://www.w3.org/2000/svg"
 width="72.000000pt" height="72.000000pt" viewBox="0 0 72.000000 72.000000"
 preserveAspectRatio="xMidYMid meet">
<metadata>
Created by potrace 1.10, written by Peter Selinger 2001-2011
</metadata>
<g transform="translate(0.000000,72.000000) scale(0.100000,-0.100000)"
fill="#000000" stroke="none">
<path d="M262 664 c-104 -52 -193 -185 -200 -301 -5 -73 9 -103 64 -135 19
-11 34 -24 34 -30 0 -5 -4 -7 -9 -4 -5 3 -11 -1 -15 -9 -4 -11 -21 -15 -66
-15 -59 0 -72 -8 -47 -27 6 -6 73 -33 147 -62 l135 -51 203 0 c169 0 202 2
202 14 0 9 -27 23 -72 38 l-73 23 -37 145 c-30 116 -36 151 -28 174 18 53 12
130 -13 167 -29 43 -111 99 -146 99 -15 0 -50 -12 -79 -26z m69 -55 c6 -27 -6
-70 -24 -81 -24 -15 -64 -8 -86 16 l-22 24 23 22 c26 25 78 51 93 46 5 -1 12
-13 16 -27z m160 -61 c14 -52 3 -124 -16 -108 -10 8 -19 9 -32 1 -16 -9 -16
-10 4 -11 16 0 24 -8 28 -27 4 -16 14 -63 25 -106 l18 -79 -22 21 c-12 12 -34
21 -47 21 -14 0 -33 6 -42 13 -17 11 -16 16 3 71 39 115 13 64 -42 -82 -30
-81 -59 -155 -63 -164 -6 -16 -1 -18 36 -18 59 0 43 -10 -19 -11 -37 -1 -77 9
-146 35 -53 21 -96 39 -96 40 0 1 37 0 82 -2 95 -5 149 -20 83 -22 l-40 -2 35
-12 c32 -12 36 -11 47 8 20 34 16 36 -51 36 -61 0 -63 1 -63 25 0 22 3 24 21
18 11 -5 41 -7 65 -7 24 1 38 -2 31 -6 -9 -5 -8 -9 2 -13 10 -3 27 28 61 112
55 138 65 167 40 125 -10 -17 -30 -46 -44 -65 -14 -19 -26 -47 -27 -63 -4 -64
-74 -97 -122 -58 l-22 17 41 19 c100 43 221 224 221 329 l1 52 19 -23 c11 -13
25 -42 31 -64z m-118 26 c3 -20 14 -45 23 -55 9 -11 12 -19 6 -19 -6 0 -18 10
-26 22 l-15 22 -21 -27 c-17 -21 -30 -27 -61 -27 -23 0 -39 5 -39 12 0 6 -2 9
-5 6 -3 -2 0 -19 6 -36 14 -39 -2 -70 -42 -84 -30 -10 -30 -10 -9 -25 16 -11
21 -23 18 -44 -3 -15 -2 -26 1 -25 3 2 15 0 26 -5 16 -6 13 -8 -15 -9 -27 -1
-31 -3 -16 -9 18 -7 18 -8 -5 -14 -44 -12 -75 -7 -96 16 -44 47 -38 110 19
204 36 58 50 64 79 31 20 -23 20 -23 10 -1 -6 12 -18 29 -27 38 -9 9 -13 19
-10 22 4 4 13 -3 22 -15 23 -33 71 -54 104 -47 29 6 50 43 50 86 0 33 17 20
23 -17z m-3 -101 c0 -13 -3 -13 -16 -2 -14 11 -18 10 -30 -6 -8 -10 -17 -15
-21 -11 -11 11 35 46 52 39 8 -3 15 -12 15 -20z m0 -32 c0 -5 -7 -14 -15 -21
-16 -13 -55 -5 -55 12 0 7 5 6 14 -1 11 -9 17 -9 28 3 15 17 28 20 28 7z m-66
-37 c9 -8 16 -17 16 -20 0 -17 -45 -73 -60 -74 -12 0 -28 17 -34 36 -4 14 1
29 18 47 29 31 39 33 60 11z m168 -176 c20 -10 32 -31 42 -70 l6 -28 -90 0
c-49 0 -90 2 -90 4 0 18 34 94 47 103 16 12 51 9 85 -9z m58 -118 c0 -6 -40
-10 -100 -10 -60 0 -100 4 -100 10 0 6 40 10 100 10 60 0 100 -4 100 -10z m75
-50 c19 -5 -24 -8 -110 -9 -77 -1 -150 -4 -162 -7 -14 -4 -23 -2 -23 4 0 17
237 27 295 12z"/>
<path d="M197 435 c-13 -26 -14 -35 -4 -35 20 0 37 22 37 47 0 33 -14 28 -33
-12z"/>
<path d="M157 323 c-8 -47 -2 -53 26 -25 17 17 19 26 11 39 -18 29 -31 25 -37
-14z"/>
<path d="M252 388 c-7 -7 -12 -22 -12 -35 0 -45 59 -16 60 30 0 20 -30 23 -48
5z"/>
</g>
</svg>
