<?xml version="1.0" standalone="no"?>
<!DOCTYPE svg PUBLIC "-//W3C//DTD SVG 20010904//EN"
 "http://www.w3.org/TR/2001/REC-SVG-20010904/DTD/svg10.dtd">
<svg version="1.0" xmlns="http://www.w3.org/2000/svg"
 width="72.000000pt" height="72.000000pt" viewBox="0 0 72.000000 72.000000"
 preserveAspectRatio="xMidYMid meet">
<metadata>
Created by potrace 1.10, written by Peter Selinger 2001-2011
</metadata>
<g transform="translate(0.000000,72.000000) scale(0.100000,-0.100000)"
fill="#000000" stroke="none">
<path d="M42 678 c-9 -11 -3 -20 24 -42 19 -15 47 -46 62 -68 15 -23 50 -64
78 -92 134 -134 316 -328 334 -358 11 -18 20 -45 20 -60 0 -42 29 -35 83 20
54 55 61 82 20 82 -42 1 -59 14 -225 169 -84 80 -131 121 -103 93 44 -47 47
-52 26 -52 -14 0 -25 7 -28 19 -3 11 -13 21 -24 24 -10 3 -19 12 -19 21 0 9
-6 16 -14 16 -20 0 -31 19 -18 32 11 11 -43 69 -103 111 -16 12 -46 38 -66 60
-29 31 -38 36 -47 25z m565 -517 c12 -6 34 -11 49 -11 l28 0 -28 -29 -27 -28
-69 64 c-38 36 -68 70 -67 76 1 6 -5 11 -13 12 -8 0 -16 10 -18 23 -2 14 -9
22 -17 19 -17 -7 -35 12 -28 29 3 9 -2 14 -14 14 -25 0 -33 8 -26 27 4 11 34
-13 107 -85 56 -55 111 -105 123 -111z"/>
</g>
</svg>
