<?xml version="1.0" standalone="no"?>
<!DOCTYPE svg PUBLIC "-//W3C//DTD SVG 20010904//EN"
 "http://www.w3.org/TR/2001/REC-SVG-20010904/DTD/svg10.dtd">
<svg version="1.0" xmlns="http://www.w3.org/2000/svg"
 width="72.000000pt" height="72.000000pt" viewBox="0 0 72.000000 72.000000"
 preserveAspectRatio="xMidYMid meet">
<metadata>
Created by potrace 1.10, written by Peter Selinger 2001-2011
</metadata>
<g transform="translate(0.000000,72.000000) scale(0.100000,-0.100000)"
fill="#000000" stroke="none">
<path d="M94 526 c-24 -11 -35 -26 -54 -75 -30 -82 -30 -131 4 -181 14 -22 31
-40 37 -40 8 0 8 -4 -1 -14 -39 -47 25 -95 128 -96 100 0 170 39 143 81 -10
18 -8 25 19 55 27 32 30 41 30 104 0 38 -4 80 -10 94 -10 27 -64 66 -90 65 -9
0 -6 -4 6 -9 29 -12 40 -30 23 -41 -22 -14 -100 -11 -155 6 -92 28 -97 44 -16
56 l47 6 -40 1 c-22 1 -54 -5 -71 -12z m178 -71 l106 0 6 -35 c9 -56 7 -110
-5 -110 -5 0 -7 5 -4 10 12 19 -6 120 -22 120 -12 0 -13 -15 -8 -87 4 -54 3
-83 -3 -75 -6 9 -12 1 -20 -26 -7 -22 -19 -45 -26 -52 -8 -6 -13 -17 -10 -25
3 -7 1 -16 -4 -19 -16 -9 -21 32 -6 45 12 10 44 98 44 121 0 5 -10 2 -23 -7
-16 -10 -24 -26 -25 -51 -2 -20 -7 -45 -13 -55 -5 -10 -9 -22 -8 -26 4 -22 -2
-43 -12 -43 -11 0 -9 47 5 85 4 11 -1 7 -10 -10 -10 -16 -19 -34 -19 -40 -1
-5 -3 -16 -3 -22 -2 -13 -32 -19 -32 -6 0 3 12 31 26 61 14 30 27 68 29 86 1
17 0 23 -2 14 -4 -16 -23 -22 -61 -21 -11 1 -12 -10 -7 -45 5 -38 4 -45 -6
-35 -7 7 -13 28 -13 47 -1 19 -5 32 -10 29 -4 -3 -6 -21 -3 -39 4 -21 2 -32
-4 -29 -5 4 -9 24 -9 46 0 32 -3 39 -20 39 -17 0 -19 -5 -14 -27 4 -22 3 -25
-5 -13 -6 8 -11 26 -12 40 0 22 -1 23 -8 5 -7 -17 -8 -17 -13 8 -3 15 -1 27 3
27 5 0 9 6 9 14 0 7 9 35 21 61 20 45 20 47 3 66 -16 18 -14 18 32 -3 41 -19
67 -23 156 -23z m-222 -35 c-11 -30 -19 -47 -20 -38 0 19 30 101 36 96 1 -2
-6 -28 -16 -58z m160 -169 c0 -10 -6 -24 -14 -30 -11 -9 -15 -6 -18 13 -5 23
3 33 25 35 4 1 7 -7 7 -18z m-49 -63 c13 2 16 -2 12 -18 -6 -23 -43 -28 -43
-5 0 9 -6 12 -15 9 -9 -4 -15 0 -15 8 0 23 12 29 28 15 8 -6 23 -11 33 -9z"/>
<path d="M100 401 c-7 -32 -10 -65 -7 -73 3 -7 6 -2 6 11 1 18 5 22 21 18 11
-3 20 -1 20 4 0 5 -9 9 -19 9 -14 0 -18 5 -14 19 3 12 11 17 22 14 22 -6 37
37 18 49 -25 16 -35 6 -47 -51z"/>
<path d="M180 441 c-1 -3 -5 -25 -9 -48 -9 -46 -3 -53 50 -53 19 0 29 5 29 15
0 8 -5 15 -11 15 -5 0 -7 -4 -4 -10 4 -6 -7 -10 -24 -10 -25 0 -31 4 -31 21 0
19 4 20 35 15 31 -6 35 -4 35 14 0 11 1 23 3 27 1 4 -15 10 -35 14 -21 3 -38
3 -38 0z"/>
<path d="M270 405 c0 -20 5 -25 25 -25 20 0 25 5 25 25 0 20 -5 25 -25 25 -20
0 -25 -5 -25 -25z"/>
<path d="M280 355 c0 -8 9 -15 20 -15 11 0 20 7 20 15 0 8 -9 15 -20 15 -11 0
-20 -7 -20 -15z"/>
<path d="M589 516 c11 -13 5 -26 -11 -26 -5 0 -6 5 -3 10 7 12 -21 12 -50 1
-16 -7 -12 -9 20 -13 22 -3 48 -1 58 4 22 11 38 1 18 -11 -11 -7 -11 -15 -1
-46 9 -28 15 -34 22 -24 6 9 7 1 3 -24 -4 -27 -3 -37 4 -32 7 4 11 -3 11 -17
0 -13 6 -30 13 -37 10 -11 10 -14 0 -18 -7 -3 -13 -12 -13 -21 0 -15 -2 -15
-10 -2 -8 13 -10 12 -10 -4 0 -12 -5 -17 -17 -14 -14 4 -18 -1 -18 -23 0 -21
3 -25 12 -17 7 6 10 15 6 22 -3 6 -2 7 3 3 5 -5 9 -22 10 -38 1 -24 -1 -27
-12 -18 -11 9 -14 8 -14 -5 0 -9 -4 -16 -10 -16 -10 0 -15 21 -11 50 0 8 4 35
6 59 5 40 4 43 -15 38 -14 -3 -20 0 -20 10 0 11 -7 14 -25 9 -24 -6 -25 -4
-21 21 2 15 5 39 5 53 1 20 3 22 11 10 7 -11 10 -7 10 18 0 34 -15 44 -24 15
-3 -10 -8 -43 -11 -74 -6 -47 -4 -57 10 -63 9 -3 21 -4 26 0 5 3 7 -5 5 -18
-3 -13 -5 -25 -5 -27 -1 -2 -10 4 -21 14 -11 10 -20 14 -20 9 0 -15 14 -30 28
-28 6 1 17 2 22 3 6 0 10 8 10 16 0 27 18 16 22 -13 6 -41 -17 -59 -44 -35
-20 17 -21 17 -15 0 12 -33 -13 -7 -30 31 -22 49 -24 90 -7 131 20 47 18 66
-8 84 -22 14 -20 15 27 11 41 -2 44 -2 15 4 -20 5 -34 13 -32 20 2 10 -3 10
-18 2 -14 -7 -20 -21 -20 -44 0 -18 -2 -49 -5 -67 -4 -26 -3 -30 4 -14 9 18
10 17 10 -7 1 -16 -3 -28 -8 -28 -21 0 -21 -39 0 -74 20 -35 21 -38 4 -56 -38
-42 17 -83 113 -84 83 -1 126 18 130 57 2 18 -2 29 -13 33 -10 4 -12 10 -7 18
5 6 12 35 16 63 6 45 4 55 -14 70 -19 17 -29 50 -11 39 4 -3 -1 19 -13 49 -16
42 -28 57 -50 65 -23 8 -26 7 -17 -4z m-61 -329 c15 0 16 -23 0 -33 -6 -4 -17
1 -25 11 -7 11 -13 15 -13 11 0 -4 -5 -4 -10 -1 -16 10 0 27 19 19 9 -3 22 -7
29 -7z"/>
<path d="M160 511 c0 -16 18 -22 80 -27 65 -5 82 10 28 24 -21 5 -39 5 -50 -2
-13 -8 -21 -7 -30 2 -14 14 -28 16 -28 3z"/>
<path d="M590 463 c0 -6 -3 -19 -7 -29 -4 -12 -3 -15 5 -10 8 5 12 0 12 -13 0
-12 5 -21 10 -21 6 0 8 11 4 28 -8 32 -23 62 -24 45z"/>
<path d="M550 445 c0 -27 11 -65 19 -65 3 0 6 19 7 42 0 23 -2 36 -4 29 -4
-11 -6 -10 -13 0 -7 11 -9 9 -9 -6z"/>
</g>
</svg>
