<?xml version="1.0" standalone="no"?>
<!DOCTYPE svg PUBLIC "-//W3C//DTD SVG 20010904//EN"
 "http://www.w3.org/TR/2001/REC-SVG-20010904/DTD/svg10.dtd">
<svg version="1.0" xmlns="http://www.w3.org/2000/svg"
 width="72.000000pt" height="72.000000pt" viewBox="0 0 72.000000 72.000000"
 preserveAspectRatio="xMidYMid meet">
<metadata>
Created by potrace 1.10, written by Peter Selinger 2001-2011
</metadata>
<g transform="translate(0.000000,72.000000) scale(0.100000,-0.100000)"
fill="#000000" stroke="none">
<path d="M37 682 c-16 -18 -16 -20 3 -37 11 -10 20 -23 20 -29 0 -6 133 -144
296 -306 l295 -295 24 30 25 30 -293 293 c-160 160 -296 292 -301 292 -5 0
-19 9 -31 20 -21 20 -22 20 -38 2z m43 -28 c0 4 9 2 21 -4 19 -11 20 -12 3
-24 -11 -9 -15 -19 -10 -31 6 -17 8 -17 25 -1 18 16 30 6 292 -254 249 -248
271 -272 256 -287 -14 -15 -22 -11 -84 45 -119 106 -508 506 -521 535 -16 37
-15 42 3 27 8 -7 15 -9 15 -6z"/>
</g>
</svg>
