<?xml version="1.0" standalone="no"?>
<!DOCTYPE svg PUBLIC "-//W3C//DTD SVG 20010904//EN"
 "http://www.w3.org/TR/2001/REC-SVG-20010904/DTD/svg10.dtd">
<svg version="1.0" xmlns="http://www.w3.org/2000/svg"
 width="72.000000pt" height="72.000000pt" viewBox="0 0 72.000000 72.000000"
 preserveAspectRatio="xMidYMid meet">
<metadata>
Created by potrace 1.10, written by Peter Selinger 2001-2011
</metadata>
<g transform="translate(0.000000,72.000000) scale(0.100000,-0.100000)"
fill="#000000" stroke="none">
<path d="M37 682 l-27 -28 63 -79 c76 -95 216 -230 354 -340 115 -92 145 -129
145 -180 0 -21 6 -39 13 -41 35 -14 129 70 123 110 -2 16 -12 22 -43 27 -22 3
-50 10 -62 17 -12 7 -75 76 -141 155 -149 177 -216 247 -315 325 -43 34 -79
62 -81 62 -1 0 -14 -13 -29 -28z m69 -16 c19 -14 19 -15 -5 -40 -18 -20 -27
-23 -33 -14 -13 21 -9 28 10 21 16 -6 16 -5 -1 14 -26 30 -6 44 29 19z m141
-123 c54 -54 131 -137 171 -186 67 -80 72 -89 57 -103 -12 -12 -13 -19 -4 -30
17 -21 29 -17 29 9 0 19 6 15 41 -25 32 -38 52 -51 95 -64 55 -16 69 -35 42
-62 -12 -12 -7 -16 -107 77 -54 51 -71 61 -71 41 0 -15 -177 130 -270 220
l-75 72 64 -53 c35 -30 81 -69 101 -86 33 -28 39 -31 50 -18 10 12 10 15 0 15
-10 0 -10 3 0 15 10 13 11 18 1 28 -10 9 -15 8 -27 -7 -8 -11 -14 -14 -14 -7
0 7 -4 9 -10 6 -5 -3 -53 35 -106 85 -52 49 -99 90 -104 90 -4 0 -11 7 -14 16
-4 11 -2 15 8 11 7 -3 19 0 25 6 9 9 11 5 9 -13 -3 -21 1 -25 25 -26 34 -1 34
5 -3 41 -30 29 -38 45 -21 45 5 0 54 -44 108 -97z m374 -464 c10 -20 3 -43
-11 -34 -4 3 -13 18 -18 34 -9 25 -8 29 4 24 8 -3 19 -14 25 -24z"/>
<path d="M187 515 c10 -13 21 -25 25 -25 4 0 16 -9 27 -21 11 -12 24 -18 30
-14 17 10 13 25 -7 25 -10 0 -31 14 -47 30 -35 36 -53 40 -28 5z"/>
<path d="M293 424 c-8 -21 19 -38 30 -18 9 16 1 34 -14 34 -5 0 -12 -7 -16
-16z"/>
<path d="M377 324 c-13 -13 -7 -20 38 -53 l45 -32 0 30 c0 21 -5 31 -15 31 -8
0 -15 -6 -15 -12 0 -7 -6 -2 -13 11 -13 26 -29 36 -40 25z"/>
</g>
</svg>
