<?xml version="1.0" standalone="no"?>
<!DOCTYPE svg PUBLIC "-//W3C//DTD SVG 20010904//EN"
 "http://www.w3.org/TR/2001/REC-SVG-20010904/DTD/svg10.dtd">
<svg version="1.0" xmlns="http://www.w3.org/2000/svg"
 width="72.000000pt" height="72.000000pt" viewBox="0 0 72.000000 72.000000"
 preserveAspectRatio="xMidYMid meet">
<metadata>
Created by potrace 1.10, written by Peter Selinger 2001-2011
</metadata>
<g transform="translate(0.000000,72.000000) scale(0.100000,-0.100000)"
fill="#000000" stroke="none">
<path d="M350 690 c12 -8 9 -10 -12 -10 -20 0 -28 -5 -28 -18 0 -14 7 -17 43
-14 l42 4 -2 -54 c-1 -29 -3 -55 -4 -58 -1 -3 -1 -8 -1 -11 1 -4 -9 -15 -21
-25 l-22 -19 19 23 c11 12 16 22 12 22 -9 0 -45 -42 -46 -53 0 -5 6 -5 13 -1
7 4 9 3 4 -2 -5 -5 -14 -9 -19 -9 -6 0 -13 -6 -16 -14 -3 -9 0 -11 9 -6 8 5
11 4 6 -1 -5 -5 -14 -9 -20 -9 -7 0 -11 -8 -11 -17 1 -10 -2 -16 -6 -15 -8 2
-110 -138 -110 -149 0 -3 6 -2 13 2 7 4 9 3 4 -2 -5 -5 -14 -9 -19 -9 -6 0
-13 -6 -16 -14 -3 -9 0 -11 8 -6 9 5 11 4 6 -4 -4 -6 -11 -9 -16 -6 -5 3 -14
-3 -19 -14 -8 -14 -7 -20 4 -24 9 -4 27 12 49 44 40 54 43 64 20 55 -9 -3 -12
-2 -9 5 4 6 13 8 20 5 15 -5 49 40 40 54 -3 5 0 12 6 16 8 5 9 3 4 -6 -6 -9
-4 -11 4 -6 7 5 10 15 7 23 -3 8 -2 12 3 9 5 -3 29 25 53 62 39 58 49 68 74
67 23 -1 37 -14 76 -71 26 -38 52 -68 57 -67 6 2 8 -3 5 -11 -3 -8 0 -17 7
-22 8 -5 10 -3 4 7 -5 8 -4 11 1 6 5 -5 9 -16 9 -25 0 -9 6 -16 13 -14 8 1 11
-2 7 -8 -4 -6 10 -33 29 -60 70 -97 63 -100 -221 -100 -226 0 -233 -1 -233
-20 0 -19 6 -20 233 -18 161 1 209 4 157 8 l-75 7 86 0 c102 -1 117 7 114 61
-2 27 -21 64 -74 142 -40 58 -76 104 -80 103 -5 -1 -8 5 -7 15 0 9 -5 16 -11
15 -7 -2 -12 0 -12 5 3 16 -2 28 -22 52 -11 14 -18 19 -14 13 8 -16 -11 -17
-20 -2 -4 6 -7 41 -8 79 0 50 -4 67 -13 63 -7 -2 -22 5 -33 16 -12 12 -29 21
-38 21 -15 0 -16 -2 -3 -10z m-67 -577 c-18 -2 -48 -2 -65 0 -18 2 -4 4 32 4
36 0 50 -2 33 -4z"/>
<path d="M48 116 c-14 -7 -24 -22 -26 -39 -6 -50 36 -76 84 -51 21 11 87 14
310 14 221 0 284 3 284 13 0 16 -564 13 -596 -4 -30 -15 -58 -8 -62 17 -5 33
19 46 53 28 31 -16 44 -12 26 10 -17 20 -46 25 -73 12z"/>
</g>
</svg>
