<?xml version="1.0" standalone="no"?>
<!DOCTYPE svg PUBLIC "-//W3C//DTD SVG 20010904//EN"
 "http://www.w3.org/TR/2001/REC-SVG-20010904/DTD/svg10.dtd">
<svg version="1.0" xmlns="http://www.w3.org/2000/svg"
 width="72.000000pt" height="72.000000pt" viewBox="0 0 72.000000 72.000000"
 preserveAspectRatio="xMidYMid meet">
<metadata>
Created by potrace 1.10, written by Peter Selinger 2001-2011
</metadata>
<g transform="translate(0.000000,72.000000) scale(0.100000,-0.100000)"
fill="#000000" stroke="none">
<path d="M63 703 c-12 -2 -26 -10 -31 -16 -15 -19 -23 -65 -12 -72 6 -4 7 1 3
11 -4 12 -3 15 6 10 7 -5 18 0 26 10 8 11 15 15 15 10 0 -5 9 1 20 14 18 21
19 42 2 39 -4 -1 -17 -4 -29 -6z"/>
<path d="M131 701 c-8 -6 -11 -16 -7 -27 6 -16 8 -16 23 -1 20 19 6 41 -16 28z"/>
<path d="M160 649 c0 -6 -6 -9 -13 -6 -9 3 -13 -2 -12 -16 2 -13 8 -21 16 -19
8 2 11 0 7 -4 -4 -4 -3 -13 3 -21 20 -23 -4 -14 -35 15 l-31 27 28 -31 c28
-31 37 -55 14 -35 -8 6 -17 7 -21 3 -4 -4 -6 -2 -4 3 2 6 0 11 -4 13 -22 7
-37 0 -43 -19 -8 -23 8 -48 19 -30 4 6 20 11 35 11 21 0 40 -14 79 -57 28 -32
69 -78 92 -102 28 -31 37 -48 30 -55 -5 -5 -10 -23 -10 -38 0 -28 16 -49 68
-90 11 -9 26 -36 32 -60 15 -63 31 -90 68 -111 23 -14 42 -17 67 -13 42 8 133
88 152 134 30 72 -16 145 -100 159 -33 5 -53 17 -89 55 -62 65 -105 65 -142 1
-4 -8 -2 -11 6 -8 7 2 20 -6 29 -18 16 -22 16 -24 -8 -45 -14 -13 -23 -17 -20
-9 3 7 -10 31 -29 52 -25 29 -31 42 -22 52 12 15 31 7 21 -10 -4 -7 1 -5 11 3
18 14 13 20 -78 106 -73 69 -96 97 -96 117 0 14 5 29 10 32 6 4 8 11 5 16 -8
13 -35 11 -35 -2z m16 -94 c-3 -8 -2 -14 2 -14 23 4 34 -3 28 -17 -3 -8 -2
-13 3 -10 4 3 16 -3 26 -14 10 -11 23 -17 29 -13 6 4 2 -4 -9 -17 -12 -14 -14
-20 -5 -15 26 16 36 13 37 -8 1 -11 10 -27 19 -36 16 -15 17 -15 5 1 -15 20 2
34 18 14 8 -10 7 -17 -7 -29 -17 -16 -21 -14 -56 22 -28 29 -37 45 -32 58 5
13 4 15 -4 7 -17 -17 -83 55 -68 73 14 17 21 16 14 -2z m324 -204 c36 -37 57
-50 89 -56 48 -8 64 -25 24 -26 l-28 -1 28 -8 c58 -18 72 -52 42 -110 -20 -38
-59 -64 -119 -79 -42 -10 -51 -10 -67 5 -11 10 -24 34 -29 55 -7 26 -25 51
-54 75 -50 41 -67 72 -59 103 4 17 8 19 19 10 8 -6 14 -22 14 -34 0 -12 9 -34
21 -49 17 -22 28 -26 60 -24 23 1 46 10 56 20 9 10 13 18 8 18 -4 0 -2 6 4 14
26 31 -33 108 -72 93 -8 -3 -21 0 -28 6 -11 10 -11 9 0 -5 7 -9 20 -14 29 -11
13 4 14 2 4 -5 -10 -7 -5 -16 22 -40 37 -32 39 -54 6 -72 -13 -7 -24 -1 -51
28 -19 20 -30 34 -25 30 5 -4 14 -1 20 8 10 13 14 13 31 -7 12 -13 14 -19 5
-14 -13 8 -13 7 -1 -9 10 -12 17 -14 25 -6 8 8 -3 24 -37 56 -47 46 -57 68
-34 77 31 13 53 4 97 -42z m114 -282 c-11 -18 -84 -47 -105 -42 -30 8 -31 20
-1 16 15 -2 45 5 67 16 49 24 48 23 39 10z"/>
<path d="M578 242 c16 -11 -85 -115 -102 -105 -6 4 -5 -1 3 -11 13 -16 19 -13
72 40 45 44 56 61 47 71 -6 7 -16 13 -22 13 -7 0 -6 -3 2 -8z"/>
<path d="M14 589 c-10 -17 13 -36 27 -22 12 12 4 33 -11 33 -5 0 -12 -5 -16
-11z"/>
</g>
</svg>
