<?xml version="1.0" standalone="no"?>
<!DOCTYPE svg PUBLIC "-//W3C//DTD SVG 20010904//EN"
 "http://www.w3.org/TR/2001/REC-SVG-20010904/DTD/svg10.dtd">
<svg version="1.0" xmlns="http://www.w3.org/2000/svg"
 width="72.000000pt" height="72.000000pt" viewBox="0 0 72.000000 72.000000"
 preserveAspectRatio="xMidYMid meet">
<metadata>
Created by potrace 1.10, written by Peter Selinger 2001-2011
</metadata>
<g transform="translate(0.000000,72.000000) scale(0.100000,-0.100000)"
fill="#000000" stroke="none">
<path d="M559 586 c9 -11 6 -13 -19 -10 -20 2 -29 0 -25 -7 4 -5 28 -9 55 -8
35 2 54 -3 74 -18 21 -17 23 -22 10 -27 -23 -9 -54 -7 -54 3 0 5 -7 12 -16 15
-8 3 -12 2 -9 -4 15 -25 -44 5 -63 31 -8 11 -22 16 -40 14 -15 -2 -31 -4 -37
-5 -5 0 -2 -5 8 -11 9 -5 21 -8 26 -5 5 3 21 -4 35 -15 15 -12 39 -24 54 -28
18 -5 5 -7 -40 -7 -39 1 -59 4 -47 8 10 4 19 10 19 13 0 4 -4 4 -10 0 -5 -3
-25 3 -45 14 -22 11 -31 21 -23 24 7 3 0 4 -17 3 -16 -1 -35 2 -42 7 -7 5 -18
7 -25 4 -7 -3 -4 -6 7 -6 17 -1 17 -3 5 -11 -12 -8 -12 -10 5 -11 49 -2 67 -7
80 -20 12 -12 11 -16 -12 -26 -14 -7 -23 -10 -19 -6 10 10 -14 32 -29 27 -7
-3 -16 -1 -20 5 -3 6 -13 11 -22 11 -13 0 -13 -2 -2 -16 24 -29 62 -36 167
-35 l102 2 0 -75 c0 -102 -19 -111 -22 -9 l-2 78 -6 -70 -6 -70 -2 68 c-2 81
-22 91 -22 10 0 -42 -3 -54 -11 -46 -6 6 -10 32 -8 57 3 25 1 46 -3 46 -5 0
-8 -22 -8 -50 0 -27 -4 -50 -10 -50 -5 0 -10 23 -10 50 0 48 -1 50 -28 50 -26
0 -27 -2 -24 -40 3 -24 0 -40 -6 -40 -6 0 -13 17 -15 38 l-4 37 -1 -37 c-1
-21 -6 -38 -11 -38 -6 0 -12 17 -14 38 l-4 37 -1 -37 c-1 -21 -6 -38 -12 -38
-5 0 -11 17 -11 38 l-2 37 -7 -40 -7 -40 -2 38 c-1 50 -21 48 -21 -3 0 -29 -4
-40 -15 -40 -11 0 -15 12 -17 43 l-1 42 -7 -50 -7 -50 -1 48 -2 48 -37 -3 -38
-3 -6 -65 -5 -65 -5 65 -5 65 -2 -67 c-3 -93 -22 -98 -24 -6 l-2 73 -6 -80 -6
-80 -3 80 c-3 66 -4 74 -11 45 -13 -56 -17 -160 -7 -160 5 0 18 10 28 22 11
11 19 18 19 14 0 -4 15 4 33 17 57 42 56 42 82 -18 30 -67 30 -65 3 -65 -19 0
-20 -2 -8 -10 8 -5 10 -10 5 -10 -6 0 -17 6 -23 12 -10 10 -14 10 -21 0 -4 -8
-28 -16 -52 -18 -24 -3 -59 -7 -78 -9 l-34 -4 5 134 c2 74 2 133 0 130 -3 -2
-14 7 -24 21 -11 14 -18 28 -15 31 3 2 11 -4 18 -15 10 -16 20 -19 48 -15 20
3 41 10 46 15 6 6 4 7 -6 3 -10 -4 -20 -2 -23 3 -14 22 33 19 53 -4 19 -22 27
-24 113 -23 51 1 83 4 70 6 -13 3 -26 11 -29 19 -3 8 -9 12 -13 9 -5 -3 -15
-2 -24 1 -22 8 -2 34 27 34 37 0 8 14 -36 16 -30 3 -36 1 -22 -5 11 -5 24 -6
29 -3 5 3 6 1 3 -5 -7 -11 -43 -11 -53 0 -11 10 -66 8 -60 -2 3 -5 -1 -12 -10
-15 -11 -4 -15 -2 -11 7 4 10 -3 12 -25 9 -16 -3 -32 -11 -35 -19 -4 -10 -8
-11 -13 -3 -4 6 -17 9 -31 5 l-25 -6 4 -191 c1 -105 7 -199 13 -209 15 -28 29
-23 29 11 0 17 3 30 8 30 4 0 128 11 277 25 l270 24 33 -32 33 -32 -4 155 c-2
85 -7 166 -12 180 -8 23 -7 24 8 11 9 -7 17 -20 17 -27 0 -8 5 -14 10 -14 6 0
10 13 10 29 0 25 -9 34 -69 70 -72 42 -103 53 -82 27z m-355 -48 c-3 -4 4 -8
14 -8 11 0 25 -7 32 -15 7 -8 19 -15 28 -15 8 0 13 -2 10 -5 -8 -8 -118 17
-118 26 0 5 5 9 11 9 5 0 8 4 5 8 -3 5 1 9 9 9 8 0 12 -4 9 -9z m419 -135 c-3
-43 -10 -79 -15 -81 -17 -7 -7 -24 11 -19 16 4 20 -2 23 -30 5 -41 -6 -51 -32
-28 -20 18 -32 63 -19 71 5 3 9 41 9 85 0 63 3 79 15 79 12 0 14 -13 8 -77z
m-153 27 c0 -22 -4 -40 -10 -40 -5 0 -10 18 -10 40 0 22 5 40 10 40 6 0 10
-18 10 -40z m-273 -52 c-2 -18 -4 -6 -4 27 0 33 2 48 4 33 2 -15 2 -42 0 -60z
m53 43 c0 -22 -4 -43 -10 -46 -6 -4 -10 12 -10 39 0 25 5 46 10 46 6 0 10 -18
10 -39z m417 -153 c-2 -29 -3 -8 -3 47 0 55 1 79 3 53 2 -26 2 -71 0 -100z
m-272 105 c-4 -10 -18 -45 -30 -78 -12 -32 -27 -61 -34 -63 -9 -3 -58 90 -64
122 -1 5 23 15 53 22 79 17 83 17 75 -3z m85 -4 c0 -4 12 -10 27 -14 41 -10
53 -24 53 -60 0 -19 6 -35 13 -38 6 -2 -26 -7 -73 -11 -47 -4 -98 -10 -114
-13 -25 -5 -28 -3 -21 13 4 11 17 44 29 76 19 53 22 56 53 55 18 -1 33 -5 33
-8z"/>
</g>
</svg>
