<?xml version="1.0" standalone="no"?>
<!DOCTYPE svg PUBLIC "-//W3C//DTD SVG 20010904//EN"
 "http://www.w3.org/TR/2001/REC-SVG-20010904/DTD/svg10.dtd">
<svg version="1.0" xmlns="http://www.w3.org/2000/svg"
 width="72.000000pt" height="72.000000pt" viewBox="0 0 72.000000 72.000000"
 preserveAspectRatio="xMidYMid meet">

<g transform="translate(0.000000,72.000000) scale(0.100000,-0.100000)"
fill="#000000" stroke="none">
<path d="M84 651 c-35 -16 -66 -41 -51 -41 8 0 97 52 97 56 0 6 -1 6 -46 -15z"/>
<path d="M310 650 c35 -18 35 -18 10 -24 -14 -3 -87 -10 -162 -17 -96 -8 -138
-16 -138 -24 0 -18 20 -31 67 -42 36 -9 42 -8 46 8 6 22 84 46 107 31 10 -6
16 -28 18 -63 1 -30 3 -65 5 -79 2 -20 -5 -29 -33 -42 l-35 -17 37 0 c33 -1
38 -4 48 -38 7 -21 26 -62 42 -90 31 -56 123 -163 140 -163 5 0 7 3 5 8 -3 4
1 13 9 20 8 7 14 9 14 5 0 -4 5 -2 12 5 20 20 41 14 75 -25 23 -25 33 -32 33
-20 0 9 -4 17 -10 17 -5 0 -10 7 -10 16 0 8 4 13 9 9 5 -3 12 -1 15 4 9 15
-13 24 -28 12 -9 -8 -18 -5 -34 13 -26 31 -48 71 -33 62 16 -10 13 5 -5 25 -8
9 -16 23 -18 31 -1 7 -5 19 -9 25 -6 9 -3 11 7 7 9 -3 16 -10 16 -15 0 -4 10
-13 23 -19 19 -9 20 -9 6 2 -8 7 -39 46 -68 86 -29 39 -55 72 -57 72 -7 0 4
-18 33 -57 17 -23 20 -33 10 -33 -7 0 -14 -7 -14 -15 0 -20 14 -19 27 3 7 10
10 11 7 3 -2 -8 -11 -19 -20 -25 -12 -8 -20 -4 -37 17 -21 26 -63 37 -74 18
-4 -5 3 -7 13 -4 22 6 61 -13 61 -29 0 -6 -7 -5 -17 3 -16 13 -17 12 -4 -3 7
-10 17 -15 22 -12 5 3 9 -2 9 -10 0 -20 -37 -31 -55 -16 -18 15 -19 37 -2 43
7 3 5 6 -5 6 -26 1 -22 -29 7 -59 17 -18 22 -29 15 -40 -18 -28 -52 21 -60 86
-6 46 -8 51 -10 24 l-2 -35 -15 48 c-8 27 -13 50 -11 52 2 2 21 6 43 9 21 4
48 15 60 25 25 24 61 28 99 12 41 -16 41 -10 -1 19 -35 24 -36 24 -67 6 -41
-24 -133 -56 -140 -49 -3 4 -6 35 -6 69 0 45 4 67 16 76 42 35 54 50 54 68 0
21 -28 40 -57 40 -12 -1 -6 -7 17 -20z m177 -366 c-3 -4 -1 -16 6 -28 12 -22
17 -66 7 -66 -3 0 -14 13 -25 29 -10 16 -22 28 -26 25 -4 -2 -10 0 -14 5 -3 6
7 17 22 25 30 17 40 20 30 10z m-37 -54 c4 0 15 -12 25 -26 12 -18 13 -29 6
-38 -6 -7 -7 -17 -3 -21 4 -5 -2 -5 -12 -1 -16 5 -17 4 -6 -9 7 -8 9 -15 4
-15 -15 0 -64 68 -64 88 0 24 10 34 28 27 7 -3 17 -5 22 -5z m55 -90 c-6 -9
-9 -9 -16 1 -10 17 0 34 13 21 6 -6 7 -16 3 -22z"/>
<path d="M469 252 c6 -12 16 -24 22 -28 8 -4 8 -1 0 14 -6 12 -16 24 -22 28
-8 4 -8 1 0 -14z"/>
<path d="M160 425 c0 -5 5 -17 10 -25 5 -8 10 -10 10 -5 0 6 -5 17 -10 25 -5
8 -10 11 -10 5z"/>
<path d="M560 416 c0 -2 8 -10 18 -17 15 -13 16 -12 3 4 -13 16 -21 21 -21 13z"/>
<path d="M136 365 c-3 -8 -1 -15 4 -15 6 0 10 5 10 10 0 6 8 10 18 10 10 0 28
-19 43 -48 38 -69 144 -195 192 -229 45 -32 98 -53 131 -53 12 1 -3 9 -32 19
-55 19 -74 33 -131 95 -20 22 -52 56 -72 75 -19 20 -53 62 -74 94 -27 41 -44
57 -60 57 -13 0 -25 -7 -29 -15z"/>
<path d="M490 360 c0 -5 5 -10 11 -10 5 0 7 5 4 10 -3 6 -8 10 -11 10 -2 0 -4
-4 -4 -10z"/>
<path d="M518 343 c-21 -5 -24 -23 -5 -23 6 0 25 -18 40 -40 24 -34 26 -40 10
-37 -10 1 -25 7 -33 12 -13 8 -13 6 -1 -8 7 -9 11 -23 8 -31 -6 -15 19 -56 34
-56 5 0 9 7 9 15 0 24 20 17 30 -10 5 -14 14 -25 20 -25 14 0 12 16 -4 29 -14
11 -10 65 4 56 4 -3 13 2 19 9 9 10 9 16 1 21 -6 4 -9 1 -8 -5 2 -7 -7 -14
-18 -16 -16 -3 -31 9 -58 43 -20 25 -36 50 -36 54 0 4 17 10 38 12 l37 4 -35
0 c-19 0 -43 -1 -52 -4z m62 -142 c-1 -13 -3 -13 -15 3 -19 26 -19 42 0 26 8
-7 15 -20 15 -29z"/>
<path d="M635 341 c6 -11 4 -13 -10 -7 -18 7 -18 6 0 -14 10 -11 19 -20 20
-20 6 0 -3 41 -10 47 -4 5 -4 2 0 -6z"/>
<path d="M665 279 c-4 -6 -5 -12 -2 -15 2 -3 7 2 10 11 7 17 1 20 -8 4z"/>
<path d="M646 131 c-4 -5 -2 -12 3 -15 5 -4 12 -2 15 3 4 5 2 12 -3 15 -5 4
-12 2 -15 -3z"/>
<path d="M620 104 c0 -8 5 -12 10 -9 6 4 8 11 5 16 -9 14 -15 11 -15 -7z"/>
</g>
</svg>
