<?xml version="1.0" standalone="no"?>
<!DOCTYPE svg PUBLIC "-//W3C//DTD SVG 20010904//EN"
 "http://www.w3.org/TR/2001/REC-SVG-20010904/DTD/svg10.dtd">
<svg version="1.0" xmlns="http://www.w3.org/2000/svg"
 width="72.000000pt" height="72.000000pt" viewBox="0 0 72.000000 72.000000"
 preserveAspectRatio="xMidYMid meet">

<g transform="translate(0.000000,72.000000) scale(0.100000,-0.100000)"
fill="#000000" stroke="none">
<path d="M39 670 l-24 -19 317 -318 c258 -258 320 -315 330 -305 11 11 10 12
-2 7 -10 -3 -110 90 -310 291 -162 163 -288 294 -280 291 8 -2 22 2 30 9 14
12 32 -3 140 -111 77 -78 118 -125 107 -125 -9 0 -17 -7 -17 -15 0 -19 17 -19
27 0 7 12 16 8 48 -25 35 -36 37 -40 17 -40 -24 0 -29 -14 -10 -26 6 -4 16 0
23 9 10 15 15 13 44 -17 26 -27 29 -34 17 -39 -9 -4 -16 -11 -16 -17 0 -13 37
-13 42 0 2 6 19 -5 38 -25 25 -26 30 -35 17 -35 -19 0 -23 -25 -6 -35 6 -4 13
3 16 15 5 20 9 18 57 -27 28 -26 -88 93 -259 265 -170 171 -313 312 -316 312
-4 0 -17 -9 -30 -20z m46 0 c3 -5 -1 -10 -9 -10 -10 0 -16 -9 -16 -22 0 -16
-3 -19 -11 -11 -8 8 -7 17 3 32 14 23 24 26 33 11z"/>
</g>
</svg>
