<svg width="58" height="58" viewBox="0 0 58 58" xmlns="http://www.w3.org/2000/svg">
<path d="M15.8181 27.6819C15.8181 26.9532 15.2285 26.3636 14.4999 26.3636C13.7712 26.3636 13.1816 26.9532 13.1816 27.6819C13.1816 31.1433 16.9998 35.8961 17.4349 36.4277C17.6963 36.7445 18.0747 36.9092 18.4556 36.9092C18.7492 36.9092 19.0452 36.8113 19.291 36.6105C19.8536 36.1483 19.9347 35.3181 19.4738 34.7542C18.0606 33.0319 15.8181 29.5896 15.8181 27.6819Z" fill="black"/>
<path d="M43.4998 26.3636C42.7712 26.3636 42.1816 26.9532 42.1816 27.6819C42.1816 29.5831 39.9391 33.0293 38.5258 34.7556C38.0649 35.3181 38.1472 36.1484 38.7099 36.6105C38.9545 36.8113 39.2506 36.9092 39.5453 36.9092C39.9263 36.9092 40.3035 36.7445 40.5648 36.4277C41 35.8961 44.8181 31.1435 44.8181 27.6819C44.8181 26.9532 44.2285 26.3636 43.4998 26.3636Z" fill="black"/>
<path d="M28.9999 26.3636C28.2712 26.3636 27.6816 26.9532 27.6816 27.6819V35.591C27.6816 36.3196 28.2712 36.9092 28.9999 36.9092C29.7285 36.9092 30.3181 36.3196 30.3181 35.591V27.6819C30.318 26.9532 29.7284 26.3636 28.9999 26.3636Z" fill="black"/>
<path d="M43.5 5.27277C42.7012 5.27277 41.8664 5.37843 40.9995 5.53946C38.0963 2.15511 33.7985 0 29.0001 0C24.2016 0 19.9037 2.15511 17.0006 5.53933C16.1336 5.37843 15.2988 5.27265 14.5001 5.27265C6.50461 5.27277 0 11.7774 0 19.7727C0 25.2514 3.08949 30.2319 7.93999 32.6945L7.91429 52.6153C7.91305 54.0531 8.47163 55.4048 9.48733 56.4218C10.5043 57.4401 11.8546 58 13.2926 58H44.7127C47.6786 58 50.091 55.5876 50.091 52.6217V32.6752C54.9235 30.2062 58.0001 25.2334 58.0001 19.7727C58 11.7774 51.4954 5.27277 43.5 5.27277ZM47.4546 52.6218C47.4546 54.1331 46.224 55.3638 44.7126 55.3638H13.2925C12.56 55.3638 11.8713 55.078 11.3525 54.5593C10.835 54.0405 10.5493 53.3518 10.5505 52.6181L10.5574 47.4546H47.4546V52.6218ZM48.2707 30.6233C48.2011 30.6516 48.1355 30.6851 48.0737 30.725C47.9076 30.8279 47.7712 30.9645 47.6695 31.1214C47.5665 31.2771 47.497 31.4574 47.4687 31.6505C47.4571 31.7239 47.4532 31.7973 47.4545 31.8719V44.8181H10.5607L10.5777 31.8898C10.5789 31.8178 10.5751 31.7444 10.5648 31.6736C10.5365 31.474 10.4631 31.2886 10.3562 31.1277C10.2558 30.9771 10.1245 30.8458 9.96484 30.7454C9.89922 30.7042 9.82965 30.6681 9.7576 30.6385C5.43108 28.7465 2.63632 24.4854 2.63632 19.7727C2.63632 13.2307 7.95803 7.9091 14.5 7.9091C14.7557 7.9091 15.0256 7.93999 15.2904 7.96088C13.9567 10.2787 13.1817 12.9572 13.1817 15.8182C13.1817 16.5468 13.7713 17.1364 14.5 17.1364C15.2286 17.1364 15.8182 16.5468 15.8182 15.8182C15.8182 8.5501 21.732 2.63632 29.0001 2.63632C36.2682 2.63632 42.1818 8.5501 42.1818 15.8182C42.1818 16.5468 42.7714 17.1364 43.5 17.1364C44.2287 17.1364 44.8183 16.5468 44.8183 15.8182C44.8183 12.9572 44.0433 10.2789 42.7096 7.96088C42.9744 7.93999 43.2443 7.9091 43.5 7.9091C50.0421 7.9091 55.3637 13.2308 55.3637 19.7727C55.3637 24.4688 52.5805 28.7245 48.2707 30.6233Z" fill="black"/>
</svg>
