<svg width="59" height="59" viewBox="0 0 59 59" xmlns="http://www.w3.org/2000/svg">
<path d="M23.898 32.2712C23.898 31.7939 23.511 31.4069 23.0337 31.4069H3.63541C2.5839 31.4069 1.72852 30.5515 1.72852 29.5V3.63541C1.72852 2.5839 2.5839 1.72852 3.63541 1.72852H29.5C30.5515 1.72852 31.4069 2.5839 31.4069 3.63541V23.0337C31.4069 23.511 31.7939 23.898 32.2712 23.898C32.7485 23.898 33.1354 23.511 33.1354 23.0337V3.63541C33.1354 1.6308 31.5046 0 29.5 0H3.63541C1.6308 0 0 1.6308 0 3.63541V29.5C0 31.5046 1.6308 33.1354 3.63541 33.1354H23.0337C23.511 33.1354 23.898 32.7485 23.898 32.2712Z" fill="black"/>
<path d="M55.3643 25.8646H47.9744C47.4971 25.8646 47.1101 26.2516 47.1101 26.7289C47.1101 27.2062 47.4971 27.5931 47.9744 27.5931H55.3643C56.4158 27.5931 57.2712 28.4485 57.2712 29.5V55.3646C57.2712 56.4161 56.4158 57.2715 55.3643 57.2715H29.4997C28.4482 57.2715 27.5928 56.4161 27.5928 55.3646V29.5C27.5928 28.4485 28.4482 27.5931 29.4997 27.5931H44.2795C44.7568 27.5931 45.1438 27.2062 45.1438 26.7289C45.1438 26.2516 44.7568 25.8646 44.2795 25.8646H29.4997C27.4951 25.8646 25.8643 27.4954 25.8643 29.5V55.3646C25.8643 57.3692 27.4951 59 29.4997 59H55.3643C57.3689 59 58.9997 57.3692 58.9997 55.3646V29.5C58.9997 27.4954 57.3689 25.8646 55.3643 25.8646Z" fill="black"/>
<path d="M24.8816 9.23733H17.4322V8.25415C17.4322 7.77685 17.0453 7.38989 16.568 7.38989C16.0907 7.38989 15.7037 7.77685 15.7037 8.25415V9.23733H8.25439C7.77709 9.23733 7.39014 9.62429 7.39014 10.1016C7.39014 10.5789 7.77709 10.9658 8.25439 10.9658H20.9816C20.4839 12.5646 19.2368 15.7887 16.5638 19.0068C14.9314 17.0434 13.8256 15.0697 13.0932 13.4383C12.8976 13.003 12.3865 12.8083 11.9508 13.0038C11.5153 13.1993 11.3208 13.7107 11.5162 14.1462C12.3253 15.9483 13.5591 18.1403 15.3992 20.3088C14.0874 21.6696 12.4991 22.9891 10.5807 24.1401C10.1714 24.3857 10.0387 24.9166 10.2844 25.3259C10.4464 25.596 10.7326 25.7456 11.0262 25.7456C11.1775 25.7456 11.3309 25.7058 11.4701 25.6223C13.5038 24.4021 15.1836 23.0061 16.5635 21.5883C17.959 23.0211 19.6404 24.4071 21.6656 25.6223C21.8048 25.7058 21.9582 25.7456 22.1095 25.7456C22.4031 25.7456 22.6893 25.596 22.8514 25.3259C23.0969 24.9166 22.9642 24.3857 22.555 24.1401C20.6333 22.9872 19.0434 21.6687 17.729 20.3069C19.0875 18.7076 20.0839 17.1393 20.7929 15.8226C21.9402 13.6919 22.5264 11.9009 22.7856 10.9657H24.8816C25.3589 10.9657 25.7458 10.5788 25.7458 10.1015C25.7458 9.62417 25.359 9.23733 24.8816 9.23733Z" fill="black"/>
<path d="M43.6086 34.0233C43.4164 33.5561 42.9659 33.2543 42.4607 33.2543C42.4604 33.2543 42.4599 33.2543 42.4595 33.2543C41.9538 33.2547 41.5034 33.5575 41.312 34.0255C41.3093 34.032 41.3068 34.0386 41.3043 34.045L35.0607 50.438C34.8909 50.8841 35.1147 51.3834 35.5607 51.5533C35.662 51.5919 35.766 51.6101 35.8682 51.6101C36.2164 51.6101 36.5447 51.398 36.676 51.0531L38.0189 47.5271H46.8575L48.1873 51.0507C48.3559 51.4973 48.8543 51.7228 49.3011 51.5542C49.7476 51.3857 49.9731 50.887 49.8045 50.4404L43.6178 34.0467C43.6149 34.039 43.6118 34.0312 43.6086 34.0233ZM38.6774 45.7988L42.4586 35.8707L46.2053 45.7988H38.6774Z" fill="black"/>
<path d="M23.5525 47.2833L19.8576 44.5121C19.4759 44.2257 18.934 44.3032 18.6477 44.685C18.3613 45.0667 18.4388 45.6086 18.8205 45.8949L20.4412 47.1104H17.4915C14.4026 47.1104 11.8896 44.5974 11.8896 41.5085V35.9666C11.8896 35.4893 11.5027 35.1023 11.0254 35.1023C10.5481 35.1023 10.1611 35.4893 10.1611 35.9666V41.5085C10.1611 45.5506 13.4496 48.8389 17.4915 48.8389H20.4412L18.8205 50.0544C18.4388 50.3408 18.3613 50.8826 18.6477 51.2644C18.8175 51.4908 19.077 51.6101 19.3398 51.6101C19.5202 51.6101 19.7022 51.5537 19.8576 51.4372L23.5525 48.6661C23.7702 48.5028 23.8982 48.2467 23.8982 47.9747C23.8982 47.7026 23.7702 47.4464 23.5525 47.2833Z" fill="black"/>
<path d="M35.4478 11.7166L39.1426 14.4878C39.2981 14.6044 39.48 14.6606 39.6605 14.6606C39.9232 14.6606 40.1828 14.5413 40.3526 14.3149C40.6389 13.9332 40.5615 13.3913 40.1797 13.105L38.5591 11.8895H41.5087C44.5977 11.8895 47.1106 14.4025 47.1106 17.4914V23.0333C47.1106 23.5106 47.4976 23.8976 47.9749 23.8976C48.4522 23.8976 48.8391 23.5106 48.8391 23.0333V17.4914C48.8391 13.4493 45.5507 10.161 41.5087 10.161H38.5591L40.1797 8.94548C40.5615 8.65912 40.6389 8.11729 40.3526 7.73552C40.0661 7.35363 39.5245 7.27631 39.1426 7.56267L35.4478 10.3338C35.2301 10.4971 35.1021 10.7532 35.1021 11.0252C35.1021 11.2973 35.2301 11.5535 35.4478 11.7166Z" fill="black"/>
</svg>
