<?xml version="1.0" encoding="iso-8859-1"?>
<!-- Generator: Adobe Illustrator 19.0.0, SVG Export Plug-In . SVG Version: 6.00 Build 0)  -->
<svg version="1.1" id="Capa_1" xmlns="http://www.w3.org/2000/svg" xmlns:xlink="http://www.w3.org/1999/xlink" x="0px" y="0px"
	 viewBox="0 0 496 496" style="enable-background:new 0 0 496 496;" xml:space="preserve">
<g>
	<g>
		<g>
			<path d="M155.312,200l-18.328-18.328L143.176,160H148c11.024,0,20-8.968,20-20s-8.976-20-20-20
				c-5.912,0-11.168,3.968-12.792,9.648l-11.168,39.08l-4.04-4.04l-4.04,4.04l-11.168-39.08C103.168,123.968,97.912,120,92,120
				c-11.024,0-20,8.968-20,20s8.976,20,20,20h4.824l6.192,21.672L84.688,200L120,235.312L155.312,200z M149.896,136.48
				c1.256,0.68,2.104,2.008,2.104,3.52c0,2.2-1.792,4-4,4h-0.248L149.896,136.48z M92,144c-2.208,0-4-1.8-4-4
				c0-1.512,0.848-2.84,2.104-3.52l2.144,7.52H92z M120,187.312L132.688,200L120,212.688L107.312,200L120,187.312z"/>
			<path d="M472,88c-39.696,0-72,32.296-72,72c0,14.232,9.4,26.176,22.264,30.328c-5.816,21.984-6.552,45.256-1.56,67.72l2.176,9.8
				c0.744,3.336,1.12,6.768,1.12,10.184c0,15.936-7.912,30.4-20.936,39.04c-6.48-10.176-15.104-19.032-25.76-25.688
				c-15.504-9.696-32.088-17.68-49.304-23.952v-36.248l15.816-4.52c7.824-2.224,15.096-5.84,21.608-10.736
				C382.064,203.456,392,183.584,392,162.792v-20.864c10.16-11.92,16-27.24,16-43.136V77.84c13.152-7.072,25.624-15.44,37.28-25.152
				C452.096,47,456,38.656,456,29.792C456,13.368,442.64,0,426.208,0h-6.472c-3.384,0-6.72,0.568-9.92,1.696L307.808,37.704
				c-21.4,7.544-39.608,22.424-51.288,41.88c-5.336,8.896-9.208,18.528-11.504,28.624L216.56,233.416L192,226.048v-62.296
				l41.2-34.336c4.32-3.6,6.8-8.888,6.8-14.512C240,104.48,231.52,96,221.104,96h-55.952c-12.36-9.984-28.064-16-45.152-16
				s-32.792,6.016-45.152,16H18.896C8.48,96,0,104.48,0,114.896c0,5.624,2.48,10.912,6.8,14.512L48,163.752v66.36l-22.472,44.944
				L40,272.16v16.24c0,27.672,10.776,53.688,30.344,73.256c5.944,5.952,12.592,11.04,19.736,15.352l-8.896,9.784
				C75.264,393.32,72,401.76,72,410.56v2.112C72,432.152,87.848,448,107.328,448c10.416,0,20.24-4.552,26.968-12.504l34.624-40.92
				c11.272,2.248,22.2,5.928,32.488,11.08l6.032,3.016c18.96,9.48,40.064,14.68,61.264,15.224L290.048,496H360v-49.864
				c0-10.24,6.08-19.472,15.496-23.504c20.6-8.832,34.952-27.216,39.128-48.664l1.488-0.592
				c24.464-9.792,43.656-28.512,54.024-52.728l1.88-4.4C477.32,303.904,480,290.832,480,277.4c0-15.232-3.6-30.496-10.416-44.12
				c-6.584-13.176-10.84-27.52-12.624-42.152C479.16,186.92,496,167.4,496,144V88H472z M260.624,111.76
				c1.92-8.448,5.16-16.496,9.616-23.936c9.76-16.28,24.992-28.72,42.888-35.024l102.008-36.008c1.488-0.528,3.032-0.792,4.6-0.792
				h6.472C433.816,16,440,22.184,440,29.792c0,4.112-1.808,7.968-4.96,10.592c-22.728,18.936-48.696,32.56-77.184,40.496
				l4.288,15.408c10.28-2.856,20.224-6.472,29.856-10.688v13.192c0,15.792-7.536,30.864-20.176,40.336
				c-4.944,3.712-10.464,6.456-16.4,8.144l-45.624,13.04l4.4,15.392l45.616-13.04c5.72-1.624,11.136-4.016,16.184-7.088v7.216
				c0,15.792-7.536,30.864-20.176,40.336c-4.944,3.712-10.464,6.456-16.4,8.144l-45.624,13.04l4.4,15.392l13.8-3.952v43.336
				c0,3.552-1.448,7.04-3.96,9.56c-3.696,3.696-9.28,4.912-14.192,3.152l-68.488-24.904L260.624,111.76z M213.016,249.056
				l-3.608,15.872l-9.968-19.944L213.016,249.056z M221.112,112c1.592,0,2.888,1.296,2.888,2.896c0,0.856-0.376,1.672-1.04,2.216
				l-31.52,26.272c-1.384-11.504-5.448-22.2-11.608-31.384H221.112z M17.04,117.12c-0.664-0.552-1.04-1.36-1.04-2.224
				c0-1.6,1.296-2.896,2.896-2.896h41.28c-6.168,9.192-10.232,19.88-11.608,31.384L17.04,117.12z M64,233.888V152
				c0-30.872,25.12-56,56-56s56,25.128,56,56v81.888l9.528,19.056L152,246.24v22.448l-18.92-18.92L120,282.464l-13.08-32.696
				L88,268.688V246.24l-33.528,6.704L64,233.888z M369.192,407.928c-15.304,6.56-25.192,21.56-25.192,38.208V480h-42.048
				L280,406.832v-45.288l15.432-38.568l-14.856-5.936L264,358.464v49.048c-17.128-1.128-34.064-5.48-49.408-13.152l-6.032-3.016
				c-8.952-4.48-18.344-7.976-28-10.52l33.552-39.648l-12.208-10.328l-79.816,94.32c-3.688,4.336-9.064,6.832-14.76,6.832
				C96.664,432,88,423.328,88,412.672v-2.112c0-4.824,1.784-9.44,5.024-13l72.896-80.176l-11.832-10.768l-53.024,58.32
				c-7.104-3.944-13.624-8.816-19.4-14.6C65.112,333.8,56,311.8,56,288.4v-19.44l16-3.2v41.552l29.08-29.08L120,325.536
				l18.92-47.304l29.08,29.08V265.76l39.424,7.888l-0.784,3.464l81.744,29.72c3.272,1.184,6.664,1.768,10.04,1.768
				c7.712,0,15.312-3.016,20.936-8.632c4.248-4.256,7.048-9.784,8.12-15.664c14.384,5.6,28.272,12.48,41.344,20.648
				C388.344,317.152,400,338.176,400,361.2C400,381.56,387.904,399.904,369.192,407.928z M464,277.4
				c0,11.256-2.248,22.208-6.68,32.544l-1.88,4.4c-7.896,18.416-21.92,32.984-39.768,41.656c-0.536-8.592-2.256-16.92-5.288-24.72
				C428.744,319.84,440,300.008,440,278.032c0-4.592-0.504-9.184-1.504-13.656l-2.176-9.8c-5.128-23.056-3.608-47.096,4-69.176
				c1.296,19.088,6.392,37.936,14.944,55.04C460.984,251.848,464,264.632,464,277.4z M480,144c0,14.872-10.24,27.288-24,30.864
				v-49.288l-14.656,21.984c-5.792,8.68-10.48,17.968-14.208,27.6C420.704,173.096,416,167.112,416,160c0-30.872,25.12-56,56-56h8
				V144z"/>
			
				<rect x="327.991" y="86.026" transform="matrix(0.2167 0.9762 -0.9762 0.2167 355.161 -254.2036)" width="15.999" height="16.391"/>
		</g>
	</g>
</g>
<g>
</g>
<g>
</g>
<g>
</g>
<g>
</g>
<g>
</g>
<g>
</g>
<g>
</g>
<g>
</g>
<g>
</g>
<g>
</g>
<g>
</g>
<g>
</g>
<g>
</g>
<g>
</g>
<g>
</g>
</svg>
