<svg height="480pt" viewBox="0 0 480 480.38557" width="480pt" xmlns="http://www.w3.org/2000/svg"><path d="m328.191406 224.386719c4.417969 0 8-3.582031 8-8s-3.582031-8-8-8h-96c-4.417968 0-8 3.582031-8 8s3.582032 8 8 8zm0 0"/><path d="m360.191406 360.386719c-4.417968 0-8 3.582031-8 8v72c0 13.253906-10.742187 24-24 24h-176c-13.253906 0-24-10.746094-24-24v-128c0-4.417969-3.582031-8-8-8-4.417968 0-8 3.582031-8 8v128c.027344 22.078125 17.921875 39.972656 40 40h176c22.082032-.027344 39.976563-17.921875 40-40v-72c0-4.417969-3.582031-8-8-8zm0 0"/><path d="m160.191406 312.386719c-4.417968 0-8 3.582031-8 8s3.582032 8 8 8h64c4.417969 0 8-3.582031 8-8s-3.582031-8-8-8zm0 0"/><path d="m320.191406 352.386719h-120c-4.417968 0-8 3.582031-8 8s3.582032 8 8 8h120c4.417969 0 8-3.582031 8-8s-3.582031-8-8-8zm0 0"/><path d="m232.191406 400.386719c0-4.417969-3.582031-8-8-8h-64c-4.417968 0-8 3.582031-8 8s3.582032 8 8 8h64c4.417969 0 8-3.582031 8-8zm0 0"/><path d="m328.191406 400.386719c0-4.417969-3.582031-8-8-8h-56c-4.417968 0-8 3.582031-8 8s3.582032 8 8 8h56c4.417969 0 8-3.582031 8-8zm0 0"/><path d="m160.191406 424.386719c-4.417968 0-8 3.582031-8 8s3.582032 8 8 8h48c4.417969 0 8-3.582031 8-8s-3.582031-8-8-8zm0 0"/><path d="m248.191406 424.386719c-4.417968 0-8 3.582031-8 8s3.582032 8 8 8h48c4.417969 0 8-3.582031 8-8s-3.582031-8-8-8zm0 0"/><path d="m208.191406 248.386719v-64c-.023437-22.082031-17.917968-39.976563-40-40v-8c0-13.257813-10.742187-24-24-24-13.253906 0-24 10.742187-24 24v8h-80c-22.078125.023437-39.972656 17.917969-40 40v64c.027344 22.078125 17.921875 39.972656 40 40h128c22.082032-.027344 39.976563-17.921875 40-40zm-72-112c0-4.417969 3.582032-8 8-8 4.417969 0 8 3.582031 8 8v8h-16zm-120 112v-64c0-13.257813 10.746094-24 24-24h128c13.257813 0 24 10.742187 24 24v64c0 13.253906-10.742187 24-24 24h-128c-13.253906 0-24-10.746094-24-24zm0 0"/><path d="m136.191406 208.386719c-4.417968 0-8 3.582031-8 8 0 13.253906-10.742187 24-24 24-13.253906 0-24-10.746094-24-24 0-13.257813 10.746094-24 24-24 4.417969 0 8-3.582031 8-8s-3.582031-8-8-8c-22.089844 0-40 17.90625-40 40 0 22.089843 17.910156 40 40 40 22.09375 0 40-17.910157 40-40 0-4.417969-3.582031-8-8-8zm0 0"/><path d="m48.191406 248.386719c0 4.417969-3.582031 8-8 8-4.417968 0-8-3.582031-8-8s3.582032-8 8-8c4.417969 0 8 3.582031 8 8zm0 0"/><path d="m476.136719 65.425781c-2.511719-1.421875-5.589844-1.382812-8.0625.105469l-38.097657 22.855469h-21.785156c-.050781-17.933594-12.046875-33.636719-29.335937-38.402344 8.875-13.175781 6.765625-30.859375-4.957031-41.578125-11.722657-10.722656-29.523438-11.246094-41.855469-1.234375-12.332031 10.007813-15.480469 27.539063-7.402344 41.214844h-21.917969c.945313-2.5625 1.445313-5.269531 1.46875-8 .007813-10.871094-7.292968-20.386719-17.789062-23.199219-10.5-2.808594-21.578125 1.785156-27.003906 11.203125-5.425782 9.417969-3.847657 21.304687 3.851562 28.980469-7.292969 5.773437-12.335938 13.914062-14.257812 23.015625h-32.800782c-2.292968 0-4.476562.984375-5.996094 2.707031-1.515624 1.71875-2.222656 4.007812-1.9375 6.285156l4 32c.640626 4.296875 4.59375 7.296875 8.902344 6.757813 4.3125-.539063 7.40625-4.421875 6.96875-8.742188l-2.871094-23.007812h22.933594v48h-24c-4.417968 0-8 3.582031-8 8s3.582032 8 8 8h24.800782c3.828124 18.609375 20.199218 31.976562 39.199218 32h80c22.082032-.027344 39.976563-17.921875 40-40h21.785156l38.097657 22.855469c2.46875 1.484374 5.546875 1.523437 8.058593.105468 2.507813-1.417968 4.058594-4.078125 4.058594-6.960937v-96c0-2.882813-1.546875-5.539063-4.054687-6.960938zm-139.945313-33.039062c0-8.835938 7.164063-16 16-16 8.839844 0 16 7.164062 16 16 0 8.835937-7.160156 16-16 16-8.835937 0-16-7.164063-16-16zm-56 0c4.417969 0 8 3.582031 8 8s-3.582031 8-8 8c-4.417968 0-8-3.582031-8-8s3.582032-8 8-8zm112 120c0 13.253906-10.742187 24-24 24h-80c-13.253906 0-24-10.746094-24-24v-64c0-13.257813 10.746094-24 24-24h80c13.257813 0 24 10.742187 24 24zm16-48h16v32h-16zm56 49.871093-24-14.398437v-38.945313l24-14.402343zm0 0"/><path d="m352.191406 80.386719h-48c-4.417968 0-8 3.582031-8 8s3.582032 8 8 8h48c4.417969 0 8 3.582031 8 8v16c0 4.417969-3.582031 8-8 8h-48c-4.417968 0-8 3.582031-8 8s3.582032 8 8 8h48c13.257813 0 24-10.746094 24-24v-16c0-13.257813-10.742187-24-24-24zm0 0"/><path d="m404.679688 217.761719c-2.199219-1.488281-4.996094-1.789063-7.464844-.800781l-78.566406 31.425781h-54.457032c-4.417968 0-8 3.582031-8 8s3.582032 8 8 8h48v48h-48v-16c0-4.417969-3.582031-8-8-8-4.417968 0-8 3.582031-8 8v16c0 8.835937 7.164063 16 16 16h54.457032l78.566406 31.429687c2.46875.988282 5.261718.6875 7.464844-.800781 2.199218-1.488281 3.515624-3.972656 3.511718-6.628906v-128c0-2.65625-1.3125-5.136719-3.511718-6.625zm-12.488282 122.808593-64-25.601562v-53.167969l64-25.597656zm0 0"/><path d="m432.191406 248.386719c1.578125-.003907 3.121094-.46875 4.433594-1.34375l24-16c3.675781-2.453125 4.667969-7.421875 2.214844-11.097657-2.453125-3.675781-7.417969-4.667968-11.09375-2.214843l-24 16c-2.9375 1.957031-4.242188 5.601562-3.21875 8.976562 1.023437 3.375 4.136718 5.683594 7.664062 5.679688zm0 0"/><path d="m436.632812 321.730469c-3.675781-2.453125-8.644531-1.460938-11.097656 2.214843-2.449218 3.675782-1.457031 8.644532 2.21875 11.097657l24 16c3.675782 2.449219 8.644532 1.457031 11.09375-2.21875 2.453125-3.675781 1.460938-8.640625-2.214844-11.09375zm0 0"/><path d="m472.191406 272.386719h-32c-4.417968 0-8 3.582031-8 8s3.582032 8 8 8h32c4.417969 0 8-3.582031 8-8s-3.582031-8-8-8zm0 0"/></svg>