<svg width="26" height="12" viewBox="0 0 26 12" fill="none" xmlns="http://www.w3.org/2000/svg">
<g clip-path="url(#clip0_9295_33744)">
<path d="M6.33243 0.564453C3.01988 0.564453 0.3125 2.96045 0.3125 5.89203C0.3125 8.82361 3.01988 11.2196 6.33243 11.2196C8.8487 11.2196 10.9828 9.86657 11.9064 7.94977H14.0086V7.49876H14.7412C14.7412 7.49876 15.7286 6.25848 16.079 6.2021C16.4294 6.14573 17.0027 6.08935 17.1938 6.14573C17.3849 6.2021 18.0538 6.6813 18.0538 6.6813L18.8501 7.10413C18.8501 7.10413 19.3278 7.10413 19.519 6.99137C19.7101 6.87862 19.9967 6.51217 20.1878 6.56855C20.3789 6.62493 20.1241 6.28667 20.3789 6.62493C20.6338 6.96319 21.1115 6.96318 21.1115 6.96318C21.1115 6.96318 21.43 6.25848 21.7804 6.37123C22.0989 6.48398 22.513 6.85043 22.513 6.85043L23.1182 7.32963L23.7234 7.27326C23.7234 7.27326 25.3159 5.9766 25.6344 5.69471C25.953 5.41283 25.6344 5.10276 25.6344 5.10276L24.8382 4.34168H14.0086V3.86248H11.9064C10.9828 1.91749 8.8487 0.564453 6.33243 0.564453ZM9.86795 5.92022C9.86795 7.6397 8.27537 9.04912 6.33243 9.04912C4.38949 9.04912 2.79692 7.6397 2.79692 5.92022C2.79692 4.20074 4.38949 2.79132 6.33243 2.79132C8.27537 2.79132 9.86795 4.17255 9.86795 5.92022Z" fill="#4C3ED9"/>
</g>
<defs>
<clipPath id="clip0_9295_33744">
<rect width="25.961" height="11.8729" fill="white"/>
</clipPath>
</defs>
</svg>
