<svg width="17" height="13" viewBox="0 0 17 13" fill="none" xmlns="http://www.w3.org/2000/svg">
<path fill-rule="evenodd" clip-rule="evenodd" d="M12.5116 7.54694C10.5064 6.51119 8.62738 6.4573 7.73308 6.489H5.17969V6.49454V7.78706L2.08711 4.78202L5.17969 1.77303V3.05603H6.9805C7.67444 3.07267 8.71046 3.17411 9.87761 3.59649C11.7525 4.27405 12.8953 5.39064 13.3212 5.84314C14.8093 7.42569 15.2833 9.13821 15.447 9.92196C14.9258 9.2864 13.9818 8.30612 12.5116 7.54694ZM14.5527 5.79083C13.9435 5.02848 12.8692 3.94042 11.2484 3.14162C9.46304 2.26198 7.83082 2.12726 6.96666 2.11458C6.69625 2.11458 6.42584 2.11379 6.15544 2.11379V0.419494C6.15462 0.264171 6.06096 0.123904 5.91679 0.0620921C5.76449 -0.00289021 5.5853 0.0303934 5.46639 0.146886C3.97508 1.59789 2.48295 3.04969 0.991637 4.50149C0.972904 4.51972 0.871094 4.62036 0.871094 4.77965C0.871094 4.93338 0.964759 5.03165 0.984306 5.05146C2.48376 6.51119 3.98322 7.97091 5.48349 9.42984C5.50711 9.45282 5.55028 9.4861 5.61299 9.50988C5.67082 9.53048 5.72132 9.53445 5.7539 9.53445C5.78648 9.53445 5.91272 9.52969 6.02186 9.43459C6.15136 9.32127 6.15544 9.16912 6.15544 9.14376V7.44947H8.1615C8.83263 7.45026 11.2492 7.5303 13.454 9.29908C14.569 10.1938 15.2589 11.2224 15.6857 12.1084C15.7753 12.3287 16.0123 12.4547 16.2403 12.4103C16.4464 12.3707 16.606 12.1995 16.6305 11.9879C16.6419 11.0401 16.5474 8.28869 14.5527 5.79083Z" fill="#4C3ED9"/>
</svg>
