<svg width="40" height="33" viewBox="0 0 40 33" fill="none" xmlns="http://www.w3.org/2000/svg">
<g opacity="0.5">
<path d="M32.8476 18.5175C32.8476 11.228 26.332 5.19394 17.8398 4.15396C17.4833 4.11026 17.1212 4.1011 16.7622 4.12845C7.84648 4.80883 0.865723 10.9907 0.865723 18.5175C0.865723 26.0443 7.84648 32.2261 16.7621 32.9065C17.1211 32.9339 17.4832 32.9247 17.8397 32.881C26.332 31.841 32.8476 25.807 32.8476 18.5175Z" fill="#365E7D"/>
<path d="M18.3985 4.06519C17.8338 4.06519 17.2757 4.08806 16.7246 4.13109C25.6224 4.82591 32.5836 11.0012 32.5836 18.5175C32.5836 26.0338 25.6224 32.2091 16.7246 32.9039C17.2757 32.9469 17.8339 32.9698 18.3985 32.9698C28.0817 32.9698 35.9315 26.4993 35.9315 18.5175C35.9315 10.5357 28.0817 4.06519 18.3985 4.06519V4.06519Z" fill="#2B4D66"/>
<path d="M18.3983 29.5738C25.8061 29.5738 31.8113 24.6237 31.8113 18.5175C31.8113 12.4113 25.8061 7.46124 18.3983 7.46124C10.9906 7.46124 4.98535 12.4113 4.98535 18.5175C4.98535 24.6237 10.9906 29.5738 18.3983 29.5738Z" fill="#F9F6F6"/>
<path d="M18.3986 25.8163C23.2888 25.8163 27.2532 22.5485 27.2532 18.5175C27.2532 14.4865 23.2888 11.2187 18.3986 11.2187C13.5083 11.2187 9.54395 14.4865 9.54395 18.5175C9.54395 22.5485 13.5083 25.8163 18.3986 25.8163Z" fill="#365E7D"/>
<path d="M18.3985 22.0904C20.7924 22.0904 22.733 20.4907 22.733 18.5175C22.733 16.5442 20.7924 14.9445 18.3985 14.9445C16.0046 14.9445 14.064 16.5442 14.064 18.5175C14.064 20.4907 16.0046 22.0904 18.3985 22.0904Z" fill="#F7F0F0"/>
<path d="M31.6743 8.3277L35.2947 9.40723C35.5084 9.47097 35.7475 9.42707 35.9083 9.29459L39.4359 6.38674C39.7393 6.13668 39.6244 5.71143 39.2209 5.59115L36.117 4.66565L31.6743 8.3277Z" fill="#FA9801"/>
<path d="M29.3885 4.53925L30.6981 7.52349L35.1408 3.86138L34.018 1.30285C33.872 0.97027 33.3561 0.875558 33.0528 1.12562L29.5251 4.03347C29.3644 4.16601 29.3112 4.36308 29.3885 4.53925V4.53925Z" fill="#FA9801"/>
<path d="M17.7501 19.0009C17.2474 18.5865 17.2474 17.9147 17.7501 17.5004L35.2956 3.03771C35.7983 2.62334 36.6133 2.62334 37.116 3.03771C37.6187 3.45208 37.6187 4.12389 37.116 4.53826L19.5705 19.0009C19.0678 19.4153 18.2528 19.4153 17.7501 19.0009V19.0009Z" fill="#FBBE66"/>
</g>
</svg>
