<svg width="27" height="22" viewBox="0 0 27 22" fill="none" xmlns="http://www.w3.org/2000/svg">
<path d="M22.938 13.0182L18.4759 7.90237C17.9075 7.24869 16.8843 7.24869 16.3159 7.90237L11.5696 13.3308L9.40956 10.9718C8.89798 10.4034 7.98851 10.4034 7.47693 10.9718L4.06641 14.7234V17.7361H22.9096V13.0182H22.938Z" fill="white"/>
<path d="M6.47863 8.49632C7.56169 8.49632 8.43968 7.61833 8.43968 6.53527C8.43968 5.45221 7.56169 4.57422 6.47863 4.57422C5.39557 4.57422 4.51758 5.45221 4.51758 6.53527C4.51758 7.61833 5.39557 8.49632 6.47863 8.49632Z" fill="white"/>
<path d="M25.7779 0H1.22211C0.54 0 0 0.54 0 1.22211V20.6053C0 21.2874 0.54 21.8274 1.22211 21.8274H25.7779C26.46 21.8274 27 21.2874 27 20.6053V1.22211C27 0.54 26.46 0 25.7779 0ZM24.5558 19.3832H2.44421V2.44421H24.5558V19.3832Z" fill="white"/>
</svg>
