<svg id="Calque_1" data-name="Calque 1" xmlns="http://www.w3.org/2000/svg" viewBox="0 0 46.92 32.67"><defs><style>.cls-1{fill:#2e343b;}</style></defs><title>eye</title><path class="cls-1" d="M24,.67C6.19.67.84,16.11.79,16.26L.54,17l.25.74c0,.15,5.4,15.59,23.21,15.59S47.16,17.89,47.21,17.74l.25-.74-.25-.74C47.16,16.11,41.81.67,24,.67Zm0,28c-12.49,0-17.32-9-18.49-11.67C6.68,14.3,11.52,5.33,24,5.33s17.32,9,18.49,11.67C41.32,19.7,36.48,28.67,24,28.67Z" transform="translate(-0.54 -0.67)"/><path class="cls-1" d="M24,10a7,7,0,1,0,7,7A7,7,0,0,0,24,10Z" transform="translate(-0.54 -0.67)"/></svg>