<svg width="48" height="46" viewBox="0 0 48 46" fill="none" xmlns="http://www.w3.org/2000/svg">
<path d="M24 39.3333C26.2073 39.3333 28.2233 39.093 30.0619 38.6777L25.9623 34.578C25.3253 34.627 24.6789 34.6667 24 34.6667C11.5143 34.6667 6.67728 25.6927 5.50595 23C6.38549 21.0372 7.57339 19.2278 9.02462 17.6403L5.76262 14.3783C2.17395 18.268 0.813617 22.1857 0.787951 22.2627C0.626998 22.7419 0.626998 23.2605 0.787951 23.7397C0.836951 23.8937 6.18962 39.3333 24 39.3333ZM24 6.66668C19.7136 6.66668 16.1926 7.59067 13.2573 8.95568L4.64962 0.350342L1.35028 3.64968L43.3503 45.6497L46.6496 42.3503L38.9053 34.606C45.0046 30.0537 47.1816 23.8377 47.2143 23.7397C47.3752 23.2605 47.3752 22.7419 47.2143 22.2627C47.1629 22.1063 41.8103 6.66668 24 6.66668ZM35.6013 31.302L30.2813 25.982C30.7246 25.072 31 24.071 31 23C31 19.171 27.829 16 24 16C22.9289 16 21.9279 16.2753 21.0203 16.721L16.8016 12.5023C19.1175 11.7076 21.5516 11.3123 24 11.3333C36.4856 11.3333 41.3226 20.3073 42.4939 23C41.7893 24.6147 39.7733 28.4647 35.6013 31.302Z" fill="#8E8E93"/>
</svg>
