<svg width="20" height="19" viewBox="0 0 20 19" fill="none" xmlns="http://www.w3.org/2000/svg">
<path d="M16.9706 18.6707H2.61086C1.89016 18.6707 1.27484 18.4273 0.764902 17.9406C0.254967 17.4539 0 16.8666 0 16.1787V2.47255C0 1.79763 0.254967 1.21681 0.764902 0.730084C1.27484 0.243361 1.89016 0 2.61086 0H16.9706C17.6913 0 18.3066 0.240117 18.8166 0.72035C19.3265 1.20058 19.5815 1.78465 19.5815 2.47255V16.1787C19.5815 16.8666 19.3265 17.4539 18.8166 17.9406C18.3066 18.4273 17.6913 18.6707 16.9706 18.6707ZM4.56901 2.47255C4.02508 2.47255 3.56274 2.65751 3.18199 3.02742C2.80124 3.39733 2.61086 3.83862 2.61086 4.3513C2.61086 4.86398 2.80124 5.30203 3.18199 5.66545C3.56274 6.02887 4.02508 6.21058 4.56901 6.21058C5.11294 6.21058 5.57528 6.02887 5.95603 5.66545C6.33678 5.30203 6.52716 4.86398 6.52716 4.3513C6.52716 3.83862 6.33678 3.39733 5.95603 3.02742C5.57528 2.65751 5.11294 2.47255 4.56901 2.47255ZM4.56901 12.4406C4.02508 12.4406 3.56274 12.6223 3.18199 12.9858C2.80124 13.3492 2.61086 13.7905 2.61086 14.3096C2.61086 14.8288 2.80124 15.2701 3.18199 15.6335C3.56274 15.997 4.02508 16.1787 4.56901 16.1787C5.11294 16.1787 5.57528 15.997 5.95603 15.6335C6.33678 15.2701 6.52716 14.8288 6.52716 14.3096C6.52716 13.7905 6.33678 13.3492 5.95603 12.9858C5.57528 12.6223 5.11294 12.4406 4.56901 12.4406ZM9.79074 7.45659C9.24681 7.45659 8.78447 7.64155 8.40372 8.01146C8.02297 8.38137 7.83259 8.82266 7.83259 9.33534C7.83259 9.84802 8.02297 10.2861 8.40372 10.6495C8.78447 11.0129 9.24681 11.1946 9.79074 11.1946C10.3347 11.1946 10.797 11.0129 11.1778 10.6495C11.5585 10.2861 11.7489 9.84802 11.7489 9.33534C11.7489 8.82266 11.5585 8.38137 11.1778 8.01146C10.797 7.64155 10.3347 7.45659 9.79074 7.45659ZM15.0125 2.47255C14.4685 2.47255 14.0062 2.65751 13.6254 3.02742C13.2447 3.39733 13.0543 3.83862 13.0543 4.3513C13.0543 4.86398 13.2447 5.30203 13.6254 5.66545C14.0062 6.02887 14.4685 6.21058 15.0125 6.21058C15.5564 6.21058 16.0187 6.02887 16.3995 5.66545C16.7802 5.30203 16.9706 4.86398 16.9706 4.3513C16.9706 3.83862 16.7802 3.39733 16.3995 3.02742C16.0187 2.65751 15.5564 2.47255 15.0125 2.47255ZM15.0125 12.4406C14.4685 12.4406 14.0062 12.6223 13.6254 12.9858C13.2447 13.3492 13.0543 13.7905 13.0543 14.3096C13.0543 14.8288 13.2447 15.2701 13.6254 15.6335C14.0062 15.997 14.4685 16.1787 15.0125 16.1787C15.5564 16.1787 16.0187 15.997 16.3995 15.6335C16.7802 15.2701 16.9706 14.8288 16.9706 14.3096C16.9706 13.7905 16.7802 13.3492 16.3995 12.9858C16.0187 12.6223 15.5564 12.4406 15.0125 12.4406Z" fill="#4C3ED9"/>
</svg>
