<svg width="253" height="226" viewBox="0 0 253 226" fill="none" xmlns="http://www.w3.org/2000/svg">
<path d="M179.352 48.077L126.432 12.627L73.5216 48.077L20.6016 83.5369V212.177H232.272V83.5369L179.352 48.077Z" fill="#6065FC"/>
<path d="M87.5709 136.547C90.8373 136.546 94.0719 137.188 97.0898 138.437C100.108 139.687 102.85 141.519 105.16 143.828C107.469 146.138 109.301 148.88 110.55 151.898C111.8 154.916 112.442 158.151 112.441 161.417V161.417V215.487H61.9609V162.157C61.9609 155.365 64.6591 148.851 69.4619 144.048C74.2647 139.245 80.7787 136.547 87.5709 136.547V136.547Z" fill="white" stroke="#4551ED" stroke-width="4" stroke-miterlimit="10"/>
<path d="M126.431 86.2955C136.632 86.2955 144.901 78.0262 144.901 67.8255C144.901 57.6248 136.632 49.3555 126.431 49.3555C116.23 49.3555 107.961 57.6248 107.961 67.8255C107.961 78.0262 116.23 86.2955 126.431 86.2955Z" fill="white" stroke="#4551ED" stroke-width="6" stroke-miterlimit="10"/>
<path d="M126.41 1.01232L1.32031 85.0371L8.40742 95.5878L133.497 11.563L126.41 1.01232Z" fill="#4551ED" stroke="#4551ED" stroke-miterlimit="10"/>
<path d="M126.288 1.00007L119.201 11.5508L244.29 95.5756L251.378 85.0249L126.288 1.00007Z" fill="#4551ED" stroke="#4551ED" stroke-miterlimit="10"/>
<path d="M237.782 211.906H15.082V225.366H237.782V211.906Z" fill="#4551ED"/>
<path d="M187.03 1.81641H173.57V46.6364H187.03V1.81641Z" fill="#4551ED"/>
<path d="M180.212 101.986C182.194 101.985 184.157 102.374 185.988 103.132C187.819 103.89 189.483 105.002 190.885 106.403C192.286 107.805 193.398 109.469 194.156 111.3C194.914 113.131 195.303 115.094 195.302 117.076V117.076V156.466H165.262V116.986C165.262 113.008 166.842 109.193 169.655 106.38C172.468 103.567 176.283 101.986 180.262 101.986H180.212Z" fill="#EDA000" stroke="white" stroke-width="3" stroke-miterlimit="10"/>
<path d="M165.281 139.396H195.331" stroke="white" stroke-width="3" stroke-miterlimit="10"/>
<path d="M165.281 123.736H195.331" stroke="white" stroke-width="3" stroke-miterlimit="10"/>
<path d="M180.201 102.766V156.516" stroke="white" stroke-width="3" stroke-miterlimit="10"/>
<path d="M180.212 101.986C182.194 101.985 184.157 102.374 185.988 103.132C187.819 103.89 189.483 105.002 190.885 106.403C192.286 107.805 193.398 109.469 194.156 111.3C194.914 113.131 195.303 115.094 195.302 117.076V117.076V156.466H165.262V116.986C165.262 113.008 166.842 109.193 169.655 106.38C172.468 103.567 176.283 101.986 180.262 101.986H180.212Z" fill="#EDA000" stroke="white" stroke-width="3" stroke-miterlimit="10"/>
<path d="M165.281 139.396H195.331" stroke="white" stroke-width="3" stroke-miterlimit="10"/>
<path d="M165.281 123.736H195.331" stroke="white" stroke-width="3" stroke-miterlimit="10"/>
<path d="M180.201 102.766V156.516" stroke="white" stroke-width="3" stroke-miterlimit="10"/>
<path d="M64.9082 113.72L59.6489 103.695L55.9492 105.733L59.2364 111.495L56.2463 113.18L53.1217 114.826L50.0527 108.981L46.353 111.02L52.1502 121.201L54.3941 125.616L58.0361 123.61L55.312 119.007L54.7677 117.95L57.6552 116.284L60.9373 114.514L61.7464 115.914L63.9904 120.33L67.6323 118.323L64.9082 113.72Z" fill="white"/>
<path d="M75.0928 99.1581C69.789 100.186 67.3896 103.906 68.4618 109.437C69.4712 114.643 72.8356 117.112 77.7189 116.165C83.0227 115.137 85.4419 111.346 84.3509 105.718C83.354 100.576 80.0085 98.2051 75.0928 99.1581ZM75.3766 102.526C78.1255 101.993 79.4561 103.144 80.2774 107.381C80.9797 111.003 80.1121 112.413 77.4602 112.927C74.7437 113.453 73.4194 112.334 72.5917 108.065C71.8958 104.476 72.7247 103.04 75.3766 102.526Z" fill="white"/>
<path d="M107.163 117.453L108.704 100.787L104.001 99.9071L102.832 102.206L98.9762 108.636L98.7167 108.587L97.6479 101.203L97.4484 98.6808L92.6477 97.7824L87.8306 113.835L91.3013 114.485L92.6597 109.199L94.1724 104.346L94.4319 104.394L96.0162 113.688L99.1626 114.277L104.39 106.258L104.649 106.307L104.199 111.762L103.498 116.767L107.163 117.453Z" fill="white"/>
<path d="M121.623 121.925L117.627 119.878L115.082 118.479L116.042 116.597L116.77 115.34L119.17 116.66L121.87 118.257L123.611 115.637L123.552 115.265L120.988 113.969L118.402 112.509L120.081 109.591L122.799 111.086L126.479 113.297L128.189 110.735L128.146 110.334L117.995 104.754L112.496 115.1L109.967 119.358L119.973 124.859L121.727 122.283L121.623 121.925Z" fill="white"/>
</svg>
