<svg width="60" height="60" viewBox="0 0 60 60" fill="none" xmlns="http://www.w3.org/2000/svg">
<g clip-path="url(#clip0)">
<path d="M38.6226 43.9669C38.6226 43.9669 39.9052 39.4775 35.9147 35.4157C32.423 31.8528 31.9954 31.639 31.9954 30.0713C31.9954 28.5036 32.6368 28.1473 35.9147 24.7268C39.9052 20.5938 38.6226 16.1757 38.6226 16.1757H19.6676C19.6676 16.1757 18.3849 20.5938 22.3754 24.7268C25.7246 28.1473 26.2947 28.5036 26.2947 30.0713C26.2947 31.639 25.8671 31.8528 22.3754 35.4157C18.3849 39.4775 19.6676 43.9669 19.6676 43.9669H38.6226Z" fill="#80CBC4" fill-opacity="0.36"/>
<path d="M59.2878 15.1781L52.5894 13.1828C52.5894 13.1828 52.5894 13.1828 52.5181 13.1828C52.4469 13.1828 52.3044 13.1828 52.2331 13.1828H52.1618C52.0193 13.1828 51.9481 13.254 51.8768 13.254C51.8768 13.254 51.8055 13.254 51.8055 13.3253C51.7343 13.3966 51.663 13.3966 51.5918 13.4678L51.5205 13.5391C51.4492 13.6103 51.378 13.7529 51.378 13.8241L49.5252 19.8812C49.3827 20.38 49.6678 20.9501 50.1666 21.1638C50.6654 21.3064 51.2355 21.0213 51.378 20.5225L52.5894 16.532C54.8697 20.665 56.0811 25.2969 56.0811 30.0713C56.0811 45.1782 43.8957 57.5061 29.0025 57.5061C14.0381 57.5061 1.924 45.1782 1.924 30.0713C1.924 14.9643 14.1093 2.63641 29.0025 2.63641C33.5631 2.63641 38.0525 3.77656 42.043 5.9856C42.5418 6.27063 43.1119 6.05685 43.3969 5.55804C43.682 5.05922 43.4682 4.48915 43.0406 4.20411C38.7651 1.85255 33.9194 0.569885 29.0738 0.569885C13.0405 0.569885 0 13.7529 0 30C0 46.2471 13.0405 59.4301 29.0738 59.4301C45.1072 59.4301 58.1476 46.2471 58.1476 30C58.1476 25.0118 56.8649 20.0949 54.5134 15.7481L58.7177 16.9595C58.7889 16.9595 58.9315 17.0308 59.0027 17.0308C59.4303 17.0308 59.8578 16.7458 59.9291 16.3182C60.1429 15.8906 59.8578 15.3206 59.2878 15.1781Z" fill="#F5FAFA"/>
<path d="M42.1143 15.8194C42.1143 15.1068 41.5443 14.4655 40.8317 14.4655H17.3161C16.6035 14.4655 16.0334 15.0355 16.0334 15.8194C16.0334 16.532 16.6035 17.1733 17.3161 17.1733H18.5275C18.385 18.9548 18.5988 22.304 21.6629 25.4394C22.1617 25.9382 22.5893 26.3658 22.9456 26.7933C25.1546 29.0736 25.2971 29.2161 25.2971 30.1425C25.2971 31.0689 25.2971 31.1401 22.7318 33.7055L21.6629 34.7744C18.5988 37.8385 18.3137 41.1877 18.4562 42.9692H17.2448C16.5322 42.9692 15.9622 43.5393 15.9622 44.3231C15.9622 45.0357 16.5322 45.677 17.2448 45.677H40.7604C41.473 45.677 42.0431 45.107 42.0431 44.3231C42.0431 43.6105 41.473 42.9692 40.7604 42.9692H39.7628C39.9053 41.1877 39.6203 37.8385 36.5561 34.7744L35.5585 33.6342C32.9931 31.0689 32.9931 30.9976 32.9931 30.0712C32.9931 29.2161 33.1357 29.0024 35.3447 26.7221C35.701 26.3658 36.1285 25.867 36.6274 25.3681C39.6915 22.2327 39.9053 18.8835 39.7628 17.1021H40.7604C41.5443 17.1021 42.1143 16.532 42.1143 15.8194ZM35.2022 24.0142C34.7034 24.513 34.2758 24.9406 33.9195 25.3681C31.6392 27.6484 30.9979 28.361 30.9979 30.1425C30.9979 31.9953 31.568 32.4941 34.1333 35.1307L35.2022 36.1996C37.8388 38.8362 37.91 41.6153 37.8388 42.9692H20.5228C20.3802 41.6153 20.5228 38.8362 23.1594 36.1996L24.2282 35.1307C26.8648 32.4941 27.3637 31.924 27.3637 30.1425C27.3637 28.361 26.6511 27.6484 24.442 25.3681C24.0857 25.0118 23.6582 24.5843 23.1594 24.0855C20.5228 21.3776 20.4515 18.5272 20.594 17.2446H37.8388C37.9813 18.456 37.8388 21.3064 35.2022 24.0142Z" fill="#F5FAFA"/>
</g>
<defs>
<clipPath id="clip0">
<rect width="60" height="60" fill="white"/>
</clipPath>
</defs>
</svg>
