<svg width="53" height="49" viewBox="0 0 53 49" xmlns="http://www.w3.org/2000/svg">
<g clip-path="url(#clip0)">
<path d="M39.0939 47.0222C38.6766 47.0222 38.2503 46.9732 37.8282 46.8711L3.67771 38.4162C1.04325 37.7444 -0.526911 35.225 0.162132 32.7912L3.91628 19.4814C4.14596 18.6646 5.04932 18.1685 5.93691 18.3872C6.82045 18.5995 7.3526 19.4366 7.1209 20.2553L3.36634 33.5673C3.13464 34.3879 3.66234 35.2351 4.54588 35.4598L38.6766 43.9106C39.5532 44.1248 40.4586 43.643 40.6883 42.8366L41.8541 38.4876C42.0753 37.667 42.9717 37.1686 43.8593 37.369C44.7473 37.5731 45.2884 38.402 45.0696 39.2226L43.8994 43.5921C43.3094 45.6602 41.2956 47.0222 39.0939 47.0222Z" fill="black"/>
<path d="M48.031 34.7719H13.8009C11.0605 34.7719 8.83203 32.7116 8.83203 30.178V6.69805C8.83203 4.16447 11.0605 2.10419 13.8009 2.10419H48.031C50.7715 2.10419 52.9999 4.16447 52.9999 6.69805V30.178C52.9999 32.7116 50.7715 34.7719 48.031 34.7719ZM13.8009 5.16676C12.8866 5.16676 12.1446 5.85278 12.1446 6.69805V30.178C12.1446 31.0233 12.8866 31.7093 13.8009 31.7093H48.031C48.9453 31.7093 49.6873 31.0233 49.6873 30.178V6.69805C49.6873 5.85278 48.9453 5.16676 48.031 5.16676H13.8009Z" fill="black"/>
<path d="M19.8744 16.3965C17.4385 16.3965 15.4575 14.565 15.4575 12.3129C15.4575 10.0608 17.4385 8.22934 19.8744 8.22934C22.3103 8.22934 24.2909 10.0608 24.2909 12.3129C24.2909 14.565 22.3103 16.3965 19.8744 16.3965ZM19.8744 11.2919C19.2646 11.2919 18.7701 11.7495 18.7701 12.3129C18.7701 12.8763 19.2646 13.3339 19.8744 13.3339C20.4838 13.3339 20.9784 12.8763 20.9784 12.3129C20.9784 11.7495 20.4838 11.2919 19.8744 11.2919Z" fill="black"/>
<path d="M10.5324 32.6892C10.1087 32.6892 9.68448 32.54 9.36219 32.2402C8.71521 31.642 8.71521 30.6719 9.36219 30.0737L19.344 20.8453C20.8547 19.4486 23.3125 19.4486 24.8208 20.8453L27.4908 23.3138L35.6926 14.2117C36.4257 13.3989 37.5013 12.9294 38.6433 12.9234C39.8709 12.8602 40.8649 13.3765 41.6045 14.1792L52.598 26.0373C53.194 26.6784 53.1124 27.6463 52.4189 28.1974C51.7234 28.7488 50.6789 28.6733 50.0824 28.0322L39.0848 16.1699C38.9389 16.0084 38.7601 16.0166 38.6607 15.9878C38.566 15.9878 38.3825 16.0144 38.2369 16.1736L28.8733 26.5663C28.5749 26.8968 28.1402 27.0972 27.6764 27.1155C27.2037 27.1398 26.7577 26.9723 26.4306 26.6683L22.4779 23.0136C22.1972 22.7541 21.9655 22.7541 21.6849 23.0136L11.7031 32.2402C11.3804 32.54 10.9566 32.6892 10.5324 32.6892Z" fill="black"/>
</g>
<defs>
<clipPath id="clip0">
<rect width="53" height="49" />
</clipPath>
</defs>
</svg>
