<svg width="40" height="31" viewBox="0 0 40 31" fill="none" xmlns="http://www.w3.org/2000/svg">
<path d="M16.2388 10.6365H23.3546V21.5209H16.2388V10.6365Z" fill="#2B4D66"/>
<path d="M23.1433 5.81644V4.31083C23.1433 2.47335 24.7235 0.983582 26.6725 0.983582C27.387 0.983582 28.0658 1.18684 28.6352 1.54529C29.2037 1.9043 29.6622 2.41908 29.9347 3.04184L30.5047 4.34476" fill="#2B4D66"/>
<path d="M21.6394 9.63668V22.4529L31.8253 20.6955L38.8725 19.4793L33.589 7.40456C33.1096 6.30858 32.3033 5.40313 31.3027 4.77103C30.3013 4.14007 29.1067 3.78247 27.8488 3.78247C27.743 3.78247 27.6381 3.78473 27.5337 3.7901C24.2507 3.94417 21.6394 6.50363 21.6394 9.63668V9.63668Z" fill="#2B4D66"/>
<path d="M27.6863 3.91671L31.9437 20.7309L38.9348 19.5213L33.6934 7.51168C33.2177 6.42161 32.4179 5.52104 31.4253 4.89235C30.4318 4.26479 29.2467 3.90912 27.9989 3.90912C27.8939 3.90912 27.7898 3.91137 27.6863 3.91671V3.91671Z" fill="#365E7D"/>
<path d="M39.3223 22.5593C39.3223 27.2046 35.328 30.9702 30.4012 30.9702C25.474 30.9702 21.4797 27.2046 21.4797 22.5593C21.4797 17.914 25.474 14.1484 30.4012 14.1484C35.328 14.1484 39.3223 17.914 39.3223 22.5593Z" fill="#E4E4EF"/>
<path d="M36.9949 22.3767C36.9949 25.7091 34.1296 28.4105 30.595 28.4105C27.0601 28.4105 24.1948 25.7091 24.1948 22.3767C24.1948 19.0443 27.0601 16.3427 30.595 16.3427C34.1296 16.3427 36.9949 19.0443 36.9949 22.3767Z" fill="#2B4D66"/>
<path d="M24.5828 21.0963C25.2011 23.8173 27.6579 25.8506 30.5945 25.8506C33.5308 25.8506 35.9887 23.8173 36.6071 21.0963C35.9887 18.3751 33.5317 16.3427 30.5954 16.3427C27.6579 16.3427 25.2011 18.3751 24.5828 21.0963V21.0963Z" fill="#F4FBFF"/>
<path d="M9.06763 4.2899L9.63829 3.00825C9.91117 2.39565 10.3702 1.88927 10.9393 1.53612C11.5091 1.18352 12.189 0.983582 12.9041 0.983582C14.8554 0.983582 16.4374 2.44904 16.4374 4.25653V5.73756" fill="#2B4D66"/>
<path d="M17.9888 9.75698V22.5594L7.67196 20.8038L0.53418 19.589L5.88531 7.52729C6.37092 6.43249 7.18787 5.52802 8.2013 4.89661C9.21565 4.26633 10.4256 3.90912 11.6996 3.90912C11.8068 3.90912 11.9131 3.91138 12.0188 3.91674C15.3439 4.07064 17.9888 6.62733 17.9888 9.75698V9.75698Z" fill="#365E7D"/>
<path d="M12.1706 3.91671L7.76633 20.7309L0.53418 19.5213L5.95606 7.51168C6.44809 6.42161 7.27584 5.52104 8.30267 4.89235C9.33043 4.26479 10.5563 3.90912 11.8472 3.90912C11.9558 3.90912 12.0635 3.91137 12.1706 3.91671Z" fill="#2B4D66"/>
<path d="M17.989 22.5593C17.989 27.2046 13.9947 30.9702 9.0676 30.9702C4.1408 30.9702 0.146484 27.2046 0.146484 22.5593C0.146484 17.914 4.1408 14.1484 9.0676 14.1484C13.9947 14.1484 17.989 17.914 17.989 22.5593Z" fill="#E4E4EF"/>
<path d="M15.2738 22.3767C15.2738 25.7091 12.4953 28.4105 9.06752 28.4105C5.64003 28.4105 2.86157 25.7091 2.86157 22.3767C2.86157 19.0443 5.64003 16.3427 9.06752 16.3427C12.4953 16.3427 15.2738 19.0443 15.2738 22.3767Z" fill="#2B4D66"/>
<path d="M15.2738 21.0963C14.6354 23.8173 12.0994 25.8506 9.06812 25.8506C6.0371 25.8506 3.49989 23.8173 2.86157 21.0963C3.49989 18.3751 6.03619 16.3427 9.06721 16.3427C12.0994 16.3427 14.6354 18.3751 15.2738 21.0963Z" fill="#F4FBFF"/>
<path d="M6.59231 22.3128C6.59231 23.4787 6.9478 24.5658 7.56399 25.4849C5.22489 24.9527 3.39116 23.2066 2.86157 20.9968C3.49956 18.3327 6.03457 16.3427 9.06403 16.3427C9.74169 16.3427 10.3951 16.4422 11.0071 16.6269C8.44633 17.3977 6.59231 19.6515 6.59231 22.3128V22.3128Z" fill="#DAF1F4"/>
<path d="M28.1358 22.3128C28.1358 23.4787 28.4744 24.5658 29.0612 25.4849C26.8335 24.9527 25.0871 23.2066 24.5828 20.9968C25.1904 18.3327 27.6047 16.3427 30.4899 16.3427C31.1353 16.3427 31.7576 16.4422 32.3404 16.6269C29.9016 17.3977 28.1358 19.6515 28.1358 22.3128V22.3128Z" fill="#DAF1F4"/>
</svg>
