<svg width="33" height="31" viewBox="0 0 33 31" fill="none" xmlns="http://www.w3.org/2000/svg">
<g clip-path="url(#clip0)">
<path d="M28.3531 11.231C29.464 12.9831 31.2156 15.6198 31.4353 16.0507C31.8748 16.9238 32.125 17.9061 32.125 18.9344C32.125 22.6338 28.933 25.6382 25.0024 25.6382C21.0719 25.6382 17.8799 22.6338 17.8799 18.9344V17.6247H15.115V18.9344C15.115 22.6281 11.923 25.6382 7.99247 25.6382C4.06804 25.6382 0.869898 22.6338 0.869898 18.9344C0.869898 17.8717 1.13234 16.8721 1.60229 15.9817C1.81591 15.5739 6.3873 8.47943 6.50326 8.30136C7.35773 6.99736 8.83473 6.21611 10.4643 6.21611C10.6962 6.21611 10.9221 6.23334 11.1479 6.26206C11.5446 5.65889 12.2282 5.30273 12.9789 5.30273C14.1568 5.30273 15.1211 6.20462 15.1211 7.31905V10.8404H17.886V7.31905C17.886 6.21036 18.8442 5.30273 20.0282 5.30273C20.7728 5.30273 21.4564 5.65889 21.8531 6.26206C22.0789 6.23334 22.3048 6.21611 22.5367 6.21611C24.1602 6.21611 25.6433 6.99736 26.4977 8.30136C26.5099 8.31859 26.5466 8.37603 27.4071 9.73173L28.3531 11.231ZM26.5038 10.2372C25.7959 9.11707 25.625 8.84708 25.6006 8.81836C24.9414 7.80733 23.794 7.20416 22.5306 7.20416C20.547 7.20416 18.9296 8.72645 18.9296 10.5934V15.4418C20.1808 13.5173 22.439 12.2306 25.0024 12.2306C26.1621 12.2306 27.2607 12.4948 28.225 12.9601C27.9747 12.5695 27.7123 12.1502 27.4499 11.7366L26.5038 10.2372ZM18.9296 7.83031C19.4118 7.27309 20.0404 6.83077 20.7545 6.54929C20.5592 6.3827 20.3029 6.28504 20.0282 6.28504C19.424 6.28504 18.9296 6.75034 18.9296 7.31905V7.83031ZM25.0024 24.6559C28.3531 24.6559 31.0752 22.0881 31.0752 18.9401C31.0752 15.7922 28.347 13.2244 25.0024 13.2244C21.6578 13.2244 18.9296 15.7922 18.9296 18.9401C18.9296 22.0881 21.6517 24.6559 25.0024 24.6559ZM17.886 14.7524V11.8227H15.1211V14.7524H17.886ZM15.115 16.6423H17.8799V15.7347H15.115V16.6423ZM14.0714 7.31905C14.0714 6.75034 13.577 6.28504 12.9728 6.28504C12.6981 6.28504 12.4418 6.3827 12.2404 6.54929C12.9545 6.83077 13.5831 7.27309 14.0653 7.83031V7.31905H14.0714ZM14.0714 10.5934C14.0714 8.7207 12.454 7.20416 10.4704 7.20416C9.21314 7.20416 8.06571 7.80733 7.40045 8.81836C7.33941 8.91602 6.0333 10.9783 4.77602 12.9659C5.74645 12.5006 6.83894 12.2363 7.99858 12.2363C10.5681 12.2363 12.8202 13.5231 14.0714 15.4475V10.5934ZM7.99858 24.6559C11.3493 24.6559 14.0714 22.0881 14.0714 18.9401C14.0714 15.7922 11.3432 13.2244 7.99858 13.2244C4.64785 13.2244 1.92577 15.7922 1.92577 18.9401C1.92577 22.0881 4.64785 24.6559 7.99858 24.6559Z" fill="white"/>
<path d="M25.0026 14.3506C27.6881 14.3506 29.873 16.4071 29.873 18.9347C29.873 21.4623 27.6881 23.5188 25.0026 23.5188C22.3171 23.5188 20.1321 21.4623 20.1321 18.9347C20.1321 16.4071 22.3171 14.3506 25.0026 14.3506ZM25.0026 22.5365C27.1143 22.5365 28.8294 20.9223 28.8294 18.9347C28.8294 16.9471 27.1143 15.3329 25.0026 15.3329C22.8908 15.3329 21.1758 16.9471 21.1758 18.9347C21.1758 20.9223 22.897 22.5365 25.0026 22.5365Z" fill="white"/>
<path d="M7.8776 14.3506C10.5631 14.3506 12.748 16.4071 12.748 18.9347C12.748 21.4623 10.5631 23.5188 7.8776 23.5188C5.19214 23.5188 3.00715 21.4623 3.00715 18.9347C3.00715 16.4071 5.19214 14.3506 7.8776 14.3506ZM7.8776 22.5365C9.98935 22.5365 11.7044 20.9223 11.7044 18.9347C11.7044 16.9471 9.98935 15.3329 7.8776 15.3329C5.76585 15.3329 4.05082 16.9471 4.05082 18.9347C4.05082 20.9223 5.77195 22.5365 7.8776 22.5365Z" fill="white"/>
</g>
<defs>
<clipPath id="clip0">
<rect width="31.249" height="29.4118" fill="white" transform="matrix(-1 0 0 1 32.125 0.764648)"/>
</clipPath>
</defs>
</svg>