<?xml version="1.0" encoding="UTF-8"?>
<svg width="315px" height="316px" viewBox="0 0 315 316" version="1.1" xmlns="http://www.w3.org/2000/svg" xmlns:xlink="http://www.w3.org/1999/xlink">
    <!-- Generator: Sketch 51.3 (57544) - http://www.bohemiancoding.com/sketch -->
    <title>1Vplein 1</title>
    <desc>Created with Sketch.</desc>
    <defs></defs>
    <g id="Page-1" stroke="none" stroke-width="1" fill-rule="evenodd">
        <g id="1Vplein-1" fill-rule="nonzero">
            <path d="M315,157.9 C316.7,243.6 243.4,315.4 157.6,315.2 C72.2,315 0.2,243.2 0.7,157.1 C1.2,72.6 70.9,2.5 154.2,0.6 C244.1,-1.5 316.9,73.3 315,157.9 Z M189.9,213.1 C189.6,213 189.3,212.9 189,212.9 C189,211.1 189,209.4 189,207.6 C188.9,165.6 188.9,123.7 188.8,81.7 C188.8,80 188.9,78.3 188.6,76.7 C188,73 185.4,71.2 181.9,71.2 C178.6,71.2 176.2,73 175.5,76.4 C175.2,78.2 175.1,80 175.1,81.9 C175.1,134.2 175.1,186.5 175.1,238.8 C175.1,240 175,241.2 175.2,242.3 C175.9,245.1 177.4,247.2 180.3,247.8 C183.3,248.5 185.9,247.7 187.6,244.8 C188.2,243.8 188.8,242.8 189.4,241.8 C210.5,204 231.6,166.3 252.7,128.5 C256.3,122.1 259.8,115.7 263.1,109.2 C265,105.4 263.8,102.3 260.3,100.3 C256.8,98.3 253.9,99.7 251.7,102.8 C251,103.8 250.5,104.8 249.9,105.8 C234,134.3 218.1,162.7 202.1,191.2 C198.2,198.5 194,205.8 189.9,213.1 Z M126,99.6 C126.3,99.7 126.6,99.8 127,99.9 C127,101.7 127,103.5 127,105.3 C127.1,149.1 127.1,192.9 127.2,236.7 C127.2,238.4 127.1,240.1 127.4,241.7 C128,245.3 130.4,247.4 133.9,247.4 C137.7,247.4 140,245.1 140.7,241.4 C140.9,240.3 140.8,239.1 140.8,237.9 C140.8,185.9 140.8,134 140.8,82 C140.8,80.5 140.8,79 140.7,77.5 C140.4,74.4 139,72 136,71.1 C133.1,70.2 130.4,71.1 128.4,73.5 C127.8,74.3 127.2,75.1 126.6,75.9 C107.6,102 88.5,128.1 69.5,154.1 C66.7,158 66.9,161.7 70.1,164.2 C73.2,166.7 77,166.1 80,162.2 C84.5,156.4 88.8,150.5 93.1,144.5 C104,129.7 115,114.7 126,99.6 Z" id="Shape" fill="#4c3ed9"></path>
            <path d="M189.9,213.1 C194,205.8 198.2,198.5 202.3,191.2 C218.2,162.7 234.1,134.3 250.1,105.8 C250.7,104.8 251.2,103.8 251.9,102.8 C254.1,99.7 257,98.4 260.5,100.3 C264,102.3 265.3,105.5 263.3,109.2 C259.9,115.7 256.5,122.1 252.9,128.5 C231.8,166.3 210.7,204 189.6,241.8 C189,242.8 188.4,243.8 187.8,244.8 C186.1,247.6 183.5,248.4 180.5,247.8 C177.6,247.2 176,245 175.4,242.3 C175.1,241.2 175.3,240 175.3,238.8 C175.3,186.5 175.3,134.2 175.3,81.9 C175.3,80.1 175.3,78.2 175.7,76.4 C176.3,73 178.8,71.1 182.1,71.2 C185.6,71.2 188.2,73 188.8,76.7 C189.1,78.3 189,80 189,81.7 C189.1,123.7 189.1,165.6 189.2,207.6 C189.2,209.4 189.2,211.1 189.2,212.9 C189.3,213 189.6,213 189.9,213.1 Z" id="Shape" fill="#F9F9FE"></path>
            <path d="M126,101.6 C115,116.6 104,131.7 93,146.7 C88.7,152.6 84.4,158.6 79.9,164.4 C76.9,168.3 73.1,168.9 70,166.4 C66.8,163.9 66.6,160.2 69.4,156.3 C88.4,130.2 107.5,104.1 126.5,78.1 C127.1,77.3 127.6,76.4 128.3,75.7 C130.3,73.3 133,72.4 135.9,73.3 C138.9,74.2 140.4,76.7 140.6,79.7 C140.7,81.2 140.7,82.7 140.7,84.2 C140.7,136.2 140.7,188.1 140.7,240.1 C140.7,241.3 140.8,242.5 140.6,243.6 C139.9,247.3 137.6,249.7 133.8,249.6 C130.2,249.6 127.9,247.4 127.3,243.9 C127,242.3 127.1,240.6 127.1,238.9 C127,195.1 127,151.3 126.9,107.5 C126.9,105.7 126.9,103.9 126.9,102.1 C126.7,101.8 126.3,101.7 126,101.6 Z" id="Shape" fill="#F9F9FE"></path>
        </g>
    </g>
</svg>