<svg width="176" height="173" viewBox="0 0 176 173" fill="none" xmlns="http://www.w3.org/2000/svg">
<rect x="0.5" y="0.5" width="175" height="172" fill="#E6EEF4" fill-opacity="0.7" stroke="#D8DFE4"/>
<g opacity="0.4">
<mask id="mask0" mask-type="alpha" maskUnits="userSpaceOnUse" x="1" y="1" width="174" height="172">
<rect x="1" y="1" width="174" height="172" fill="#C4C4C4"/>
</mask>
<g mask="url(#mask0)">
<path d="M37.8538 -18.9044C37.8538 -18.9044 24.5692 -12.4511 9.76696 1.3308L-1.84885 25.0051C-3.13875 27.6344 -6.92843 27.6344 -8.21833 25.0051L-9.1428 23.121C-20.725 39.9116 -29.887 62.0138 -29.887 89.9492C-29.887 165.924 52.2643 196.697 52.2643 196.697L58.0098 203.714C66.63 205.789 75.6084 206.96 84.8374 207.117L94.6373 203.714L145.946 187.295L153.913 187.371C161.785 182.252 169.025 176.262 175.484 169.531L178.623 157.947C178.623 157.947 207.92 115.776 201.578 79.0195C198.336 60.2303 191.853 42.8561 180.748 26.5158C179.081 27.4557 176.754 26.9551 175.797 25.0062L169.439 12.0475C160.253 1.71968 148.903 -8.21427 134.992 -17.8589L130.672 -26.0216C117.106 -31.1733 102.375 -34.0001 86.974 -34.0001C69.4946 -34.0001 52.8838 -30.3485 37.8538 -23.8011V-18.9044Z" fill="#90D8F9"/>
<path d="M-9.16575 86.5588C-9.16575 24.4093 38.3731 -26.7573 99.4656 -33.3667C95.3581 -33.7804 91.1923 -34.0001 86.974 -34.0001C69.4946 -34.0001 52.8837 -30.3485 37.8537 -23.8011V-18.9044C37.8537 -18.9044 24.5692 -12.4511 9.76695 1.3308L-1.84886 25.0051C-3.13876 27.6344 -6.92843 27.6344 -8.21833 25.0051L-9.14281 23.121C-20.725 39.9116 -29.887 62.0138 -29.887 89.9492C-29.887 165.924 52.2642 196.697 52.2642 196.697L58.0098 203.714C66.63 205.789 75.6083 206.96 84.8374 207.117L90.4453 205.17C33.7574 194.752 -9.16575 145.614 -9.16575 86.5588Z" fill="#90D8F9"/>
<path d="M84.8369 207.118C85.5487 207.13 86.2594 207.144 86.9735 207.144C111.696 207.144 134.695 199.867 153.913 187.371C136.721 160.909 118.811 179.921 101.144 185.258C90.2215 188.557 86.2656 199.285 84.8369 207.118Z" fill="#B3E59F"/>
<path d="M63.3614 36.1878L57.2875 29.9386C55.6332 28.2364 55.6875 25.5308 57.4094 23.8951C59.1308 22.2599 61.8684 22.3141 63.5232 24.0157L69.5972 30.2649C71.2514 31.9671 71.1971 34.6727 69.4752 36.3084C67.7538 37.943 65.0168 37.8905 63.3614 36.1878Z" fill="#75CEF9"/>
<path d="M121.54 63.8598L114.499 59.8924C112.425 58.7229 111.702 56.1131 112.884 54.0624C114.067 52.0124 116.708 51.2982 118.782 52.4665L125.822 56.4339C127.897 57.6033 128.62 60.2132 127.437 62.2638C126.254 64.3145 123.614 65.0281 121.54 63.8598Z" fill="#75CEF9"/>
<path d="M186.298 16.5859L182.458 9.399L165.931 -4.46803L148.637 -20.0477H143.956C139.672 -22.2892 135.24 -24.29 130.673 -26.0231C124.293 -22.8462 117.98 -17.5612 118.48 -9.15455C119.472 7.5099 139.8 2.60875 139.8 12.9012C139.8 23.1941 116.699 21.8333 118.452 35.447C119.955 47.1174 133.972 45.2371 144.493 46.3147L149.789 46.4442L171.312 64.4208L172.228 67.5844C179.003 69.7069 185.179 71.7775 184.425 78.5788C182.442 96.4685 136.12 83.606 134.346 95.7333C131.371 116.074 116.496 116.809 134.346 132.493C148.36 144.807 168.788 151.383 175.483 169.53C196.223 147.916 208.949 118.713 208.949 86.5716C208.949 60.4744 200.556 36.3183 186.298 16.5859Z" fill="#B3E59F"/>
<path d="M149.789 46.4446L171.311 64.4212L172.227 67.5849C179.002 69.7074 185.178 71.7779 184.424 78.5792C184.407 78.7297 184.38 78.873 184.357 79.019C192.325 77.9353 198.687 75.4693 199.395 69.0812C200.713 57.506 169.416 40.836 169.416 40.836L164.76 36.9471L159.463 36.8177C148.942 35.7401 134.925 37.6204 133.422 25.95C133.104 23.4834 133.606 21.5096 134.635 19.8678C127.936 23.7743 117.238 26.0224 118.452 35.448C119.955 47.1184 133.971 45.2382 144.493 46.3157L149.789 46.4446Z" fill="#95D6A4"/>
<path d="M139.8 12.9017C139.8 13.9555 139.554 14.8854 139.122 15.7235C145.473 11.7743 154.771 9.93393 154.771 3.40367C154.771 -6.8893 134.442 -1.98815 133.45 -18.6521C133.321 -20.8277 133.65 -22.7926 134.316 -24.5672C133.111 -25.07 131.897 -25.5579 130.672 -26.0226C124.292 -22.8457 117.979 -17.5606 118.479 -9.15401C119.471 7.5099 139.8 2.60875 139.8 12.9017Z" fill="#95D6A4"/>
<path d="M149.317 122.996C132.575 108.285 144.622 106.724 148.636 89.8038C140.976 90.3205 134.963 91.5143 134.346 95.7339C131.371 116.074 116.496 116.809 134.346 132.494C148.36 144.807 168.788 151.384 175.483 169.53C179.974 164.851 184.087 159.814 187.778 154.47C179.352 140.383 161.796 133.961 149.317 122.996Z" fill="#95D6A4"/>
<path d="M55.5084 6.18612C68.4002 2.59822 74.3499 -10.215 55.5084 -13.8029C48.6806 -15.1029 42.7057 -19.166 37.8539 -23.8143C35.1834 -22.6516 32.5633 -21.3964 29.997 -20.0538L23.5833 -18.287L-10.4303 13.9107L-12.3509 16.5831C-26.6087 36.3155 -35 60.4738 -35 86.5722C-35 143.295 4.6293 190.862 58.0099 203.715C59.621 196.423 60.4783 184.752 58.9797 166.068C55.1161 117.889 34.6221 123.954 10.8225 109.09C-12.6408 94.4361 13.7716 91.7034 15.2955 71.6391L15.2244 67.4787L27.4748 58.1632L30.3411 59.5146C37.8265 57.8213 46.1915 56.5584 50.5503 51.8028C59.4755 42.0641 46.088 36.4267 40.6335 28.7381C35.1795 21.0494 42.6167 9.77348 55.5084 6.18612Z" fill="#B3E59F"/>
<path d="M-9.16563 86.5589C-9.16563 43.202 13.9742 5.19317 48.7069 -16.077C44.6626 -18.0065 41.0179 -20.7829 37.8539 -23.8149C35.1834 -22.6521 32.5633 -21.3969 29.9969 -20.0544L23.5833 -18.2875L-10.4304 13.9101L-12.3509 16.5825C-26.6087 36.3149 -35 60.4733 -35 86.5716C-35 143.295 4.62929 190.862 58.0099 203.714C58.5404 201.312 58.9886 198.43 59.2986 194.983C18.7561 175.364 -9.16563 134.187 -9.16563 86.5589Z" fill="#95D6A4"/>
</g>
</g>
<path d="M67.4782 46.6107C67.4782 46.6107 62.2853 49.1626 56.4992 54.6126L51.9586 63.9744C51.4543 65.0141 49.973 65.0141 49.4688 63.9744L49.1074 63.2294C44.5799 69.8691 40.9985 78.6092 40.9985 89.6561C40.9985 119.7 73.1113 131.869 73.1113 131.869L75.3572 134.644C78.7268 135.464 82.2364 135.927 85.844 135.989L89.6748 134.644L109.731 128.151L112.846 128.181C115.923 126.157 118.753 123.788 121.277 121.126L122.505 116.545C122.505 116.545 133.957 99.8691 131.478 85.334C130.21 77.904 127.676 71.0335 123.335 64.5718C122.684 64.9435 121.774 64.7455 121.4 63.9749L118.915 58.8504C115.324 54.7664 110.887 50.838 105.45 47.0241L103.761 43.7963C98.4576 41.759 92.6994 40.6412 86.6792 40.6412C79.8466 40.6412 73.3534 42.0852 67.4782 44.6743V46.6107Z" fill="#90D8F9"/>
<path d="M49.0984 88.3154C49.0984 63.7388 67.6812 43.5053 91.5621 40.8917C89.9565 40.7281 88.3282 40.6412 86.6792 40.6412C79.8466 40.6412 73.3534 42.0852 67.4782 44.6743V46.6107C67.4782 46.6107 62.2853 49.1626 56.4992 54.6126L51.9586 63.9744C51.4543 65.0141 49.973 65.0141 49.4688 63.9744L49.1074 63.2294C44.5799 69.8691 40.9985 78.6092 40.9985 89.6561C40.9985 119.7 73.1112 131.869 73.1112 131.869L75.3572 134.644C78.7268 135.464 82.2364 135.927 85.844 135.989L88.0361 135.219C65.877 131.1 49.0984 111.668 49.0984 88.3154Z" fill="#90D8F9"/>
<path d="M85.844 135.99C86.1222 135.994 86.4001 136 86.6792 136C96.3431 136 105.334 133.122 112.846 128.181C106.125 117.717 99.1245 125.235 92.2186 127.345C87.9488 128.65 86.4025 132.892 85.844 135.99Z" fill="#B3E59F"/>
<path d="M99.2365 124.257C96.8961 125.302 94.552 126.632 92.2186 127.345C87.9486 128.65 86.4025 132.892 85.844 135.989C86.1222 135.994 86.4001 136 86.6792 136C89.3123 136 91.8948 135.785 94.4116 135.374C94.9506 131.501 96.2252 126.652 99.2365 124.257Z" fill="#95D6A4"/>
<path d="M77.449 68.3965L75.0747 65.9252C74.428 65.2522 74.4493 64.1822 75.1223 63.5354C75.7952 62.8888 76.8653 62.9102 77.5122 63.5831L79.8865 66.0543C80.5331 66.7274 80.5119 67.7973 79.8388 68.4442C79.1659 69.0906 78.096 69.0698 77.449 68.3965Z" fill="#75CEF9"/>
<path d="M100.191 79.3392L97.4388 77.7704C96.6279 77.3079 96.3453 76.2759 96.8075 75.465C97.27 74.6543 98.3022 74.3719 99.1129 74.8339L101.865 76.4027C102.676 76.8652 102.959 77.8972 102.496 78.7081C102.034 79.519 101.002 79.8012 100.191 79.3392Z" fill="#75CEF9"/>
<path d="M125.505 60.6451L124.004 57.8031L117.544 52.3195L110.783 46.1586H108.953C107.279 45.2722 105.546 44.481 103.761 43.7957C101.267 45.0519 98.7993 47.1419 98.9948 50.4662C99.3827 57.0561 107.329 55.1179 107.329 59.188C107.329 63.2583 98.2986 62.7201 98.9839 68.1036C99.5715 72.7186 105.051 71.975 109.163 72.4011L111.234 72.4523L119.647 79.5611L120.005 80.8121C122.653 81.6514 125.067 82.4702 124.773 85.1597C123.997 92.2341 105.89 87.1477 105.197 91.9434C104.034 99.9868 98.2194 100.278 105.197 106.48C110.675 111.349 118.66 113.95 121.277 121.126C129.384 112.579 134.359 101.031 134.359 88.3205C134.359 78.0005 131.078 68.4481 125.505 60.6451Z" fill="#B3E59F"/>
<path d="M111.234 72.4525L119.647 79.5612L120.005 80.8123C122.653 81.6516 125.067 82.4704 124.773 85.1599C124.766 85.2194 124.755 85.2761 124.746 85.3338C127.861 84.9053 130.348 83.9301 130.625 81.404C131.14 76.8266 118.906 70.2346 118.906 70.2346L117.086 68.6968L115.015 68.6456C110.903 68.2195 105.424 68.963 104.836 64.348C104.712 63.3726 104.908 62.5921 105.31 61.9429C102.692 63.4877 98.5097 64.3767 98.9841 68.104C99.5717 72.7189 105.051 71.9754 109.163 72.4015L111.234 72.4525Z" fill="#95D6A4"/>
<path d="M107.33 59.1882C107.33 59.6049 107.234 59.9726 107.065 60.304C109.547 58.7424 113.182 58.0146 113.182 55.4322C113.182 51.362 105.235 53.3001 104.847 46.7105C104.797 45.8501 104.926 45.0731 105.186 44.3714C104.715 44.1725 104.24 43.9796 103.761 43.7958C101.268 45.0521 98.7997 47.1421 98.9953 50.4664C99.3831 57.056 107.33 55.1179 107.33 59.1882Z" fill="#95D6A4"/>
<path d="M111.05 102.724C104.505 96.9068 109.214 96.2897 110.783 89.5986C107.789 89.8029 105.439 90.2749 105.197 91.9436C104.034 99.987 98.2199 100.278 105.197 106.48C110.675 111.349 118.661 113.95 121.278 121.126C123.033 119.275 124.641 117.284 126.084 115.17C122.79 109.6 115.927 107.06 111.05 102.724Z" fill="#95D6A4"/>
<path d="M74.3798 56.5325C79.4191 55.1137 81.7449 50.0468 74.3798 48.628C71.7108 48.1139 69.3752 46.5072 67.4787 44.6691C66.4348 45.1289 65.4106 45.6252 64.4074 46.1561L61.9003 46.8548L48.6045 59.5872L47.8537 60.6439C42.2804 68.447 39.0002 78.0002 39.0002 88.3206C39.0002 110.751 54.4912 129.561 75.3576 134.644C75.9874 131.76 76.3225 127.145 75.7367 119.757C74.2264 100.705 66.2154 103.103 56.9121 97.2251C47.7404 91.4304 58.065 90.3498 58.6606 82.4155L58.6328 80.7703L63.4215 77.0865L64.5419 77.6209C67.4679 76.9513 70.7378 76.4519 72.4416 74.5713C75.9305 70.7202 70.6973 68.4909 68.5652 65.4505C66.4332 62.4101 69.3404 57.9511 74.3798 56.5325Z" fill="#B3E59F"/>
<path d="M49.0986 88.3154C49.0986 71.1702 58.1439 56.1399 71.7208 47.7288C70.1399 46.9658 68.7152 45.8679 67.4784 44.6689C66.4345 45.1287 65.4103 45.625 64.4072 46.1559L61.9001 46.8546L48.6042 59.587L47.8535 60.6438C42.2802 68.4468 39 78 39 88.3204C39 110.751 54.491 129.561 75.3573 134.644C75.5647 133.694 75.7399 132.554 75.8611 131.191C60.0131 123.433 49.0986 107.15 49.0986 88.3154Z" fill="#95D6A4"/>
<path d="M114.804 24.0178C106.968 24.3903 100.621 30.7465 100.259 38.5832C99.9774 44.6684 103.252 50.0142 108.18 52.727C108.788 53.0617 109.269 53.588 109.572 54.2125L114.306 63.9747C114.81 65.0144 116.292 65.0144 116.796 63.9747L121.531 54.2123C121.834 53.5864 122.317 53.0603 122.926 52.7248C127.655 50.1199 130.86 45.0902 130.86 39.3097C130.86 30.6065 123.599 23.5998 114.804 24.0178ZM115.551 46.964C111.324 46.964 107.896 43.5368 107.896 39.3093C107.896 35.0817 111.324 31.6546 115.551 31.6546C119.779 31.6546 123.206 35.0817 123.206 39.3093C123.206 43.5368 119.779 46.964 115.551 46.964Z" fill="#F3C74F"/>
<path d="M117.534 54.2125C117.231 53.588 116.751 53.0616 116.143 52.727C112.243 50.5808 109.381 46.7855 108.495 42.2805C108.109 41.3668 107.896 40.363 107.896 39.3093C107.896 38.2545 108.11 37.2495 108.496 36.3351C109.628 30.6247 113.971 26.0294 119.544 24.5264C118.043 24.1217 116.45 23.9397 114.804 24.018C106.968 24.3905 100.621 30.7467 100.259 38.5835C99.9774 44.6686 103.252 50.0145 108.18 52.7272C108.788 53.0619 109.269 53.5882 109.572 54.2127L114.306 63.9749C114.81 65.0146 116.292 65.0146 116.796 63.9749L119.532 58.3333L117.534 54.2125Z" fill="#F4B759"/>
<path d="M115.488 82.4608C111.612 82.4608 108.471 79.3191 108.471 75.4437C108.471 71.5684 111.612 68.4269 115.488 68.4269C119.363 68.4269 122.505 71.5684 122.505 75.4437C122.505 79.3191 119.363 82.4608 115.488 82.4608Z" fill="#F3C74F"/>
<path d="M115.306 75.4439C115.306 72.8098 116.759 70.5159 118.906 69.3159C117.894 68.7504 116.729 68.4269 115.488 68.4269C111.612 68.4269 108.471 71.5684 108.471 75.4437C108.471 79.3191 111.612 82.4608 115.488 82.4608C116.729 82.4608 117.894 82.1373 118.906 81.5718C116.759 80.3719 115.306 78.0781 115.306 75.4439Z" fill="#F4B759"/>
</svg>
