<svg width="25" height="21" viewBox="0 0 25 21" fill="none" xmlns="http://www.w3.org/2000/svg">
<g clip-path="url(#clip0_9295_33749)">
<path d="M24.0937 18.8969L22.4331 14.7278C23.2318 13.335 23.6543 11.7826 23.6571 10.2205C23.6619 7.53048 22.4554 4.98692 20.2598 3.05849C18.0639 1.1297 15.1377 0.044032 12.0203 0.00136016C10.387 -0.0212596 8.80216 0.238358 7.30737 0.772144C5.86563 1.28702 4.57271 2.03282 3.46455 2.9888C2.35636 3.94478 1.49184 5.06016 0.895057 6.30392C0.276305 7.59345 -0.0243076 8.96136 0.00153479 10.3697C0.0509046 13.059 1.30943 15.5834 3.54525 17.4778C5.77629 19.3682 8.71712 20.4087 11.8286 20.4086C11.8347 20.4086 11.8411 20.4086 11.8472 20.4086C13.658 20.4062 15.4575 20.0418 17.0721 19.3528L21.9048 20.7853C22.0907 20.8404 22.2812 20.8673 22.4696 20.8673C22.9172 20.8673 23.3526 20.7156 23.6827 20.4307C24.1518 20.026 24.3093 19.4383 24.0937 18.8969ZM22.6686 19.5559C22.621 19.5969 22.5192 19.6592 22.3708 19.6153L17.2498 18.0973C17.1741 18.0748 17.0953 18.0637 17.0168 18.0637C16.9011 18.0637 16.7859 18.0878 16.6815 18.1355C15.2015 18.8109 13.529 19.1692 11.8449 19.1714C6.19695 19.1793 1.52491 15.2217 1.43543 10.35C1.39041 7.899 2.47116 5.59541 4.4786 3.86363C6.48603 2.1319 9.1555 1.19972 11.9975 1.23848C17.6446 1.31571 22.2317 5.34419 22.2229 10.2186C22.2203 11.6714 21.805 13.1142 21.0221 14.3909C20.9294 14.542 20.9134 14.7195 20.9778 14.8812L22.7374 19.299C22.7884 19.4269 22.7162 19.5149 22.6686 19.5559Z" fill="#4C3ED9"/>
<path d="M11.7118 14.7852C11.3367 14.7852 10.9774 15.0697 10.9947 15.4038C11.0121 15.7389 11.3098 16.0224 11.7118 16.0224C12.0869 16.0224 12.4462 15.7378 12.4289 15.4038C12.4115 15.0686 12.1138 14.7852 11.7118 14.7852Z" fill="#4C3ED9"/>
<path d="M11.7122 5.20312C9.74497 5.20312 8.14453 6.58379 8.14453 8.28084C8.14453 8.62246 8.4656 8.89944 8.8616 8.89944C9.2576 8.89944 9.57867 8.62246 9.57867 8.28084C9.57867 7.26601 10.5358 6.44032 11.7122 6.44032C12.8885 6.44032 13.8456 7.26601 13.8456 8.28084C13.8456 9.29567 12.8885 10.1214 11.7122 10.1214C11.3162 10.1214 10.9951 10.3983 10.9951 10.74V13.263C10.9951 13.6046 11.3162 13.8816 11.7122 13.8816C12.1082 13.8816 12.4292 13.6046 12.4292 13.2629V11.2961C14.0539 11.0089 15.2798 9.76608 15.2798 8.28084C15.2798 6.58379 13.6793 5.20312 11.7122 5.20312Z" fill="#4C3ED9"/>
</g>
<defs>
<clipPath id="clip0_9295_33749">
<rect width="24.1889" height="20.8673" fill="white"/>
</clipPath>
</defs>
</svg>
