<svg width="520" height="482" viewBox="0 0 520 482" fill="none" xmlns="http://www.w3.org/2000/svg">
<path d="M469.625 143C450.164 161.781 444.102 223.59 465.993 254.402C386.325 254.402 255.289 236.266 255.289 236.266L250 158.289L288.922 143H469.625Z" fill="#E1A954"/>
<path d="M138.029 416.222L106.738 437.658C75.599 458.99 33.0614 451.042 11.7272 419.901C6.87191 412.813 8.68104 403.132 15.769 398.275L90.6096 347.003C109.724 333.909 135.834 338.788 148.929 357.902C162.023 377.018 157.143 403.127 138.029 416.222Z" fill="#4C3ED9"/>
<path opacity="0.15" d="M148.928 357.905C135.834 338.791 109.724 333.911 90.6097 347.005L79.8069 354.406C82.8188 378.936 97.7074 400.11 120.602 413.328C124.765 415.732 129.029 417.753 133.35 419.429L138.03 416.223C157.144 403.127 162.023 377.018 148.928 357.905Z" fill="black"/>
<path d="M109.639 330.798L90.7275 325.731C54.2677 315.962 32.6309 278.486 42.4003 242.026C44.6241 233.727 53.1542 228.803 61.4524 231.026L131.355 249.756C153.734 255.753 167.015 278.756 161.018 301.136C155.022 323.514 132.019 336.795 109.639 330.798Z" fill="#4C3ED9"/>
<path d="M254.97 323.15C254.97 270.154 238.68 227.192 173.554 227.192C108.428 227.192 92.1381 270.154 92.1381 323.15C92.1381 376.146 128.589 407.627 173.554 407.627C218.519 407.627 254.97 376.146 254.97 323.15Z" fill="#4C3ED9"/>
<path d="M173.554 227.192V294.796C173.554 325.372 198.341 350.158 228.916 350.158C237.5 350.158 245.629 348.203 252.879 344.716C254.231 337.781 254.969 330.569 254.969 323.15C254.97 270.154 238.68 227.192 173.554 227.192Z" fill="white"/>
<path opacity="0.1" d="M173.555 227.192C134.094 227.192 112.566 242.968 101.724 267.189C113.448 275.681 127.853 280.702 143.437 280.702H250.149C241.557 248.999 219.95 227.192 173.555 227.192Z" fill="black"/>
<path d="M497.591 275.794C484.003 267.802 468.524 263.588 452.76 263.588H251.218V210.631H482.995L518.711 235.875V263.714C518.711 274.552 506.934 281.288 497.591 275.794Z" fill="#F4B759"/>
<path d="M497.591 275.794C484.003 267.802 468.524 263.588 452.76 263.588H251.218V210.631H482.995C482.995 210.631 500.687 210.765 508.5 217.5C514.719 222.86 518.711 235.875 518.711 235.875V263.714C518.711 274.552 506.934 281.288 497.591 275.794Z" fill="#F4B759"/>
<path d="M251.219 263.588H143.437C104.111 263.588 72.2299 231.708 72.2299 192.381C72.2299 124.239 127.469 68.9999 195.611 68.9999H251.218L251.219 263.588Z" fill="#4C3ED9"/>
<path d="M511.042 182.954L492.631 174.444C471.199 164.538 446.973 162.461 424.167 168.572L251.048 214.959L251.048 69.2323L312.759 42.2341C399.81 18.9088 489.288 70.5686 512.613 157.62L517.862 177.211C518.943 181.242 514.831 184.705 511.042 182.954Z" fill="#F3C74F"/>
<path d="M170.96 263.588H251.22V116.621H190.107C147.788 116.621 113.483 150.927 113.483 193.245V206.109C113.481 237.854 139.216 263.588 170.96 263.588Z" fill="white"/>
<path d="M182.711 205.001C182.711 193.953 171.071 185 156.71 185C142.351 185 130.711 193.953 130.711 205.001C130.711 216.046 142.351 225 156.71 225C171.071 225 182.711 216.046 182.711 205.001Z" fill="#EDA1AB"/>
<path d="M189.52 187.518C184.997 187.518 181.33 183.851 181.33 179.328C181.33 176.244 178.822 173.735 175.738 173.735C172.654 173.735 170.145 176.244 170.145 179.328C170.145 183.851 166.478 187.518 161.955 187.518C157.432 187.518 153.765 183.851 153.765 179.328C153.765 167.212 163.621 157.355 175.738 157.355C187.853 157.355 197.709 167.211 197.709 179.328C197.71 183.851 194.043 187.518 189.52 187.518Z" fill="#4A5058"/>
<path opacity="0.15" d="M115.42 275.37C108.307 287.147 102.999 301.266 98.8787 316.644C95.0329 330.996 94.3956 344.456 96.4228 356.653C116.992 359.382 136.893 346.507 142.407 325.926C148.161 304.455 136.165 282.421 115.42 275.37Z" fill="black"/>
<path d="M84.9291 352.265L66.0172 347.198C29.5564 337.428 7.91963 299.952 17.689 263.492C19.9128 255.193 28.4429 250.269 36.7412 252.492L106.644 271.223C129.024 277.219 142.305 300.223 136.308 322.602C130.312 344.981 107.308 358.261 84.9291 352.265Z" fill="#4C3ED9"/>
<path d="M180.896 431.189C173.614 429.238 169.293 421.753 171.244 414.472L176.762 393.881C178.713 386.6 186.197 382.278 193.479 384.229C200.762 386.18 205.082 393.666 203.131 400.947L197.614 421.537C195.662 428.818 188.177 433.14 180.896 431.189Z" fill="#F4B759"/>
<path d="M217.524 432.755C210.242 430.804 205.921 423.318 207.872 416.037L213.39 395.447C215.341 388.165 222.825 383.843 230.107 385.795C237.389 387.746 241.71 395.231 239.759 402.512L234.242 423.103C232.291 430.384 224.806 434.706 217.524 432.755Z" fill="#F4B759"/>
</svg>
