<svg width="34" height="34" viewBox="0 0 34 34" fill="none" xmlns="http://www.w3.org/2000/svg">
<g clip-path="url(#clip0)">
<path d="M20.6097 11.9864L20.6097 11.9864C20.3087 11.6853 20.1396 11.2769 20.1397 10.8511C20.1398 10.4254 20.309 10.0171 20.6101 9.71606C20.9113 9.41506 21.3196 9.24601 21.7454 9.24609C22.1712 9.24618 22.5794 9.41539 22.8804 9.71649L20.6097 11.9864ZM20.6097 11.9864L20.8332 12.2099L18.723 14.3223L14.1803 14.9711L14.1797 14.9712C14.0614 14.9884 13.9502 15.0381 13.8586 15.1149C13.7669 15.1916 13.6984 15.2923 13.6607 15.4057C13.623 15.5191 13.6175 15.6408 13.645 15.7572C13.6724 15.8735 13.7317 15.9799 13.8161 16.0645L13.8163 16.0647L16.417 18.6662L11.439 23.6443C11.318 23.7653 11.25 23.9294 11.25 24.1005C11.25 24.2716 11.318 24.4357 11.439 24.5566C11.5599 24.6776 11.724 24.7456 11.8951 24.7456C12.0662 24.7456 12.2303 24.6776 12.3513 24.5566L12.3513 24.5566L17.3294 19.5778L19.9306 22.1782L20.6097 11.9864ZM24.9178 14.4737L24.9179 14.4738C24.9774 14.533 25.0579 14.5662 25.1418 14.5662C25.2254 14.5662 25.3057 14.5332 25.3651 14.4744C25.4243 14.4146 25.4574 14.3338 25.4571 14.2496C25.4569 14.1652 25.4231 14.0844 25.3633 14.0249L25.3628 14.0244L21.9689 10.6304L21.9688 10.6304C21.9095 10.571 21.8291 10.5377 21.7452 10.5376C21.6614 10.5376 21.5809 10.5709 21.5216 10.6301L21.3478 10.4562L21.5216 10.6301C21.4623 10.6894 21.4289 10.7698 21.4289 10.8537C21.4288 10.9375 21.4621 11.0179 21.5213 11.0772L24.9178 14.4737ZM24.9178 14.4737L24.5782 14.1365L24.5776 14.1359L24.2389 13.7972L24.2388 13.7971L22.201 11.7569L22.2009 11.7568L21.8615 11.4174L21.5214 11.0773L24.9178 14.4737ZM26.2791 13.1151L22.8805 9.71653L19.9309 22.1785C20.0515 22.2993 20.2151 22.3674 20.3858 22.3678L20.3875 22.3678C20.4564 22.3674 20.5249 22.3562 20.5903 22.3346L20.591 22.3344C20.7038 22.2967 20.8039 22.2286 20.8803 22.1376C20.9568 22.0466 21.0066 21.9362 21.0242 21.8186L21.0245 21.8169L21.6733 17.2742L23.7834 15.1649L24.0068 15.3883L24.0068 15.3883C24.1561 15.5375 24.3333 15.6558 24.5283 15.7366C24.7233 15.8173 24.9322 15.8588 25.1433 15.8588C25.3543 15.8587 25.5633 15.8171 25.7582 15.7363C25.9532 15.6555 26.1303 15.5371 26.2795 15.3878C26.4287 15.2386 26.5471 15.0614 26.6278 14.8664C26.7085 14.6714 26.75 14.4624 26.75 14.2514C26.75 14.0404 26.7083 13.8314 26.6275 13.6364C26.5467 13.4415 26.4284 13.2644 26.2791 13.1152C26.2791 13.1152 26.2791 13.1151 26.2791 13.1151ZM19.9329 20.3555L15.6407 16.0687L18.8006 15.6179L20.3817 17.199L19.9329 20.3555ZM21.068 16.0561L19.9397 14.9296L21.7447 13.1246L22.8711 14.251L21.068 16.0561Z" fill="#4C3ED9" stroke="#4C3ED9" stroke-width="0.5"/>
</g>
<defs>
<clipPath id="clip0">
<rect width="34" height="34" fill="white"/>
</clipPath>
</defs>
</svg>
