<svg width="30" height="24" viewBox="0 0 30 24" fill="none" xmlns="http://www.w3.org/2000/svg">
<g clip-path="url(#clip0_9295_33724)">
<path d="M21.8687 10.552C21.7257 10.2612 21.3165 10.1188 20.9546 10.2336C20.5928 10.3486 20.4156 10.6776 20.5586 10.9684C20.9165 11.6961 21.0979 12.4653 21.0979 13.2545C21.0979 16.6829 17.6282 19.4722 13.3631 19.4722C9.0977 19.4722 5.62746 16.6829 5.62746 13.2545C5.62746 9.82605 9.0977 7.03675 13.3631 7.03675C14.3483 7.03675 15.3068 7.18352 16.2118 7.47297C16.5731 7.5887 16.9828 7.44672 17.1266 7.15623C17.2705 6.86566 17.094 6.53641 16.7326 6.42081C15.6612 6.07806 14.5275 5.9043 13.3631 5.9043C8.32097 5.9043 4.21875 9.20153 4.21875 13.2544C4.21875 17.3073 8.3208 20.6046 13.3631 20.6046C18.4048 20.6046 22.5067 17.3074 22.5067 13.2545C22.5067 12.3221 22.2919 11.4129 21.8687 10.552Z" fill="#4C3ED9"/>
<path d="M26.2118 10.2932C26.1048 9.9925 25.7151 9.81873 25.3409 9.90456C24.9668 9.99062 24.7504 10.3041 24.8575 10.6047C25.1628 11.4626 25.3176 12.3541 25.3176 13.2542C25.3176 18.5531 19.9551 22.8642 13.3636 22.8642C6.77171 22.8642 1.40877 18.5531 1.40877 13.2542C1.40877 7.95517 6.77166 3.64422 13.3636 3.64422C14.4859 3.64422 15.5967 3.76923 16.6651 4.01584C17.0391 4.10209 17.4292 3.92847 17.5365 3.62786C17.6438 3.32725 17.4278 3.01366 17.0538 2.92741C15.8591 2.65159 14.6174 2.51172 13.3636 2.51172C5.99487 2.51177 0 7.3308 0 13.2542C0 19.1776 5.99487 23.9967 13.3636 23.9967C20.7318 23.9967 26.7264 19.1777 26.7264 13.2542C26.7264 12.2486 26.5532 11.2524 26.2118 10.2932Z" fill="#4C3ED9"/>
<path d="M18.2683 12.9097C18.2337 12.5982 17.8914 12.3695 17.5041 12.3961C17.1166 12.4239 16.8304 12.6989 16.8651 13.0104C16.874 13.091 16.8786 13.1735 16.8786 13.2555C16.8786 14.8135 15.3018 16.0809 13.3638 16.0809C11.4252 16.0809 9.84811 14.8134 9.84811 13.2555C9.84822 11.6971 11.4253 10.4294 13.3638 10.4294C13.4721 10.4294 13.5781 10.4332 13.6791 10.4406C14.0668 10.4692 14.4094 10.2402 14.4452 9.92875C14.4809 9.61736 14.1958 9.34169 13.8084 9.31291C13.6647 9.30227 13.5151 9.29688 13.3639 9.29688C10.6486 9.29688 8.43945 11.0726 8.43945 13.2554C8.43945 15.4378 10.6486 17.2132 13.3639 17.2132C16.0787 17.2132 18.2874 15.4378 18.2874 13.2554C18.2874 13.14 18.281 13.0236 18.2683 12.9097Z" fill="#4C3ED9"/>
<path d="M29.7478 3.80878C29.529 3.384 29.0179 3.1095 28.446 3.1095H25.9899V1.13521C25.9899 0.67537 25.6484 0.264604 25.12 0.0886824C24.5918 -0.0871926 23.9893 0.00922929 23.5849 0.334261L19.4811 3.63318C19.0821 3.95385 18.8625 4.38032 18.8625 4.83403V8.03817L13.1379 12.6399C12.8629 12.861 12.8629 13.2195 13.1379 13.4407C13.2754 13.5512 13.4557 13.6065 13.636 13.6065C13.8162 13.6065 13.9965 13.5512 14.134 13.4407L19.8586 8.83893H23.8446C24.409 8.83893 24.9396 8.66231 25.3384 8.34168L29.4423 5.04267C29.8467 4.71759 29.9666 4.23332 29.7478 3.80878ZM20.2712 4.83398C20.2713 4.68281 20.3445 4.54068 20.4773 4.43395L24.5811 1.13554V3.44123L20.2712 6.90581V4.83398H20.2712ZM24.3423 7.54087C24.2115 7.64606 24.03 7.70648 23.8446 7.70648H21.2675L25.5773 4.24199L28.4458 4.24228L24.3423 7.54087Z" fill="#4C3ED9"/>
</g>
<defs>
<clipPath id="clip0_9295_33724">
<rect width="29.856" height="24" fill="white"/>
</clipPath>
</defs>
</svg>
