<svg width="27" height="26" viewBox="0 0 27 26" fill="none" xmlns="http://www.w3.org/2000/svg">
<g clip-path="url(#clip0)">
<path d="M11.6731 18.1289H11.4155V15.5898C11.4155 15.1692 11.0695 14.8281 10.6427 14.8281H7.29422C6.86746 14.8281 6.52148 15.1692 6.52148 15.5898V16.5193C6.52148 16.9655 6.194 17.3454 5.79145 17.3661C5.57653 17.3778 5.37217 17.3034 5.217 17.1582C5.06158 17.0128 4.97601 16.8165 4.97601 16.6055V15.5898C4.97601 15.1692 4.63003 14.8281 4.20328 14.8281H0.854765C0.42801 14.8281 0.0820312 15.1692 0.0820312 15.5898V23.207C0.0820312 24.7471 1.35308 26 2.91539 26H10.6427C11.0695 26 11.4155 25.659 11.4155 25.2383V22.6992H11.673C12.9513 22.6992 13.9912 21.6741 13.9912 20.4141C13.9912 19.154 12.9513 18.1289 11.6731 18.1289ZM11.673 21.1758H10.6427C10.216 21.1758 9.87 21.5168 9.87 21.9375V24.4766H2.91539C2.20525 24.4766 1.6275 23.9071 1.6275 23.207V16.3516H3.43055V16.6055C3.43055 17.2294 3.69389 17.8336 4.1531 18.2632C4.61886 18.699 5.22947 18.9208 5.87223 18.8875C7.10294 18.8239 8.06695 17.7837 8.06695 16.5193V16.3516H9.87V18.8906C9.87 19.3113 10.216 19.6523 10.6427 19.6523H11.6731C12.0992 19.6523 12.4458 19.9941 12.4458 20.4141C12.4458 20.8341 12.0991 21.1758 11.673 21.1758Z" fill="white"/>
<path d="M26.4573 2.79297C26.4573 1.25293 25.1863 0 23.624 0H15.8966H8.1693C6.60698 0 5.33594 1.25293 5.33594 2.79302L5.33599 10.4102C5.33599 10.8308 5.68197 11.1719 6.10872 11.1719H8.68445V11.4258C8.68445 12.6858 9.72445 13.7109 11.0027 13.7109C12.2809 13.7109 13.3209 12.6858 13.3209 11.4258V11.1719H15.1239L15.1239 13.7109C15.1239 14.1316 15.4699 14.4727 15.8966 14.4727H16.8395C17.2921 14.4727 17.6775 14.7955 17.6986 15.1923C17.7099 15.4045 17.635 15.6056 17.4876 15.7585C17.3402 15.9117 17.141 15.9961 16.9269 15.9961H15.8966C15.4699 15.9961 15.1239 16.3371 15.1239 16.7578V20.0586C15.1239 20.4793 15.4699 20.8203 15.8966 20.8203H23.624C25.1863 20.8203 26.4573 19.5674 26.4573 18.0273V2.79297ZM16.6694 4.0625V1.52344H23.624C24.3341 1.52344 24.9119 2.09295 24.9119 2.79297V9.64844H23.1088V9.39453C23.1088 8.77063 22.8455 8.16639 22.3863 7.73683C21.9205 7.30102 21.3093 7.07936 20.6671 7.11252C19.4364 7.17605 18.4724 8.2163 18.4724 9.48071V9.64844H16.6694L16.6694 7.10938C16.6694 6.6887 16.3234 6.34766 15.8966 6.34766H14.9537C14.5011 6.34766 14.1157 6.02484 14.0947 5.62804C14.0834 5.41587 14.1583 5.21473 14.3056 5.06177C14.4531 4.90857 14.6523 4.82422 14.8663 4.82422H15.8966C16.3234 4.82422 16.6694 4.48317 16.6694 4.0625ZM12.5481 9.64844C12.1214 9.64844 11.7754 9.98948 11.7754 10.4102V11.4258C11.7754 11.8458 11.4287 12.1875 11.0027 12.1875C10.5766 12.1875 10.2299 11.8458 10.2299 11.4258V10.4102C10.2299 9.98948 9.88394 9.64844 9.45719 9.64844H6.88146L6.88141 2.79302C6.88141 2.093 7.45915 1.52344 8.1693 1.52344H15.1239V3.30078H14.8663C14.2334 3.30078 13.6204 3.56037 13.1846 4.01304C12.7426 4.47215 12.5177 5.07401 12.5513 5.70766C12.6158 6.92082 13.671 7.87109 14.9537 7.87109H15.1239L15.124 9.64844H12.5481ZM23.624 19.2969H16.6694V17.5195H16.9269C17.5599 17.5195 18.1729 17.2599 18.6087 16.8073C19.0507 16.3482 19.2756 15.7463 19.242 15.1127C19.1775 13.8995 18.1222 12.9492 16.8395 12.9492H16.6694L16.6693 11.1719H19.2452C19.6719 11.1719 20.0179 10.8308 20.0179 10.4102V9.48071C20.0179 9.03454 20.3454 8.65465 20.7479 8.63388C20.963 8.62311 21.1672 8.69664 21.3224 8.84183C21.4778 8.98722 21.5634 9.18354 21.5634 9.39453V10.4102C21.5634 10.8308 21.9093 11.1719 22.3361 11.1719H24.9118L24.9119 18.0273C24.9119 18.7274 24.3341 19.2969 23.624 19.2969Z" fill="white"/>
</g>
<defs>
<clipPath id="clip0">
<rect width="26.376" height="26" fill="white" transform="translate(0.0820312)"/>
</clipPath>
</defs>
</svg>