<svg width="373" height="331" viewBox="0 0 373 331" fill="none" xmlns="http://www.w3.org/2000/svg">
<path d="M186.62 8.08C188.851 8.08 190.66 6.27123 190.66 4.04C190.66 1.80877 188.851 0 186.62 0C184.389 0 182.58 1.80877 182.58 4.04C182.58 6.27123 184.389 8.08 186.62 8.08Z" fill="#6065FC"/>
<path d="M186.38 8.08008C186.38 8.08008 161.559 8.35008 156.719 18.4701C153.869 24.4701 146.359 27.2101 140.429 27.7901C137.612 28.0424 134.885 28.9103 132.44 30.3324C129.995 31.7545 127.892 33.6961 126.279 36.0201C126.094 36.302 125.993 36.631 125.988 36.9684C125.984 37.3058 126.076 37.6375 126.253 37.9244C126.431 38.2113 126.687 38.4414 126.991 38.5877C127.295 38.734 127.634 38.7903 127.969 38.7501C133.149 38.1301 142.969 38.1701 148.869 37.7501C157.529 37.0601 166.489 32.2601 170.689 28.1901C174.889 24.1201 185.899 25.3301 185.899 25.3301L186.369 8.33008" fill="#4551ED"/>
<path d="M186.65 33.6706V7.39062" stroke="#6065FC" stroke-width="3" stroke-miterlimit="10"/>
<path d="M334.859 206.301H38.4395V307.221H334.859V206.301Z" fill="#6065FC"/>
<path d="M152.99 136.209V58.3295L187.17 39.9395L220.31 57.8795V136.209H152.99Z" stroke="#6065FC" stroke-width="5.67" stroke-miterlimit="10"/>
<path d="M147.1 60.2101L187.21 37.8301L228.17 60.2101" stroke="#CDCDDB" stroke-width="16" stroke-miterlimit="10"/>
<path d="M305.3 136.211H67.9902V147.611H305.3V136.211Z" fill="#4551ED"/>
<path d="M367.37 195.369H5.91992V206.299H367.37V195.369Z" fill="#4551ED"/>
<path d="M372.32 319.891H0V330.451H372.32V319.891Z" fill="#6065FC"/>
<path d="M67.9902 146.41C67.9902 146.41 73.4802 156.13 80.6602 146.41C80.6602 146.41 86.2502 155.63 92.9102 146.41C92.9102 146.41 98.9102 155.92 105.91 146.41C105.91 146.41 112.35 155.95 119.1 146.41C119.1 146.41 125.23 155.32 131.46 146.41C131.46 146.41 137.16 155.53 143.7 146.41C143.7 146.41 148.77 155.95 155.62 146.52C155.62 146.52 162.17 156.37 167.14 146.41" stroke="#4551ED" stroke-miterlimit="10"/>
<path d="M300.781 146.41C300.781 146.41 295.291 156.13 288.111 146.41C288.111 146.41 282.511 155.63 275.861 146.41C275.861 146.41 269.861 155.92 262.861 146.41C262.861 146.41 256.421 155.95 249.661 146.41C249.661 146.41 243.541 155.32 237.311 146.41C237.311 146.41 231.611 155.53 225.071 146.41C225.071 146.41 220.001 155.95 213.151 146.52C213.151 146.52 206.591 156.37 201.631 146.41" stroke="#4551ED" stroke-miterlimit="10"/>
<path d="M5.91992 195.369L67.9899 146.039H305.3L367.37 195.369H5.91992Z" fill="#6065FC"/>
<path d="M159.145 162.232L157.121 161.227L154.041 167.423L156.065 168.429L159.145 162.232Z" fill="#EDA000"/>
<path d="M61.2305 151.408C61.2305 151.408 66.7205 161.118 73.9005 151.408C73.9005 151.408 79.5005 160.628 86.1505 151.408C86.1505 151.408 92.1505 160.908 99.1505 151.408C99.1505 151.408 105.59 160.938 112.35 151.408C112.35 151.408 118.47 160.308 124.7 151.408C124.7 151.408 130.4 160.518 136.94 151.408C136.94 151.408 142.01 160.938 148.86 151.508C148.86 151.508 155.42 161.358 160.38 151.408" stroke="#4551ED" stroke-miterlimit="10"/>
<path d="M55.0391 156.398C55.0391 156.398 60.5291 166.108 67.7091 156.398C67.7091 156.398 73.2991 165.618 79.9491 156.398C79.9491 156.398 85.9491 165.898 92.9491 156.398C92.9491 156.398 99.3891 165.928 106.139 156.398C106.139 156.398 112.269 165.298 118.489 156.398C118.489 156.398 124.189 165.508 130.739 156.398C130.739 156.398 135.809 165.928 142.659 156.498C142.659 156.498 149.209 166.358 154.169 156.398" stroke="#4551ED" stroke-miterlimit="10"/>
<path d="M48.2793 161.389C48.2793 161.389 53.7693 171.099 60.9493 161.389C60.9493 161.389 66.5493 170.609 73.1993 161.389C73.1993 161.389 79.1993 170.889 86.1993 161.389C86.1993 161.389 92.6393 170.919 99.3993 161.389C99.3993 161.389 105.519 170.289 111.749 161.389C111.749 161.389 117.449 170.499 123.989 161.389C123.989 161.389 129.059 170.919 135.909 161.489C135.909 161.489 142.469 171.349 147.429 161.389" stroke="#4551ED" stroke-miterlimit="10"/>
<path d="M42.0898 166.398C42.0898 166.398 47.5798 176.118 54.7598 166.398C54.7598 166.398 60.3498 175.618 66.9998 166.398C66.9998 166.398 72.9998 175.898 79.9998 166.398C79.9998 166.398 86.4398 175.938 93.1898 166.398C93.1898 166.398 99.3098 175.308 105.54 166.398C105.54 166.398 111.24 175.518 117.79 166.398C117.79 166.398 122.85 175.938 129.71 166.508C129.71 166.508 136.26 176.358 141.22 166.398" stroke="#4551ED" stroke-miterlimit="10"/>
<path d="M35.3301 171.398C35.3301 171.398 40.8201 181.108 48.0001 171.398C48.0001 171.398 53.5901 180.608 60.2401 171.398C60.2401 171.398 66.2401 180.898 73.2401 171.398C73.2401 171.398 79.6801 180.928 86.4301 171.398C86.4301 171.398 92.5601 180.298 98.7801 171.398C98.7801 171.398 104.49 180.508 111.03 171.398C111.03 171.398 116.1 180.928 122.95 171.498C122.95 171.498 129.5 181.348 134.47 171.398" stroke="#4551ED" stroke-miterlimit="10"/>
<path d="M29.1406 176.389C29.1406 176.389 34.6306 186.099 41.8006 176.389C41.8006 176.389 47.4006 185.609 54.0506 176.389C54.0506 176.389 60.0506 185.889 67.0506 176.389C67.0506 176.389 73.4906 185.919 80.2506 176.389C80.2506 176.389 86.3706 185.289 92.6006 176.389C92.6006 176.389 98.3006 185.499 104.851 176.389C104.851 176.389 109.911 185.919 116.761 176.489C116.761 176.489 123.321 186.339 128.281 176.389" stroke="#4551ED" stroke-miterlimit="10"/>
<path d="M128.221 176.389C128.221 176.389 133.711 186.099 140.881 176.389C140.881 176.389 146.481 185.609 153.131 176.389C153.131 176.389 159.131 185.889 166.131 176.389C166.131 176.389 172.571 185.919 179.331 176.389C179.331 176.389 185.451 185.289 191.681 176.389C191.681 176.389 197.381 185.499 203.921 176.389C203.921 176.389 208.991 185.919 215.841 176.489C215.841 176.489 222.401 186.339 227.361 176.389" stroke="#4551ED" stroke-miterlimit="10"/>
<path d="M22.3809 181.379C22.3809 181.379 27.8709 191.089 35.0509 181.379C35.0509 181.379 40.6409 190.599 47.2909 181.379C47.2909 181.379 53.2909 190.879 60.2909 181.379C60.2909 181.379 66.7309 190.909 73.4809 181.379C73.4809 181.379 79.6009 190.279 85.8309 181.379C85.8309 181.379 91.5309 190.489 98.0809 181.379C98.0809 181.379 103.151 190.909 110.001 181.479C110.001 181.479 116.551 191.339 121.511 181.379" stroke="#4551ED" stroke-miterlimit="10"/>
<path d="M121.5 181.379C121.5 181.379 126.99 191.089 134.17 181.379C134.17 181.379 139.77 190.599 146.42 181.379C146.42 181.379 152.42 190.879 159.42 181.379C159.42 181.379 165.86 190.909 172.62 181.379C172.62 181.379 178.74 190.279 184.97 181.379C184.97 181.379 190.67 190.489 197.21 181.379C197.21 181.379 202.28 190.909 209.13 181.479C209.13 181.479 215.69 191.339 220.65 181.379" stroke="#4551ED" stroke-miterlimit="10"/>
<path d="M15.6191 185.93C15.6191 185.93 21.1091 195.64 28.2891 185.93C28.2891 185.93 33.8791 195.15 40.5291 185.93C40.5291 185.93 46.5291 195.43 53.5291 185.93C53.5291 185.93 59.9691 195.46 66.7191 185.93C66.7191 185.93 72.8491 194.83 79.0791 185.93C79.0791 185.93 84.7791 195.04 91.3191 185.93C91.3191 185.93 96.3891 195.46 103.239 186.03C103.239 186.03 109.789 195.89 114.759 185.93" stroke="#4551ED" stroke-miterlimit="10"/>
<path d="M115.26 185.93C115.26 185.93 120.75 195.64 127.93 185.93C127.93 185.93 133.53 195.15 140.18 185.93C140.18 185.93 146.18 195.43 153.18 185.93C153.18 185.93 159.62 195.46 166.38 185.93C166.38 185.93 172.5 194.83 178.73 185.93C178.73 185.93 184.43 195.04 190.97 185.93C190.97 185.93 196.04 195.46 202.89 186.03C202.89 186.03 209.45 195.89 214.41 185.93" stroke="#4551ED" stroke-miterlimit="10"/>
<path d="M8.90039 190.92C8.90039 190.92 14.3904 200.63 21.5704 190.92C21.5704 190.92 27.1704 200.14 33.8204 190.92C33.8204 190.92 39.8204 200.42 46.8204 190.92C46.8204 190.92 53.2604 200.45 60.0204 190.92C60.0204 190.92 66.1404 199.82 72.3704 190.92C72.3704 190.92 78.0704 200.03 84.6104 190.92C84.6104 190.92 89.6804 200.45 96.5304 191.02C96.5304 191.02 103.09 200.88 108.05 190.92" stroke="#4551ED" stroke-miterlimit="10"/>
<path d="M107.99 190.92C107.99 190.92 113.48 200.63 120.66 190.92C120.66 190.92 126.25 200.14 132.9 190.92C132.9 190.92 138.9 200.42 145.9 190.92C145.9 190.92 152.33 200.45 159.09 190.92C159.09 190.92 165.21 199.82 171.44 190.92C171.44 190.92 177.14 200.03 183.69 190.92C183.69 190.92 188.75 200.45 195.61 191.02C195.61 191.02 202.16 200.88 207.12 190.92" stroke="#4551ED" stroke-miterlimit="10"/>
<path d="M307.531 151.408C307.531 151.408 302.041 161.118 294.871 151.408C294.871 151.408 289.271 160.628 282.621 151.408C282.621 151.408 276.621 160.908 269.621 151.408C269.621 151.408 263.181 160.938 256.421 151.408C256.421 151.408 250.301 160.308 244.071 151.408C244.071 151.408 238.371 160.518 231.821 151.408C231.821 151.408 226.761 160.938 219.911 151.508C219.911 151.508 213.351 161.358 208.391 151.408" stroke="#4551ED" stroke-miterlimit="10"/>
<path d="M313.73 156.398C313.73 156.398 308.24 166.108 301.06 156.398C301.06 156.398 295.47 165.618 288.82 156.398C288.82 156.398 282.82 165.898 275.82 156.398C275.82 156.398 269.38 165.928 262.63 156.398C262.63 156.398 256.5 165.298 250.27 156.398C250.27 156.398 244.57 165.508 238.03 156.398C238.03 156.398 232.96 165.928 226.11 156.498C226.11 156.498 219.56 166.358 214.59 156.398" stroke="#4551ED" stroke-miterlimit="10"/>
<path d="M320.49 161.389C320.49 161.389 315 171.099 307.82 161.389C307.82 161.389 302.22 170.609 295.57 161.389C295.57 161.389 289.57 170.889 282.57 161.389C282.57 161.389 276.13 170.919 269.37 161.389C269.37 161.389 263.25 170.289 257.02 161.389C257.02 161.389 251.32 170.499 244.78 161.389C244.78 161.389 239.71 170.919 232.86 161.489C232.86 161.489 226.3 171.349 221.34 161.389" stroke="#4551ED" stroke-miterlimit="10"/>
<path d="M326.681 166.398C326.681 166.398 321.191 176.118 314.011 166.398C314.011 166.398 308.421 175.618 301.771 166.398C301.771 166.398 295.771 175.898 288.771 166.398C288.771 166.398 282.331 175.938 275.581 166.398C275.581 166.398 269.451 175.308 263.231 166.398C263.231 166.398 257.531 175.518 250.981 166.398C250.981 166.398 245.911 175.938 239.061 166.508C239.061 166.508 232.511 176.358 227.551 166.398" stroke="#4551ED" stroke-miterlimit="10"/>
<path d="M333.439 171.398C333.439 171.398 327.949 181.108 320.769 171.398C320.769 171.398 315.169 180.608 308.519 171.398C308.519 171.398 302.519 180.898 295.519 171.398C295.519 171.398 289.079 180.928 282.319 171.398C282.319 171.398 276.199 180.298 269.969 171.398C269.969 171.398 264.269 180.508 257.729 171.398C257.729 171.398 252.659 180.928 245.809 171.498C245.809 171.498 239.249 181.348 234.289 171.398" stroke="#4551ED" stroke-miterlimit="10"/>
<path d="M339.63 176.389C339.63 176.389 334.14 186.099 326.96 176.389C326.96 176.389 321.37 185.609 314.72 176.389C314.72 176.389 308.72 185.889 301.72 176.389C301.72 176.389 295.29 185.919 288.53 176.389C288.53 176.389 282.41 185.289 276.18 176.389C276.18 176.389 270.48 185.499 263.93 176.389C263.93 176.389 258.87 185.919 252.01 176.489C252.01 176.489 245.46 186.339 240.5 176.389" stroke="#4551ED" stroke-miterlimit="10"/>
<path d="M346.39 181.379C346.39 181.379 340.9 191.089 333.72 181.379C333.72 181.379 328.13 190.599 321.48 181.379C321.48 181.379 315.48 190.879 308.48 181.379C308.48 181.379 302.04 190.909 295.29 181.379C295.29 181.379 289.16 190.279 282.94 181.379C282.94 181.379 277.24 190.489 270.69 181.379C270.69 181.379 265.62 190.909 258.77 181.479C258.77 181.479 252.22 191.339 247.26 181.379" stroke="#4551ED" stroke-miterlimit="10"/>
<path d="M353.15 185.93C353.15 185.93 347.66 195.64 340.48 185.93C340.48 185.93 334.88 195.15 328.23 185.93C328.23 185.93 322.23 195.43 315.23 185.93C315.23 185.93 308.79 195.46 302.03 185.93C302.03 185.93 295.91 194.83 289.68 185.93C289.68 185.93 283.98 195.04 277.44 185.93C277.44 185.93 272.37 195.46 265.52 186.03C265.52 186.03 258.96 195.89 254 185.93" stroke="#4551ED" stroke-miterlimit="10"/>
<path d="M253.499 185.93C253.499 185.93 248.009 195.64 240.839 185.93C240.839 185.93 235.239 195.15 228.589 185.93C228.589 185.93 222.589 195.43 215.589 185.93C215.589 185.93 209.149 195.46 202.389 185.93C202.389 185.93 196.269 194.83 190.039 185.93C190.039 185.93 184.339 195.04 177.799 185.93C177.799 185.93 172.729 195.46 165.879 186.03C165.879 186.03 159.319 195.89 154.359 185.93" stroke="#4551ED" stroke-miterlimit="10"/>
<path d="M359.9 190.92C359.9 190.92 354.41 200.63 347.24 190.92C347.24 190.92 341.64 200.14 334.99 190.92C334.99 190.92 328.99 200.42 321.99 190.92C321.99 190.92 315.55 200.45 308.79 190.92C308.79 190.92 302.67 199.82 296.44 190.92C296.44 190.92 290.74 200.03 284.2 190.92C284.2 190.92 279.13 200.45 272.28 191.02C272.28 191.02 265.72 200.88 260.76 190.92" stroke="#4551ED" stroke-miterlimit="10"/>
<path d="M260.78 190.92C260.78 190.92 255.29 200.63 248.11 190.92C248.11 190.92 242.52 200.14 235.87 190.92C235.87 190.92 229.87 200.42 222.87 190.92C222.87 190.92 216.43 200.45 209.68 190.92C209.68 190.92 203.55 199.82 197.33 190.92C197.33 190.92 191.63 200.03 185.08 190.92C185.08 190.92 180.01 200.45 173.16 191.02C173.16 191.02 166.61 200.88 161.65 190.92" stroke="#4551ED" stroke-miterlimit="10"/>
<path d="M132.18 307.219V162.389L187.49 128.189L241.12 161.549V307.219H132.18Z" fill="white"/>
<path d="M120.711 164.36L186.381 127.73L253.431 164.36" stroke="#CDCDDB" stroke-width="18" stroke-miterlimit="10"/>
<path d="M167.451 206.301H173.321C174.665 206.301 175.955 206.835 176.906 207.786C177.856 208.737 178.391 210.026 178.391 211.371V235.231H162.391V211.331C162.391 210.005 162.917 208.733 163.855 207.795C164.793 206.858 166.065 206.331 167.391 206.331L167.451 206.301Z" fill="#EDA000" stroke="#6065FC" stroke-width="3" stroke-miterlimit="10"/>
<path d="M162.43 226.141H178.39" stroke="#6065FC" stroke-width="3" stroke-miterlimit="10"/>
<path d="M162.43 217.83H178.39" stroke="#6065FC" stroke-width="3" stroke-miterlimit="10"/>
<path d="M170.221 207.08V235.23" stroke="#6065FC" stroke-width="3" stroke-miterlimit="10"/>
<path d="M198.999 206.301H204.869C206.214 206.301 207.504 206.835 208.454 207.786C209.405 208.737 209.939 210.026 209.939 211.371V235.231H193.939V211.331C193.939 210.005 194.466 208.733 195.404 207.795C196.342 206.858 197.613 206.331 198.939 206.331L198.999 206.301Z" fill="#EDA000" stroke="#6065FC" stroke-width="3" stroke-miterlimit="10"/>
<path d="M193.93 226.141H209.89" stroke="#6065FC" stroke-width="3" stroke-miterlimit="10"/>
<path d="M193.93 217.83H209.89" stroke="#6065FC" stroke-width="3" stroke-miterlimit="10"/>
<path d="M201.721 207.08V235.23" stroke="#6065FC" stroke-width="3" stroke-miterlimit="10"/>
<path d="M185.289 73.75H188.779C191.015 73.75 193.159 74.6382 194.74 76.2191C196.321 77.8 197.209 79.9442 197.209 82.18V110.49H176.939V82.1C176.942 79.8863 177.823 77.7639 179.388 76.1986C180.953 74.6332 183.076 73.7526 185.289 73.75V73.75Z" stroke="#6065FC" stroke-width="3" stroke-miterlimit="10"/>
<path d="M176.939 98.9395H197.199" stroke="#6065FC" stroke-width="3" stroke-miterlimit="10"/>
<path d="M176.939 88.3906H197.199" stroke="#6065FC" stroke-width="3" stroke-miterlimit="10"/>
<path d="M186.789 73.7695V110.48" stroke="#6065FC" stroke-width="3" stroke-miterlimit="10"/>
<path d="M183.06 248.529H189.88C194.16 248.537 198.262 250.244 201.284 253.274C204.307 256.304 206.003 260.41 206 264.689V310.469H166.4V265.169C166.4 262.982 166.831 260.817 167.669 258.797C168.506 256.777 169.734 254.941 171.281 253.396C172.828 251.851 174.665 250.625 176.686 249.79C178.708 248.955 180.874 248.527 183.06 248.529V248.529Z" fill="#4551ED" stroke="#6065FC" stroke-width="8" stroke-miterlimit="10"/>
<path d="M62.4205 215.311H65.9005C67.0076 215.311 68.1038 215.529 69.1266 215.952C70.1493 216.376 71.0787 216.997 71.8615 217.78C72.6443 218.562 73.2652 219.492 73.6888 220.515C74.1125 221.537 74.3305 222.634 74.3305 223.741V252.001H54.0605V223.671C54.0605 221.453 54.9413 219.327 56.5091 217.759C58.0769 216.191 60.2033 215.311 62.4205 215.311V215.311Z" fill="#EDA000" stroke="white" stroke-width="3" stroke-miterlimit="10"/>
<path d="M54.0605 240.51H74.3305" stroke="white" stroke-width="3" stroke-miterlimit="10"/>
<path d="M54.0605 229.949H74.3305" stroke="white" stroke-width="3" stroke-miterlimit="10"/>
<path d="M64.1191 215.811V252.051" stroke="white" stroke-width="3" stroke-miterlimit="10"/>
<path d="M100.731 215.311H104.221C105.328 215.311 106.424 215.529 107.447 215.952C108.47 216.376 109.399 216.997 110.182 217.78C110.965 218.562 111.586 219.492 112.009 220.515C112.433 221.537 112.651 222.634 112.651 223.741V252.001H92.3809V223.671C92.3809 221.455 93.2603 219.33 94.8259 217.763C96.3916 216.195 98.5154 215.313 100.731 215.311Z" fill="#EDA000" stroke="white" stroke-width="3" stroke-miterlimit="10"/>
<path d="M92.3809 240.51H112.651" stroke="white" stroke-width="3" stroke-miterlimit="10"/>
<path d="M92.3809 229.949H112.651" stroke="white" stroke-width="3" stroke-miterlimit="10"/>
<path d="M102.439 215.811V252.051" stroke="white" stroke-width="3" stroke-miterlimit="10"/>
<path d="M62.4205 260.279H65.9005C67.0076 260.279 68.1038 260.497 69.1266 260.921C70.1493 261.345 71.0787 261.966 71.8615 262.748C72.6443 263.531 73.2652 264.461 73.6888 265.483C74.1125 266.506 74.3305 267.602 74.3305 268.709V296.999H54.0605V268.639C54.0605 266.422 54.9413 264.296 56.5091 262.728C58.0769 261.16 60.2033 260.279 62.4205 260.279V260.279Z" fill="#EDA000" stroke="white" stroke-width="3" stroke-miterlimit="10"/>
<path d="M54.0605 285.48H74.3305" stroke="white" stroke-width="3" stroke-miterlimit="10"/>
<path d="M54.0605 274.92H74.3305" stroke="white" stroke-width="3" stroke-miterlimit="10"/>
<path d="M64.1191 260.779V297.019" stroke="white" stroke-width="3" stroke-miterlimit="10"/>
<path d="M100.731 260.279H104.221C105.328 260.279 106.424 260.497 107.447 260.921C108.47 261.345 109.399 261.966 110.182 262.748C110.965 263.531 111.586 264.461 112.009 265.483C112.433 266.506 112.651 267.602 112.651 268.709V296.999H92.3809V268.639C92.3809 266.424 93.2603 264.299 94.8259 262.731C96.3916 261.164 98.5154 260.282 100.731 260.279V260.279Z" fill="#EDA000" stroke="white" stroke-width="3" stroke-miterlimit="10"/>
<path d="M92.3809 285.48H112.651" stroke="white" stroke-width="3" stroke-miterlimit="10"/>
<path d="M92.3809 274.92H112.651" stroke="white" stroke-width="3" stroke-miterlimit="10"/>
<path d="M102.439 260.779V297.019" stroke="white" stroke-width="3" stroke-miterlimit="10"/>
<path d="M269.32 215.311H272.81C275.046 215.311 277.19 216.199 278.771 217.78C280.352 219.361 281.24 221.505 281.24 223.741V252.001H261V223.671C261 221.46 261.875 219.34 263.434 217.773C264.994 216.207 267.11 215.321 269.32 215.311Z" fill="#EDA000" stroke="white" stroke-width="3" stroke-miterlimit="10"/>
<path d="M260.959 240.51H281.229" stroke="white" stroke-width="3" stroke-miterlimit="10"/>
<path d="M260.959 229.949H281.229" stroke="white" stroke-width="3" stroke-miterlimit="10"/>
<path d="M271.029 215.811V252.051" stroke="white" stroke-width="3" stroke-miterlimit="10"/>
<path d="M307.639 215.311H311.129C313.365 215.311 315.509 216.199 317.09 217.78C318.671 219.361 319.559 221.505 319.559 223.741V252.001H299.279V223.671C299.279 221.453 300.16 219.327 301.728 217.759C303.296 216.191 305.422 215.311 307.639 215.311V215.311Z" fill="#EDA000" stroke="white" stroke-width="3" stroke-miterlimit="10"/>
<path d="M299.279 240.51H319.549" stroke="white" stroke-width="3" stroke-miterlimit="10"/>
<path d="M299.279 229.949H319.549" stroke="white" stroke-width="3" stroke-miterlimit="10"/>
<path d="M309.35 215.811V252.051" stroke="white" stroke-width="3" stroke-miterlimit="10"/>
<path d="M269.32 260.279H272.81C275.046 260.279 277.19 261.167 278.771 262.748C280.352 264.329 281.24 266.474 281.24 268.709V296.999H261V268.639C261 266.422 261.881 264.296 263.449 262.728C265.016 261.16 267.143 260.279 269.36 260.279H269.32Z" fill="#EDA000" stroke="white" stroke-width="3" stroke-miterlimit="10"/>
<path d="M260.959 285.48H281.229" stroke="white" stroke-width="3" stroke-miterlimit="10"/>
<path d="M260.959 274.92H281.229" stroke="white" stroke-width="3" stroke-miterlimit="10"/>
<path d="M271.029 260.779V297.019" stroke="white" stroke-width="3" stroke-miterlimit="10"/>
<path d="M307.639 260.279H311.129C313.365 260.279 315.509 261.167 317.09 262.748C318.671 264.329 319.559 266.474 319.559 268.709V296.999H299.279V268.639C299.279 266.422 300.16 264.296 301.728 262.728C303.296 261.16 305.422 260.279 307.639 260.279Z" fill="#EDA000" stroke="white" stroke-width="3" stroke-miterlimit="10"/>
<path d="M299.279 285.48H319.549" stroke="white" stroke-width="3" stroke-miterlimit="10"/>
<path d="M299.279 274.92H319.549" stroke="white" stroke-width="3" stroke-miterlimit="10"/>
<path d="M309.35 260.779V297.019" stroke="white" stroke-width="3" stroke-miterlimit="10"/>
<path d="M367.37 307.221H5.91992V317.781H367.37V307.221Z" fill="#4551ED"/>
<path d="M142.843 173.071C139.776 175.043 138.89 178.256 140.47 180.715C143.128 184.848 149.067 180.6 150.605 182.993C151.123 183.798 150.952 185.015 149.603 185.882C148.602 186.525 146.758 187.004 144.854 186.721L144.64 187.105L145.989 190.112C147.737 189.818 149.39 189.186 150.717 188.333C153.915 186.277 154.738 183.012 153.199 180.618C150.556 176.507 144.511 180.639 143.056 178.376C142.567 177.615 142.759 176.384 143.978 175.601C144.826 175.055 146.223 174.741 147.685 174.816L148.009 174.362L146.851 171.509C145.174 171.818 143.822 172.441 142.843 173.071Z" fill="#6065FC"/>
<path d="M157.886 165.368C153.2 167.32 151.736 171.352 153.867 176.468C155.948 181.465 159.566 183.213 164.157 181.302C165.496 180.744 166.629 179.963 167.634 178.872L166.752 176.012L166.395 175.965C165.636 177.038 164.48 177.968 163.285 178.466C160.75 179.522 158.651 178.32 157.137 174.686C155.723 171.291 156.371 169.141 158.858 168.106C160.077 167.598 161.442 167.506 162.653 167.787L162.866 167.558L162.315 164.618C160.918 164.498 159.416 164.731 157.886 165.368Z" fill="#6065FC"/>
<path d="M183.116 171.089L181.421 159.817L177.872 160.417L179.143 167.163L175.708 167.822L172.171 168.341L171.155 161.552L167.631 162.147L169.76 173.66L170.41 178.594L173.883 178.007L172.849 172.823L172.607 171.236L175.94 170.594L179.677 170.015L180.026 171.926L180.65 176.864L184.149 176.273L183.116 171.089Z" fill="#6065FC"/>
<path d="M196.023 160.071C190.998 159.555 187.842 162.408 187.268 167.999C186.723 173.306 189.039 176.616 193.703 177.095C198.701 177.608 201.891 174.681 202.476 168.987C203.01 163.782 200.686 160.549 196.023 160.071ZM195.423 162.873C198.205 163.159 199.195 164.927 198.746 169.307C198.341 173.249 196.995 174.699 194.264 174.418C191.481 174.133 190.494 172.339 190.948 167.908C191.345 164.043 192.691 162.593 195.423 162.873Z" fill="#6065FC"/>
<path d="M216.046 164.88C211.316 163.108 207.54 165.068 205.569 170.332C203.698 175.328 205.1 179.117 209.49 180.761C214.195 182.523 218.023 180.499 220.03 175.139C221.865 170.239 220.436 166.524 216.046 164.88ZM214.755 167.439C217.375 168.42 217.885 170.381 216.341 174.504C214.951 178.215 213.282 179.277 210.71 178.314C208.091 177.333 207.59 175.348 209.152 171.176C210.515 167.538 212.184 166.476 214.755 167.439Z" fill="#6065FC"/>
<path d="M228.117 187.172L228.087 186.821L223.296 183.932L224.46 181.851L230.522 172.199L227.462 170.353L221.572 180.472L218.848 184.637L226.567 189.291L228.117 187.172Z" fill="#6065FC"/>
</svg>
