<svg width="172" height="223" viewBox="0 0 172 223" fill="none" xmlns="http://www.w3.org/2000/svg">
<path d="M42 28.4801C40.7061 28.4929 39.5341 28.5 38.5 28.5C23.5 28.5 5.5 37 3.5 59C2.80412 66.6547 2.59249 87.7473 2.61237 112C2.63068 134.328 2.84522 159.335 3.05877 179M42 28.4801V20C41.5996 17.7472 42.0654 16.9064 45.5 17H64M42 28.4801C59.0971 28.3112 97.4853 27.1549 120.5 28.4132M120.5 28.4132C121.008 28.4409 121.508 28.4699 122 28.5C146.5 30 155 39.5 157 59C157.094 59.9182 157.179 61.0936 157.257 62.5C157.649 69.6641 157.828 82.8211 157.875 98.5C157.876 98.8322 157.877 99.1656 157.878 99.5M120.5 28.4132V20C120.274 17.8846 119.626 17.215 117.5 17H98.5M98.5 17V16.2851C98.5 15.1028 98.3094 13.9282 97.9355 12.8065L97.6072 11.8215C96.8869 9.66057 95.5135 7.77655 93.6766 6.42954L91.9039 5.12954C90.0172 3.74597 87.7386 3 85.3989 3H76.3045C73.8398 3 71.4465 3.82775 69.5085 5.3505L68.4619 6.17276C66.542 7.68126 65.1786 9.78564 64.5864 12.1544L64.3284 13.1863C64.1103 14.0588 64 14.9548 64 15.8542V17M98.5 17H64M159.5 63H166.5C168.172 63.1633 168.645 63.6672 169 65V96C168.73 98.3173 168.076 98.9402 166.5 99.5H157.878M157.878 99.5C158.002 146.086 157 214 157 214C156.79 218.144 155.471 219.431 152 220.5H11C5.62754 220.379 4.29754 218.647 3.5 214C3.5 214 3.27991 199.364 3.05877 179M2.5 112.5H156M2.5 124H156M3.05877 179H157M113 137C115.158 137.182 115.817 137.727 116 139.5V163C115.469 165.432 114.781 166.147 113 166.5H20C18.8251 166.14 18.5359 165.307 18.5 163V142.5C18.3315 138.872 18.8545 137.52 21.5 137H113ZM50 188H113C115.18 189.14 115.801 190.379 116 193.5V206.5C115.495 208.734 114.213 209.86 113 210H49C46.5897 209.357 45.3064 208.939 45 206.5V193.5C45.4328 190.714 46.1881 189.367 50 188ZM129.5 162.5V140C129.665 137.889 130.305 137.339 132 137H141.5C143.367 137.272 144.081 137.761 144 140V162C144.041 165.009 143.388 165.735 141.5 166H132C130.071 165.857 129.533 165.082 129.5 162.5Z" stroke="#F8EEEE" stroke-width="5"/>
<path d="M91.5 50H80.75H70C68.8954 50 68 50.8954 68 52V95C68 96.1046 68.8954 97 70 97H91.5C92.6046 97 93.5 96.1046 93.5 95V52C93.5 50.8954 92.6046 50 91.5 50Z" stroke="#F8EEEE" stroke-width="5"/>
<path d="M130 50H119.25H108.5C107.395 50 106.5 50.8954 106.5 52V95C106.5 96.1046 107.395 97 108.5 97H130C131.105 97 132 96.1046 132 95V52C132 50.8954 131.105 50 130 50Z" stroke="#F8EEEE" stroke-width="5"/>
<path d="M53.5 50H42.75H32C30.8954 50 30 50.8954 30 52V95C30 96.1046 30.8954 97 32 97H53.5C54.6046 97 55.5 96.1046 55.5 95V52C55.5 50.8954 54.6046 50 53.5 50Z" stroke="#F8EEEE" stroke-width="5"/>
</svg>
