<svg width="29" height="28" viewBox="0 0 29 28" xmlns="http://www.w3.org/2000/svg">
<path d="M14.2068 12.8061C15.1434 12.8061 16.0589 12.533 16.8377 12.0213C17.6165 11.5096 18.2234 10.7823 18.5819 9.9314C18.9403 9.08049 19.0341 8.14416 18.8513 7.24084C18.6686 6.33751 18.2176 5.50775 17.5553 4.85649C16.893 4.20523 16.0492 3.76172 15.1306 3.58203C14.212 3.40235 13.2599 3.49457 12.3945 3.84703C11.5292 4.19949 10.7896 4.79636 10.2693 5.56216C9.74893 6.32797 9.47119 7.22831 9.47119 8.14933C9.47119 9.38438 9.97012 10.5689 10.8582 11.4422C11.7463 12.3155 12.9508 12.8061 14.2068 12.8061Z"/>
<path d="M21.3101 24.4481C21.624 24.4481 21.9252 24.3254 22.1472 24.1071C22.3692 23.8888 22.4939 23.5926 22.4939 23.2839C22.4939 21.1225 21.6208 19.0497 20.0667 17.5214C18.5125 15.9931 16.4046 15.1345 14.2067 15.1345C12.0088 15.1345 9.90088 15.9931 8.34671 17.5214C6.79255 19.0497 5.91943 21.1225 5.91943 23.2839C5.91943 23.5926 6.04417 23.8888 6.26619 24.1071C6.48821 24.3254 6.78934 24.4481 7.10333 24.4481H21.3101Z"/>
</svg>
