<svg width="31" height="35" viewBox="0 0 31 35" fill="none" xmlns="http://www.w3.org/2000/svg">
    <rect x="0.5" y="4.5" width="29" height="29" rx="14.5" stroke="#000000" />
    <path
        d="M15.5269 16.4764C16.3597 16.4764 17.1738 16.2363 17.8662 15.7866C18.5586 15.3367 19.0983 14.6975 19.4169 13.9494C19.7357 13.2015 19.819 12.3784 19.6565 11.5844C19.4941 10.7903 19.0931 10.061 18.5042 9.48849C17.9154 8.91601 17.1651 8.52615 16.3483 8.36821C15.5316 8.21026 14.685 8.29132 13.9156 8.60114C13.1462 8.91096 12.4886 9.43564 12.026 10.1088C11.5633 10.782 11.3164 11.5734 11.3164 12.383C11.3164 13.4687 11.76 14.5098 12.5497 15.2775C13.3393 16.0451 14.4103 16.4764 15.5269 16.4764Z"
        fill="#000000" />
    <path
        d="M21.8404 26.7104C22.1197 26.7104 22.3874 26.6026 22.5848 26.4107C22.7822 26.2188 22.8931 25.9584 22.8931 25.687C22.8931 23.7871 22.1168 21.9651 20.735 20.6217C19.3531 19.2782 17.4789 18.5234 15.5246 18.5234C13.5704 18.5234 11.6963 19.2782 10.3144 20.6217C8.93257 21.9651 8.15625 23.7871 8.15625 25.687C8.15625 25.9584 8.26715 26.2188 8.46456 26.4107C8.66197 26.6026 8.9297 26.7104 9.20888 26.7104H21.8404Z"
        fill="#000000" />
</svg>