<svg width="56" height="55" viewBox="0 0 56 55" fill="none" xmlns="http://www.w3.org/2000/svg">
<g clip-path="url(#clip0)">
<path d="M14.8514 35.6938C14.0652 35.0726 13.0799 34.7305 12.077 34.7305C10.714 34.7305 9.4448 35.3361 8.59469 36.3923C7.85135 37.3168 7.51479 38.4736 7.64745 39.6491C7.78028 40.8271 8.36795 41.8823 9.30198 42.6206C10.0881 43.2419 11.0731 43.584 12.0758 43.584C13.4398 43.584 14.7093 42.9773 15.5587 41.92C16.3013 40.997 16.6376 39.8416 16.5054 38.6666C16.3729 37.4886 15.7856 36.4327 14.8514 35.6938ZM13.9761 40.6477C13.5138 41.2234 12.821 41.5537 12.0758 41.5537C11.5203 41.5537 10.9965 41.3718 10.5612 41.0278C10.0551 40.6278 9.73702 40.0574 9.66511 39.4215C9.5937 38.7881 9.77543 38.1641 10.1766 37.6652C10.6391 37.0906 11.3318 36.761 12.077 36.761C12.633 36.761 13.1571 36.9429 13.5921 37.2867C14.0981 37.6867 14.416 38.2575 14.4876 38.8937C14.5588 39.5266 14.3774 40.1492 13.9761 40.6477Z" fill="black"/>
<path d="M32.706 25.2957C33.3757 25.2957 34.0233 25.1489 34.6323 24.8588C35.7088 24.3437 36.5175 23.4426 36.9088 22.3215C37.2982 21.2074 37.2281 20.0085 36.7121 18.9467C35.9738 17.4249 34.3971 16.4414 32.6953 16.4414C32.0243 16.4414 31.3753 16.5886 30.7665 16.8792C29.6903 17.3925 28.8814 18.2929 28.4893 19.4144C28.0993 20.5293 28.1692 21.7284 28.6861 22.7907C29.4267 24.3124 31.0046 25.2957 32.706 25.2957ZM30.4058 20.0847C30.618 19.478 31.0566 18.9904 31.6407 18.7117C31.9743 18.5526 32.329 18.4719 32.6952 18.4719C33.6243 18.4719 34.4839 19.0061 34.8853 19.8337C35.1636 20.4063 35.2014 21.0519 34.9919 21.6519C34.7798 22.2588 34.3407 22.7472 33.7573 23.0264C33.4248 23.1849 33.071 23.2651 32.7058 23.2651C31.7759 23.2651 30.9146 22.7301 30.5115 21.9022C30.2335 21.3304 30.1959 20.685 30.4058 20.0847Z" fill="black"/>
<path d="M21.6566 18.1203C21.9831 18.1941 22.3173 18.2315 22.6498 18.2315C24.7399 18.2315 26.5256 16.8179 26.9926 14.7919C27.255 13.6432 27.0532 12.4606 26.4247 11.4615C25.791 10.4547 24.8006 9.75489 23.6368 9.49126C23.3089 9.41681 22.9733 9.37891 22.6393 9.37891C20.5506 9.37891 18.7668 10.794 18.3013 12.8196C18.0366 13.9675 18.2372 15.1503 18.8658 16.15C19.5 17.1582 20.4914 17.858 21.6566 18.1203ZM20.2802 13.2751C20.5325 12.1768 21.5027 11.4096 22.6393 11.4096C22.8219 11.4096 23.0062 11.4304 23.1874 11.4715C23.8223 11.6154 24.3615 11.9959 24.7061 12.5431C25.0455 13.0824 25.1545 13.7203 25.0133 14.3376C24.7644 15.4173 23.7703 16.2009 22.6496 16.2009C22.4676 16.2009 22.284 16.1803 22.1033 16.1395C21.4682 15.9965 20.929 15.6163 20.5846 15.0691C20.2459 14.5302 20.1377 13.8933 20.2802 13.2751Z" fill="black"/>
<path d="M13.5905 20.6531C14.5235 19.9138 15.1102 18.8578 15.2428 17.6796C15.375 16.5049 15.0394 15.3495 14.2964 14.4248C13.445 13.3691 12.1747 12.7637 10.8117 12.7637C9.80982 12.7637 8.82553 13.1048 8.03921 13.725C7.10602 14.462 6.51903 15.5164 6.38586 16.6937C6.25286 17.8699 6.58925 19.0273 7.33361 19.9536C8.18439 21.0105 9.45482 21.6167 10.8193 21.6167C11.8221 21.6166 12.8064 21.2744 13.5905 20.6531ZM8.91606 18.6806C8.51401 18.1804 8.33211 17.5557 8.40386 16.9215C8.4756 16.2865 8.79338 15.7169 9.29763 15.3184C9.73266 14.9752 10.2564 14.7939 10.8119 14.7939C11.5578 14.7939 12.252 15.1238 12.7148 15.6976C13.115 16.1961 13.2964 16.8193 13.2252 17.4523C13.1536 18.0892 12.8355 18.6608 12.3297 19.0615C11.8967 19.4045 11.3743 19.5859 10.8195 19.5859C10.0728 19.586 9.37902 19.2557 8.91606 18.6806Z" fill="black"/>
<path d="M55.1117 10.718C54.9362 10.541 54.6231 10.33 54.1292 10.33C53.55 10.33 52.0114 10.33 42.6669 18.2815C42.4791 18.4413 42.2896 18.6032 42.0994 18.7663C40.4298 14.411 37.4964 10.5282 33.7164 7.71961C29.3823 4.49937 24.2214 2.79628 18.7921 2.79492C18.7904 2.79492 18.7892 2.79492 18.7879 2.79492C15.1238 2.79492 10.6699 4.07516 7.16366 6.13665C2.86572 8.66329 0.499154 12.0424 0.5 15.6512C0.501354 20.008 2.95862 21.8304 4.93313 23.2945C6.54316 24.4886 7.81478 25.4317 7.81545 27.4984C7.81596 29.5649 6.54502 30.5071 4.93584 31.7C2.962 33.1634 0.505246 34.9847 0.506599 39.3421C0.507615 42.9503 2.87571 46.3303 7.17449 48.8591C10.6832 50.9231 15.1395 52.2061 18.8043 52.2071C18.8068 52.2071 18.809 52.2071 18.8114 52.2071C25.4622 52.2071 31.7143 49.64 36.4167 44.9784C41.0591 40.3764 43.6411 34.2766 43.7089 27.7764C45.2853 25.9826 46.8124 24.1996 48.2065 22.5196C50.5917 19.6454 52.4258 17.2737 53.6578 15.4708C55.29 13.0827 56.0047 11.618 55.1117 10.718ZM34.9874 43.5364C30.6676 47.8188 24.9236 50.1766 18.8116 50.1766C18.8097 50.1766 18.807 50.1766 18.8051 50.1766C12.2555 50.1747 2.53898 45.6243 2.53712 39.3414C2.5361 36.0068 4.28912 34.7071 6.14518 33.3311C7.88009 32.0447 9.84648 30.5868 9.8458 27.4977C9.84479 24.4091 7.87789 22.9504 6.14247 21.6635C4.28556 20.2863 2.53153 18.9856 2.53052 15.6506C2.52967 11.7925 6.07767 9.13048 8.19279 7.88696C11.3567 6.02683 15.515 4.82527 18.7879 4.82527C18.7891 4.82527 18.7904 4.82527 18.7914 4.82527C23.7816 4.82663 28.5239 6.39114 32.5056 9.34927C36.1777 12.0778 38.9809 15.908 40.4574 20.187C36.0537 24.0321 31.285 28.4654 27.7337 32.0283C21.8352 32.7918 21.0316 36.7229 20.4441 39.6108C19.9439 42.0697 19.6192 43.2586 17.7212 43.4109C17.2535 43.4485 16.8726 43.8014 16.7997 44.2649C16.7266 44.7282 16.9805 45.1813 17.4141 45.3609C17.5361 45.4113 20.439 46.5975 23.8307 46.5976C23.8312 46.5976 23.8315 46.5976 23.8318 46.5976C26.1954 46.5976 28.2228 46.0247 29.8578 44.8949C31.8724 43.5026 33.2384 41.2953 33.9249 38.3351C36.2453 35.9875 38.8966 33.1566 41.5183 30.2406C40.9149 35.2611 38.6494 39.9062 34.9874 43.5364ZM31.8851 38.1429C30.8092 42.4063 28.1022 44.5674 23.8317 44.5673C23.8317 44.5673 23.831 44.5673 23.8307 44.5673C22.7046 44.5673 21.6262 44.4136 20.7196 44.2221C21.8025 43.1176 22.1408 41.4557 22.4337 40.0159C22.9916 37.2733 23.5191 34.6778 27.8354 34.0612L31.8851 38.1429ZM45.9051 22.1085C41.8805 26.9034 37.0089 32.288 32.9986 36.3821L32.3778 35.7563L29.6385 32.9953C33.2744 29.3759 37.9389 25.0602 42.2908 21.2833C42.7981 20.843 43.3022 20.4083 43.799 19.9846C48.8494 15.6774 51.4961 13.8029 52.8463 12.9871C52.04 14.3454 50.1827 17.0123 45.9051 22.1085Z" fill="black"/>
</g>
<defs>
<clipPath id="clip0">
<rect width="55" height="55" fill="white" transform="translate(0.5)"/>
</clipPath>
</defs>
</svg>
