<svg width="56" height="55" viewBox="0 0 56 55" xmlns="http://www.w3.org/2000/svg">
<path d="M42.6083 5.15632C41.0454 5.15722 39.5 5.48458 38.0709 6.11742C36.7849 4.73007 35.2263 3.62326 33.4926 2.86635C31.7589 2.10944 29.8876 1.71875 27.9959 1.71875C26.1042 1.71875 24.2329 2.10944 22.4992 2.86635C20.7655 3.62326 19.2069 4.73007 17.9209 6.11742C16.5105 5.49192 14.9859 5.1653 13.4431 5.15815C11.9002 5.151 10.3726 5.46347 8.95655 6.07587C7.54045 6.68828 6.26654 7.58734 5.21509 8.71641C4.16363 9.84548 3.35742 11.1801 2.84725 12.6361C2.33707 14.0922 2.134 15.6381 2.25083 17.1765C2.36765 18.7149 2.80184 20.2125 3.52603 21.5748C4.25022 22.9371 5.24872 24.1347 6.45862 25.092C7.66851 26.0494 9.06358 26.7458 10.5559 27.1373L13.3896 43.9004V52.4219C13.3896 52.6499 13.4801 52.8685 13.6413 53.0296C13.8025 53.1908 14.021 53.2813 14.249 53.2813H41.749C41.9769 53.2813 42.1955 53.1908 42.3566 53.0296C42.5178 52.8685 42.6083 52.6499 42.6083 52.4219V43.9004L45.442 27.1373C48.0687 26.4482 50.3546 24.826 51.8722 22.574C53.3899 20.322 54.0354 17.5944 53.6882 14.9011C53.341 12.2078 52.0248 9.73307 49.9856 7.93963C47.9465 6.14618 45.324 5.15676 42.6083 5.15632ZM40.8896 51.5626H15.1083V44.6876H40.8896V51.5626ZM44.5173 25.5886C44.3476 25.6234 44.1923 25.7087 44.0719 25.8333C43.9515 25.9579 43.8716 26.116 43.8426 26.2868L41.0227 42.9688H35.7969L36.5905 31.8582H36.5896C36.5911 31.8379 36.5927 31.8177 36.5927 31.7971C36.5899 31.5764 36.5022 31.3653 36.3479 31.2074C36.1936 31.0496 35.9846 30.9572 35.764 30.9494C35.5434 30.9415 35.3283 31.0188 35.1632 31.1652C34.9981 31.3117 34.8956 31.516 34.8771 31.7359H34.8762L34.0738 42.9688H28.8583V33.5157C28.8583 33.2878 28.7678 33.0692 28.6066 32.908C28.4455 32.7469 28.2269 32.6563 27.999 32.6563C27.771 32.6563 27.5525 32.7469 27.3913 32.908C27.2301 33.0692 27.1396 33.2878 27.1396 33.5157V42.9688H21.9241L21.1217 31.7357H21.1208C21.1023 31.5158 20.9998 31.3114 20.8347 31.165C20.6696 31.0186 20.4544 30.9413 20.2339 30.9492C20.0133 30.957 19.8042 31.0495 19.65 31.2073C19.4957 31.3651 19.408 31.5763 19.4052 31.7969C19.4052 31.8176 19.4068 31.8378 19.4083 31.8581H19.4075L20.201 42.9688H14.9752L12.1553 26.2872C12.1264 26.1163 12.0464 25.9582 11.926 25.8336C11.8056 25.709 11.6503 25.6237 11.4806 25.5889C9.72933 25.2281 8.11631 24.378 6.82873 23.1373C5.54115 21.8966 4.6318 20.3162 4.20622 18.5796C3.78064 16.8429 3.85628 15.0211 4.42437 13.3257C4.99245 11.6303 6.02968 10.1308 7.41568 9.00109C8.80168 7.87142 10.4796 7.15797 12.2548 6.94352C14.0299 6.72908 15.8295 7.02244 17.4446 7.78955C19.0598 8.55666 20.4243 9.76608 21.3797 11.2774C22.3352 12.7888 22.8425 14.5401 22.8427 16.3282C22.8427 16.5561 22.9333 16.7747 23.0944 16.9359C23.2556 17.097 23.4742 17.1876 23.7021 17.1876C23.93 17.1876 24.1486 17.097 24.3098 16.9359C24.4709 16.7747 24.5615 16.5561 24.5615 16.3282C24.5607 14.4691 24.096 12.6395 23.2095 11.0054C22.323 9.37127 21.0426 7.98424 19.4845 6.97003C20.9714 5.48036 22.8229 4.40674 24.8544 3.85634C26.8859 3.30594 29.0262 3.29802 31.0617 3.83336C33.0973 4.36871 34.9567 5.42859 36.4546 6.90722C37.9524 8.38585 39.0363 10.2315 39.5978 12.2599C39.6266 12.3701 39.677 12.4734 39.746 12.5639C39.8151 12.6544 39.9014 12.7303 40.0001 12.7872C40.0987 12.8441 40.2076 12.8808 40.3206 12.8952C40.4335 12.9096 40.5482 12.9014 40.6579 12.8711C40.7677 12.8408 40.8703 12.789 40.9599 12.7188C41.0494 12.6485 41.1241 12.5611 41.1796 12.4617C41.2351 12.3623 41.2703 12.2528 41.2832 12.1397C41.296 12.0266 41.2863 11.912 41.2545 11.8027C40.8285 10.2615 40.1347 8.80732 39.2049 7.5065C40.2902 7.0862 41.4445 6.87207 42.6083 6.87507C44.9495 6.87522 47.2074 7.74404 48.9448 9.31332C50.6822 10.8826 51.7755 13.0407 52.0131 15.3698C52.2507 17.6989 51.6157 20.0333 50.2309 21.9211C48.8462 23.8089 46.8103 25.1157 44.5173 25.5886Z" fill="black"/>
</svg>
