<svg width="55" height="55" viewBox="0 0 55 55" xmlns="http://www.w3.org/2000/svg">
<path d="M30.7227 25.7812C30.1295 25.7812 29.6484 26.2623 29.6484 26.8555C29.6484 28.0401 28.6846 29.0039 27.5 29.0039C26.3154 29.0039 25.3516 28.0401 25.3516 26.8555C25.3516 26.2623 24.8705 25.7812 24.2773 25.7812C23.6842 25.7812 23.2031 26.2623 23.2031 26.8555C23.2031 29.2248 25.1307 31.1523 27.5 31.1523C29.8693 31.1523 31.7969 29.2248 31.7969 26.8555C31.7969 26.2623 31.3158 25.7812 30.7227 25.7812Z" fill="black"/>
<path d="M36.0938 55C36.687 55 37.168 54.5191 37.168 53.9258C37.168 53.3325 36.687 52.8516 36.0938 52.8516C35.5005 52.8516 35.0195 53.3325 35.0195 53.9258C35.0195 54.5191 35.5005 55 36.0938 55Z" fill="black"/>
<path d="M38.201 27.8041C40.0731 27.3405 41.4648 25.6461 41.4648 23.6328V13.9648C41.4648 9.81857 38.0916 6.44531 33.9453 6.44531H27.022C26.0675 6.44531 25.223 5.90981 24.9679 5.14228C23.9435 2.06647 21.0757 0 17.832 0C13.2302 0 9.65637 4.10975 10.4146 8.7739C10.9227 11.8948 13.5147 14.3481 16.7578 14.9153V19.4719C14.9066 19.9501 13.5352 21.6343 13.5352 23.6328C13.5352 25.6463 14.9275 27.341 16.7998 27.8043C17.143 31.673 19.5665 35.0767 23.1137 36.6643C22.7984 37.8568 21.7175 38.6719 20.5047 38.6719H17.832C13.6858 38.6719 10.3125 42.0451 10.3125 46.1914V53.9258C10.3125 54.519 10.7935 55 11.3867 55H31.2598C31.8529 55 32.334 54.519 32.334 53.9258C32.334 53.3326 31.8529 52.8516 31.2598 52.8516H28.5742V46.6365L34.3922 40.8185C34.4266 40.8192 34.4609 40.8203 34.4953 40.8203H37.168C40.1296 40.8203 42.5391 43.2298 42.5391 46.1914V52.8516H40.9277C40.3346 52.8516 39.8535 53.3326 39.8535 53.9258C39.8535 54.519 40.3346 55 40.9277 55H43.6133C44.2065 55 44.6875 54.519 44.6875 53.9258V46.1914C44.6875 42.0451 41.3142 38.6719 37.168 38.6719H34.4953C33.234 38.6719 32.1935 37.8065 31.8878 36.6641C35.3857 35.102 37.859 31.7305 38.201 27.8041ZM12.5351 8.42897C11.9757 4.98706 14.634 2.14844 17.832 2.14844C20.1492 2.14844 22.1979 3.62441 22.9293 5.82065C23.4807 7.47936 25.1255 8.59375 27.022 8.59375H33.9453C36.9069 8.59375 39.3164 11.0032 39.3164 13.9648V19.9126C38.684 19.5459 37.95 19.3359 37.168 19.3359C35.9833 19.3359 35.0195 18.4068 35.0195 17.2648V17.2332C35.0442 14.8424 33.1179 12.8906 30.7227 12.8906H18.1769C15.4118 12.8906 12.9564 11.016 12.5351 8.42897ZM12.4609 52.8516V46.1914C12.4609 43.2298 14.8704 40.8203 17.832 40.8203C17.832 40.8203 20.5734 40.8192 20.6078 40.8185L26.4258 46.6365V52.8516H12.4609ZM30.3646 34.9607C29.9354 35.1123 29.6484 35.5181 29.6484 35.9734C29.6484 37.7189 30.5985 39.2878 32.0301 40.1422L27.5 44.6721L22.9714 40.1436C24.4187 39.2894 25.3516 37.7214 25.3516 35.9734C25.3516 35.5182 25.0646 35.1123 24.6354 34.9607C21.2086 33.7491 18.9062 30.4919 18.9062 26.8555C18.9062 26.2623 18.4252 25.7812 17.832 25.7812C16.6474 25.7812 15.6836 24.8175 15.6836 23.6328C15.6836 22.4482 16.6474 21.4844 17.832 21.4844C18.4252 21.4844 18.9062 21.0033 18.9062 20.4102V15.0391H30.7227C31.9179 15.0391 32.8856 16.0131 32.8712 17.2145C32.8711 17.2187 32.8711 17.2229 32.8711 17.2272V17.2648C32.8711 19.5915 34.7987 21.4844 37.168 21.4844C38.3526 21.4844 39.3164 22.4482 39.3164 23.6328C39.3164 24.8175 38.3526 25.7812 37.168 25.7812C36.5748 25.7812 36.0938 26.2623 36.0938 26.8555C36.0938 30.5999 33.7044 33.7799 30.3646 34.9607Z" fill="black"/>
</svg>
