<svg width="55" height="55" viewBox="0 0 55 55" xmlns="http://www.w3.org/2000/svg">
<path d="M46.8975 33.2199C54.4141 30.7816 54.57 21.7708 54.57 21.3949C54.57 21.1966 54.5056 21.0036 54.3866 20.8449C54.1666 20.5333 48.7491 13.3374 41.2325 15.7849C39.1594 16.4842 37.2193 17.5286 35.4941 18.8741C36.2474 16.8175 36.6442 14.6475 36.6675 12.4574C36.6675 4.55578 28.1516 1.62245 27.7941 1.50328C27.6039 1.43901 27.3978 1.43901 27.2075 1.50328C26.85 1.62245 18.3341 4.55578 18.3341 12.5033C18.3597 14.6931 18.7564 16.8628 19.5075 18.9199C17.7796 17.557 15.8332 16.4969 13.7508 15.7849C6.24331 13.3374 0.834974 20.5333 0.614974 20.8449C0.49597 21.0036 0.431641 21.1966 0.431641 21.3949C0.431641 21.7708 0.587474 30.7816 8.10414 33.2199C10.1927 33.8776 12.3785 34.1721 14.5666 34.0908C12.7492 35.3088 11.1527 36.8278 9.84581 38.5824C5.19831 44.9991 10.3683 52.3325 10.5975 52.6624C10.7079 52.8276 10.8737 52.9478 11.065 53.0016C12.5343 53.4223 14.0558 53.6321 15.5841 53.625C22.0925 53.625 25.6675 49.7291 27.5008 43.5416C29.38 49.7658 32.9366 53.625 39.4175 53.625C40.9431 53.6283 42.4616 53.4154 43.9275 52.9925C44.1187 52.9387 44.2845 52.8184 44.395 52.6533C44.6241 52.3416 49.7941 44.9716 45.1466 38.5733C43.8378 36.8235 42.2453 35.3053 40.435 34.0816C42.6225 34.1639 44.808 33.8725 46.8975 33.2199ZM27.5008 3.36411C28.8941 3.91411 34.8341 6.61828 34.8341 12.4666C34.8341 17.7558 31.8458 23.2466 28.5275 27.3349C28.3625 27.2708 28.4175 28.1599 28.4175 17.0499C28.4175 16.5437 28.0071 16.1333 27.5008 16.1333C26.9945 16.1333 26.5841 16.5437 26.5841 17.0499V26.6016C25.4717 24.9401 24.2238 23.3734 22.8533 21.9174C21.1961 19.0353 20.2737 15.7896 20.1675 12.4666C20.1675 6.63661 26.1075 3.92328 27.5008 3.36411ZM8.67247 31.4783C3.12664 29.6449 2.37497 23.1824 2.25581 21.6883C3.17247 20.5333 7.60914 15.7208 13.1733 17.5266C18.215 19.1674 22.505 23.6958 25.365 28.1324C25.2733 28.2516 26.0616 28.4441 15.5566 25.0433C15.0827 24.908 14.5865 25.1718 14.4336 25.6404C14.2807 26.109 14.5258 26.6146 14.9883 26.7849L24.0725 29.7366C22.143 30.2825 20.2632 30.9908 18.4533 31.8541C15.2113 32.5298 11.8531 32.4008 8.67247 31.4783ZM23.1925 48.2808C19.7733 53.0016 13.375 51.7091 11.9175 51.3424C11.1108 50.0683 7.90247 44.3758 11.3308 39.6641C14.4108 35.4291 20.0941 32.6883 25.1816 31.3499C25.2641 31.4783 25.6858 30.8183 19.2141 39.7283C18.9718 40.1374 19.0826 40.6639 19.4692 40.9407C19.8558 41.2175 20.3899 41.1528 20.6991 40.7916L26.3183 33.0549C26.2398 35.048 26.3287 37.0442 26.5841 39.0224C26.2408 42.3425 25.0751 45.5246 23.1925 48.2808ZM27.5008 30.7999C26.9945 30.7999 26.5841 30.3895 26.5841 29.8833C26.5841 29.377 26.9945 28.9666 27.5008 28.9666C28.0071 28.9666 28.4175 29.377 28.4175 29.8833C28.4175 30.3895 28.0071 30.7999 27.5008 30.7999ZM43.6708 39.6641C47.0991 44.3758 43.8908 50.0683 43.0841 51.3424C41.6266 51.7091 35.2283 53.0016 31.8091 48.2808C28.6925 43.9908 27.895 37.8216 28.1425 32.5416C28.2891 32.5416 27.7575 31.8358 34.2658 40.7916C34.4424 41.0898 34.772 41.2628 35.1176 41.239C35.4633 41.2151 35.766 40.9984 35.8999 40.6788C36.0339 40.3593 35.9762 39.9915 35.7508 39.7283L30.1591 31.9916C32.0538 32.6942 34.0039 33.2369 35.9891 33.6141C39.0041 34.9752 41.6411 37.0521 43.6708 39.6641ZM30.2508 30.0574C30.2508 29.9016 29.5633 30.1858 40.0041 26.7849C40.4667 26.6146 40.7117 26.109 40.5588 25.6404C40.4059 25.1718 39.9098 24.908 39.4358 25.0433L30.3516 27.9583C31.5882 26.3808 32.6919 24.7037 33.6516 22.9441C35.8843 20.4907 38.6815 18.6186 41.8008 17.4899C47.3008 15.6566 51.765 20.4966 52.7183 21.6516C52.6266 23.1549 51.8933 29.6358 46.3016 31.4416C41.3058 33.1191 35.2008 31.9824 30.2508 30.0574Z" fill="black"/>
</svg>
