<svg width="56" height="53" viewBox="0 0 56 53" xmlns="http://www.w3.org/2000/svg">
<path d="M47.3975 32.2199C54.9141 29.7816 55.07 20.7708 55.07 20.3949C55.07 20.1966 55.0056 20.0036 54.8866 19.8449C54.6666 19.5333 49.2491 12.3374 41.7325 14.7849C39.6594 15.4842 37.7193 16.5286 35.9941 17.8741C36.7474 15.8175 37.1442 13.6475 37.1675 11.4574C37.1675 3.55578 28.6516 0.622445 28.2941 0.503279C28.1039 0.439011 27.8978 0.439011 27.7075 0.503279C27.35 0.622445 18.8341 3.55578 18.8341 11.5033C18.8597 13.6931 19.2564 15.8628 20.0075 17.9199C18.2796 16.557 16.3332 15.4969 14.2508 14.7849C6.74331 12.3374 1.33497 19.5333 1.11497 19.8449C0.99597 20.0036 0.931641 20.1966 0.931641 20.3949C0.931641 20.7708 1.08747 29.7816 8.60414 32.2199C10.6927 32.8776 12.8785 33.1721 15.0666 33.0908C13.2492 34.3088 11.6527 35.8278 10.3458 37.5824C5.69831 43.9991 10.8683 51.3325 11.0975 51.6624C11.2079 51.8276 11.3737 51.9478 11.565 52.0016C13.0343 52.4223 14.5558 52.6321 16.0841 52.625C22.5925 52.625 26.1675 48.7291 28.0008 42.5416C29.88 48.7658 33.4366 52.625 39.9175 52.625C41.4431 52.6283 42.9616 52.4154 44.4275 51.9925C44.6187 51.9387 44.7845 51.8184 44.895 51.6533C45.1241 51.3416 50.2941 43.9716 45.6466 37.5733C44.3378 35.8235 42.7453 34.3053 40.935 33.0816C43.1225 33.1639 45.308 32.8725 47.3975 32.2199ZM28.0008 2.36411C29.3941 2.91411 35.3341 5.61828 35.3341 11.4666C35.3341 16.7558 32.3458 22.2466 29.0275 26.3349C28.8625 26.2708 28.9175 27.1599 28.9175 16.0499C28.9175 15.5437 28.5071 15.1333 28.0008 15.1333C27.4945 15.1333 27.0841 15.5437 27.0841 16.0499V25.6016C25.9717 23.9401 24.7238 22.3734 23.3533 20.9174C21.6961 18.0353 20.7737 14.7896 20.6675 11.4666C20.6675 5.63661 26.6075 2.92328 28.0008 2.36411ZM9.17247 30.4783C3.62664 28.6449 2.87497 22.1824 2.75581 20.6883C3.67247 19.5333 8.10914 14.7208 13.6733 16.5266C18.715 18.1674 23.005 22.6958 25.865 27.1324C25.7733 27.2516 26.5616 27.4441 16.0566 24.0433C15.5827 23.908 15.0865 24.1718 14.9336 24.6404C14.7807 25.109 15.0258 25.6146 15.4883 25.7849L24.5725 28.7366C22.643 29.2825 20.7632 29.9908 18.9533 30.8541C15.7113 31.5298 12.3531 31.4008 9.17247 30.4783ZM23.6925 47.2808C20.2733 52.0016 13.875 50.7091 12.4175 50.3424C11.6108 49.0683 8.40247 43.3758 11.8308 38.6641C14.9108 34.4291 20.5941 31.6883 25.6816 30.3499C25.7641 30.4783 26.1858 29.8183 19.7141 38.7283C19.4718 39.1374 19.5826 39.6639 19.9692 39.9407C20.3558 40.2175 20.8899 40.1528 21.1991 39.7916L26.8183 32.0549C26.7398 34.048 26.8287 36.0442 27.0841 38.0224C26.7408 41.3425 25.5751 44.5246 23.6925 47.2808ZM28.0008 29.7999C27.4945 29.7999 27.0841 29.3895 27.0841 28.8833C27.0841 28.377 27.4945 27.9666 28.0008 27.9666C28.5071 27.9666 28.9175 28.377 28.9175 28.8833C28.9175 29.3895 28.5071 29.7999 28.0008 29.7999ZM44.1708 38.6641C47.5991 43.3758 44.3908 49.0683 43.5841 50.3424C42.1266 50.7091 35.7283 52.0016 32.3091 47.2808C29.1925 42.9908 28.395 36.8216 28.6425 31.5416C28.7891 31.5416 28.2575 30.8358 34.7658 39.7916C34.9424 40.0898 35.272 40.2628 35.6176 40.239C35.9633 40.2151 36.266 39.9984 36.3999 39.6788C36.5339 39.3593 36.4762 38.9915 36.2508 38.7283L30.6591 30.9916C32.5538 31.6942 34.5039 32.2369 36.4891 32.6141C39.5041 33.9752 42.1411 36.0521 44.1708 38.6641ZM30.7508 29.0574C30.7508 28.9016 30.0633 29.1858 40.5041 25.7849C40.9667 25.6146 41.2117 25.109 41.0588 24.6404C40.9059 24.1718 40.4098 23.908 39.9358 24.0433L30.8516 26.9583C32.0882 25.3808 33.1919 23.7037 34.1516 21.9441C36.3843 19.4907 39.1815 17.6186 42.3008 16.4899C47.8008 14.6566 52.265 19.4966 53.2183 20.6516C53.1266 22.1549 52.3933 28.6358 46.8016 30.4416C41.8058 32.1191 35.7008 30.9824 30.7508 29.0574Z" fill="black"/>
</svg>
