<svg width="56" height="55" viewBox="0 0 56 55" fill="none" xmlns="http://www.w3.org/2000/svg">
<g clip-path="url(#clip0)">
<path d="M52.75 36.6667H50C53.3168 28.706 52.0743 19.5745 46.7512 12.7894C41.428 6.00429 32.8547 2.62413 24.3333 3.95083V2.75C24.3333 1.23122 23.1021 0 21.5833 0H3.25C1.73122 0 0.5 1.23122 0.5 2.75V15.5833C0.5 17.1021 1.73122 18.3333 3.25 18.3333H6C2.68324 26.294 3.92571 35.4255 9.24885 42.2106C14.572 48.9957 23.1453 52.3759 31.6667 51.0492V52.25C31.6667 53.7688 32.8979 55 34.4167 55H52.75C54.2688 55 55.5 53.7688 55.5 52.25V39.4167C55.5 37.8979 54.2688 36.6667 52.75 36.6667ZM48.0933 36.6667H40.1825L35.9017 33.9992C36.3325 33.9167 35.3333 33.9167 49.0283 33.9167C48.3408 36.1808 48.0933 36.2175 48.0933 36.6667ZM49.8167 24.75H39.7333C39.128 24.7476 38.5484 24.5048 38.122 24.075C37.6957 23.6452 37.4576 23.0637 37.46 22.4583C37.46 21.3611 37.0229 20.3091 36.2453 19.535C35.4678 18.7609 34.4139 18.3285 33.3167 18.3333H32.2533C30.9877 18.3333 29.9617 17.3073 29.9617 16.0417C29.9617 14.776 30.9877 13.75 32.2533 13.75H37.57C39.6075 13.7423 41.3299 12.2387 41.6125 10.2208C46.1651 13.7848 49.1161 19.0109 49.8167 24.75ZM2.33333 15.5833V2.75C2.33333 2.24374 2.74374 1.83333 3.25 1.83333H21.5833C22.0896 1.83333 22.5 2.24374 22.5 2.75V20.35L16.5692 16.6375C16.2483 16.4358 17.2108 16.5 3.25 16.5C3.00688 16.5 2.77373 16.4034 2.60182 16.2315C2.42991 16.0596 2.33333 15.8264 2.33333 15.5833ZM7.90667 18.3333H15.8175L20.08 21.0008C19.6492 21.12 19.8508 21.0833 15.24 21.0833C12.9618 21.0833 11.115 22.9302 11.115 25.2083C11.115 27.4865 12.9618 29.3333 15.24 29.3333H23.7467C25.0123 29.3333 26.0383 30.3593 26.0383 31.625C26.0383 32.8907 25.0123 33.9167 23.7467 33.9167H6.97167C4.31333 25.2175 7.90667 18.9292 7.90667 18.3333ZM7.61333 35.75H23.7467C26.0248 35.75 27.8717 33.9032 27.8717 31.625C27.8717 29.3468 26.0248 27.5 23.7467 27.5H15.24C13.9743 27.5 12.9483 26.474 12.9483 25.2083C12.9483 23.9427 13.9743 22.9167 15.24 22.9167H19.4933C20.3539 22.9368 21.1932 22.6473 21.8583 22.1008C22.9858 22.8158 23.0775 22.9167 23.4167 22.9167C23.9229 22.9167 24.3333 22.5063 24.3333 22V5.81167C29.7452 4.88145 35.309 6.02365 39.9167 9.01083C39.8802 9.21352 39.8618 9.41905 39.8617 9.625C39.8641 10.2335 39.6235 10.8179 39.1932 11.2482C38.7629 11.6785 38.1785 11.9191 37.57 11.9167H32.2533C29.9752 11.9167 28.1283 13.7635 28.1283 16.0417C28.1283 18.3198 29.9752 20.1667 32.2533 20.1667H33.3167C34.5752 20.1767 35.59 21.1998 35.59 22.4583C35.59 24.7294 37.4257 26.5732 39.6967 26.5833H50C50.0963 28.429 49.9422 30.2791 49.5417 32.0833H36.47C35.6206 32.0614 34.7914 32.3443 34.1325 32.8808L33.0692 32.2208C32.7863 32.044 32.4297 32.0349 32.1382 32.1969C31.8466 32.3588 31.666 32.6664 31.6667 33V37.84C31.2498 38.2609 30.6824 38.4984 30.09 38.5H24.3333C22.0552 38.6164 20.3027 40.5577 20.4192 42.8358C20.5356 45.114 22.4768 46.8664 24.755 46.75H25.8183C26.4237 46.7524 27.0033 46.9952 27.4296 47.425C27.856 47.8548 28.0941 48.4363 28.0917 49.0417V49.5C19.0964 49.5342 10.9865 44.0889 7.61333 35.75ZM29.9433 49.4083V49.0417C29.9434 46.7706 28.1077 44.9268 25.8367 44.9167H24.7733C23.5077 44.985 22.4263 44.0144 22.3579 42.7487C22.2896 41.4831 23.2602 40.4017 24.5258 40.3333H30.09C30.6318 40.3341 31.1682 40.225 31.6667 40.0125V49.1792C31.1258 49.28 30.5575 49.3625 29.9433 49.4083ZM53.6667 52.25C53.6667 52.7563 53.2563 53.1667 52.75 53.1667H34.4167C33.9104 53.1667 33.5 52.7563 33.5 52.25V34.65C40.0267 38.7383 39.55 38.5 39.9167 38.5H52.75C53.2563 38.5 53.6667 38.9104 53.6667 39.4167V52.25Z" fill="black"/>
<path d="M5.9987 5.49935H6.91536C7.42162 5.49935 7.83203 5.08894 7.83203 4.58268C7.83203 4.07642 7.42162 3.66602 6.91536 3.66602H5.9987C5.49244 3.66602 5.08203 4.07642 5.08203 4.58268C5.08203 5.08894 5.49244 5.49935 5.9987 5.49935Z" fill="black"/>
<path d="M10.5846 5.49935H18.8346C19.3409 5.49935 19.7513 5.08894 19.7513 4.58268C19.7513 4.07642 19.3409 3.66602 18.8346 3.66602H10.5846C10.0784 3.66602 9.66797 4.07642 9.66797 4.58268C9.66797 5.08894 10.0784 5.49935 10.5846 5.49935Z" fill="black"/>
<path d="M5.9987 10.0833H15.1654C15.6716 10.0833 16.082 9.67293 16.082 9.16667C16.082 8.66041 15.6716 8.25 15.1654 8.25H5.9987C5.49244 8.25 5.08203 8.66041 5.08203 9.16667C5.08203 9.67293 5.49244 10.0833 5.9987 10.0833Z" fill="black"/>
<path d="M19.7487 13.7507C19.7487 13.2444 19.3383 12.834 18.832 12.834H5.9987C5.49244 12.834 5.08203 13.2444 5.08203 13.7507C5.08203 14.2569 5.49244 14.6673 5.9987 14.6673H18.832C19.3383 14.6673 19.7487 14.2569 19.7487 13.7507Z" fill="black"/>
<path d="M50.9154 44.916H36.2487C35.7424 44.916 35.332 45.3264 35.332 45.8327C35.332 46.3389 35.7424 46.7493 36.2487 46.7493H50.9154C51.4216 46.7493 51.832 46.3389 51.832 45.8327C51.832 45.3264 51.4216 44.916 50.9154 44.916Z" fill="black"/>
<path d="M38.082 48.584H36.2487C35.7424 48.584 35.332 48.9944 35.332 49.5007C35.332 50.0069 35.7424 50.4173 36.2487 50.4173H38.082C38.5883 50.4173 38.9987 50.0069 38.9987 49.5007C38.9987 48.9944 38.5883 48.584 38.082 48.584Z" fill="black"/>
<path d="M50.9154 48.584H41.7487C41.2424 48.584 40.832 48.9944 40.832 49.5007C40.832 50.0069 41.2424 50.4173 41.7487 50.4173H50.9154C51.4216 50.4173 51.832 50.0069 51.832 49.5007C51.832 48.9944 51.4216 48.584 50.9154 48.584Z" fill="black"/>
<path d="M36.2487 43.0833H45.4154C45.9216 43.0833 46.332 42.6729 46.332 42.1667C46.332 41.6604 45.9216 41.25 45.4154 41.25H36.2487C35.7424 41.25 35.332 41.6604 35.332 42.1667C35.332 42.6729 35.7424 43.0833 36.2487 43.0833Z" fill="black"/>
</g>
<defs>
<clipPath id="clip0">
<rect width="55" height="55" fill="white" transform="translate(0.5)"/>
</clipPath>
</defs>
</svg>
