<svg width="56" height="55" viewBox="0 0 56 55" fill="none" xmlns="http://www.w3.org/2000/svg">
<path d="M27.9987 47.5674C27.8145 47.5669 27.6371 47.4981 27.5008 47.3742C26.8839 46.8242 12.3906 33.3715 12.3906 17.0944C12.3906 12.9549 14.035 8.98492 16.9621 6.05784C19.8892 3.13075 23.8592 1.48633 27.9987 1.48633C32.1383 1.48633 36.1082 3.13075 39.0353 6.05784C41.9624 8.98492 43.6068 12.9549 43.6068 17.0944C43.6068 33.3715 29.1136 46.8242 28.4967 47.3742C28.3604 47.4981 28.1829 47.5669 27.9987 47.5674ZM27.9987 2.97281C24.2534 2.97281 20.6616 4.46062 18.0132 7.10894C15.3649 9.75726 13.8771 13.3491 13.8771 17.0944C13.8771 31.0451 25.4271 43.2492 27.9987 45.7911C30.5704 43.2492 42.1204 31.0451 42.1204 17.0944C42.1204 13.3491 40.6325 9.75726 37.9842 7.10894C35.3359 4.46062 31.744 2.97281 27.9987 2.97281Z" fill="black"/>
<path d="M27.9999 25.2693C26.3829 25.2693 24.8022 24.7898 23.4577 23.8915C22.1133 22.9931 21.0654 21.7163 20.4466 20.2223C19.8278 18.7284 19.6659 17.0846 19.9813 15.4987C20.2968 13.9127 21.0754 12.456 22.2188 11.3126C23.3622 10.1692 24.819 9.39053 26.4049 9.07507C27.9908 8.75961 29.6347 8.92151 31.1286 9.54031C32.6225 10.1591 33.8994 11.207 34.7977 12.5515C35.6961 13.896 36.1756 15.4767 36.1756 17.0936C36.1756 19.262 35.3142 21.3415 33.781 22.8747C32.2477 24.408 30.1682 25.2693 27.9999 25.2693ZM27.9999 10.4045C26.6769 10.4045 25.3836 10.7968 24.2836 11.5318C23.1836 12.2668 22.3262 13.3115 21.8199 14.5338C21.3136 15.7561 21.1811 17.1011 21.4392 18.3986C21.6973 19.6962 22.3344 20.8881 23.2699 21.8236C24.2054 22.7591 25.3973 23.3962 26.6949 23.6543C27.9925 23.9124 29.3374 23.7799 30.5597 23.2737C31.782 22.7674 32.8267 21.91 33.5618 20.81C34.2968 19.7099 34.6891 18.4166 34.6891 17.0936C34.6891 15.3196 33.9843 13.6181 32.7299 12.3637C31.4754 11.1092 29.774 10.4045 27.9999 10.4045Z" fill="black"/>
<path d="M28.0008 53.5144C18.413 53.5144 10.9062 49.9245 10.9062 45.3387C10.9062 42.0758 14.7042 39.2218 20.8137 37.9062L21.1258 39.3927C15.8191 40.5002 12.3927 42.8488 12.3927 45.3387C12.3927 48.9657 19.5427 52.0279 28.0008 52.0279C36.459 52.0279 43.609 48.9657 43.609 45.3387C43.609 42.8711 40.2198 40.5299 34.9725 39.3927L35.2995 37.9062C41.3792 39.259 45.0954 42.0981 45.0954 45.3387C45.0954 49.9245 37.5887 53.5144 28.0008 53.5144Z" fill="black"/>
</svg>
