<svg width="56" height="55" viewBox="0 0 56 55" xmlns="http://www.w3.org/2000/svg">
<g clip-path="url(#clip0)">
<path d="M28 0C12.8365 0 0.5 12.3365 0.5 27.5C0.5 42.6635 12.8365 55 28 55C43.1635 55 55.5 42.6635 55.5 27.5C55.5 12.3365 43.1635 0 28 0ZM28 53.1666C13.8476 53.1666 2.33337 41.6524 2.33337 27.5C2.33337 13.3476 13.8476 1.83337 28 1.83337C42.1524 1.83337 53.6666 13.3476 53.6666 27.5C53.6666 41.6524 42.1524 53.1666 28 53.1666Z" fill="black"/>
<path d="M53.4888 35.7661C49.2759 33.1307 46.3334 25.2079 46.3334 16.4996C46.3334 13.6973 46.6221 10.9803 47.1923 8.42465C47.3023 7.93061 46.9907 7.44013 46.4965 7.33013C46.0006 7.22195 45.512 7.53176 45.402 8.0259C44.8035 10.7126 44.5 13.5635 44.5 16.4996C44.5 25.9541 47.7221 34.3214 52.5172 37.3198C52.6685 37.4143 52.8362 37.4592 53.0021 37.4592C53.3074 37.4592 53.6061 37.307 53.7804 37.0293C54.048 36.6002 53.9178 36.0337 53.4888 35.7661Z" fill="black"/>
<path d="M21.1727 1.05231C20.9848 0.978085 20.7786 0.965195 20.5833 1.02019C8.75913 4.32578 0.5 15.2148 0.5 27.5C0.5 42.6635 12.8365 55 28 55C32.5228 55 37.0109 53.8753 40.979 51.7468C41.2201 51.6175 41.3906 51.3865 41.4447 51.1189L41.7389 49.644L41.7582 49.5239C42.2046 46.7189 42.6666 43.8195 42.6666 40.7917C42.6666 22.1962 34.0289 6.22597 21.1727 1.05231ZM39.9479 49.2351L39.7325 50.3315C36.1245 52.1877 32.0774 53.1668 28.0001 53.1668C13.8476 53.1667 2.33337 41.6524 2.33337 27.5C2.33337 16.1379 9.90135 6.05549 20.7767 2.87097C32.786 7.89251 40.8334 23.078 40.8334 40.7917C40.8334 43.6746 40.3833 46.5017 39.9479 49.2351Z" fill="black"/>
<path d="M21.8766 47.7153C20.1524 47.1269 18.4207 46.2606 16.581 45.0644C16.1557 44.7884 15.5882 44.9085 15.3124 45.3329C15.0365 45.7573 15.1565 46.3247 15.5809 46.6007C17.55 47.8804 19.4153 48.8126 21.2853 49.4498C21.3834 49.4827 21.4833 49.4993 21.5814 49.4993C21.9627 49.4993 22.3193 49.2591 22.4486 48.8796C22.6118 48.4001 22.356 47.8785 21.8766 47.7153Z" fill="black"/>
<path d="M12.214 41.5932C11.9995 41.3265 11.7649 41.046 11.5219 40.7572C10.8087 39.9075 9.9993 38.945 9.56757 38.0869C9.3393 37.635 8.78844 37.4517 8.33652 37.6809C7.8846 37.9092 7.70219 38.46 7.93046 38.9119C8.45844 39.9606 9.34027 41.0102 10.1185 41.9369C10.3523 42.2147 10.5787 42.4842 10.784 42.7399C10.9656 42.9664 11.2313 43.0837 11.5 43.0837C11.7008 43.0837 11.9034 43.0177 12.0729 42.882C12.468 42.5648 12.5312 41.9882 12.214 41.5932Z" fill="black"/>
<path d="M53.6663 19.6287C26.8309 19.4152 11.0037 28.4095 2.44754 36.0242C2.06985 36.3607 2.03601 36.94 2.37235 37.3185C2.55293 37.522 2.80504 37.6257 3.05706 37.6257C3.2734 37.6257 3.49158 37.5486 3.66571 37.3937C11.9808 29.9934 27.4147 21.2448 53.6488 21.4621C53.6524 21.4621 53.6552 21.4621 53.6579 21.4621C54.1602 21.4621 54.57 21.0569 54.5745 20.5536C54.5794 20.0477 54.1724 19.6334 53.6663 19.6287Z" fill="black"/>
<path d="M8.84193 9.16646C8.56231 9.16646 8.28463 9.15454 8.00683 9.14079C7.49808 9.13166 7.07183 9.50742 7.04799 10.0135C7.02328 10.5186 7.41376 10.9485 7.91971 10.9723C8.22587 10.987 8.53299 10.9998 8.84193 10.9998C20.9731 10.9998 30.8419 22.7194 30.8419 37.1248C30.8419 43.5396 29.2845 49.2175 26.3384 53.5442C26.0533 53.9631 26.1615 54.5332 26.5804 54.8183C26.7381 54.9255 26.9177 54.9768 27.0956 54.9768C27.389 54.9768 27.6767 54.8366 27.8546 54.5763C31.008 49.9435 32.6754 43.9091 32.6754 37.1247C32.6753 21.7083 21.9833 9.16646 8.84193 9.16646Z" fill="black"/>
</g>
<defs>
<clipPath id="clip0">
<rect width="55" height="55" fill="white" transform="translate(0.5)"/>
</clipPath>
</defs>
</svg>
