<svg width="56" height="55" viewBox="0 0 56 55" fill="none" xmlns="http://www.w3.org/2000/svg">
<g clip-path="url(#clip0)">
<path d="M8.66406 44.1504H47.3359C47.9292 44.1504 48.4102 43.6694 48.4102 43.0762V10.8496C48.4102 10.2564 47.9292 9.77539 47.3359 9.77539H8.66406C8.07077 9.77539 7.58984 10.2564 7.58984 10.8496V43.0762C7.58984 43.6749 8.08259 44.1504 8.66406 44.1504ZM33.3294 33.0051L31.2227 35.1117L25.5369 29.4259C25.1174 29.0065 24.4372 29.0065 24.0177 29.4259L21.5547 31.8889L18.7044 29.0385L24.7773 19.3218L33.3294 33.0051ZM17.5357 30.9084L20.7951 34.1678C20.9965 34.3692 21.2698 34.4824 21.5547 34.4824C21.8396 34.4824 22.1129 34.3692 22.3143 34.1678L24.7773 31.7048L30.4631 37.3905C30.6729 37.6002 30.9477 37.7051 31.2227 37.7051C31.4975 37.7051 31.7726 37.6001 31.9822 37.3904L34.4979 34.8747L38.9525 42.002H10.6022L17.5357 30.9084ZM41.486 42.002C40.5517 40.5072 35.0139 31.6466 34.1353 30.2409L37.668 25.5306L46.2617 36.9889V42.002H41.486ZM46.2617 11.9238V33.4082L38.5273 23.0957C38.3244 22.8252 38.006 22.666 37.668 22.666C37.3299 22.666 37.0115 22.8252 36.8086 23.0957L32.9146 28.2877L25.6883 16.7256C25.4919 16.4115 25.1477 16.2207 24.7773 16.2207C24.407 16.2207 24.0627 16.4115 23.8664 16.7256L9.73828 39.3306V11.9238H46.2617Z" fill="black"/>
<path d="M28 52.3145C28.5933 52.3145 29.0742 51.8335 29.0742 51.2402C29.0742 50.647 28.5933 50.166 28 50.166C27.4067 50.166 26.9258 50.647 26.9258 51.2402C26.9258 51.8335 27.4067 52.3145 28 52.3145Z" fill="black"/>
<path d="M54.4258 2.68555H1.57422C0.980928 2.68555 0.5 3.16658 0.5 3.75977V51.2402C0.5 51.8334 0.980928 52.3145 1.57422 52.3145H23.166C23.7593 52.3145 24.2402 51.8334 24.2402 51.2402C24.2402 50.647 23.7593 50.166 23.166 50.166H2.64844V4.83398H53.3516V50.166H32.834C32.2407 50.166 31.7598 50.647 31.7598 51.2402C31.7598 51.8334 32.2407 52.3145 32.834 52.3145H54.4258C55.0191 52.3145 55.5 51.8334 55.5 51.2402V3.75977C55.5 3.16658 55.0191 2.68555 54.4258 2.68555Z" fill="black"/>
</g>
<defs>
<clipPath id="clip0">
<rect width="55" height="55" fill="white" transform="translate(0.5)"/>
</clipPath>
</defs>
</svg>
