<svg width="56" height="55" viewBox="0 0 56 55" xmlns="http://www.w3.org/2000/svg">
<g clip-path="url(#clip0)">
<path d="M16.4461 42.098C14.7721 42.098 13.4102 40.7355 13.4102 39.0608C13.4102 37.386 14.7721 36.0234 16.4461 36.0234C18.1201 36.0234 19.482 37.386 19.482 39.0608C19.482 40.7355 18.1201 42.098 16.4461 42.098ZM16.4461 37.6379C15.6623 37.6379 15.0247 38.2762 15.0247 39.0608C15.0247 39.8453 15.6624 40.4836 16.4461 40.4836C17.2299 40.4836 17.8675 39.8453 17.8675 39.0608C17.8675 38.2762 17.2299 37.6379 16.4461 37.6379Z" fill="black"/>
<path d="M16.4459 32.268C16.0001 32.268 15.6387 31.9065 15.6387 31.4607V23.9284C15.6387 23.4826 16.0001 23.1211 16.4459 23.1211C16.8917 23.1211 17.2532 23.4826 17.2532 23.9284V31.4607C17.2531 31.9065 16.8917 32.268 16.4459 32.268Z" fill="black"/>
<path d="M16.4459 55.0004C16.0001 55.0004 15.6387 54.6389 15.6387 54.1931V46.6608C15.6387 46.215 16.0001 45.8535 16.4459 45.8535C16.8917 45.8535 17.2532 46.2149 17.2532 46.6608V54.1931C17.2531 54.6389 16.8917 55.0004 16.4459 55.0004Z" fill="black"/>
<path d="M31.5848 39.8841H24.0573C23.6115 39.8841 23.25 39.5227 23.25 39.0768C23.25 38.6309 23.6115 38.2695 24.0573 38.2695H31.5848C32.0306 38.2695 32.392 38.631 32.392 39.0768C32.392 39.5226 32.0306 39.8841 31.5848 39.8841Z" fill="black"/>
<path d="M3.30457 39.8841H1.30728C0.861475 39.8841 0.5 39.5227 0.5 39.0768C0.5 38.6309 0.861475 38.2695 1.30728 38.2695H3.30457C3.75037 38.2695 4.11185 38.631 4.11185 39.0768C4.11185 39.5226 3.75037 39.8841 3.30457 39.8841Z" fill="black"/>
<path d="M8.83503 39.8841H6.53384C6.08804 39.8841 5.72656 39.5227 5.72656 39.0768C5.72656 38.6309 6.08793 38.2695 6.53384 38.2695H8.83503C9.28083 38.2695 9.6423 38.631 9.6423 39.0768C9.6423 39.5226 9.28083 39.8841 8.83503 39.8841Z" fill="black"/>
<path d="M21.8267 34.4993C21.6202 34.4993 21.4137 34.4206 21.2561 34.2631C20.9408 33.9479 20.9406 33.4368 21.2558 33.1214L26.5784 27.7952C26.8936 27.4798 27.4047 27.4797 27.7201 27.7949C28.0354 28.1101 28.0356 28.6212 27.7204 28.9366L22.3978 34.2628C22.24 34.4205 22.0333 34.4993 21.8267 34.4993Z" fill="black"/>
<path d="M5.74281 50.595C5.53624 50.595 5.32977 50.5163 5.17218 50.3588C4.85679 50.0436 4.85669 49.5325 5.17175 49.2171L10.4945 43.8909C10.8098 43.5755 11.3208 43.5754 11.6362 43.8906C11.9516 44.2058 11.9517 44.7169 11.6366 45.0323L6.31386 50.3585C6.15617 50.5162 5.94949 50.595 5.74281 50.595Z" fill="black"/>
<path d="M27.1514 50.595C26.9448 50.595 26.7381 50.5162 26.5804 50.3584L21.2577 45.0322C20.9426 44.7168 20.9428 44.2057 21.2581 43.8905C21.5735 43.5754 22.0846 43.5756 22.3997 43.8908L27.7224 49.217C28.0376 49.5324 28.0374 50.0435 27.7221 50.3587C27.5645 50.5163 27.3579 50.595 27.1514 50.595Z" fill="black"/>
<path d="M11.0656 34.4993C10.8589 34.4993 10.6522 34.4205 10.4945 34.2627L5.17175 28.9365C4.85669 28.6211 4.85679 28.11 5.17218 27.7948C5.48757 27.4797 5.99869 27.4799 6.31386 27.7951L11.6366 33.1213C11.9517 33.4367 11.9516 33.9478 11.6362 34.263C11.4786 34.4205 11.272 34.4993 11.0656 34.4993Z" fill="black"/>
<path d="M12.7174 49.3628C12.6191 49.3628 12.5192 49.3447 12.4222 49.3066C12.0074 49.1434 11.8033 48.6748 11.9663 48.2599L13.2397 45.0218C13.4029 44.6068 13.8716 44.403 14.2864 44.5659C14.7014 44.729 14.9054 45.1976 14.7423 45.6126L13.4689 48.8507C13.3438 49.1687 13.0395 49.3628 12.7174 49.3628Z" fill="black"/>
<path d="M18.8971 33.646C18.7988 33.646 18.6989 33.628 18.6019 33.5898C18.1869 33.4267 17.983 32.9581 18.146 32.5431L19.4193 29.305C19.5825 28.8901 20.0511 28.6861 20.466 28.8491C20.8809 29.0123 21.085 29.4808 20.9219 29.8958L19.6486 33.1339C19.5236 33.4518 19.2192 33.646 18.8971 33.646Z" fill="black"/>
<path d="M10.2093 37.4303C10.1109 37.4303 10.0109 37.4122 9.91383 37.3739L6.67775 36.0996C6.26288 35.9362 6.059 35.4675 6.22239 35.0528C6.38567 34.6379 6.85446 34.4339 7.26921 34.5974L10.5053 35.8717C10.9202 36.0351 11.124 36.5037 10.9607 36.9185C10.8356 37.2363 10.5313 37.4303 10.2093 37.4303Z" fill="black"/>
<path d="M25.9144 43.6137C25.816 43.6137 25.716 43.5956 25.6189 43.5574L22.3828 42.2832C21.968 42.1198 21.7641 41.6511 21.9275 41.2364C22.0907 40.8214 22.5594 40.6176 22.9743 40.781L26.2104 42.0552C26.6252 42.2186 26.8291 42.6873 26.6657 43.1021C26.5407 43.4197 26.2364 43.6137 25.9144 43.6137Z" fill="black"/>
<path d="M7.11254 43.949C6.80101 43.949 6.50431 43.7676 6.37208 43.4639C6.19397 43.0551 6.3811 42.5795 6.78973 42.4015L9.97834 41.0126C10.3873 40.8347 10.8628 41.0217 11.0407 41.4303C11.2188 41.839 11.0317 42.3147 10.6231 42.4927L7.43448 43.8815C7.32953 43.9273 7.22006 43.949 7.11254 43.949Z" fill="black"/>
<path d="M22.5891 37.2087C22.2776 37.2087 21.9809 37.0274 21.8486 36.7236C21.6705 36.3148 21.8577 35.8392 22.2664 35.6612L25.455 34.2724C25.8637 34.0944 26.3394 34.2814 26.5174 34.6902C26.6955 35.0989 26.5084 35.5746 26.0996 35.7526L22.911 37.1413C22.8061 37.1871 22.6967 37.2087 22.5891 37.2087Z" fill="black"/>
<path d="M13.77 33.7372C13.4584 33.7372 13.1616 33.5558 13.0293 33.2518L11.6414 30.061C11.4636 29.6522 11.6509 29.1766 12.0596 28.9988C12.4684 28.8211 12.944 29.0082 13.1218 29.417L14.5097 32.6077C14.6876 33.0165 14.5003 33.4921 14.0915 33.67C13.9868 33.7156 13.8774 33.7372 13.77 33.7372Z" fill="black"/>
<path d="M20.5063 49.2237C20.1947 49.2237 19.8979 49.0422 19.7657 48.7382L18.3778 45.5475C18.1999 45.1386 18.3872 44.6631 18.796 44.4853C19.2048 44.3072 19.6804 44.4947 19.8582 44.9035L21.246 48.0942C21.4239 48.5031 21.2366 48.9786 20.8279 49.1564C20.7231 49.2021 20.6138 49.2237 20.5063 49.2237Z" fill="black"/>
<path d="M36.4758 22.5116C34.5518 22.5116 32.9863 20.9455 32.9863 19.0204C32.9863 17.0954 34.5517 15.5293 36.4758 15.5293C38.3999 15.5293 39.9653 17.0954 39.9653 19.0204C39.9653 20.9455 38.4 22.5116 36.4758 22.5116ZM36.4758 17.1437C35.442 17.1437 34.6009 17.9856 34.6009 19.0204C34.6009 20.0552 35.442 20.8972 36.4758 20.8972C37.5097 20.8972 38.3509 20.0553 38.3509 19.0204C38.3509 17.9856 37.5097 17.1437 36.4758 17.1437Z" fill="black"/>
<path d="M36.4752 10.6798C36.0294 10.6798 35.668 10.3183 35.668 9.8725V0.807275C35.668 0.361475 36.0294 0 36.4752 0C36.921 0 37.2825 0.361475 37.2825 0.807275V9.8725C37.2825 10.3183 36.921 10.6798 36.4752 10.6798Z" fill="black"/>
<path d="M36.4752 54.9993C36.0294 54.9993 35.668 54.6379 35.668 54.1921V49.0592C35.668 48.6134 36.0294 48.252 36.4752 48.252C36.921 48.252 37.2825 48.6134 37.2825 49.0592V54.1921C37.2825 54.6379 36.921 54.9993 36.4752 54.9993Z" fill="black"/>
<path d="M36.4752 46.6381C36.0294 46.6381 35.668 46.2767 35.668 45.8308V28.1667C35.668 27.7208 36.0294 27.3594 36.4752 27.3594C36.921 27.3594 37.2825 27.7207 37.2825 28.1667V45.8309C37.2825 46.2767 36.921 46.6381 36.4752 46.6381Z" fill="black"/>
<path d="M54.6948 19.845H45.6354C45.1896 19.845 44.8281 19.4835 44.8281 19.0377C44.8281 18.5919 45.1896 18.2305 45.6354 18.2305H54.6948C55.1406 18.2305 55.5021 18.5919 55.5021 19.0377C55.5021 19.4835 55.1406 19.845 54.6948 19.845Z" fill="black"/>
<path d="M20.9761 19.845H18.2545C17.8087 19.845 17.4473 19.4835 17.4473 19.0377C17.4473 18.5919 17.8087 18.2305 18.2545 18.2305H20.9761C21.4219 18.2305 21.7833 18.5919 21.7833 19.0377C21.7832 19.4835 21.4219 19.845 20.9761 19.845Z" fill="black"/>
<path d="M27.3147 19.845H24.2057C23.7599 19.845 23.3984 19.4835 23.3984 19.0377C23.3984 18.5919 23.7599 18.2305 24.2057 18.2305H27.3147C27.7605 18.2305 28.122 18.5919 28.122 19.0377C28.122 19.4835 27.7605 19.845 27.3147 19.845Z" fill="black"/>
<path d="M42.9517 13.3644C42.7452 13.3644 42.5387 13.2857 42.3811 13.1282C42.0658 12.813 42.0656 12.3019 42.3808 11.9865L48.7868 5.57647C49.102 5.26108 49.6131 5.26097 49.9285 5.57615C50.2437 5.89132 50.2439 6.40243 49.9288 6.71782L43.5228 13.1279C43.3651 13.2856 43.1584 13.3644 42.9517 13.3644Z" fill="black"/>
<path d="M49.3577 32.7375C49.1511 32.7375 48.9444 32.6586 48.7868 32.5008L42.3808 26.0907C42.0656 25.7753 42.0658 25.2642 42.3811 24.9491C42.6965 24.634 43.2076 24.6342 43.5228 24.9495L49.9288 31.3596C50.2439 31.675 50.2438 32.1861 49.9285 32.5012C49.7708 32.6587 49.5642 32.7375 49.3577 32.7375Z" fill="black"/>
<path d="M29.9965 13.3644C29.7898 13.3644 29.5831 13.2856 29.4254 13.1278L23.0194 6.7177C22.7044 6.40231 22.7045 5.8912 23.0197 5.57602C23.3351 5.26096 23.8463 5.26117 24.1614 5.57635L30.5674 11.9864C30.8826 12.3018 30.8824 12.8129 30.5671 13.1281C30.4095 13.2857 30.2029 13.3644 29.9965 13.3644Z" fill="black"/>
<path d="M31.987 31.2503C31.8887 31.2503 31.7888 31.2323 31.6918 31.1941C31.2768 31.031 31.0728 30.5624 31.2359 30.1474L32.7683 26.2503C32.9315 25.8354 33.4002 25.6315 33.8151 25.7944C34.2299 25.9575 34.434 26.4261 34.271 26.8411L32.7385 30.7382C32.6133 31.0562 32.309 31.2503 31.987 31.2503Z" fill="black"/>
<path d="M39.4264 12.3363C39.3281 12.3363 39.2282 12.3183 39.1312 12.2801C38.7162 12.1169 38.5123 11.6484 38.6753 11.2334L40.2078 7.33624C40.371 6.92137 40.8394 6.71738 41.2545 6.88034C41.6695 7.04351 41.8735 7.51209 41.7104 7.92706L40.1779 11.8242C40.0528 12.1422 39.7485 12.3363 39.4264 12.3363Z" fill="black"/>
<path d="M28.9695 16.8906C28.8711 16.8906 28.7711 16.8726 28.674 16.8343L24.7793 15.3009C24.3644 15.1375 24.1606 14.6689 24.3239 14.2541C24.4872 13.8392 24.9559 13.635 25.3708 13.7987L29.2655 15.3321C29.6803 15.4955 29.8842 15.9642 29.7208 16.379C29.5958 16.6966 29.2914 16.8906 28.9695 16.8906Z" fill="black"/>
<path d="M47.8719 24.3339C47.7735 24.3339 47.6734 24.3158 47.5763 24.2776L43.6817 22.7442C43.2668 22.5808 43.0629 22.1121 43.2263 21.6973C43.3896 21.2825 43.8583 21.0785 44.2731 21.242L48.1678 22.7754C48.5827 22.9387 48.7866 23.4074 48.6232 23.8222C48.4981 24.1399 48.1938 24.3339 47.8719 24.3339Z" fill="black"/>
<path d="M25.2434 24.7375C24.9319 24.7375 24.6352 24.5561 24.5029 24.2523C24.3248 23.8436 24.512 23.3679 24.9207 23.1899L28.7583 21.5186C29.1671 21.3405 29.6427 21.5276 29.8207 21.9363C29.9988 22.3451 29.8117 22.8207 29.403 22.9987L25.5653 24.6701C25.4604 24.7159 25.351 24.7375 25.2434 24.7375Z" fill="black"/>
<path d="M43.8664 16.6242C43.5549 16.6242 43.2582 16.4428 43.126 16.1391C42.9479 15.7303 43.135 15.2547 43.5437 15.0767L47.3814 13.4053C47.79 13.2272 48.2659 13.4143 48.4438 13.823C48.6219 14.2318 48.4348 14.7074 48.026 14.8854L44.1884 16.5568C44.0834 16.6025 43.974 16.6242 43.8664 16.6242Z" fill="black"/>
<path d="M33.2555 12.4472C32.9439 12.4472 32.6471 12.2658 32.5149 11.9618L30.8446 8.12169C30.6667 7.71284 30.854 7.23729 31.2628 7.0595C31.6717 6.8814 32.1472 7.06896 32.3249 7.4777L33.9953 11.3178C34.1731 11.7267 33.9858 12.2022 33.5771 12.38C33.4722 12.4257 33.363 12.4472 33.2555 12.4472Z" fill="black"/>
<path d="M41.363 31.0841C41.0513 31.0841 40.7545 30.9027 40.6223 30.5986L38.952 26.7585C38.7741 26.3497 38.9614 25.8741 39.3702 25.6962C39.7789 25.5181 40.2546 25.7056 40.4324 26.1144L42.1027 29.9544C42.2806 30.3633 42.0932 30.8388 41.6845 31.0167C41.5797 31.0625 41.4705 31.0841 41.363 31.0841Z" fill="black"/>
<path d="M11.1866 16.8265C10.6895 16.8265 10.2446 16.5486 10.0255 16.1013C9.76894 15.5779 9.30069 14.8203 8.5265 14.1835C8.22787 13.9379 8.05664 13.5742 8.05664 13.1857C8.05664 12.7971 8.22787 12.4335 8.5265 12.1878C9.30069 11.5511 9.76894 10.7935 10.0255 10.27C10.2446 9.82271 10.6894 9.54492 11.1866 9.54492C11.6836 9.54492 12.1286 9.82282 12.3477 10.27C12.6042 10.7935 13.0725 11.5511 13.8466 12.1878C14.1452 12.4334 14.3164 12.7971 14.3164 13.1857C14.3164 13.5742 14.1452 13.9379 13.8465 14.1835C13.0724 14.8202 12.604 15.5778 12.3476 16.1013C12.1285 16.5485 11.6835 16.8265 11.1866 16.8265ZM9.83823 13.1857C10.3583 13.6641 10.8154 14.231 11.1866 14.8567C11.5576 14.231 12.0148 13.664 12.5348 13.1857C12.0148 12.7073 11.5577 12.1403 11.1866 11.5146C10.8154 12.1404 10.3583 12.7073 9.83823 13.1857ZM12.821 13.4349H12.8221H12.821Z" fill="black"/>
<path d="M45.1633 46.0863C44.6662 46.0863 44.2212 45.8085 44.002 45.3611C43.7455 44.8376 43.2774 44.0801 42.5031 43.4433C42.2044 43.1977 42.0332 42.834 42.0332 42.4454C42.0332 42.0569 42.2044 41.6932 42.5032 41.4476C43.2774 40.8109 43.7456 40.0534 44.002 39.5299C44.2213 39.0826 44.6661 38.8047 45.1632 38.8047H45.1633C45.6603 38.8047 46.1051 39.0826 46.3243 39.5299C46.5808 40.0534 47.0491 40.811 47.8231 41.4477C48.1218 41.6933 48.293 42.057 48.293 42.4455C48.293 42.8341 48.1218 43.1978 47.823 43.4434C47.0489 44.0801 46.5807 44.8376 46.3242 45.3611C46.1051 45.8084 45.6602 46.0863 45.1633 46.0863ZM43.8148 42.4455C44.3348 42.924 44.792 43.4909 45.163 44.1166C45.5342 43.4908 45.9914 42.9239 46.5113 42.4455C45.9913 41.9671 45.5342 41.4002 45.163 40.7745C44.7921 41.4002 44.3349 41.9672 43.8148 42.4455ZM46.7977 42.6946H46.7988H46.7977Z" fill="black"/>
</g>
<defs>
<clipPath id="clip0">
<rect width="55" height="55" fill="white" transform="translate(0.5)"/>
</clipPath>
</defs>
</svg>
