<?xml version="1.0" standalone="no"?>
<!DOCTYPE svg PUBLIC "-//W3C//DTD SVG 20010904//EN"
 "http://www.w3.org/TR/2001/REC-SVG-20010904/DTD/svg10.dtd">
<svg version="1.0" xmlns="http://www.w3.org/2000/svg"
 width="72.000000pt" height="72.000000pt" viewBox="0 0 72.000000 72.000000"
 preserveAspectRatio="xMidYMid meet">
<metadata>
Created by potrace 1.10, written by Peter Selinger 2001-2011
</metadata>
<g transform="translate(0.000000,72.000000) scale(0.100000,-0.100000)"
fill="#000000" stroke="none">
<path d="M147 684 c-11 -12 -9 -644 3 -645 37 -5 78 -6 93 -2 16 4 17 25 17
264 0 166 4 259 10 259 6 0 10 -5 10 -11 0 -5 4 -8 9 -5 5 4 12 0 14 -6 3 -7
6 -1 6 15 1 24 -2 27 -29 25 l-30 -2 0 -264 c0 -206 -3 -263 -12 -260 -10 4
-14 70 -16 276 -2 229 0 272 12 272 15 0 28 24 19 34 -4 3 -17 6 -29 6 -16 0
-24 7 -26 23 -3 22 -36 36 -51 21z m53 -342 c0 -231 -3 -293 -12 -290 -10 4
-14 71 -16 284 -3 282 1 341 19 313 5 -7 9 -146 9 -307z"/>
<path d="M308 364 c6 -194 -5 -317 -25 -310 -8 4 -13 1 -11 -6 4 -11 61 -18
86 -10 9 3 12 54 12 208 0 129 4 204 10 204 6 0 10 -9 10 -20 0 -11 5 -20 10
-20 6 0 10 -67 10 -180 0 -156 -2 -180 -16 -180 -8 0 -13 -4 -10 -9 3 -4 47
-8 98 -7 l93 1 2 55 c1 44 0 49 -7 25 -6 -22 -8 -10 -8 45 1 59 2 67 8 40 7
-29 8 -24 6 25 -1 59 -1 60 -28 57 -25 -2 -28 0 -28 28 0 25 -4 30 -25 30 -20
0 -25 5 -25 25 0 20 -5 25 -25 25 -22 0 -25 4 -25 35 0 32 -2 35 -30 35 -25 0
-30 4 -30 25 0 21 -5 25 -28 25 l-27 0 3 -146z m46 90 c9 -25 7 -377 -3 -393
-7 -11 -10 -10 -14 5 -5 17 -11 322 -8 382 1 25 16 29 25 6z m110 -126 c8 -41
6 -239 -2 -258 -7 -16 -25 -20 -37 -8 -4 4 -4 74 0 157 6 114 10 148 20 145 7
-3 16 -19 19 -36z m56 -164 c0 -61 -3 -113 -6 -117 -3 -3 -12 -3 -20 0 -11 4
-14 30 -14 117 0 61 3 122 7 135 l6 23 13 -23 c9 -16 13 -63 14 -135z"/>
</g>
</svg>
