<?xml version="1.0" standalone="no"?>
<!DOCTYPE svg PUBLIC "-//W3C//DTD SVG 20010904//EN"
 "http://www.w3.org/TR/2001/REC-SVG-20010904/DTD/svg10.dtd">
<svg version="1.0" xmlns="http://www.w3.org/2000/svg"
 width="72.000000pt" height="72.000000pt" viewBox="0 0 72.000000 72.000000"
 preserveAspectRatio="xMidYMid meet">
<metadata>
Created by potrace 1.10, written by Peter Selinger 2001-2011
</metadata>
<g transform="translate(0.000000,72.000000) scale(0.100000,-0.100000)"
fill="#000000" stroke="none">
<path d="M40 701 c0 -5 9 -13 21 -16 12 -4 19 -14 17 -23 -5 -25 -35 -27 -43
-3 -3 12 -11 21 -16 21 -14 0 -11 -17 6 -33 8 -8 11 -18 7 -22 -4 -5 2 -5 12
-1 17 6 17 5 5 -11 -12 -15 -12 -16 3 -11 11 5 27 -5 49 -30 18 -20 99 -105
181 -188 109 -111 148 -158 148 -176 0 -29 48 -78 75 -78 11 0 47 -27 80 -60
l61 -60 32 33 32 33 -40 39 c-22 21 -40 49 -40 60 0 28 -50 75 -79 75 -17 0
-63 38 -155 129 -72 71 -147 143 -166 160 -19 17 -53 48 -74 69 -22 20 -31 27
-21 15 19 -24 8 -32 -13 -11 -6 6 -14 9 -17 7 -2 -3 46 -54 108 -115 61 -60
92 -87 67 -59 -25 27 -49 52 -54 56 -5 4 -7 11 -5 17 5 14 126 -102 134 -128
4 -11 12 -20 18 -20 7 0 45 -32 85 -70 48 -46 81 -70 96 -70 13 0 29 -7 36
-15 15 -18 7 -19 -23 -3 -20 10 -21 10 -8 -5 7 -10 10 -17 6 -17 -4 0 -2 -7 5
-15 7 -8 16 -13 20 -10 11 7 61 -50 53 -60 -5 -4 -2 -5 5 -1 19 11 14 -19 -6
-37 -17 -16 -20 -15 -47 13 -16 17 -25 30 -20 30 13 0 -14 25 -28 25 -7 1 -11
7 -9 14 1 7 -1 10 -6 7 -12 -7 -74 58 -65 68 5 4 1 6 -7 4 -8 -1 -15 2 -15 7
-1 6 -85 93 -188 194 l-186 184 24 23 c28 26 36 56 10 34 -13 -11 -14 -10 -10
2 4 9 -4 19 -20 26 -31 14 -35 15 -35 3z"/>
</g>
</svg>
