<?xml version="1.0" standalone="no"?>
<!DOCTYPE svg PUBLIC "-//W3C//DTD SVG 20010904//EN"
 "http://www.w3.org/TR/2001/REC-SVG-20010904/DTD/svg10.dtd">
<svg version="1.0" xmlns="http://www.w3.org/2000/svg"
 width="72.000000pt" height="72.000000pt" viewBox="0 0 72.000000 72.000000"
 preserveAspectRatio="xMidYMid meet">
<metadata>
Created by potrace 1.10, written by Peter Selinger 2001-2011
</metadata>
<g transform="translate(0.000000,72.000000) scale(0.100000,-0.100000)"
fill="#000000" stroke="none">
<path d="M224 663 c-5 -37 -4 -49 10 -59 13 -9 14 -13 4 -17 -10 -3 -10 -8 -2
-17 8 -8 9 -24 3 -48 -16 -70 5 -240 38 -321 14 -32 13 -38 -8 -83 -22 -48
-21 -70 4 -50 9 8 25 7 59 -4 37 -13 45 -19 41 -35 -7 -26 13 -24 27 2 9 16
18 19 36 15 14 -4 24 -2 24 4 0 5 -5 10 -11 10 -13 0 -11 25 26 309 26 206 24
241 -18 247 -10 1 -14 -2 -10 -8 4 -7 -1 -9 -15 -6 -14 4 -19 2 -16 -7 10 -24
-25 -24 -60 0 -20 14 -36 22 -36 19 0 -3 -13 5 -30 19 -16 14 -35 27 -41 29
-7 2 -9 10 -5 17 6 9 18 4 45 -21 35 -32 35 -32 -4 10 -21 23 -42 42 -46 42
-4 0 -11 -21 -15 -47z m81 -61 c0 -6 10 -19 23 -27 12 -9 20 -20 17 -25 -6
-10 60 -5 77 7 7 4 23 8 35 8 26 1 27 12 -14 -229 -32 -192 -54 -262 -79 -258
-11 2 -20 5 -21 6 -7 7 23 95 39 112 13 15 16 23 8 26 -9 3 -1 44 24 142 21
76 35 143 32 149 -2 7 -5 2 -5 -10 -1 -13 -5 -23 -11 -23 -5 0 -6 -7 -3 -17 4
-10 2 -14 -4 -10 -6 4 -8 -4 -5 -21 5 -24 3 -25 -10 -14 -11 9 -18 10 -23 2
-4 -6 -1 -9 6 -8 7 2 15 -5 17 -16 2 -10 0 -16 -6 -12 -5 3 -7 -6 -4 -21 3
-16 1 -24 -5 -20 -6 4 -8 -4 -5 -20 4 -19 2 -24 -8 -18 -9 6 -11 4 -6 -4 9
-15 -23 -161 -35 -161 -8 0 -13 24 -10 44 1 5 -5 16 -13 25 -19 21 -36 139
-36 248 0 48 -4 103 -9 121 -9 31 -9 33 12 27 17 -5 19 -4 7 4 -8 6 -23 8 -32
5 -12 -3 -18 0 -18 10 0 14 4 14 33 3 17 -7 32 -19 32 -25z"/>
<path d="M334 452 c3 -6 2 -13 -4 -17 -6 -4 -8 -10 -5 -15 3 -5 -3 -13 -12
-19 -16 -9 -14 -11 15 -11 4 0 7 4 7 10 0 5 9 15 19 23 19 14 19 15 -3 27 -13
6 -21 7 -17 2z"/>
</g>
</svg>
