<?xml version="1.0" standalone="no"?>
<!DOCTYPE svg PUBLIC "-//W3C//DTD SVG 20010904//EN"
 "http://www.w3.org/TR/2001/REC-SVG-20010904/DTD/svg10.dtd">
<svg version="1.0" xmlns="http://www.w3.org/2000/svg"
 width="72.000000pt" height="72.000000pt" viewBox="0 0 72.000000 72.000000"
 preserveAspectRatio="xMidYMid meet">
<metadata>
Created by potrace 1.10, written by Peter Selinger 2001-2011
</metadata>
<g transform="translate(0.000000,72.000000) scale(0.100000,-0.100000)"
fill="#000000" stroke="none">
<path d="M315 690 c3 -4 -5 -10 -18 -14 -37 -10 -75 -7 -80 7 -4 9 -7 9 -15
-1 -5 -7 -18 -14 -29 -15 -12 0 -19 -6 -16 -13 5 -14 -24 -27 -32 -15 -7 13
-55 -11 -55 -27 0 -7 4 -11 9 -8 15 9 38 -36 51 -99 12 -57 17 -64 104 -148
l91 -88 -93 -91 c-65 -62 -91 -95 -87 -106 4 -12 22 1 76 54 39 38 79 84 90
101 11 18 34 43 52 55 17 12 27 17 23 10 -4 -7 -3 -12 2 -12 10 0 58 62 55 71
-3 10 46 53 62 55 23 3 18 -4 -16 -21 -17 -9 -29 -19 -26 -21 10 -10 66 27 91
59 14 18 30 58 37 88 12 60 33 100 50 96 7 -1 14 4 16 11 3 7 -4 12 -16 12
-11 0 -23 5 -26 10 -5 7 -11 8 -18 1 -13 -10 -52 11 -40 22 3 4 -3 7 -13 7
-11 0 -26 6 -32 12 -10 10 -15 10 -21 -1 -6 -10 -21 -11 -60 -6 -28 4 -51 10
-51 14 0 4 -16 7 -35 8 -19 1 -33 -3 -30 -7z m145 -39 c121 -11 161 -36 101
-62 -17 -7 -32 -21 -34 -31 -4 -14 -1 -15 20 -7 34 13 37 8 29 -45 -8 -49 -33
-88 -60 -92 -14 -2 -15 0 -5 12 24 29 -9 12 -50 -25 -30 -28 -51 -39 -71 -39
-29 1 -29 1 -14 31 10 18 14 48 12 77 l-3 48 43 7 c24 4 41 9 39 12 -3 3 -29
2 -56 -2 -42 -6 -51 -10 -51 -27 0 -12 4 -16 11 -12 7 4 10 1 7 -7 -6 -19 -39
-24 -49 -7 -7 10 -9 10 -9 0 0 -7 7 -15 15 -17 52 -17 51 -16 34 -28 -9 -7
-14 -18 -12 -25 6 -14 -34 -31 -59 -24 -30 7 -95 74 -79 79 7 3 21 13 31 23
16 16 89 33 88 20 -1 -17 3 -30 11 -30 4 0 6 11 3 25 -4 21 -10 25 -42 25 -21
0 -51 3 -68 6 -28 6 -30 4 -25 -17 4 -13 8 -18 11 -11 2 6 8 12 13 12 6 0 5
-8 -1 -20 -6 -11 -17 -20 -25 -20 -19 0 -39 36 -25 45 18 11 10 22 -20 29 -28
5 -43 26 -19 26 6 0 8 8 4 19 -4 14 1 23 17 32 27 15 166 38 188 32 8 -3 53
-8 100 -12z m-249 -237 c13 -12 38 -29 54 -38 26 -15 27 -16 5 -10 -50 13
-103 61 -115 104 -6 23 -5 22 13 -5 11 -16 30 -40 43 -51z m189 -76 c0 -4 -13
-16 -28 -27 l-29 -20 -25 29 -25 29 53 -2 c30 -1 54 -5 54 -9z"/>
<path d="M506 585 c-4 -11 -21 -15 -59 -15 -30 0 -57 3 -60 7 -12 11 -61 13
-68 1 -5 -7 -24 -7 -63 -1 -41 7 -56 7 -56 -2 0 -7 14 -10 38 -8 33 2 34 1 12
-7 -19 -7 -10 -9 35 -5 40 3 53 1 40 -5 -19 -8 -19 -9 3 -9 13 -1 22 5 22 14
0 9 6 12 16 8 13 -5 13 -7 2 -15 -8 -5 11 -6 48 -2 55 6 63 4 76 -15 15 -22
15 -22 21 6 3 15 9 36 12 46 4 9 3 17 -3 17 -5 0 -12 -7 -16 -15z"/>
<path d="M484 505 c1 -29 41 -27 42 3 1 18 1 19 -3 2 -5 -25 -30 -26 -36 -2
-3 13 -4 12 -3 -3z"/>
<path d="M354 257 c-10 -12 -25 -33 -33 -47 -8 -14 -36 -60 -62 -102 -27 -43
-44 -80 -39 -83 6 -3 14 -4 19 -1 13 8 92 144 96 166 5 29 23 58 41 68 10 5
12 12 7 15 -6 4 -19 -4 -29 -16z"/>
<path d="M362 224 c-7 -14 -8 -23 -3 -20 5 3 12 -1 15 -10 4 -9 2 -13 -5 -8
-6 4 8 -30 31 -75 23 -44 46 -81 51 -81 14 0 21 20 11 33 -20 24 -92 167 -84
167 7 0 32 -33 42 -57 3 -6 31 -39 64 -73 38 -40 64 -59 74 -55 11 4 -4 25
-59 82 -102 105 -119 123 -123 123 -1 0 -8 -12 -14 -26z"/>
</g>
</svg>
