<?xml version="1.0" standalone="no"?>
<!DOCTYPE svg PUBLIC "-//W3C//DTD SVG 20010904//EN"
 "http://www.w3.org/TR/2001/REC-SVG-20010904/DTD/svg10.dtd">
<svg version="1.0" xmlns="http://www.w3.org/2000/svg"
 width="72.000000pt" height="72.000000pt" viewBox="0 0 72.000000 72.000000"
 preserveAspectRatio="xMidYMid meet">
<metadata>
Created by potrace 1.10, written by Peter Selinger 2001-2011
</metadata>
<g transform="translate(0.000000,72.000000) scale(0.100000,-0.100000)"
fill="#000000" stroke="none">
<path d="M20 699 c0 -18 41 -59 59 -59 7 0 10 -4 6 -10 -3 -5 -12 -7 -20 -3
-36 13 -4 -22 157 -177 281 -269 357 -355 358 -403 0 -37 31 -31 77 16 48 47
53 77 14 77 -32 0 -104 55 -200 153 -50 51 -154 156 -231 235 -80 83 -144 141
-151 137 -6 -4 -24 5 -40 21 -20 19 -29 23 -29 13z m129 -131 c61 -58 69 -68
50 -68 -15 0 -129 107 -121 115 9 9 14 6 71 -47z m107 -93 c15 -14 24 -28 21
-31 -5 -5 -57 43 -57 52 0 9 11 2 36 -21z m105 -107 c38 -39 67 -73 64 -76 -3
-3 -20 11 -39 31 -18 20 -37 33 -41 29 -5 -4 -5 -1 -1 6 5 7 1 12 -10 12 -10
0 -15 3 -11 6 8 8 -25 44 -41 44 -7 0 -10 5 -7 10 3 6 9 10 11 10 3 0 37 -32
75 -72z m92 -89 c-8 -8 4 -24 47 -60 66 -55 76 -67 64 -79 -5 -5 -36 21 -72
60 -58 64 -69 90 -39 90 8 0 8 -3 0 -11z m144 -154 c-21 -15 -22 -25 -1 -25
14 0 15 -3 3 -17 -7 -10 1 -5 19 11 37 34 43 20 10 -24 -27 -38 -35 -38 -43 0
-4 16 -11 30 -16 30 -14 0 -11 17 7 34 8 9 20 13 26 10 7 -5 5 -11 -5 -19z"/>
</g>
</svg>
