<?xml version="1.0" standalone="no"?>
<!DOCTYPE svg PUBLIC "-//W3C//DTD SVG 20010904//EN"
 "http://www.w3.org/TR/2001/REC-SVG-20010904/DTD/svg10.dtd">
<svg version="1.0" xmlns="http://www.w3.org/2000/svg"
 width="72.000000pt" height="72.000000pt" viewBox="0 0 72.000000 72.000000"
 preserveAspectRatio="xMidYMid meet">
<metadata>
Created by potrace 1.10, written by Peter Selinger 2001-2011
</metadata>
<g transform="translate(0.000000,72.000000) scale(0.100000,-0.100000)"
fill="#000000" stroke="none">
<path d="M35 679 c-4 -5 13 -31 37 -57 24 -26 54 -65 68 -87 13 -22 25 -42 26
-44 2 -1 8 0 14 4 8 5 3 17 -17 39 -15 17 -21 25 -13 19 20 -18 35 -16 20 2
-19 23 4 18 25 -5 10 -11 20 -18 22 -16 9 9 43 -29 43 -47 0 -10 5 -15 11 -11
15 9 69 -45 69 -69 0 -12 5 -17 13 -14 17 6 67 -45 67 -67 0 -9 7 -16 16 -16
22 0 73 -50 67 -67 -3 -8 2 -13 14 -13 22 0 67 -47 68 -70 0 -8 9 -15 20 -15
10 0 24 -10 31 -23 19 -38 64 -66 64 -39 0 16 -451 467 -468 467 -7 0 -31 12
-55 27 -23 15 -45 27 -48 26 -3 -1 -21 18 -40 42 -36 47 -44 52 -54 34z"/>
<path d="M180 532 c0 -7 5 -12 10 -12 6 0 10 -9 10 -19 0 -10 7 -21 15 -25 9
-3 12 -12 9 -21 -6 -14 -10 -13 -30 6 -13 12 -26 20 -29 18 -2 -3 101 -110
230 -239 129 -129 235 -230 235 -223 0 6 -5 15 -10 18 -11 7 -4 25 10 25 5 0
10 -7 12 -17 3 -15 4 -15 16 0 11 13 8 20 -23 49 -20 18 -130 127 -245 242
-116 115 -210 204 -210 198z m97 -119 c16 -16 28 -34 25 -41 -3 -10 -15 -4
-38 19 -18 18 -31 36 -28 41 7 12 9 11 41 -19z m84 -83 c17 -16 27 -35 24 -41
-5 -7 -20 1 -41 22 -18 18 -31 36 -28 41 8 13 13 10 45 -22z m103 -122 c-4 -5
-21 5 -40 23 -23 22 -30 35 -22 40 14 9 71 -49 62 -63z m85 -82 c-6 -6 -23 3
-44 24 -23 22 -31 36 -24 41 15 9 79 -53 68 -65z m51 -31 c19 -23 1 -39 -21
-19 -10 9 -19 21 -19 26 0 13 27 9 40 -7z"/>
</g>
</svg>
