<?xml version="1.0" standalone="no"?>
<!DOCTYPE svg PUBLIC "-//W3C//DTD SVG 20010904//EN"
 "http://www.w3.org/TR/2001/REC-SVG-20010904/DTD/svg10.dtd">
<svg version="1.0" xmlns="http://www.w3.org/2000/svg"
 width="72.000000pt" height="72.000000pt" viewBox="0 0 72.000000 72.000000"
 preserveAspectRatio="xMidYMid meet">
<metadata>
Created by potrace 1.10, written by Peter Selinger 2001-2011
</metadata>
<g transform="translate(0.000000,72.000000) scale(0.100000,-0.100000)"
fill="#000000" stroke="none">
<path d="M36 681 c-13 -14 -14 -20 -4 -23 11 -4 11 -8 0 -20 -10 -13 -9 -16 7
-21 28 -7 48 18 31 38 -10 12 -10 15 1 14 8 0 31 -21 52 -45 l39 -43 -21 -27
c-26 -34 -27 -47 -1 -39 25 8 29 -22 4 -32 -12 -4 35 -57 185 -207 110 -111
205 -214 210 -229 l11 -28 31 18 c31 18 92 82 110 116 8 14 5 19 -18 28 -15 5
-119 100 -229 211 -180 179 -203 198 -209 179 -4 -13 -5 -24 -3 -25 55 -42
122 -115 120 -130 -3 -13 1 -17 15 -14 26 5 52 -20 45 -45 -4 -17 -1 -19 16
-15 12 4 22 2 22 -3 0 -5 11 -15 25 -21 22 -10 23 -12 8 -23 -11 -8 -13 -14
-5 -19 7 -4 16 -5 21 -2 5 4 34 -20 65 -51 l55 -58 -39 -39 -39 -39 -78 71
c-71 64 -167 161 -267 269 -34 37 -37 44 -26 58 19 23 20 53 2 60 -13 5 -13 8
-2 18 10 9 13 9 17 0 3 -7 12 -13 21 -13 13 0 14 2 4 8 -8 5 -10 16 -6 27 6
14 4 17 -8 13 -17 -7 -98 68 -98 91 0 10 -3 11 -13 2 -9 -7 -17 -7 -23 -1 -7
7 -16 4 -28 -9z m616 -546 c-4 -6 -25 -27 -46 -46 -22 -19 -37 -29 -33 -22 4
6 2 15 -4 18 -7 5 3 21 27 46 29 29 41 36 51 28 7 -6 9 -17 5 -24z"/>
<path d="M623 136 c1 -5 -5 -10 -13 -11 -8 0 -15 -7 -15 -15 -1 -8 -7 -14 -14
-12 -7 1 -9 -2 -6 -9 5 -7 19 1 41 22 39 38 38 36 20 36 -8 0 -14 -5 -13 -11z"/>
<path d="M89 597 c6 -8 9 -16 6 -19 -3 -3 1 -11 10 -18 10 -8 15 -9 15 -1 0 6
-5 11 -11 11 -5 0 -8 4 -4 10 3 5 13 6 23 3 14 -5 15 -3 5 7 -7 8 -22 15 -34
17 -17 3 -19 1 -10 -10z"/>
<path d="M398 315 c25 -38 120 -128 152 -145 14 -7 3 7 -25 31 -27 24 -71 67
-98 94 -31 32 -42 39 -29 20z"/>
</g>
</svg>
