<?xml version="1.0" standalone="no"?>
<!DOCTYPE svg PUBLIC "-//W3C//DTD SVG 20010904//EN"
 "http://www.w3.org/TR/2001/REC-SVG-20010904/DTD/svg10.dtd">
<svg version="1.0" xmlns="http://www.w3.org/2000/svg"
 width="72.000000pt" height="72.000000pt" viewBox="0 0 72.000000 72.000000"
 preserveAspectRatio="xMidYMid meet">
<metadata>
Created by potrace 1.10, written by Peter Selinger 2001-2011
</metadata>
<g transform="translate(0.000000,72.000000) scale(0.100000,-0.100000)"
fill="#000000" stroke="none">
<path d="M414 709 c-26 -9 -64 -56 -64 -78 0 -9 -13 -29 -30 -44 -32 -31 -54
-92 -47 -135 3 -20 4 -16 6 13 1 28 4 36 10 26 11 -17 -14 -110 -35 -129 -9
-8 -10 -8 -4 0 6 7 10 17 10 22 0 6 -17 -14 -37 -44 -29 -44 -38 -67 -41 -113
-12 -154 113 -265 222 -197 43 26 61 63 61 124 0 49 1 52 25 49 29 -4 65 20
55 36 -3 6 -22 11 -42 11 -29 0 -45 8 -77 40 -71 70 -93 90 -102 90 -4 0 -3
-5 4 -12 19 -19 14 -31 -12 -24 -19 5 -31 -2 -60 -34 -37 -41 -43 -57 -49
-125 -3 -34 -4 -32 -5 13 -2 65 12 95 73 151 36 34 45 48 41 65 -3 13 -2 37 3
54 7 23 6 30 -4 26 -23 -9 -25 26 -2 63 l22 38 6 -65 c5 -45 3 -70 -6 -80 -7
-9 -9 -24 -4 -40 7 -24 7 -23 8 7 1 41 14 49 31 19 18 -35 55 -52 88 -40 95
33 97 279 3 312 -14 5 -36 6 -47 1z m53 -17 c17 -11 43 -88 43 -129 0 -61 -40
-113 -85 -113 -11 0 -15 5 -12 14 4 9 0 12 -13 9 -23 -6 -47 32 -31 51 6 7 9
15 7 17 -2 2 2 10 10 17 12 11 15 8 21 -19 5 -24 8 -28 15 -16 10 19 6 97 -4
90 -5 -2 -8 1 -8 8 0 7 -10 9 -25 7 -26 -5 -26 -3 7 45 19 27 50 35 75 19z
m18 -262 c-12 -13 -29 -19 -49 -19 -29 2 -29 2 -5 6 15 2 35 13 45 24 9 10 19
17 22 14 3 -3 -3 -14 -13 -25z m-104 -121 c14 -7 18 -16 14 -30 -4 -10 0 -28
9 -40 9 -13 12 -28 6 -38 -4 -9 -13 -28 -20 -42 -7 -15 -33 -36 -66 -52 l-55
-27 -16 37 c-21 51 -24 81 -12 126 16 60 88 94 140 66z m139 -78 c0 -13 -27
-21 -45 -15 -25 10 -17 24 15 24 17 0 30 -4 30 -9z m-90 -101 c-12 -16 -26
-30 -31 -30 -6 0 -7 -5 -4 -11 5 -7 14 -4 26 7 10 9 19 12 19 6 0 -18 -61 -62
-86 -62 -28 0 -64 16 -64 29 0 15 51 32 65 21 8 -7 22 2 48 32 21 23 37 47 38
53 0 5 3 4 6 -2 2 -7 -5 -26 -17 -43z"/>
</g>
</svg>
