<?xml version="1.0" standalone="no"?>
<!DOCTYPE svg PUBLIC "-//W3C//DTD SVG 20010904//EN"
 "http://www.w3.org/TR/2001/REC-SVG-20010904/DTD/svg10.dtd">
<svg version="1.0" xmlns="http://www.w3.org/2000/svg"
 width="72.000000pt" height="72.000000pt" viewBox="0 0 72.000000 72.000000"
 preserveAspectRatio="xMidYMid meet">
<metadata>
Created by potrace 1.10, written by Peter Selinger 2001-2011
</metadata>
<g transform="translate(0.000000,72.000000) scale(0.100000,-0.100000)"
fill="#000000" stroke="none">
<path d="M60 703 c-14 -3 -29 -8 -33 -13 -5 -4 3 -5 16 -3 31 6 36 -3 25 -46
l-9 -34 -16 23 c-10 14 -19 18 -25 12 -16 -16 23 -49 59 -50 37 -1 53 15 50
48 -3 25 -27 71 -37 69 -3 -1 -16 -4 -30 -6z"/>
<path d="M140 597 c0 -4 23 -27 50 -53 30 -28 47 -51 42 -56 -6 -6 -31 12 -62
44 -42 43 -46 45 -21 13 50 -64 182 -192 175 -170 -6 20 -6 20 13 0 22 -24 65
-57 46 -35 -7 8 -13 21 -13 30 0 14 -51 67 -177 184 -29 27 -53 46 -53 43z
m195 -189 c6 -6 3 -6 -9 -2 -13 5 -17 4 -12 -4 4 -7 3 -12 -3 -12 -14 0 -81
82 -75 92 5 7 36 -16 99 -74z"/>
<path d="M407 384 c-16 -9 -27 -18 -24 -21 3 -2 14 0 25 6 36 19 57 12 101
-33 31 -32 55 -47 82 -51 41 -7 63 -24 32 -26 -14 0 -15 -2 -3 -6 29 -11 50
-36 50 -60 0 -29 -27 -85 -47 -96 -7 -5 -11 -12 -8 -16 6 -11 -24 -37 -58 -50
-22 -9 -34 -8 -55 3 l-27 15 36 -6 c24 -3 47 1 70 13 41 22 22 29 -39 16 -34
-8 -44 -7 -61 9 -11 10 -23 35 -27 54 -3 19 -10 35 -14 35 -4 0 -29 20 -55 44
-49 46 -51 54 -30 111 7 20 6 20 -9 1 -9 -11 -16 -34 -16 -52 0 -26 8 -39 40
-66 32 -26 44 -45 55 -87 27 -104 94 -135 177 -82 61 39 103 101 103 153 0 51
-45 95 -107 104 -32 6 -52 18 -89 56 -51 52 -60 55 -102 32z"/>
<path d="M449 342 c11 -8 11 -11 -3 -13 -13 -3 -7 -14 28 -49 l46 -44 0 35 c0
39 -19 62 -60 73 -17 5 -21 4 -11 -2z"/>
<path d="M386 264 c-6 -23 -3 -32 14 -46 12 -10 34 -18 47 -18 28 0 27 3 -28
64 l-26 28 -7 -28z"/>
<path d="M571 227 c-6 -8 -8 -17 -5 -20 4 -3 4 -14 0 -23 -5 -13 -9 -14 -21
-4 -13 11 -14 10 -9 -4 8 -21 14 -20 48 9 17 15 26 30 23 40 -8 19 -21 19 -36
2z"/>
<path d="M491 146 c-16 -19 5 -43 26 -30 9 6 18 15 20 21 5 15 -34 23 -46 9z"/>
<path d="M585 130 c-16 -18 -17 -23 -5 -30 20 -13 26 -12 39 3 8 10 7 18 -2
31 -12 16 -14 16 -32 -4z"/>
</g>
</svg>
