<?xml version="1.0" standalone="no"?>
<!DOCTYPE svg PUBLIC "-//W3C//DTD SVG 20010904//EN"
 "http://www.w3.org/TR/2001/REC-SVG-20010904/DTD/svg10.dtd">
<svg version="1.0" xmlns="http://www.w3.org/2000/svg"
 width="72.000000pt" height="72.000000pt" viewBox="0 0 72.000000 72.000000"
 preserveAspectRatio="xMidYMid meet">
<metadata>
Created by potrace 1.10, written by Peter Selinger 2001-2011
</metadata>
<g transform="translate(0.000000,72.000000) scale(0.100000,-0.100000)"
fill="#000000" stroke="none">
<path d="M32 698 c-10 -10 12 -50 58 -98 8 -9 48 -56 89 -104 65 -77 77 -87
100 -83 22 4 33 -4 71 -49 24 -30 50 -54 56 -54 12 0 107 -108 208 -238 31
-40 55 -61 64 -57 7 3 16 5 18 5 2 0 4 5 4 12 0 21 -51 78 -69 78 -10 0 -26
12 -35 27 l-17 28 20 -24 c12 -13 21 -19 21 -14 0 5 -11 20 -25 33 -14 13 -25
29 -25 36 0 7 -10 18 -21 25 -13 7 -19 7 -15 1 3 -6 1 -14 -5 -18 -8 -4 -9 3
-5 23 5 22 3 32 -8 36 -9 4 -18 2 -21 -4 -4 -5 -11 -6 -17 -3 -7 4 -6 9 2 14
21 13 3 42 -21 35 -18 -6 -20 -4 -14 15 5 16 1 26 -14 36 -12 9 -21 22 -21 30
0 8 -7 14 -15 14 -9 0 -19 8 -22 18 -4 9 -13 22 -21 28 -12 8 -11 12 2 23 9 8
16 19 16 27 0 18 -60 85 -70 79 -5 -3 -30 20 -56 50 -51 59 -66 65 -84 38 -7
-11 -10 -12 -7 -4 2 8 11 19 21 25 14 9 25 2 67 -41 66 -69 73 -68 13 2 -52
60 -83 70 -108 34 -13 -20 -13 -25 0 -51 8 -16 31 -47 51 -69 19 -21 32 -39
28 -39 -3 0 10 -19 30 -42 31 -37 34 -44 19 -47 -26 -5 -87 69 -72 87 9 10 8
12 -2 10 -7 -2 -19 7 -25 20 -7 13 -16 24 -21 25 -5 1 -8 8 -8 14 1 7 -2 11
-6 8 -9 -6 -32 19 -28 31 4 14 -22 54 -34 54 -6 0 -4 -8 5 -18 10 -10 17 -22
17 -27 0 -4 -9 2 -20 15 -11 12 -17 26 -15 30 9 14 -20 31 -33 18z m208 -100
c0 -5 -5 -6 -12 -2 -7 4 -8 3 -4 -5 4 -6 11 -9 16 -6 9 5 80 -72 80 -87 0 -4
-4 -8 -10 -8 -5 0 -10 -9 -10 -20 0 -11 5 -20 11 -20 5 0 7 5 3 12 -4 7 -3 8
4 4 7 -4 12 -2 12 3 0 6 5 11 11 11 5 0 7 -6 3 -12 -16 -26 -11 -50 13 -59 14
-5 21 -14 18 -20 -8 -12 -53 27 -88 75 -14 20 -17 31 -9 34 17 5 15 29 -3 36
-10 3 -15 -1 -15 -11 0 -13 -3 -14 -12 -5 -8 8 -8 15 3 28 12 15 12 16 -7 10
-26 -8 -70 44 -51 63 8 8 8 11 -1 11 -7 0 -12 8 -12 17 0 13 7 10 30 -12 17
-16 30 -33 30 -37z"/>
</g>
</svg>
