<?xml version="1.0" standalone="no"?>
<!DOCTYPE svg PUBLIC "-//W3C//DTD SVG 20010904//EN"
 "http://www.w3.org/TR/2001/REC-SVG-20010904/DTD/svg10.dtd">
<svg version="1.0" xmlns="http://www.w3.org/2000/svg"
 width="72.000000pt" height="72.000000pt" viewBox="0 0 72.000000 72.000000"
 preserveAspectRatio="xMidYMid meet">
<metadata>
Created by potrace 1.10, written by Peter Selinger 2001-2011
</metadata>
<g transform="translate(0.000000,72.000000) scale(0.100000,-0.100000)"
fill="#000000" stroke="none">
<path d="M442 533 c-71 -31 -81 -38 -70 -51 11 -13 10 -14 -9 -4 -29 16 -74
-3 -65 -27 5 -13 3 -14 -10 -3 -23 19 -88 -13 -81 -39 3 -11 14 -20 24 -20 11
-1 24 -2 29 -3 6 -1 16 10 23 24 13 27 38 33 45 12 2 -7 -2 -10 -11 -6 -8 3
-17 -2 -20 -10 -5 -13 -2 -13 20 -5 19 7 31 6 47 -5 20 -12 22 -12 23 6 1 14
-3 18 -13 14 -9 -3 -12 -2 -8 5 3 6 -4 21 -17 35 -12 13 -19 24 -15 24 14 0
56 -32 51 -40 -3 -4 2 -13 9 -20 11 -9 20 -9 37 0 12 7 19 8 15 2 -3 -6 -1
-14 5 -18 8 -5 9 -3 4 6 -6 10 -4 12 8 7 9 -3 16 -3 15 1 -1 4 2 15 6 24 6 14
12 15 27 7 10 -5 19 -7 19 -4 0 4 7 -1 16 -10 9 -9 19 -13 23 -10 9 10 -30 35
-42 28 -6 -3 -7 -1 -4 4 12 20 -19 21 -57 2 -24 -12 -45 -15 -58 -10 -25 9
-31 48 -10 56 18 7 30 -3 17 -13 -20 -14 -14 -29 10 -24 14 2 25 8 25 12 0 5
18 11 40 15 38 6 57 25 24 25 -8 0 -13 4 -9 9 3 5 -8 3 -25 -5 -16 -9 -34 -22
-38 -31 -8 -13 -10 -12 -14 5 -4 13 0 22 11 25 9 3 33 12 55 22 32 13 38 14
33 2 -7 -19 11 -37 32 -30 12 3 11 1 -3 -11 -11 -9 -24 -16 -29 -16 -4 0 -6
-4 -3 -9 3 -5 17 -8 31 -8 13 0 22 3 19 8 -3 5 2 6 11 3 11 -5 14 -2 9 10 -8
22 2 20 54 -10 l44 -26 -31 -19 c-17 -10 -64 -35 -104 -55 -39 -20 -120 -63
-180 -96 -77 -43 -111 -57 -120 -50 -8 7 -18 6 -32 -4 -19 -15 -19 -15 8 -9
39 10 33 -1 -14 -25 l-40 -21 -42 37 c-64 57 -108 117 -96 129 7 7 13 5 19 -5
8 -13 14 -13 41 3 26 14 34 15 40 5 6 -9 9 -6 9 10 0 12 -6 22 -12 22 -7 1 3
9 22 20 59 32 25 22 -65 -19 -113 -53 -113 -63 -4 -162 l81 -73 147 77 c80 42
145 81 143 87 -1 7 2 9 7 6 14 -9 81 25 74 37 -3 6 -1 7 5 3 14 -9 162 72 162
90 0 13 -161 124 -178 124 -4 0 -44 -17 -90 -37z m-166 -95 c-3 -22 -17 -38
-32 -38 -8 0 -12 5 -9 10 3 6 0 10 -7 10 -7 1 -2 7 12 15 31 18 39 18 36 3z"/>
<path d="M585 467 c-14 -11 -15 -16 -5 -22 7 -4 16 -2 20 5 4 6 10 11 14 11
23 -3 36 0 31 9 -9 14 -38 12 -60 -3z"/>
<path d="M496 418 c7 -11 -36 -30 -54 -24 -13 5 -12 2 3 -9 12 -10 21 -12 23
-5 2 5 8 8 13 4 5 -3 9 0 9 5 0 6 6 10 13 9 6 -2 11 3 9 10 -2 10 4 11 19 7
14 -5 19 -4 15 4 -4 6 -18 10 -31 9 -13 -1 -22 -6 -19 -10z"/>
<path d="M256 362 l-80 -38 44 -32 c45 -33 64 -35 39 -6 -13 16 -12 16 10 5
19 -11 22 -11 18 1 -2 7 -9 12 -15 11 -5 -1 -18 7 -27 17 -16 18 -13 22 13 19
4 -1 6 -6 4 -12 -2 -7 0 -9 4 -4 4 4 19 0 33 -9 17 -12 26 -14 29 -5 2 6 9 8
15 4 7 -4 8 0 3 13 -6 15 -5 17 5 7 15 -15 29 -17 29 -4 0 13 -30 22 -43 14
-23 -14 -55 -13 -60 1 -4 11 -1 13 10 9 11 -4 14 -2 9 5 -10 16 7 15 23 0 10
-11 11 -10 6 3 -4 10 -1 20 5 24 6 3 9 2 8 -3 -2 -6 2 -10 7 -11 6 -1 10 4 10
11 0 21 -19 17 -99 -20z"/>
<path d="M170 365 c-7 -8 -9 -15 -4 -15 5 0 1 -5 -9 -11 -9 -5 -22 -7 -27 -4
-6 3 -10 1 -10 -5 0 -6 -5 -8 -10 -5 -5 3 -10 1 -10 -5 0 -6 -5 -8 -10 -5 -19
12 -10 -32 10 -50 11 -10 20 -13 20 -7 0 6 -5 14 -11 17 -6 4 1 13 17 21 15 8
30 12 33 8 12 -11 6 -29 -12 -40 -17 -10 -17 -11 4 -30 16 -13 23 -15 26 -6 3
6 11 12 19 12 21 0 17 38 -5 50 -29 15 -19 39 25 66 l39 24 -36 0 c-20 0 -42
-7 -49 -15z"/>
<path d="M406 369 c4 -8 -1 -9 -17 -4 -23 7 -24 7 -5 -11 13 -14 20 -16 23 -6
3 6 12 12 21 12 15 0 15 2 2 10 -20 13 -33 13 -24 -1z"/>
</g>
</svg>
