<?xml version="1.0" standalone="no"?>
<!DOCTYPE svg PUBLIC "-//W3C//DTD SVG 20010904//EN"
 "http://www.w3.org/TR/2001/REC-SVG-20010904/DTD/svg10.dtd">
<svg version="1.0" xmlns="http://www.w3.org/2000/svg"
 width="72.000000pt" height="72.000000pt" viewBox="0 0 72.000000 72.000000"
 preserveAspectRatio="xMidYMid meet">

<g transform="translate(0.000000,72.000000) scale(0.100000,-0.100000)"
fill="#000000" stroke="none">
<path d="M68 673 c16 -6 16 -95 0 -111 -9 -9 -9 -15 -1 -23 10 -10 10 -88 -1
-201 -3 -30 -1 -38 12 -38 11 0 13 -3 6 -8 -7 -4 -14 -33 -15 -65 -4 -54 -3
-57 19 -57 19 0 22 5 22 43 0 55 24 145 34 129 4 -7 4 -17 1 -22 -4 -6 -1 -17
5 -25 7 -8 11 -36 8 -65 -2 -42 0 -50 14 -50 13 0 18 11 21 53 l3 52 2 -52 2
-53 35 0 35 0 0 50 c0 28 5 50 10 50 6 0 10 7 10 16 0 14 3 14 15 4 19 -15 20
-96 2 -103 -6 -3 0 -6 16 -6 24 -1 27 2 28 37 2 33 2 34 6 7 3 -16 8 -34 12
-38 4 -4 5 7 3 25 -5 30 -3 32 12 19 9 -7 16 -20 16 -27 0 -8 10 -14 24 -14
19 0 32 -15 66 -72 51 -86 48 -83 57 -75 3 4 -6 30 -22 58 l-27 51 80 -56 c44
-31 82 -56 86 -56 21 0 -5 25 -84 81 -50 35 -86 65 -80 67 5 2 10 19 10 38 0
19 4 34 8 34 4 0 7 71 6 158 -3 247 2 222 -41 221 -21 -1 -30 -3 -21 -6 15 -4
17 -26 17 -221 -1 -190 -2 -215 -15 -198 -8 11 -14 43 -14 73 0 29 -4 53 -10
53 -6 0 -10 32 -10 75 0 43 4 75 10 75 6 0 10 18 10 40 0 22 -4 40 -10 40 -5
0 -10 16 -10 35 0 24 -5 35 -15 35 -17 0 -18 -23 -15 -205 1 -101 0 -108 -14
-90 -12 16 -16 51 -17 160 -1 92 -4 126 -9 100 l-7 -40 -2 43 c-1 39 -3 42
-28 41 -16 0 -22 -3 -16 -6 7 -2 13 -16 13 -30 0 -21 -2 -24 -15 -13 -8 7 -15
22 -16 34 0 20 -1 21 -9 1 -7 -17 -9 -17 -9 -2 -1 20 -31 24 -31 3 0 -18 -27
-29 -34 -13 -2 7 -5 1 -5 -13 -1 -19 2 -21 11 -12 20 20 58 14 67 -10 7 -19 5
-25 -17 -34 -49 -22 -72 4 -72 82 0 15 -6 24 -15 24 -11 0 -15 -12 -15 -49 0
-28 -4 -53 -10 -56 -14 -9 -12 -25 3 -25 17 0 10 -75 -9 -91 -12 -10 -14 7
-16 107 -1 90 -3 107 -8 69 l-7 -50 -1 53 c-2 50 -3 52 -29 51 -16 0 -22 -3
-15 -6z m252 -175 c0 -18 -2 -20 -9 -8 -6 8 -7 18 -5 22 9 14 14 9 14 -14z
m-203 -110 c-2 -24 -4 -5 -4 42 0 47 2 66 4 43 2 -24 2 -62 0 -85z m80 85 c-3
-10 -5 -4 -5 12 0 17 2 24 5 18 2 -7 2 -21 0 -30z m43 -4 c0 -12 -5 -16 -15
-13 -8 4 -15 15 -15 25 0 12 5 16 15 13 8 -4 15 -15 15 -25z m117 -36 c-2 -16
-4 -5 -4 22 0 28 2 40 4 28 2 -13 2 -35 0 -50z m-69 2 l2 40 15 -29 c15 -29
21 -116 8 -116 -5 0 -16 7 -25 14 -15 11 -18 27 -16 82 l1 69 7 -50 c7 -49 7
-49 8 -10z m-81 0 c8 -9 14 -17 12 -19 -2 -1 -17 -12 -32 -24 -33 -24 -57 -19
-57 12 0 43 46 61 77 31z m24 -109 c-8 -10 -9 -16 -1 -21 5 -3 10 -31 10 -61
0 -41 -4 -54 -15 -54 -12 0 -15 14 -15 69 0 63 4 75 29 80 2 1 -2 -5 -8 -13z
m165 -53 c-11 -11 -26 10 -26 35 l1 27 15 -28 c9 -16 13 -31 10 -34z"/>
<path d="M542 633 c15 -4 17 -23 17 -161 0 -278 -1 -262 21 -262 23 0 22 -6
24 205 1 72 0 151 -2 178 -5 47 -5 47 -41 46 -20 -1 -28 -3 -19 -6z"/>
<path d="M638 588 c-3 -24 -2 -46 1 -50 3 -4 4 -55 1 -115 -7 -157 -3 -203 21
-203 18 0 19 10 19 205 0 195 -1 205 -19 205 -15 0 -20 -9 -23 -42z"/>
<path d="M282 220 c0 -19 2 -27 5 -17 2 9 2 25 0 35 -3 9 -5 1 -5 -18z"/>
<path d="M120 180 c0 -5 5 -10 11 -10 5 0 7 5 4 10 -3 6 -8 10 -11 10 -2 0 -4
-4 -4 -10z"/>
</g>
</svg>
